%TF.GenerationSoftware,KiCad,Pcbnew,8.0.4*%
%TF.CreationDate,2024-11-15T14:07:30-05:00*%
%TF.ProjectId,BarrelJackAdapter,42617272-656c-44a6-9163-6b4164617074,rev?*%
%TF.SameCoordinates,Original*%
%TF.FileFunction,Legend,Bot*%
%TF.FilePolarity,Positive*%
%FSLAX46Y46*%
G04 Gerber Fmt 4.6, Leading zero omitted, Abs format (unit mm)*
G04 Created by KiCad (PCBNEW 8.0.4) date 2024-11-15 14:07:30*
%MOMM*%
%LPD*%
G01*
G04 APERTURE LIST*
%ADD10C,0.150000*%
%ADD11C,0.000000*%
%ADD12C,0.120000*%
G04 APERTURE END LIST*
D10*
X147320000Y-75565000D02*
X142240000Y-75565000D01*
X147955000Y-67945000D02*
X153035000Y-67945000D01*
X141605000Y-75565000D02*
X136525000Y-75565000D01*
X142240000Y-67945000D02*
X147320000Y-67945000D01*
X153035000Y-75565000D02*
X147955000Y-75565000D01*
X139065000Y-70485000D02*
X139065000Y-75565000D01*
X153035000Y-70485000D02*
X147955000Y-70485000D01*
X136525000Y-67945000D02*
X141605000Y-67945000D01*
X147955000Y-73025000D02*
X153035000Y-73025000D01*
X147955000Y-75565000D02*
X147955000Y-67945000D01*
X144780000Y-67945000D02*
X144780000Y-73025000D01*
X136525000Y-70485000D02*
X139065000Y-70485000D01*
X142240000Y-70485000D02*
X142240000Y-73025000D01*
X147320000Y-67945000D02*
X147320000Y-75565000D01*
X153035000Y-67945000D02*
X153035000Y-75565000D01*
X141605000Y-67945000D02*
X141605000Y-75565000D01*
X142240000Y-75565000D02*
X142240000Y-67945000D01*
X136525000Y-75565000D02*
X136525000Y-67945000D01*
X144780000Y-73025000D02*
X142240000Y-73025000D01*
X147955000Y-70485000D02*
X147955000Y-73025000D01*
X136525000Y-70485000D02*
X136525000Y-73025000D01*
X138290180Y-72847030D02*
X138290180Y-73323220D01*
X138290180Y-73323220D02*
X137813990Y-73370839D01*
X137813990Y-73370839D02*
X137861609Y-73323220D01*
X137861609Y-73323220D02*
X137909228Y-73227982D01*
X137909228Y-73227982D02*
X137909228Y-72989887D01*
X137909228Y-72989887D02*
X137861609Y-72894649D01*
X137861609Y-72894649D02*
X137813990Y-72847030D01*
X137813990Y-72847030D02*
X137718752Y-72799411D01*
X137718752Y-72799411D02*
X137480657Y-72799411D01*
X137480657Y-72799411D02*
X137385419Y-72847030D01*
X137385419Y-72847030D02*
X137337800Y-72894649D01*
X137337800Y-72894649D02*
X137290180Y-72989887D01*
X137290180Y-72989887D02*
X137290180Y-73227982D01*
X137290180Y-73227982D02*
X137337800Y-73323220D01*
X137337800Y-73323220D02*
X137385419Y-73370839D01*
X138290180Y-72513696D02*
X137290180Y-72180363D01*
X137290180Y-72180363D02*
X138290180Y-71847030D01*
X151777506Y-66179819D02*
X151777506Y-66894104D01*
X151777506Y-66894104D02*
X151825125Y-67036961D01*
X151825125Y-67036961D02*
X151920363Y-67132200D01*
X151920363Y-67132200D02*
X152063220Y-67179819D01*
X152063220Y-67179819D02*
X152158458Y-67179819D01*
X150872744Y-66513152D02*
X150872744Y-67179819D01*
X151301315Y-66513152D02*
X151301315Y-67036961D01*
X151301315Y-67036961D02*
X151253696Y-67132200D01*
X151253696Y-67132200D02*
X151158458Y-67179819D01*
X151158458Y-67179819D02*
X151015601Y-67179819D01*
X151015601Y-67179819D02*
X150920363Y-67132200D01*
X150920363Y-67132200D02*
X150872744Y-67084580D01*
X150396553Y-67179819D02*
X150396553Y-66513152D01*
X150396553Y-66608390D02*
X150348934Y-66560771D01*
X150348934Y-66560771D02*
X150253696Y-66513152D01*
X150253696Y-66513152D02*
X150110839Y-66513152D01*
X150110839Y-66513152D02*
X150015601Y-66560771D01*
X150015601Y-66560771D02*
X149967982Y-66656009D01*
X149967982Y-66656009D02*
X149967982Y-67179819D01*
X149967982Y-66656009D02*
X149920363Y-66560771D01*
X149920363Y-66560771D02*
X149825125Y-66513152D01*
X149825125Y-66513152D02*
X149682268Y-66513152D01*
X149682268Y-66513152D02*
X149587029Y-66560771D01*
X149587029Y-66560771D02*
X149539410Y-66656009D01*
X149539410Y-66656009D02*
X149539410Y-67179819D01*
X149063220Y-66513152D02*
X149063220Y-67513152D01*
X149063220Y-66560771D02*
X148967982Y-66513152D01*
X148967982Y-66513152D02*
X148777506Y-66513152D01*
X148777506Y-66513152D02*
X148682268Y-66560771D01*
X148682268Y-66560771D02*
X148634649Y-66608390D01*
X148634649Y-66608390D02*
X148587030Y-66703628D01*
X148587030Y-66703628D02*
X148587030Y-66989342D01*
X148587030Y-66989342D02*
X148634649Y-67084580D01*
X148634649Y-67084580D02*
X148682268Y-67132200D01*
X148682268Y-67132200D02*
X148777506Y-67179819D01*
X148777506Y-67179819D02*
X148967982Y-67179819D01*
X148967982Y-67179819D02*
X149063220Y-67132200D01*
X147777506Y-67132200D02*
X147872744Y-67179819D01*
X147872744Y-67179819D02*
X148063220Y-67179819D01*
X148063220Y-67179819D02*
X148158458Y-67132200D01*
X148158458Y-67132200D02*
X148206077Y-67036961D01*
X148206077Y-67036961D02*
X148206077Y-66656009D01*
X148206077Y-66656009D02*
X148158458Y-66560771D01*
X148158458Y-66560771D02*
X148063220Y-66513152D01*
X148063220Y-66513152D02*
X147872744Y-66513152D01*
X147872744Y-66513152D02*
X147777506Y-66560771D01*
X147777506Y-66560771D02*
X147729887Y-66656009D01*
X147729887Y-66656009D02*
X147729887Y-66751247D01*
X147729887Y-66751247D02*
X148206077Y-66846485D01*
X147301315Y-67179819D02*
X147301315Y-66513152D01*
X147301315Y-66703628D02*
X147253696Y-66608390D01*
X147253696Y-66608390D02*
X147206077Y-66560771D01*
X147206077Y-66560771D02*
X147110839Y-66513152D01*
X147110839Y-66513152D02*
X147015601Y-66513152D01*
X145920362Y-67179819D02*
X145920362Y-66179819D01*
X145920362Y-66179819D02*
X145539410Y-66179819D01*
X145539410Y-66179819D02*
X145444172Y-66227438D01*
X145444172Y-66227438D02*
X145396553Y-66275057D01*
X145396553Y-66275057D02*
X145348934Y-66370295D01*
X145348934Y-66370295D02*
X145348934Y-66513152D01*
X145348934Y-66513152D02*
X145396553Y-66608390D01*
X145396553Y-66608390D02*
X145444172Y-66656009D01*
X145444172Y-66656009D02*
X145539410Y-66703628D01*
X145539410Y-66703628D02*
X145920362Y-66703628D01*
X144777505Y-67179819D02*
X144872743Y-67132200D01*
X144872743Y-67132200D02*
X144920362Y-67084580D01*
X144920362Y-67084580D02*
X144967981Y-66989342D01*
X144967981Y-66989342D02*
X144967981Y-66703628D01*
X144967981Y-66703628D02*
X144920362Y-66608390D01*
X144920362Y-66608390D02*
X144872743Y-66560771D01*
X144872743Y-66560771D02*
X144777505Y-66513152D01*
X144777505Y-66513152D02*
X144634648Y-66513152D01*
X144634648Y-66513152D02*
X144539410Y-66560771D01*
X144539410Y-66560771D02*
X144491791Y-66608390D01*
X144491791Y-66608390D02*
X144444172Y-66703628D01*
X144444172Y-66703628D02*
X144444172Y-66989342D01*
X144444172Y-66989342D02*
X144491791Y-67084580D01*
X144491791Y-67084580D02*
X144539410Y-67132200D01*
X144539410Y-67132200D02*
X144634648Y-67179819D01*
X144634648Y-67179819D02*
X144777505Y-67179819D01*
X144063219Y-67132200D02*
X143967981Y-67179819D01*
X143967981Y-67179819D02*
X143777505Y-67179819D01*
X143777505Y-67179819D02*
X143682267Y-67132200D01*
X143682267Y-67132200D02*
X143634648Y-67036961D01*
X143634648Y-67036961D02*
X143634648Y-66989342D01*
X143634648Y-66989342D02*
X143682267Y-66894104D01*
X143682267Y-66894104D02*
X143777505Y-66846485D01*
X143777505Y-66846485D02*
X143920362Y-66846485D01*
X143920362Y-66846485D02*
X144015600Y-66798866D01*
X144015600Y-66798866D02*
X144063219Y-66703628D01*
X144063219Y-66703628D02*
X144063219Y-66656009D01*
X144063219Y-66656009D02*
X144015600Y-66560771D01*
X144015600Y-66560771D02*
X143920362Y-66513152D01*
X143920362Y-66513152D02*
X143777505Y-66513152D01*
X143777505Y-66513152D02*
X143682267Y-66560771D01*
X143206076Y-67179819D02*
X143206076Y-66513152D01*
X143206076Y-66179819D02*
X143253695Y-66227438D01*
X143253695Y-66227438D02*
X143206076Y-66275057D01*
X143206076Y-66275057D02*
X143158457Y-66227438D01*
X143158457Y-66227438D02*
X143206076Y-66179819D01*
X143206076Y-66179819D02*
X143206076Y-66275057D01*
X142872743Y-66513152D02*
X142491791Y-66513152D01*
X142729886Y-66179819D02*
X142729886Y-67036961D01*
X142729886Y-67036961D02*
X142682267Y-67132200D01*
X142682267Y-67132200D02*
X142587029Y-67179819D01*
X142587029Y-67179819D02*
X142491791Y-67179819D01*
X142158457Y-67179819D02*
X142158457Y-66513152D01*
X142158457Y-66179819D02*
X142206076Y-66227438D01*
X142206076Y-66227438D02*
X142158457Y-66275057D01*
X142158457Y-66275057D02*
X142110838Y-66227438D01*
X142110838Y-66227438D02*
X142158457Y-66179819D01*
X142158457Y-66179819D02*
X142158457Y-66275057D01*
X141539410Y-67179819D02*
X141634648Y-67132200D01*
X141634648Y-67132200D02*
X141682267Y-67084580D01*
X141682267Y-67084580D02*
X141729886Y-66989342D01*
X141729886Y-66989342D02*
X141729886Y-66703628D01*
X141729886Y-66703628D02*
X141682267Y-66608390D01*
X141682267Y-66608390D02*
X141634648Y-66560771D01*
X141634648Y-66560771D02*
X141539410Y-66513152D01*
X141539410Y-66513152D02*
X141396553Y-66513152D01*
X141396553Y-66513152D02*
X141301315Y-66560771D01*
X141301315Y-66560771D02*
X141253696Y-66608390D01*
X141253696Y-66608390D02*
X141206077Y-66703628D01*
X141206077Y-66703628D02*
X141206077Y-66989342D01*
X141206077Y-66989342D02*
X141253696Y-67084580D01*
X141253696Y-67084580D02*
X141301315Y-67132200D01*
X141301315Y-67132200D02*
X141396553Y-67179819D01*
X141396553Y-67179819D02*
X141539410Y-67179819D01*
X140777505Y-66513152D02*
X140777505Y-67179819D01*
X140777505Y-66608390D02*
X140729886Y-66560771D01*
X140729886Y-66560771D02*
X140634648Y-66513152D01*
X140634648Y-66513152D02*
X140491791Y-66513152D01*
X140491791Y-66513152D02*
X140396553Y-66560771D01*
X140396553Y-66560771D02*
X140348934Y-66656009D01*
X140348934Y-66656009D02*
X140348934Y-67179819D01*
X139920362Y-67132200D02*
X139825124Y-67179819D01*
X139825124Y-67179819D02*
X139634648Y-67179819D01*
X139634648Y-67179819D02*
X139539410Y-67132200D01*
X139539410Y-67132200D02*
X139491791Y-67036961D01*
X139491791Y-67036961D02*
X139491791Y-66989342D01*
X139491791Y-66989342D02*
X139539410Y-66894104D01*
X139539410Y-66894104D02*
X139634648Y-66846485D01*
X139634648Y-66846485D02*
X139777505Y-66846485D01*
X139777505Y-66846485D02*
X139872743Y-66798866D01*
X139872743Y-66798866D02*
X139920362Y-66703628D01*
X139920362Y-66703628D02*
X139920362Y-66656009D01*
X139920362Y-66656009D02*
X139872743Y-66560771D01*
X139872743Y-66560771D02*
X139777505Y-66513152D01*
X139777505Y-66513152D02*
X139634648Y-66513152D01*
X139634648Y-66513152D02*
X139539410Y-66560771D01*
X151523458Y-71259819D02*
X150904411Y-71259819D01*
X150904411Y-71259819D02*
X151237744Y-71640771D01*
X151237744Y-71640771D02*
X151094887Y-71640771D01*
X151094887Y-71640771D02*
X150999649Y-71688390D01*
X150999649Y-71688390D02*
X150952030Y-71736009D01*
X150952030Y-71736009D02*
X150904411Y-71831247D01*
X150904411Y-71831247D02*
X150904411Y-72069342D01*
X150904411Y-72069342D02*
X150952030Y-72164580D01*
X150952030Y-72164580D02*
X150999649Y-72212200D01*
X150999649Y-72212200D02*
X151094887Y-72259819D01*
X151094887Y-72259819D02*
X151380601Y-72259819D01*
X151380601Y-72259819D02*
X151475839Y-72212200D01*
X151475839Y-72212200D02*
X151523458Y-72164580D01*
X150618696Y-71259819D02*
X150285363Y-72259819D01*
X150285363Y-72259819D02*
X149952030Y-71259819D01*
X143005180Y-71370601D02*
X143005180Y-71180125D01*
X143005180Y-71180125D02*
X143052800Y-71084887D01*
X143052800Y-71084887D02*
X143100419Y-71037268D01*
X143100419Y-71037268D02*
X143243276Y-70942030D01*
X143243276Y-70942030D02*
X143433752Y-70894411D01*
X143433752Y-70894411D02*
X143814704Y-70894411D01*
X143814704Y-70894411D02*
X143909942Y-70942030D01*
X143909942Y-70942030D02*
X143957561Y-70989649D01*
X143957561Y-70989649D02*
X144005180Y-71084887D01*
X144005180Y-71084887D02*
X144005180Y-71275363D01*
X144005180Y-71275363D02*
X143957561Y-71370601D01*
X143957561Y-71370601D02*
X143909942Y-71418220D01*
X143909942Y-71418220D02*
X143814704Y-71465839D01*
X143814704Y-71465839D02*
X143576609Y-71465839D01*
X143576609Y-71465839D02*
X143481371Y-71418220D01*
X143481371Y-71418220D02*
X143433752Y-71370601D01*
X143433752Y-71370601D02*
X143386133Y-71275363D01*
X143386133Y-71275363D02*
X143386133Y-71084887D01*
X143386133Y-71084887D02*
X143433752Y-70989649D01*
X143433752Y-70989649D02*
X143481371Y-70942030D01*
X143481371Y-70942030D02*
X143576609Y-70894411D01*
X144005180Y-70608696D02*
X143005180Y-70275363D01*
X143005180Y-70275363D02*
X144005180Y-69942030D01*
D11*
%TO.C,G\u002A\u002A\u002A*%
G36*
X112405681Y-68462068D02*
G01*
X112405681Y-68732374D01*
X112270529Y-68732374D01*
X112135376Y-68732374D01*
X112135376Y-68462068D01*
X112135376Y-68191763D01*
X112270529Y-68191763D01*
X112405681Y-68191763D01*
X112405681Y-68462068D01*
G37*
G36*
X111865070Y-66975388D02*
G01*
X111865070Y-67380846D01*
X111459612Y-67380846D01*
X111054154Y-67380846D01*
X111054154Y-66975388D01*
X111054154Y-66569930D01*
X111459612Y-66569930D01*
X111865070Y-66569930D01*
X111865070Y-66975388D01*
G37*
G36*
X111865070Y-74003332D02*
G01*
X111865070Y-74408790D01*
X111459612Y-74408790D01*
X111054154Y-74408790D01*
X111054154Y-74003332D01*
X111054154Y-73597873D01*
X111459612Y-73597873D01*
X111865070Y-73597873D01*
X111865070Y-74003332D01*
G37*
G36*
X110243237Y-66299624D02*
G01*
X110243237Y-66569930D01*
X110108084Y-66569930D01*
X109972932Y-66569930D01*
X109972932Y-66299624D01*
X109972932Y-66029319D01*
X110108084Y-66029319D01*
X110243237Y-66029319D01*
X110243237Y-66299624D01*
G37*
G36*
X108891710Y-69678443D02*
G01*
X108891710Y-69813596D01*
X108756557Y-69813596D01*
X108621404Y-69813596D01*
X108621404Y-69678443D01*
X108621404Y-69543290D01*
X108756557Y-69543290D01*
X108891710Y-69543290D01*
X108891710Y-69678443D01*
G37*
G36*
X108621404Y-67921457D02*
G01*
X108621404Y-68191763D01*
X108486251Y-68191763D01*
X108351099Y-68191763D01*
X108351099Y-67921457D01*
X108351099Y-67651152D01*
X108486251Y-67651152D01*
X108621404Y-67651152D01*
X108621404Y-67921457D01*
G37*
G36*
X107810487Y-73733026D02*
G01*
X107810487Y-73868179D01*
X107675335Y-73868179D01*
X107540182Y-73868179D01*
X107540182Y-73733026D01*
X107540182Y-73597873D01*
X107675335Y-73597873D01*
X107810487Y-73597873D01*
X107810487Y-73733026D01*
G37*
G36*
X107269876Y-66705082D02*
G01*
X107269876Y-66840235D01*
X107134724Y-66840235D01*
X106999571Y-66840235D01*
X106999571Y-66705082D01*
X106999571Y-66569930D01*
X107134724Y-66569930D01*
X107269876Y-66569930D01*
X107269876Y-66705082D01*
G37*
G36*
X107269876Y-72381498D02*
G01*
X107269876Y-72516651D01*
X107134724Y-72516651D01*
X106999571Y-72516651D01*
X106999571Y-72381498D01*
X106999571Y-72246346D01*
X107134724Y-72246346D01*
X107269876Y-72246346D01*
X107269876Y-72381498D01*
G37*
G36*
X106458960Y-72651804D02*
G01*
X106458960Y-72786957D01*
X106323807Y-72786957D01*
X106188654Y-72786957D01*
X106188654Y-72651804D01*
X106188654Y-72516651D01*
X106323807Y-72516651D01*
X106458960Y-72516651D01*
X106458960Y-72651804D01*
G37*
G36*
X105377738Y-73192415D02*
G01*
X105377738Y-73327568D01*
X105242585Y-73327568D01*
X105107432Y-73327568D01*
X105107432Y-73192415D01*
X105107432Y-73057262D01*
X105242585Y-73057262D01*
X105377738Y-73057262D01*
X105377738Y-73192415D01*
G37*
G36*
X104837127Y-66975388D02*
G01*
X104837127Y-67380846D01*
X104431668Y-67380846D01*
X104026210Y-67380846D01*
X104026210Y-66975388D01*
X104026210Y-66569930D01*
X104431668Y-66569930D01*
X104837127Y-66569930D01*
X104837127Y-66975388D01*
G37*
G36*
X104296516Y-74814248D02*
G01*
X104296516Y-74949401D01*
X104161363Y-74949401D01*
X104026210Y-74949401D01*
X104026210Y-74814248D01*
X104026210Y-74679095D01*
X104161363Y-74679095D01*
X104296516Y-74679095D01*
X104296516Y-74814248D01*
G37*
G36*
X103755905Y-72922109D02*
G01*
X103755905Y-73057262D01*
X103620752Y-73057262D01*
X103485599Y-73057262D01*
X103485599Y-72922109D01*
X103485599Y-72786957D01*
X103620752Y-72786957D01*
X103755905Y-72786957D01*
X103755905Y-72922109D01*
G37*
G36*
X103755905Y-74003332D02*
G01*
X103755905Y-74138484D01*
X103620752Y-74138484D01*
X103485599Y-74138484D01*
X103485599Y-74003332D01*
X103485599Y-73868179D01*
X103620752Y-73868179D01*
X103755905Y-73868179D01*
X103755905Y-74003332D01*
G37*
G36*
X103755905Y-74543943D02*
G01*
X103755905Y-74679095D01*
X103620752Y-74679095D01*
X103485599Y-74679095D01*
X103485599Y-74543943D01*
X103485599Y-74408790D01*
X103620752Y-74408790D01*
X103755905Y-74408790D01*
X103755905Y-74543943D01*
G37*
G36*
X112405681Y-67921457D02*
G01*
X111459612Y-67921457D01*
X110513543Y-67921457D01*
X110513543Y-66975388D01*
X110513543Y-66317063D01*
X110801287Y-66317063D01*
X110801287Y-66975388D01*
X110801287Y-67633713D01*
X111459612Y-67633713D01*
X112117937Y-67633713D01*
X112117937Y-66975388D01*
X112117937Y-66317063D01*
X111459612Y-66317063D01*
X110801287Y-66317063D01*
X110513543Y-66317063D01*
X110513543Y-66029319D01*
X111459612Y-66029319D01*
X112405681Y-66029319D01*
X112405681Y-66975388D01*
X112405681Y-67921457D01*
G37*
G36*
X112405681Y-74949401D02*
G01*
X111459612Y-74949401D01*
X110513543Y-74949401D01*
X110513543Y-74003332D01*
X110513543Y-73345007D01*
X110801287Y-73345007D01*
X110801287Y-74003332D01*
X110801287Y-74661656D01*
X111459612Y-74661656D01*
X112117937Y-74661656D01*
X112117937Y-74003332D01*
X112117937Y-73345007D01*
X111459612Y-73345007D01*
X110801287Y-73345007D01*
X110513543Y-73345007D01*
X110513543Y-73057262D01*
X111459612Y-73057262D01*
X112405681Y-73057262D01*
X112405681Y-74003332D01*
X112405681Y-74949401D01*
G37*
G36*
X105377738Y-67921457D02*
G01*
X104431668Y-67921457D01*
X103485599Y-67921457D01*
X103485599Y-66975388D01*
X103485599Y-66317063D01*
X103773344Y-66317063D01*
X103773344Y-66975388D01*
X103773344Y-67633713D01*
X104431668Y-67633713D01*
X105089993Y-67633713D01*
X105089993Y-66975388D01*
X105089993Y-66317063D01*
X104431668Y-66317063D01*
X103773344Y-66317063D01*
X103485599Y-66317063D01*
X103485599Y-66029319D01*
X104431668Y-66029319D01*
X105377738Y-66029319D01*
X105377738Y-66975388D01*
X105377738Y-67921457D01*
G37*
G36*
X107405029Y-71435429D02*
G01*
X107540182Y-71435429D01*
X107540182Y-71705735D01*
X107540182Y-71976040D01*
X107810487Y-71976040D01*
X108080793Y-71976040D01*
X108080793Y-72246346D01*
X108080793Y-72516651D01*
X107945640Y-72516651D01*
X107810487Y-72516651D01*
X107810487Y-72381498D01*
X107810487Y-72246346D01*
X107540182Y-72246346D01*
X107269876Y-72246346D01*
X107269876Y-71840887D01*
X107269876Y-71435429D01*
X107405029Y-71435429D01*
G37*
G36*
X107269876Y-71300276D02*
G01*
X107269876Y-71435429D01*
X107134724Y-71435429D01*
X106999571Y-71435429D01*
X106999571Y-71300276D01*
X106999571Y-71165124D01*
X107134724Y-71165124D01*
X107269876Y-71165124D01*
X107269876Y-71300276D01*
G37*
G36*
X108215946Y-66840235D02*
G01*
X108621404Y-66840235D01*
X108621404Y-67110541D01*
X108621404Y-67380846D01*
X108486251Y-67380846D01*
X108351099Y-67380846D01*
X108351099Y-67245693D01*
X108351099Y-67110541D01*
X108080793Y-67110541D01*
X107810487Y-67110541D01*
X107810487Y-66975388D01*
X107810487Y-66840235D01*
X108215946Y-66840235D01*
G37*
G36*
X108080793Y-66569930D02*
G01*
X107945640Y-66569930D01*
X107810487Y-66569930D01*
X107810487Y-66705082D01*
X107810487Y-66840235D01*
X107675335Y-66840235D01*
X107540182Y-66840235D01*
X107540182Y-66705082D01*
X107540182Y-66569930D01*
X107405029Y-66569930D01*
X107269876Y-66569930D01*
X107269876Y-66434777D01*
X107269876Y-66299624D01*
X107540182Y-66299624D01*
X107540182Y-66434777D01*
X107540182Y-66569930D01*
X107675335Y-66569930D01*
X107810487Y-66569930D01*
X107810487Y-66434777D01*
X107810487Y-66299624D01*
X107675335Y-66299624D01*
X107540182Y-66299624D01*
X107269876Y-66299624D01*
X106864418Y-66299624D01*
X106458960Y-66299624D01*
X106458960Y-66164471D01*
X106458960Y-66029319D01*
X107269876Y-66029319D01*
X108080793Y-66029319D01*
X108080793Y-66299624D01*
X108080793Y-66434777D01*
X108080793Y-66569930D01*
G37*
G36*
X111594765Y-69272985D02*
G01*
X111729918Y-69272985D01*
X111865070Y-69272985D01*
X111865070Y-69137832D01*
X111865070Y-69002679D01*
X112000223Y-69002679D01*
X112135376Y-69002679D01*
X112135376Y-69137832D01*
X112135376Y-69272985D01*
X112270529Y-69272985D01*
X112405681Y-69272985D01*
X112405681Y-69543290D01*
X112405681Y-69813596D01*
X112270529Y-69813596D01*
X112135376Y-69813596D01*
X112135376Y-69678443D01*
X112135376Y-69543290D01*
X111729918Y-69543290D01*
X111324459Y-69543290D01*
X111324459Y-69678443D01*
X111324459Y-69813596D01*
X111324459Y-70083901D01*
X111459612Y-70083901D01*
X111594765Y-70083901D01*
X111594765Y-69948749D01*
X111594765Y-69813596D01*
X111865070Y-69813596D01*
X112135376Y-69813596D01*
X112135376Y-69948749D01*
X112135376Y-70083901D01*
X112000223Y-70083901D01*
X111865070Y-70083901D01*
X111865070Y-70219054D01*
X111865070Y-70354207D01*
X111865070Y-70624513D01*
X111729918Y-70624513D01*
X111594765Y-70624513D01*
X111594765Y-70759665D01*
X111594765Y-70894818D01*
X111459612Y-70894818D01*
X111324459Y-70894818D01*
X111324459Y-70624513D01*
X111324459Y-70354207D01*
X111189307Y-70354207D01*
X111054154Y-70354207D01*
X111054154Y-70489360D01*
X111054154Y-70624513D01*
X110378390Y-70624513D01*
X109702626Y-70624513D01*
X109702626Y-70354207D01*
X109702626Y-70083901D01*
X109837779Y-70083901D01*
X109972932Y-70083901D01*
X109972932Y-70219054D01*
X109972932Y-70354207D01*
X110108084Y-70354207D01*
X110243237Y-70354207D01*
X110243237Y-70219054D01*
X110243237Y-70083901D01*
X110513543Y-70083901D01*
X110513543Y-70219054D01*
X110513543Y-70354207D01*
X110783848Y-70354207D01*
X111054154Y-70354207D01*
X111054154Y-70219054D01*
X111054154Y-70083901D01*
X110783848Y-70083901D01*
X110513543Y-70083901D01*
X110243237Y-70083901D01*
X110108084Y-70083901D01*
X109972932Y-70083901D01*
X109972932Y-69813596D01*
X109972932Y-69543290D01*
X109837779Y-69543290D01*
X109702626Y-69543290D01*
X109702626Y-69678443D01*
X109702626Y-69813596D01*
X109567473Y-69813596D01*
X109432321Y-69813596D01*
X109432321Y-69678443D01*
X109432321Y-69543290D01*
X109567473Y-69543290D01*
X109702626Y-69543290D01*
X109702626Y-69408138D01*
X109702626Y-69272985D01*
X109837779Y-69272985D01*
X109972932Y-69272985D01*
X109972932Y-69137832D01*
X109972932Y-69002679D01*
X109837779Y-69002679D01*
X109702626Y-69002679D01*
X109702626Y-68867527D01*
X109702626Y-68732374D01*
X109972932Y-68732374D01*
X110243237Y-68732374D01*
X110243237Y-69137832D01*
X110243237Y-69543290D01*
X110378390Y-69543290D01*
X110513543Y-69543290D01*
X110513543Y-69678443D01*
X110513543Y-69813596D01*
X110648696Y-69813596D01*
X110783848Y-69813596D01*
X110783848Y-69678443D01*
X110783848Y-69543290D01*
X110648696Y-69543290D01*
X110513543Y-69543290D01*
X110513543Y-69408138D01*
X110513543Y-69272985D01*
X110648696Y-69272985D01*
X110783848Y-69272985D01*
X110783848Y-69408138D01*
X110783848Y-69543290D01*
X110919001Y-69543290D01*
X111054154Y-69543290D01*
X111054154Y-69408138D01*
X111054154Y-69272985D01*
X110919001Y-69272985D01*
X110783848Y-69272985D01*
X110783848Y-69137832D01*
X110783848Y-69002679D01*
X111054154Y-69002679D01*
X111054154Y-69137832D01*
X111054154Y-69272985D01*
X111189307Y-69272985D01*
X111324459Y-69272985D01*
X111324459Y-69137832D01*
X111324459Y-69002679D01*
X111189307Y-69002679D01*
X111054154Y-69002679D01*
X110783848Y-69002679D01*
X110648696Y-69002679D01*
X110513543Y-69002679D01*
X110513543Y-68867527D01*
X110513543Y-68732374D01*
X110783848Y-68732374D01*
X111054154Y-68732374D01*
X111054154Y-68597221D01*
X111054154Y-68462068D01*
X110648696Y-68462068D01*
X110243237Y-68462068D01*
X110243237Y-68326916D01*
X110243237Y-68191763D01*
X110648696Y-68191763D01*
X111054154Y-68191763D01*
X111054154Y-68326916D01*
X111054154Y-68462068D01*
X111189307Y-68462068D01*
X111324459Y-68462068D01*
X111324459Y-68326916D01*
X111324459Y-68191763D01*
X111594765Y-68191763D01*
X111865070Y-68191763D01*
X111865070Y-68326916D01*
X111865070Y-68462068D01*
X111729918Y-68462068D01*
X111594765Y-68462068D01*
X111594765Y-68867527D01*
X111594765Y-69137832D01*
X111594765Y-69272985D01*
G37*
G36*
X109702626Y-68597221D02*
G01*
X109702626Y-68732374D01*
X109567473Y-68732374D01*
X109432321Y-68732374D01*
X109432321Y-69137832D01*
X109432321Y-69543290D01*
X109162015Y-69543290D01*
X108891710Y-69543290D01*
X108891710Y-69408138D01*
X108891710Y-69272985D01*
X108621404Y-69272985D01*
X108351099Y-69272985D01*
X108351099Y-69002679D01*
X108351099Y-68732374D01*
X108486251Y-68732374D01*
X108621404Y-68732374D01*
X108621404Y-68867527D01*
X108621404Y-69002679D01*
X108891710Y-69002679D01*
X109162015Y-69002679D01*
X109162015Y-68732374D01*
X109162015Y-68462068D01*
X109432321Y-68462068D01*
X109702626Y-68462068D01*
X109702626Y-68597221D01*
G37*
G36*
X109162015Y-67786304D02*
G01*
X109162015Y-67921457D01*
X109297168Y-67921457D01*
X109432321Y-67921457D01*
X109432321Y-67786304D01*
X109432321Y-67651152D01*
X109567473Y-67651152D01*
X109702626Y-67651152D01*
X109702626Y-67786304D01*
X109702626Y-67921457D01*
X109837779Y-67921457D01*
X109972932Y-67921457D01*
X109972932Y-67786304D01*
X109972932Y-67651152D01*
X110108084Y-67651152D01*
X110243237Y-67651152D01*
X110243237Y-67921457D01*
X110243237Y-68191763D01*
X109972932Y-68191763D01*
X109702626Y-68191763D01*
X109702626Y-68056610D01*
X109702626Y-67921457D01*
X109567473Y-67921457D01*
X109432321Y-67921457D01*
X109432321Y-68056610D01*
X109432321Y-68191763D01*
X109162015Y-68191763D01*
X108891710Y-68191763D01*
X108891710Y-67921457D01*
X108891710Y-67651152D01*
X109026862Y-67651152D01*
X109162015Y-67651152D01*
X109162015Y-67786304D01*
G37*
G36*
X108891710Y-66164471D02*
G01*
X108891710Y-66299624D01*
X109026862Y-66299624D01*
X109162015Y-66299624D01*
X109162015Y-66164471D01*
X109162015Y-66029319D01*
X109297168Y-66029319D01*
X109432321Y-66029319D01*
X109432321Y-66164471D01*
X109432321Y-66299624D01*
X109297168Y-66299624D01*
X109162015Y-66299624D01*
X109162015Y-66434777D01*
X109162015Y-66569930D01*
X109297168Y-66569930D01*
X109432321Y-66569930D01*
X109432321Y-66434777D01*
X109432321Y-66299624D01*
X109567473Y-66299624D01*
X109702626Y-66299624D01*
X109702626Y-66434777D01*
X109702626Y-66569930D01*
X109702626Y-66840235D01*
X109567473Y-66840235D01*
X109432321Y-66840235D01*
X109432321Y-66975388D01*
X109432321Y-67110541D01*
X109567473Y-67110541D01*
X109702626Y-67110541D01*
X109702626Y-66975388D01*
X109702626Y-66840235D01*
X109972932Y-66840235D01*
X110243237Y-66840235D01*
X110243237Y-66975388D01*
X110243237Y-67110541D01*
X109972932Y-67110541D01*
X109702626Y-67110541D01*
X109702626Y-67245693D01*
X109702626Y-67380846D01*
X109567473Y-67380846D01*
X109432321Y-67380846D01*
X109432321Y-67515999D01*
X109432321Y-67651152D01*
X109297168Y-67651152D01*
X109162015Y-67651152D01*
X109162015Y-67110541D01*
X109162015Y-66569930D01*
X108891710Y-66569930D01*
X108621404Y-66569930D01*
X108621404Y-66434777D01*
X108621404Y-66299624D01*
X108486251Y-66299624D01*
X108351099Y-66299624D01*
X108351099Y-66164471D01*
X108351099Y-66029319D01*
X108621404Y-66029319D01*
X108891710Y-66029319D01*
X108891710Y-66164471D01*
G37*
G36*
X109837779Y-67380846D02*
G01*
X109972932Y-67380846D01*
X109972932Y-67515999D01*
X109972932Y-67651152D01*
X109837779Y-67651152D01*
X109702626Y-67651152D01*
X109702626Y-67515999D01*
X109702626Y-67380846D01*
X109837779Y-67380846D01*
G37*
G36*
X108080793Y-69272985D02*
G01*
X107945640Y-69272985D01*
X107810487Y-69272985D01*
X107810487Y-69137832D01*
X107810487Y-69002679D01*
X107675335Y-69002679D01*
X107540182Y-69002679D01*
X107540182Y-69272985D01*
X107540182Y-69543290D01*
X107810487Y-69543290D01*
X108080793Y-69543290D01*
X108080793Y-69678443D01*
X108080793Y-69813596D01*
X108215946Y-69813596D01*
X108351099Y-69813596D01*
X108351099Y-69948749D01*
X108351099Y-70083901D01*
X108215946Y-70083901D01*
X108080793Y-70083901D01*
X108080793Y-70219054D01*
X108080793Y-70354207D01*
X108351099Y-70354207D01*
X108621404Y-70354207D01*
X108621404Y-70219054D01*
X108621404Y-70083901D01*
X108756557Y-70083901D01*
X108891710Y-70083901D01*
X108891710Y-70219054D01*
X108891710Y-70354207D01*
X109026862Y-70354207D01*
X109162015Y-70354207D01*
X109162015Y-70083901D01*
X109162015Y-69813596D01*
X109297168Y-69813596D01*
X109432321Y-69813596D01*
X109432321Y-70083901D01*
X109432321Y-70354207D01*
X109297168Y-70354207D01*
X109162015Y-70354207D01*
X109162015Y-70489360D01*
X109162015Y-70624513D01*
X109026862Y-70624513D01*
X108891710Y-70624513D01*
X108891710Y-70489360D01*
X108891710Y-70354207D01*
X108756557Y-70354207D01*
X108621404Y-70354207D01*
X108621404Y-70759665D01*
X108621404Y-71165124D01*
X108080793Y-71165124D01*
X107540182Y-71165124D01*
X107540182Y-71029971D01*
X107540182Y-70894818D01*
X107810487Y-70894818D01*
X107945640Y-70894818D01*
X108080793Y-70894818D01*
X108080793Y-70759665D01*
X108080793Y-70624513D01*
X107945640Y-70624513D01*
X107810487Y-70624513D01*
X107810487Y-70759665D01*
X107810487Y-70894818D01*
X107540182Y-70894818D01*
X107269876Y-70894818D01*
X106999571Y-70894818D01*
X106999571Y-71029971D01*
X106999571Y-71165124D01*
X106729265Y-71165124D01*
X106458960Y-71165124D01*
X106458960Y-71300276D01*
X106458960Y-71435429D01*
X105918349Y-71435429D01*
X105377738Y-71435429D01*
X105377738Y-71300276D01*
X105377738Y-71165124D01*
X105512891Y-71165124D01*
X105648043Y-71165124D01*
X105648043Y-71029971D01*
X105648043Y-70894818D01*
X105918349Y-70894818D01*
X105918349Y-71029971D01*
X105918349Y-71165124D01*
X106053502Y-71165124D01*
X106188654Y-71165124D01*
X106188654Y-71029971D01*
X106188654Y-70894818D01*
X106053502Y-70894818D01*
X105918349Y-70894818D01*
X105648043Y-70894818D01*
X105377738Y-70894818D01*
X105107432Y-70894818D01*
X105107432Y-71029971D01*
X105107432Y-71165124D01*
X104972279Y-71165124D01*
X104837127Y-71165124D01*
X104837127Y-71435429D01*
X104837127Y-71705735D01*
X104566821Y-71705735D01*
X104296516Y-71705735D01*
X104296516Y-71840887D01*
X104296516Y-71976040D01*
X104431668Y-71976040D01*
X104566821Y-71976040D01*
X104566821Y-72246346D01*
X104566821Y-72516651D01*
X104701974Y-72516651D01*
X104837127Y-72516651D01*
X104837127Y-72381498D01*
X104837127Y-72246346D01*
X104972279Y-72246346D01*
X105107432Y-72246346D01*
X105107432Y-71976040D01*
X105107432Y-71705735D01*
X105242585Y-71705735D01*
X105377738Y-71705735D01*
X105377738Y-71840887D01*
X105377738Y-71976040D01*
X105648043Y-71976040D01*
X105918349Y-71976040D01*
X105918349Y-71840887D01*
X105918349Y-71705735D01*
X106188654Y-71705735D01*
X106458960Y-71705735D01*
X106458960Y-71570582D01*
X106458960Y-71435429D01*
X106729265Y-71435429D01*
X106999571Y-71435429D01*
X106999571Y-71570582D01*
X106999571Y-71705735D01*
X106864418Y-71705735D01*
X106729265Y-71705735D01*
X106729265Y-71976040D01*
X106729265Y-72246346D01*
X106594113Y-72246346D01*
X106458960Y-72246346D01*
X106458960Y-72111193D01*
X106458960Y-71976040D01*
X106323807Y-71976040D01*
X106188654Y-71976040D01*
X106188654Y-72111193D01*
X106188654Y-72246346D01*
X105783196Y-72246346D01*
X105377738Y-72246346D01*
X105377738Y-72381498D01*
X105377738Y-72516651D01*
X105648043Y-72516651D01*
X105918349Y-72516651D01*
X105918349Y-72786957D01*
X105918349Y-73057262D01*
X106323807Y-73057262D01*
X106729265Y-73057262D01*
X106729265Y-72922109D01*
X106729265Y-72786957D01*
X107405029Y-72786957D01*
X108080793Y-72786957D01*
X108080793Y-72651804D01*
X108080793Y-72516651D01*
X108351099Y-72516651D01*
X108621404Y-72516651D01*
X108621404Y-72381498D01*
X108621404Y-72246346D01*
X108486251Y-72246346D01*
X108351099Y-72246346D01*
X108351099Y-72111193D01*
X108351099Y-71976040D01*
X108215946Y-71976040D01*
X108080793Y-71976040D01*
X108080793Y-71840887D01*
X108080793Y-71705735D01*
X108351099Y-71705735D01*
X108621404Y-71705735D01*
X108621404Y-71435429D01*
X108621404Y-71165124D01*
X108756557Y-71165124D01*
X108891710Y-71165124D01*
X108891710Y-71300276D01*
X108891710Y-71435429D01*
X109026862Y-71435429D01*
X109162015Y-71435429D01*
X109162015Y-71300276D01*
X109162015Y-71165124D01*
X109026862Y-71165124D01*
X108891710Y-71165124D01*
X108891710Y-71029971D01*
X108891710Y-70894818D01*
X109162015Y-70894818D01*
X109432321Y-70894818D01*
X109432321Y-71029971D01*
X109432321Y-71165124D01*
X109567473Y-71165124D01*
X109702626Y-71165124D01*
X109702626Y-71029971D01*
X109702626Y-70894818D01*
X110378390Y-70894818D01*
X111054154Y-70894818D01*
X111054154Y-71165124D01*
X111054154Y-71300276D01*
X111054154Y-71435429D01*
X110919001Y-71435429D01*
X110783848Y-71435429D01*
X110783848Y-71570582D01*
X110783848Y-71705735D01*
X110648696Y-71705735D01*
X110513543Y-71705735D01*
X110513543Y-71570582D01*
X110513543Y-71435429D01*
X110378390Y-71435429D01*
X110243237Y-71435429D01*
X110243237Y-71300276D01*
X110243237Y-71165124D01*
X110513543Y-71165124D01*
X110513543Y-71300276D01*
X110513543Y-71435429D01*
X110648696Y-71435429D01*
X110783848Y-71435429D01*
X110783848Y-71300276D01*
X110783848Y-71165124D01*
X110648696Y-71165124D01*
X110513543Y-71165124D01*
X110243237Y-71165124D01*
X109972932Y-71165124D01*
X109702626Y-71165124D01*
X109702626Y-71300276D01*
X109702626Y-71435429D01*
X109432321Y-71435429D01*
X109162015Y-71435429D01*
X109162015Y-71570582D01*
X109162015Y-71705735D01*
X109297168Y-71705735D01*
X109432321Y-71705735D01*
X109432321Y-71840887D01*
X109432321Y-71976040D01*
X109297168Y-71976040D01*
X109162015Y-71976040D01*
X109162015Y-72111193D01*
X109162015Y-72246346D01*
X109297168Y-72246346D01*
X109432321Y-72246346D01*
X109432321Y-72381498D01*
X109432321Y-72516651D01*
X110108084Y-72516651D01*
X110783848Y-72516651D01*
X110783848Y-72651804D01*
X110783848Y-72786957D01*
X110513543Y-72786957D01*
X110243237Y-72786957D01*
X110243237Y-73057262D01*
X110243237Y-73192415D01*
X110243237Y-73462721D01*
X110243237Y-73597873D01*
X109837779Y-73597873D01*
X109432321Y-73597873D01*
X109432321Y-73733026D01*
X109432321Y-73868179D01*
X109837779Y-73868179D01*
X110243237Y-73868179D01*
X110243237Y-74003332D01*
X110243237Y-74138484D01*
X110243237Y-74273637D01*
X110243237Y-74408790D01*
X110108084Y-74408790D01*
X109972932Y-74408790D01*
X109972932Y-74543943D01*
X109972932Y-74679095D01*
X109837779Y-74679095D01*
X109702626Y-74679095D01*
X109702626Y-74814248D01*
X109702626Y-74949401D01*
X109567473Y-74949401D01*
X109432321Y-74949401D01*
X109432321Y-74814248D01*
X109432321Y-74679095D01*
X109297168Y-74679095D01*
X109162015Y-74679095D01*
X109162015Y-74814248D01*
X109162015Y-74949401D01*
X108215946Y-74949401D01*
X107269876Y-74949401D01*
X107269876Y-74814248D01*
X107269876Y-74679095D01*
X107134724Y-74679095D01*
X106999571Y-74679095D01*
X106999571Y-74408790D01*
X106999571Y-74138484D01*
X106729265Y-74138484D01*
X106458960Y-74138484D01*
X106458960Y-74408790D01*
X106458960Y-74679095D01*
X106323807Y-74679095D01*
X106188654Y-74679095D01*
X106188654Y-74814248D01*
X106188654Y-74949401D01*
X106053502Y-74949401D01*
X105918349Y-74949401D01*
X105918349Y-74679095D01*
X105918349Y-74408790D01*
X106053502Y-74408790D01*
X106188654Y-74408790D01*
X106188654Y-74273637D01*
X106188654Y-74138484D01*
X106053502Y-74138484D01*
X105918349Y-74138484D01*
X105918349Y-74003332D01*
X105918349Y-73868179D01*
X105512891Y-73868179D01*
X105107432Y-73868179D01*
X105107432Y-74003332D01*
X105107432Y-74138484D01*
X105242585Y-74138484D01*
X105377738Y-74138484D01*
X105377738Y-74273637D01*
X105377738Y-74408790D01*
X105242585Y-74408790D01*
X105107432Y-74408790D01*
X105107432Y-74543943D01*
X105107432Y-74679095D01*
X104972279Y-74679095D01*
X104837127Y-74679095D01*
X104837127Y-74814248D01*
X104837127Y-74949401D01*
X104701974Y-74949401D01*
X104566821Y-74949401D01*
X104566821Y-74679095D01*
X104566821Y-74408790D01*
X104296516Y-74408790D01*
X104026210Y-74408790D01*
X104026210Y-74273637D01*
X104026210Y-74138484D01*
X104161363Y-74138484D01*
X104296516Y-74138484D01*
X104566821Y-74138484D01*
X104566821Y-74408790D01*
X104701974Y-74408790D01*
X104837127Y-74408790D01*
X104837127Y-74138484D01*
X104837127Y-73868179D01*
X104701974Y-73868179D01*
X104566821Y-73868179D01*
X104566821Y-74138484D01*
X104296516Y-74138484D01*
X104296516Y-74003332D01*
X104296516Y-73868179D01*
X104431668Y-73868179D01*
X104566821Y-73868179D01*
X104566821Y-73733026D01*
X104566821Y-73597873D01*
X104431668Y-73597873D01*
X104296516Y-73597873D01*
X104296516Y-73733026D01*
X104296516Y-73868179D01*
X104026210Y-73868179D01*
X103755905Y-73868179D01*
X103755905Y-73733026D01*
X103755905Y-73597873D01*
X103620752Y-73597873D01*
X103485599Y-73597873D01*
X103485599Y-73462721D01*
X103485599Y-73327568D01*
X104026210Y-73327568D01*
X104566821Y-73327568D01*
X104566821Y-73192415D01*
X104566821Y-73057262D01*
X104431668Y-73057262D01*
X104296516Y-73057262D01*
X104296516Y-72922109D01*
X104296516Y-72786957D01*
X104431668Y-72786957D01*
X104566821Y-72786957D01*
X104837127Y-72786957D01*
X104837127Y-73192415D01*
X104837127Y-73597873D01*
X105242585Y-73597873D01*
X105648043Y-73597873D01*
X105648043Y-73327568D01*
X106188654Y-73327568D01*
X106188654Y-73597873D01*
X106188654Y-73868179D01*
X106458960Y-73868179D01*
X106729265Y-73868179D01*
X106729265Y-73733026D01*
X106729265Y-73597873D01*
X106594113Y-73597873D01*
X106458960Y-73597873D01*
X106458960Y-73462721D01*
X106458960Y-73327568D01*
X106999571Y-73327568D01*
X106999571Y-73462721D01*
X106999571Y-73597873D01*
X107134724Y-73597873D01*
X107269876Y-73597873D01*
X107269876Y-73733026D01*
X107269876Y-73868179D01*
X107405029Y-73868179D01*
X107540182Y-73868179D01*
X107540182Y-74003332D01*
X107540182Y-74138484D01*
X107405029Y-74138484D01*
X107269876Y-74138484D01*
X107269876Y-74408790D01*
X107269876Y-74679095D01*
X107405029Y-74679095D01*
X107540182Y-74679095D01*
X107540182Y-74543943D01*
X107540182Y-74408790D01*
X107945640Y-74408790D01*
X108351099Y-74408790D01*
X108621404Y-74408790D01*
X108621404Y-74543943D01*
X108621404Y-74679095D01*
X108891710Y-74679095D01*
X109162015Y-74679095D01*
X109162015Y-74543943D01*
X109162015Y-74408790D01*
X108891710Y-74408790D01*
X108621404Y-74408790D01*
X108351099Y-74408790D01*
X108351099Y-74138484D01*
X108351099Y-73868179D01*
X108621404Y-73868179D01*
X108621404Y-74003332D01*
X108621404Y-74138484D01*
X108891710Y-74138484D01*
X109162015Y-74138484D01*
X109432321Y-74138484D01*
X109432321Y-74273637D01*
X109432321Y-74408790D01*
X109567473Y-74408790D01*
X109702626Y-74408790D01*
X109702626Y-74273637D01*
X109702626Y-74138484D01*
X109567473Y-74138484D01*
X109432321Y-74138484D01*
X109162015Y-74138484D01*
X109162015Y-74003332D01*
X109162015Y-73868179D01*
X108891710Y-73868179D01*
X108621404Y-73868179D01*
X108351099Y-73868179D01*
X108215946Y-73868179D01*
X108080793Y-73868179D01*
X108080793Y-73597873D01*
X108080793Y-73327568D01*
X108215946Y-73327568D01*
X108351099Y-73327568D01*
X108351099Y-73462721D01*
X108351099Y-73597873D01*
X108486251Y-73597873D01*
X108621404Y-73597873D01*
X108621404Y-73327568D01*
X108891710Y-73327568D01*
X108891710Y-73462721D01*
X108891710Y-73597873D01*
X109026862Y-73597873D01*
X109162015Y-73597873D01*
X109162015Y-73462721D01*
X109162015Y-73327568D01*
X109026862Y-73327568D01*
X108891710Y-73327568D01*
X108621404Y-73327568D01*
X108621404Y-73057262D01*
X109026862Y-73057262D01*
X109432321Y-73057262D01*
X109432321Y-73192415D01*
X109432321Y-73327568D01*
X109702626Y-73327568D01*
X109972932Y-73327568D01*
X109972932Y-73192415D01*
X109972932Y-73057262D01*
X109837779Y-73057262D01*
X109702626Y-73057262D01*
X109702626Y-72922109D01*
X109702626Y-72786957D01*
X109026862Y-72786957D01*
X108351099Y-72786957D01*
X108351099Y-72922109D01*
X108351099Y-73057262D01*
X108215946Y-73057262D01*
X108080793Y-73057262D01*
X108080793Y-73192415D01*
X108080793Y-73327568D01*
X107945640Y-73327568D01*
X107810487Y-73327568D01*
X107810487Y-73192415D01*
X107810487Y-73057262D01*
X107540182Y-73057262D01*
X107269876Y-73057262D01*
X107269876Y-73192415D01*
X107269876Y-73327568D01*
X107134724Y-73327568D01*
X106999571Y-73327568D01*
X106458960Y-73327568D01*
X106323807Y-73327568D01*
X106188654Y-73327568D01*
X105648043Y-73327568D01*
X105648043Y-73192415D01*
X105648043Y-72786957D01*
X105242585Y-72786957D01*
X104837127Y-72786957D01*
X104566821Y-72786957D01*
X104566821Y-72651804D01*
X104566821Y-72516651D01*
X104431668Y-72516651D01*
X104296516Y-72516651D01*
X104296516Y-72381498D01*
X104296516Y-72246346D01*
X104161363Y-72246346D01*
X104026210Y-72246346D01*
X104026210Y-72381498D01*
X104026210Y-72516651D01*
X103891057Y-72516651D01*
X103755905Y-72516651D01*
X103755905Y-72381498D01*
X103755905Y-72246346D01*
X103620752Y-72246346D01*
X103485599Y-72246346D01*
X103485599Y-71976040D01*
X103485599Y-71705735D01*
X103620752Y-71705735D01*
X103755905Y-71705735D01*
X103755905Y-71840887D01*
X103755905Y-71976040D01*
X103891057Y-71976040D01*
X104026210Y-71976040D01*
X104026210Y-71840887D01*
X104026210Y-71705735D01*
X103891057Y-71705735D01*
X103755905Y-71705735D01*
X103755905Y-71570582D01*
X103755905Y-71435429D01*
X104161363Y-71435429D01*
X104566821Y-71435429D01*
X104566821Y-71165124D01*
X104566821Y-70894818D01*
X104431668Y-70894818D01*
X104296516Y-70894818D01*
X104296516Y-71029971D01*
X104296516Y-71165124D01*
X104026210Y-71165124D01*
X103755905Y-71165124D01*
X103755905Y-71029971D01*
X103755905Y-70894818D01*
X103620752Y-70894818D01*
X103485599Y-70894818D01*
X103485599Y-70759665D01*
X103485599Y-70624513D01*
X103755905Y-70624513D01*
X104026210Y-70624513D01*
X104026210Y-70759665D01*
X104026210Y-70894818D01*
X104161363Y-70894818D01*
X104296516Y-70894818D01*
X104296516Y-70759665D01*
X104296516Y-70624513D01*
X104161363Y-70624513D01*
X104026210Y-70624513D01*
X104026210Y-70489360D01*
X104296516Y-70489360D01*
X104296516Y-70624513D01*
X104431668Y-70624513D01*
X104566821Y-70624513D01*
X104837127Y-70624513D01*
X104837127Y-70894818D01*
X104972279Y-70894818D01*
X105107432Y-70894818D01*
X105107432Y-70759665D01*
X106458960Y-70759665D01*
X106458960Y-70894818D01*
X106594113Y-70894818D01*
X106729265Y-70894818D01*
X106729265Y-70759665D01*
X106729265Y-70624513D01*
X106594113Y-70624513D01*
X106458960Y-70624513D01*
X106458960Y-70759665D01*
X105107432Y-70759665D01*
X105107432Y-70624513D01*
X105107432Y-70354207D01*
X104972279Y-70354207D01*
X104837127Y-70354207D01*
X104837127Y-70489360D01*
X104837127Y-70624513D01*
X104566821Y-70624513D01*
X104566821Y-70489360D01*
X104566821Y-70354207D01*
X104431668Y-70354207D01*
X104296516Y-70354207D01*
X104296516Y-70489360D01*
X104026210Y-70489360D01*
X104026210Y-70219054D01*
X104026210Y-69813596D01*
X103891057Y-69813596D01*
X103755905Y-69813596D01*
X103755905Y-69678443D01*
X103755905Y-69543290D01*
X103891057Y-69543290D01*
X104026210Y-69543290D01*
X104026210Y-69678443D01*
X104026210Y-69813596D01*
X104161363Y-69813596D01*
X104296516Y-69813596D01*
X104296516Y-69272985D01*
X104296516Y-69002679D01*
X104566821Y-69002679D01*
X104566821Y-69137832D01*
X104566821Y-69272985D01*
X104701974Y-69272985D01*
X104837127Y-69272985D01*
X104837127Y-69137832D01*
X104837127Y-69002679D01*
X104701974Y-69002679D01*
X104566821Y-69002679D01*
X104296516Y-69002679D01*
X104296516Y-68732374D01*
X104161363Y-68732374D01*
X104026210Y-68732374D01*
X104026210Y-68867527D01*
X104026210Y-69002679D01*
X103755905Y-69002679D01*
X103485599Y-69002679D01*
X103485599Y-68597221D01*
X103485599Y-68191763D01*
X103755905Y-68191763D01*
X104026210Y-68191763D01*
X104026210Y-68326916D01*
X104026210Y-68462068D01*
X104161363Y-68462068D01*
X104296516Y-68462068D01*
X104296516Y-68326916D01*
X104296516Y-68191763D01*
X104431668Y-68191763D01*
X104566821Y-68191763D01*
X104566821Y-68462068D01*
X104566821Y-68732374D01*
X104701974Y-68732374D01*
X104837127Y-68732374D01*
X104837127Y-68597221D01*
X104837127Y-68462068D01*
X104972279Y-68462068D01*
X105107432Y-68462068D01*
X105107432Y-68326916D01*
X105107432Y-68191763D01*
X105242585Y-68191763D01*
X105377738Y-68191763D01*
X105377738Y-68597221D01*
X105377738Y-69002679D01*
X105242585Y-69002679D01*
X105107432Y-69002679D01*
X105107432Y-69137832D01*
X105107432Y-69408138D01*
X105107432Y-69813596D01*
X104972279Y-69813596D01*
X104837127Y-69813596D01*
X104837127Y-69678443D01*
X104837127Y-69543290D01*
X104701974Y-69543290D01*
X104566821Y-69543290D01*
X104566821Y-69678443D01*
X104566821Y-69813596D01*
X104431668Y-69813596D01*
X104296516Y-69813596D01*
X104296516Y-69948749D01*
X104296516Y-70083901D01*
X104701974Y-70083901D01*
X105107432Y-70083901D01*
X105107432Y-69948749D01*
X105107432Y-69813596D01*
X105242585Y-69813596D01*
X105377738Y-69813596D01*
X105377738Y-69948749D01*
X105377738Y-70083901D01*
X105512891Y-70083901D01*
X105648043Y-70083901D01*
X105648043Y-70354207D01*
X105648043Y-70624513D01*
X105783196Y-70624513D01*
X105918349Y-70624513D01*
X105918349Y-70489360D01*
X105918349Y-70354207D01*
X106188654Y-70354207D01*
X106458960Y-70354207D01*
X106729265Y-70354207D01*
X106729265Y-70489360D01*
X106729265Y-70624513D01*
X106864418Y-70624513D01*
X106999571Y-70624513D01*
X106999571Y-70489360D01*
X106999571Y-70354207D01*
X106864418Y-70354207D01*
X106729265Y-70354207D01*
X106458960Y-70354207D01*
X106458960Y-69948749D01*
X106458960Y-69543290D01*
X106594113Y-69543290D01*
X106729265Y-69543290D01*
X106729265Y-69813596D01*
X106729265Y-70083901D01*
X106999571Y-70083901D01*
X107269876Y-70083901D01*
X107269876Y-70219054D01*
X107269876Y-70354207D01*
X107405029Y-70354207D01*
X107540182Y-70354207D01*
X107540182Y-70489360D01*
X107540182Y-70624513D01*
X107675335Y-70624513D01*
X107810487Y-70624513D01*
X107810487Y-70219054D01*
X107810487Y-69813596D01*
X107540182Y-69813596D01*
X107269876Y-69813596D01*
X107269876Y-69543290D01*
X107269876Y-69272985D01*
X106999571Y-69272985D01*
X106729265Y-69272985D01*
X106729265Y-69002679D01*
X106729265Y-68732374D01*
X106999571Y-68732374D01*
X106999571Y-68867527D01*
X106999571Y-69002679D01*
X107269876Y-69002679D01*
X107540182Y-69002679D01*
X107540182Y-68867527D01*
X107540182Y-68732374D01*
X107269876Y-68732374D01*
X106999571Y-68732374D01*
X106729265Y-68732374D01*
X106594113Y-68732374D01*
X106458960Y-68732374D01*
X106458960Y-69137832D01*
X106458960Y-69543290D01*
X106188654Y-69543290D01*
X105918349Y-69543290D01*
X105918349Y-69678443D01*
X105918349Y-69813596D01*
X105783196Y-69813596D01*
X105648043Y-69813596D01*
X105648043Y-69678443D01*
X105648043Y-69543290D01*
X105512891Y-69543290D01*
X105377738Y-69543290D01*
X105377738Y-69408138D01*
X105377738Y-69272985D01*
X105783196Y-69272985D01*
X106188654Y-69272985D01*
X106188654Y-69137832D01*
X106188654Y-69002679D01*
X106053502Y-69002679D01*
X105918349Y-69002679D01*
X105918349Y-68732374D01*
X105918349Y-68597221D01*
X106188654Y-68597221D01*
X106188654Y-68732374D01*
X106323807Y-68732374D01*
X106458960Y-68732374D01*
X106458960Y-68597221D01*
X106458960Y-68462068D01*
X106323807Y-68462068D01*
X106188654Y-68462068D01*
X106188654Y-68597221D01*
X105918349Y-68597221D01*
X105918349Y-68462068D01*
X106053502Y-68462068D01*
X106188654Y-68462068D01*
X106188654Y-68326916D01*
X106188654Y-68191763D01*
X106458960Y-68191763D01*
X106729265Y-68191763D01*
X106729265Y-68326916D01*
X106729265Y-68462068D01*
X106864418Y-68462068D01*
X106999571Y-68462068D01*
X106999571Y-68326916D01*
X106999571Y-68191763D01*
X107269876Y-68191763D01*
X107540182Y-68191763D01*
X107540182Y-68462068D01*
X107540182Y-68732374D01*
X107675335Y-68732374D01*
X107810487Y-68732374D01*
X107810487Y-68462068D01*
X107810487Y-68191763D01*
X107945640Y-68191763D01*
X108080793Y-68191763D01*
X108080793Y-68732374D01*
X108080793Y-68867527D01*
X108080793Y-69272985D01*
G37*
G36*
X105242585Y-74679095D02*
G01*
X105377738Y-74679095D01*
X105377738Y-74814248D01*
X105377738Y-74949401D01*
X105242585Y-74949401D01*
X105107432Y-74949401D01*
X105107432Y-74814248D01*
X105107432Y-74679095D01*
X105242585Y-74679095D01*
G37*
G36*
X106594113Y-74679095D02*
G01*
X106729265Y-74679095D01*
X106729265Y-74814248D01*
X106729265Y-74949401D01*
X106594113Y-74949401D01*
X106458960Y-74949401D01*
X106458960Y-74814248D01*
X106458960Y-74679095D01*
X106594113Y-74679095D01*
G37*
G36*
X110108084Y-74679095D02*
G01*
X110243237Y-74679095D01*
X110243237Y-74814248D01*
X110243237Y-74949401D01*
X110108084Y-74949401D01*
X109972932Y-74949401D01*
X109972932Y-74814248D01*
X109972932Y-74679095D01*
X110108084Y-74679095D01*
G37*
G36*
X112405681Y-71435429D02*
G01*
X112405681Y-71976040D01*
X112135376Y-71976040D01*
X111865070Y-71976040D01*
X111865070Y-72111193D01*
X111865070Y-72246346D01*
X111729918Y-72246346D01*
X111594765Y-72246346D01*
X111594765Y-71976040D01*
X111594765Y-71705735D01*
X111459612Y-71705735D01*
X111324459Y-71705735D01*
X111324459Y-71976040D01*
X111324459Y-72246346D01*
X111459612Y-72246346D01*
X111594765Y-72246346D01*
X111594765Y-72381498D01*
X111594765Y-72516651D01*
X111729918Y-72516651D01*
X111865070Y-72516651D01*
X111865070Y-72381498D01*
X111865070Y-72246346D01*
X112000223Y-72246346D01*
X112135376Y-72246346D01*
X112135376Y-72381498D01*
X112135376Y-72516651D01*
X112000223Y-72516651D01*
X111865070Y-72516651D01*
X111865070Y-72651804D01*
X111865070Y-72786957D01*
X111729918Y-72786957D01*
X111594765Y-72786957D01*
X111594765Y-72651804D01*
X111594765Y-72516651D01*
X111459612Y-72516651D01*
X111324459Y-72516651D01*
X111324459Y-72651804D01*
X111324459Y-72786957D01*
X111189307Y-72786957D01*
X111054154Y-72786957D01*
X111054154Y-72516651D01*
X111054154Y-72246346D01*
X110783848Y-72246346D01*
X110513543Y-72246346D01*
X110513543Y-72111193D01*
X110513543Y-71976040D01*
X110783848Y-71976040D01*
X111054154Y-71976040D01*
X111054154Y-71705735D01*
X111054154Y-71435429D01*
X111459612Y-71435429D01*
X111865070Y-71435429D01*
X111865070Y-71570582D01*
X111865070Y-71705735D01*
X112000223Y-71705735D01*
X112135376Y-71705735D01*
X112135376Y-71435429D01*
X112135376Y-71165124D01*
X112000223Y-71165124D01*
X111865070Y-71165124D01*
X111865070Y-71029971D01*
X111865070Y-70894818D01*
X112135376Y-70894818D01*
X112405681Y-70894818D01*
X112405681Y-71435429D01*
G37*
G36*
X112270529Y-72516651D02*
G01*
X112405681Y-72516651D01*
X112405681Y-72651804D01*
X112405681Y-72786957D01*
X112270529Y-72786957D01*
X112135376Y-72786957D01*
X112135376Y-72651804D01*
X112135376Y-72516651D01*
X112270529Y-72516651D01*
G37*
G36*
X109837779Y-71435429D02*
G01*
X109972932Y-71435429D01*
X109972932Y-71705735D01*
X109972932Y-71976040D01*
X109837779Y-71976040D01*
X109702626Y-71976040D01*
X109702626Y-71705735D01*
X109702626Y-71435429D01*
X109837779Y-71435429D01*
G37*
G36*
X109702626Y-70759665D02*
G01*
X109702626Y-70894818D01*
X109567473Y-70894818D01*
X109432321Y-70894818D01*
X109432321Y-70759665D01*
X109432321Y-70624513D01*
X109567473Y-70624513D01*
X109702626Y-70624513D01*
X109702626Y-70759665D01*
G37*
G36*
X105918349Y-68326916D02*
G01*
X105918349Y-68462068D01*
X105783196Y-68462068D01*
X105648043Y-68462068D01*
X105648043Y-68326916D01*
X105648043Y-68191763D01*
X105783196Y-68191763D01*
X105918349Y-68191763D01*
X105918349Y-68326916D01*
G37*
G36*
X106323807Y-66569930D02*
G01*
X106458960Y-66569930D01*
X106458960Y-66975388D01*
X106458960Y-67380846D01*
X106594113Y-67380846D01*
X106729265Y-67380846D01*
X106729265Y-67110541D01*
X106729265Y-66840235D01*
X106864418Y-66840235D01*
X106999571Y-66840235D01*
X106999571Y-67110541D01*
X106999571Y-67380846D01*
X107269876Y-67380846D01*
X107540182Y-67380846D01*
X107540182Y-67245693D01*
X107540182Y-67110541D01*
X107675335Y-67110541D01*
X107810487Y-67110541D01*
X107810487Y-67245693D01*
X107810487Y-67380846D01*
X107675335Y-67380846D01*
X107540182Y-67380846D01*
X107540182Y-67651152D01*
X107540182Y-67921457D01*
X107675335Y-67921457D01*
X107810487Y-67921457D01*
X107810487Y-67786304D01*
X107810487Y-67651152D01*
X107945640Y-67651152D01*
X108080793Y-67651152D01*
X108080793Y-67786304D01*
X108080793Y-67921457D01*
X107945640Y-67921457D01*
X107810487Y-67921457D01*
X107810487Y-68056610D01*
X107810487Y-68191763D01*
X107675335Y-68191763D01*
X107540182Y-68191763D01*
X107540182Y-68056610D01*
X107540182Y-67921457D01*
X107405029Y-67921457D01*
X107269876Y-67921457D01*
X107269876Y-67786304D01*
X107269876Y-67651152D01*
X107134724Y-67651152D01*
X106999571Y-67651152D01*
X106999571Y-67921457D01*
X106999571Y-68191763D01*
X106864418Y-68191763D01*
X106729265Y-68191763D01*
X106729265Y-67921457D01*
X106729265Y-67651152D01*
X106594113Y-67651152D01*
X106458960Y-67651152D01*
X106458960Y-67786304D01*
X106458960Y-67921457D01*
X106323807Y-67921457D01*
X106188654Y-67921457D01*
X106188654Y-68056610D01*
X106188654Y-68191763D01*
X106053502Y-68191763D01*
X105918349Y-68191763D01*
X105918349Y-68056610D01*
X105918349Y-67921457D01*
X105783196Y-67921457D01*
X105648043Y-67921457D01*
X105648043Y-67515999D01*
X105648043Y-67110541D01*
X105783196Y-67110541D01*
X105918349Y-67110541D01*
X105918349Y-67515999D01*
X105918349Y-67921457D01*
X106053502Y-67921457D01*
X106188654Y-67921457D01*
X106188654Y-67245693D01*
X106188654Y-66569930D01*
X106323807Y-66569930D01*
G37*
G36*
X106188654Y-66299624D02*
G01*
X106188654Y-66569930D01*
X106053502Y-66569930D01*
X105918349Y-66569930D01*
X105918349Y-66705082D01*
X105918349Y-66840235D01*
X105783196Y-66840235D01*
X105648043Y-66840235D01*
X105648043Y-66569930D01*
X105648043Y-66299624D01*
X105783196Y-66299624D01*
X105918349Y-66299624D01*
X105918349Y-66164471D01*
X105918349Y-66029319D01*
X106053502Y-66029319D01*
X106188654Y-66029319D01*
X106188654Y-66299624D01*
G37*
D12*
%TO.C,J4*%
X161230000Y-67235000D02*
X161230000Y-72375000D01*
X161230000Y-74975000D02*
X161230000Y-73645000D01*
X162560000Y-74975000D02*
X161230000Y-74975000D01*
X163830000Y-72375000D02*
X161230000Y-72375000D01*
X163830000Y-74975000D02*
X163830000Y-72375000D01*
X166430000Y-67235000D02*
X161230000Y-67235000D01*
X166430000Y-67235000D02*
X166430000Y-74975000D01*
X166430000Y-74975000D02*
X163830000Y-74975000D01*
%TO.C,J2*%
X115505000Y-67235000D02*
X115505000Y-72375000D01*
X115505000Y-74975000D02*
X115505000Y-73645000D01*
X116835000Y-74975000D02*
X115505000Y-74975000D01*
X118105000Y-72375000D02*
X115505000Y-72375000D01*
X118105000Y-74975000D02*
X118105000Y-72375000D01*
X120705000Y-67235000D02*
X115505000Y-67235000D01*
X120705000Y-67235000D02*
X120705000Y-74975000D01*
X120705000Y-74975000D02*
X118105000Y-74975000D01*
%TD*%
M02*
