%TF.GenerationSoftware,KiCad,Pcbnew,8.0.4*%
%TF.CreationDate,2024-11-15T14:19:49-05:00*%
%TF.ProjectId,BarrelJackAdapter,42617272-656c-44a6-9163-6b4164617074,rev?*%
%TF.SameCoordinates,Original*%
%TF.FileFunction,Soldermask,Top*%
%TF.FilePolarity,Negative*%
%FSLAX46Y46*%
G04 Gerber Fmt 4.6, Leading zero omitted, Abs format (unit mm)*
G04 Created by KiCad (PCBNEW 8.0.4) date 2024-11-15 14:19:49*
%MOMM*%
%LPD*%
G01*
G04 APERTURE LIST*
G04 Aperture macros list*
%AMRoundRect*
0 Rectangle with rounded corners*
0 $1 Rounding radius*
0 $2 $3 $4 $5 $6 $7 $8 $9 X,Y pos of 4 corners*
0 Add a 4 corners polygon primitive as box body*
4,1,4,$2,$3,$4,$5,$6,$7,$8,$9,$2,$3,0*
0 Add four circle primitives for the rounded corners*
1,1,$1+$1,$2,$3*
1,1,$1+$1,$4,$5*
1,1,$1+$1,$6,$7*
1,1,$1+$1,$8,$9*
0 Add four rect primitives between the rounded corners*
20,1,$1+$1,$2,$3,$4,$5,0*
20,1,$1+$1,$4,$5,$6,$7,0*
20,1,$1+$1,$6,$7,$8,$9,0*
20,1,$1+$1,$8,$9,$2,$3,0*%
G04 Aperture macros list end*
%ADD10RoundRect,0.100000X-0.130000X-0.100000X0.130000X-0.100000X0.130000X0.100000X-0.130000X0.100000X0*%
%ADD11R,1.700000X1.700000*%
%ADD12O,1.700000X1.700000*%
%ADD13RoundRect,0.375000X-0.625000X-0.375000X0.625000X-0.375000X0.625000X0.375000X-0.625000X0.375000X0*%
%ADD14RoundRect,0.500000X-0.500000X-1.400000X0.500000X-1.400000X0.500000X1.400000X-0.500000X1.400000X0*%
%ADD15RoundRect,0.250000X-2.050000X-0.300000X2.050000X-0.300000X2.050000X0.300000X-2.050000X0.300000X0*%
%ADD16RoundRect,0.250002X-4.449998X-5.149998X4.449998X-5.149998X4.449998X5.149998X-4.449998X5.149998X0*%
%ADD17RoundRect,0.100000X0.100000X-0.130000X0.100000X0.130000X-0.100000X0.130000X-0.100000X-0.130000X0*%
%ADD18R,2.600000X2.600000*%
%ADD19C,2.600000*%
G04 APERTURE END LIST*
D10*
%TO.C,C2*%
X131415000Y-71515000D03*
X132055000Y-71515000D03*
%TD*%
D11*
%TO.C,J3*%
X124460000Y-68580000D03*
D12*
X127000000Y-68580000D03*
X124460000Y-71120000D03*
X127000000Y-71120000D03*
X124460000Y-73660000D03*
X127000000Y-73660000D03*
%TD*%
D10*
%TO.C,C1*%
X131415000Y-69765000D03*
X132055000Y-69765000D03*
%TD*%
D11*
%TO.C,J5*%
X154940000Y-68580000D03*
D12*
X157480000Y-68580000D03*
X154940000Y-71120000D03*
X157480000Y-71120000D03*
X154940000Y-73660000D03*
X157480000Y-73660000D03*
%TD*%
D13*
%TO.C,U1*%
X104800000Y-68580000D03*
X104800000Y-70880000D03*
D14*
X111100000Y-70880000D03*
D13*
X104800000Y-73180000D03*
%TD*%
D15*
%TO.C,U2*%
X137160000Y-68580000D03*
D16*
X146310000Y-71120000D03*
D15*
X137160000Y-73660000D03*
%TD*%
D17*
%TO.C,C3*%
X113792000Y-71120000D03*
X113792000Y-70480000D03*
%TD*%
D18*
%TO.C,J1*%
X171600000Y-71870000D03*
D19*
X177600000Y-71870000D03*
X174600000Y-67170000D03*
%TD*%
D11*
%TO.C,J4*%
X162560000Y-73645000D03*
D12*
X165100000Y-73645000D03*
X162560000Y-71105000D03*
X165100000Y-71105000D03*
X162560000Y-68565000D03*
X165100000Y-68565000D03*
%TD*%
D11*
%TO.C,J2*%
X116835000Y-73645000D03*
D12*
X119375000Y-73645000D03*
X116835000Y-71105000D03*
X119375000Y-71105000D03*
X116835000Y-68565000D03*
X119375000Y-68565000D03*
%TD*%
M02*
