%TF.GenerationSoftware,KiCad,Pcbnew,8.0.4*%
%TF.CreationDate,2024-11-07T15:33:01-05:00*%
%TF.ProjectId,BarrelJackAdapter,42617272-656c-44a6-9163-6b4164617074,rev?*%
%TF.SameCoordinates,Original*%
%TF.FileFunction,Copper,L1,Top*%
%TF.FilePolarity,Positive*%
%FSLAX46Y46*%
G04 Gerber Fmt 4.6, Leading zero omitted, Abs format (unit mm)*
G04 Created by KiCad (PCBNEW 8.0.4) date 2024-11-07 15:33:01*
%MOMM*%
%LPD*%
G01*
G04 APERTURE LIST*
G04 Aperture macros list*
%AMRoundRect*
0 Rectangle with rounded corners*
0 $1 Rounding radius*
0 $2 $3 $4 $5 $6 $7 $8 $9 X,Y pos of 4 corners*
0 Add a 4 corners polygon primitive as box body*
4,1,4,$2,$3,$4,$5,$6,$7,$8,$9,$2,$3,0*
0 Add four circle primitives for the rounded corners*
1,1,$1+$1,$2,$3*
1,1,$1+$1,$4,$5*
1,1,$1+$1,$6,$7*
1,1,$1+$1,$8,$9*
0 Add four rect primitives between the rounded corners*
20,1,$1+$1,$2,$3,$4,$5,0*
20,1,$1+$1,$4,$5,$6,$7,0*
20,1,$1+$1,$6,$7,$8,$9,0*
20,1,$1+$1,$8,$9,$2,$3,0*%
G04 Aperture macros list end*
%TA.AperFunction,ComponentPad*%
%ADD10R,2.600000X2.600000*%
%TD*%
%TA.AperFunction,ComponentPad*%
%ADD11C,2.600000*%
%TD*%
%TA.AperFunction,SMDPad,CuDef*%
%ADD12RoundRect,0.100000X0.130000X0.100000X-0.130000X0.100000X-0.130000X-0.100000X0.130000X-0.100000X0*%
%TD*%
%TA.AperFunction,ComponentPad*%
%ADD13R,1.700000X1.700000*%
%TD*%
%TA.AperFunction,ComponentPad*%
%ADD14O,1.700000X1.700000*%
%TD*%
%TA.AperFunction,SMDPad,CuDef*%
%ADD15RoundRect,0.100000X-0.130000X-0.100000X0.130000X-0.100000X0.130000X0.100000X-0.130000X0.100000X0*%
%TD*%
%TA.AperFunction,ComponentPad*%
%ADD16R,1.905000X2.000000*%
%TD*%
%TA.AperFunction,ComponentPad*%
%ADD17O,1.905000X2.000000*%
%TD*%
%TA.AperFunction,Conductor*%
%ADD18C,0.200000*%
%TD*%
G04 APERTURE END LIST*
D10*
%TO.P,J1,1*%
%TO.N,+9V*%
X184150000Y-70200000D03*
D11*
%TO.P,J1,2*%
%TO.N,GND*%
X184150000Y-76200000D03*
%TO.P,J1,3*%
X188850000Y-73200000D03*
%TD*%
D12*
%TO.P,C2,1*%
%TO.N,+5V*%
X187355000Y-67310000D03*
%TO.P,C2,2*%
%TO.N,GND*%
X186715000Y-67310000D03*
%TD*%
D13*
%TO.P,J4,1,Pin_1*%
%TO.N,+9V*%
X187960000Y-57135000D03*
D14*
%TO.P,J4,2,Pin_2*%
%TO.N,GND*%
X187960000Y-54595000D03*
%TO.P,J4,3,Pin_3*%
%TO.N,+5V*%
X187960000Y-52055000D03*
%TD*%
D13*
%TO.P,J2,1,Pin_1*%
%TO.N,+9V*%
X180340000Y-57135000D03*
D14*
%TO.P,J2,2,Pin_2*%
%TO.N,GND*%
X180340000Y-54595000D03*
%TO.P,J2,3,Pin_3*%
%TO.N,+5V*%
X180340000Y-52055000D03*
%TD*%
D15*
%TO.P,C1,1*%
%TO.N,+9V*%
X182215000Y-67310000D03*
%TO.P,C1,2*%
%TO.N,GND*%
X182855000Y-67310000D03*
%TD*%
D16*
%TO.P,U1,1,IN*%
%TO.N,+9V*%
X181610000Y-64770000D03*
D17*
%TO.P,U1,2,GND*%
%TO.N,GND*%
X184150000Y-64770000D03*
%TO.P,U1,3,OUT*%
%TO.N,+5V*%
X186690000Y-64770000D03*
%TD*%
D18*
%TO.N,GND*%
X186715000Y-67310000D02*
X185420000Y-67310000D01*
X185420000Y-67310000D02*
X184150000Y-66040000D01*
X184150000Y-64770000D02*
X184150000Y-66040000D01*
X182880000Y-67310000D02*
X184150000Y-66040000D01*
X182855000Y-67310000D02*
X182880000Y-67310000D01*
%TO.N,+5V*%
X186690000Y-66040000D02*
X186690000Y-64770000D01*
%TO.N,GND*%
X186715000Y-67310000D02*
X186715000Y-67110001D01*
X184374999Y-64770000D02*
X184150000Y-64770000D01*
%TO.N,+5V*%
X187355000Y-66705000D02*
X186690000Y-66040000D01*
X187355000Y-67310000D02*
X187355000Y-66705000D01*
X189260000Y-64105000D02*
X189230000Y-64135000D01*
X191105000Y-64105000D02*
X191135000Y-64135000D01*
X190500000Y-64105000D02*
X189260000Y-64105000D01*
X189230000Y-64135000D02*
X189230000Y-63500000D01*
X190500000Y-64105000D02*
X191105000Y-64105000D01*
X190500000Y-64105000D02*
X190500000Y-62865000D01*
%TD*%
%TA.AperFunction,Conductor*%
%TO.N,+9V*%
G36*
X178939068Y-54629685D02*
G01*
X178984823Y-54682489D01*
X178995557Y-54723193D01*
X179004936Y-54830402D01*
X179004938Y-54830413D01*
X179066094Y-55058655D01*
X179066096Y-55058659D01*
X179066097Y-55058663D01*
X179165965Y-55272830D01*
X179165967Y-55272834D01*
X179274281Y-55427521D01*
X179301501Y-55466396D01*
X179301506Y-55466402D01*
X179423818Y-55588714D01*
X179457303Y-55650037D01*
X179452319Y-55719729D01*
X179410447Y-55775662D01*
X179379471Y-55792577D01*
X179247912Y-55841646D01*
X179247906Y-55841649D01*
X179132812Y-55927809D01*
X179132809Y-55927812D01*
X179046649Y-56042906D01*
X179046645Y-56042913D01*
X178996403Y-56177620D01*
X178996401Y-56177627D01*
X178990000Y-56237155D01*
X178990000Y-56885000D01*
X179906988Y-56885000D01*
X179874075Y-56942007D01*
X179840000Y-57069174D01*
X179840000Y-57200826D01*
X179874075Y-57327993D01*
X179906988Y-57385000D01*
X178990000Y-57385000D01*
X178990000Y-58032844D01*
X178996401Y-58092372D01*
X178996403Y-58092379D01*
X179046645Y-58227086D01*
X179046649Y-58227093D01*
X179132809Y-58342187D01*
X179132812Y-58342190D01*
X179247906Y-58428350D01*
X179247913Y-58428354D01*
X179382620Y-58478596D01*
X179382627Y-58478598D01*
X179442155Y-58484999D01*
X179442172Y-58485000D01*
X180090000Y-58485000D01*
X180090000Y-57568012D01*
X180147007Y-57600925D01*
X180274174Y-57635000D01*
X180405826Y-57635000D01*
X180532993Y-57600925D01*
X180590000Y-57568012D01*
X180590000Y-58485000D01*
X181237828Y-58485000D01*
X181237844Y-58484999D01*
X181297372Y-58478598D01*
X181297379Y-58478596D01*
X181432086Y-58428354D01*
X181432093Y-58428350D01*
X181547187Y-58342190D01*
X181547190Y-58342187D01*
X181633350Y-58227093D01*
X181633354Y-58227086D01*
X181683596Y-58092379D01*
X181683598Y-58092372D01*
X181689999Y-58032844D01*
X181690000Y-58032827D01*
X181690000Y-57385000D01*
X180773012Y-57385000D01*
X180805925Y-57327993D01*
X180840000Y-57200826D01*
X180840000Y-57069174D01*
X180805925Y-56942007D01*
X180773012Y-56885000D01*
X181690000Y-56885000D01*
X181690000Y-56237172D01*
X181689999Y-56237155D01*
X181683598Y-56177627D01*
X181683596Y-56177620D01*
X181633354Y-56042913D01*
X181633350Y-56042906D01*
X181547190Y-55927812D01*
X181547187Y-55927809D01*
X181432093Y-55841649D01*
X181432088Y-55841646D01*
X181300528Y-55792577D01*
X181244595Y-55750705D01*
X181220178Y-55685241D01*
X181235030Y-55616968D01*
X181256175Y-55588720D01*
X181378495Y-55466401D01*
X181514035Y-55272830D01*
X181613903Y-55058663D01*
X181675063Y-54830408D01*
X181684443Y-54723191D01*
X181709895Y-54658124D01*
X181766486Y-54617145D01*
X181807971Y-54610000D01*
X186492029Y-54610000D01*
X186559068Y-54629685D01*
X186604823Y-54682489D01*
X186615557Y-54723193D01*
X186624936Y-54830402D01*
X186624938Y-54830413D01*
X186686094Y-55058655D01*
X186686096Y-55058659D01*
X186686097Y-55058663D01*
X186785965Y-55272830D01*
X186785967Y-55272834D01*
X186894281Y-55427521D01*
X186921501Y-55466396D01*
X186921506Y-55466402D01*
X187043818Y-55588714D01*
X187077303Y-55650037D01*
X187072319Y-55719729D01*
X187030447Y-55775662D01*
X186999471Y-55792577D01*
X186867912Y-55841646D01*
X186867906Y-55841649D01*
X186752812Y-55927809D01*
X186752809Y-55927812D01*
X186666649Y-56042906D01*
X186666645Y-56042913D01*
X186616403Y-56177620D01*
X186616401Y-56177627D01*
X186610000Y-56237155D01*
X186610000Y-56885000D01*
X187526988Y-56885000D01*
X187494075Y-56942007D01*
X187460000Y-57069174D01*
X187460000Y-57200826D01*
X187494075Y-57327993D01*
X187526988Y-57385000D01*
X186610000Y-57385000D01*
X186610000Y-58032844D01*
X186616401Y-58092372D01*
X186616403Y-58092379D01*
X186666645Y-58227086D01*
X186666649Y-58227093D01*
X186752809Y-58342187D01*
X186752812Y-58342190D01*
X186867906Y-58428350D01*
X186867913Y-58428354D01*
X187002620Y-58478596D01*
X187002627Y-58478598D01*
X187062155Y-58484999D01*
X187062172Y-58485000D01*
X187710000Y-58485000D01*
X187710000Y-57568012D01*
X187767007Y-57600925D01*
X187894174Y-57635000D01*
X188025826Y-57635000D01*
X188152993Y-57600925D01*
X188210000Y-57568012D01*
X188210000Y-58485000D01*
X188600500Y-58485000D01*
X188667539Y-58504685D01*
X188713294Y-58557489D01*
X188724500Y-58609000D01*
X188724500Y-60330500D01*
X188704815Y-60397539D01*
X188652011Y-60443294D01*
X188600500Y-60454500D01*
X184274000Y-60454500D01*
X184273991Y-60454500D01*
X184273990Y-60454501D01*
X184166549Y-60466052D01*
X184166537Y-60466054D01*
X184115027Y-60477260D01*
X184012502Y-60511383D01*
X184012496Y-60511386D01*
X183891462Y-60589171D01*
X183891451Y-60589179D01*
X183838659Y-60634923D01*
X183744433Y-60743664D01*
X183744430Y-60743668D01*
X183684664Y-60874534D01*
X183684662Y-60874541D01*
X183664977Y-60941580D01*
X183664976Y-60941584D01*
X183644500Y-61084000D01*
X183644500Y-63145875D01*
X183652203Y-63233787D01*
X183652204Y-63233795D01*
X183654325Y-63245806D01*
X183646597Y-63315247D01*
X183602554Y-63369487D01*
X183588509Y-63377853D01*
X183388458Y-63479785D01*
X183205339Y-63612829D01*
X183139533Y-63636309D01*
X183071479Y-63620484D01*
X183022784Y-63570378D01*
X183016272Y-63555845D01*
X183005853Y-63527911D01*
X183005850Y-63527906D01*
X182919690Y-63412812D01*
X182919687Y-63412809D01*
X182804593Y-63326649D01*
X182804586Y-63326645D01*
X182669879Y-63276403D01*
X182669872Y-63276401D01*
X182610344Y-63270000D01*
X181860000Y-63270000D01*
X181860000Y-64279252D01*
X181822292Y-64257482D01*
X181682409Y-64220000D01*
X181537591Y-64220000D01*
X181397708Y-64257482D01*
X181360000Y-64279252D01*
X181360000Y-63270000D01*
X180609655Y-63270000D01*
X180550127Y-63276401D01*
X180550120Y-63276403D01*
X180415413Y-63326645D01*
X180415406Y-63326649D01*
X180300312Y-63412809D01*
X180300309Y-63412812D01*
X180214149Y-63527906D01*
X180214145Y-63527913D01*
X180163903Y-63662620D01*
X180163901Y-63662627D01*
X180157500Y-63722155D01*
X180157500Y-64520000D01*
X181119252Y-64520000D01*
X181097482Y-64557708D01*
X181060000Y-64697591D01*
X181060000Y-64842409D01*
X181097482Y-64982292D01*
X181119252Y-65020000D01*
X180157500Y-65020000D01*
X180157500Y-65817844D01*
X180163901Y-65877372D01*
X180163903Y-65877379D01*
X180214145Y-66012086D01*
X180214149Y-66012093D01*
X180300309Y-66127187D01*
X180300312Y-66127190D01*
X180415406Y-66213350D01*
X180415413Y-66213354D01*
X180550120Y-66263596D01*
X180550127Y-66263598D01*
X180609655Y-66269999D01*
X180609672Y-66270000D01*
X181360000Y-66270000D01*
X181360000Y-65260747D01*
X181397708Y-65282518D01*
X181537591Y-65320000D01*
X181682409Y-65320000D01*
X181822292Y-65282518D01*
X181860000Y-65260747D01*
X181860000Y-66270000D01*
X182610328Y-66270000D01*
X182610344Y-66269999D01*
X182669872Y-66263598D01*
X182669876Y-66263597D01*
X182785361Y-66220524D01*
X182855053Y-66215540D01*
X182916376Y-66249025D01*
X182949861Y-66310348D01*
X182944877Y-66380039D01*
X182916376Y-66424387D01*
X182767464Y-66573299D01*
X182706141Y-66606784D01*
X182687910Y-66609351D01*
X182685649Y-66609499D01*
X182568236Y-66624955D01*
X182566111Y-66625525D01*
X182563910Y-66625525D01*
X182560181Y-66626016D01*
X182560116Y-66625525D01*
X182509815Y-66625525D01*
X182509687Y-66626505D01*
X182502251Y-66625525D01*
X182501937Y-66625526D01*
X182501633Y-66625444D01*
X182415000Y-66614038D01*
X182415000Y-66629807D01*
X182395315Y-66696846D01*
X182366488Y-66728181D01*
X182296718Y-66781718D01*
X182237374Y-66859056D01*
X182180948Y-66900257D01*
X182111202Y-66904412D01*
X182050281Y-66870199D01*
X182017529Y-66808482D01*
X182015000Y-66783568D01*
X182015000Y-66614038D01*
X181928369Y-66625444D01*
X181928365Y-66625445D01*
X181782413Y-66685899D01*
X181657075Y-66782075D01*
X181560899Y-66907413D01*
X181500444Y-67053368D01*
X181492987Y-67110000D01*
X182000500Y-67110000D01*
X182067539Y-67129685D01*
X182113294Y-67182489D01*
X182124500Y-67233999D01*
X182124501Y-67385999D01*
X182104817Y-67453039D01*
X182052013Y-67498794D01*
X182000501Y-67510000D01*
X181492990Y-67510000D01*
X181492988Y-67510001D01*
X181500442Y-67566627D01*
X181500444Y-67566633D01*
X181560899Y-67712585D01*
X181657075Y-67837924D01*
X181782413Y-67934100D01*
X181928365Y-67994554D01*
X181928369Y-67994555D01*
X182015000Y-68005961D01*
X182015000Y-67836431D01*
X182034685Y-67769392D01*
X182087489Y-67723637D01*
X182156647Y-67713693D01*
X182220203Y-67742718D01*
X182237372Y-67760941D01*
X182296718Y-67838282D01*
X182366487Y-67891817D01*
X182407689Y-67948243D01*
X182415000Y-67990192D01*
X182415000Y-68005959D01*
X182415001Y-68005960D01*
X182501622Y-67994558D01*
X182501917Y-67994479D01*
X182502222Y-67994478D01*
X182509690Y-67993496D01*
X182509819Y-67994478D01*
X182560115Y-67994476D01*
X182560180Y-67993983D01*
X182563925Y-67994476D01*
X182566121Y-67994476D01*
X182568230Y-67995040D01*
X182568238Y-67995044D01*
X182685639Y-68010500D01*
X183024360Y-68010499D01*
X183024363Y-68010499D01*
X183141753Y-67995046D01*
X183141757Y-67995044D01*
X183141762Y-67995044D01*
X183287841Y-67934536D01*
X183413282Y-67838282D01*
X183509536Y-67712841D01*
X183570044Y-67566762D01*
X183579342Y-67496127D01*
X183607607Y-67432234D01*
X183614587Y-67424646D01*
X184062322Y-66976912D01*
X184123641Y-66943430D01*
X184193333Y-66948414D01*
X184237680Y-66976915D01*
X184935139Y-67674374D01*
X184935149Y-67674385D01*
X184939479Y-67678715D01*
X184939480Y-67678716D01*
X185051284Y-67790520D01*
X185134011Y-67838282D01*
X185134012Y-67838283D01*
X185188209Y-67869574D01*
X185188210Y-67869574D01*
X185188215Y-67869577D01*
X185340942Y-67910500D01*
X185340943Y-67910500D01*
X186208743Y-67910500D01*
X186275782Y-67930185D01*
X186281099Y-67933924D01*
X186282157Y-67934534D01*
X186282159Y-67934536D01*
X186282160Y-67934536D01*
X186282163Y-67934538D01*
X186355198Y-67964790D01*
X186428238Y-67995044D01*
X186545639Y-68010500D01*
X186884360Y-68010499D01*
X186884363Y-68010499D01*
X187001755Y-67995045D01*
X187001755Y-67995044D01*
X187001762Y-67995044D01*
X187001767Y-67995041D01*
X187002900Y-67994739D01*
X187004085Y-67994738D01*
X187009821Y-67993984D01*
X187009920Y-67994738D01*
X187060080Y-67994737D01*
X187060180Y-67993983D01*
X187065907Y-67994737D01*
X187067091Y-67994737D01*
X187068234Y-67995043D01*
X187068236Y-67995043D01*
X187068238Y-67995044D01*
X187185639Y-68010500D01*
X187524360Y-68010499D01*
X187524363Y-68010499D01*
X187641753Y-67995046D01*
X187641757Y-67995044D01*
X187641762Y-67995044D01*
X187787841Y-67934536D01*
X187913282Y-67838282D01*
X187916810Y-67833682D01*
X187973235Y-67792480D01*
X188042981Y-67788323D01*
X188050124Y-67790192D01*
X188066569Y-67795021D01*
X188066575Y-67795021D01*
X188066579Y-67795023D01*
X188066583Y-67795024D01*
X188208999Y-67815500D01*
X188209002Y-67815500D01*
X191145500Y-67815500D01*
X191212539Y-67835185D01*
X191258294Y-67887989D01*
X191269500Y-67939500D01*
X191269500Y-78733907D01*
X191268903Y-78746062D01*
X191255911Y-78877967D01*
X191251169Y-78901807D01*
X191214469Y-79022790D01*
X191205166Y-79045248D01*
X191145573Y-79156738D01*
X191132069Y-79176949D01*
X191051867Y-79274677D01*
X191034677Y-79291867D01*
X190936949Y-79372069D01*
X190916738Y-79385573D01*
X190805248Y-79445166D01*
X190782790Y-79454469D01*
X190661807Y-79491169D01*
X190637967Y-79495911D01*
X190540698Y-79505491D01*
X190506060Y-79508903D01*
X190493907Y-79509500D01*
X177552961Y-79509500D01*
X177539077Y-79508720D01*
X177445172Y-79498139D01*
X177418101Y-79491960D01*
X177415840Y-79491169D01*
X177335522Y-79463064D01*
X177310505Y-79451017D01*
X177236418Y-79404465D01*
X177214709Y-79387152D01*
X177152847Y-79325290D01*
X177135534Y-79303581D01*
X177123305Y-79284119D01*
X177088980Y-79229491D01*
X177076937Y-79204481D01*
X177048037Y-79121892D01*
X177041861Y-79094831D01*
X177031280Y-79000921D01*
X177030500Y-78987038D01*
X177030500Y-76199995D01*
X182344451Y-76199995D01*
X182344451Y-76200004D01*
X182364616Y-76469101D01*
X182424664Y-76732188D01*
X182424666Y-76732195D01*
X182523257Y-76983398D01*
X182658185Y-77217102D01*
X182794080Y-77387509D01*
X182826442Y-77428089D01*
X183013183Y-77601358D01*
X183024259Y-77611635D01*
X183247226Y-77763651D01*
X183490359Y-77880738D01*
X183748228Y-77960280D01*
X183748229Y-77960280D01*
X183748232Y-77960281D01*
X184015063Y-78000499D01*
X184015068Y-78000499D01*
X184015071Y-78000500D01*
X184015072Y-78000500D01*
X184284928Y-78000500D01*
X184284929Y-78000500D01*
X184284936Y-78000499D01*
X184551767Y-77960281D01*
X184551768Y-77960280D01*
X184551772Y-77960280D01*
X184809641Y-77880738D01*
X185052775Y-77763651D01*
X185275741Y-77611635D01*
X185473561Y-77428085D01*
X185641815Y-77217102D01*
X185776743Y-76983398D01*
X185875334Y-76732195D01*
X185935383Y-76469103D01*
X185955549Y-76200000D01*
X185935383Y-75930897D01*
X185875334Y-75667805D01*
X185776743Y-75416602D01*
X185641815Y-75182898D01*
X185473561Y-74971915D01*
X185473560Y-74971914D01*
X185473557Y-74971910D01*
X185275741Y-74788365D01*
X185239492Y-74763651D01*
X185052775Y-74636349D01*
X185052769Y-74636346D01*
X185052768Y-74636345D01*
X185052767Y-74636344D01*
X184809643Y-74519263D01*
X184809645Y-74519263D01*
X184551773Y-74439720D01*
X184551767Y-74439718D01*
X184284936Y-74399500D01*
X184284929Y-74399500D01*
X184015071Y-74399500D01*
X184015063Y-74399500D01*
X183748232Y-74439718D01*
X183748226Y-74439720D01*
X183490358Y-74519262D01*
X183247230Y-74636346D01*
X183024258Y-74788365D01*
X182826442Y-74971910D01*
X182658185Y-75182898D01*
X182523258Y-75416599D01*
X182523256Y-75416603D01*
X182424666Y-75667804D01*
X182424664Y-75667811D01*
X182364616Y-75930898D01*
X182344451Y-76199995D01*
X177030500Y-76199995D01*
X177030500Y-73199995D01*
X187044451Y-73199995D01*
X187044451Y-73200004D01*
X187064616Y-73469101D01*
X187124664Y-73732188D01*
X187124666Y-73732195D01*
X187223257Y-73983398D01*
X187358185Y-74217102D01*
X187494080Y-74387509D01*
X187526442Y-74428089D01*
X187713183Y-74601358D01*
X187724259Y-74611635D01*
X187947226Y-74763651D01*
X188190359Y-74880738D01*
X188448228Y-74960280D01*
X188448229Y-74960280D01*
X188448232Y-74960281D01*
X188715063Y-75000499D01*
X188715068Y-75000499D01*
X188715071Y-75000500D01*
X188715072Y-75000500D01*
X188984928Y-75000500D01*
X188984929Y-75000500D01*
X188984936Y-75000499D01*
X189251767Y-74960281D01*
X189251768Y-74960280D01*
X189251772Y-74960280D01*
X189509641Y-74880738D01*
X189752775Y-74763651D01*
X189975741Y-74611635D01*
X190129259Y-74469190D01*
X190173557Y-74428089D01*
X190173557Y-74428087D01*
X190173561Y-74428085D01*
X190341815Y-74217102D01*
X190476743Y-73983398D01*
X190575334Y-73732195D01*
X190635383Y-73469103D01*
X190655549Y-73200000D01*
X190635383Y-72930897D01*
X190575334Y-72667805D01*
X190476743Y-72416602D01*
X190341815Y-72182898D01*
X190173561Y-71971915D01*
X190173560Y-71971914D01*
X190173557Y-71971910D01*
X189975741Y-71788365D01*
X189752775Y-71636349D01*
X189752769Y-71636346D01*
X189752768Y-71636345D01*
X189752767Y-71636344D01*
X189509643Y-71519263D01*
X189509645Y-71519263D01*
X189251773Y-71439720D01*
X189251767Y-71439718D01*
X188984936Y-71399500D01*
X188984929Y-71399500D01*
X188715071Y-71399500D01*
X188715063Y-71399500D01*
X188448232Y-71439718D01*
X188448226Y-71439720D01*
X188190358Y-71519262D01*
X187947230Y-71636346D01*
X187724258Y-71788365D01*
X187526442Y-71971910D01*
X187358185Y-72182898D01*
X187223258Y-72416599D01*
X187223256Y-72416603D01*
X187124666Y-72667804D01*
X187124664Y-72667811D01*
X187064616Y-72930898D01*
X187044451Y-73199995D01*
X177030500Y-73199995D01*
X177030500Y-68852155D01*
X182350000Y-68852155D01*
X182350000Y-69950000D01*
X183387639Y-69950000D01*
X183380743Y-69966649D01*
X183350000Y-70121207D01*
X183350000Y-70278793D01*
X183380743Y-70433351D01*
X183387639Y-70450000D01*
X182350000Y-70450000D01*
X182350000Y-71547844D01*
X182356401Y-71607372D01*
X182356403Y-71607379D01*
X182406645Y-71742086D01*
X182406649Y-71742093D01*
X182492809Y-71857187D01*
X182492812Y-71857190D01*
X182607906Y-71943350D01*
X182607913Y-71943354D01*
X182742620Y-71993596D01*
X182742627Y-71993598D01*
X182802155Y-71999999D01*
X182802172Y-72000000D01*
X183900000Y-72000000D01*
X183900000Y-70962360D01*
X183916649Y-70969257D01*
X184071207Y-71000000D01*
X184228793Y-71000000D01*
X184383351Y-70969257D01*
X184400000Y-70962360D01*
X184400000Y-72000000D01*
X185497828Y-72000000D01*
X185497844Y-71999999D01*
X185557372Y-71993598D01*
X185557379Y-71993596D01*
X185692086Y-71943354D01*
X185692093Y-71943350D01*
X185807187Y-71857190D01*
X185807190Y-71857187D01*
X185893350Y-71742093D01*
X185893354Y-71742086D01*
X185943596Y-71607379D01*
X185943598Y-71607372D01*
X185949999Y-71547844D01*
X185950000Y-71547827D01*
X185950000Y-70450000D01*
X184912361Y-70450000D01*
X184919257Y-70433351D01*
X184950000Y-70278793D01*
X184950000Y-70121207D01*
X184919257Y-69966649D01*
X184912361Y-69950000D01*
X185950000Y-69950000D01*
X185950000Y-68852172D01*
X185949999Y-68852155D01*
X185943598Y-68792627D01*
X185943596Y-68792620D01*
X185893354Y-68657913D01*
X185893350Y-68657906D01*
X185807190Y-68542812D01*
X185807187Y-68542809D01*
X185692093Y-68456649D01*
X185692086Y-68456645D01*
X185557379Y-68406403D01*
X185557372Y-68406401D01*
X185497844Y-68400000D01*
X184400000Y-68400000D01*
X184400000Y-69437639D01*
X184383351Y-69430743D01*
X184228793Y-69400000D01*
X184071207Y-69400000D01*
X183916649Y-69430743D01*
X183900000Y-69437639D01*
X183900000Y-68400000D01*
X182802155Y-68400000D01*
X182742627Y-68406401D01*
X182742620Y-68406403D01*
X182607913Y-68456645D01*
X182607906Y-68456649D01*
X182492812Y-68542809D01*
X182492809Y-68542812D01*
X182406649Y-68657906D01*
X182406645Y-68657913D01*
X182356403Y-68792620D01*
X182356401Y-68792627D01*
X182350000Y-68852155D01*
X177030500Y-68852155D01*
X177030500Y-54734000D01*
X177050185Y-54666961D01*
X177102989Y-54621206D01*
X177154500Y-54610000D01*
X178872029Y-54610000D01*
X178939068Y-54629685D01*
G37*
%TD.AperFunction*%
%TD*%
%TA.AperFunction,Conductor*%
%TO.N,+5V*%
G36*
X190506061Y-50031097D02*
G01*
X190637973Y-50044089D01*
X190661801Y-50048828D01*
X190782793Y-50085531D01*
X190805245Y-50094832D01*
X190860993Y-50124629D01*
X190916738Y-50154426D01*
X190936949Y-50167930D01*
X191034677Y-50248132D01*
X191051867Y-50265322D01*
X191132069Y-50363050D01*
X191145573Y-50383261D01*
X191205166Y-50494751D01*
X191214469Y-50517209D01*
X191251169Y-50638192D01*
X191255911Y-50662032D01*
X191267684Y-50781567D01*
X191268903Y-50793937D01*
X191269500Y-50806092D01*
X191269500Y-67186000D01*
X191249815Y-67253039D01*
X191197011Y-67298794D01*
X191145500Y-67310000D01*
X188208999Y-67310000D01*
X188141960Y-67290315D01*
X188096205Y-67237511D01*
X188084999Y-67186000D01*
X188084999Y-67170675D01*
X188069557Y-67053371D01*
X188069555Y-67053366D01*
X188009100Y-66907414D01*
X187912924Y-66782075D01*
X187787586Y-66685899D01*
X187641631Y-66625444D01*
X187555000Y-66614038D01*
X187555000Y-66783568D01*
X187535315Y-66850607D01*
X187482511Y-66896362D01*
X187413353Y-66906306D01*
X187349797Y-66877281D01*
X187332627Y-66859058D01*
X187273282Y-66781718D01*
X187203512Y-66728181D01*
X187162311Y-66671755D01*
X187155000Y-66629807D01*
X187155000Y-66614039D01*
X187154999Y-66614038D01*
X187116902Y-66619054D01*
X187047867Y-66608288D01*
X187038724Y-66603505D01*
X186946784Y-66550424D01*
X186794057Y-66509501D01*
X186635943Y-66509501D01*
X186483216Y-66550424D01*
X186483209Y-66550427D01*
X186346283Y-66629480D01*
X186312965Y-66662798D01*
X186287298Y-66682496D01*
X186275132Y-66689522D01*
X186274126Y-66687781D01*
X186219063Y-66709070D01*
X186208743Y-66709500D01*
X185720097Y-66709500D01*
X185653058Y-66689815D01*
X185632416Y-66673181D01*
X185076702Y-66117467D01*
X185043217Y-66056144D01*
X185048201Y-65986452D01*
X185090073Y-65930519D01*
X185091501Y-65929466D01*
X185096562Y-65925789D01*
X185096562Y-65925788D01*
X185096566Y-65925786D01*
X185258286Y-65764066D01*
X185319992Y-65679134D01*
X185375319Y-65636470D01*
X185444932Y-65630491D01*
X185506727Y-65663096D01*
X185520626Y-65679135D01*
X185582097Y-65763741D01*
X185582097Y-65763742D01*
X185743757Y-65925402D01*
X185928723Y-66059788D01*
X186132429Y-66163582D01*
X186349871Y-66234234D01*
X186440000Y-66248509D01*
X186440000Y-65260747D01*
X186477708Y-65282518D01*
X186617591Y-65320000D01*
X186762409Y-65320000D01*
X186902292Y-65282518D01*
X186940000Y-65260747D01*
X186940000Y-66248508D01*
X187030128Y-66234234D01*
X187247570Y-66163582D01*
X187451276Y-66059788D01*
X187636242Y-65925402D01*
X187797902Y-65763742D01*
X187932288Y-65578776D01*
X188036082Y-65375070D01*
X188106734Y-65157628D01*
X188128532Y-65020000D01*
X187180748Y-65020000D01*
X187202518Y-64982292D01*
X187240000Y-64842409D01*
X187240000Y-64697591D01*
X187202518Y-64557708D01*
X187180748Y-64520000D01*
X188128532Y-64520000D01*
X188106734Y-64382371D01*
X188036082Y-64164929D01*
X187932288Y-63961223D01*
X187797902Y-63776257D01*
X187636242Y-63614597D01*
X187451276Y-63480211D01*
X187247568Y-63376417D01*
X187030124Y-63305765D01*
X186940000Y-63291490D01*
X186940000Y-64279252D01*
X186902292Y-64257482D01*
X186762409Y-64220000D01*
X186617591Y-64220000D01*
X186477708Y-64257482D01*
X186440000Y-64279252D01*
X186440000Y-63291490D01*
X186439999Y-63291490D01*
X186349875Y-63305765D01*
X186132431Y-63376417D01*
X185928723Y-63480211D01*
X185743757Y-63614597D01*
X185582097Y-63776257D01*
X185520627Y-63860864D01*
X185465297Y-63903529D01*
X185395684Y-63909508D01*
X185333889Y-63876902D01*
X185319991Y-63860864D01*
X185258286Y-63775934D01*
X185096566Y-63614214D01*
X184911538Y-63479783D01*
X184707755Y-63375950D01*
X184490248Y-63305278D01*
X184264338Y-63269497D01*
X184264241Y-63269490D01*
X184264206Y-63269476D01*
X184259542Y-63268738D01*
X184259697Y-63267757D01*
X184198959Y-63244591D01*
X184157501Y-63188349D01*
X184150000Y-63145875D01*
X184150000Y-61084000D01*
X184169685Y-61016961D01*
X184222489Y-60971206D01*
X184274000Y-60960000D01*
X189230000Y-60960000D01*
X189230000Y-58300389D01*
X189249685Y-58233350D01*
X189253544Y-58227790D01*
X189253791Y-58227336D01*
X189253796Y-58227331D01*
X189304091Y-58092483D01*
X189310500Y-58032873D01*
X189310499Y-56237128D01*
X189304091Y-56177517D01*
X189253796Y-56042669D01*
X189253795Y-56042668D01*
X189249548Y-56034890D01*
X189251056Y-56034066D01*
X189230315Y-55978449D01*
X189230000Y-55969610D01*
X189230000Y-55089552D01*
X189234224Y-55057463D01*
X189295063Y-54830408D01*
X189315659Y-54595000D01*
X189295063Y-54359592D01*
X189234225Y-54132537D01*
X189230000Y-54100444D01*
X189230000Y-53340000D01*
X188871760Y-53340000D01*
X188804721Y-53320315D01*
X188758966Y-53267511D01*
X188749022Y-53198353D01*
X188778047Y-53134797D01*
X188800635Y-53114426D01*
X188831081Y-53093106D01*
X188998105Y-52926082D01*
X189133600Y-52732578D01*
X189233429Y-52518492D01*
X189233432Y-52518486D01*
X189290636Y-52305000D01*
X188393012Y-52305000D01*
X188425925Y-52247993D01*
X188460000Y-52120826D01*
X188460000Y-51989174D01*
X188425925Y-51862007D01*
X188393012Y-51805000D01*
X189290636Y-51805000D01*
X189290635Y-51804999D01*
X189233432Y-51591513D01*
X189233429Y-51591507D01*
X189133600Y-51377422D01*
X189133599Y-51377420D01*
X188998113Y-51183926D01*
X188998108Y-51183920D01*
X188831082Y-51016894D01*
X188637578Y-50881399D01*
X188423492Y-50781570D01*
X188423486Y-50781567D01*
X188210000Y-50724364D01*
X188210000Y-51621988D01*
X188152993Y-51589075D01*
X188025826Y-51555000D01*
X187894174Y-51555000D01*
X187767007Y-51589075D01*
X187710000Y-51621988D01*
X187710000Y-50724364D01*
X187709999Y-50724364D01*
X187496513Y-50781567D01*
X187496507Y-50781570D01*
X187282422Y-50881399D01*
X187282420Y-50881400D01*
X187088926Y-51016886D01*
X187088920Y-51016891D01*
X186921891Y-51183920D01*
X186921886Y-51183926D01*
X186786400Y-51377420D01*
X186786399Y-51377422D01*
X186686570Y-51591507D01*
X186686567Y-51591513D01*
X186629364Y-51804999D01*
X186629364Y-51805000D01*
X187526988Y-51805000D01*
X187494075Y-51862007D01*
X187460000Y-51989174D01*
X187460000Y-52120826D01*
X187494075Y-52247993D01*
X187526988Y-52305000D01*
X186629364Y-52305000D01*
X186686567Y-52518486D01*
X186686570Y-52518492D01*
X186786399Y-52732578D01*
X186921894Y-52926082D01*
X187088918Y-53093106D01*
X187119365Y-53114426D01*
X187162989Y-53169003D01*
X187170181Y-53238502D01*
X187138658Y-53300856D01*
X187078428Y-53336269D01*
X187048240Y-53340000D01*
X181251760Y-53340000D01*
X181184721Y-53320315D01*
X181138966Y-53267511D01*
X181129022Y-53198353D01*
X181158047Y-53134797D01*
X181180635Y-53114426D01*
X181211081Y-53093106D01*
X181378105Y-52926082D01*
X181513600Y-52732578D01*
X181613429Y-52518492D01*
X181613432Y-52518486D01*
X181670636Y-52305000D01*
X180773012Y-52305000D01*
X180805925Y-52247993D01*
X180840000Y-52120826D01*
X180840000Y-51989174D01*
X180805925Y-51862007D01*
X180773012Y-51805000D01*
X181670636Y-51805000D01*
X181670635Y-51804999D01*
X181613432Y-51591513D01*
X181613429Y-51591507D01*
X181513600Y-51377422D01*
X181513599Y-51377420D01*
X181378113Y-51183926D01*
X181378108Y-51183920D01*
X181211082Y-51016894D01*
X181017578Y-50881399D01*
X180803492Y-50781570D01*
X180803486Y-50781567D01*
X180590000Y-50724364D01*
X180590000Y-51621988D01*
X180532993Y-51589075D01*
X180405826Y-51555000D01*
X180274174Y-51555000D01*
X180147007Y-51589075D01*
X180090000Y-51621988D01*
X180090000Y-50724364D01*
X180089999Y-50724364D01*
X179876513Y-50781567D01*
X179876507Y-50781570D01*
X179662422Y-50881399D01*
X179662420Y-50881400D01*
X179468926Y-51016886D01*
X179468920Y-51016891D01*
X179301891Y-51183920D01*
X179301886Y-51183926D01*
X179166400Y-51377420D01*
X179166399Y-51377422D01*
X179066570Y-51591507D01*
X179066567Y-51591513D01*
X179009364Y-51804999D01*
X179009364Y-51805000D01*
X179906988Y-51805000D01*
X179874075Y-51862007D01*
X179840000Y-51989174D01*
X179840000Y-52120826D01*
X179874075Y-52247993D01*
X179906988Y-52305000D01*
X179009364Y-52305000D01*
X179066567Y-52518486D01*
X179066570Y-52518492D01*
X179166399Y-52732578D01*
X179301894Y-52926082D01*
X179468918Y-53093106D01*
X179499365Y-53114426D01*
X179542989Y-53169003D01*
X179550181Y-53238502D01*
X179518658Y-53300856D01*
X179458428Y-53336269D01*
X179428240Y-53340000D01*
X177154500Y-53340000D01*
X177087461Y-53320315D01*
X177041706Y-53267511D01*
X177030500Y-53216000D01*
X177030500Y-50806092D01*
X177031097Y-50793938D01*
X177032315Y-50781570D01*
X177044089Y-50662024D01*
X177048828Y-50638200D01*
X177085532Y-50517202D01*
X177094830Y-50494757D01*
X177154427Y-50383259D01*
X177167930Y-50363050D01*
X177248137Y-50265316D01*
X177265316Y-50248137D01*
X177363052Y-50167928D01*
X177383261Y-50154426D01*
X177494757Y-50094830D01*
X177517202Y-50085532D01*
X177638200Y-50048828D01*
X177662024Y-50044089D01*
X177793939Y-50031097D01*
X177806093Y-50030500D01*
X177865892Y-50030500D01*
X190434108Y-50030500D01*
X190493907Y-50030500D01*
X190506061Y-50031097D01*
G37*
%TD.AperFunction*%
%TD*%
M02*
