%TF.GenerationSoftware,KiCad,Pcbnew,8.0.4*%
%TF.CreationDate,2024-11-07T15:33:02-05:00*%
%TF.ProjectId,BarrelJackAdapter,42617272-656c-44a6-9163-6b4164617074,rev?*%
%TF.SameCoordinates,Original*%
%TF.FileFunction,Legend,Top*%
%TF.FilePolarity,Positive*%
%FSLAX46Y46*%
G04 Gerber Fmt 4.6, Leading zero omitted, Abs format (unit mm)*
G04 Created by KiCad (PCBNEW 8.0.4) date 2024-11-07 15:33:02*
%MOMM*%
%LPD*%
G01*
G04 APERTURE LIST*
%ADD10C,0.150000*%
%ADD11C,0.120000*%
G04 APERTURE END LIST*
D10*
X189354819Y-78983333D02*
X190069104Y-78983333D01*
X190069104Y-78983333D02*
X190211961Y-79030952D01*
X190211961Y-79030952D02*
X190307200Y-79126190D01*
X190307200Y-79126190D02*
X190354819Y-79269047D01*
X190354819Y-79269047D02*
X190354819Y-79364285D01*
X190354819Y-77983333D02*
X190354819Y-78554761D01*
X190354819Y-78269047D02*
X189354819Y-78269047D01*
X189354819Y-78269047D02*
X189497676Y-78364285D01*
X189497676Y-78364285D02*
X189592914Y-78459523D01*
X189592914Y-78459523D02*
X189640533Y-78554761D01*
X189063333Y-67619580D02*
X189015714Y-67667200D01*
X189015714Y-67667200D02*
X188872857Y-67714819D01*
X188872857Y-67714819D02*
X188777619Y-67714819D01*
X188777619Y-67714819D02*
X188634762Y-67667200D01*
X188634762Y-67667200D02*
X188539524Y-67571961D01*
X188539524Y-67571961D02*
X188491905Y-67476723D01*
X188491905Y-67476723D02*
X188444286Y-67286247D01*
X188444286Y-67286247D02*
X188444286Y-67143390D01*
X188444286Y-67143390D02*
X188491905Y-66952914D01*
X188491905Y-66952914D02*
X188539524Y-66857676D01*
X188539524Y-66857676D02*
X188634762Y-66762438D01*
X188634762Y-66762438D02*
X188777619Y-66714819D01*
X188777619Y-66714819D02*
X188872857Y-66714819D01*
X188872857Y-66714819D02*
X189015714Y-66762438D01*
X189015714Y-66762438D02*
X189063333Y-66810057D01*
X189444286Y-66810057D02*
X189491905Y-66762438D01*
X189491905Y-66762438D02*
X189587143Y-66714819D01*
X189587143Y-66714819D02*
X189825238Y-66714819D01*
X189825238Y-66714819D02*
X189920476Y-66762438D01*
X189920476Y-66762438D02*
X189968095Y-66810057D01*
X189968095Y-66810057D02*
X190015714Y-66905295D01*
X190015714Y-66905295D02*
X190015714Y-67000533D01*
X190015714Y-67000533D02*
X189968095Y-67143390D01*
X189968095Y-67143390D02*
X189396667Y-67714819D01*
X189396667Y-67714819D02*
X190015714Y-67714819D01*
X187626666Y-58919819D02*
X187626666Y-59634104D01*
X187626666Y-59634104D02*
X187579047Y-59776961D01*
X187579047Y-59776961D02*
X187483809Y-59872200D01*
X187483809Y-59872200D02*
X187340952Y-59919819D01*
X187340952Y-59919819D02*
X187245714Y-59919819D01*
X188531428Y-59253152D02*
X188531428Y-59919819D01*
X188293333Y-58872200D02*
X188055238Y-59586485D01*
X188055238Y-59586485D02*
X188674285Y-59586485D01*
X180006666Y-58919819D02*
X180006666Y-59634104D01*
X180006666Y-59634104D02*
X179959047Y-59776961D01*
X179959047Y-59776961D02*
X179863809Y-59872200D01*
X179863809Y-59872200D02*
X179720952Y-59919819D01*
X179720952Y-59919819D02*
X179625714Y-59919819D01*
X180435238Y-59015057D02*
X180482857Y-58967438D01*
X180482857Y-58967438D02*
X180578095Y-58919819D01*
X180578095Y-58919819D02*
X180816190Y-58919819D01*
X180816190Y-58919819D02*
X180911428Y-58967438D01*
X180911428Y-58967438D02*
X180959047Y-59015057D01*
X180959047Y-59015057D02*
X181006666Y-59110295D01*
X181006666Y-59110295D02*
X181006666Y-59205533D01*
X181006666Y-59205533D02*
X180959047Y-59348390D01*
X180959047Y-59348390D02*
X180387619Y-59919819D01*
X180387619Y-59919819D02*
X181006666Y-59919819D01*
X183983333Y-67669580D02*
X183935714Y-67717200D01*
X183935714Y-67717200D02*
X183792857Y-67764819D01*
X183792857Y-67764819D02*
X183697619Y-67764819D01*
X183697619Y-67764819D02*
X183554762Y-67717200D01*
X183554762Y-67717200D02*
X183459524Y-67621961D01*
X183459524Y-67621961D02*
X183411905Y-67526723D01*
X183411905Y-67526723D02*
X183364286Y-67336247D01*
X183364286Y-67336247D02*
X183364286Y-67193390D01*
X183364286Y-67193390D02*
X183411905Y-67002914D01*
X183411905Y-67002914D02*
X183459524Y-66907676D01*
X183459524Y-66907676D02*
X183554762Y-66812438D01*
X183554762Y-66812438D02*
X183697619Y-66764819D01*
X183697619Y-66764819D02*
X183792857Y-66764819D01*
X183792857Y-66764819D02*
X183935714Y-66812438D01*
X183935714Y-66812438D02*
X183983333Y-66860057D01*
X184935714Y-67764819D02*
X184364286Y-67764819D01*
X184650000Y-67764819D02*
X184650000Y-66764819D01*
X184650000Y-66764819D02*
X184554762Y-66907676D01*
X184554762Y-66907676D02*
X184459524Y-67002914D01*
X184459524Y-67002914D02*
X184364286Y-67050533D01*
X183388095Y-59954819D02*
X183388095Y-60764342D01*
X183388095Y-60764342D02*
X183435714Y-60859580D01*
X183435714Y-60859580D02*
X183483333Y-60907200D01*
X183483333Y-60907200D02*
X183578571Y-60954819D01*
X183578571Y-60954819D02*
X183769047Y-60954819D01*
X183769047Y-60954819D02*
X183864285Y-60907200D01*
X183864285Y-60907200D02*
X183911904Y-60859580D01*
X183911904Y-60859580D02*
X183959523Y-60764342D01*
X183959523Y-60764342D02*
X183959523Y-59954819D01*
X184959523Y-60954819D02*
X184388095Y-60954819D01*
X184673809Y-60954819D02*
X184673809Y-59954819D01*
X184673809Y-59954819D02*
X184578571Y-60097676D01*
X184578571Y-60097676D02*
X184483333Y-60192914D01*
X184483333Y-60192914D02*
X184388095Y-60240533D01*
D11*
%TO.C,J1*%
X179310000Y-69160000D02*
X181050000Y-69160000D01*
X179310000Y-70900000D02*
X179310000Y-69160000D01*
X179550000Y-69400000D02*
X182350000Y-69400000D01*
X179550000Y-84000000D02*
X179550000Y-69400000D01*
X185950000Y-69400000D02*
X188750000Y-69400000D01*
X188750000Y-69400000D02*
X188750000Y-71400000D01*
X188750000Y-75000000D02*
X188750000Y-84000000D01*
X188750000Y-84000000D02*
X179550000Y-84000000D01*
%TO.C,J4*%
X186630000Y-55865000D02*
X186630000Y-50725000D01*
X189290000Y-50725000D02*
X186630000Y-50725000D01*
X189290000Y-55865000D02*
X186630000Y-55865000D01*
X189290000Y-55865000D02*
X189290000Y-50725000D01*
X189290000Y-57135000D02*
X189290000Y-58465000D01*
X189290000Y-58465000D02*
X187960000Y-58465000D01*
%TO.C,J2*%
X179010000Y-55865000D02*
X179010000Y-50725000D01*
X181670000Y-50725000D02*
X179010000Y-50725000D01*
X181670000Y-55865000D02*
X179010000Y-55865000D01*
X181670000Y-55865000D02*
X181670000Y-50725000D01*
X181670000Y-57135000D02*
X181670000Y-58465000D01*
X181670000Y-58465000D02*
X180340000Y-58465000D01*
%TO.C,U1*%
X179030000Y-61500000D02*
X179030000Y-66141000D01*
X179030000Y-61500000D02*
X189270000Y-61500000D01*
X179030000Y-63010000D02*
X189270000Y-63010000D01*
X179030000Y-66141000D02*
X189270000Y-66141000D01*
X182300000Y-61500000D02*
X182300000Y-63010000D01*
X186001000Y-61500000D02*
X186001000Y-63010000D01*
X189270000Y-61500000D02*
X189270000Y-66141000D01*
%TD*%
M02*
