%TF.GenerationSoftware,KiCad,Pcbnew,8.0.4*%
%TF.CreationDate,2024-11-15T14:19:49-05:00*%
%TF.ProjectId,BarrelJackAdapter,42617272-656c-44a6-9163-6b4164617074,rev?*%
%TF.SameCoordinates,Original*%
%TF.FileFunction,Copper,L3,Inr*%
%TF.FilePolarity,Positive*%
%FSLAX46Y46*%
G04 Gerber Fmt 4.6, Leading zero omitted, Abs format (unit mm)*
G04 Created by KiCad (PCBNEW 8.0.4) date 2024-11-15 14:19:49*
%MOMM*%
%LPD*%
G01*
G04 APERTURE LIST*
%TA.AperFunction,ComponentPad*%
%ADD10R,1.700000X1.700000*%
%TD*%
%TA.AperFunction,ComponentPad*%
%ADD11O,1.700000X1.700000*%
%TD*%
%TA.AperFunction,ComponentPad*%
%ADD12R,2.600000X2.600000*%
%TD*%
%TA.AperFunction,ComponentPad*%
%ADD13C,2.600000*%
%TD*%
%TA.AperFunction,ViaPad*%
%ADD14C,0.500000*%
%TD*%
G04 APERTURE END LIST*
D10*
%TO.N,unconnected-(J3-Pin_1-Pad1)*%
%TO.C,J3*%
X124460000Y-68580000D03*
D11*
%TO.N,+9V*%
X127000000Y-68580000D03*
%TO.N,+3.3V*%
X124460000Y-71120000D03*
%TO.N,/Vleft*%
X127000000Y-71120000D03*
%TO.N,unconnected-(J3-Pin_5-Pad5)*%
X124460000Y-73660000D03*
%TO.N,+5V*%
X127000000Y-73660000D03*
%TD*%
D10*
%TO.N,unconnected-(J5-Pin_1-Pad1)*%
%TO.C,J5*%
X154940000Y-68580000D03*
D11*
%TO.N,+9V*%
X157480000Y-68580000D03*
%TO.N,+3.3V*%
X154940000Y-71120000D03*
%TO.N,/Vright*%
X157480000Y-71120000D03*
%TO.N,unconnected-(J5-Pin_5-Pad5)*%
X154940000Y-73660000D03*
%TO.N,+5V*%
X157480000Y-73660000D03*
%TD*%
D12*
%TO.N,+9V*%
%TO.C,J1*%
X171600000Y-71870000D03*
D13*
%TO.N,GND*%
X177600000Y-71870000D03*
X174600000Y-67170000D03*
%TD*%
D10*
%TO.N,/Vright*%
%TO.C,J4*%
X162560000Y-73645000D03*
D11*
%TO.N,GND*%
X165100000Y-73645000D03*
%TO.N,/Vright*%
X162560000Y-71105000D03*
%TO.N,GND*%
X165100000Y-71105000D03*
%TO.N,/Vright*%
X162560000Y-68565000D03*
%TO.N,GND*%
X165100000Y-68565000D03*
%TD*%
D10*
%TO.N,/Vleft*%
%TO.C,J2*%
X116835000Y-73645000D03*
D11*
%TO.N,GND*%
X119375000Y-73645000D03*
%TO.N,/Vleft*%
X116835000Y-71105000D03*
%TO.N,GND*%
X119375000Y-71105000D03*
%TO.N,/Vleft*%
X116835000Y-68565000D03*
%TO.N,GND*%
X119375000Y-68565000D03*
%TD*%
D14*
%TO.N,GND*%
X104140000Y-68580000D03*
X143256000Y-70358000D03*
X145796000Y-70358000D03*
X147066000Y-74422000D03*
X148336000Y-72390000D03*
X148336000Y-70358000D03*
X147066000Y-71374000D03*
X132842000Y-71628000D03*
X144526000Y-69342000D03*
X145796000Y-72390000D03*
X145796000Y-74422000D03*
X144526000Y-68326000D03*
X145796000Y-69342000D03*
X144526000Y-70358000D03*
X105156000Y-68580000D03*
X149606000Y-72390000D03*
X148336000Y-68326000D03*
X113792000Y-69596000D03*
X148336000Y-73406000D03*
X149606000Y-71374000D03*
X149606000Y-74422000D03*
X147066000Y-69342000D03*
X149606000Y-70358000D03*
X147066000Y-68326000D03*
X145796000Y-68326000D03*
X144526000Y-74422000D03*
X143256000Y-68326000D03*
X148336000Y-71374000D03*
X143256000Y-73406000D03*
X145796000Y-67310000D03*
X148336000Y-69342000D03*
X143256000Y-74422000D03*
X143256000Y-69342000D03*
X149606000Y-67310000D03*
X143256000Y-67310000D03*
X143256000Y-71374000D03*
X149606000Y-73406000D03*
X145796000Y-73406000D03*
X145796000Y-71374000D03*
X147066000Y-73406000D03*
X144526000Y-67310000D03*
X149606000Y-69342000D03*
X144526000Y-73406000D03*
X147066000Y-67310000D03*
X144526000Y-71374000D03*
X147066000Y-72390000D03*
X149606000Y-68326000D03*
X143256000Y-72390000D03*
X132842000Y-69596000D03*
X148336000Y-74422000D03*
X148336000Y-67310000D03*
X144526000Y-72390000D03*
X147066000Y-70358000D03*
%TO.N,+5V*%
X132588000Y-73660000D03*
X134112000Y-73660000D03*
X130302000Y-71628000D03*
X105156000Y-73152000D03*
X133350000Y-73660000D03*
X104140000Y-73152000D03*
%TO.N,+3.3V*%
X113792000Y-71882000D03*
X111252000Y-70104000D03*
X111252000Y-71120000D03*
X111252000Y-72136000D03*
X110744000Y-71628000D03*
X110744000Y-70612000D03*
X110744000Y-69596000D03*
X104140000Y-70866000D03*
X105156000Y-70866000D03*
%TD*%
%TA.AperFunction,Conductor*%
%TO.N,GND*%
G36*
X150438039Y-66059685D02*
G01*
X150483794Y-66112489D01*
X150495000Y-66164000D01*
X150495000Y-76076000D01*
X150475315Y-76143039D01*
X150422511Y-76188794D01*
X150371000Y-76200000D01*
X142364000Y-76200000D01*
X142296961Y-76180315D01*
X142251206Y-76127511D01*
X142240000Y-76076000D01*
X142240000Y-66164000D01*
X142259685Y-66096961D01*
X142312489Y-66051206D01*
X142364000Y-66040000D01*
X150371000Y-66040000D01*
X150438039Y-66059685D01*
G37*
%TD.AperFunction*%
%TD*%
%TA.AperFunction,Conductor*%
%TO.N,+3.3V*%
G36*
X180344853Y-64845882D02*
G01*
X180374568Y-64848220D01*
X180517136Y-64859440D01*
X180536346Y-64862483D01*
X180699638Y-64901686D01*
X180718130Y-64907694D01*
X180841090Y-64958626D01*
X180873277Y-64971959D01*
X180890614Y-64980793D01*
X181033786Y-65068529D01*
X181049527Y-65079965D01*
X181177217Y-65189022D01*
X181190977Y-65202782D01*
X181300034Y-65330472D01*
X181311470Y-65346213D01*
X181399206Y-65489385D01*
X181408040Y-65506722D01*
X181472302Y-65661862D01*
X181478315Y-65680368D01*
X181517515Y-65843648D01*
X181520559Y-65862866D01*
X181534118Y-66035146D01*
X181534500Y-66044875D01*
X181534500Y-76195124D01*
X181534118Y-76204853D01*
X181520559Y-76377133D01*
X181517515Y-76396351D01*
X181478315Y-76559631D01*
X181472302Y-76578137D01*
X181408040Y-76733277D01*
X181399206Y-76750614D01*
X181311470Y-76893786D01*
X181300034Y-76909527D01*
X181190977Y-77037217D01*
X181177217Y-77050977D01*
X181049527Y-77160034D01*
X181033786Y-77171470D01*
X180890614Y-77259206D01*
X180873277Y-77268040D01*
X180718137Y-77332302D01*
X180699631Y-77338315D01*
X180536351Y-77377515D01*
X180517133Y-77380559D01*
X180344854Y-77394118D01*
X180335125Y-77394500D01*
X102874875Y-77394500D01*
X102865146Y-77394118D01*
X102692866Y-77380559D01*
X102673648Y-77377515D01*
X102510368Y-77338315D01*
X102491862Y-77332302D01*
X102336722Y-77268040D01*
X102319385Y-77259206D01*
X102176213Y-77171470D01*
X102160472Y-77160034D01*
X102032782Y-77050977D01*
X102019022Y-77037217D01*
X101909965Y-76909527D01*
X101898529Y-76893786D01*
X101810793Y-76750614D01*
X101801959Y-76733277D01*
X101781025Y-76682739D01*
X101737694Y-76578130D01*
X101731686Y-76559638D01*
X101692483Y-76396346D01*
X101689440Y-76377132D01*
X101686321Y-76337504D01*
X101676950Y-76218420D01*
X101675882Y-76204852D01*
X101675500Y-76195124D01*
X101675500Y-73151997D01*
X103384751Y-73151997D01*
X103384751Y-73152002D01*
X103403685Y-73320056D01*
X103459545Y-73479694D01*
X103459547Y-73479697D01*
X103549518Y-73622884D01*
X103549523Y-73622890D01*
X103669109Y-73742476D01*
X103669115Y-73742481D01*
X103812302Y-73832452D01*
X103812305Y-73832454D01*
X103812309Y-73832455D01*
X103812310Y-73832456D01*
X103884913Y-73857860D01*
X103971943Y-73888314D01*
X104139997Y-73907249D01*
X104140000Y-73907249D01*
X104140003Y-73907249D01*
X104308056Y-73888314D01*
X104330650Y-73880408D01*
X104467690Y-73832456D01*
X104582027Y-73760613D01*
X104649264Y-73741612D01*
X104713973Y-73760613D01*
X104821307Y-73828056D01*
X104828307Y-73832454D01*
X104828305Y-73832454D01*
X104828309Y-73832455D01*
X104828310Y-73832456D01*
X104900913Y-73857860D01*
X104987943Y-73888314D01*
X105155997Y-73907249D01*
X105156000Y-73907249D01*
X105156003Y-73907249D01*
X105324056Y-73888314D01*
X105346650Y-73880408D01*
X105483690Y-73832456D01*
X105483692Y-73832454D01*
X105483694Y-73832454D01*
X105483697Y-73832452D01*
X105626884Y-73742481D01*
X105626885Y-73742480D01*
X105626890Y-73742477D01*
X105746477Y-73622890D01*
X105752193Y-73613793D01*
X105836452Y-73479697D01*
X105836454Y-73479694D01*
X105836454Y-73479692D01*
X105836456Y-73479690D01*
X105892313Y-73320059D01*
X105892313Y-73320058D01*
X105892314Y-73320056D01*
X105911249Y-73152002D01*
X105911249Y-73151997D01*
X105892314Y-72983943D01*
X105836454Y-72824305D01*
X105836452Y-72824302D01*
X105746481Y-72681115D01*
X105746476Y-72681109D01*
X105626890Y-72561523D01*
X105626884Y-72561518D01*
X105483697Y-72471547D01*
X105483694Y-72471545D01*
X105324056Y-72415685D01*
X105156003Y-72396751D01*
X105155997Y-72396751D01*
X104987943Y-72415685D01*
X104828307Y-72471545D01*
X104713972Y-72543387D01*
X104646735Y-72562387D01*
X104582028Y-72543387D01*
X104467692Y-72471545D01*
X104467691Y-72471544D01*
X104467690Y-72471544D01*
X104429370Y-72458135D01*
X104308056Y-72415685D01*
X104140003Y-72396751D01*
X104139997Y-72396751D01*
X103971943Y-72415685D01*
X103812305Y-72471545D01*
X103812302Y-72471547D01*
X103669115Y-72561518D01*
X103669109Y-72561523D01*
X103549523Y-72681109D01*
X103549518Y-72681115D01*
X103459547Y-72824302D01*
X103459545Y-72824305D01*
X103403685Y-72983943D01*
X103384751Y-73151997D01*
X101675500Y-73151997D01*
X101675500Y-69595997D01*
X113036751Y-69595997D01*
X113036751Y-69596002D01*
X113055685Y-69764056D01*
X113111545Y-69923694D01*
X113111547Y-69923697D01*
X113201518Y-70066884D01*
X113201523Y-70066890D01*
X113321109Y-70186476D01*
X113321115Y-70186481D01*
X113464302Y-70276452D01*
X113464305Y-70276454D01*
X113464309Y-70276455D01*
X113464310Y-70276456D01*
X113536913Y-70301860D01*
X113623943Y-70332314D01*
X113791997Y-70351249D01*
X113792000Y-70351249D01*
X113792003Y-70351249D01*
X113960056Y-70332314D01*
X113973345Y-70327664D01*
X114119690Y-70276456D01*
X114119692Y-70276454D01*
X114119694Y-70276454D01*
X114119697Y-70276452D01*
X114262884Y-70186481D01*
X114262885Y-70186480D01*
X114262890Y-70186477D01*
X114382477Y-70066890D01*
X114382481Y-70066884D01*
X114472452Y-69923697D01*
X114472454Y-69923694D01*
X114472454Y-69923692D01*
X114472456Y-69923690D01*
X114528313Y-69764059D01*
X114528313Y-69764058D01*
X114528314Y-69764056D01*
X114547249Y-69596002D01*
X114547249Y-69595997D01*
X114528314Y-69427943D01*
X114472454Y-69268305D01*
X114472452Y-69268302D01*
X114382481Y-69125115D01*
X114382476Y-69125109D01*
X114262890Y-69005523D01*
X114262884Y-69005518D01*
X114119697Y-68915547D01*
X114119694Y-68915545D01*
X113960056Y-68859685D01*
X113792003Y-68840751D01*
X113791997Y-68840751D01*
X113623943Y-68859685D01*
X113464305Y-68915545D01*
X113464302Y-68915547D01*
X113321115Y-69005518D01*
X113321109Y-69005523D01*
X113201523Y-69125109D01*
X113201518Y-69125115D01*
X113111547Y-69268302D01*
X113111545Y-69268305D01*
X113055685Y-69427943D01*
X113036751Y-69595997D01*
X101675500Y-69595997D01*
X101675500Y-68579997D01*
X103384751Y-68579997D01*
X103384751Y-68580002D01*
X103403685Y-68748056D01*
X103459545Y-68907694D01*
X103459547Y-68907697D01*
X103549518Y-69050884D01*
X103549523Y-69050890D01*
X103669109Y-69170476D01*
X103669115Y-69170481D01*
X103812302Y-69260452D01*
X103812305Y-69260454D01*
X103812309Y-69260455D01*
X103812310Y-69260456D01*
X103834756Y-69268310D01*
X103971943Y-69316314D01*
X104139997Y-69335249D01*
X104140000Y-69335249D01*
X104140003Y-69335249D01*
X104308056Y-69316314D01*
X104308059Y-69316313D01*
X104467690Y-69260456D01*
X104582027Y-69188613D01*
X104649264Y-69169612D01*
X104713973Y-69188613D01*
X104813009Y-69250842D01*
X104828307Y-69260454D01*
X104828305Y-69260454D01*
X104828309Y-69260455D01*
X104828310Y-69260456D01*
X104850756Y-69268310D01*
X104987943Y-69316314D01*
X105155997Y-69335249D01*
X105156000Y-69335249D01*
X105156003Y-69335249D01*
X105324056Y-69316314D01*
X105324059Y-69316313D01*
X105483690Y-69260456D01*
X105483692Y-69260454D01*
X105483694Y-69260454D01*
X105483697Y-69260452D01*
X105626884Y-69170481D01*
X105626885Y-69170480D01*
X105626890Y-69170477D01*
X105746477Y-69050890D01*
X105746481Y-69050884D01*
X105836452Y-68907697D01*
X105836454Y-68907694D01*
X105836454Y-68907692D01*
X105836456Y-68907690D01*
X105892313Y-68748059D01*
X105892313Y-68748058D01*
X105892314Y-68748056D01*
X105911249Y-68580002D01*
X105911249Y-68579997D01*
X105909559Y-68564999D01*
X115479341Y-68564999D01*
X115479341Y-68565000D01*
X115499936Y-68800403D01*
X115499938Y-68800413D01*
X115561094Y-69028655D01*
X115561096Y-69028659D01*
X115561097Y-69028663D01*
X115626823Y-69169612D01*
X115660965Y-69242830D01*
X115660967Y-69242834D01*
X115769281Y-69397521D01*
X115796501Y-69436396D01*
X115796506Y-69436402D01*
X115963597Y-69603493D01*
X115963603Y-69603498D01*
X116149158Y-69733425D01*
X116192783Y-69788002D01*
X116199977Y-69857500D01*
X116168454Y-69919855D01*
X116149158Y-69936575D01*
X115963597Y-70066505D01*
X115796505Y-70233597D01*
X115660965Y-70427169D01*
X115660964Y-70427171D01*
X115561098Y-70641335D01*
X115561094Y-70641344D01*
X115499938Y-70869586D01*
X115499936Y-70869596D01*
X115479341Y-71104999D01*
X115479341Y-71105000D01*
X115499936Y-71340403D01*
X115499938Y-71340413D01*
X115561094Y-71568655D01*
X115561096Y-71568659D01*
X115561097Y-71568663D01*
X115641004Y-71740023D01*
X115660965Y-71782830D01*
X115660967Y-71782834D01*
X115722002Y-71870000D01*
X115796501Y-71976396D01*
X115796506Y-71976402D01*
X115918430Y-72098326D01*
X115951915Y-72159649D01*
X115946931Y-72229341D01*
X115905059Y-72285274D01*
X115874083Y-72302189D01*
X115742669Y-72351203D01*
X115742664Y-72351206D01*
X115627455Y-72437452D01*
X115627452Y-72437455D01*
X115541206Y-72552664D01*
X115541202Y-72552671D01*
X115490908Y-72687517D01*
X115484501Y-72747116D01*
X115484500Y-72747135D01*
X115484500Y-74542870D01*
X115484501Y-74542876D01*
X115490908Y-74602483D01*
X115541202Y-74737328D01*
X115541206Y-74737335D01*
X115627452Y-74852544D01*
X115627455Y-74852547D01*
X115742664Y-74938793D01*
X115742671Y-74938797D01*
X115877517Y-74989091D01*
X115877516Y-74989091D01*
X115884444Y-74989835D01*
X115937127Y-74995500D01*
X117732872Y-74995499D01*
X117792483Y-74989091D01*
X117927331Y-74938796D01*
X118042546Y-74852546D01*
X118128796Y-74737331D01*
X118177810Y-74605916D01*
X118219681Y-74549984D01*
X118285145Y-74525566D01*
X118353418Y-74540417D01*
X118381673Y-74561569D01*
X118503599Y-74683495D01*
X118600384Y-74751265D01*
X118697165Y-74819032D01*
X118697167Y-74819033D01*
X118697170Y-74819035D01*
X118911337Y-74918903D01*
X119139592Y-74980063D01*
X119316034Y-74995500D01*
X119374999Y-75000659D01*
X119375000Y-75000659D01*
X119375001Y-75000659D01*
X119433966Y-74995500D01*
X119610408Y-74980063D01*
X119838663Y-74918903D01*
X120052830Y-74819035D01*
X120246401Y-74683495D01*
X120413495Y-74516401D01*
X120549035Y-74322830D01*
X120648903Y-74108663D01*
X120710063Y-73880408D01*
X120729347Y-73659999D01*
X123104341Y-73659999D01*
X123104341Y-73660000D01*
X123124936Y-73895403D01*
X123124938Y-73895413D01*
X123186094Y-74123655D01*
X123186096Y-74123659D01*
X123186097Y-74123663D01*
X123263505Y-74289664D01*
X123285965Y-74337830D01*
X123285967Y-74337834D01*
X123340174Y-74415249D01*
X123421505Y-74531401D01*
X123588599Y-74698495D01*
X123685384Y-74766265D01*
X123782165Y-74834032D01*
X123782167Y-74834033D01*
X123782170Y-74834035D01*
X123996337Y-74933903D01*
X124224592Y-74995063D01*
X124412918Y-75011539D01*
X124459999Y-75015659D01*
X124460000Y-75015659D01*
X124460001Y-75015659D01*
X124499234Y-75012226D01*
X124695408Y-74995063D01*
X124923663Y-74933903D01*
X125137830Y-74834035D01*
X125331401Y-74698495D01*
X125498495Y-74531401D01*
X125628425Y-74345842D01*
X125683002Y-74302217D01*
X125752500Y-74295023D01*
X125814855Y-74326546D01*
X125831575Y-74345842D01*
X125961500Y-74531395D01*
X125961505Y-74531401D01*
X126128599Y-74698495D01*
X126225384Y-74766265D01*
X126322165Y-74834032D01*
X126322167Y-74834033D01*
X126322170Y-74834035D01*
X126536337Y-74933903D01*
X126764592Y-74995063D01*
X126952918Y-75011539D01*
X126999999Y-75015659D01*
X127000000Y-75015659D01*
X127000001Y-75015659D01*
X127039234Y-75012226D01*
X127235408Y-74995063D01*
X127463663Y-74933903D01*
X127677830Y-74834035D01*
X127871401Y-74698495D01*
X128038495Y-74531401D01*
X128174035Y-74337830D01*
X128273903Y-74123663D01*
X128335063Y-73895408D01*
X128355659Y-73660000D01*
X128355659Y-73659997D01*
X131832751Y-73659997D01*
X131832751Y-73660002D01*
X131851685Y-73828056D01*
X131907545Y-73987694D01*
X131907547Y-73987697D01*
X131997518Y-74130884D01*
X131997523Y-74130890D01*
X132117109Y-74250476D01*
X132117115Y-74250481D01*
X132260302Y-74340452D01*
X132260305Y-74340454D01*
X132260309Y-74340455D01*
X132260310Y-74340456D01*
X132332913Y-74365860D01*
X132419943Y-74396314D01*
X132587997Y-74415249D01*
X132588000Y-74415249D01*
X132588003Y-74415249D01*
X132756059Y-74396313D01*
X132756061Y-74396313D01*
X132922263Y-74338156D01*
X132922717Y-74339455D01*
X132984130Y-74329339D01*
X133015589Y-74338576D01*
X133015737Y-74338156D01*
X133181939Y-74396313D01*
X133349997Y-74415249D01*
X133350000Y-74415249D01*
X133350003Y-74415249D01*
X133518059Y-74396313D01*
X133518061Y-74396313D01*
X133684263Y-74338156D01*
X133684717Y-74339455D01*
X133746130Y-74329339D01*
X133777589Y-74338576D01*
X133777737Y-74338156D01*
X133943939Y-74396313D01*
X134111997Y-74415249D01*
X134112000Y-74415249D01*
X134112003Y-74415249D01*
X134280056Y-74396314D01*
X134280059Y-74396313D01*
X134439690Y-74340456D01*
X134439692Y-74340454D01*
X134439694Y-74340454D01*
X134439697Y-74340452D01*
X134582884Y-74250481D01*
X134582885Y-74250480D01*
X134582890Y-74250477D01*
X134702477Y-74130890D01*
X134702481Y-74130884D01*
X134792452Y-73987697D01*
X134792454Y-73987694D01*
X134792454Y-73987692D01*
X134792456Y-73987690D01*
X134848313Y-73828059D01*
X134848313Y-73828058D01*
X134848314Y-73828056D01*
X134867249Y-73660002D01*
X134867249Y-73659997D01*
X134848314Y-73491943D01*
X134792454Y-73332305D01*
X134792452Y-73332302D01*
X134702481Y-73189115D01*
X134702476Y-73189109D01*
X134582890Y-73069523D01*
X134582884Y-73069518D01*
X134439697Y-72979547D01*
X134439694Y-72979545D01*
X134280056Y-72923685D01*
X134112003Y-72904751D01*
X134111997Y-72904751D01*
X133943943Y-72923685D01*
X133819676Y-72967169D01*
X133784310Y-72979544D01*
X133784308Y-72979544D01*
X133777738Y-72981844D01*
X133777284Y-72980547D01*
X133715844Y-72990656D01*
X133684408Y-72981425D01*
X133684262Y-72981844D01*
X133677691Y-72979544D01*
X133677690Y-72979544D01*
X133637664Y-72965538D01*
X133518056Y-72923685D01*
X133350003Y-72904751D01*
X133349997Y-72904751D01*
X133181943Y-72923685D01*
X133057676Y-72967169D01*
X133022310Y-72979544D01*
X133022308Y-72979544D01*
X133015738Y-72981844D01*
X133015284Y-72980547D01*
X132953844Y-72990656D01*
X132922408Y-72981425D01*
X132922262Y-72981844D01*
X132915691Y-72979544D01*
X132915690Y-72979544D01*
X132875664Y-72965538D01*
X132756056Y-72923685D01*
X132588003Y-72904751D01*
X132587997Y-72904751D01*
X132419943Y-72923685D01*
X132260305Y-72979545D01*
X132260302Y-72979547D01*
X132117115Y-73069518D01*
X132117109Y-73069523D01*
X131997523Y-73189109D01*
X131997518Y-73189115D01*
X131907547Y-73332302D01*
X131907545Y-73332305D01*
X131851685Y-73491943D01*
X131832751Y-73659997D01*
X128355659Y-73659997D01*
X128335063Y-73424592D01*
X128279674Y-73217876D01*
X128273905Y-73196344D01*
X128273904Y-73196343D01*
X128273903Y-73196337D01*
X128174035Y-72982171D01*
X128172197Y-72979545D01*
X128038494Y-72788597D01*
X127871402Y-72621506D01*
X127871396Y-72621501D01*
X127685842Y-72491575D01*
X127642217Y-72436998D01*
X127635023Y-72367500D01*
X127666546Y-72305145D01*
X127685842Y-72288425D01*
X127725983Y-72260318D01*
X127871401Y-72158495D01*
X128038495Y-71991401D01*
X128174035Y-71797830D01*
X128253230Y-71627997D01*
X129546751Y-71627997D01*
X129546751Y-71628002D01*
X129565685Y-71796056D01*
X129621545Y-71955694D01*
X129621547Y-71955697D01*
X129711518Y-72098884D01*
X129711523Y-72098890D01*
X129831109Y-72218476D01*
X129831115Y-72218481D01*
X129974302Y-72308452D01*
X129974305Y-72308454D01*
X129974309Y-72308455D01*
X129974310Y-72308456D01*
X130021410Y-72324937D01*
X130133943Y-72364314D01*
X130301997Y-72383249D01*
X130302000Y-72383249D01*
X130302003Y-72383249D01*
X130470056Y-72364314D01*
X130470059Y-72364313D01*
X130629690Y-72308456D01*
X130629692Y-72308454D01*
X130629694Y-72308454D01*
X130629697Y-72308452D01*
X130772884Y-72218481D01*
X130772885Y-72218480D01*
X130772890Y-72218477D01*
X130892477Y-72098890D01*
X130892481Y-72098884D01*
X130982452Y-71955697D01*
X130982454Y-71955694D01*
X130982454Y-71955692D01*
X130982456Y-71955690D01*
X131038313Y-71796059D01*
X131038313Y-71796058D01*
X131038314Y-71796056D01*
X131057249Y-71628002D01*
X131057249Y-71627997D01*
X132086751Y-71627997D01*
X132086751Y-71628002D01*
X132105685Y-71796056D01*
X132161545Y-71955694D01*
X132161547Y-71955697D01*
X132251518Y-72098884D01*
X132251523Y-72098890D01*
X132371109Y-72218476D01*
X132371115Y-72218481D01*
X132514302Y-72308452D01*
X132514305Y-72308454D01*
X132514309Y-72308455D01*
X132514310Y-72308456D01*
X132561410Y-72324937D01*
X132673943Y-72364314D01*
X132841997Y-72383249D01*
X132842000Y-72383249D01*
X132842003Y-72383249D01*
X133010056Y-72364314D01*
X133010059Y-72364313D01*
X133169690Y-72308456D01*
X133169692Y-72308454D01*
X133169694Y-72308454D01*
X133169697Y-72308452D01*
X133312884Y-72218481D01*
X133312885Y-72218480D01*
X133312890Y-72218477D01*
X133432477Y-72098890D01*
X133432481Y-72098884D01*
X133522452Y-71955697D01*
X133522454Y-71955694D01*
X133522454Y-71955692D01*
X133522456Y-71955690D01*
X133578313Y-71796059D01*
X133578313Y-71796058D01*
X133578314Y-71796056D01*
X133597249Y-71628002D01*
X133597249Y-71627997D01*
X133578314Y-71459943D01*
X133541737Y-71355413D01*
X133522456Y-71300310D01*
X133522455Y-71300309D01*
X133522454Y-71300305D01*
X133522452Y-71300302D01*
X133432481Y-71157115D01*
X133432476Y-71157109D01*
X133312890Y-71037523D01*
X133312884Y-71037518D01*
X133169697Y-70947547D01*
X133169694Y-70947545D01*
X133010056Y-70891685D01*
X132842003Y-70872751D01*
X132841997Y-70872751D01*
X132673943Y-70891685D01*
X132514305Y-70947545D01*
X132514302Y-70947547D01*
X132371115Y-71037518D01*
X132371109Y-71037523D01*
X132251523Y-71157109D01*
X132251518Y-71157115D01*
X132161547Y-71300302D01*
X132161545Y-71300305D01*
X132105685Y-71459943D01*
X132086751Y-71627997D01*
X131057249Y-71627997D01*
X131038314Y-71459943D01*
X131001737Y-71355413D01*
X130982456Y-71300310D01*
X130982455Y-71300309D01*
X130982454Y-71300305D01*
X130982452Y-71300302D01*
X130892481Y-71157115D01*
X130892476Y-71157109D01*
X130772890Y-71037523D01*
X130772884Y-71037518D01*
X130629697Y-70947547D01*
X130629694Y-70947545D01*
X130470056Y-70891685D01*
X130302003Y-70872751D01*
X130301997Y-70872751D01*
X130133943Y-70891685D01*
X129974305Y-70947545D01*
X129974302Y-70947547D01*
X129831115Y-71037518D01*
X129831109Y-71037523D01*
X129711523Y-71157109D01*
X129711518Y-71157115D01*
X129621547Y-71300302D01*
X129621545Y-71300305D01*
X129565685Y-71459943D01*
X129546751Y-71627997D01*
X128253230Y-71627997D01*
X128273903Y-71583663D01*
X128335063Y-71355408D01*
X128355659Y-71120000D01*
X128335063Y-70884592D01*
X128273903Y-70656337D01*
X128174035Y-70442171D01*
X128171433Y-70438454D01*
X128038494Y-70248597D01*
X127871402Y-70081506D01*
X127871396Y-70081501D01*
X127685842Y-69951575D01*
X127642217Y-69896998D01*
X127635023Y-69827500D01*
X127666546Y-69765145D01*
X127685842Y-69748425D01*
X127708026Y-69732891D01*
X127871401Y-69618495D01*
X127893899Y-69595997D01*
X132086751Y-69595997D01*
X132086751Y-69596002D01*
X132105685Y-69764056D01*
X132161545Y-69923694D01*
X132161547Y-69923697D01*
X132251518Y-70066884D01*
X132251523Y-70066890D01*
X132371109Y-70186476D01*
X132371115Y-70186481D01*
X132514302Y-70276452D01*
X132514305Y-70276454D01*
X132514309Y-70276455D01*
X132514310Y-70276456D01*
X132586913Y-70301860D01*
X132673943Y-70332314D01*
X132841997Y-70351249D01*
X132842000Y-70351249D01*
X132842003Y-70351249D01*
X133010056Y-70332314D01*
X133023345Y-70327664D01*
X133169690Y-70276456D01*
X133169692Y-70276454D01*
X133169694Y-70276454D01*
X133169697Y-70276452D01*
X133312884Y-70186481D01*
X133312885Y-70186480D01*
X133312890Y-70186477D01*
X133432477Y-70066890D01*
X133432481Y-70066884D01*
X133522452Y-69923697D01*
X133522454Y-69923694D01*
X133522454Y-69923692D01*
X133522456Y-69923690D01*
X133578313Y-69764059D01*
X133578313Y-69764058D01*
X133578314Y-69764056D01*
X133597249Y-69596002D01*
X133597249Y-69595997D01*
X133578314Y-69427943D01*
X133522454Y-69268305D01*
X133522452Y-69268302D01*
X133432481Y-69125115D01*
X133432476Y-69125109D01*
X133312890Y-69005523D01*
X133312884Y-69005518D01*
X133169697Y-68915547D01*
X133169694Y-68915545D01*
X133010056Y-68859685D01*
X132842003Y-68840751D01*
X132841997Y-68840751D01*
X132673943Y-68859685D01*
X132514305Y-68915545D01*
X132514302Y-68915547D01*
X132371115Y-69005518D01*
X132371109Y-69005523D01*
X132251523Y-69125109D01*
X132251518Y-69125115D01*
X132161547Y-69268302D01*
X132161545Y-69268305D01*
X132105685Y-69427943D01*
X132086751Y-69595997D01*
X127893899Y-69595997D01*
X128038495Y-69451401D01*
X128174035Y-69257830D01*
X128273903Y-69043663D01*
X128335063Y-68815408D01*
X128355659Y-68580000D01*
X128335063Y-68344592D01*
X128273903Y-68116337D01*
X128174035Y-67902171D01*
X128172197Y-67899545D01*
X128038494Y-67708597D01*
X127871402Y-67541506D01*
X127871395Y-67541501D01*
X127677834Y-67405967D01*
X127677830Y-67405965D01*
X127645660Y-67390964D01*
X127463663Y-67306097D01*
X127463659Y-67306096D01*
X127463655Y-67306094D01*
X127235413Y-67244938D01*
X127235403Y-67244936D01*
X127000001Y-67224341D01*
X126999999Y-67224341D01*
X126764596Y-67244936D01*
X126764586Y-67244938D01*
X126536344Y-67306094D01*
X126536335Y-67306098D01*
X126322171Y-67405964D01*
X126322169Y-67405965D01*
X126128600Y-67541503D01*
X126006673Y-67663430D01*
X125945350Y-67696914D01*
X125875658Y-67691930D01*
X125819725Y-67650058D01*
X125802810Y-67619081D01*
X125753797Y-67487671D01*
X125753793Y-67487664D01*
X125667547Y-67372455D01*
X125667544Y-67372452D01*
X125552335Y-67286206D01*
X125552328Y-67286202D01*
X125417482Y-67235908D01*
X125417483Y-67235908D01*
X125357883Y-67229501D01*
X125357881Y-67229500D01*
X125357873Y-67229500D01*
X125357864Y-67229500D01*
X123562129Y-67229500D01*
X123562123Y-67229501D01*
X123502516Y-67235908D01*
X123367671Y-67286202D01*
X123367664Y-67286206D01*
X123252455Y-67372452D01*
X123252452Y-67372455D01*
X123166206Y-67487664D01*
X123166202Y-67487671D01*
X123115908Y-67622517D01*
X123109501Y-67682116D01*
X123109500Y-67682135D01*
X123109500Y-69477870D01*
X123109501Y-69477876D01*
X123115908Y-69537483D01*
X123166202Y-69672328D01*
X123166206Y-69672335D01*
X123252452Y-69787544D01*
X123252455Y-69787547D01*
X123367664Y-69873793D01*
X123367671Y-69873797D01*
X123429877Y-69896998D01*
X123499598Y-69923002D01*
X123555531Y-69964873D01*
X123579949Y-70030337D01*
X123565098Y-70098610D01*
X123543947Y-70126865D01*
X123421886Y-70248926D01*
X123286400Y-70442420D01*
X123286399Y-70442422D01*
X123186570Y-70656507D01*
X123186567Y-70656513D01*
X123129364Y-70869999D01*
X123129364Y-70870000D01*
X124026988Y-70870000D01*
X123994075Y-70927007D01*
X123960000Y-71054174D01*
X123960000Y-71185826D01*
X123994075Y-71312993D01*
X124026988Y-71370000D01*
X123129364Y-71370000D01*
X123186567Y-71583486D01*
X123186570Y-71583492D01*
X123286399Y-71797578D01*
X123421894Y-71991082D01*
X123588917Y-72158105D01*
X123774595Y-72288119D01*
X123818219Y-72342696D01*
X123825412Y-72412195D01*
X123793890Y-72474549D01*
X123774595Y-72491269D01*
X123588594Y-72621508D01*
X123421505Y-72788597D01*
X123285965Y-72982169D01*
X123285964Y-72982171D01*
X123231913Y-73098085D01*
X123189468Y-73189109D01*
X123186098Y-73196335D01*
X123186094Y-73196344D01*
X123124938Y-73424586D01*
X123124936Y-73424596D01*
X123104341Y-73659999D01*
X120729347Y-73659999D01*
X120730659Y-73645000D01*
X120710063Y-73409592D01*
X120658695Y-73217883D01*
X120648905Y-73181344D01*
X120648904Y-73181343D01*
X120648903Y-73181337D01*
X120549035Y-72967171D01*
X120518588Y-72923687D01*
X120413494Y-72773597D01*
X120246402Y-72606506D01*
X120246396Y-72606501D01*
X120060842Y-72476575D01*
X120017217Y-72421998D01*
X120010023Y-72352500D01*
X120041546Y-72290145D01*
X120060842Y-72273425D01*
X120139310Y-72218481D01*
X120246401Y-72143495D01*
X120413495Y-71976401D01*
X120549035Y-71782830D01*
X120648903Y-71568663D01*
X120710063Y-71340408D01*
X120730659Y-71105000D01*
X120710063Y-70869592D01*
X120648903Y-70641337D01*
X120549035Y-70427171D01*
X120543425Y-70419158D01*
X120413494Y-70233597D01*
X120246402Y-70066506D01*
X120246396Y-70066501D01*
X120060842Y-69936575D01*
X120017217Y-69881998D01*
X120010023Y-69812500D01*
X120041546Y-69750145D01*
X120060842Y-69733425D01*
X120148097Y-69672328D01*
X120246401Y-69603495D01*
X120413495Y-69436401D01*
X120549035Y-69242830D01*
X120648903Y-69028663D01*
X120710063Y-68800408D01*
X120730659Y-68565000D01*
X120710063Y-68329592D01*
X120650986Y-68109110D01*
X120648905Y-68101344D01*
X120648904Y-68101343D01*
X120648903Y-68101337D01*
X120549035Y-67887171D01*
X120543425Y-67879158D01*
X120413494Y-67693597D01*
X120246402Y-67526506D01*
X120246395Y-67526501D01*
X120052834Y-67390967D01*
X120052830Y-67390965D01*
X120013129Y-67372452D01*
X119838663Y-67291097D01*
X119838659Y-67291096D01*
X119838655Y-67291094D01*
X119610413Y-67229938D01*
X119610403Y-67229936D01*
X119375001Y-67209341D01*
X119374999Y-67209341D01*
X119139596Y-67229936D01*
X119139586Y-67229938D01*
X118911344Y-67291094D01*
X118911335Y-67291098D01*
X118697171Y-67390964D01*
X118697169Y-67390965D01*
X118503597Y-67526505D01*
X118336505Y-67693597D01*
X118206575Y-67879158D01*
X118151998Y-67922783D01*
X118082500Y-67929977D01*
X118020145Y-67898454D01*
X118003425Y-67879158D01*
X117873494Y-67693597D01*
X117706402Y-67526506D01*
X117706395Y-67526501D01*
X117512834Y-67390967D01*
X117512830Y-67390965D01*
X117473129Y-67372452D01*
X117298663Y-67291097D01*
X117298659Y-67291096D01*
X117298655Y-67291094D01*
X117070413Y-67229938D01*
X117070403Y-67229936D01*
X116835001Y-67209341D01*
X116834999Y-67209341D01*
X116599596Y-67229936D01*
X116599586Y-67229938D01*
X116371344Y-67291094D01*
X116371335Y-67291098D01*
X116157171Y-67390964D01*
X116157169Y-67390965D01*
X115963597Y-67526505D01*
X115796505Y-67693597D01*
X115660965Y-67887169D01*
X115660964Y-67887171D01*
X115561098Y-68101335D01*
X115561094Y-68101344D01*
X115499938Y-68329586D01*
X115499936Y-68329596D01*
X115479341Y-68564999D01*
X105909559Y-68564999D01*
X105892314Y-68411943D01*
X105836454Y-68252305D01*
X105836452Y-68252302D01*
X105746481Y-68109115D01*
X105746476Y-68109109D01*
X105626890Y-67989523D01*
X105626884Y-67989518D01*
X105483697Y-67899547D01*
X105483694Y-67899545D01*
X105324056Y-67843685D01*
X105156003Y-67824751D01*
X105155997Y-67824751D01*
X104987943Y-67843685D01*
X104828307Y-67899545D01*
X104713972Y-67971387D01*
X104646735Y-67990387D01*
X104582028Y-67971387D01*
X104467692Y-67899545D01*
X104467691Y-67899544D01*
X104467690Y-67899544D01*
X104409430Y-67879158D01*
X104308056Y-67843685D01*
X104140003Y-67824751D01*
X104139997Y-67824751D01*
X103971943Y-67843685D01*
X103812305Y-67899545D01*
X103812302Y-67899547D01*
X103669115Y-67989518D01*
X103669109Y-67989523D01*
X103549523Y-68109109D01*
X103549518Y-68109115D01*
X103459547Y-68252302D01*
X103459545Y-68252305D01*
X103403685Y-68411943D01*
X103384751Y-68579997D01*
X101675500Y-68579997D01*
X101675500Y-66164000D01*
X141734500Y-66164000D01*
X141734500Y-76076000D01*
X141734501Y-76076009D01*
X141746052Y-76183450D01*
X141746054Y-76183462D01*
X141757260Y-76234972D01*
X141791383Y-76337497D01*
X141791386Y-76337503D01*
X141869171Y-76458537D01*
X141869179Y-76458548D01*
X141914923Y-76511340D01*
X141914926Y-76511343D01*
X141914930Y-76511347D01*
X142023664Y-76605567D01*
X142023667Y-76605568D01*
X142023668Y-76605569D01*
X142117925Y-76648616D01*
X142154541Y-76665338D01*
X142221580Y-76685023D01*
X142221584Y-76685024D01*
X142364000Y-76705500D01*
X142364003Y-76705500D01*
X150370990Y-76705500D01*
X150371000Y-76705500D01*
X150478456Y-76693947D01*
X150529967Y-76682741D01*
X150564197Y-76671347D01*
X150632497Y-76648616D01*
X150632501Y-76648613D01*
X150632504Y-76648613D01*
X150753543Y-76570825D01*
X150806347Y-76525070D01*
X150900567Y-76416336D01*
X150960338Y-76285459D01*
X150980023Y-76218420D01*
X150980024Y-76218416D01*
X151000500Y-76076000D01*
X151000500Y-73659999D01*
X153584341Y-73659999D01*
X153584341Y-73660000D01*
X153604936Y-73895403D01*
X153604938Y-73895413D01*
X153666094Y-74123655D01*
X153666096Y-74123659D01*
X153666097Y-74123663D01*
X153743505Y-74289664D01*
X153765965Y-74337830D01*
X153765967Y-74337834D01*
X153820174Y-74415249D01*
X153901505Y-74531401D01*
X154068599Y-74698495D01*
X154165384Y-74766265D01*
X154262165Y-74834032D01*
X154262167Y-74834033D01*
X154262170Y-74834035D01*
X154476337Y-74933903D01*
X154704592Y-74995063D01*
X154892918Y-75011539D01*
X154939999Y-75015659D01*
X154940000Y-75015659D01*
X154940001Y-75015659D01*
X154979234Y-75012226D01*
X155175408Y-74995063D01*
X155403663Y-74933903D01*
X155617830Y-74834035D01*
X155811401Y-74698495D01*
X155978495Y-74531401D01*
X156108425Y-74345842D01*
X156163002Y-74302217D01*
X156232500Y-74295023D01*
X156294855Y-74326546D01*
X156311575Y-74345842D01*
X156441500Y-74531395D01*
X156441505Y-74531401D01*
X156608599Y-74698495D01*
X156705384Y-74766265D01*
X156802165Y-74834032D01*
X156802167Y-74834033D01*
X156802170Y-74834035D01*
X157016337Y-74933903D01*
X157244592Y-74995063D01*
X157432918Y-75011539D01*
X157479999Y-75015659D01*
X157480000Y-75015659D01*
X157480001Y-75015659D01*
X157519234Y-75012226D01*
X157715408Y-74995063D01*
X157943663Y-74933903D01*
X158157830Y-74834035D01*
X158351401Y-74698495D01*
X158518495Y-74531401D01*
X158654035Y-74337830D01*
X158753903Y-74123663D01*
X158815063Y-73895408D01*
X158835659Y-73660000D01*
X158815063Y-73424592D01*
X158759674Y-73217876D01*
X158753905Y-73196344D01*
X158753904Y-73196343D01*
X158753903Y-73196337D01*
X158654035Y-72982171D01*
X158652197Y-72979545D01*
X158518494Y-72788597D01*
X158351402Y-72621506D01*
X158351396Y-72621501D01*
X158165842Y-72491575D01*
X158122217Y-72436998D01*
X158115023Y-72367500D01*
X158146546Y-72305145D01*
X158165842Y-72288425D01*
X158205983Y-72260318D01*
X158351401Y-72158495D01*
X158518495Y-71991401D01*
X158654035Y-71797830D01*
X158753903Y-71583663D01*
X158815063Y-71355408D01*
X158835659Y-71120000D01*
X158815063Y-70884592D01*
X158753903Y-70656337D01*
X158654035Y-70442171D01*
X158651433Y-70438454D01*
X158518494Y-70248597D01*
X158351402Y-70081506D01*
X158351396Y-70081501D01*
X158165842Y-69951575D01*
X158122217Y-69896998D01*
X158115023Y-69827500D01*
X158146546Y-69765145D01*
X158165842Y-69748425D01*
X158188026Y-69732891D01*
X158351401Y-69618495D01*
X158518495Y-69451401D01*
X158654035Y-69257830D01*
X158753903Y-69043663D01*
X158815063Y-68815408D01*
X158835659Y-68580000D01*
X158834347Y-68564999D01*
X161204341Y-68564999D01*
X161204341Y-68565000D01*
X161224936Y-68800403D01*
X161224938Y-68800413D01*
X161286094Y-69028655D01*
X161286096Y-69028659D01*
X161286097Y-69028663D01*
X161351823Y-69169612D01*
X161385965Y-69242830D01*
X161385967Y-69242834D01*
X161494281Y-69397521D01*
X161521501Y-69436396D01*
X161521506Y-69436402D01*
X161688597Y-69603493D01*
X161688603Y-69603498D01*
X161874158Y-69733425D01*
X161917783Y-69788002D01*
X161924977Y-69857500D01*
X161893454Y-69919855D01*
X161874158Y-69936575D01*
X161688597Y-70066505D01*
X161521505Y-70233597D01*
X161385965Y-70427169D01*
X161385964Y-70427171D01*
X161286098Y-70641335D01*
X161286094Y-70641344D01*
X161224938Y-70869586D01*
X161224936Y-70869596D01*
X161204341Y-71104999D01*
X161204341Y-71105000D01*
X161224936Y-71340403D01*
X161224938Y-71340413D01*
X161286094Y-71568655D01*
X161286096Y-71568659D01*
X161286097Y-71568663D01*
X161366004Y-71740023D01*
X161385965Y-71782830D01*
X161385967Y-71782834D01*
X161447002Y-71870000D01*
X161521501Y-71976396D01*
X161521506Y-71976402D01*
X161643430Y-72098326D01*
X161676915Y-72159649D01*
X161671931Y-72229341D01*
X161630059Y-72285274D01*
X161599083Y-72302189D01*
X161467669Y-72351203D01*
X161467664Y-72351206D01*
X161352455Y-72437452D01*
X161352452Y-72437455D01*
X161266206Y-72552664D01*
X161266202Y-72552671D01*
X161215908Y-72687517D01*
X161209501Y-72747116D01*
X161209500Y-72747135D01*
X161209500Y-74542870D01*
X161209501Y-74542876D01*
X161215908Y-74602483D01*
X161266202Y-74737328D01*
X161266206Y-74737335D01*
X161352452Y-74852544D01*
X161352455Y-74852547D01*
X161467664Y-74938793D01*
X161467671Y-74938797D01*
X161602517Y-74989091D01*
X161602516Y-74989091D01*
X161609444Y-74989835D01*
X161662127Y-74995500D01*
X163457872Y-74995499D01*
X163517483Y-74989091D01*
X163652331Y-74938796D01*
X163767546Y-74852546D01*
X163853796Y-74737331D01*
X163902810Y-74605916D01*
X163944681Y-74549984D01*
X164010145Y-74525566D01*
X164078418Y-74540417D01*
X164106673Y-74561569D01*
X164228599Y-74683495D01*
X164325384Y-74751265D01*
X164422165Y-74819032D01*
X164422167Y-74819033D01*
X164422170Y-74819035D01*
X164636337Y-74918903D01*
X164864592Y-74980063D01*
X165041034Y-74995500D01*
X165099999Y-75000659D01*
X165100000Y-75000659D01*
X165100001Y-75000659D01*
X165158966Y-74995500D01*
X165335408Y-74980063D01*
X165563663Y-74918903D01*
X165777830Y-74819035D01*
X165971401Y-74683495D01*
X166138495Y-74516401D01*
X166274035Y-74322830D01*
X166373903Y-74108663D01*
X166435063Y-73880408D01*
X166455659Y-73645000D01*
X166435063Y-73409592D01*
X166383695Y-73217883D01*
X166373905Y-73181344D01*
X166373904Y-73181343D01*
X166373903Y-73181337D01*
X166274035Y-72967171D01*
X166243588Y-72923687D01*
X166138494Y-72773597D01*
X165971402Y-72606506D01*
X165971396Y-72606501D01*
X165785842Y-72476575D01*
X165742217Y-72421998D01*
X165735023Y-72352500D01*
X165766546Y-72290145D01*
X165785842Y-72273425D01*
X165864310Y-72218481D01*
X165971401Y-72143495D01*
X166138495Y-71976401D01*
X166274035Y-71782830D01*
X166373903Y-71568663D01*
X166435063Y-71340408D01*
X166455659Y-71105000D01*
X166435063Y-70869592D01*
X166373903Y-70641337D01*
X166318318Y-70522135D01*
X169799500Y-70522135D01*
X169799500Y-73217870D01*
X169799501Y-73217876D01*
X169805908Y-73277483D01*
X169856202Y-73412328D01*
X169856206Y-73412335D01*
X169942452Y-73527544D01*
X169942455Y-73527547D01*
X170057664Y-73613793D01*
X170057671Y-73613797D01*
X170192517Y-73664091D01*
X170192516Y-73664091D01*
X170199444Y-73664835D01*
X170252127Y-73670500D01*
X172947872Y-73670499D01*
X173007483Y-73664091D01*
X173142331Y-73613796D01*
X173257546Y-73527546D01*
X173343796Y-73412331D01*
X173394091Y-73277483D01*
X173400500Y-73217873D01*
X173400499Y-71869995D01*
X175794451Y-71869995D01*
X175794451Y-71870004D01*
X175814616Y-72139101D01*
X175874664Y-72402188D01*
X175874666Y-72402195D01*
X175954852Y-72606505D01*
X175973257Y-72653398D01*
X176108185Y-72887102D01*
X176212400Y-73017783D01*
X176276442Y-73098089D01*
X176463183Y-73271358D01*
X176474259Y-73281635D01*
X176697226Y-73433651D01*
X176940359Y-73550738D01*
X177198228Y-73630280D01*
X177198229Y-73630280D01*
X177198232Y-73630281D01*
X177465063Y-73670499D01*
X177465068Y-73670499D01*
X177465071Y-73670500D01*
X177465072Y-73670500D01*
X177734928Y-73670500D01*
X177734929Y-73670500D01*
X177734936Y-73670499D01*
X178001767Y-73630281D01*
X178001768Y-73630280D01*
X178001772Y-73630280D01*
X178259641Y-73550738D01*
X178502775Y-73433651D01*
X178725741Y-73281635D01*
X178923561Y-73098085D01*
X179091815Y-72887102D01*
X179226743Y-72653398D01*
X179325334Y-72402195D01*
X179385383Y-72139103D01*
X179396451Y-71991402D01*
X179405549Y-71870004D01*
X179405549Y-71869995D01*
X179387414Y-71627997D01*
X179385383Y-71600897D01*
X179325334Y-71337805D01*
X179226743Y-71086602D01*
X179091815Y-70852898D01*
X178923561Y-70641915D01*
X178923560Y-70641914D01*
X178923557Y-70641910D01*
X178725741Y-70458365D01*
X178668235Y-70419158D01*
X178502775Y-70306349D01*
X178502769Y-70306346D01*
X178502768Y-70306345D01*
X178502767Y-70306344D01*
X178259643Y-70189263D01*
X178259645Y-70189263D01*
X178001773Y-70109720D01*
X178001767Y-70109718D01*
X177734936Y-70069500D01*
X177734929Y-70069500D01*
X177465071Y-70069500D01*
X177465063Y-70069500D01*
X177198232Y-70109718D01*
X177198226Y-70109720D01*
X176940358Y-70189262D01*
X176697230Y-70306346D01*
X176474258Y-70458365D01*
X176276442Y-70641910D01*
X176108185Y-70852898D01*
X175973258Y-71086599D01*
X175973256Y-71086603D01*
X175874666Y-71337804D01*
X175874664Y-71337811D01*
X175814616Y-71600898D01*
X175794451Y-71869995D01*
X173400499Y-71869995D01*
X173400499Y-70522128D01*
X173394091Y-70462517D01*
X173392542Y-70458365D01*
X173343797Y-70327671D01*
X173343793Y-70327664D01*
X173257547Y-70212455D01*
X173257544Y-70212452D01*
X173142335Y-70126206D01*
X173142328Y-70126202D01*
X173007482Y-70075908D01*
X173007483Y-70075908D01*
X172947883Y-70069501D01*
X172947881Y-70069500D01*
X172947873Y-70069500D01*
X172947864Y-70069500D01*
X170252129Y-70069500D01*
X170252123Y-70069501D01*
X170192516Y-70075908D01*
X170057671Y-70126202D01*
X170057664Y-70126206D01*
X169942455Y-70212452D01*
X169942452Y-70212455D01*
X169856206Y-70327664D01*
X169856202Y-70327671D01*
X169805908Y-70462517D01*
X169803447Y-70485412D01*
X169799501Y-70522123D01*
X169799500Y-70522135D01*
X166318318Y-70522135D01*
X166274035Y-70427171D01*
X166268425Y-70419158D01*
X166138494Y-70233597D01*
X165971402Y-70066506D01*
X165971396Y-70066501D01*
X165785842Y-69936575D01*
X165742217Y-69881998D01*
X165735023Y-69812500D01*
X165766546Y-69750145D01*
X165785842Y-69733425D01*
X165873097Y-69672328D01*
X165971401Y-69603495D01*
X166138495Y-69436401D01*
X166274035Y-69242830D01*
X166373903Y-69028663D01*
X166435063Y-68800408D01*
X166455659Y-68565000D01*
X166435063Y-68329592D01*
X166375986Y-68109110D01*
X166373905Y-68101344D01*
X166373904Y-68101343D01*
X166373903Y-68101337D01*
X166274035Y-67887171D01*
X166268425Y-67879158D01*
X166138494Y-67693597D01*
X165971402Y-67526506D01*
X165971395Y-67526501D01*
X165777834Y-67390967D01*
X165777830Y-67390965D01*
X165738129Y-67372452D01*
X165563663Y-67291097D01*
X165563659Y-67291096D01*
X165563655Y-67291094D01*
X165335413Y-67229938D01*
X165335403Y-67229936D01*
X165100001Y-67209341D01*
X165099999Y-67209341D01*
X164864596Y-67229936D01*
X164864586Y-67229938D01*
X164636344Y-67291094D01*
X164636335Y-67291098D01*
X164422171Y-67390964D01*
X164422169Y-67390965D01*
X164228597Y-67526505D01*
X164061505Y-67693597D01*
X163931575Y-67879158D01*
X163876998Y-67922783D01*
X163807500Y-67929977D01*
X163745145Y-67898454D01*
X163728425Y-67879158D01*
X163598494Y-67693597D01*
X163431402Y-67526506D01*
X163431395Y-67526501D01*
X163237834Y-67390967D01*
X163237830Y-67390965D01*
X163198129Y-67372452D01*
X163023663Y-67291097D01*
X163023659Y-67291096D01*
X163023655Y-67291094D01*
X162795413Y-67229938D01*
X162795403Y-67229936D01*
X162560001Y-67209341D01*
X162559999Y-67209341D01*
X162324596Y-67229936D01*
X162324586Y-67229938D01*
X162096344Y-67291094D01*
X162096335Y-67291098D01*
X161882171Y-67390964D01*
X161882169Y-67390965D01*
X161688597Y-67526505D01*
X161521505Y-67693597D01*
X161385965Y-67887169D01*
X161385964Y-67887171D01*
X161286098Y-68101335D01*
X161286094Y-68101344D01*
X161224938Y-68329586D01*
X161224936Y-68329596D01*
X161204341Y-68564999D01*
X158834347Y-68564999D01*
X158815063Y-68344592D01*
X158753903Y-68116337D01*
X158654035Y-67902171D01*
X158652197Y-67899545D01*
X158518494Y-67708597D01*
X158351402Y-67541506D01*
X158351395Y-67541501D01*
X158157834Y-67405967D01*
X158157830Y-67405965D01*
X158125660Y-67390964D01*
X157943663Y-67306097D01*
X157943659Y-67306096D01*
X157943655Y-67306094D01*
X157715413Y-67244938D01*
X157715403Y-67244936D01*
X157480001Y-67224341D01*
X157479999Y-67224341D01*
X157244596Y-67244936D01*
X157244586Y-67244938D01*
X157016344Y-67306094D01*
X157016335Y-67306098D01*
X156802171Y-67405964D01*
X156802169Y-67405965D01*
X156608600Y-67541503D01*
X156486673Y-67663430D01*
X156425350Y-67696914D01*
X156355658Y-67691930D01*
X156299725Y-67650058D01*
X156282810Y-67619081D01*
X156233797Y-67487671D01*
X156233793Y-67487664D01*
X156147547Y-67372455D01*
X156147544Y-67372452D01*
X156032335Y-67286206D01*
X156032328Y-67286202D01*
X155897482Y-67235908D01*
X155897483Y-67235908D01*
X155837883Y-67229501D01*
X155837881Y-67229500D01*
X155837873Y-67229500D01*
X155837864Y-67229500D01*
X154042129Y-67229500D01*
X154042123Y-67229501D01*
X153982516Y-67235908D01*
X153847671Y-67286202D01*
X153847664Y-67286206D01*
X153732455Y-67372452D01*
X153732452Y-67372455D01*
X153646206Y-67487664D01*
X153646202Y-67487671D01*
X153595908Y-67622517D01*
X153589501Y-67682116D01*
X153589500Y-67682135D01*
X153589500Y-69477870D01*
X153589501Y-69477876D01*
X153595908Y-69537483D01*
X153646202Y-69672328D01*
X153646206Y-69672335D01*
X153732452Y-69787544D01*
X153732455Y-69787547D01*
X153847664Y-69873793D01*
X153847671Y-69873797D01*
X153909877Y-69896998D01*
X153979598Y-69923002D01*
X154035531Y-69964873D01*
X154059949Y-70030337D01*
X154045098Y-70098610D01*
X154023947Y-70126865D01*
X153901886Y-70248926D01*
X153766400Y-70442420D01*
X153766399Y-70442422D01*
X153666570Y-70656507D01*
X153666567Y-70656513D01*
X153609364Y-70869999D01*
X153609364Y-70870000D01*
X154506988Y-70870000D01*
X154474075Y-70927007D01*
X154440000Y-71054174D01*
X154440000Y-71185826D01*
X154474075Y-71312993D01*
X154506988Y-71370000D01*
X153609364Y-71370000D01*
X153666567Y-71583486D01*
X153666570Y-71583492D01*
X153766399Y-71797578D01*
X153901894Y-71991082D01*
X154068917Y-72158105D01*
X154254595Y-72288119D01*
X154298219Y-72342696D01*
X154305412Y-72412195D01*
X154273890Y-72474549D01*
X154254595Y-72491269D01*
X154068594Y-72621508D01*
X153901505Y-72788597D01*
X153765965Y-72982169D01*
X153765964Y-72982171D01*
X153711913Y-73098085D01*
X153669468Y-73189109D01*
X153666098Y-73196335D01*
X153666094Y-73196344D01*
X153604938Y-73424586D01*
X153604936Y-73424596D01*
X153584341Y-73659999D01*
X151000500Y-73659999D01*
X151000500Y-67169995D01*
X172794451Y-67169995D01*
X172794451Y-67170004D01*
X172814616Y-67439101D01*
X172874664Y-67702188D01*
X172874666Y-67702195D01*
X172966168Y-67935337D01*
X172973257Y-67953398D01*
X173108185Y-68187102D01*
X173221821Y-68329596D01*
X173276442Y-68398089D01*
X173456330Y-68564999D01*
X173474259Y-68581635D01*
X173697226Y-68733651D01*
X173940359Y-68850738D01*
X174198228Y-68930280D01*
X174198229Y-68930280D01*
X174198232Y-68930281D01*
X174465063Y-68970499D01*
X174465068Y-68970499D01*
X174465071Y-68970500D01*
X174465072Y-68970500D01*
X174734928Y-68970500D01*
X174734929Y-68970500D01*
X174734936Y-68970499D01*
X175001767Y-68930281D01*
X175001768Y-68930280D01*
X175001772Y-68930280D01*
X175259641Y-68850738D01*
X175451765Y-68758216D01*
X175502767Y-68733655D01*
X175502767Y-68733654D01*
X175502775Y-68733651D01*
X175725741Y-68581635D01*
X175923561Y-68398085D01*
X176091815Y-68187102D01*
X176226743Y-67953398D01*
X176325334Y-67702195D01*
X176385383Y-67439103D01*
X176396474Y-67291097D01*
X176405549Y-67170004D01*
X176405549Y-67169995D01*
X176385383Y-66900898D01*
X176325335Y-66637811D01*
X176325334Y-66637805D01*
X176226743Y-66386602D01*
X176091815Y-66152898D01*
X175923561Y-65941915D01*
X175923560Y-65941914D01*
X175923557Y-65941910D01*
X175725741Y-65758365D01*
X175682170Y-65728659D01*
X175502775Y-65606349D01*
X175502769Y-65606346D01*
X175502768Y-65606345D01*
X175502767Y-65606344D01*
X175259643Y-65489263D01*
X175259645Y-65489263D01*
X175001773Y-65409720D01*
X175001767Y-65409718D01*
X174734936Y-65369500D01*
X174734929Y-65369500D01*
X174465071Y-65369500D01*
X174465063Y-65369500D01*
X174198232Y-65409718D01*
X174198226Y-65409720D01*
X173940358Y-65489262D01*
X173697230Y-65606346D01*
X173474258Y-65758365D01*
X173276442Y-65941910D01*
X173108185Y-66152898D01*
X172973258Y-66386599D01*
X172973256Y-66386603D01*
X172874666Y-66637804D01*
X172874664Y-66637811D01*
X172814616Y-66900898D01*
X172794451Y-67169995D01*
X151000500Y-67169995D01*
X151000500Y-66164000D01*
X150988947Y-66056544D01*
X150977741Y-66005033D01*
X150977637Y-66004722D01*
X150943616Y-65902502D01*
X150943613Y-65902496D01*
X150865828Y-65781462D01*
X150865825Y-65781457D01*
X150845816Y-65758365D01*
X150820076Y-65728659D01*
X150820072Y-65728656D01*
X150820070Y-65728653D01*
X150711336Y-65634433D01*
X150711333Y-65634431D01*
X150711331Y-65634430D01*
X150580465Y-65574664D01*
X150580460Y-65574662D01*
X150580459Y-65574662D01*
X150513420Y-65554977D01*
X150513422Y-65554977D01*
X150513417Y-65554976D01*
X150451347Y-65546052D01*
X150371000Y-65534500D01*
X142364000Y-65534500D01*
X142363991Y-65534500D01*
X142363990Y-65534501D01*
X142256549Y-65546052D01*
X142256537Y-65546054D01*
X142205027Y-65557260D01*
X142102502Y-65591383D01*
X142102496Y-65591386D01*
X141981462Y-65669171D01*
X141981451Y-65669179D01*
X141928659Y-65714923D01*
X141834433Y-65823664D01*
X141834430Y-65823668D01*
X141774664Y-65954534D01*
X141754976Y-66021582D01*
X141749949Y-66056549D01*
X141734500Y-66164000D01*
X101675500Y-66164000D01*
X101675500Y-66044875D01*
X101675882Y-66035147D01*
X101678252Y-66005027D01*
X101689440Y-65862861D01*
X101692482Y-65843655D01*
X101731687Y-65680357D01*
X101737693Y-65661872D01*
X101801960Y-65506719D01*
X101810793Y-65489385D01*
X101810869Y-65489262D01*
X101898530Y-65346210D01*
X101909965Y-65330472D01*
X102019027Y-65202776D01*
X102032776Y-65189027D01*
X102160475Y-65079962D01*
X102176213Y-65068529D01*
X102319388Y-64980791D01*
X102336719Y-64971960D01*
X102491872Y-64907693D01*
X102510357Y-64901687D01*
X102673655Y-64862482D01*
X102692861Y-64859440D01*
X102840383Y-64847830D01*
X102865147Y-64845882D01*
X102874875Y-64845500D01*
X102894531Y-64845500D01*
X180315469Y-64845500D01*
X180335125Y-64845500D01*
X180344853Y-64845882D01*
G37*
%TD.AperFunction*%
%TD*%
M02*
