%TF.GenerationSoftware,KiCad,Pcbnew,8.0.4*%
%TF.CreationDate,2024-11-15T14:07:30-05:00*%
%TF.ProjectId,BarrelJackAdapter,42617272-656c-44a6-9163-6b4164617074,rev?*%
%TF.SameCoordinates,Original*%
%TF.FileFunction,Legend,Top*%
%TF.FilePolarity,Positive*%
%FSLAX46Y46*%
G04 Gerber Fmt 4.6, Leading zero omitted, Abs format (unit mm)*
G04 Created by KiCad (PCBNEW 8.0.4) date 2024-11-15 14:07:30*
%MOMM*%
%LPD*%
G01*
G04 APERTURE LIST*
%ADD10C,0.150000*%
%ADD11C,0.120000*%
G04 APERTURE END LIST*
D10*
X105064160Y-76657200D02*
X105207017Y-76704819D01*
X105207017Y-76704819D02*
X105445112Y-76704819D01*
X105445112Y-76704819D02*
X105540350Y-76657200D01*
X105540350Y-76657200D02*
X105587969Y-76609580D01*
X105587969Y-76609580D02*
X105635588Y-76514342D01*
X105635588Y-76514342D02*
X105635588Y-76419104D01*
X105635588Y-76419104D02*
X105587969Y-76323866D01*
X105587969Y-76323866D02*
X105540350Y-76276247D01*
X105540350Y-76276247D02*
X105445112Y-76228628D01*
X105445112Y-76228628D02*
X105254636Y-76181009D01*
X105254636Y-76181009D02*
X105159398Y-76133390D01*
X105159398Y-76133390D02*
X105111779Y-76085771D01*
X105111779Y-76085771D02*
X105064160Y-75990533D01*
X105064160Y-75990533D02*
X105064160Y-75895295D01*
X105064160Y-75895295D02*
X105111779Y-75800057D01*
X105111779Y-75800057D02*
X105159398Y-75752438D01*
X105159398Y-75752438D02*
X105254636Y-75704819D01*
X105254636Y-75704819D02*
X105492731Y-75704819D01*
X105492731Y-75704819D02*
X105635588Y-75752438D01*
X106445112Y-76657200D02*
X106349874Y-76704819D01*
X106349874Y-76704819D02*
X106159398Y-76704819D01*
X106159398Y-76704819D02*
X106064160Y-76657200D01*
X106064160Y-76657200D02*
X106016541Y-76561961D01*
X106016541Y-76561961D02*
X106016541Y-76181009D01*
X106016541Y-76181009D02*
X106064160Y-76085771D01*
X106064160Y-76085771D02*
X106159398Y-76038152D01*
X106159398Y-76038152D02*
X106349874Y-76038152D01*
X106349874Y-76038152D02*
X106445112Y-76085771D01*
X106445112Y-76085771D02*
X106492731Y-76181009D01*
X106492731Y-76181009D02*
X106492731Y-76276247D01*
X106492731Y-76276247D02*
X106016541Y-76371485D01*
X107302255Y-76657200D02*
X107207017Y-76704819D01*
X107207017Y-76704819D02*
X107016541Y-76704819D01*
X107016541Y-76704819D02*
X106921303Y-76657200D01*
X106921303Y-76657200D02*
X106873684Y-76561961D01*
X106873684Y-76561961D02*
X106873684Y-76181009D01*
X106873684Y-76181009D02*
X106921303Y-76085771D01*
X106921303Y-76085771D02*
X107016541Y-76038152D01*
X107016541Y-76038152D02*
X107207017Y-76038152D01*
X107207017Y-76038152D02*
X107302255Y-76085771D01*
X107302255Y-76085771D02*
X107349874Y-76181009D01*
X107349874Y-76181009D02*
X107349874Y-76276247D01*
X107349874Y-76276247D02*
X106873684Y-76371485D01*
X108540351Y-76704819D02*
X108540351Y-75704819D01*
X108540351Y-76085771D02*
X108635589Y-76038152D01*
X108635589Y-76038152D02*
X108826065Y-76038152D01*
X108826065Y-76038152D02*
X108921303Y-76085771D01*
X108921303Y-76085771D02*
X108968922Y-76133390D01*
X108968922Y-76133390D02*
X109016541Y-76228628D01*
X109016541Y-76228628D02*
X109016541Y-76514342D01*
X109016541Y-76514342D02*
X108968922Y-76609580D01*
X108968922Y-76609580D02*
X108921303Y-76657200D01*
X108921303Y-76657200D02*
X108826065Y-76704819D01*
X108826065Y-76704819D02*
X108635589Y-76704819D01*
X108635589Y-76704819D02*
X108540351Y-76657200D01*
X109873684Y-76704819D02*
X109873684Y-76181009D01*
X109873684Y-76181009D02*
X109826065Y-76085771D01*
X109826065Y-76085771D02*
X109730827Y-76038152D01*
X109730827Y-76038152D02*
X109540351Y-76038152D01*
X109540351Y-76038152D02*
X109445113Y-76085771D01*
X109873684Y-76657200D02*
X109778446Y-76704819D01*
X109778446Y-76704819D02*
X109540351Y-76704819D01*
X109540351Y-76704819D02*
X109445113Y-76657200D01*
X109445113Y-76657200D02*
X109397494Y-76561961D01*
X109397494Y-76561961D02*
X109397494Y-76466723D01*
X109397494Y-76466723D02*
X109445113Y-76371485D01*
X109445113Y-76371485D02*
X109540351Y-76323866D01*
X109540351Y-76323866D02*
X109778446Y-76323866D01*
X109778446Y-76323866D02*
X109873684Y-76276247D01*
X110778446Y-76657200D02*
X110683208Y-76704819D01*
X110683208Y-76704819D02*
X110492732Y-76704819D01*
X110492732Y-76704819D02*
X110397494Y-76657200D01*
X110397494Y-76657200D02*
X110349875Y-76609580D01*
X110349875Y-76609580D02*
X110302256Y-76514342D01*
X110302256Y-76514342D02*
X110302256Y-76228628D01*
X110302256Y-76228628D02*
X110349875Y-76133390D01*
X110349875Y-76133390D02*
X110397494Y-76085771D01*
X110397494Y-76085771D02*
X110492732Y-76038152D01*
X110492732Y-76038152D02*
X110683208Y-76038152D01*
X110683208Y-76038152D02*
X110778446Y-76085771D01*
X111207018Y-76704819D02*
X111207018Y-75704819D01*
X111302256Y-76323866D02*
X111587970Y-76704819D01*
X111587970Y-76038152D02*
X111207018Y-76419104D01*
X112635590Y-76038152D02*
X113016542Y-76038152D01*
X112778447Y-76704819D02*
X112778447Y-75847676D01*
X112778447Y-75847676D02*
X112826066Y-75752438D01*
X112826066Y-75752438D02*
X112921304Y-75704819D01*
X112921304Y-75704819D02*
X113016542Y-75704819D01*
X113492733Y-76704819D02*
X113397495Y-76657200D01*
X113397495Y-76657200D02*
X113349876Y-76609580D01*
X113349876Y-76609580D02*
X113302257Y-76514342D01*
X113302257Y-76514342D02*
X113302257Y-76228628D01*
X113302257Y-76228628D02*
X113349876Y-76133390D01*
X113349876Y-76133390D02*
X113397495Y-76085771D01*
X113397495Y-76085771D02*
X113492733Y-76038152D01*
X113492733Y-76038152D02*
X113635590Y-76038152D01*
X113635590Y-76038152D02*
X113730828Y-76085771D01*
X113730828Y-76085771D02*
X113778447Y-76133390D01*
X113778447Y-76133390D02*
X113826066Y-76228628D01*
X113826066Y-76228628D02*
X113826066Y-76514342D01*
X113826066Y-76514342D02*
X113778447Y-76609580D01*
X113778447Y-76609580D02*
X113730828Y-76657200D01*
X113730828Y-76657200D02*
X113635590Y-76704819D01*
X113635590Y-76704819D02*
X113492733Y-76704819D01*
X114254638Y-76704819D02*
X114254638Y-76038152D01*
X114254638Y-76228628D02*
X114302257Y-76133390D01*
X114302257Y-76133390D02*
X114349876Y-76085771D01*
X114349876Y-76085771D02*
X114445114Y-76038152D01*
X114445114Y-76038152D02*
X114540352Y-76038152D01*
X116064162Y-76657200D02*
X115968924Y-76704819D01*
X115968924Y-76704819D02*
X115778448Y-76704819D01*
X115778448Y-76704819D02*
X115683210Y-76657200D01*
X115683210Y-76657200D02*
X115635591Y-76609580D01*
X115635591Y-76609580D02*
X115587972Y-76514342D01*
X115587972Y-76514342D02*
X115587972Y-76228628D01*
X115587972Y-76228628D02*
X115635591Y-76133390D01*
X115635591Y-76133390D02*
X115683210Y-76085771D01*
X115683210Y-76085771D02*
X115778448Y-76038152D01*
X115778448Y-76038152D02*
X115968924Y-76038152D01*
X115968924Y-76038152D02*
X116064162Y-76085771D01*
X116635591Y-76704819D02*
X116540353Y-76657200D01*
X116540353Y-76657200D02*
X116492734Y-76609580D01*
X116492734Y-76609580D02*
X116445115Y-76514342D01*
X116445115Y-76514342D02*
X116445115Y-76228628D01*
X116445115Y-76228628D02*
X116492734Y-76133390D01*
X116492734Y-76133390D02*
X116540353Y-76085771D01*
X116540353Y-76085771D02*
X116635591Y-76038152D01*
X116635591Y-76038152D02*
X116778448Y-76038152D01*
X116778448Y-76038152D02*
X116873686Y-76085771D01*
X116873686Y-76085771D02*
X116921305Y-76133390D01*
X116921305Y-76133390D02*
X116968924Y-76228628D01*
X116968924Y-76228628D02*
X116968924Y-76514342D01*
X116968924Y-76514342D02*
X116921305Y-76609580D01*
X116921305Y-76609580D02*
X116873686Y-76657200D01*
X116873686Y-76657200D02*
X116778448Y-76704819D01*
X116778448Y-76704819D02*
X116635591Y-76704819D01*
X117397496Y-76038152D02*
X117397496Y-76704819D01*
X117397496Y-76133390D02*
X117445115Y-76085771D01*
X117445115Y-76085771D02*
X117540353Y-76038152D01*
X117540353Y-76038152D02*
X117683210Y-76038152D01*
X117683210Y-76038152D02*
X117778448Y-76085771D01*
X117778448Y-76085771D02*
X117826067Y-76181009D01*
X117826067Y-76181009D02*
X117826067Y-76704819D01*
X118159401Y-76038152D02*
X118540353Y-76038152D01*
X118302258Y-76704819D02*
X118302258Y-75847676D01*
X118302258Y-75847676D02*
X118349877Y-75752438D01*
X118349877Y-75752438D02*
X118445115Y-75704819D01*
X118445115Y-75704819D02*
X118540353Y-75704819D01*
X118873687Y-76704819D02*
X118873687Y-76038152D01*
X118873687Y-75704819D02*
X118826068Y-75752438D01*
X118826068Y-75752438D02*
X118873687Y-75800057D01*
X118873687Y-75800057D02*
X118921306Y-75752438D01*
X118921306Y-75752438D02*
X118873687Y-75704819D01*
X118873687Y-75704819D02*
X118873687Y-75800057D01*
X119778448Y-76038152D02*
X119778448Y-76847676D01*
X119778448Y-76847676D02*
X119730829Y-76942914D01*
X119730829Y-76942914D02*
X119683210Y-76990533D01*
X119683210Y-76990533D02*
X119587972Y-77038152D01*
X119587972Y-77038152D02*
X119445115Y-77038152D01*
X119445115Y-77038152D02*
X119349877Y-76990533D01*
X119778448Y-76657200D02*
X119683210Y-76704819D01*
X119683210Y-76704819D02*
X119492734Y-76704819D01*
X119492734Y-76704819D02*
X119397496Y-76657200D01*
X119397496Y-76657200D02*
X119349877Y-76609580D01*
X119349877Y-76609580D02*
X119302258Y-76514342D01*
X119302258Y-76514342D02*
X119302258Y-76228628D01*
X119302258Y-76228628D02*
X119349877Y-76133390D01*
X119349877Y-76133390D02*
X119397496Y-76085771D01*
X119397496Y-76085771D02*
X119492734Y-76038152D01*
X119492734Y-76038152D02*
X119683210Y-76038152D01*
X119683210Y-76038152D02*
X119778448Y-76085771D01*
X121016544Y-76704819D02*
X121016544Y-76038152D01*
X121016544Y-75704819D02*
X120968925Y-75752438D01*
X120968925Y-75752438D02*
X121016544Y-75800057D01*
X121016544Y-75800057D02*
X121064163Y-75752438D01*
X121064163Y-75752438D02*
X121016544Y-75704819D01*
X121016544Y-75704819D02*
X121016544Y-75800057D01*
X121492734Y-76038152D02*
X121492734Y-76704819D01*
X121492734Y-76133390D02*
X121540353Y-76085771D01*
X121540353Y-76085771D02*
X121635591Y-76038152D01*
X121635591Y-76038152D02*
X121778448Y-76038152D01*
X121778448Y-76038152D02*
X121873686Y-76085771D01*
X121873686Y-76085771D02*
X121921305Y-76181009D01*
X121921305Y-76181009D02*
X121921305Y-76704819D01*
X122254639Y-76038152D02*
X122635591Y-76038152D01*
X122397496Y-76704819D02*
X122397496Y-75847676D01*
X122397496Y-75847676D02*
X122445115Y-75752438D01*
X122445115Y-75752438D02*
X122540353Y-75704819D01*
X122540353Y-75704819D02*
X122635591Y-75704819D01*
X123111782Y-76704819D02*
X123016544Y-76657200D01*
X123016544Y-76657200D02*
X122968925Y-76609580D01*
X122968925Y-76609580D02*
X122921306Y-76514342D01*
X122921306Y-76514342D02*
X122921306Y-76228628D01*
X122921306Y-76228628D02*
X122968925Y-76133390D01*
X122968925Y-76133390D02*
X123016544Y-76085771D01*
X123016544Y-76085771D02*
X123111782Y-76038152D01*
X123111782Y-76038152D02*
X123254639Y-76038152D01*
X123254639Y-76038152D02*
X123349877Y-76085771D01*
X123349877Y-76085771D02*
X123397496Y-76133390D01*
X123397496Y-76133390D02*
X123445115Y-76228628D01*
X123445115Y-76228628D02*
X123445115Y-76514342D01*
X123445115Y-76514342D02*
X123397496Y-76609580D01*
X123397496Y-76609580D02*
X123349877Y-76657200D01*
X123349877Y-76657200D02*
X123254639Y-76704819D01*
X123254639Y-76704819D02*
X123111782Y-76704819D01*
X167865588Y-67474875D02*
X167294160Y-67474875D01*
X167579874Y-67474875D02*
X167579874Y-66474875D01*
X167579874Y-66474875D02*
X167484636Y-66617732D01*
X167484636Y-66617732D02*
X167389398Y-66712970D01*
X167389398Y-66712970D02*
X167294160Y-66760589D01*
X168770350Y-66474875D02*
X168294160Y-66474875D01*
X168294160Y-66474875D02*
X168246541Y-66951065D01*
X168246541Y-66951065D02*
X168294160Y-66903446D01*
X168294160Y-66903446D02*
X168389398Y-66855827D01*
X168389398Y-66855827D02*
X168627493Y-66855827D01*
X168627493Y-66855827D02*
X168722731Y-66903446D01*
X168722731Y-66903446D02*
X168770350Y-66951065D01*
X168770350Y-66951065D02*
X168817969Y-67046303D01*
X168817969Y-67046303D02*
X168817969Y-67284398D01*
X168817969Y-67284398D02*
X168770350Y-67379636D01*
X168770350Y-67379636D02*
X168722731Y-67427256D01*
X168722731Y-67427256D02*
X168627493Y-67474875D01*
X168627493Y-67474875D02*
X168389398Y-67474875D01*
X168389398Y-67474875D02*
X168294160Y-67427256D01*
X168294160Y-67427256D02*
X168246541Y-67379636D01*
X169103684Y-66474875D02*
X169437017Y-67474875D01*
X169437017Y-67474875D02*
X169770350Y-66474875D01*
X167341779Y-69084819D02*
X167341779Y-68084819D01*
X167341779Y-68084819D02*
X167675112Y-68799104D01*
X167675112Y-68799104D02*
X168008445Y-68084819D01*
X168008445Y-68084819D02*
X168008445Y-69084819D01*
X168437017Y-68799104D02*
X168913207Y-68799104D01*
X168341779Y-69084819D02*
X168675112Y-68084819D01*
X168675112Y-68084819D02*
X169008445Y-69084819D01*
X169246541Y-68084819D02*
X169913207Y-69084819D01*
X169913207Y-68084819D02*
X169246541Y-69084819D01*
X155876666Y-75654819D02*
X155876666Y-76369104D01*
X155876666Y-76369104D02*
X155829047Y-76511961D01*
X155829047Y-76511961D02*
X155733809Y-76607200D01*
X155733809Y-76607200D02*
X155590952Y-76654819D01*
X155590952Y-76654819D02*
X155495714Y-76654819D01*
X156829047Y-75654819D02*
X156352857Y-75654819D01*
X156352857Y-75654819D02*
X156305238Y-76131009D01*
X156305238Y-76131009D02*
X156352857Y-76083390D01*
X156352857Y-76083390D02*
X156448095Y-76035771D01*
X156448095Y-76035771D02*
X156686190Y-76035771D01*
X156686190Y-76035771D02*
X156781428Y-76083390D01*
X156781428Y-76083390D02*
X156829047Y-76131009D01*
X156829047Y-76131009D02*
X156876666Y-76226247D01*
X156876666Y-76226247D02*
X156876666Y-76464342D01*
X156876666Y-76464342D02*
X156829047Y-76559580D01*
X156829047Y-76559580D02*
X156781428Y-76607200D01*
X156781428Y-76607200D02*
X156686190Y-76654819D01*
X156686190Y-76654819D02*
X156448095Y-76654819D01*
X156448095Y-76654819D02*
X156352857Y-76607200D01*
X156352857Y-76607200D02*
X156305238Y-76559580D01*
X107188095Y-65834819D02*
X107188095Y-66644342D01*
X107188095Y-66644342D02*
X107235714Y-66739580D01*
X107235714Y-66739580D02*
X107283333Y-66787200D01*
X107283333Y-66787200D02*
X107378571Y-66834819D01*
X107378571Y-66834819D02*
X107569047Y-66834819D01*
X107569047Y-66834819D02*
X107664285Y-66787200D01*
X107664285Y-66787200D02*
X107711904Y-66739580D01*
X107711904Y-66739580D02*
X107759523Y-66644342D01*
X107759523Y-66644342D02*
X107759523Y-65834819D01*
X108759523Y-66834819D02*
X108188095Y-66834819D01*
X108473809Y-66834819D02*
X108473809Y-65834819D01*
X108473809Y-65834819D02*
X108378571Y-65977676D01*
X108378571Y-65977676D02*
X108283333Y-66072914D01*
X108283333Y-66072914D02*
X108188095Y-66120533D01*
D11*
%TO.C,J3*%
X123130000Y-67250000D02*
X124460000Y-67250000D01*
X123130000Y-68580000D02*
X123130000Y-67250000D01*
X123130000Y-69850000D02*
X123130000Y-74990000D01*
X123130000Y-69850000D02*
X125730000Y-69850000D01*
X123130000Y-74990000D02*
X128330000Y-74990000D01*
X125730000Y-67250000D02*
X128330000Y-67250000D01*
X125730000Y-69850000D02*
X125730000Y-67250000D01*
X128330000Y-67250000D02*
X128330000Y-74990000D01*
%TO.C,J5*%
X153610000Y-67250000D02*
X154940000Y-67250000D01*
X153610000Y-68580000D02*
X153610000Y-67250000D01*
X153610000Y-69850000D02*
X153610000Y-74990000D01*
X153610000Y-69850000D02*
X156210000Y-69850000D01*
X153610000Y-74990000D02*
X158810000Y-74990000D01*
X156210000Y-67250000D02*
X158810000Y-67250000D01*
X156210000Y-69850000D02*
X156210000Y-67250000D01*
X158810000Y-67250000D02*
X158810000Y-74990000D01*
%TO.C,U1*%
X106100000Y-67470000D02*
X109860000Y-67470000D01*
X106100000Y-74290000D02*
X109860000Y-74290000D01*
X109860000Y-67470000D02*
X109860000Y-68730000D01*
X109860000Y-74290000D02*
X109860000Y-73030000D01*
X104820000Y-67570000D02*
X104580000Y-67240000D01*
X105060000Y-67240000D01*
X104820000Y-67570000D01*
G36*
X104820000Y-67570000D02*
G01*
X104580000Y-67240000D01*
X105060000Y-67240000D01*
X104820000Y-67570000D01*
G37*
%TO.C,U2*%
X139985000Y-65920000D02*
X139985000Y-67730000D01*
X139985000Y-76320000D02*
X139985000Y-74510000D01*
X141485000Y-65920000D02*
X139985000Y-65920000D01*
X141485000Y-76320000D02*
X139985000Y-76320000D01*
X137422500Y-67730000D02*
X137182500Y-67400000D01*
X137662500Y-67400000D01*
X137422500Y-67730000D01*
G36*
X137422500Y-67730000D02*
G01*
X137182500Y-67400000D01*
X137662500Y-67400000D01*
X137422500Y-67730000D01*
G37*
%TO.C,J1*%
X170560000Y-76710000D02*
X170560000Y-74970000D01*
X170800000Y-67270000D02*
X172800000Y-67270000D01*
X170800000Y-70070000D02*
X170800000Y-67270000D01*
X170800000Y-76470000D02*
X170800000Y-73670000D01*
X172300000Y-76710000D02*
X170560000Y-76710000D01*
X176400000Y-67270000D02*
X185400000Y-67270000D01*
X185400000Y-67270000D02*
X185400000Y-76470000D01*
X185400000Y-76470000D02*
X170800000Y-76470000D01*
%TD*%
M02*
