%TF.GenerationSoftware,KiCad,Pcbnew,8.0.4*%
%TF.CreationDate,2024-11-15T14:19:49-05:00*%
%TF.ProjectId,BarrelJackAdapter,42617272-656c-44a6-9163-6b4164617074,rev?*%
%TF.SameCoordinates,Original*%
%TF.FileFunction,Copper,L1,Top*%
%TF.FilePolarity,Positive*%
%FSLAX46Y46*%
G04 Gerber Fmt 4.6, Leading zero omitted, Abs format (unit mm)*
G04 Created by KiCad (PCBNEW 8.0.4) date 2024-11-15 14:19:49*
%MOMM*%
%LPD*%
G01*
G04 APERTURE LIST*
G04 Aperture macros list*
%AMRoundRect*
0 Rectangle with rounded corners*
0 $1 Rounding radius*
0 $2 $3 $4 $5 $6 $7 $8 $9 X,Y pos of 4 corners*
0 Add a 4 corners polygon primitive as box body*
4,1,4,$2,$3,$4,$5,$6,$7,$8,$9,$2,$3,0*
0 Add four circle primitives for the rounded corners*
1,1,$1+$1,$2,$3*
1,1,$1+$1,$4,$5*
1,1,$1+$1,$6,$7*
1,1,$1+$1,$8,$9*
0 Add four rect primitives between the rounded corners*
20,1,$1+$1,$2,$3,$4,$5,0*
20,1,$1+$1,$4,$5,$6,$7,0*
20,1,$1+$1,$6,$7,$8,$9,0*
20,1,$1+$1,$8,$9,$2,$3,0*%
G04 Aperture macros list end*
%TA.AperFunction,SMDPad,CuDef*%
%ADD10RoundRect,0.100000X-0.130000X-0.100000X0.130000X-0.100000X0.130000X0.100000X-0.130000X0.100000X0*%
%TD*%
%TA.AperFunction,ComponentPad*%
%ADD11R,1.700000X1.700000*%
%TD*%
%TA.AperFunction,ComponentPad*%
%ADD12O,1.700000X1.700000*%
%TD*%
%TA.AperFunction,SMDPad,CuDef*%
%ADD13RoundRect,0.375000X-0.625000X-0.375000X0.625000X-0.375000X0.625000X0.375000X-0.625000X0.375000X0*%
%TD*%
%TA.AperFunction,SMDPad,CuDef*%
%ADD14RoundRect,0.500000X-0.500000X-1.400000X0.500000X-1.400000X0.500000X1.400000X-0.500000X1.400000X0*%
%TD*%
%TA.AperFunction,SMDPad,CuDef*%
%ADD15RoundRect,0.250000X-2.050000X-0.300000X2.050000X-0.300000X2.050000X0.300000X-2.050000X0.300000X0*%
%TD*%
%TA.AperFunction,SMDPad,CuDef*%
%ADD16RoundRect,0.250000X-2.025000X-2.375000X2.025000X-2.375000X2.025000X2.375000X-2.025000X2.375000X0*%
%TD*%
%TA.AperFunction,SMDPad,CuDef*%
%ADD17RoundRect,0.250002X-4.449998X-5.149998X4.449998X-5.149998X4.449998X5.149998X-4.449998X5.149998X0*%
%TD*%
%TA.AperFunction,SMDPad,CuDef*%
%ADD18RoundRect,0.100000X0.100000X-0.130000X0.100000X0.130000X-0.100000X0.130000X-0.100000X-0.130000X0*%
%TD*%
%TA.AperFunction,ComponentPad*%
%ADD19R,2.600000X2.600000*%
%TD*%
%TA.AperFunction,ComponentPad*%
%ADD20C,2.600000*%
%TD*%
%TA.AperFunction,ViaPad*%
%ADD21C,0.500000*%
%TD*%
%TA.AperFunction,Conductor*%
%ADD22C,0.254000*%
%TD*%
%TA.AperFunction,Conductor*%
%ADD23C,0.635000*%
%TD*%
G04 APERTURE END LIST*
D10*
%TO.P,C2,1*%
%TO.N,+5V*%
X131415000Y-71515000D03*
%TO.P,C2,2*%
%TO.N,GND*%
X132055000Y-71515000D03*
%TD*%
D11*
%TO.P,J3,1,Pin_1*%
%TO.N,unconnected-(J3-Pin_1-Pad1)*%
X124460000Y-68580000D03*
D12*
%TO.P,J3,2,Pin_2*%
%TO.N,+9V*%
X127000000Y-68580000D03*
%TO.P,J3,3,Pin_3*%
%TO.N,+3.3V*%
X124460000Y-71120000D03*
%TO.P,J3,4,Pin_4*%
%TO.N,/Vleft*%
X127000000Y-71120000D03*
%TO.P,J3,5,Pin_5*%
%TO.N,unconnected-(J3-Pin_5-Pad5)*%
X124460000Y-73660000D03*
%TO.P,J3,6,Pin_6*%
%TO.N,+5V*%
X127000000Y-73660000D03*
%TD*%
D10*
%TO.P,C1,1*%
%TO.N,+9V*%
X131415000Y-69765000D03*
%TO.P,C1,2*%
%TO.N,GND*%
X132055000Y-69765000D03*
%TD*%
D11*
%TO.P,J5,1,Pin_1*%
%TO.N,unconnected-(J5-Pin_1-Pad1)*%
X154940000Y-68580000D03*
D12*
%TO.P,J5,2,Pin_2*%
%TO.N,+9V*%
X157480000Y-68580000D03*
%TO.P,J5,3,Pin_3*%
%TO.N,+3.3V*%
X154940000Y-71120000D03*
%TO.P,J5,4,Pin_4*%
%TO.N,/Vright*%
X157480000Y-71120000D03*
%TO.P,J5,5,Pin_5*%
%TO.N,unconnected-(J5-Pin_5-Pad5)*%
X154940000Y-73660000D03*
%TO.P,J5,6,Pin_6*%
%TO.N,+5V*%
X157480000Y-73660000D03*
%TD*%
D13*
%TO.P,U1,1,GND*%
%TO.N,GND*%
X104800000Y-68580000D03*
%TO.P,U1,2,VO*%
%TO.N,+3.3V*%
X104800000Y-70880000D03*
D14*
X111100000Y-70880000D03*
D13*
%TO.P,U1,3,VI*%
%TO.N,+5V*%
X104800000Y-73180000D03*
%TD*%
D15*
%TO.P,U2,1,IN*%
%TO.N,+9V*%
X137160000Y-68580000D03*
D16*
%TO.P,U2,2,GND*%
%TO.N,GND*%
X143885000Y-68345000D03*
X143885000Y-73895000D03*
D17*
X146310000Y-71120000D03*
D16*
X148735000Y-68345000D03*
X148735000Y-73895000D03*
D15*
%TO.P,U2,3,OUT*%
%TO.N,+5V*%
X137160000Y-73660000D03*
%TD*%
D18*
%TO.P,C3,1*%
%TO.N,+3.3V*%
X113792000Y-71120000D03*
%TO.P,C3,2*%
%TO.N,GND*%
X113792000Y-70480000D03*
%TD*%
D19*
%TO.P,J1,1*%
%TO.N,+9V*%
X171600000Y-71870000D03*
D20*
%TO.P,J1,2*%
%TO.N,GND*%
X177600000Y-71870000D03*
%TO.P,J1,3*%
X174600000Y-67170000D03*
%TD*%
D11*
%TO.P,J4,1,Pin_1*%
%TO.N,/Vright*%
X162560000Y-73645000D03*
D12*
%TO.P,J4,2,Pin_2*%
%TO.N,GND*%
X165100000Y-73645000D03*
%TO.P,J4,3,Pin_3*%
%TO.N,/Vright*%
X162560000Y-71105000D03*
%TO.P,J4,4,Pin_4*%
%TO.N,GND*%
X165100000Y-71105000D03*
%TO.P,J4,5,Pin_5*%
%TO.N,/Vright*%
X162560000Y-68565000D03*
%TO.P,J4,6,Pin_6*%
%TO.N,GND*%
X165100000Y-68565000D03*
%TD*%
D11*
%TO.P,J2,1,Pin_1*%
%TO.N,/Vleft*%
X116835000Y-73645000D03*
D12*
%TO.P,J2,2,Pin_2*%
%TO.N,GND*%
X119375000Y-73645000D03*
%TO.P,J2,3,Pin_3*%
%TO.N,/Vleft*%
X116835000Y-71105000D03*
%TO.P,J2,4,Pin_4*%
%TO.N,GND*%
X119375000Y-71105000D03*
%TO.P,J2,5,Pin_5*%
%TO.N,/Vleft*%
X116835000Y-68565000D03*
%TO.P,J2,6,Pin_6*%
%TO.N,GND*%
X119375000Y-68565000D03*
%TD*%
D21*
%TO.N,GND*%
X104140000Y-68580000D03*
X143256000Y-70358000D03*
X145796000Y-70358000D03*
X147066000Y-74422000D03*
X148336000Y-72390000D03*
X148336000Y-70358000D03*
X147066000Y-71374000D03*
X132842000Y-71628000D03*
X144526000Y-69342000D03*
X145796000Y-72390000D03*
X145796000Y-74422000D03*
X144526000Y-68326000D03*
X145796000Y-69342000D03*
X144526000Y-70358000D03*
X105156000Y-68580000D03*
X149606000Y-72390000D03*
X148336000Y-68326000D03*
X113792000Y-69596000D03*
X148336000Y-73406000D03*
X149606000Y-71374000D03*
X149606000Y-74422000D03*
X147066000Y-69342000D03*
X149606000Y-70358000D03*
X147066000Y-68326000D03*
X145796000Y-68326000D03*
X144526000Y-74422000D03*
X143256000Y-68326000D03*
X148336000Y-71374000D03*
X143256000Y-73406000D03*
X145796000Y-67310000D03*
X148336000Y-69342000D03*
X143256000Y-74422000D03*
X143256000Y-69342000D03*
X149606000Y-67310000D03*
X143256000Y-67310000D03*
X143256000Y-71374000D03*
X149606000Y-73406000D03*
X145796000Y-73406000D03*
X145796000Y-71374000D03*
X147066000Y-73406000D03*
X144526000Y-67310000D03*
X149606000Y-69342000D03*
X144526000Y-73406000D03*
X147066000Y-67310000D03*
X144526000Y-71374000D03*
X147066000Y-72390000D03*
X149606000Y-68326000D03*
X143256000Y-72390000D03*
X132842000Y-69596000D03*
X148336000Y-74422000D03*
X148336000Y-67310000D03*
X144526000Y-72390000D03*
X147066000Y-70358000D03*
%TO.N,+5V*%
X132588000Y-73660000D03*
X134112000Y-73660000D03*
X130302000Y-71628000D03*
X105156000Y-73152000D03*
X133350000Y-73660000D03*
X104140000Y-73152000D03*
%TO.N,+3.3V*%
X113792000Y-71882000D03*
X111252000Y-70104000D03*
X111252000Y-71120000D03*
X111252000Y-72136000D03*
X110744000Y-71628000D03*
X110744000Y-70612000D03*
X110744000Y-69596000D03*
X104140000Y-70866000D03*
X105156000Y-70866000D03*
%TD*%
D22*
%TO.N,GND*%
X132055000Y-71515000D02*
X132729000Y-71515000D01*
X113792000Y-70480000D02*
X113792000Y-69596000D01*
X132729000Y-71515000D02*
X132842000Y-71628000D01*
X132673000Y-69765000D02*
X132842000Y-69596000D01*
X132055000Y-69765000D02*
X132673000Y-69765000D01*
%TO.N,+5V*%
X130415000Y-71515000D02*
X130302000Y-71628000D01*
D23*
X134112000Y-73660000D02*
X133350000Y-73660000D01*
X133350000Y-73660000D02*
X132588000Y-73660000D01*
X137160000Y-73660000D02*
X134112000Y-73660000D01*
D22*
X131415000Y-71515000D02*
X130415000Y-71515000D01*
%TO.N,+3.3V*%
X113792000Y-71120000D02*
X113792000Y-71882000D01*
D23*
%TO.N,/Vright*%
X157480000Y-71120000D02*
X162560000Y-71120000D01*
X162560000Y-68580000D02*
X162560000Y-73660000D01*
%TD*%
%TA.AperFunction,Conductor*%
%TO.N,/Vright*%
G36*
X166216288Y-66058954D02*
G01*
X166297070Y-66112930D01*
X166351046Y-66193712D01*
X166370000Y-66289000D01*
X166370000Y-67327282D01*
X166351046Y-67422570D01*
X166297070Y-67503352D01*
X166216288Y-67557328D01*
X166121000Y-67576282D01*
X166025712Y-67557328D01*
X165978180Y-67531251D01*
X165777830Y-67390965D01*
X165738133Y-67372454D01*
X165563663Y-67291097D01*
X165563660Y-67291096D01*
X165335401Y-67229935D01*
X165100005Y-67209341D01*
X165099995Y-67209341D01*
X164864598Y-67229935D01*
X164636335Y-67291097D01*
X164636333Y-67291098D01*
X164422177Y-67390961D01*
X164422169Y-67390965D01*
X164228600Y-67526504D01*
X164061502Y-67693602D01*
X164033661Y-67733363D01*
X163963479Y-67800546D01*
X163872929Y-67835758D01*
X163775797Y-67833637D01*
X163686871Y-67794507D01*
X163625725Y-67733361D01*
X163598110Y-67693923D01*
X163431076Y-67526889D01*
X163237576Y-67391399D01*
X163023484Y-67291566D01*
X162810001Y-67234363D01*
X162810000Y-67234364D01*
X162810000Y-68131988D01*
X162752993Y-68099075D01*
X162625826Y-68065000D01*
X162494174Y-68065000D01*
X162367007Y-68099075D01*
X162310000Y-68131988D01*
X162310000Y-67234364D01*
X162309998Y-67234363D01*
X162096516Y-67291566D01*
X162096505Y-67291570D01*
X161882428Y-67391396D01*
X161882420Y-67391400D01*
X161688923Y-67526889D01*
X161521889Y-67693923D01*
X161386400Y-67887420D01*
X161386396Y-67887428D01*
X161286570Y-68101505D01*
X161286566Y-68101516D01*
X161229363Y-68314998D01*
X161229364Y-68315000D01*
X162126988Y-68315000D01*
X162094075Y-68372007D01*
X162060000Y-68499174D01*
X162060000Y-68630826D01*
X162094075Y-68757993D01*
X162126988Y-68815000D01*
X161229364Y-68815000D01*
X161229363Y-68815001D01*
X161286566Y-69028483D01*
X161286566Y-69028485D01*
X161386399Y-69242576D01*
X161521889Y-69436076D01*
X161688923Y-69603110D01*
X161728798Y-69631031D01*
X161795982Y-69701213D01*
X161831194Y-69791762D01*
X161829075Y-69888894D01*
X161789946Y-69977821D01*
X161728798Y-70038969D01*
X161688923Y-70066889D01*
X161521889Y-70233923D01*
X161386400Y-70427420D01*
X161386396Y-70427428D01*
X161286570Y-70641505D01*
X161286566Y-70641516D01*
X161229363Y-70854998D01*
X161229364Y-70855000D01*
X162126988Y-70855000D01*
X162094075Y-70912007D01*
X162060000Y-71039174D01*
X162060000Y-71170826D01*
X162094075Y-71297993D01*
X162126988Y-71355000D01*
X161229364Y-71355000D01*
X161229363Y-71355001D01*
X161286566Y-71568483D01*
X161286566Y-71568485D01*
X161386399Y-71782576D01*
X161521896Y-71976085D01*
X161525630Y-71980536D01*
X161527865Y-71984610D01*
X161528126Y-71984983D01*
X161528085Y-71985011D01*
X161572358Y-72065716D01*
X161582932Y-72162294D01*
X161555742Y-72255566D01*
X161494928Y-72331334D01*
X161481708Y-72340359D01*
X161482169Y-72340974D01*
X161352812Y-72437810D01*
X161352810Y-72437812D01*
X161266646Y-72552912D01*
X161216403Y-72687621D01*
X161216401Y-72687628D01*
X161210000Y-72747167D01*
X161210000Y-73394999D01*
X161210001Y-73395000D01*
X162126988Y-73395000D01*
X162094075Y-73452007D01*
X162060000Y-73579174D01*
X162060000Y-73710826D01*
X162094075Y-73837993D01*
X162126988Y-73895000D01*
X161210001Y-73895000D01*
X161210000Y-73895001D01*
X161210000Y-74542832D01*
X161216401Y-74602371D01*
X161219985Y-74617537D01*
X161217195Y-74618196D01*
X161228812Y-74689895D01*
X161206466Y-74784446D01*
X161149638Y-74863247D01*
X161066980Y-74914303D01*
X160979971Y-74930000D01*
X158717717Y-74930000D01*
X158622429Y-74911046D01*
X158541647Y-74857070D01*
X158487671Y-74776288D01*
X158468717Y-74681000D01*
X158487671Y-74585712D01*
X158513748Y-74538179D01*
X158518491Y-74531404D01*
X158518495Y-74531401D01*
X158654035Y-74337830D01*
X158753903Y-74123663D01*
X158815063Y-73895408D01*
X158815099Y-73895000D01*
X158835659Y-73660005D01*
X158835659Y-73659994D01*
X158815064Y-73424598D01*
X158815063Y-73424595D01*
X158815063Y-73424592D01*
X158753903Y-73196337D01*
X158654035Y-72982171D01*
X158518495Y-72788599D01*
X158351401Y-72621505D01*
X158351397Y-72621502D01*
X158351396Y-72621501D01*
X158311638Y-72593662D01*
X158244454Y-72523481D01*
X158209242Y-72432931D01*
X158211362Y-72335800D01*
X158250491Y-72246873D01*
X158311640Y-72185724D01*
X158351075Y-72158111D01*
X158518110Y-71991076D01*
X158653600Y-71797576D01*
X158753433Y-71583485D01*
X158753433Y-71583483D01*
X158810636Y-71370001D01*
X158810636Y-71370000D01*
X157913012Y-71370000D01*
X157945925Y-71312993D01*
X157980000Y-71185826D01*
X157980000Y-71054174D01*
X157945925Y-70927007D01*
X157913012Y-70870000D01*
X158810636Y-70870000D01*
X158810636Y-70869998D01*
X158753433Y-70656516D01*
X158753429Y-70656505D01*
X158653603Y-70442428D01*
X158653599Y-70442421D01*
X158513137Y-70241821D01*
X158474008Y-70152894D01*
X158471889Y-70055762D01*
X158507101Y-69965213D01*
X158574285Y-69895031D01*
X158663212Y-69855902D01*
X158717106Y-69850000D01*
X160019999Y-69850000D01*
X160020000Y-69850000D01*
X160020000Y-66289000D01*
X160038954Y-66193712D01*
X160092930Y-66112930D01*
X160173712Y-66058954D01*
X160269000Y-66040000D01*
X166121000Y-66040000D01*
X166216288Y-66058954D01*
G37*
%TD.AperFunction*%
%TA.AperFunction,Conductor*%
G36*
X162810000Y-73211988D02*
G01*
X162752993Y-73179075D01*
X162625826Y-73145000D01*
X162494174Y-73145000D01*
X162367007Y-73179075D01*
X162310000Y-73211988D01*
X162310000Y-71538012D01*
X162367007Y-71570925D01*
X162494174Y-71605000D01*
X162625826Y-71605000D01*
X162752993Y-71570925D01*
X162810000Y-71538012D01*
X162810000Y-73211988D01*
G37*
%TD.AperFunction*%
%TA.AperFunction,Conductor*%
G36*
X162810000Y-70671988D02*
G01*
X162752993Y-70639075D01*
X162625826Y-70605000D01*
X162494174Y-70605000D01*
X162367007Y-70639075D01*
X162310000Y-70671988D01*
X162310000Y-68998012D01*
X162367007Y-69030925D01*
X162494174Y-69065000D01*
X162625826Y-69065000D01*
X162752993Y-69030925D01*
X162810000Y-68998012D01*
X162810000Y-70671988D01*
G37*
%TD.AperFunction*%
%TD*%
%TA.AperFunction,Conductor*%
%TO.N,/Vleft*%
G36*
X117085000Y-73211988D02*
G01*
X117027993Y-73179075D01*
X116900826Y-73145000D01*
X116769174Y-73145000D01*
X116642007Y-73179075D01*
X116585000Y-73211988D01*
X116585000Y-71538012D01*
X116642007Y-71570925D01*
X116769174Y-71605000D01*
X116900826Y-71605000D01*
X117027993Y-71570925D01*
X117085000Y-71538012D01*
X117085000Y-73211988D01*
G37*
%TD.AperFunction*%
%TA.AperFunction,Conductor*%
G36*
X117085000Y-70671988D02*
G01*
X117027993Y-70639075D01*
X116900826Y-70605000D01*
X116769174Y-70605000D01*
X116642007Y-70639075D01*
X116585000Y-70671988D01*
X116585000Y-68998012D01*
X116642007Y-69030925D01*
X116769174Y-69065000D01*
X116900826Y-69065000D01*
X117027993Y-69030925D01*
X117085000Y-68998012D01*
X117085000Y-70671988D01*
G37*
%TD.AperFunction*%
%TA.AperFunction,Conductor*%
G36*
X125576288Y-64864454D02*
G01*
X125657070Y-64918430D01*
X125711046Y-64999212D01*
X125730000Y-65094500D01*
X125730000Y-66995060D01*
X125711046Y-67090348D01*
X125657070Y-67171130D01*
X125576288Y-67225106D01*
X125481000Y-67244060D01*
X125423745Y-67237388D01*
X125417486Y-67235909D01*
X125357873Y-67229500D01*
X123562134Y-67229500D01*
X123562130Y-67229500D01*
X123562128Y-67229501D01*
X123549314Y-67230878D01*
X123502519Y-67235908D01*
X123502515Y-67235909D01*
X123367670Y-67286203D01*
X123252455Y-67372453D01*
X123252453Y-67372455D01*
X123166204Y-67487669D01*
X123115908Y-67622518D01*
X123109500Y-67682123D01*
X123109500Y-69477865D01*
X123109501Y-69477869D01*
X123115908Y-69537480D01*
X123115909Y-69537484D01*
X123166203Y-69672329D01*
X123166204Y-69672331D01*
X123252454Y-69787546D01*
X123367669Y-69873796D01*
X123367670Y-69873796D01*
X123381927Y-69884469D01*
X123379454Y-69887771D01*
X123427965Y-69928305D01*
X123473006Y-70014389D01*
X123481675Y-70111156D01*
X123452653Y-70203875D01*
X123424855Y-70244605D01*
X123421513Y-70248587D01*
X123285965Y-70442169D01*
X123285961Y-70442177D01*
X123186098Y-70656333D01*
X123186097Y-70656335D01*
X123124935Y-70884598D01*
X123104341Y-71119994D01*
X123104341Y-71120005D01*
X123124935Y-71355401D01*
X123182029Y-71568483D01*
X123186097Y-71583663D01*
X123246847Y-71713941D01*
X123285965Y-71797830D01*
X123417030Y-71985011D01*
X123421505Y-71991401D01*
X123588599Y-72158495D01*
X123627925Y-72186031D01*
X123695107Y-72256209D01*
X123730321Y-72346758D01*
X123728202Y-72443890D01*
X123689074Y-72532818D01*
X123627928Y-72593965D01*
X123588603Y-72621501D01*
X123421504Y-72788600D01*
X123285965Y-72982169D01*
X123285961Y-72982177D01*
X123186098Y-73196333D01*
X123186097Y-73196335D01*
X123124935Y-73424598D01*
X123104341Y-73659994D01*
X123104341Y-73660005D01*
X123124935Y-73895401D01*
X123124937Y-73895408D01*
X123186097Y-74123663D01*
X123211305Y-74177722D01*
X123285965Y-74337830D01*
X123350852Y-74430499D01*
X123421505Y-74531401D01*
X123588599Y-74698495D01*
X123782170Y-74834035D01*
X123996337Y-74933903D01*
X124224592Y-74995063D01*
X124224595Y-74995063D01*
X124224598Y-74995064D01*
X124459995Y-75015659D01*
X124460000Y-75015659D01*
X124460005Y-75015659D01*
X124695401Y-74995064D01*
X124695403Y-74995063D01*
X124695408Y-74995063D01*
X124923663Y-74933903D01*
X125137830Y-74834035D01*
X125331401Y-74698495D01*
X125498495Y-74531401D01*
X125526032Y-74492074D01*
X125596211Y-74424891D01*
X125686760Y-74389678D01*
X125783892Y-74391797D01*
X125872819Y-74430925D01*
X125933967Y-74492073D01*
X125961505Y-74531401D01*
X126128599Y-74698495D01*
X126322170Y-74834035D01*
X126536337Y-74933903D01*
X126764592Y-74995063D01*
X126764595Y-74995063D01*
X126764598Y-74995064D01*
X126999995Y-75015659D01*
X127000000Y-75015659D01*
X127000005Y-75015659D01*
X127235401Y-74995064D01*
X127235403Y-74995063D01*
X127235408Y-74995063D01*
X127463663Y-74933903D01*
X127677830Y-74834035D01*
X127871401Y-74698495D01*
X128038495Y-74531401D01*
X128174035Y-74337830D01*
X128273903Y-74123663D01*
X128335063Y-73895408D01*
X128335099Y-73895000D01*
X128355659Y-73660005D01*
X128355659Y-73659994D01*
X128335064Y-73424598D01*
X128335063Y-73424595D01*
X128335063Y-73424592D01*
X128273903Y-73196337D01*
X128233955Y-73110670D01*
X128174038Y-72982177D01*
X128174034Y-72982169D01*
X128108847Y-72889072D01*
X128038495Y-72788599D01*
X127871401Y-72621505D01*
X127871397Y-72621502D01*
X127871396Y-72621501D01*
X127831638Y-72593662D01*
X127764454Y-72523481D01*
X127729242Y-72432931D01*
X127731362Y-72335800D01*
X127770491Y-72246873D01*
X127831640Y-72185724D01*
X127871075Y-72158111D01*
X128038110Y-71991076D01*
X128173600Y-71797576D01*
X128273433Y-71583485D01*
X128273433Y-71583483D01*
X128330636Y-71370001D01*
X128330636Y-71370000D01*
X127433012Y-71370000D01*
X127465925Y-71312993D01*
X127500000Y-71185826D01*
X127500000Y-71054174D01*
X127465925Y-70927007D01*
X127433012Y-70870000D01*
X128330636Y-70870000D01*
X128330636Y-70869998D01*
X128273433Y-70656516D01*
X128273429Y-70656505D01*
X128173603Y-70442428D01*
X128173599Y-70442421D01*
X128033137Y-70241821D01*
X127994008Y-70152894D01*
X127991889Y-70055762D01*
X128027101Y-69965213D01*
X128094285Y-69895031D01*
X128183212Y-69855902D01*
X128237106Y-69850000D01*
X129291000Y-69850000D01*
X129386288Y-69868954D01*
X129467070Y-69922930D01*
X129521046Y-70003712D01*
X129540000Y-70099000D01*
X129540000Y-77145500D01*
X129521046Y-77240788D01*
X129467070Y-77321570D01*
X129386288Y-77375546D01*
X129291000Y-77394500D01*
X102879777Y-77394500D01*
X102860242Y-77393732D01*
X102833815Y-77391652D01*
X102702676Y-77381331D01*
X102664084Y-77375219D01*
X102519933Y-77340611D01*
X102482774Y-77328537D01*
X102345811Y-77271805D01*
X102310998Y-77254067D01*
X102265670Y-77226290D01*
X102184593Y-77176606D01*
X102152998Y-77153651D01*
X102040252Y-77057357D01*
X102012642Y-77029747D01*
X101916346Y-76916999D01*
X101893395Y-76885408D01*
X101815930Y-76758998D01*
X101798194Y-76724188D01*
X101741462Y-76587225D01*
X101729388Y-76550066D01*
X101694780Y-76405915D01*
X101688668Y-76367321D01*
X101676268Y-76209757D01*
X101675500Y-76190222D01*
X101675500Y-68128880D01*
X103299500Y-68128880D01*
X103299500Y-69031111D01*
X103299501Y-69031130D01*
X103302400Y-69073890D01*
X103302400Y-69073892D01*
X103348359Y-69258694D01*
X103432967Y-69429291D01*
X103432969Y-69429294D01*
X103432970Y-69429296D01*
X103472809Y-69478858D01*
X103549286Y-69574000D01*
X103594211Y-69660144D01*
X103602751Y-69756923D01*
X103573605Y-69849603D01*
X103549286Y-69886000D01*
X103432969Y-70030705D01*
X103432967Y-70030708D01*
X103348358Y-70201306D01*
X103302399Y-70386112D01*
X103302398Y-70386123D01*
X103299501Y-70428847D01*
X103299500Y-70428880D01*
X103299500Y-71331111D01*
X103299501Y-71331130D01*
X103302400Y-71373890D01*
X103302400Y-71373892D01*
X103348359Y-71558694D01*
X103432967Y-71729291D01*
X103432969Y-71729294D01*
X103432970Y-71729296D01*
X103475798Y-71782576D01*
X103549286Y-71874000D01*
X103594211Y-71960144D01*
X103602751Y-72056923D01*
X103573605Y-72149603D01*
X103549286Y-72186000D01*
X103432969Y-72330705D01*
X103432967Y-72330708D01*
X103348358Y-72501306D01*
X103302399Y-72686112D01*
X103302398Y-72686123D01*
X103299501Y-72728847D01*
X103299500Y-72728880D01*
X103299500Y-73631111D01*
X103299501Y-73631130D01*
X103302400Y-73673890D01*
X103302400Y-73673892D01*
X103348359Y-73858694D01*
X103432967Y-74029291D01*
X103432968Y-74029293D01*
X103432970Y-74029296D01*
X103552278Y-74177722D01*
X103700704Y-74297030D01*
X103700707Y-74297031D01*
X103700708Y-74297032D01*
X103871306Y-74381641D01*
X103963709Y-74404620D01*
X104056111Y-74427600D01*
X104056114Y-74427600D01*
X104056123Y-74427601D01*
X104098847Y-74430498D01*
X104098877Y-74430500D01*
X105501122Y-74430499D01*
X105543889Y-74427600D01*
X105728693Y-74381641D01*
X105899296Y-74297030D01*
X106047722Y-74177722D01*
X106167030Y-74029296D01*
X106251641Y-73858693D01*
X106297600Y-73673889D01*
X106298542Y-73660005D01*
X106300498Y-73631152D01*
X106300497Y-73631152D01*
X106300500Y-73631123D01*
X106300499Y-72728878D01*
X106297600Y-72686111D01*
X106251641Y-72501307D01*
X106167030Y-72330704D01*
X106050712Y-72185998D01*
X106005788Y-72099857D01*
X105997248Y-72003078D01*
X106026393Y-71910398D01*
X106050710Y-71874003D01*
X106167030Y-71729296D01*
X106251641Y-71558693D01*
X106297600Y-71373889D01*
X106300500Y-71331123D01*
X106300499Y-70428878D01*
X106297600Y-70386111D01*
X106251641Y-70201307D01*
X106167030Y-70030704D01*
X106050712Y-69885998D01*
X106005788Y-69799857D01*
X105997248Y-69703078D01*
X106026393Y-69610398D01*
X106050710Y-69574003D01*
X106167030Y-69429296D01*
X106170667Y-69421963D01*
X109599500Y-69421963D01*
X109599500Y-72338031D01*
X109599501Y-72338043D01*
X109610113Y-72457414D01*
X109610113Y-72457417D01*
X109610114Y-72457418D01*
X109649187Y-72593970D01*
X109666090Y-72653045D01*
X109666093Y-72653053D01*
X109705700Y-72728878D01*
X109760302Y-72833407D01*
X109888891Y-72991109D01*
X110046593Y-73119698D01*
X110226951Y-73213909D01*
X110422582Y-73269886D01*
X110541963Y-73280500D01*
X111658036Y-73280499D01*
X111777418Y-73269886D01*
X111973049Y-73213909D01*
X112153407Y-73119698D01*
X112311109Y-72991109D01*
X112439698Y-72833407D01*
X112484746Y-72747167D01*
X115485000Y-72747167D01*
X115485000Y-73394999D01*
X115485001Y-73395000D01*
X116401988Y-73395000D01*
X116369075Y-73452007D01*
X116335000Y-73579174D01*
X116335000Y-73710826D01*
X116369075Y-73837993D01*
X116401988Y-73895000D01*
X115485001Y-73895000D01*
X115485000Y-73895001D01*
X115485000Y-74542832D01*
X115491401Y-74602371D01*
X115491403Y-74602378D01*
X115541646Y-74737087D01*
X115627810Y-74852187D01*
X115627812Y-74852189D01*
X115742912Y-74938353D01*
X115877621Y-74988596D01*
X115877628Y-74988598D01*
X115937167Y-74994999D01*
X115937175Y-74995000D01*
X116584999Y-74995000D01*
X116585000Y-74994999D01*
X116585000Y-74078012D01*
X116642007Y-74110925D01*
X116769174Y-74145000D01*
X116900826Y-74145000D01*
X117027993Y-74110925D01*
X117085000Y-74078012D01*
X117085000Y-74994999D01*
X117085001Y-74995000D01*
X117732825Y-74995000D01*
X117732832Y-74994999D01*
X117792371Y-74988598D01*
X117792378Y-74988596D01*
X117927087Y-74938353D01*
X118042187Y-74852189D01*
X118042189Y-74852187D01*
X118139026Y-74722831D01*
X118142313Y-74725291D01*
X118182897Y-74676714D01*
X118268978Y-74631667D01*
X118365745Y-74622991D01*
X118458466Y-74652007D01*
X118499223Y-74679823D01*
X118503593Y-74683489D01*
X118503599Y-74683495D01*
X118697170Y-74819035D01*
X118911337Y-74918903D01*
X119139592Y-74980063D01*
X119139595Y-74980063D01*
X119139598Y-74980064D01*
X119374995Y-75000659D01*
X119375000Y-75000659D01*
X119375005Y-75000659D01*
X119610401Y-74980064D01*
X119610403Y-74980063D01*
X119610408Y-74980063D01*
X119838663Y-74918903D01*
X120052830Y-74819035D01*
X120246401Y-74683495D01*
X120413495Y-74516401D01*
X120549035Y-74322830D01*
X120648903Y-74108663D01*
X120710063Y-73880408D01*
X120724900Y-73710826D01*
X120730659Y-73645005D01*
X120730659Y-73644994D01*
X120710064Y-73409598D01*
X120710063Y-73409595D01*
X120710063Y-73409592D01*
X120648903Y-73181337D01*
X120560196Y-72991106D01*
X120549038Y-72967177D01*
X120549034Y-72967169D01*
X120494350Y-72889072D01*
X120413495Y-72773599D01*
X120246401Y-72606505D01*
X120207074Y-72578967D01*
X120139891Y-72508789D01*
X120104678Y-72418240D01*
X120106797Y-72321108D01*
X120145925Y-72232181D01*
X120207073Y-72171032D01*
X120246401Y-72143495D01*
X120413495Y-71976401D01*
X120549035Y-71782830D01*
X120648903Y-71568663D01*
X120710063Y-71340408D01*
X120710875Y-71331130D01*
X120730659Y-71105005D01*
X120730659Y-71104994D01*
X120710064Y-70869598D01*
X120710063Y-70869595D01*
X120710063Y-70869592D01*
X120648903Y-70641337D01*
X120556146Y-70442421D01*
X120549038Y-70427177D01*
X120549034Y-70427169D01*
X120467439Y-70310640D01*
X120413495Y-70233599D01*
X120246401Y-70066505D01*
X120207074Y-70038967D01*
X120139891Y-69968789D01*
X120104678Y-69878240D01*
X120106797Y-69781108D01*
X120145925Y-69692181D01*
X120207073Y-69631032D01*
X120246401Y-69603495D01*
X120413495Y-69436401D01*
X120549035Y-69242830D01*
X120648903Y-69028663D01*
X120710063Y-68800408D01*
X120710064Y-68800401D01*
X120730659Y-68565005D01*
X120730659Y-68564994D01*
X120710064Y-68329598D01*
X120710063Y-68329595D01*
X120710063Y-68329592D01*
X120648903Y-68101337D01*
X120549035Y-67887171D01*
X120413495Y-67693599D01*
X120246401Y-67526505D01*
X120190937Y-67487669D01*
X120052830Y-67390965D01*
X119921018Y-67329500D01*
X119838663Y-67291097D01*
X119838660Y-67291096D01*
X119610401Y-67229935D01*
X119375005Y-67209341D01*
X119374995Y-67209341D01*
X119139598Y-67229935D01*
X118911335Y-67291097D01*
X118911333Y-67291098D01*
X118697177Y-67390961D01*
X118697169Y-67390965D01*
X118503600Y-67526504D01*
X118336502Y-67693602D01*
X118308661Y-67733363D01*
X118238479Y-67800546D01*
X118147929Y-67835758D01*
X118050797Y-67833637D01*
X117961871Y-67794507D01*
X117900725Y-67733361D01*
X117873110Y-67693923D01*
X117706076Y-67526889D01*
X117512576Y-67391399D01*
X117298484Y-67291566D01*
X117085001Y-67234363D01*
X117085000Y-67234364D01*
X117085000Y-68131988D01*
X117027993Y-68099075D01*
X116900826Y-68065000D01*
X116769174Y-68065000D01*
X116642007Y-68099075D01*
X116585000Y-68131988D01*
X116585000Y-67234364D01*
X116584998Y-67234363D01*
X116371516Y-67291566D01*
X116371505Y-67291570D01*
X116157428Y-67391396D01*
X116157420Y-67391400D01*
X115963923Y-67526889D01*
X115796889Y-67693923D01*
X115661400Y-67887420D01*
X115661396Y-67887428D01*
X115561570Y-68101505D01*
X115561566Y-68101516D01*
X115504363Y-68314998D01*
X115504364Y-68315000D01*
X116401988Y-68315000D01*
X116369075Y-68372007D01*
X116335000Y-68499174D01*
X116335000Y-68630826D01*
X116369075Y-68757993D01*
X116401988Y-68815000D01*
X115504364Y-68815000D01*
X115504363Y-68815001D01*
X115561566Y-69028483D01*
X115561566Y-69028485D01*
X115661399Y-69242576D01*
X115796889Y-69436076D01*
X115963923Y-69603110D01*
X116003798Y-69631031D01*
X116070982Y-69701213D01*
X116106194Y-69791762D01*
X116104075Y-69888894D01*
X116064946Y-69977821D01*
X116003798Y-70038969D01*
X115963923Y-70066889D01*
X115796889Y-70233923D01*
X115661400Y-70427420D01*
X115661396Y-70427428D01*
X115561570Y-70641505D01*
X115561566Y-70641516D01*
X115504363Y-70854998D01*
X115504364Y-70855000D01*
X116401988Y-70855000D01*
X116369075Y-70912007D01*
X116335000Y-71039174D01*
X116335000Y-71170826D01*
X116369075Y-71297993D01*
X116401988Y-71355000D01*
X115504364Y-71355000D01*
X115504363Y-71355001D01*
X115561566Y-71568483D01*
X115561566Y-71568485D01*
X115661399Y-71782576D01*
X115796896Y-71976085D01*
X115800630Y-71980536D01*
X115802865Y-71984610D01*
X115803126Y-71984983D01*
X115803085Y-71985011D01*
X115847358Y-72065716D01*
X115857932Y-72162294D01*
X115830742Y-72255566D01*
X115769928Y-72331334D01*
X115756708Y-72340359D01*
X115757169Y-72340974D01*
X115627812Y-72437810D01*
X115627810Y-72437812D01*
X115541646Y-72552912D01*
X115491403Y-72687621D01*
X115491401Y-72687628D01*
X115485000Y-72747167D01*
X112484746Y-72747167D01*
X112533909Y-72653049D01*
X112589886Y-72457418D01*
X112600500Y-72338037D01*
X112600499Y-72214715D01*
X112619452Y-72119432D01*
X112673428Y-72038650D01*
X112754209Y-71984673D01*
X112849497Y-71965718D01*
X112944785Y-71984671D01*
X113025567Y-72038647D01*
X113079544Y-72119428D01*
X113084526Y-72132478D01*
X113111543Y-72209688D01*
X113111544Y-72209690D01*
X113201523Y-72352890D01*
X113321110Y-72472477D01*
X113417142Y-72532818D01*
X113464313Y-72562458D01*
X113554372Y-72593970D01*
X113623941Y-72618313D01*
X113623942Y-72618313D01*
X113623946Y-72618314D01*
X113791996Y-72637249D01*
X113792000Y-72637249D01*
X113792004Y-72637249D01*
X113960053Y-72618314D01*
X113960055Y-72618313D01*
X113960059Y-72618313D01*
X114045978Y-72588248D01*
X114119686Y-72562458D01*
X114119688Y-72562456D01*
X114119690Y-72562456D01*
X114262890Y-72472477D01*
X114382477Y-72352890D01*
X114472456Y-72209690D01*
X114472456Y-72209688D01*
X114472458Y-72209686D01*
X114498248Y-72135978D01*
X114528313Y-72050059D01*
X114534288Y-71997030D01*
X114547249Y-71882003D01*
X114547249Y-71881996D01*
X114528314Y-71713946D01*
X114528314Y-71713945D01*
X114483518Y-71585925D01*
X114477961Y-71570044D01*
X114464381Y-71473845D01*
X114475920Y-71423351D01*
X114472821Y-71422521D01*
X114477041Y-71406767D01*
X114477044Y-71406762D01*
X114492500Y-71289361D01*
X114492499Y-70950640D01*
X114489388Y-70927007D01*
X114476947Y-70832498D01*
X114476947Y-70767499D01*
X114485188Y-70704901D01*
X114492500Y-70649361D01*
X114492499Y-70310640D01*
X114477044Y-70193238D01*
X114457156Y-70145224D01*
X114438203Y-70049940D01*
X114457157Y-69954652D01*
X114466588Y-69936396D01*
X114466385Y-69936299D01*
X114472452Y-69923698D01*
X114472453Y-69923694D01*
X114472456Y-69923690D01*
X114528313Y-69764059D01*
X114529117Y-69756923D01*
X114547249Y-69596003D01*
X114547249Y-69595996D01*
X114528314Y-69427946D01*
X114528313Y-69427942D01*
X114526221Y-69421964D01*
X114488876Y-69315235D01*
X114472458Y-69268313D01*
X114445031Y-69224664D01*
X114382477Y-69125110D01*
X114262890Y-69005523D01*
X114137281Y-68926597D01*
X114119686Y-68915541D01*
X113960057Y-68859686D01*
X113960053Y-68859685D01*
X113792004Y-68840751D01*
X113791996Y-68840751D01*
X113623946Y-68859685D01*
X113623942Y-68859686D01*
X113464313Y-68915541D01*
X113321111Y-69005522D01*
X113201522Y-69125111D01*
X113111542Y-69268312D01*
X113074060Y-69375432D01*
X113024698Y-69459113D01*
X112947070Y-69517534D01*
X112852995Y-69541801D01*
X112756794Y-69528220D01*
X112673113Y-69478858D01*
X112614692Y-69401230D01*
X112591011Y-69315235D01*
X112589886Y-69302587D01*
X112589886Y-69302582D01*
X112533909Y-69106951D01*
X112439698Y-68926593D01*
X112311109Y-68768891D01*
X112153407Y-68640302D01*
X112153402Y-68640299D01*
X111973053Y-68546093D01*
X111973052Y-68546092D01*
X111973049Y-68546091D01*
X111777418Y-68490114D01*
X111658037Y-68479500D01*
X111658035Y-68479500D01*
X110541968Y-68479500D01*
X110541956Y-68479501D01*
X110422585Y-68490113D01*
X110226954Y-68546090D01*
X110226946Y-68546093D01*
X110046597Y-68640299D01*
X110046592Y-68640302D01*
X109888893Y-68768889D01*
X109888889Y-68768893D01*
X109760302Y-68926592D01*
X109760299Y-68926597D01*
X109666093Y-69106946D01*
X109666090Y-69106954D01*
X109610115Y-69302578D01*
X109610114Y-69302582D01*
X109599500Y-69421963D01*
X106170667Y-69421963D01*
X106251641Y-69258693D01*
X106297600Y-69073889D01*
X106300500Y-69031123D01*
X106300499Y-68128878D01*
X106297600Y-68086111D01*
X106251641Y-67901307D01*
X106167030Y-67730704D01*
X106047722Y-67582278D01*
X105899296Y-67462970D01*
X105899293Y-67462968D01*
X105899291Y-67462967D01*
X105728693Y-67378358D01*
X105543887Y-67332399D01*
X105543876Y-67332398D01*
X105501152Y-67329501D01*
X105501126Y-67329500D01*
X105501123Y-67329500D01*
X105501119Y-67329500D01*
X104098888Y-67329500D01*
X104098869Y-67329501D01*
X104056109Y-67332400D01*
X104056107Y-67332400D01*
X103871305Y-67378359D01*
X103700708Y-67462967D01*
X103700704Y-67462970D01*
X103552281Y-67582275D01*
X103552275Y-67582281D01*
X103432970Y-67730704D01*
X103432967Y-67730708D01*
X103348358Y-67901306D01*
X103302399Y-68086112D01*
X103302398Y-68086123D01*
X103299501Y-68128847D01*
X103299500Y-68128880D01*
X101675500Y-68128880D01*
X101675500Y-66049777D01*
X101676268Y-66030242D01*
X101688668Y-65872678D01*
X101694778Y-65834092D01*
X101729389Y-65689926D01*
X101741462Y-65652774D01*
X101798196Y-65515806D01*
X101815927Y-65481006D01*
X101893398Y-65354584D01*
X101916341Y-65323006D01*
X102012648Y-65210245D01*
X102040245Y-65182648D01*
X102153006Y-65086341D01*
X102184584Y-65063398D01*
X102311006Y-64985927D01*
X102345806Y-64968196D01*
X102482778Y-64911460D01*
X102519926Y-64899389D01*
X102664092Y-64864778D01*
X102702674Y-64858668D01*
X102838894Y-64847948D01*
X102860242Y-64846268D01*
X102879777Y-64845500D01*
X125481000Y-64845500D01*
X125576288Y-64864454D01*
G37*
%TD.AperFunction*%
%TD*%
%TA.AperFunction,Conductor*%
%TO.N,+9V*%
G36*
X180344853Y-64845882D02*
G01*
X180373863Y-64848165D01*
X180517136Y-64859440D01*
X180536346Y-64862483D01*
X180699638Y-64901686D01*
X180718130Y-64907694D01*
X180841090Y-64958626D01*
X180873277Y-64971959D01*
X180890614Y-64980793D01*
X181033786Y-65068529D01*
X181049527Y-65079965D01*
X181177217Y-65189022D01*
X181190977Y-65202782D01*
X181300034Y-65330472D01*
X181311470Y-65346213D01*
X181399206Y-65489385D01*
X181408040Y-65506722D01*
X181472302Y-65661862D01*
X181478315Y-65680368D01*
X181517515Y-65843648D01*
X181520559Y-65862866D01*
X181534118Y-66035146D01*
X181534500Y-66044875D01*
X181534500Y-76195124D01*
X181534118Y-76204853D01*
X181520559Y-76377133D01*
X181517515Y-76396351D01*
X181478315Y-76559631D01*
X181472302Y-76578137D01*
X181408040Y-76733277D01*
X181399206Y-76750614D01*
X181311470Y-76893786D01*
X181300034Y-76909527D01*
X181190977Y-77037217D01*
X181177217Y-77050977D01*
X181049527Y-77160034D01*
X181033786Y-77171470D01*
X180890614Y-77259206D01*
X180873277Y-77268040D01*
X180718137Y-77332302D01*
X180699631Y-77338315D01*
X180536351Y-77377515D01*
X180517133Y-77380559D01*
X180344854Y-77394118D01*
X180335125Y-77394500D01*
X130156968Y-77394500D01*
X130089929Y-77374815D01*
X130044174Y-77322011D01*
X130034230Y-77252853D01*
X130035353Y-77246299D01*
X130035787Y-77244118D01*
X130045500Y-77145500D01*
X130045500Y-73579429D01*
X131770000Y-73579429D01*
X131770000Y-73740570D01*
X131801433Y-73898594D01*
X131801435Y-73898602D01*
X131863096Y-74047466D01*
X131952619Y-74181447D01*
X132066552Y-74295380D01*
X132200533Y-74384903D01*
X132274965Y-74415733D01*
X132349398Y-74446565D01*
X132507429Y-74477999D01*
X132507433Y-74478000D01*
X132507434Y-74478000D01*
X133269434Y-74478000D01*
X134031434Y-74478000D01*
X134515270Y-74478000D01*
X134582309Y-74497685D01*
X134602951Y-74514319D01*
X134641344Y-74552712D01*
X134790666Y-74644814D01*
X134957203Y-74699999D01*
X135059991Y-74710500D01*
X139260008Y-74710499D01*
X139362797Y-74699999D01*
X139529334Y-74644814D01*
X139678656Y-74552712D01*
X139802712Y-74428656D01*
X139894814Y-74279334D01*
X139949999Y-74112797D01*
X139960500Y-74010009D01*
X139960499Y-73309992D01*
X139956672Y-73272532D01*
X139949999Y-73207203D01*
X139949998Y-73207200D01*
X139913842Y-73098089D01*
X139894814Y-73040666D01*
X139802712Y-72891344D01*
X139678656Y-72767288D01*
X139529334Y-72675186D01*
X139362797Y-72620001D01*
X139362795Y-72620000D01*
X139260010Y-72609500D01*
X135059998Y-72609500D01*
X135059981Y-72609501D01*
X134957203Y-72620000D01*
X134957200Y-72620001D01*
X134790668Y-72675185D01*
X134790663Y-72675187D01*
X134641342Y-72767289D01*
X134602951Y-72805681D01*
X134541628Y-72839166D01*
X134515270Y-72842000D01*
X132507429Y-72842000D01*
X132349405Y-72873433D01*
X132349397Y-72873435D01*
X132200533Y-72935096D01*
X132066552Y-73024619D01*
X131952619Y-73138552D01*
X131863096Y-73272533D01*
X131801435Y-73421397D01*
X131801433Y-73421405D01*
X131770000Y-73579429D01*
X130045500Y-73579429D01*
X130045500Y-72493104D01*
X130065185Y-72426065D01*
X130117989Y-72380310D01*
X130183384Y-72369884D01*
X130301998Y-72383249D01*
X130302000Y-72383249D01*
X130302003Y-72383249D01*
X130470056Y-72364314D01*
X130470059Y-72364313D01*
X130629690Y-72308456D01*
X130629692Y-72308454D01*
X130629694Y-72308454D01*
X130629697Y-72308452D01*
X130772884Y-72218481D01*
X130772885Y-72218480D01*
X130772890Y-72218477D01*
X130812548Y-72178819D01*
X130873871Y-72145334D01*
X130900229Y-72142500D01*
X130964650Y-72142500D01*
X131012102Y-72151938D01*
X131128238Y-72200044D01*
X131245639Y-72215500D01*
X131584360Y-72215499D01*
X131584363Y-72215499D01*
X131701755Y-72200045D01*
X131701755Y-72200044D01*
X131701762Y-72200044D01*
X131701767Y-72200041D01*
X131702900Y-72199739D01*
X131704085Y-72199738D01*
X131709821Y-72198984D01*
X131709920Y-72199738D01*
X131760080Y-72199737D01*
X131760180Y-72198983D01*
X131765907Y-72199737D01*
X131767091Y-72199737D01*
X131768234Y-72200043D01*
X131768236Y-72200043D01*
X131768238Y-72200044D01*
X131885639Y-72215500D01*
X132224360Y-72215499D01*
X132297458Y-72205876D01*
X132366494Y-72216642D01*
X132379614Y-72223820D01*
X132514310Y-72308456D01*
X132635621Y-72350904D01*
X132673943Y-72364314D01*
X132841997Y-72383249D01*
X132842000Y-72383249D01*
X132842003Y-72383249D01*
X133010056Y-72364314D01*
X133010059Y-72364313D01*
X133169690Y-72308456D01*
X133169692Y-72308454D01*
X133169694Y-72308454D01*
X133169697Y-72308452D01*
X133312884Y-72218481D01*
X133312885Y-72218480D01*
X133312890Y-72218477D01*
X133432477Y-72098890D01*
X133500017Y-71991402D01*
X133522452Y-71955697D01*
X133522454Y-71955694D01*
X133522454Y-71955692D01*
X133522456Y-71955690D01*
X133578313Y-71796059D01*
X133578313Y-71796058D01*
X133578314Y-71796056D01*
X133597249Y-71628002D01*
X133597249Y-71627997D01*
X133578314Y-71459943D01*
X133541737Y-71355413D01*
X133522456Y-71300310D01*
X133522455Y-71300309D01*
X133522454Y-71300305D01*
X133522452Y-71300302D01*
X133432481Y-71157115D01*
X133432476Y-71157109D01*
X133312890Y-71037523D01*
X133312884Y-71037518D01*
X133169697Y-70947547D01*
X133169694Y-70947545D01*
X133010056Y-70891685D01*
X132842003Y-70872751D01*
X132841998Y-70872751D01*
X132718023Y-70886720D01*
X132704139Y-70887500D01*
X132505350Y-70887500D01*
X132457897Y-70878061D01*
X132341762Y-70829956D01*
X132341760Y-70829955D01*
X132224361Y-70814500D01*
X131885636Y-70814500D01*
X131768234Y-70829955D01*
X131767083Y-70830264D01*
X131765891Y-70830264D01*
X131760179Y-70831016D01*
X131760080Y-70830264D01*
X131709919Y-70830264D01*
X131709820Y-70831017D01*
X131704107Y-70830264D01*
X131702917Y-70830265D01*
X131701765Y-70829956D01*
X131584361Y-70814500D01*
X131245636Y-70814500D01*
X131128246Y-70829953D01*
X131128237Y-70829956D01*
X131012103Y-70878061D01*
X130964650Y-70887500D01*
X130439861Y-70887500D01*
X130425977Y-70886720D01*
X130302002Y-70872751D01*
X130301996Y-70872751D01*
X130183383Y-70886115D01*
X130114561Y-70874060D01*
X130063182Y-70826711D01*
X130045500Y-70762895D01*
X130045500Y-70099002D01*
X130045500Y-70099000D01*
X130035787Y-70000382D01*
X130016833Y-69905094D01*
X130008845Y-69873797D01*
X130003453Y-69852672D01*
X130003452Y-69852670D01*
X130003451Y-69852665D01*
X129941356Y-69722874D01*
X129887380Y-69642092D01*
X129854947Y-69598767D01*
X129817355Y-69565000D01*
X130692987Y-69565000D01*
X131200500Y-69565000D01*
X131267539Y-69584685D01*
X131313294Y-69637489D01*
X131324500Y-69688999D01*
X131324501Y-69840999D01*
X131304817Y-69908039D01*
X131252013Y-69953794D01*
X131200501Y-69965000D01*
X130692990Y-69965000D01*
X130692988Y-69965001D01*
X130700442Y-70021627D01*
X130700444Y-70021633D01*
X130760899Y-70167585D01*
X130857075Y-70292924D01*
X130982413Y-70389100D01*
X131128365Y-70449554D01*
X131128369Y-70449555D01*
X131215000Y-70460961D01*
X131215000Y-70291431D01*
X131234685Y-70224392D01*
X131287489Y-70178637D01*
X131356647Y-70168693D01*
X131420203Y-70197718D01*
X131437372Y-70215941D01*
X131496718Y-70293282D01*
X131566487Y-70346817D01*
X131607689Y-70403243D01*
X131615000Y-70445192D01*
X131615000Y-70460959D01*
X131615001Y-70460960D01*
X131701622Y-70449558D01*
X131701917Y-70449479D01*
X131702222Y-70449478D01*
X131709690Y-70448496D01*
X131709819Y-70449478D01*
X131760115Y-70449476D01*
X131760180Y-70448983D01*
X131763925Y-70449476D01*
X131766121Y-70449476D01*
X131768230Y-70450040D01*
X131768238Y-70450044D01*
X131885639Y-70465500D01*
X132224360Y-70465499D01*
X132224363Y-70465499D01*
X132341753Y-70450046D01*
X132341757Y-70450044D01*
X132341762Y-70450044D01*
X132457897Y-70401938D01*
X132505350Y-70392500D01*
X132734804Y-70392500D01*
X132734805Y-70392499D01*
X132856035Y-70368386D01*
X132901938Y-70349371D01*
X132935506Y-70340713D01*
X133010055Y-70332314D01*
X133010057Y-70332313D01*
X133010059Y-70332313D01*
X133169690Y-70276456D01*
X133169693Y-70276453D01*
X133169697Y-70276452D01*
X133312884Y-70186481D01*
X133312885Y-70186480D01*
X133312890Y-70186477D01*
X133432477Y-70066890D01*
X133432481Y-70066884D01*
X133522452Y-69923697D01*
X133522454Y-69923694D01*
X133522454Y-69923692D01*
X133522456Y-69923690D01*
X133578313Y-69764059D01*
X133578313Y-69764058D01*
X133578314Y-69764056D01*
X133597249Y-69596002D01*
X133597249Y-69595997D01*
X133578314Y-69427943D01*
X133522454Y-69268305D01*
X133522452Y-69268302D01*
X133432481Y-69125115D01*
X133432476Y-69125109D01*
X133312890Y-69005523D01*
X133312884Y-69005518D01*
X133192676Y-68929986D01*
X134360001Y-68929986D01*
X134370494Y-69032697D01*
X134425641Y-69199119D01*
X134425643Y-69199124D01*
X134517684Y-69348345D01*
X134641654Y-69472315D01*
X134790875Y-69564356D01*
X134790880Y-69564358D01*
X134957302Y-69619505D01*
X134957309Y-69619506D01*
X135060019Y-69629999D01*
X136909999Y-69629999D01*
X137410000Y-69629999D01*
X139259972Y-69629999D01*
X139259986Y-69629998D01*
X139362697Y-69619505D01*
X139529119Y-69564358D01*
X139529124Y-69564356D01*
X139678345Y-69472315D01*
X139802315Y-69348345D01*
X139894356Y-69199124D01*
X139894358Y-69199119D01*
X139949505Y-69032697D01*
X139949506Y-69032690D01*
X139959999Y-68929986D01*
X139960000Y-68929973D01*
X139960000Y-68830000D01*
X137410000Y-68830000D01*
X137410000Y-69629999D01*
X136909999Y-69629999D01*
X136910000Y-69629998D01*
X136910000Y-68830000D01*
X134360001Y-68830000D01*
X134360001Y-68929986D01*
X133192676Y-68929986D01*
X133169697Y-68915547D01*
X133169694Y-68915545D01*
X133010056Y-68859685D01*
X132842003Y-68840751D01*
X132841997Y-68840751D01*
X132673943Y-68859685D01*
X132514305Y-68915545D01*
X132514302Y-68915547D01*
X132371112Y-69005520D01*
X132345159Y-69031473D01*
X132283835Y-69064957D01*
X132241294Y-69066729D01*
X132224371Y-69064501D01*
X132224366Y-69064500D01*
X132224361Y-69064500D01*
X132224354Y-69064500D01*
X131885637Y-69064500D01*
X131768236Y-69079955D01*
X131766111Y-69080525D01*
X131763910Y-69080525D01*
X131760181Y-69081016D01*
X131760116Y-69080525D01*
X131709815Y-69080525D01*
X131709687Y-69081505D01*
X131702251Y-69080525D01*
X131701937Y-69080526D01*
X131701633Y-69080444D01*
X131615000Y-69069038D01*
X131615000Y-69084807D01*
X131595315Y-69151846D01*
X131566488Y-69183181D01*
X131496718Y-69236718D01*
X131437374Y-69314056D01*
X131380948Y-69355257D01*
X131311202Y-69359412D01*
X131250281Y-69325199D01*
X131217529Y-69263482D01*
X131215000Y-69238568D01*
X131215000Y-69069038D01*
X131128369Y-69080444D01*
X131128365Y-69080445D01*
X130982413Y-69140899D01*
X130857075Y-69237075D01*
X130760899Y-69362413D01*
X130700444Y-69508368D01*
X130692987Y-69565000D01*
X129817355Y-69565000D01*
X129747908Y-69502620D01*
X129679267Y-69456756D01*
X129667130Y-69448646D01*
X129667125Y-69448643D01*
X129620598Y-69421037D01*
X129620596Y-69421036D01*
X129620591Y-69421034D01*
X129541726Y-69393212D01*
X129484904Y-69373166D01*
X129389616Y-69354212D01*
X129310424Y-69346413D01*
X129291000Y-69344500D01*
X128327709Y-69344500D01*
X128260670Y-69324815D01*
X128214915Y-69272011D01*
X128204971Y-69202853D01*
X128215327Y-69168095D01*
X128273429Y-69043492D01*
X128273432Y-69043486D01*
X128330636Y-68830000D01*
X127433012Y-68830000D01*
X127465925Y-68772993D01*
X127500000Y-68645826D01*
X127500000Y-68514174D01*
X127465925Y-68387007D01*
X127433012Y-68330000D01*
X128330636Y-68330000D01*
X128330635Y-68329999D01*
X128303844Y-68230013D01*
X134360000Y-68230013D01*
X134360000Y-68330000D01*
X136910000Y-68330000D01*
X137410000Y-68330000D01*
X139959999Y-68330000D01*
X139959999Y-68230028D01*
X139959998Y-68230013D01*
X139949505Y-68127302D01*
X139894358Y-67960880D01*
X139894356Y-67960875D01*
X139802315Y-67811654D01*
X139678345Y-67687684D01*
X139529124Y-67595643D01*
X139529119Y-67595641D01*
X139362697Y-67540494D01*
X139362690Y-67540493D01*
X139259986Y-67530000D01*
X137410000Y-67530000D01*
X137410000Y-68330000D01*
X136910000Y-68330000D01*
X136910000Y-67530000D01*
X135060028Y-67530000D01*
X135060012Y-67530001D01*
X134957302Y-67540494D01*
X134790880Y-67595641D01*
X134790875Y-67595643D01*
X134641654Y-67687684D01*
X134517684Y-67811654D01*
X134425643Y-67960875D01*
X134425641Y-67960880D01*
X134370494Y-68127302D01*
X134370493Y-68127309D01*
X134360000Y-68230013D01*
X128303844Y-68230013D01*
X128273432Y-68116513D01*
X128273429Y-68116507D01*
X128173600Y-67902422D01*
X128173599Y-67902420D01*
X128038113Y-67708926D01*
X128038108Y-67708920D01*
X127871082Y-67541894D01*
X127677578Y-67406399D01*
X127463492Y-67306570D01*
X127463486Y-67306567D01*
X127250000Y-67249364D01*
X127250000Y-68146988D01*
X127192993Y-68114075D01*
X127065826Y-68080000D01*
X126934174Y-68080000D01*
X126807007Y-68114075D01*
X126750000Y-68146988D01*
X126750000Y-67249364D01*
X126749999Y-67249364D01*
X126536513Y-67306567D01*
X126536502Y-67306571D01*
X126359818Y-67388960D01*
X126290741Y-67399452D01*
X126226957Y-67370932D01*
X126188718Y-67312455D01*
X126188164Y-67242588D01*
X126190463Y-67235366D01*
X126206833Y-67188966D01*
X126225787Y-67093678D01*
X126235500Y-66995060D01*
X126235500Y-65919983D01*
X141109500Y-65919983D01*
X141109500Y-76320001D01*
X141109501Y-76320018D01*
X141120000Y-76422796D01*
X141120001Y-76422799D01*
X141150578Y-76515072D01*
X141175186Y-76589334D01*
X141267288Y-76738656D01*
X141391344Y-76862712D01*
X141540666Y-76954814D01*
X141707203Y-77009999D01*
X141791925Y-77018654D01*
X141799233Y-77020499D01*
X141803665Y-77020499D01*
X141816280Y-77021142D01*
X141823432Y-77021873D01*
X141831384Y-77020499D01*
X146659985Y-77020499D01*
X146659991Y-77020500D01*
X150810008Y-77020499D01*
X150912797Y-77009999D01*
X151079334Y-76954814D01*
X151228656Y-76862712D01*
X151352712Y-76738656D01*
X151444814Y-76589334D01*
X151499999Y-76422797D01*
X151510500Y-76320009D01*
X151510500Y-73895408D01*
X151510499Y-71119999D01*
X153584341Y-71119999D01*
X153584341Y-71120000D01*
X153604936Y-71355403D01*
X153604938Y-71355413D01*
X153666094Y-71583655D01*
X153666096Y-71583659D01*
X153666097Y-71583663D01*
X153686772Y-71628000D01*
X153765965Y-71797830D01*
X153765967Y-71797834D01*
X153871671Y-71948793D01*
X153901501Y-71991396D01*
X153901506Y-71991402D01*
X154068597Y-72158493D01*
X154068603Y-72158498D01*
X154254158Y-72288425D01*
X154297783Y-72343002D01*
X154304977Y-72412500D01*
X154273454Y-72474855D01*
X154254158Y-72491575D01*
X154068597Y-72621505D01*
X153901505Y-72788597D01*
X153765965Y-72982169D01*
X153765964Y-72982171D01*
X153666098Y-73196335D01*
X153666094Y-73196344D01*
X153604938Y-73424586D01*
X153604936Y-73424596D01*
X153584341Y-73659999D01*
X153584341Y-73660000D01*
X153604936Y-73895403D01*
X153604938Y-73895413D01*
X153666094Y-74123655D01*
X153666096Y-74123659D01*
X153666097Y-74123663D01*
X153738688Y-74279334D01*
X153765965Y-74337830D01*
X153765967Y-74337834D01*
X153842101Y-74446564D01*
X153901505Y-74531401D01*
X154068599Y-74698495D01*
X154165384Y-74766265D01*
X154262165Y-74834032D01*
X154262167Y-74834033D01*
X154262170Y-74834035D01*
X154476337Y-74933903D01*
X154476343Y-74933904D01*
X154476344Y-74933905D01*
X154524649Y-74946848D01*
X154704592Y-74995063D01*
X154891835Y-75011445D01*
X154939999Y-75015659D01*
X154940000Y-75015659D01*
X154940001Y-75015659D01*
X154988165Y-75011445D01*
X155175408Y-74995063D01*
X155403663Y-74933903D01*
X155617830Y-74834035D01*
X155811401Y-74698495D01*
X155978495Y-74531401D01*
X156108425Y-74345842D01*
X156163002Y-74302217D01*
X156232500Y-74295023D01*
X156294855Y-74326546D01*
X156311575Y-74345842D01*
X156441500Y-74531395D01*
X156441505Y-74531401D01*
X156608599Y-74698495D01*
X156705384Y-74766265D01*
X156802165Y-74834032D01*
X156802167Y-74834033D01*
X156802170Y-74834035D01*
X157016337Y-74933903D01*
X157016343Y-74933904D01*
X157016344Y-74933905D01*
X157064649Y-74946848D01*
X157244592Y-74995063D01*
X157431835Y-75011445D01*
X157479999Y-75015659D01*
X157480000Y-75015659D01*
X157480001Y-75015659D01*
X157528165Y-75011445D01*
X157715408Y-74995063D01*
X157901557Y-74945185D01*
X157971406Y-74946848D01*
X158029268Y-74986011D01*
X158045503Y-75011439D01*
X158067361Y-75057126D01*
X158121337Y-75137908D01*
X158153770Y-75181233D01*
X158260809Y-75277380D01*
X158321052Y-75317632D01*
X158341586Y-75331353D01*
X158341591Y-75331356D01*
X158388118Y-75358962D01*
X158388120Y-75358963D01*
X158388122Y-75358963D01*
X158388126Y-75358966D01*
X158523811Y-75406833D01*
X158619099Y-75425787D01*
X158717717Y-75435500D01*
X158717719Y-75435500D01*
X160979964Y-75435500D01*
X160979971Y-75435500D01*
X161069718Y-75427469D01*
X161156727Y-75411772D01*
X161181496Y-75406152D01*
X161200697Y-75401797D01*
X161200698Y-75401796D01*
X161200700Y-75401796D01*
X161332626Y-75344376D01*
X161415284Y-75293320D01*
X161415286Y-75293318D01*
X161415295Y-75293313D01*
X161440830Y-75275584D01*
X161459733Y-75262461D01*
X161559643Y-75158926D01*
X161616471Y-75080125D01*
X161634253Y-75052457D01*
X161687055Y-75006705D01*
X161738561Y-74995499D01*
X163457872Y-74995499D01*
X163517483Y-74989091D01*
X163652331Y-74938796D01*
X163767546Y-74852546D01*
X163853796Y-74737331D01*
X163902810Y-74605916D01*
X163944681Y-74549984D01*
X164010145Y-74525566D01*
X164078418Y-74540417D01*
X164106673Y-74561569D01*
X164228599Y-74683495D01*
X164325384Y-74751265D01*
X164422165Y-74819032D01*
X164422167Y-74819033D01*
X164422170Y-74819035D01*
X164636337Y-74918903D01*
X164864592Y-74980063D01*
X165041034Y-74995500D01*
X165099999Y-75000659D01*
X165100000Y-75000659D01*
X165100001Y-75000659D01*
X165158966Y-74995500D01*
X165335408Y-74980063D01*
X165563663Y-74918903D01*
X165777830Y-74819035D01*
X165971401Y-74683495D01*
X166138495Y-74516401D01*
X166274035Y-74322830D01*
X166373903Y-74108663D01*
X166435063Y-73880408D01*
X166455659Y-73645000D01*
X166435063Y-73409592D01*
X166377922Y-73196335D01*
X166373905Y-73181344D01*
X166373904Y-73181343D01*
X166373903Y-73181337D01*
X166274035Y-72967171D01*
X166251578Y-72935098D01*
X166138494Y-72773597D01*
X165971402Y-72606506D01*
X165971396Y-72606501D01*
X165785842Y-72476575D01*
X165742217Y-72421998D01*
X165735023Y-72352500D01*
X165766546Y-72290145D01*
X165785842Y-72273425D01*
X165855501Y-72224649D01*
X165971401Y-72143495D01*
X166138495Y-71976401D01*
X166274035Y-71782830D01*
X166373903Y-71568663D01*
X166435063Y-71340408D01*
X166455659Y-71105000D01*
X166435063Y-70869592D01*
X166376053Y-70649360D01*
X166373905Y-70641344D01*
X166373904Y-70641343D01*
X166373903Y-70641337D01*
X166318327Y-70522155D01*
X169800000Y-70522155D01*
X169800000Y-71620000D01*
X170837639Y-71620000D01*
X170830743Y-71636649D01*
X170800000Y-71791207D01*
X170800000Y-71948793D01*
X170830743Y-72103351D01*
X170837639Y-72120000D01*
X169800000Y-72120000D01*
X169800000Y-73217844D01*
X169806401Y-73277372D01*
X169806403Y-73277379D01*
X169856645Y-73412086D01*
X169856649Y-73412093D01*
X169942809Y-73527187D01*
X169942812Y-73527190D01*
X170057906Y-73613350D01*
X170057913Y-73613354D01*
X170192620Y-73663596D01*
X170192627Y-73663598D01*
X170252155Y-73669999D01*
X170252172Y-73670000D01*
X171350000Y-73670000D01*
X171350000Y-72632360D01*
X171366649Y-72639257D01*
X171521207Y-72670000D01*
X171678793Y-72670000D01*
X171833351Y-72639257D01*
X171850000Y-72632360D01*
X171850000Y-73670000D01*
X172947828Y-73670000D01*
X172947844Y-73669999D01*
X173007372Y-73663598D01*
X173007379Y-73663596D01*
X173142086Y-73613354D01*
X173142093Y-73613350D01*
X173257187Y-73527190D01*
X173257190Y-73527187D01*
X173343350Y-73412093D01*
X173343354Y-73412086D01*
X173393596Y-73277379D01*
X173393598Y-73277372D01*
X173399999Y-73217844D01*
X173400000Y-73217827D01*
X173400000Y-72120000D01*
X172362361Y-72120000D01*
X172369257Y-72103351D01*
X172400000Y-71948793D01*
X172400000Y-71869995D01*
X175794451Y-71869995D01*
X175794451Y-71870004D01*
X175814616Y-72139101D01*
X175874664Y-72402188D01*
X175874666Y-72402195D01*
X175956028Y-72609501D01*
X175973257Y-72653398D01*
X176108185Y-72887102D01*
X176212400Y-73017783D01*
X176276442Y-73098089D01*
X176463183Y-73271358D01*
X176474259Y-73281635D01*
X176697226Y-73433651D01*
X176940359Y-73550738D01*
X177198228Y-73630280D01*
X177198229Y-73630280D01*
X177198232Y-73630281D01*
X177465063Y-73670499D01*
X177465068Y-73670499D01*
X177465071Y-73670500D01*
X177465072Y-73670500D01*
X177734928Y-73670500D01*
X177734929Y-73670500D01*
X177734936Y-73670499D01*
X178001767Y-73630281D01*
X178001768Y-73630280D01*
X178001772Y-73630280D01*
X178259641Y-73550738D01*
X178502775Y-73433651D01*
X178725741Y-73281635D01*
X178923561Y-73098085D01*
X179091815Y-72887102D01*
X179226743Y-72653398D01*
X179325334Y-72402195D01*
X179385383Y-72139103D01*
X179396451Y-71991402D01*
X179405549Y-71870004D01*
X179405549Y-71869995D01*
X179387414Y-71627997D01*
X179385383Y-71600897D01*
X179325334Y-71337805D01*
X179226743Y-71086602D01*
X179091815Y-70852898D01*
X178923561Y-70641915D01*
X178923560Y-70641914D01*
X178923557Y-70641910D01*
X178725741Y-70458365D01*
X178713535Y-70450043D01*
X178502775Y-70306349D01*
X178502769Y-70306346D01*
X178502768Y-70306345D01*
X178502767Y-70306344D01*
X178259643Y-70189263D01*
X178259645Y-70189263D01*
X178001773Y-70109720D01*
X178001767Y-70109718D01*
X177734936Y-70069500D01*
X177734929Y-70069500D01*
X177465071Y-70069500D01*
X177465063Y-70069500D01*
X177198232Y-70109718D01*
X177198226Y-70109720D01*
X176940358Y-70189262D01*
X176697230Y-70306346D01*
X176474258Y-70458365D01*
X176276442Y-70641910D01*
X176108185Y-70852898D01*
X175973258Y-71086599D01*
X175973256Y-71086603D01*
X175874666Y-71337804D01*
X175874664Y-71337811D01*
X175814616Y-71600898D01*
X175794451Y-71869995D01*
X172400000Y-71869995D01*
X172400000Y-71791207D01*
X172369257Y-71636649D01*
X172362361Y-71620000D01*
X173400000Y-71620000D01*
X173400000Y-70522172D01*
X173399999Y-70522155D01*
X173393598Y-70462627D01*
X173393596Y-70462620D01*
X173343354Y-70327913D01*
X173343350Y-70327906D01*
X173257190Y-70212812D01*
X173257187Y-70212809D01*
X173142093Y-70126649D01*
X173142086Y-70126645D01*
X173007379Y-70076403D01*
X173007372Y-70076401D01*
X172947844Y-70070000D01*
X171850000Y-70070000D01*
X171850000Y-71107639D01*
X171833351Y-71100743D01*
X171678793Y-71070000D01*
X171521207Y-71070000D01*
X171366649Y-71100743D01*
X171350000Y-71107639D01*
X171350000Y-70070000D01*
X170252155Y-70070000D01*
X170192627Y-70076401D01*
X170192620Y-70076403D01*
X170057913Y-70126645D01*
X170057906Y-70126649D01*
X169942812Y-70212809D01*
X169942809Y-70212812D01*
X169856649Y-70327906D01*
X169856645Y-70327913D01*
X169806403Y-70462620D01*
X169806401Y-70462627D01*
X169800000Y-70522155D01*
X166318327Y-70522155D01*
X166274035Y-70427171D01*
X166256368Y-70401939D01*
X166138494Y-70233597D01*
X165971402Y-70066506D01*
X165971396Y-70066501D01*
X165785842Y-69936575D01*
X165742217Y-69881998D01*
X165735023Y-69812500D01*
X165766546Y-69750145D01*
X165785842Y-69733425D01*
X165873100Y-69672326D01*
X165971401Y-69603495D01*
X166138495Y-69436401D01*
X166274035Y-69242830D01*
X166373903Y-69028663D01*
X166435063Y-68800408D01*
X166455659Y-68565000D01*
X166435063Y-68329592D01*
X166385185Y-68143442D01*
X166386848Y-68073593D01*
X166426011Y-68015731D01*
X166451439Y-67999495D01*
X166497126Y-67977638D01*
X166577908Y-67923662D01*
X166621233Y-67891229D01*
X166717380Y-67784190D01*
X166771356Y-67703408D01*
X166798966Y-67656873D01*
X166846833Y-67521188D01*
X166865787Y-67425900D01*
X166875500Y-67327282D01*
X166875500Y-67169995D01*
X172794451Y-67169995D01*
X172794451Y-67170004D01*
X172814616Y-67439101D01*
X172874664Y-67702188D01*
X172874666Y-67702195D01*
X172973256Y-67953396D01*
X172973258Y-67953400D01*
X172987251Y-67977636D01*
X173108185Y-68187102D01*
X173221821Y-68329596D01*
X173276442Y-68398089D01*
X173401553Y-68514174D01*
X173474259Y-68581635D01*
X173697226Y-68733651D01*
X173940359Y-68850738D01*
X174198228Y-68930280D01*
X174198229Y-68930280D01*
X174198232Y-68930281D01*
X174465063Y-68970499D01*
X174465068Y-68970499D01*
X174465071Y-68970500D01*
X174465072Y-68970500D01*
X174734928Y-68970500D01*
X174734929Y-68970500D01*
X174734936Y-68970499D01*
X175001767Y-68930281D01*
X175001768Y-68930280D01*
X175001772Y-68930280D01*
X175259641Y-68850738D01*
X175502775Y-68733651D01*
X175725741Y-68581635D01*
X175923561Y-68398085D01*
X176091815Y-68187102D01*
X176226743Y-67953398D01*
X176325334Y-67702195D01*
X176385383Y-67439103D01*
X176399602Y-67249364D01*
X176405549Y-67170004D01*
X176405549Y-67169995D01*
X176385383Y-66900898D01*
X176325335Y-66637811D01*
X176325334Y-66637805D01*
X176226743Y-66386602D01*
X176091815Y-66152898D01*
X175923561Y-65941915D01*
X175923560Y-65941914D01*
X175923557Y-65941910D01*
X175725741Y-65758365D01*
X175629311Y-65692620D01*
X175502775Y-65606349D01*
X175502769Y-65606346D01*
X175502768Y-65606345D01*
X175502767Y-65606344D01*
X175259643Y-65489263D01*
X175259645Y-65489263D01*
X175001773Y-65409720D01*
X175001767Y-65409718D01*
X174734936Y-65369500D01*
X174734929Y-65369500D01*
X174465071Y-65369500D01*
X174465063Y-65369500D01*
X174198232Y-65409718D01*
X174198226Y-65409720D01*
X173940358Y-65489262D01*
X173697230Y-65606346D01*
X173474258Y-65758365D01*
X173276442Y-65941910D01*
X173108185Y-66152898D01*
X172973258Y-66386599D01*
X172973256Y-66386603D01*
X172874666Y-66637804D01*
X172874664Y-66637811D01*
X172814616Y-66900898D01*
X172794451Y-67169995D01*
X166875500Y-67169995D01*
X166875500Y-66289000D01*
X166865787Y-66190382D01*
X166846833Y-66095094D01*
X166833451Y-66042665D01*
X166771356Y-65912874D01*
X166717380Y-65832092D01*
X166684947Y-65788767D01*
X166577908Y-65692620D01*
X166531875Y-65661862D01*
X166497130Y-65638646D01*
X166497125Y-65638643D01*
X166450598Y-65611037D01*
X166450596Y-65611036D01*
X166450591Y-65611034D01*
X166352839Y-65576549D01*
X166314904Y-65563166D01*
X166219616Y-65544212D01*
X166140424Y-65536413D01*
X166121000Y-65534500D01*
X160269000Y-65534500D01*
X160247453Y-65536622D01*
X160170385Y-65544212D01*
X160075091Y-65563167D01*
X160075070Y-65563172D01*
X160022672Y-65576546D01*
X160022667Y-65576548D01*
X159892873Y-65638644D01*
X159892869Y-65638647D01*
X159812087Y-65692623D01*
X159780745Y-65716086D01*
X159768767Y-65725053D01*
X159768765Y-65725054D01*
X159768764Y-65725056D01*
X159672625Y-65832086D01*
X159672620Y-65832092D01*
X159618646Y-65912869D01*
X159618643Y-65912874D01*
X159591037Y-65959401D01*
X159591036Y-65959403D01*
X159543166Y-66095095D01*
X159543166Y-66095096D01*
X159524212Y-66190383D01*
X159524212Y-66190384D01*
X159514500Y-66289002D01*
X159514500Y-69220500D01*
X159494815Y-69287539D01*
X159442011Y-69333294D01*
X159390500Y-69344500D01*
X158807709Y-69344500D01*
X158740670Y-69324815D01*
X158694915Y-69272011D01*
X158684971Y-69202853D01*
X158695327Y-69168095D01*
X158753429Y-69043492D01*
X158753432Y-69043486D01*
X158810636Y-68830000D01*
X157913012Y-68830000D01*
X157945925Y-68772993D01*
X157980000Y-68645826D01*
X157980000Y-68514174D01*
X157945925Y-68387007D01*
X157913012Y-68330000D01*
X158810636Y-68330000D01*
X158810635Y-68329999D01*
X158753432Y-68116513D01*
X158753429Y-68116507D01*
X158653600Y-67902422D01*
X158653599Y-67902420D01*
X158518113Y-67708926D01*
X158518108Y-67708920D01*
X158351082Y-67541894D01*
X158157578Y-67406399D01*
X157943492Y-67306570D01*
X157943486Y-67306567D01*
X157730000Y-67249364D01*
X157730000Y-68146988D01*
X157672993Y-68114075D01*
X157545826Y-68080000D01*
X157414174Y-68080000D01*
X157287007Y-68114075D01*
X157230000Y-68146988D01*
X157230000Y-67249364D01*
X157229999Y-67249364D01*
X157016513Y-67306567D01*
X157016507Y-67306570D01*
X156802422Y-67406399D01*
X156802420Y-67406400D01*
X156608926Y-67541886D01*
X156486865Y-67663947D01*
X156425542Y-67697431D01*
X156355850Y-67692447D01*
X156299917Y-67650575D01*
X156283002Y-67619598D01*
X156274067Y-67595643D01*
X156249585Y-67530001D01*
X156233797Y-67487671D01*
X156233793Y-67487664D01*
X156147547Y-67372455D01*
X156147544Y-67372452D01*
X156032335Y-67286206D01*
X156032328Y-67286202D01*
X155897482Y-67235908D01*
X155897483Y-67235908D01*
X155837883Y-67229501D01*
X155837881Y-67229500D01*
X155837873Y-67229500D01*
X155837864Y-67229500D01*
X154042129Y-67229500D01*
X154042123Y-67229501D01*
X153982516Y-67235908D01*
X153847671Y-67286202D01*
X153847664Y-67286206D01*
X153732455Y-67372452D01*
X153732452Y-67372455D01*
X153646206Y-67487664D01*
X153646202Y-67487671D01*
X153595908Y-67622517D01*
X153589501Y-67682116D01*
X153589500Y-67682135D01*
X153589500Y-69477870D01*
X153589501Y-69477876D01*
X153595908Y-69537483D01*
X153646202Y-69672328D01*
X153646206Y-69672335D01*
X153732452Y-69787544D01*
X153732455Y-69787547D01*
X153847664Y-69873793D01*
X153847671Y-69873797D01*
X153979081Y-69922810D01*
X154035015Y-69964681D01*
X154059432Y-70030145D01*
X154044580Y-70098418D01*
X154023430Y-70126673D01*
X153901503Y-70248600D01*
X153765965Y-70442169D01*
X153765964Y-70442171D01*
X153666098Y-70656335D01*
X153666094Y-70656344D01*
X153604938Y-70884586D01*
X153604936Y-70884596D01*
X153584341Y-71119999D01*
X151510499Y-71119999D01*
X151510499Y-70770014D01*
X151510500Y-70770009D01*
X151510499Y-65919992D01*
X151499999Y-65817203D01*
X151444814Y-65650666D01*
X151352712Y-65501344D01*
X151228656Y-65377288D01*
X151079334Y-65285186D01*
X150912797Y-65230001D01*
X150912795Y-65230000D01*
X150810016Y-65219500D01*
X150810009Y-65219500D01*
X150810007Y-65219500D01*
X145960014Y-65219500D01*
X145960009Y-65219500D01*
X141809998Y-65219500D01*
X141809981Y-65219501D01*
X141707203Y-65230000D01*
X141707200Y-65230001D01*
X141540668Y-65285185D01*
X141540663Y-65285187D01*
X141391342Y-65377289D01*
X141267289Y-65501342D01*
X141175187Y-65650663D01*
X141175186Y-65650666D01*
X141129425Y-65788767D01*
X141127818Y-65793616D01*
X141127817Y-65793618D01*
X141120001Y-65817202D01*
X141120000Y-65817205D01*
X141109500Y-65919983D01*
X126235500Y-65919983D01*
X126235500Y-65094500D01*
X126225787Y-64995882D01*
X126225353Y-64993700D01*
X126225394Y-64993236D01*
X126225342Y-64992882D01*
X126225427Y-64992869D01*
X126231575Y-64924109D01*
X126274433Y-64868928D01*
X126340321Y-64845678D01*
X126346968Y-64845500D01*
X180315469Y-64845500D01*
X180335125Y-64845500D01*
X180344853Y-64845882D01*
G37*
%TD.AperFunction*%
%TD*%
M02*
