M48
; DRILL file {KiCad 8.0.4} date 2024-11-15T14:07:41-0500
; FORMAT={-:-/ absolute / inch / decimal}
; #@! TF.CreationDate,2024-11-15T14:07:41-05:00
; #@! TF.GenerationSoftware,Kicad,Pcbnew,8.0.4
; #@! TF.FileFunction,Plated,1,4,PTH
FMAT,2
INCH
; #@! TA.AperFunction,Plated,PTH,ViaDrill
T1C0.0098
; #@! TA.AperFunction,Plated,PTH,ComponentDrill
T2C0.0394
; #@! TA.AperFunction,Plated,PTH,ComponentDrill
T3C0.0630
%
G90
G05
T1
X4.1Y-2.7
X4.1Y-2.79
X4.1Y-2.88
X4.14Y-2.7
X4.14Y-2.79
X4.14Y-2.88
X4.36Y-2.74
X4.36Y-2.78
X4.36Y-2.82
X4.38Y-2.76
X4.38Y-2.8
X4.38Y-2.84
X4.48Y-2.74
X4.48Y-2.83
X5.13Y-2.82
X5.22Y-2.9
X5.23Y-2.74
X5.23Y-2.82
X5.25Y-2.9
X5.28Y-2.9
X5.64Y-2.65
X5.64Y-2.69
X5.64Y-2.73
X5.64Y-2.77
X5.64Y-2.81
X5.64Y-2.85
X5.64Y-2.89
X5.64Y-2.93
X5.69Y-2.65
X5.69Y-2.69
X5.69Y-2.73
X5.69Y-2.77
X5.69Y-2.81
X5.69Y-2.85
X5.69Y-2.89
X5.69Y-2.93
X5.74Y-2.65
X5.74Y-2.69
X5.74Y-2.73
X5.74Y-2.77
X5.74Y-2.81
X5.74Y-2.85
X5.74Y-2.89
X5.74Y-2.93
X5.79Y-2.65
X5.79Y-2.69
X5.79Y-2.73
X5.79Y-2.77
X5.79Y-2.81
X5.79Y-2.85
X5.79Y-2.89
X5.79Y-2.93
X5.84Y-2.65
X5.84Y-2.69
X5.84Y-2.73
X5.84Y-2.77
X5.84Y-2.81
X5.84Y-2.85
X5.84Y-2.89
X5.84Y-2.93
X5.89Y-2.65
X5.89Y-2.69
X5.89Y-2.73
X5.89Y-2.77
X5.89Y-2.81
X5.89Y-2.85
X5.89Y-2.89
X5.89Y-2.93
T2
X4.5998Y-2.6994
X4.5998Y-2.7994
X4.5998Y-2.8994
X4.6998Y-2.6994
X4.6998Y-2.7994
X4.6998Y-2.8994
X4.9Y-2.7
X4.9Y-2.8
X4.9Y-2.9
X5.0Y-2.7
X5.0Y-2.8
X5.0Y-2.9
X6.1Y-2.7
X6.1Y-2.8
X6.1Y-2.9
X6.2Y-2.7
X6.2Y-2.8
X6.2Y-2.9
X6.4Y-2.6994
X6.4Y-2.7994
X6.4Y-2.8994
X6.5Y-2.6994
X6.5Y-2.7994
X6.5Y-2.8994
T3
X6.7559Y-2.8295
X6.874Y-2.6445
X6.9921Y-2.8295
M30
