%TF.GenerationSoftware,KiCad,Pcbnew,8.0.4*%
%TF.CreationDate,2024-11-15T14:19:49-05:00*%
%TF.ProjectId,BarrelJackAdapter,42617272-656c-44a6-9163-6b4164617074,rev?*%
%TF.SameCoordinates,Original*%
%TF.FileFunction,Legend,Top*%
%TF.FilePolarity,Positive*%
%FSLAX46Y46*%
G04 Gerber Fmt 4.6, Leading zero omitted, Abs format (unit mm)*
G04 Created by KiCad (PCBNEW 8.0.4) date 2024-11-15 14:19:49*
%MOMM*%
%LPD*%
G01*
G04 APERTURE LIST*
%ADD10C,0.150000*%
%ADD11C,0.120000*%
G04 APERTURE END LIST*
D10*
X114589160Y-76657200D02*
X114732017Y-76704819D01*
X114732017Y-76704819D02*
X114970112Y-76704819D01*
X114970112Y-76704819D02*
X115065350Y-76657200D01*
X115065350Y-76657200D02*
X115112969Y-76609580D01*
X115112969Y-76609580D02*
X115160588Y-76514342D01*
X115160588Y-76514342D02*
X115160588Y-76419104D01*
X115160588Y-76419104D02*
X115112969Y-76323866D01*
X115112969Y-76323866D02*
X115065350Y-76276247D01*
X115065350Y-76276247D02*
X114970112Y-76228628D01*
X114970112Y-76228628D02*
X114779636Y-76181009D01*
X114779636Y-76181009D02*
X114684398Y-76133390D01*
X114684398Y-76133390D02*
X114636779Y-76085771D01*
X114636779Y-76085771D02*
X114589160Y-75990533D01*
X114589160Y-75990533D02*
X114589160Y-75895295D01*
X114589160Y-75895295D02*
X114636779Y-75800057D01*
X114636779Y-75800057D02*
X114684398Y-75752438D01*
X114684398Y-75752438D02*
X114779636Y-75704819D01*
X114779636Y-75704819D02*
X115017731Y-75704819D01*
X115017731Y-75704819D02*
X115160588Y-75752438D01*
X115970112Y-76657200D02*
X115874874Y-76704819D01*
X115874874Y-76704819D02*
X115684398Y-76704819D01*
X115684398Y-76704819D02*
X115589160Y-76657200D01*
X115589160Y-76657200D02*
X115541541Y-76561961D01*
X115541541Y-76561961D02*
X115541541Y-76181009D01*
X115541541Y-76181009D02*
X115589160Y-76085771D01*
X115589160Y-76085771D02*
X115684398Y-76038152D01*
X115684398Y-76038152D02*
X115874874Y-76038152D01*
X115874874Y-76038152D02*
X115970112Y-76085771D01*
X115970112Y-76085771D02*
X116017731Y-76181009D01*
X116017731Y-76181009D02*
X116017731Y-76276247D01*
X116017731Y-76276247D02*
X115541541Y-76371485D01*
X116827255Y-76657200D02*
X116732017Y-76704819D01*
X116732017Y-76704819D02*
X116541541Y-76704819D01*
X116541541Y-76704819D02*
X116446303Y-76657200D01*
X116446303Y-76657200D02*
X116398684Y-76561961D01*
X116398684Y-76561961D02*
X116398684Y-76181009D01*
X116398684Y-76181009D02*
X116446303Y-76085771D01*
X116446303Y-76085771D02*
X116541541Y-76038152D01*
X116541541Y-76038152D02*
X116732017Y-76038152D01*
X116732017Y-76038152D02*
X116827255Y-76085771D01*
X116827255Y-76085771D02*
X116874874Y-76181009D01*
X116874874Y-76181009D02*
X116874874Y-76276247D01*
X116874874Y-76276247D02*
X116398684Y-76371485D01*
X118065351Y-76704819D02*
X118065351Y-75704819D01*
X118065351Y-76085771D02*
X118160589Y-76038152D01*
X118160589Y-76038152D02*
X118351065Y-76038152D01*
X118351065Y-76038152D02*
X118446303Y-76085771D01*
X118446303Y-76085771D02*
X118493922Y-76133390D01*
X118493922Y-76133390D02*
X118541541Y-76228628D01*
X118541541Y-76228628D02*
X118541541Y-76514342D01*
X118541541Y-76514342D02*
X118493922Y-76609580D01*
X118493922Y-76609580D02*
X118446303Y-76657200D01*
X118446303Y-76657200D02*
X118351065Y-76704819D01*
X118351065Y-76704819D02*
X118160589Y-76704819D01*
X118160589Y-76704819D02*
X118065351Y-76657200D01*
X119398684Y-76704819D02*
X119398684Y-76181009D01*
X119398684Y-76181009D02*
X119351065Y-76085771D01*
X119351065Y-76085771D02*
X119255827Y-76038152D01*
X119255827Y-76038152D02*
X119065351Y-76038152D01*
X119065351Y-76038152D02*
X118970113Y-76085771D01*
X119398684Y-76657200D02*
X119303446Y-76704819D01*
X119303446Y-76704819D02*
X119065351Y-76704819D01*
X119065351Y-76704819D02*
X118970113Y-76657200D01*
X118970113Y-76657200D02*
X118922494Y-76561961D01*
X118922494Y-76561961D02*
X118922494Y-76466723D01*
X118922494Y-76466723D02*
X118970113Y-76371485D01*
X118970113Y-76371485D02*
X119065351Y-76323866D01*
X119065351Y-76323866D02*
X119303446Y-76323866D01*
X119303446Y-76323866D02*
X119398684Y-76276247D01*
X120303446Y-76657200D02*
X120208208Y-76704819D01*
X120208208Y-76704819D02*
X120017732Y-76704819D01*
X120017732Y-76704819D02*
X119922494Y-76657200D01*
X119922494Y-76657200D02*
X119874875Y-76609580D01*
X119874875Y-76609580D02*
X119827256Y-76514342D01*
X119827256Y-76514342D02*
X119827256Y-76228628D01*
X119827256Y-76228628D02*
X119874875Y-76133390D01*
X119874875Y-76133390D02*
X119922494Y-76085771D01*
X119922494Y-76085771D02*
X120017732Y-76038152D01*
X120017732Y-76038152D02*
X120208208Y-76038152D01*
X120208208Y-76038152D02*
X120303446Y-76085771D01*
X120732018Y-76704819D02*
X120732018Y-75704819D01*
X120827256Y-76323866D02*
X121112970Y-76704819D01*
X121112970Y-76038152D02*
X120732018Y-76419104D01*
X122160590Y-76038152D02*
X122541542Y-76038152D01*
X122303447Y-76704819D02*
X122303447Y-75847676D01*
X122303447Y-75847676D02*
X122351066Y-75752438D01*
X122351066Y-75752438D02*
X122446304Y-75704819D01*
X122446304Y-75704819D02*
X122541542Y-75704819D01*
X123017733Y-76704819D02*
X122922495Y-76657200D01*
X122922495Y-76657200D02*
X122874876Y-76609580D01*
X122874876Y-76609580D02*
X122827257Y-76514342D01*
X122827257Y-76514342D02*
X122827257Y-76228628D01*
X122827257Y-76228628D02*
X122874876Y-76133390D01*
X122874876Y-76133390D02*
X122922495Y-76085771D01*
X122922495Y-76085771D02*
X123017733Y-76038152D01*
X123017733Y-76038152D02*
X123160590Y-76038152D01*
X123160590Y-76038152D02*
X123255828Y-76085771D01*
X123255828Y-76085771D02*
X123303447Y-76133390D01*
X123303447Y-76133390D02*
X123351066Y-76228628D01*
X123351066Y-76228628D02*
X123351066Y-76514342D01*
X123351066Y-76514342D02*
X123303447Y-76609580D01*
X123303447Y-76609580D02*
X123255828Y-76657200D01*
X123255828Y-76657200D02*
X123160590Y-76704819D01*
X123160590Y-76704819D02*
X123017733Y-76704819D01*
X123779638Y-76704819D02*
X123779638Y-76038152D01*
X123779638Y-76228628D02*
X123827257Y-76133390D01*
X123827257Y-76133390D02*
X123874876Y-76085771D01*
X123874876Y-76085771D02*
X123970114Y-76038152D01*
X123970114Y-76038152D02*
X124065352Y-76038152D01*
X125589162Y-76657200D02*
X125493924Y-76704819D01*
X125493924Y-76704819D02*
X125303448Y-76704819D01*
X125303448Y-76704819D02*
X125208210Y-76657200D01*
X125208210Y-76657200D02*
X125160591Y-76609580D01*
X125160591Y-76609580D02*
X125112972Y-76514342D01*
X125112972Y-76514342D02*
X125112972Y-76228628D01*
X125112972Y-76228628D02*
X125160591Y-76133390D01*
X125160591Y-76133390D02*
X125208210Y-76085771D01*
X125208210Y-76085771D02*
X125303448Y-76038152D01*
X125303448Y-76038152D02*
X125493924Y-76038152D01*
X125493924Y-76038152D02*
X125589162Y-76085771D01*
X126160591Y-76704819D02*
X126065353Y-76657200D01*
X126065353Y-76657200D02*
X126017734Y-76609580D01*
X126017734Y-76609580D02*
X125970115Y-76514342D01*
X125970115Y-76514342D02*
X125970115Y-76228628D01*
X125970115Y-76228628D02*
X126017734Y-76133390D01*
X126017734Y-76133390D02*
X126065353Y-76085771D01*
X126065353Y-76085771D02*
X126160591Y-76038152D01*
X126160591Y-76038152D02*
X126303448Y-76038152D01*
X126303448Y-76038152D02*
X126398686Y-76085771D01*
X126398686Y-76085771D02*
X126446305Y-76133390D01*
X126446305Y-76133390D02*
X126493924Y-76228628D01*
X126493924Y-76228628D02*
X126493924Y-76514342D01*
X126493924Y-76514342D02*
X126446305Y-76609580D01*
X126446305Y-76609580D02*
X126398686Y-76657200D01*
X126398686Y-76657200D02*
X126303448Y-76704819D01*
X126303448Y-76704819D02*
X126160591Y-76704819D01*
X126922496Y-76038152D02*
X126922496Y-76704819D01*
X126922496Y-76133390D02*
X126970115Y-76085771D01*
X126970115Y-76085771D02*
X127065353Y-76038152D01*
X127065353Y-76038152D02*
X127208210Y-76038152D01*
X127208210Y-76038152D02*
X127303448Y-76085771D01*
X127303448Y-76085771D02*
X127351067Y-76181009D01*
X127351067Y-76181009D02*
X127351067Y-76704819D01*
X127684401Y-76038152D02*
X128065353Y-76038152D01*
X127827258Y-76704819D02*
X127827258Y-75847676D01*
X127827258Y-75847676D02*
X127874877Y-75752438D01*
X127874877Y-75752438D02*
X127970115Y-75704819D01*
X127970115Y-75704819D02*
X128065353Y-75704819D01*
X128398687Y-76704819D02*
X128398687Y-76038152D01*
X128398687Y-75704819D02*
X128351068Y-75752438D01*
X128351068Y-75752438D02*
X128398687Y-75800057D01*
X128398687Y-75800057D02*
X128446306Y-75752438D01*
X128446306Y-75752438D02*
X128398687Y-75704819D01*
X128398687Y-75704819D02*
X128398687Y-75800057D01*
X129303448Y-76038152D02*
X129303448Y-76847676D01*
X129303448Y-76847676D02*
X129255829Y-76942914D01*
X129255829Y-76942914D02*
X129208210Y-76990533D01*
X129208210Y-76990533D02*
X129112972Y-77038152D01*
X129112972Y-77038152D02*
X128970115Y-77038152D01*
X128970115Y-77038152D02*
X128874877Y-76990533D01*
X129303448Y-76657200D02*
X129208210Y-76704819D01*
X129208210Y-76704819D02*
X129017734Y-76704819D01*
X129017734Y-76704819D02*
X128922496Y-76657200D01*
X128922496Y-76657200D02*
X128874877Y-76609580D01*
X128874877Y-76609580D02*
X128827258Y-76514342D01*
X128827258Y-76514342D02*
X128827258Y-76228628D01*
X128827258Y-76228628D02*
X128874877Y-76133390D01*
X128874877Y-76133390D02*
X128922496Y-76085771D01*
X128922496Y-76085771D02*
X129017734Y-76038152D01*
X129017734Y-76038152D02*
X129208210Y-76038152D01*
X129208210Y-76038152D02*
X129303448Y-76085771D01*
X130541544Y-76704819D02*
X130541544Y-76038152D01*
X130541544Y-75704819D02*
X130493925Y-75752438D01*
X130493925Y-75752438D02*
X130541544Y-75800057D01*
X130541544Y-75800057D02*
X130589163Y-75752438D01*
X130589163Y-75752438D02*
X130541544Y-75704819D01*
X130541544Y-75704819D02*
X130541544Y-75800057D01*
X131017734Y-76038152D02*
X131017734Y-76704819D01*
X131017734Y-76133390D02*
X131065353Y-76085771D01*
X131065353Y-76085771D02*
X131160591Y-76038152D01*
X131160591Y-76038152D02*
X131303448Y-76038152D01*
X131303448Y-76038152D02*
X131398686Y-76085771D01*
X131398686Y-76085771D02*
X131446305Y-76181009D01*
X131446305Y-76181009D02*
X131446305Y-76704819D01*
X131779639Y-76038152D02*
X132160591Y-76038152D01*
X131922496Y-76704819D02*
X131922496Y-75847676D01*
X131922496Y-75847676D02*
X131970115Y-75752438D01*
X131970115Y-75752438D02*
X132065353Y-75704819D01*
X132065353Y-75704819D02*
X132160591Y-75704819D01*
X132636782Y-76704819D02*
X132541544Y-76657200D01*
X132541544Y-76657200D02*
X132493925Y-76609580D01*
X132493925Y-76609580D02*
X132446306Y-76514342D01*
X132446306Y-76514342D02*
X132446306Y-76228628D01*
X132446306Y-76228628D02*
X132493925Y-76133390D01*
X132493925Y-76133390D02*
X132541544Y-76085771D01*
X132541544Y-76085771D02*
X132636782Y-76038152D01*
X132636782Y-76038152D02*
X132779639Y-76038152D01*
X132779639Y-76038152D02*
X132874877Y-76085771D01*
X132874877Y-76085771D02*
X132922496Y-76133390D01*
X132922496Y-76133390D02*
X132970115Y-76228628D01*
X132970115Y-76228628D02*
X132970115Y-76514342D01*
X132970115Y-76514342D02*
X132922496Y-76609580D01*
X132922496Y-76609580D02*
X132874877Y-76657200D01*
X132874877Y-76657200D02*
X132779639Y-76704819D01*
X132779639Y-76704819D02*
X132636782Y-76704819D01*
X167865588Y-67474875D02*
X167294160Y-67474875D01*
X167579874Y-67474875D02*
X167579874Y-66474875D01*
X167579874Y-66474875D02*
X167484636Y-66617732D01*
X167484636Y-66617732D02*
X167389398Y-66712970D01*
X167389398Y-66712970D02*
X167294160Y-66760589D01*
X168770350Y-66474875D02*
X168294160Y-66474875D01*
X168294160Y-66474875D02*
X168246541Y-66951065D01*
X168246541Y-66951065D02*
X168294160Y-66903446D01*
X168294160Y-66903446D02*
X168389398Y-66855827D01*
X168389398Y-66855827D02*
X168627493Y-66855827D01*
X168627493Y-66855827D02*
X168722731Y-66903446D01*
X168722731Y-66903446D02*
X168770350Y-66951065D01*
X168770350Y-66951065D02*
X168817969Y-67046303D01*
X168817969Y-67046303D02*
X168817969Y-67284398D01*
X168817969Y-67284398D02*
X168770350Y-67379636D01*
X168770350Y-67379636D02*
X168722731Y-67427256D01*
X168722731Y-67427256D02*
X168627493Y-67474875D01*
X168627493Y-67474875D02*
X168389398Y-67474875D01*
X168389398Y-67474875D02*
X168294160Y-67427256D01*
X168294160Y-67427256D02*
X168246541Y-67379636D01*
X169103684Y-66474875D02*
X169437017Y-67474875D01*
X169437017Y-67474875D02*
X169770350Y-66474875D01*
X167341779Y-69084819D02*
X167341779Y-68084819D01*
X167341779Y-68084819D02*
X167675112Y-68799104D01*
X167675112Y-68799104D02*
X168008445Y-68084819D01*
X168008445Y-68084819D02*
X168008445Y-69084819D01*
X168437017Y-68799104D02*
X168913207Y-68799104D01*
X168341779Y-69084819D02*
X168675112Y-68084819D01*
X168675112Y-68084819D02*
X169008445Y-69084819D01*
X169246541Y-68084819D02*
X169913207Y-69084819D01*
X169913207Y-68084819D02*
X169246541Y-69084819D01*
X115605112Y-66021009D02*
X115747969Y-66068628D01*
X115747969Y-66068628D02*
X115795588Y-66116247D01*
X115795588Y-66116247D02*
X115843207Y-66211485D01*
X115843207Y-66211485D02*
X115843207Y-66354342D01*
X115843207Y-66354342D02*
X115795588Y-66449580D01*
X115795588Y-66449580D02*
X115747969Y-66497200D01*
X115747969Y-66497200D02*
X115652731Y-66544819D01*
X115652731Y-66544819D02*
X115271779Y-66544819D01*
X115271779Y-66544819D02*
X115271779Y-65544819D01*
X115271779Y-65544819D02*
X115605112Y-65544819D01*
X115605112Y-65544819D02*
X115700350Y-65592438D01*
X115700350Y-65592438D02*
X115747969Y-65640057D01*
X115747969Y-65640057D02*
X115795588Y-65735295D01*
X115795588Y-65735295D02*
X115795588Y-65830533D01*
X115795588Y-65830533D02*
X115747969Y-65925771D01*
X115747969Y-65925771D02*
X115700350Y-65973390D01*
X115700350Y-65973390D02*
X115605112Y-66021009D01*
X115605112Y-66021009D02*
X115271779Y-66021009D01*
X116700350Y-66544819D02*
X116700350Y-66021009D01*
X116700350Y-66021009D02*
X116652731Y-65925771D01*
X116652731Y-65925771D02*
X116557493Y-65878152D01*
X116557493Y-65878152D02*
X116367017Y-65878152D01*
X116367017Y-65878152D02*
X116271779Y-65925771D01*
X116700350Y-66497200D02*
X116605112Y-66544819D01*
X116605112Y-66544819D02*
X116367017Y-66544819D01*
X116367017Y-66544819D02*
X116271779Y-66497200D01*
X116271779Y-66497200D02*
X116224160Y-66401961D01*
X116224160Y-66401961D02*
X116224160Y-66306723D01*
X116224160Y-66306723D02*
X116271779Y-66211485D01*
X116271779Y-66211485D02*
X116367017Y-66163866D01*
X116367017Y-66163866D02*
X116605112Y-66163866D01*
X116605112Y-66163866D02*
X116700350Y-66116247D01*
X117176541Y-66544819D02*
X117176541Y-65878152D01*
X117176541Y-66068628D02*
X117224160Y-65973390D01*
X117224160Y-65973390D02*
X117271779Y-65925771D01*
X117271779Y-65925771D02*
X117367017Y-65878152D01*
X117367017Y-65878152D02*
X117462255Y-65878152D01*
X117795589Y-66544819D02*
X117795589Y-65878152D01*
X117795589Y-66068628D02*
X117843208Y-65973390D01*
X117843208Y-65973390D02*
X117890827Y-65925771D01*
X117890827Y-65925771D02*
X117986065Y-65878152D01*
X117986065Y-65878152D02*
X118081303Y-65878152D01*
X118795589Y-66497200D02*
X118700351Y-66544819D01*
X118700351Y-66544819D02*
X118509875Y-66544819D01*
X118509875Y-66544819D02*
X118414637Y-66497200D01*
X118414637Y-66497200D02*
X118367018Y-66401961D01*
X118367018Y-66401961D02*
X118367018Y-66021009D01*
X118367018Y-66021009D02*
X118414637Y-65925771D01*
X118414637Y-65925771D02*
X118509875Y-65878152D01*
X118509875Y-65878152D02*
X118700351Y-65878152D01*
X118700351Y-65878152D02*
X118795589Y-65925771D01*
X118795589Y-65925771D02*
X118843208Y-66021009D01*
X118843208Y-66021009D02*
X118843208Y-66116247D01*
X118843208Y-66116247D02*
X118367018Y-66211485D01*
X119414637Y-66544819D02*
X119319399Y-66497200D01*
X119319399Y-66497200D02*
X119271780Y-66401961D01*
X119271780Y-66401961D02*
X119271780Y-65544819D01*
X120509876Y-66259104D02*
X120986066Y-66259104D01*
X120414638Y-66544819D02*
X120747971Y-65544819D01*
X120747971Y-65544819D02*
X121081304Y-66544819D01*
X121843209Y-66544819D02*
X121843209Y-65544819D01*
X121843209Y-66497200D02*
X121747971Y-66544819D01*
X121747971Y-66544819D02*
X121557495Y-66544819D01*
X121557495Y-66544819D02*
X121462257Y-66497200D01*
X121462257Y-66497200D02*
X121414638Y-66449580D01*
X121414638Y-66449580D02*
X121367019Y-66354342D01*
X121367019Y-66354342D02*
X121367019Y-66068628D01*
X121367019Y-66068628D02*
X121414638Y-65973390D01*
X121414638Y-65973390D02*
X121462257Y-65925771D01*
X121462257Y-65925771D02*
X121557495Y-65878152D01*
X121557495Y-65878152D02*
X121747971Y-65878152D01*
X121747971Y-65878152D02*
X121843209Y-65925771D01*
X122747971Y-66544819D02*
X122747971Y-66021009D01*
X122747971Y-66021009D02*
X122700352Y-65925771D01*
X122700352Y-65925771D02*
X122605114Y-65878152D01*
X122605114Y-65878152D02*
X122414638Y-65878152D01*
X122414638Y-65878152D02*
X122319400Y-65925771D01*
X122747971Y-66497200D02*
X122652733Y-66544819D01*
X122652733Y-66544819D02*
X122414638Y-66544819D01*
X122414638Y-66544819D02*
X122319400Y-66497200D01*
X122319400Y-66497200D02*
X122271781Y-66401961D01*
X122271781Y-66401961D02*
X122271781Y-66306723D01*
X122271781Y-66306723D02*
X122319400Y-66211485D01*
X122319400Y-66211485D02*
X122414638Y-66163866D01*
X122414638Y-66163866D02*
X122652733Y-66163866D01*
X122652733Y-66163866D02*
X122747971Y-66116247D01*
X123224162Y-65878152D02*
X123224162Y-66878152D01*
X123224162Y-65925771D02*
X123319400Y-65878152D01*
X123319400Y-65878152D02*
X123509876Y-65878152D01*
X123509876Y-65878152D02*
X123605114Y-65925771D01*
X123605114Y-65925771D02*
X123652733Y-65973390D01*
X123652733Y-65973390D02*
X123700352Y-66068628D01*
X123700352Y-66068628D02*
X123700352Y-66354342D01*
X123700352Y-66354342D02*
X123652733Y-66449580D01*
X123652733Y-66449580D02*
X123605114Y-66497200D01*
X123605114Y-66497200D02*
X123509876Y-66544819D01*
X123509876Y-66544819D02*
X123319400Y-66544819D01*
X123319400Y-66544819D02*
X123224162Y-66497200D01*
X123986067Y-65878152D02*
X124367019Y-65878152D01*
X124128924Y-65544819D02*
X124128924Y-66401961D01*
X124128924Y-66401961D02*
X124176543Y-66497200D01*
X124176543Y-66497200D02*
X124271781Y-66544819D01*
X124271781Y-66544819D02*
X124367019Y-66544819D01*
X125081305Y-66497200D02*
X124986067Y-66544819D01*
X124986067Y-66544819D02*
X124795591Y-66544819D01*
X124795591Y-66544819D02*
X124700353Y-66497200D01*
X124700353Y-66497200D02*
X124652734Y-66401961D01*
X124652734Y-66401961D02*
X124652734Y-66021009D01*
X124652734Y-66021009D02*
X124700353Y-65925771D01*
X124700353Y-65925771D02*
X124795591Y-65878152D01*
X124795591Y-65878152D02*
X124986067Y-65878152D01*
X124986067Y-65878152D02*
X125081305Y-65925771D01*
X125081305Y-65925771D02*
X125128924Y-66021009D01*
X125128924Y-66021009D02*
X125128924Y-66116247D01*
X125128924Y-66116247D02*
X124652734Y-66211485D01*
X125557496Y-66544819D02*
X125557496Y-65878152D01*
X125557496Y-66068628D02*
X125605115Y-65973390D01*
X125605115Y-65973390D02*
X125652734Y-65925771D01*
X125652734Y-65925771D02*
X125747972Y-65878152D01*
X125747972Y-65878152D02*
X125843210Y-65878152D01*
X126795592Y-65544819D02*
X127128925Y-66544819D01*
X127128925Y-66544819D02*
X127462258Y-65544819D01*
X128319401Y-66544819D02*
X127747973Y-66544819D01*
X128033687Y-66544819D02*
X128033687Y-65544819D01*
X128033687Y-65544819D02*
X127938449Y-65687676D01*
X127938449Y-65687676D02*
X127843211Y-65782914D01*
X127843211Y-65782914D02*
X127747973Y-65830533D01*
X128747973Y-66449580D02*
X128795592Y-66497200D01*
X128795592Y-66497200D02*
X128747973Y-66544819D01*
X128747973Y-66544819D02*
X128700354Y-66497200D01*
X128700354Y-66497200D02*
X128747973Y-66449580D01*
X128747973Y-66449580D02*
X128747973Y-66544819D01*
X129414639Y-65544819D02*
X129509877Y-65544819D01*
X129509877Y-65544819D02*
X129605115Y-65592438D01*
X129605115Y-65592438D02*
X129652734Y-65640057D01*
X129652734Y-65640057D02*
X129700353Y-65735295D01*
X129700353Y-65735295D02*
X129747972Y-65925771D01*
X129747972Y-65925771D02*
X129747972Y-66163866D01*
X129747972Y-66163866D02*
X129700353Y-66354342D01*
X129700353Y-66354342D02*
X129652734Y-66449580D01*
X129652734Y-66449580D02*
X129605115Y-66497200D01*
X129605115Y-66497200D02*
X129509877Y-66544819D01*
X129509877Y-66544819D02*
X129414639Y-66544819D01*
X129414639Y-66544819D02*
X129319401Y-66497200D01*
X129319401Y-66497200D02*
X129271782Y-66449580D01*
X129271782Y-66449580D02*
X129224163Y-66354342D01*
X129224163Y-66354342D02*
X129176544Y-66163866D01*
X129176544Y-66163866D02*
X129176544Y-65925771D01*
X129176544Y-65925771D02*
X129224163Y-65735295D01*
X129224163Y-65735295D02*
X129271782Y-65640057D01*
X129271782Y-65640057D02*
X129319401Y-65592438D01*
X129319401Y-65592438D02*
X129414639Y-65544819D01*
X155876666Y-75654819D02*
X155876666Y-76369104D01*
X155876666Y-76369104D02*
X155829047Y-76511961D01*
X155829047Y-76511961D02*
X155733809Y-76607200D01*
X155733809Y-76607200D02*
X155590952Y-76654819D01*
X155590952Y-76654819D02*
X155495714Y-76654819D01*
X156829047Y-75654819D02*
X156352857Y-75654819D01*
X156352857Y-75654819D02*
X156305238Y-76131009D01*
X156305238Y-76131009D02*
X156352857Y-76083390D01*
X156352857Y-76083390D02*
X156448095Y-76035771D01*
X156448095Y-76035771D02*
X156686190Y-76035771D01*
X156686190Y-76035771D02*
X156781428Y-76083390D01*
X156781428Y-76083390D02*
X156829047Y-76131009D01*
X156829047Y-76131009D02*
X156876666Y-76226247D01*
X156876666Y-76226247D02*
X156876666Y-76464342D01*
X156876666Y-76464342D02*
X156829047Y-76559580D01*
X156829047Y-76559580D02*
X156781428Y-76607200D01*
X156781428Y-76607200D02*
X156686190Y-76654819D01*
X156686190Y-76654819D02*
X156448095Y-76654819D01*
X156448095Y-76654819D02*
X156352857Y-76607200D01*
X156352857Y-76607200D02*
X156305238Y-76559580D01*
X107188095Y-65834819D02*
X107188095Y-66644342D01*
X107188095Y-66644342D02*
X107235714Y-66739580D01*
X107235714Y-66739580D02*
X107283333Y-66787200D01*
X107283333Y-66787200D02*
X107378571Y-66834819D01*
X107378571Y-66834819D02*
X107569047Y-66834819D01*
X107569047Y-66834819D02*
X107664285Y-66787200D01*
X107664285Y-66787200D02*
X107711904Y-66739580D01*
X107711904Y-66739580D02*
X107759523Y-66644342D01*
X107759523Y-66644342D02*
X107759523Y-65834819D01*
X108759523Y-66834819D02*
X108188095Y-66834819D01*
X108473809Y-66834819D02*
X108473809Y-65834819D01*
X108473809Y-65834819D02*
X108378571Y-65977676D01*
X108378571Y-65977676D02*
X108283333Y-66072914D01*
X108283333Y-66072914D02*
X108188095Y-66120533D01*
D11*
%TO.C,J3*%
X123130000Y-67250000D02*
X124460000Y-67250000D01*
X123130000Y-68580000D02*
X123130000Y-67250000D01*
X123130000Y-69850000D02*
X123130000Y-74990000D01*
X123130000Y-69850000D02*
X125730000Y-69850000D01*
X123130000Y-74990000D02*
X128330000Y-74990000D01*
X125730000Y-67250000D02*
X128330000Y-67250000D01*
X125730000Y-69850000D02*
X125730000Y-67250000D01*
X128330000Y-67250000D02*
X128330000Y-74990000D01*
%TO.C,J5*%
X153610000Y-67250000D02*
X154940000Y-67250000D01*
X153610000Y-68580000D02*
X153610000Y-67250000D01*
X153610000Y-69850000D02*
X153610000Y-74990000D01*
X153610000Y-69850000D02*
X156210000Y-69850000D01*
X153610000Y-74990000D02*
X158810000Y-74990000D01*
X156210000Y-67250000D02*
X158810000Y-67250000D01*
X156210000Y-69850000D02*
X156210000Y-67250000D01*
X158810000Y-67250000D02*
X158810000Y-74990000D01*
%TO.C,U1*%
X106100000Y-67470000D02*
X109860000Y-67470000D01*
X106100000Y-74290000D02*
X109860000Y-74290000D01*
X109860000Y-67470000D02*
X109860000Y-68730000D01*
X109860000Y-74290000D02*
X109860000Y-73030000D01*
X104820000Y-67570000D02*
X104580000Y-67240000D01*
X105060000Y-67240000D01*
X104820000Y-67570000D01*
G36*
X104820000Y-67570000D02*
G01*
X104580000Y-67240000D01*
X105060000Y-67240000D01*
X104820000Y-67570000D01*
G37*
%TO.C,U2*%
X139985000Y-65920000D02*
X139985000Y-67730000D01*
X139985000Y-76320000D02*
X139985000Y-74510000D01*
X141485000Y-65920000D02*
X139985000Y-65920000D01*
X141485000Y-76320000D02*
X139985000Y-76320000D01*
X137422500Y-67730000D02*
X137182500Y-67400000D01*
X137662500Y-67400000D01*
X137422500Y-67730000D01*
G36*
X137422500Y-67730000D02*
G01*
X137182500Y-67400000D01*
X137662500Y-67400000D01*
X137422500Y-67730000D01*
G37*
%TO.C,J1*%
X170560000Y-76710000D02*
X170560000Y-74970000D01*
X170800000Y-67270000D02*
X172800000Y-67270000D01*
X170800000Y-70070000D02*
X170800000Y-67270000D01*
X170800000Y-76470000D02*
X170800000Y-73670000D01*
X172300000Y-76710000D02*
X170560000Y-76710000D01*
X176400000Y-67270000D02*
X185400000Y-67270000D01*
X185400000Y-67270000D02*
X185400000Y-76470000D01*
X185400000Y-76470000D02*
X170800000Y-76470000D01*
%TD*%
M02*
