%TF.GenerationSoftware,KiCad,Pcbnew,8.0.4*%
%TF.CreationDate,2024-12-20T10:33:03-05:00*%
%TF.ProjectId,BarrelJackAdapter,42617272-656c-44a6-9163-6b4164617074,rev?*%
%TF.SameCoordinates,Original*%
%TF.FileFunction,Legend,Top*%
%TF.FilePolarity,Positive*%
%FSLAX46Y46*%
G04 Gerber Fmt 4.6, Leading zero omitted, Abs format (unit mm)*
G04 Created by KiCad (PCBNEW 8.0.4) date 2024-12-20 10:33:03*
%MOMM*%
%LPD*%
G01*
G04 APERTURE LIST*
%ADD10C,0.150000*%
%ADD11C,0.120000*%
G04 APERTURE END LIST*
D10*
X184010541Y-45224819D02*
X184629588Y-45224819D01*
X184629588Y-45224819D02*
X184296255Y-45605771D01*
X184296255Y-45605771D02*
X184439112Y-45605771D01*
X184439112Y-45605771D02*
X184534350Y-45653390D01*
X184534350Y-45653390D02*
X184581969Y-45701009D01*
X184581969Y-45701009D02*
X184629588Y-45796247D01*
X184629588Y-45796247D02*
X184629588Y-46034342D01*
X184629588Y-46034342D02*
X184581969Y-46129580D01*
X184581969Y-46129580D02*
X184534350Y-46177200D01*
X184534350Y-46177200D02*
X184439112Y-46224819D01*
X184439112Y-46224819D02*
X184153398Y-46224819D01*
X184153398Y-46224819D02*
X184058160Y-46177200D01*
X184058160Y-46177200D02*
X184010541Y-46129580D01*
X185058160Y-46129580D02*
X185105779Y-46177200D01*
X185105779Y-46177200D02*
X185058160Y-46224819D01*
X185058160Y-46224819D02*
X185010541Y-46177200D01*
X185010541Y-46177200D02*
X185058160Y-46129580D01*
X185058160Y-46129580D02*
X185058160Y-46224819D01*
X185439112Y-45224819D02*
X186058159Y-45224819D01*
X186058159Y-45224819D02*
X185724826Y-45605771D01*
X185724826Y-45605771D02*
X185867683Y-45605771D01*
X185867683Y-45605771D02*
X185962921Y-45653390D01*
X185962921Y-45653390D02*
X186010540Y-45701009D01*
X186010540Y-45701009D02*
X186058159Y-45796247D01*
X186058159Y-45796247D02*
X186058159Y-46034342D01*
X186058159Y-46034342D02*
X186010540Y-46129580D01*
X186010540Y-46129580D02*
X185962921Y-46177200D01*
X185962921Y-46177200D02*
X185867683Y-46224819D01*
X185867683Y-46224819D02*
X185581969Y-46224819D01*
X185581969Y-46224819D02*
X185486731Y-46177200D01*
X185486731Y-46177200D02*
X185439112Y-46129580D01*
X186343874Y-45224819D02*
X186677207Y-46224819D01*
X186677207Y-46224819D02*
X187010540Y-45224819D01*
X184216922Y-37604819D02*
X184550255Y-38604819D01*
X184550255Y-38604819D02*
X184883588Y-37604819D01*
X185216922Y-38604819D02*
X185216922Y-37938152D01*
X185216922Y-37604819D02*
X185169303Y-37652438D01*
X185169303Y-37652438D02*
X185216922Y-37700057D01*
X185216922Y-37700057D02*
X185264541Y-37652438D01*
X185264541Y-37652438D02*
X185216922Y-37604819D01*
X185216922Y-37604819D02*
X185216922Y-37700057D01*
X185693112Y-37938152D02*
X185693112Y-38604819D01*
X185693112Y-38033390D02*
X185740731Y-37985771D01*
X185740731Y-37985771D02*
X185835969Y-37938152D01*
X185835969Y-37938152D02*
X185978826Y-37938152D01*
X185978826Y-37938152D02*
X186074064Y-37985771D01*
X186074064Y-37985771D02*
X186121683Y-38081009D01*
X186121683Y-38081009D02*
X186121683Y-38604819D01*
X184502588Y-40319438D02*
X184407350Y-40271819D01*
X184407350Y-40271819D02*
X184264493Y-40271819D01*
X184264493Y-40271819D02*
X184121636Y-40319438D01*
X184121636Y-40319438D02*
X184026398Y-40414676D01*
X184026398Y-40414676D02*
X183978779Y-40509914D01*
X183978779Y-40509914D02*
X183931160Y-40700390D01*
X183931160Y-40700390D02*
X183931160Y-40843247D01*
X183931160Y-40843247D02*
X183978779Y-41033723D01*
X183978779Y-41033723D02*
X184026398Y-41128961D01*
X184026398Y-41128961D02*
X184121636Y-41224200D01*
X184121636Y-41224200D02*
X184264493Y-41271819D01*
X184264493Y-41271819D02*
X184359731Y-41271819D01*
X184359731Y-41271819D02*
X184502588Y-41224200D01*
X184502588Y-41224200D02*
X184550207Y-41176580D01*
X184550207Y-41176580D02*
X184550207Y-40843247D01*
X184550207Y-40843247D02*
X184359731Y-40843247D01*
X184978779Y-41271819D02*
X184978779Y-40271819D01*
X184978779Y-40271819D02*
X185550207Y-41271819D01*
X185550207Y-41271819D02*
X185550207Y-40271819D01*
X186026398Y-41271819D02*
X186026398Y-40271819D01*
X186026398Y-40271819D02*
X186264493Y-40271819D01*
X186264493Y-40271819D02*
X186407350Y-40319438D01*
X186407350Y-40319438D02*
X186502588Y-40414676D01*
X186502588Y-40414676D02*
X186550207Y-40509914D01*
X186550207Y-40509914D02*
X186597826Y-40700390D01*
X186597826Y-40700390D02*
X186597826Y-40843247D01*
X186597826Y-40843247D02*
X186550207Y-41033723D01*
X186550207Y-41033723D02*
X186502588Y-41128961D01*
X186502588Y-41128961D02*
X186407350Y-41224200D01*
X186407350Y-41224200D02*
X186264493Y-41271819D01*
X186264493Y-41271819D02*
X186026398Y-41271819D01*
X185089969Y-42684819D02*
X184613779Y-42684819D01*
X184613779Y-42684819D02*
X184566160Y-43161009D01*
X184566160Y-43161009D02*
X184613779Y-43113390D01*
X184613779Y-43113390D02*
X184709017Y-43065771D01*
X184709017Y-43065771D02*
X184947112Y-43065771D01*
X184947112Y-43065771D02*
X185042350Y-43113390D01*
X185042350Y-43113390D02*
X185089969Y-43161009D01*
X185089969Y-43161009D02*
X185137588Y-43256247D01*
X185137588Y-43256247D02*
X185137588Y-43494342D01*
X185137588Y-43494342D02*
X185089969Y-43589580D01*
X185089969Y-43589580D02*
X185042350Y-43637200D01*
X185042350Y-43637200D02*
X184947112Y-43684819D01*
X184947112Y-43684819D02*
X184709017Y-43684819D01*
X184709017Y-43684819D02*
X184613779Y-43637200D01*
X184613779Y-43637200D02*
X184566160Y-43589580D01*
X185423303Y-42684819D02*
X185756636Y-43684819D01*
X185756636Y-43684819D02*
X186089969Y-42684819D01*
X178701819Y-74799649D02*
X178701819Y-74990125D01*
X178701819Y-74990125D02*
X178749438Y-75085363D01*
X178749438Y-75085363D02*
X178797057Y-75132982D01*
X178797057Y-75132982D02*
X178939914Y-75228220D01*
X178939914Y-75228220D02*
X179130390Y-75275839D01*
X179130390Y-75275839D02*
X179511342Y-75275839D01*
X179511342Y-75275839D02*
X179606580Y-75228220D01*
X179606580Y-75228220D02*
X179654200Y-75180601D01*
X179654200Y-75180601D02*
X179701819Y-75085363D01*
X179701819Y-75085363D02*
X179701819Y-74894887D01*
X179701819Y-74894887D02*
X179654200Y-74799649D01*
X179654200Y-74799649D02*
X179606580Y-74752030D01*
X179606580Y-74752030D02*
X179511342Y-74704411D01*
X179511342Y-74704411D02*
X179273247Y-74704411D01*
X179273247Y-74704411D02*
X179178009Y-74752030D01*
X179178009Y-74752030D02*
X179130390Y-74799649D01*
X179130390Y-74799649D02*
X179082771Y-74894887D01*
X179082771Y-74894887D02*
X179082771Y-75085363D01*
X179082771Y-75085363D02*
X179130390Y-75180601D01*
X179130390Y-75180601D02*
X179178009Y-75228220D01*
X179178009Y-75228220D02*
X179273247Y-75275839D01*
X179320866Y-74275839D02*
X179320866Y-73513935D01*
X179701819Y-72513935D02*
X179701819Y-73085363D01*
X179701819Y-72799649D02*
X178701819Y-72799649D01*
X178701819Y-72799649D02*
X178844676Y-72894887D01*
X178844676Y-72894887D02*
X178939914Y-72990125D01*
X178939914Y-72990125D02*
X178987533Y-73085363D01*
X178797057Y-72132982D02*
X178749438Y-72085363D01*
X178749438Y-72085363D02*
X178701819Y-71990125D01*
X178701819Y-71990125D02*
X178701819Y-71752030D01*
X178701819Y-71752030D02*
X178749438Y-71656792D01*
X178749438Y-71656792D02*
X178797057Y-71609173D01*
X178797057Y-71609173D02*
X178892295Y-71561554D01*
X178892295Y-71561554D02*
X178987533Y-71561554D01*
X178987533Y-71561554D02*
X179130390Y-71609173D01*
X179130390Y-71609173D02*
X179701819Y-72180601D01*
X179701819Y-72180601D02*
X179701819Y-71561554D01*
X178701819Y-71275839D02*
X179701819Y-70942506D01*
X179701819Y-70942506D02*
X178701819Y-70609173D01*
X183134095Y-63379819D02*
X183134095Y-64189342D01*
X183134095Y-64189342D02*
X183181714Y-64284580D01*
X183181714Y-64284580D02*
X183229333Y-64332200D01*
X183229333Y-64332200D02*
X183324571Y-64379819D01*
X183324571Y-64379819D02*
X183515047Y-64379819D01*
X183515047Y-64379819D02*
X183610285Y-64332200D01*
X183610285Y-64332200D02*
X183657904Y-64284580D01*
X183657904Y-64284580D02*
X183705523Y-64189342D01*
X183705523Y-64189342D02*
X183705523Y-63379819D01*
X184705523Y-64379819D02*
X184134095Y-64379819D01*
X184419809Y-64379819D02*
X184419809Y-63379819D01*
X184419809Y-63379819D02*
X184324571Y-63522676D01*
X184324571Y-63522676D02*
X184229333Y-63617914D01*
X184229333Y-63617914D02*
X184134095Y-63665533D01*
X180086095Y-48730819D02*
X180086095Y-49540342D01*
X180086095Y-49540342D02*
X180133714Y-49635580D01*
X180133714Y-49635580D02*
X180181333Y-49683200D01*
X180181333Y-49683200D02*
X180276571Y-49730819D01*
X180276571Y-49730819D02*
X180467047Y-49730819D01*
X180467047Y-49730819D02*
X180562285Y-49683200D01*
X180562285Y-49683200D02*
X180609904Y-49635580D01*
X180609904Y-49635580D02*
X180657523Y-49540342D01*
X180657523Y-49540342D02*
X180657523Y-48730819D01*
X181086095Y-48826057D02*
X181133714Y-48778438D01*
X181133714Y-48778438D02*
X181228952Y-48730819D01*
X181228952Y-48730819D02*
X181467047Y-48730819D01*
X181467047Y-48730819D02*
X181562285Y-48778438D01*
X181562285Y-48778438D02*
X181609904Y-48826057D01*
X181609904Y-48826057D02*
X181657523Y-48921295D01*
X181657523Y-48921295D02*
X181657523Y-49016533D01*
X181657523Y-49016533D02*
X181609904Y-49159390D01*
X181609904Y-49159390D02*
X181038476Y-49730819D01*
X181038476Y-49730819D02*
X181657523Y-49730819D01*
X188896666Y-35224819D02*
X188896666Y-35939104D01*
X188896666Y-35939104D02*
X188849047Y-36081961D01*
X188849047Y-36081961D02*
X188753809Y-36177200D01*
X188753809Y-36177200D02*
X188610952Y-36224819D01*
X188610952Y-36224819D02*
X188515714Y-36224819D01*
X189801428Y-35558152D02*
X189801428Y-36224819D01*
X189563333Y-35177200D02*
X189325238Y-35891485D01*
X189325238Y-35891485D02*
X189944285Y-35891485D01*
X181207580Y-64985666D02*
X181255200Y-65033285D01*
X181255200Y-65033285D02*
X181302819Y-65176142D01*
X181302819Y-65176142D02*
X181302819Y-65271380D01*
X181302819Y-65271380D02*
X181255200Y-65414237D01*
X181255200Y-65414237D02*
X181159961Y-65509475D01*
X181159961Y-65509475D02*
X181064723Y-65557094D01*
X181064723Y-65557094D02*
X180874247Y-65604713D01*
X180874247Y-65604713D02*
X180731390Y-65604713D01*
X180731390Y-65604713D02*
X180540914Y-65557094D01*
X180540914Y-65557094D02*
X180445676Y-65509475D01*
X180445676Y-65509475D02*
X180350438Y-65414237D01*
X180350438Y-65414237D02*
X180302819Y-65271380D01*
X180302819Y-65271380D02*
X180302819Y-65176142D01*
X180302819Y-65176142D02*
X180350438Y-65033285D01*
X180350438Y-65033285D02*
X180398057Y-64985666D01*
X180302819Y-64652332D02*
X180302819Y-64033285D01*
X180302819Y-64033285D02*
X180683771Y-64366618D01*
X180683771Y-64366618D02*
X180683771Y-64223761D01*
X180683771Y-64223761D02*
X180731390Y-64128523D01*
X180731390Y-64128523D02*
X180779009Y-64080904D01*
X180779009Y-64080904D02*
X180874247Y-64033285D01*
X180874247Y-64033285D02*
X181112342Y-64033285D01*
X181112342Y-64033285D02*
X181207580Y-64080904D01*
X181207580Y-64080904D02*
X181255200Y-64128523D01*
X181255200Y-64128523D02*
X181302819Y-64223761D01*
X181302819Y-64223761D02*
X181302819Y-64509475D01*
X181302819Y-64509475D02*
X181255200Y-64604713D01*
X181255200Y-64604713D02*
X181207580Y-64652332D01*
X190624819Y-77713333D02*
X191339104Y-77713333D01*
X191339104Y-77713333D02*
X191481961Y-77760952D01*
X191481961Y-77760952D02*
X191577200Y-77856190D01*
X191577200Y-77856190D02*
X191624819Y-77999047D01*
X191624819Y-77999047D02*
X191624819Y-78094285D01*
X191624819Y-76713333D02*
X191624819Y-77284761D01*
X191624819Y-76999047D02*
X190624819Y-76999047D01*
X190624819Y-76999047D02*
X190767676Y-77094285D01*
X190767676Y-77094285D02*
X190862914Y-77189523D01*
X190862914Y-77189523D02*
X190910533Y-77284761D01*
X187176580Y-64985666D02*
X187224200Y-65033285D01*
X187224200Y-65033285D02*
X187271819Y-65176142D01*
X187271819Y-65176142D02*
X187271819Y-65271380D01*
X187271819Y-65271380D02*
X187224200Y-65414237D01*
X187224200Y-65414237D02*
X187128961Y-65509475D01*
X187128961Y-65509475D02*
X187033723Y-65557094D01*
X187033723Y-65557094D02*
X186843247Y-65604713D01*
X186843247Y-65604713D02*
X186700390Y-65604713D01*
X186700390Y-65604713D02*
X186509914Y-65557094D01*
X186509914Y-65557094D02*
X186414676Y-65509475D01*
X186414676Y-65509475D02*
X186319438Y-65414237D01*
X186319438Y-65414237D02*
X186271819Y-65271380D01*
X186271819Y-65271380D02*
X186271819Y-65176142D01*
X186271819Y-65176142D02*
X186319438Y-65033285D01*
X186319438Y-65033285D02*
X186367057Y-64985666D01*
X187271819Y-64033285D02*
X187271819Y-64604713D01*
X187271819Y-64318999D02*
X186271819Y-64318999D01*
X186271819Y-64318999D02*
X186414676Y-64414237D01*
X186414676Y-64414237D02*
X186509914Y-64509475D01*
X186509914Y-64509475D02*
X186557533Y-64604713D01*
X179538333Y-52524819D02*
X179205000Y-52048628D01*
X178966905Y-52524819D02*
X178966905Y-51524819D01*
X178966905Y-51524819D02*
X179347857Y-51524819D01*
X179347857Y-51524819D02*
X179443095Y-51572438D01*
X179443095Y-51572438D02*
X179490714Y-51620057D01*
X179490714Y-51620057D02*
X179538333Y-51715295D01*
X179538333Y-51715295D02*
X179538333Y-51858152D01*
X179538333Y-51858152D02*
X179490714Y-51953390D01*
X179490714Y-51953390D02*
X179443095Y-52001009D01*
X179443095Y-52001009D02*
X179347857Y-52048628D01*
X179347857Y-52048628D02*
X178966905Y-52048628D01*
X180490714Y-52524819D02*
X179919286Y-52524819D01*
X180205000Y-52524819D02*
X180205000Y-51524819D01*
X180205000Y-51524819D02*
X180109762Y-51667676D01*
X180109762Y-51667676D02*
X180014524Y-51762914D01*
X180014524Y-51762914D02*
X179919286Y-51810533D01*
X181276666Y-35224819D02*
X181276666Y-35939104D01*
X181276666Y-35939104D02*
X181229047Y-36081961D01*
X181229047Y-36081961D02*
X181133809Y-36177200D01*
X181133809Y-36177200D02*
X180990952Y-36224819D01*
X180990952Y-36224819D02*
X180895714Y-36224819D01*
X181705238Y-35320057D02*
X181752857Y-35272438D01*
X181752857Y-35272438D02*
X181848095Y-35224819D01*
X181848095Y-35224819D02*
X182086190Y-35224819D01*
X182086190Y-35224819D02*
X182181428Y-35272438D01*
X182181428Y-35272438D02*
X182229047Y-35320057D01*
X182229047Y-35320057D02*
X182276666Y-35415295D01*
X182276666Y-35415295D02*
X182276666Y-35510533D01*
X182276666Y-35510533D02*
X182229047Y-35653390D01*
X182229047Y-35653390D02*
X181657619Y-36224819D01*
X181657619Y-36224819D02*
X182276666Y-36224819D01*
X189444333Y-54510580D02*
X189396714Y-54558200D01*
X189396714Y-54558200D02*
X189253857Y-54605819D01*
X189253857Y-54605819D02*
X189158619Y-54605819D01*
X189158619Y-54605819D02*
X189015762Y-54558200D01*
X189015762Y-54558200D02*
X188920524Y-54462961D01*
X188920524Y-54462961D02*
X188872905Y-54367723D01*
X188872905Y-54367723D02*
X188825286Y-54177247D01*
X188825286Y-54177247D02*
X188825286Y-54034390D01*
X188825286Y-54034390D02*
X188872905Y-53843914D01*
X188872905Y-53843914D02*
X188920524Y-53748676D01*
X188920524Y-53748676D02*
X189015762Y-53653438D01*
X189015762Y-53653438D02*
X189158619Y-53605819D01*
X189158619Y-53605819D02*
X189253857Y-53605819D01*
X189253857Y-53605819D02*
X189396714Y-53653438D01*
X189396714Y-53653438D02*
X189444333Y-53701057D01*
X190301476Y-53939152D02*
X190301476Y-54605819D01*
X190063381Y-53558200D02*
X189825286Y-54272485D01*
X189825286Y-54272485D02*
X190444333Y-54272485D01*
X190968333Y-49127580D02*
X190920714Y-49175200D01*
X190920714Y-49175200D02*
X190777857Y-49222819D01*
X190777857Y-49222819D02*
X190682619Y-49222819D01*
X190682619Y-49222819D02*
X190539762Y-49175200D01*
X190539762Y-49175200D02*
X190444524Y-49079961D01*
X190444524Y-49079961D02*
X190396905Y-48984723D01*
X190396905Y-48984723D02*
X190349286Y-48794247D01*
X190349286Y-48794247D02*
X190349286Y-48651390D01*
X190349286Y-48651390D02*
X190396905Y-48460914D01*
X190396905Y-48460914D02*
X190444524Y-48365676D01*
X190444524Y-48365676D02*
X190539762Y-48270438D01*
X190539762Y-48270438D02*
X190682619Y-48222819D01*
X190682619Y-48222819D02*
X190777857Y-48222819D01*
X190777857Y-48222819D02*
X190920714Y-48270438D01*
X190920714Y-48270438D02*
X190968333Y-48318057D01*
X191825476Y-48222819D02*
X191635000Y-48222819D01*
X191635000Y-48222819D02*
X191539762Y-48270438D01*
X191539762Y-48270438D02*
X191492143Y-48318057D01*
X191492143Y-48318057D02*
X191396905Y-48460914D01*
X191396905Y-48460914D02*
X191349286Y-48651390D01*
X191349286Y-48651390D02*
X191349286Y-49032342D01*
X191349286Y-49032342D02*
X191396905Y-49127580D01*
X191396905Y-49127580D02*
X191444524Y-49175200D01*
X191444524Y-49175200D02*
X191539762Y-49222819D01*
X191539762Y-49222819D02*
X191730238Y-49222819D01*
X191730238Y-49222819D02*
X191825476Y-49175200D01*
X191825476Y-49175200D02*
X191873095Y-49127580D01*
X191873095Y-49127580D02*
X191920714Y-49032342D01*
X191920714Y-49032342D02*
X191920714Y-48794247D01*
X191920714Y-48794247D02*
X191873095Y-48699009D01*
X191873095Y-48699009D02*
X191825476Y-48651390D01*
X191825476Y-48651390D02*
X191730238Y-48603771D01*
X191730238Y-48603771D02*
X191539762Y-48603771D01*
X191539762Y-48603771D02*
X191444524Y-48651390D01*
X191444524Y-48651390D02*
X191396905Y-48699009D01*
X191396905Y-48699009D02*
X191349286Y-48794247D01*
X189698333Y-52524819D02*
X189365000Y-52048628D01*
X189126905Y-52524819D02*
X189126905Y-51524819D01*
X189126905Y-51524819D02*
X189507857Y-51524819D01*
X189507857Y-51524819D02*
X189603095Y-51572438D01*
X189603095Y-51572438D02*
X189650714Y-51620057D01*
X189650714Y-51620057D02*
X189698333Y-51715295D01*
X189698333Y-51715295D02*
X189698333Y-51858152D01*
X189698333Y-51858152D02*
X189650714Y-51953390D01*
X189650714Y-51953390D02*
X189603095Y-52001009D01*
X189603095Y-52001009D02*
X189507857Y-52048628D01*
X189507857Y-52048628D02*
X189126905Y-52048628D01*
X190079286Y-51620057D02*
X190126905Y-51572438D01*
X190126905Y-51572438D02*
X190222143Y-51524819D01*
X190222143Y-51524819D02*
X190460238Y-51524819D01*
X190460238Y-51524819D02*
X190555476Y-51572438D01*
X190555476Y-51572438D02*
X190603095Y-51620057D01*
X190603095Y-51620057D02*
X190650714Y-51715295D01*
X190650714Y-51715295D02*
X190650714Y-51810533D01*
X190650714Y-51810533D02*
X190603095Y-51953390D01*
X190603095Y-51953390D02*
X190031667Y-52524819D01*
X190031667Y-52524819D02*
X190650714Y-52524819D01*
X181316333Y-54732819D02*
X180840143Y-54732819D01*
X180840143Y-54732819D02*
X180840143Y-53732819D01*
X182173476Y-54732819D02*
X181602048Y-54732819D01*
X181887762Y-54732819D02*
X181887762Y-53732819D01*
X181887762Y-53732819D02*
X181792524Y-53875676D01*
X181792524Y-53875676D02*
X181697286Y-53970914D01*
X181697286Y-53970914D02*
X181602048Y-54018533D01*
X185507333Y-54510580D02*
X185459714Y-54558200D01*
X185459714Y-54558200D02*
X185316857Y-54605819D01*
X185316857Y-54605819D02*
X185221619Y-54605819D01*
X185221619Y-54605819D02*
X185078762Y-54558200D01*
X185078762Y-54558200D02*
X184983524Y-54462961D01*
X184983524Y-54462961D02*
X184935905Y-54367723D01*
X184935905Y-54367723D02*
X184888286Y-54177247D01*
X184888286Y-54177247D02*
X184888286Y-54034390D01*
X184888286Y-54034390D02*
X184935905Y-53843914D01*
X184935905Y-53843914D02*
X184983524Y-53748676D01*
X184983524Y-53748676D02*
X185078762Y-53653438D01*
X185078762Y-53653438D02*
X185221619Y-53605819D01*
X185221619Y-53605819D02*
X185316857Y-53605819D01*
X185316857Y-53605819D02*
X185459714Y-53653438D01*
X185459714Y-53653438D02*
X185507333Y-53701057D01*
X186412095Y-53605819D02*
X185935905Y-53605819D01*
X185935905Y-53605819D02*
X185888286Y-54082009D01*
X185888286Y-54082009D02*
X185935905Y-54034390D01*
X185935905Y-54034390D02*
X186031143Y-53986771D01*
X186031143Y-53986771D02*
X186269238Y-53986771D01*
X186269238Y-53986771D02*
X186364476Y-54034390D01*
X186364476Y-54034390D02*
X186412095Y-54082009D01*
X186412095Y-54082009D02*
X186459714Y-54177247D01*
X186459714Y-54177247D02*
X186459714Y-54415342D01*
X186459714Y-54415342D02*
X186412095Y-54510580D01*
X186412095Y-54510580D02*
X186364476Y-54558200D01*
X186364476Y-54558200D02*
X186269238Y-54605819D01*
X186269238Y-54605819D02*
X186031143Y-54605819D01*
X186031143Y-54605819D02*
X185935905Y-54558200D01*
X185935905Y-54558200D02*
X185888286Y-54510580D01*
X189589580Y-64985666D02*
X189637200Y-65033285D01*
X189637200Y-65033285D02*
X189684819Y-65176142D01*
X189684819Y-65176142D02*
X189684819Y-65271380D01*
X189684819Y-65271380D02*
X189637200Y-65414237D01*
X189637200Y-65414237D02*
X189541961Y-65509475D01*
X189541961Y-65509475D02*
X189446723Y-65557094D01*
X189446723Y-65557094D02*
X189256247Y-65604713D01*
X189256247Y-65604713D02*
X189113390Y-65604713D01*
X189113390Y-65604713D02*
X188922914Y-65557094D01*
X188922914Y-65557094D02*
X188827676Y-65509475D01*
X188827676Y-65509475D02*
X188732438Y-65414237D01*
X188732438Y-65414237D02*
X188684819Y-65271380D01*
X188684819Y-65271380D02*
X188684819Y-65176142D01*
X188684819Y-65176142D02*
X188732438Y-65033285D01*
X188732438Y-65033285D02*
X188780057Y-64985666D01*
X188780057Y-64604713D02*
X188732438Y-64557094D01*
X188732438Y-64557094D02*
X188684819Y-64461856D01*
X188684819Y-64461856D02*
X188684819Y-64223761D01*
X188684819Y-64223761D02*
X188732438Y-64128523D01*
X188732438Y-64128523D02*
X188780057Y-64080904D01*
X188780057Y-64080904D02*
X188875295Y-64033285D01*
X188875295Y-64033285D02*
X188970533Y-64033285D01*
X188970533Y-64033285D02*
X189113390Y-64080904D01*
X189113390Y-64080904D02*
X189684819Y-64652332D01*
X189684819Y-64652332D02*
X189684819Y-64033285D01*
D11*
%TO.C,U1*%
X183246000Y-61125000D02*
X184546000Y-61125000D01*
X183246000Y-62925000D02*
X184346000Y-62925000D01*
X184596000Y-63205000D02*
X184596000Y-62925000D01*
X184876000Y-62925000D01*
X184596000Y-63205000D01*
G36*
X184596000Y-63205000D02*
G01*
X184596000Y-62925000D01*
X184876000Y-62925000D01*
X184596000Y-63205000D01*
G37*
%TO.C,U2*%
X185150000Y-48020000D02*
X183150000Y-48020000D01*
X185150000Y-50240000D02*
X183150000Y-50240000D01*
X185710000Y-50420000D02*
X185710000Y-50140000D01*
X185990000Y-50140000D01*
X185710000Y-50420000D01*
G36*
X185710000Y-50420000D02*
G01*
X185710000Y-50140000D01*
X185990000Y-50140000D01*
X185710000Y-50420000D01*
G37*
%TO.C,J4*%
X187900000Y-36770000D02*
X189230000Y-36770000D01*
X187900000Y-38100000D02*
X187900000Y-36770000D01*
X187900000Y-39370000D02*
X187900000Y-47050000D01*
X187900000Y-39370000D02*
X190560000Y-39370000D01*
X187900000Y-47050000D02*
X190560000Y-47050000D01*
X190560000Y-39370000D02*
X190560000Y-47050000D01*
%TO.C,C3*%
X180338000Y-62011420D02*
X180338000Y-62292580D01*
X181358000Y-62011420D02*
X181358000Y-62292580D01*
%TO.C,J1*%
X180580000Y-67890000D02*
X182320000Y-67890000D01*
X180580000Y-69630000D02*
X180580000Y-67890000D01*
X180820000Y-68130000D02*
X183620000Y-68130000D01*
X180820000Y-82730000D02*
X180820000Y-68130000D01*
X187220000Y-68130000D02*
X190020000Y-68130000D01*
X190020000Y-68130000D02*
X190020000Y-70130000D01*
X190020000Y-73730000D02*
X190020000Y-82730000D01*
X190020000Y-82730000D02*
X180820000Y-82730000D01*
%TO.C,C1*%
X186082000Y-62286252D02*
X186082000Y-61763748D01*
X187552000Y-62286252D02*
X187552000Y-61763748D01*
%TO.C,R1*%
X182896742Y-51469500D02*
X183371258Y-51469500D01*
X182896742Y-52514500D02*
X183371258Y-52514500D01*
%TO.C,J2*%
X180280000Y-36770000D02*
X181610000Y-36770000D01*
X180280000Y-38100000D02*
X180280000Y-36770000D01*
X180280000Y-39370000D02*
X180280000Y-47050000D01*
X180280000Y-39370000D02*
X182940000Y-39370000D01*
X180280000Y-47050000D02*
X182940000Y-47050000D01*
X182940000Y-39370000D02*
X182940000Y-47050000D01*
%TO.C,C4*%
X188251000Y-56614748D02*
X188251000Y-58037252D01*
X190971000Y-56614748D02*
X190971000Y-58037252D01*
%TO.C,C6*%
X187959420Y-48258000D02*
X188240580Y-48258000D01*
X187959420Y-49278000D02*
X188240580Y-49278000D01*
%TO.C,R2*%
X186261742Y-51469500D02*
X186736258Y-51469500D01*
X186261742Y-52514500D02*
X186736258Y-52514500D01*
%TO.C,L1*%
X179329000Y-59480000D02*
X179329000Y-55172000D01*
X183637000Y-55172000D02*
X183637000Y-59480000D01*
%TO.C,C5*%
X184441000Y-56614748D02*
X184441000Y-58037252D01*
X187161000Y-56614748D02*
X187161000Y-58037252D01*
%TO.C,C2*%
X188720000Y-62165580D02*
X188720000Y-61884420D01*
X189740000Y-62165580D02*
X189740000Y-61884420D01*
%TD*%
M02*
