%TF.GenerationSoftware,KiCad,Pcbnew,8.0.4*%
%TF.CreationDate,2024-12-20T10:33:03-05:00*%
%TF.ProjectId,BarrelJackAdapter,42617272-656c-44a6-9163-6b4164617074,rev?*%
%TF.SameCoordinates,Original*%
%TF.FileFunction,Copper,L4,Bot*%
%TF.FilePolarity,Positive*%
%FSLAX46Y46*%
G04 Gerber Fmt 4.6, Leading zero omitted, Abs format (unit mm)*
G04 Created by KiCad (PCBNEW 8.0.4) date 2024-12-20 10:33:03*
%MOMM*%
%LPD*%
G01*
G04 APERTURE LIST*
%TA.AperFunction,ComponentPad*%
%ADD10R,1.700000X1.700000*%
%TD*%
%TA.AperFunction,ComponentPad*%
%ADD11O,1.700000X1.700000*%
%TD*%
%TA.AperFunction,ComponentPad*%
%ADD12R,2.600000X2.600000*%
%TD*%
%TA.AperFunction,ComponentPad*%
%ADD13C,2.600000*%
%TD*%
%TA.AperFunction,ViaPad*%
%ADD14C,0.500000*%
%TD*%
%TA.AperFunction,ViaPad*%
%ADD15C,0.350000*%
%TD*%
%TA.AperFunction,Conductor*%
%ADD16C,0.635000*%
%TD*%
G04 APERTURE END LIST*
D10*
%TO.P,J4,1,Pin_1*%
%TO.N,+9V*%
X189230000Y-38100000D03*
D11*
%TO.P,J4,2,Pin_2*%
%TO.N,GND*%
X189230000Y-40640000D03*
%TO.P,J4,3,Pin_3*%
%TO.N,+5V*%
X189230000Y-43180000D03*
%TO.P,J4,4,Pin_4*%
%TO.N,+3.3V*%
X189230000Y-45720000D03*
%TD*%
D12*
%TO.P,J1,1*%
%TO.N,+9V*%
X185420000Y-68930000D03*
D13*
%TO.P,J1,2*%
%TO.N,GND*%
X185420000Y-74930000D03*
%TO.P,J1,3*%
X190120000Y-71930000D03*
%TD*%
D10*
%TO.P,J2,1,Pin_1*%
%TO.N,+9V*%
X181610000Y-38100000D03*
D11*
%TO.P,J2,2,Pin_2*%
%TO.N,GND*%
X181610000Y-40640000D03*
%TO.P,J2,3,Pin_3*%
%TO.N,+5V*%
X181610000Y-43180000D03*
%TO.P,J2,4,Pin_4*%
%TO.N,+3.3V*%
X181610000Y-45720000D03*
%TD*%
D14*
%TO.N,GND*%
X186182000Y-49784000D03*
D15*
X184150000Y-49149000D03*
D14*
X186359800Y-57632600D03*
X188264800Y-51993800D03*
X187629800Y-57632600D03*
D15*
X184150000Y-48641000D03*
D14*
X185089800Y-57632600D03*
D15*
X188722000Y-48768000D03*
D14*
X190169800Y-57632600D03*
X188899800Y-57632600D03*
D15*
X184150000Y-49657000D03*
D14*
%TO.N,+5V*%
X185801000Y-55851000D03*
X181559200Y-51993800D03*
%TO.N,/SW*%
X180848000Y-62927000D03*
X185572400Y-62026800D03*
%TO.N,/FB*%
X184810400Y-51993800D03*
X182143400Y-62484000D03*
%TD*%
D16*
%TO.N,+3.3V*%
X181610000Y-45720000D02*
X189230000Y-45720000D01*
%TD*%
%TA.AperFunction,Conductor*%
%TO.N,GND*%
G36*
X190503736Y-34365726D02*
G01*
X190789577Y-34383016D01*
X190804441Y-34384821D01*
X191082421Y-34435763D01*
X191096943Y-34439342D01*
X191366784Y-34523427D01*
X191380754Y-34528725D01*
X191638476Y-34644718D01*
X191651718Y-34651668D01*
X191893584Y-34797879D01*
X191905894Y-34806377D01*
X191995655Y-34876700D01*
X192128364Y-34980671D01*
X192139572Y-34990601D01*
X192339398Y-35190427D01*
X192349328Y-35201635D01*
X192523618Y-35424099D01*
X192532124Y-35436422D01*
X192678327Y-35678273D01*
X192685285Y-35691531D01*
X192801270Y-35949237D01*
X192806575Y-35963225D01*
X192850691Y-36104796D01*
X192890653Y-36233040D01*
X192894236Y-36247578D01*
X192945178Y-36525558D01*
X192946983Y-36540423D01*
X192964274Y-36826263D01*
X192964500Y-36833750D01*
X192964500Y-77466249D01*
X192964274Y-77473736D01*
X192946983Y-77759576D01*
X192945178Y-77774441D01*
X192894236Y-78052421D01*
X192890652Y-78066959D01*
X192806577Y-78336769D01*
X192801270Y-78350762D01*
X192685285Y-78608468D01*
X192678327Y-78621726D01*
X192532124Y-78863577D01*
X192523618Y-78875900D01*
X192349328Y-79098364D01*
X192339398Y-79109572D01*
X192139572Y-79309398D01*
X192128364Y-79319328D01*
X191905900Y-79493618D01*
X191893577Y-79502124D01*
X191651726Y-79648327D01*
X191638468Y-79655285D01*
X191380762Y-79771270D01*
X191366769Y-79776577D01*
X191098785Y-79860083D01*
X191096959Y-79860653D01*
X191082421Y-79864236D01*
X190804441Y-79915178D01*
X190789576Y-79916983D01*
X190503736Y-79934274D01*
X190496249Y-79934500D01*
X180343751Y-79934500D01*
X180336264Y-79934274D01*
X180050423Y-79916983D01*
X180035558Y-79915178D01*
X179757578Y-79864236D01*
X179743044Y-79860654D01*
X179473225Y-79776575D01*
X179459237Y-79771270D01*
X179201531Y-79655285D01*
X179188273Y-79648327D01*
X178946422Y-79502124D01*
X178934099Y-79493618D01*
X178711635Y-79319328D01*
X178700427Y-79309398D01*
X178500601Y-79109572D01*
X178490671Y-79098364D01*
X178316381Y-78875900D01*
X178307879Y-78863584D01*
X178161668Y-78621718D01*
X178154718Y-78608476D01*
X178038725Y-78350754D01*
X178033427Y-78336784D01*
X177949342Y-78066943D01*
X177945763Y-78052421D01*
X177894821Y-77774441D01*
X177893016Y-77759576D01*
X177875726Y-77473736D01*
X177875500Y-77466249D01*
X177875500Y-74929995D01*
X183614953Y-74929995D01*
X183614953Y-74930004D01*
X183635113Y-75199026D01*
X183635113Y-75199028D01*
X183695142Y-75462033D01*
X183695148Y-75462052D01*
X183793709Y-75713181D01*
X183793708Y-75713181D01*
X183928602Y-75946822D01*
X183982294Y-76014151D01*
X183982295Y-76014151D01*
X184704153Y-75292293D01*
X184711049Y-75308942D01*
X184798599Y-75439970D01*
X184910030Y-75551401D01*
X185041058Y-75638951D01*
X185057705Y-75645846D01*
X184334848Y-76368702D01*
X184517483Y-76493220D01*
X184517485Y-76493221D01*
X184760539Y-76610269D01*
X184760537Y-76610269D01*
X185018337Y-76689790D01*
X185018343Y-76689792D01*
X185285101Y-76729999D01*
X185285110Y-76730000D01*
X185554890Y-76730000D01*
X185554898Y-76729999D01*
X185821656Y-76689792D01*
X185821662Y-76689790D01*
X186079461Y-76610269D01*
X186322521Y-76493218D01*
X186505150Y-76368702D01*
X185782294Y-75645846D01*
X185798942Y-75638951D01*
X185929970Y-75551401D01*
X186041401Y-75439970D01*
X186128951Y-75308942D01*
X186135846Y-75292294D01*
X186857703Y-76014151D01*
X186857704Y-76014150D01*
X186911393Y-75946828D01*
X186911400Y-75946817D01*
X187046290Y-75713181D01*
X187144851Y-75462052D01*
X187144857Y-75462033D01*
X187204886Y-75199028D01*
X187204886Y-75199026D01*
X187225047Y-74930004D01*
X187225047Y-74929995D01*
X187204886Y-74660973D01*
X187204886Y-74660971D01*
X187144857Y-74397966D01*
X187144851Y-74397947D01*
X187046290Y-74146818D01*
X187046291Y-74146818D01*
X186911397Y-73913177D01*
X186857704Y-73845847D01*
X186135846Y-74567705D01*
X186128951Y-74551058D01*
X186041401Y-74420030D01*
X185929970Y-74308599D01*
X185798942Y-74221049D01*
X185782294Y-74214153D01*
X186505150Y-73491296D01*
X186322517Y-73366779D01*
X186322516Y-73366778D01*
X186079460Y-73249730D01*
X186079462Y-73249730D01*
X185821662Y-73170209D01*
X185821656Y-73170207D01*
X185554898Y-73130000D01*
X185285101Y-73130000D01*
X185018343Y-73170207D01*
X185018337Y-73170209D01*
X184760538Y-73249730D01*
X184517485Y-73366778D01*
X184517476Y-73366783D01*
X184334848Y-73491296D01*
X185057705Y-74214153D01*
X185041058Y-74221049D01*
X184910030Y-74308599D01*
X184798599Y-74420030D01*
X184711049Y-74551058D01*
X184704153Y-74567706D01*
X183982295Y-73845848D01*
X183928600Y-73913180D01*
X183793709Y-74146818D01*
X183695148Y-74397947D01*
X183695142Y-74397966D01*
X183635113Y-74660971D01*
X183635113Y-74660973D01*
X183614953Y-74929995D01*
X177875500Y-74929995D01*
X177875500Y-71929995D01*
X188314953Y-71929995D01*
X188314953Y-71930004D01*
X188335113Y-72199026D01*
X188335113Y-72199028D01*
X188395142Y-72462033D01*
X188395148Y-72462052D01*
X188493709Y-72713181D01*
X188493708Y-72713181D01*
X188628602Y-72946822D01*
X188682294Y-73014151D01*
X189404152Y-72292292D01*
X189411049Y-72308942D01*
X189498599Y-72439970D01*
X189610030Y-72551401D01*
X189741058Y-72638951D01*
X189757705Y-72645846D01*
X189034848Y-73368702D01*
X189217483Y-73493220D01*
X189217485Y-73493221D01*
X189460539Y-73610269D01*
X189460537Y-73610269D01*
X189718337Y-73689790D01*
X189718343Y-73689792D01*
X189985101Y-73729999D01*
X189985110Y-73730000D01*
X190254890Y-73730000D01*
X190254898Y-73729999D01*
X190521656Y-73689792D01*
X190521662Y-73689790D01*
X190779461Y-73610269D01*
X191022521Y-73493218D01*
X191205150Y-73368702D01*
X190482294Y-72645846D01*
X190498942Y-72638951D01*
X190629970Y-72551401D01*
X190741401Y-72439970D01*
X190828951Y-72308942D01*
X190835846Y-72292294D01*
X191557703Y-73014151D01*
X191557704Y-73014150D01*
X191611393Y-72946828D01*
X191611400Y-72946817D01*
X191746290Y-72713181D01*
X191844851Y-72462052D01*
X191844857Y-72462033D01*
X191904886Y-72199028D01*
X191904886Y-72199026D01*
X191925047Y-71930004D01*
X191925047Y-71929995D01*
X191904886Y-71660973D01*
X191904886Y-71660971D01*
X191844857Y-71397966D01*
X191844851Y-71397947D01*
X191746290Y-71146818D01*
X191746291Y-71146818D01*
X191611397Y-70913177D01*
X191557704Y-70845847D01*
X190835846Y-71567705D01*
X190828951Y-71551058D01*
X190741401Y-71420030D01*
X190629970Y-71308599D01*
X190498942Y-71221049D01*
X190482294Y-71214153D01*
X191205150Y-70491296D01*
X191022517Y-70366779D01*
X191022516Y-70366778D01*
X190779460Y-70249730D01*
X190779462Y-70249730D01*
X190521662Y-70170209D01*
X190521656Y-70170207D01*
X190254898Y-70130000D01*
X189985101Y-70130000D01*
X189718343Y-70170207D01*
X189718337Y-70170209D01*
X189460538Y-70249730D01*
X189217485Y-70366778D01*
X189217476Y-70366783D01*
X189034848Y-70491296D01*
X189757705Y-71214153D01*
X189741058Y-71221049D01*
X189610030Y-71308599D01*
X189498599Y-71420030D01*
X189411049Y-71551058D01*
X189404153Y-71567706D01*
X188682295Y-70845848D01*
X188628600Y-70913180D01*
X188493709Y-71146818D01*
X188395148Y-71397947D01*
X188395142Y-71397966D01*
X188335113Y-71660971D01*
X188335113Y-71660973D01*
X188314953Y-71929995D01*
X177875500Y-71929995D01*
X177875500Y-67582135D01*
X183619500Y-67582135D01*
X183619500Y-70277870D01*
X183619501Y-70277876D01*
X183625908Y-70337483D01*
X183676202Y-70472328D01*
X183676206Y-70472335D01*
X183762452Y-70587544D01*
X183762455Y-70587547D01*
X183877664Y-70673793D01*
X183877671Y-70673797D01*
X184012517Y-70724091D01*
X184012516Y-70724091D01*
X184019444Y-70724835D01*
X184072127Y-70730500D01*
X186767872Y-70730499D01*
X186827483Y-70724091D01*
X186962331Y-70673796D01*
X187077546Y-70587546D01*
X187163796Y-70472331D01*
X187214091Y-70337483D01*
X187220500Y-70277873D01*
X187220499Y-67582128D01*
X187214091Y-67522517D01*
X187163796Y-67387669D01*
X187163795Y-67387668D01*
X187163793Y-67387664D01*
X187077547Y-67272455D01*
X187077544Y-67272452D01*
X186962335Y-67186206D01*
X186962328Y-67186202D01*
X186827482Y-67135908D01*
X186827483Y-67135908D01*
X186767883Y-67129501D01*
X186767881Y-67129500D01*
X186767873Y-67129500D01*
X186767864Y-67129500D01*
X184072129Y-67129500D01*
X184072123Y-67129501D01*
X184012516Y-67135908D01*
X183877671Y-67186202D01*
X183877664Y-67186206D01*
X183762455Y-67272452D01*
X183762452Y-67272455D01*
X183676206Y-67387664D01*
X183676202Y-67387671D01*
X183625908Y-67522517D01*
X183619501Y-67582116D01*
X183619501Y-67582123D01*
X183619500Y-67582135D01*
X177875500Y-67582135D01*
X177875500Y-62926997D01*
X180092751Y-62926997D01*
X180092751Y-62927002D01*
X180111685Y-63095056D01*
X180167545Y-63254694D01*
X180167547Y-63254697D01*
X180257518Y-63397884D01*
X180257523Y-63397890D01*
X180377109Y-63517476D01*
X180377115Y-63517481D01*
X180520302Y-63607452D01*
X180520305Y-63607454D01*
X180520309Y-63607455D01*
X180520310Y-63607456D01*
X180592913Y-63632860D01*
X180679943Y-63663314D01*
X180847997Y-63682249D01*
X180848000Y-63682249D01*
X180848003Y-63682249D01*
X181016056Y-63663314D01*
X181016059Y-63663313D01*
X181175690Y-63607456D01*
X181175692Y-63607454D01*
X181175694Y-63607454D01*
X181175697Y-63607452D01*
X181318884Y-63517481D01*
X181318885Y-63517480D01*
X181318890Y-63517477D01*
X181438477Y-63397890D01*
X181528454Y-63254694D01*
X181528456Y-63254689D01*
X181533859Y-63239249D01*
X181554758Y-63179522D01*
X181595478Y-63122747D01*
X181660430Y-63096999D01*
X181728992Y-63110455D01*
X181737772Y-63115484D01*
X181815707Y-63164454D01*
X181815705Y-63164454D01*
X181815709Y-63164455D01*
X181815710Y-63164456D01*
X181858772Y-63179524D01*
X181975343Y-63220314D01*
X182143397Y-63239249D01*
X182143400Y-63239249D01*
X182143403Y-63239249D01*
X182311456Y-63220314D01*
X182311459Y-63220313D01*
X182471090Y-63164456D01*
X182471092Y-63164454D01*
X182471094Y-63164454D01*
X182471097Y-63164452D01*
X182614284Y-63074481D01*
X182614285Y-63074480D01*
X182614290Y-63074477D01*
X182733877Y-62954890D01*
X182733881Y-62954884D01*
X182823852Y-62811697D01*
X182823854Y-62811694D01*
X182823854Y-62811692D01*
X182823856Y-62811690D01*
X182879713Y-62652059D01*
X182879713Y-62652058D01*
X182879714Y-62652056D01*
X182898649Y-62484002D01*
X182898649Y-62483997D01*
X182879714Y-62315943D01*
X182823854Y-62156305D01*
X182823852Y-62156302D01*
X182742478Y-62026797D01*
X184817151Y-62026797D01*
X184817151Y-62026802D01*
X184836085Y-62194856D01*
X184891945Y-62354494D01*
X184891947Y-62354497D01*
X184981918Y-62497684D01*
X184981923Y-62497690D01*
X185101509Y-62617276D01*
X185101515Y-62617281D01*
X185244702Y-62707252D01*
X185244705Y-62707254D01*
X185244709Y-62707255D01*
X185244710Y-62707256D01*
X185317313Y-62732660D01*
X185404343Y-62763114D01*
X185572397Y-62782049D01*
X185572400Y-62782049D01*
X185572403Y-62782049D01*
X185740456Y-62763114D01*
X185752382Y-62758941D01*
X185900090Y-62707256D01*
X185900092Y-62707254D01*
X185900094Y-62707254D01*
X185900097Y-62707252D01*
X186043284Y-62617281D01*
X186043285Y-62617280D01*
X186043290Y-62617277D01*
X186162877Y-62497690D01*
X186171481Y-62483997D01*
X186252852Y-62354497D01*
X186252854Y-62354494D01*
X186252854Y-62354492D01*
X186252856Y-62354490D01*
X186308713Y-62194859D01*
X186308713Y-62194858D01*
X186308714Y-62194856D01*
X186327649Y-62026802D01*
X186327649Y-62026797D01*
X186308714Y-61858743D01*
X186252854Y-61699105D01*
X186252852Y-61699102D01*
X186162881Y-61555915D01*
X186162876Y-61555909D01*
X186043290Y-61436323D01*
X186043284Y-61436318D01*
X185900097Y-61346347D01*
X185900094Y-61346345D01*
X185740456Y-61290485D01*
X185572403Y-61271551D01*
X185572397Y-61271551D01*
X185404343Y-61290485D01*
X185244705Y-61346345D01*
X185244702Y-61346347D01*
X185101515Y-61436318D01*
X185101509Y-61436323D01*
X184981923Y-61555909D01*
X184981918Y-61555915D01*
X184891947Y-61699102D01*
X184891945Y-61699105D01*
X184836085Y-61858743D01*
X184817151Y-62026797D01*
X182742478Y-62026797D01*
X182733881Y-62013115D01*
X182733876Y-62013109D01*
X182614290Y-61893523D01*
X182614284Y-61893518D01*
X182471097Y-61803547D01*
X182471094Y-61803545D01*
X182311456Y-61747685D01*
X182143403Y-61728751D01*
X182143397Y-61728751D01*
X181975343Y-61747685D01*
X181815705Y-61803545D01*
X181815702Y-61803547D01*
X181672515Y-61893518D01*
X181672509Y-61893523D01*
X181552923Y-62013109D01*
X181552918Y-62013115D01*
X181462947Y-62156302D01*
X181462942Y-62156313D01*
X181436641Y-62231477D01*
X181395920Y-62288253D01*
X181330967Y-62314000D01*
X181262405Y-62300544D01*
X181253627Y-62295515D01*
X181175692Y-62246545D01*
X181175694Y-62246545D01*
X181016056Y-62190685D01*
X180848003Y-62171751D01*
X180847997Y-62171751D01*
X180679943Y-62190685D01*
X180520305Y-62246545D01*
X180520302Y-62246547D01*
X180377115Y-62336518D01*
X180377109Y-62336523D01*
X180257523Y-62456109D01*
X180257518Y-62456115D01*
X180167547Y-62599302D01*
X180167545Y-62599305D01*
X180111685Y-62758943D01*
X180092751Y-62926997D01*
X177875500Y-62926997D01*
X177875500Y-55850997D01*
X185045751Y-55850997D01*
X185045751Y-55851002D01*
X185064685Y-56019056D01*
X185120545Y-56178694D01*
X185120547Y-56178697D01*
X185210518Y-56321884D01*
X185210523Y-56321890D01*
X185330109Y-56441476D01*
X185330115Y-56441481D01*
X185473302Y-56531452D01*
X185473305Y-56531454D01*
X185473309Y-56531455D01*
X185473310Y-56531456D01*
X185545913Y-56556860D01*
X185632943Y-56587314D01*
X185800997Y-56606249D01*
X185801000Y-56606249D01*
X185801003Y-56606249D01*
X185969056Y-56587314D01*
X185969059Y-56587313D01*
X186128690Y-56531456D01*
X186128692Y-56531454D01*
X186128694Y-56531454D01*
X186128697Y-56531452D01*
X186271884Y-56441481D01*
X186271885Y-56441480D01*
X186271890Y-56441477D01*
X186391477Y-56321890D01*
X186481452Y-56178697D01*
X186481454Y-56178694D01*
X186481454Y-56178692D01*
X186481456Y-56178690D01*
X186537313Y-56019059D01*
X186537313Y-56019058D01*
X186537314Y-56019056D01*
X186556249Y-55851002D01*
X186556249Y-55850997D01*
X186537314Y-55682943D01*
X186481454Y-55523305D01*
X186481452Y-55523302D01*
X186391481Y-55380115D01*
X186391476Y-55380109D01*
X186271890Y-55260523D01*
X186271884Y-55260518D01*
X186128697Y-55170547D01*
X186128694Y-55170545D01*
X185969056Y-55114685D01*
X185801003Y-55095751D01*
X185800997Y-55095751D01*
X185632943Y-55114685D01*
X185473305Y-55170545D01*
X185473302Y-55170547D01*
X185330115Y-55260518D01*
X185330109Y-55260523D01*
X185210523Y-55380109D01*
X185210518Y-55380115D01*
X185120547Y-55523302D01*
X185120545Y-55523305D01*
X185064685Y-55682943D01*
X185045751Y-55850997D01*
X177875500Y-55850997D01*
X177875500Y-51993797D01*
X180803951Y-51993797D01*
X180803951Y-51993802D01*
X180822885Y-52161856D01*
X180878745Y-52321494D01*
X180878747Y-52321497D01*
X180968718Y-52464684D01*
X180968723Y-52464690D01*
X181088309Y-52584276D01*
X181088315Y-52584281D01*
X181231502Y-52674252D01*
X181231505Y-52674254D01*
X181231509Y-52674255D01*
X181231510Y-52674256D01*
X181304113Y-52699660D01*
X181391143Y-52730114D01*
X181559197Y-52749049D01*
X181559200Y-52749049D01*
X181559203Y-52749049D01*
X181727256Y-52730114D01*
X181727259Y-52730113D01*
X181886890Y-52674256D01*
X181886892Y-52674254D01*
X181886894Y-52674254D01*
X181886897Y-52674252D01*
X182030084Y-52584281D01*
X182030085Y-52584280D01*
X182030090Y-52584277D01*
X182149677Y-52464690D01*
X182239652Y-52321497D01*
X182239654Y-52321494D01*
X182239654Y-52321492D01*
X182239656Y-52321490D01*
X182295513Y-52161859D01*
X182295513Y-52161858D01*
X182295514Y-52161856D01*
X182314449Y-51993802D01*
X182314449Y-51993797D01*
X184055151Y-51993797D01*
X184055151Y-51993802D01*
X184074085Y-52161856D01*
X184129945Y-52321494D01*
X184129947Y-52321497D01*
X184219918Y-52464684D01*
X184219923Y-52464690D01*
X184339509Y-52584276D01*
X184339515Y-52584281D01*
X184482702Y-52674252D01*
X184482705Y-52674254D01*
X184482709Y-52674255D01*
X184482710Y-52674256D01*
X184555313Y-52699660D01*
X184642343Y-52730114D01*
X184810397Y-52749049D01*
X184810400Y-52749049D01*
X184810403Y-52749049D01*
X184978456Y-52730114D01*
X184978459Y-52730113D01*
X185138090Y-52674256D01*
X185138092Y-52674254D01*
X185138094Y-52674254D01*
X185138097Y-52674252D01*
X185281284Y-52584281D01*
X185281285Y-52584280D01*
X185281290Y-52584277D01*
X185400877Y-52464690D01*
X185490852Y-52321497D01*
X185490854Y-52321494D01*
X185490854Y-52321492D01*
X185490856Y-52321490D01*
X185546713Y-52161859D01*
X185546713Y-52161858D01*
X185546714Y-52161856D01*
X185565649Y-51993802D01*
X185565649Y-51993797D01*
X185546714Y-51825743D01*
X185490854Y-51666105D01*
X185490852Y-51666102D01*
X185400881Y-51522915D01*
X185400876Y-51522909D01*
X185281290Y-51403323D01*
X185281284Y-51403318D01*
X185138097Y-51313347D01*
X185138094Y-51313345D01*
X184978456Y-51257485D01*
X184810403Y-51238551D01*
X184810397Y-51238551D01*
X184642343Y-51257485D01*
X184482705Y-51313345D01*
X184482702Y-51313347D01*
X184339515Y-51403318D01*
X184339509Y-51403323D01*
X184219923Y-51522909D01*
X184219918Y-51522915D01*
X184129947Y-51666102D01*
X184129945Y-51666105D01*
X184074085Y-51825743D01*
X184055151Y-51993797D01*
X182314449Y-51993797D01*
X182295514Y-51825743D01*
X182239654Y-51666105D01*
X182239652Y-51666102D01*
X182149681Y-51522915D01*
X182149676Y-51522909D01*
X182030090Y-51403323D01*
X182030084Y-51403318D01*
X181886897Y-51313347D01*
X181886894Y-51313345D01*
X181727256Y-51257485D01*
X181559203Y-51238551D01*
X181559197Y-51238551D01*
X181391143Y-51257485D01*
X181231505Y-51313345D01*
X181231502Y-51313347D01*
X181088315Y-51403318D01*
X181088309Y-51403323D01*
X180968723Y-51522909D01*
X180968718Y-51522915D01*
X180878747Y-51666102D01*
X180878745Y-51666105D01*
X180822885Y-51825743D01*
X180803951Y-51993797D01*
X177875500Y-51993797D01*
X177875500Y-43179999D01*
X180254341Y-43179999D01*
X180254341Y-43180000D01*
X180274936Y-43415403D01*
X180274938Y-43415413D01*
X180336094Y-43643655D01*
X180336096Y-43643659D01*
X180336097Y-43643663D01*
X180435965Y-43857830D01*
X180435967Y-43857834D01*
X180571501Y-44051395D01*
X180571506Y-44051402D01*
X180738597Y-44218493D01*
X180738603Y-44218498D01*
X180924158Y-44348425D01*
X180967783Y-44403002D01*
X180974977Y-44472500D01*
X180943454Y-44534855D01*
X180924158Y-44551575D01*
X180738597Y-44681505D01*
X180571505Y-44848597D01*
X180435965Y-45042169D01*
X180435964Y-45042171D01*
X180336098Y-45256335D01*
X180336094Y-45256344D01*
X180274938Y-45484586D01*
X180274936Y-45484596D01*
X180254341Y-45719999D01*
X180254341Y-45720000D01*
X180274936Y-45955403D01*
X180274938Y-45955413D01*
X180336094Y-46183655D01*
X180336096Y-46183659D01*
X180336097Y-46183663D01*
X180435965Y-46397830D01*
X180435967Y-46397834D01*
X180544281Y-46552521D01*
X180571505Y-46591401D01*
X180738599Y-46758495D01*
X180835384Y-46826265D01*
X180932165Y-46894032D01*
X180932167Y-46894033D01*
X180932170Y-46894035D01*
X181146337Y-46993903D01*
X181374592Y-47055063D01*
X181562918Y-47071539D01*
X181609999Y-47075659D01*
X181610000Y-47075659D01*
X181610001Y-47075659D01*
X181649234Y-47072226D01*
X181845408Y-47055063D01*
X182073663Y-46993903D01*
X182287830Y-46894035D01*
X182481401Y-46758495D01*
X182648495Y-46591401D01*
X182648862Y-46590877D01*
X182649081Y-46590701D01*
X182651977Y-46587251D01*
X182652670Y-46587832D01*
X182703439Y-46547252D01*
X182750437Y-46538000D01*
X188089563Y-46538000D01*
X188156602Y-46557685D01*
X188187671Y-46587545D01*
X188188023Y-46587251D01*
X188190764Y-46590518D01*
X188191138Y-46590877D01*
X188191500Y-46591395D01*
X188191505Y-46591401D01*
X188358599Y-46758495D01*
X188455384Y-46826265D01*
X188552165Y-46894032D01*
X188552167Y-46894033D01*
X188552170Y-46894035D01*
X188766337Y-46993903D01*
X188994592Y-47055063D01*
X189182918Y-47071539D01*
X189229999Y-47075659D01*
X189230000Y-47075659D01*
X189230001Y-47075659D01*
X189269234Y-47072226D01*
X189465408Y-47055063D01*
X189693663Y-46993903D01*
X189907830Y-46894035D01*
X190101401Y-46758495D01*
X190268495Y-46591401D01*
X190404035Y-46397830D01*
X190503903Y-46183663D01*
X190565063Y-45955408D01*
X190585659Y-45720000D01*
X190565063Y-45484592D01*
X190503903Y-45256337D01*
X190404035Y-45042171D01*
X190299409Y-44892748D01*
X190268494Y-44848597D01*
X190101402Y-44681506D01*
X190101396Y-44681501D01*
X189915842Y-44551575D01*
X189872217Y-44496998D01*
X189865023Y-44427500D01*
X189896546Y-44365145D01*
X189915842Y-44348425D01*
X189938026Y-44332891D01*
X190101401Y-44218495D01*
X190268495Y-44051401D01*
X190404035Y-43857830D01*
X190503903Y-43643663D01*
X190565063Y-43415408D01*
X190585659Y-43180000D01*
X190565063Y-42944592D01*
X190503903Y-42716337D01*
X190404035Y-42502171D01*
X190268495Y-42308599D01*
X190268494Y-42308597D01*
X190101402Y-42141506D01*
X190101401Y-42141505D01*
X189915405Y-42011269D01*
X189871781Y-41956692D01*
X189864588Y-41887193D01*
X189896110Y-41824839D01*
X189915405Y-41808119D01*
X190101082Y-41678105D01*
X190268105Y-41511082D01*
X190403600Y-41317578D01*
X190503429Y-41103492D01*
X190503432Y-41103486D01*
X190560636Y-40890000D01*
X189663012Y-40890000D01*
X189695925Y-40832993D01*
X189730000Y-40705826D01*
X189730000Y-40574174D01*
X189695925Y-40447007D01*
X189663012Y-40390000D01*
X190560636Y-40390000D01*
X190560635Y-40389999D01*
X190503432Y-40176513D01*
X190503429Y-40176507D01*
X190403600Y-39962422D01*
X190403599Y-39962420D01*
X190268113Y-39768926D01*
X190268108Y-39768920D01*
X190146053Y-39646865D01*
X190112568Y-39585542D01*
X190117552Y-39515850D01*
X190159424Y-39459917D01*
X190190400Y-39443002D01*
X190322331Y-39393796D01*
X190437546Y-39307546D01*
X190523796Y-39192331D01*
X190574091Y-39057483D01*
X190580500Y-38997873D01*
X190580499Y-37202128D01*
X190574091Y-37142517D01*
X190523796Y-37007669D01*
X190523795Y-37007668D01*
X190523793Y-37007664D01*
X190437547Y-36892455D01*
X190437544Y-36892452D01*
X190322335Y-36806206D01*
X190322328Y-36806202D01*
X190187482Y-36755908D01*
X190187483Y-36755908D01*
X190127883Y-36749501D01*
X190127881Y-36749500D01*
X190127873Y-36749500D01*
X190127864Y-36749500D01*
X188332129Y-36749500D01*
X188332123Y-36749501D01*
X188272516Y-36755908D01*
X188137671Y-36806202D01*
X188137664Y-36806206D01*
X188022455Y-36892452D01*
X188022452Y-36892455D01*
X187936206Y-37007664D01*
X187936202Y-37007671D01*
X187885908Y-37142517D01*
X187879501Y-37202116D01*
X187879501Y-37202123D01*
X187879500Y-37202135D01*
X187879500Y-38997870D01*
X187879501Y-38997876D01*
X187885908Y-39057483D01*
X187936202Y-39192328D01*
X187936206Y-39192335D01*
X188022452Y-39307544D01*
X188022455Y-39307547D01*
X188137664Y-39393793D01*
X188137671Y-39393797D01*
X188137674Y-39393798D01*
X188269598Y-39443002D01*
X188325531Y-39484873D01*
X188349949Y-39550337D01*
X188335098Y-39618610D01*
X188313947Y-39646865D01*
X188191886Y-39768926D01*
X188056400Y-39962420D01*
X188056399Y-39962422D01*
X187956570Y-40176507D01*
X187956567Y-40176513D01*
X187899364Y-40389999D01*
X187899364Y-40390000D01*
X188796988Y-40390000D01*
X188764075Y-40447007D01*
X188730000Y-40574174D01*
X188730000Y-40705826D01*
X188764075Y-40832993D01*
X188796988Y-40890000D01*
X187899364Y-40890000D01*
X187956567Y-41103486D01*
X187956570Y-41103492D01*
X188056399Y-41317578D01*
X188191894Y-41511082D01*
X188358917Y-41678105D01*
X188544595Y-41808119D01*
X188588219Y-41862696D01*
X188595412Y-41932195D01*
X188563890Y-41994549D01*
X188544595Y-42011269D01*
X188358594Y-42141508D01*
X188191505Y-42308597D01*
X188055965Y-42502169D01*
X188055964Y-42502171D01*
X187956098Y-42716335D01*
X187956094Y-42716344D01*
X187894938Y-42944586D01*
X187894936Y-42944596D01*
X187874341Y-43179999D01*
X187874341Y-43180000D01*
X187894936Y-43415403D01*
X187894938Y-43415413D01*
X187956094Y-43643655D01*
X187956096Y-43643659D01*
X187956097Y-43643663D01*
X188055965Y-43857830D01*
X188055967Y-43857834D01*
X188191501Y-44051395D01*
X188191506Y-44051402D01*
X188358597Y-44218493D01*
X188358603Y-44218498D01*
X188544158Y-44348425D01*
X188587783Y-44403002D01*
X188594977Y-44472500D01*
X188563454Y-44534855D01*
X188544158Y-44551575D01*
X188358597Y-44681505D01*
X188191508Y-44848595D01*
X188191501Y-44848603D01*
X188191138Y-44849123D01*
X188190918Y-44849298D01*
X188188023Y-44852749D01*
X188187329Y-44852167D01*
X188136561Y-44892748D01*
X188089563Y-44902000D01*
X182750437Y-44902000D01*
X182683398Y-44882315D01*
X182652328Y-44852454D01*
X182651977Y-44852749D01*
X182649235Y-44849481D01*
X182648862Y-44849123D01*
X182648498Y-44848603D01*
X182648497Y-44848601D01*
X182648495Y-44848599D01*
X182481401Y-44681505D01*
X182481399Y-44681504D01*
X182481396Y-44681501D01*
X182295842Y-44551575D01*
X182252217Y-44496998D01*
X182245023Y-44427500D01*
X182276546Y-44365145D01*
X182295842Y-44348425D01*
X182318026Y-44332891D01*
X182481401Y-44218495D01*
X182648495Y-44051401D01*
X182784035Y-43857830D01*
X182883903Y-43643663D01*
X182945063Y-43415408D01*
X182965659Y-43180000D01*
X182945063Y-42944592D01*
X182883903Y-42716337D01*
X182784035Y-42502171D01*
X182648495Y-42308599D01*
X182648494Y-42308597D01*
X182481402Y-42141506D01*
X182481401Y-42141505D01*
X182295405Y-42011269D01*
X182251781Y-41956692D01*
X182244588Y-41887193D01*
X182276110Y-41824839D01*
X182295405Y-41808119D01*
X182481082Y-41678105D01*
X182648105Y-41511082D01*
X182783600Y-41317578D01*
X182883429Y-41103492D01*
X182883432Y-41103486D01*
X182940636Y-40890000D01*
X182043012Y-40890000D01*
X182075925Y-40832993D01*
X182110000Y-40705826D01*
X182110000Y-40574174D01*
X182075925Y-40447007D01*
X182043012Y-40390000D01*
X182940636Y-40390000D01*
X182940635Y-40389999D01*
X182883432Y-40176513D01*
X182883429Y-40176507D01*
X182783600Y-39962422D01*
X182783599Y-39962420D01*
X182648113Y-39768926D01*
X182648108Y-39768920D01*
X182526053Y-39646865D01*
X182492568Y-39585542D01*
X182497552Y-39515850D01*
X182539424Y-39459917D01*
X182570400Y-39443002D01*
X182702331Y-39393796D01*
X182817546Y-39307546D01*
X182903796Y-39192331D01*
X182954091Y-39057483D01*
X182960500Y-38997873D01*
X182960499Y-37202128D01*
X182954091Y-37142517D01*
X182903796Y-37007669D01*
X182903795Y-37007668D01*
X182903793Y-37007664D01*
X182817547Y-36892455D01*
X182817544Y-36892452D01*
X182702335Y-36806206D01*
X182702328Y-36806202D01*
X182567482Y-36755908D01*
X182567483Y-36755908D01*
X182507883Y-36749501D01*
X182507881Y-36749500D01*
X182507873Y-36749500D01*
X182507864Y-36749500D01*
X180712129Y-36749500D01*
X180712123Y-36749501D01*
X180652516Y-36755908D01*
X180517671Y-36806202D01*
X180517664Y-36806206D01*
X180402455Y-36892452D01*
X180402452Y-36892455D01*
X180316206Y-37007664D01*
X180316202Y-37007671D01*
X180265908Y-37142517D01*
X180259501Y-37202116D01*
X180259501Y-37202123D01*
X180259500Y-37202135D01*
X180259500Y-38997870D01*
X180259501Y-38997876D01*
X180265908Y-39057483D01*
X180316202Y-39192328D01*
X180316206Y-39192335D01*
X180402452Y-39307544D01*
X180402455Y-39307547D01*
X180517664Y-39393793D01*
X180517671Y-39393797D01*
X180517674Y-39393798D01*
X180649598Y-39443002D01*
X180705531Y-39484873D01*
X180729949Y-39550337D01*
X180715098Y-39618610D01*
X180693947Y-39646865D01*
X180571886Y-39768926D01*
X180436400Y-39962420D01*
X180436399Y-39962422D01*
X180336570Y-40176507D01*
X180336567Y-40176513D01*
X180279364Y-40389999D01*
X180279364Y-40390000D01*
X181176988Y-40390000D01*
X181144075Y-40447007D01*
X181110000Y-40574174D01*
X181110000Y-40705826D01*
X181144075Y-40832993D01*
X181176988Y-40890000D01*
X180279364Y-40890000D01*
X180336567Y-41103486D01*
X180336570Y-41103492D01*
X180436399Y-41317578D01*
X180571894Y-41511082D01*
X180738917Y-41678105D01*
X180924595Y-41808119D01*
X180968219Y-41862696D01*
X180975412Y-41932195D01*
X180943890Y-41994549D01*
X180924595Y-42011269D01*
X180738594Y-42141508D01*
X180571505Y-42308597D01*
X180435965Y-42502169D01*
X180435964Y-42502171D01*
X180336098Y-42716335D01*
X180336094Y-42716344D01*
X180274938Y-42944586D01*
X180274936Y-42944596D01*
X180254341Y-43179999D01*
X177875500Y-43179999D01*
X177875500Y-36833750D01*
X177875726Y-36826263D01*
X177876939Y-36806204D01*
X177893016Y-36540420D01*
X177894821Y-36525558D01*
X177945763Y-36247578D01*
X177949341Y-36233060D01*
X178033428Y-35963210D01*
X178038723Y-35949251D01*
X178154721Y-35691516D01*
X178161664Y-35678287D01*
X178307884Y-35436407D01*
X178316371Y-35424112D01*
X178490678Y-35201626D01*
X178500593Y-35190435D01*
X178700435Y-34990593D01*
X178711626Y-34980678D01*
X178934112Y-34806371D01*
X178946407Y-34797884D01*
X179188287Y-34651664D01*
X179201516Y-34644721D01*
X179459251Y-34528723D01*
X179473210Y-34523428D01*
X179743060Y-34439341D01*
X179757574Y-34435763D01*
X180035562Y-34384820D01*
X180050420Y-34383016D01*
X180336264Y-34365726D01*
X180343751Y-34365500D01*
X180364531Y-34365500D01*
X190475469Y-34365500D01*
X190496249Y-34365500D01*
X190503736Y-34365726D01*
G37*
%TD.AperFunction*%
%TD*%
M02*
