M48
; DRILL file {KiCad 8.0.4} date 2024-12-20T10:33:09-0500
; FORMAT={-:-/ absolute / inch / decimal}
; #@! TF.CreationDate,2024-12-20T10:33:09-05:00
; #@! TF.GenerationSoftware,Kicad,Pcbnew,8.0.4
; #@! TF.FileFunction,Plated,1,4,PTH
FMAT,2
INCH
; #@! TA.AperFunction,Plated,PTH,ViaDrill
T1C0.0079
; #@! TA.AperFunction,Plated,PTH,ViaDrill
T2C0.0118
; #@! TA.AperFunction,Plated,PTH,ComponentDrill
T3C0.0394
; #@! TA.AperFunction,Plated,PTH,ComponentDrill
T4C0.0630
%
G90
G05
T1
X7.25Y-1.915
X7.25Y-1.935
X7.25Y-1.955
X7.43Y-1.92
T2
X7.12Y-2.4774
X7.148Y-2.047
X7.171Y-2.46
X7.276Y-2.047
X7.287Y-2.269
X7.306Y-2.442
X7.315Y-2.1989
X7.33Y-1.96
X7.337Y-2.269
X7.387Y-2.269
X7.412Y-2.047
X7.437Y-2.269
X7.487Y-2.269
T3
X7.15Y-1.5
X7.15Y-1.6
X7.15Y-1.7
X7.15Y-1.8
X7.45Y-1.5
X7.45Y-1.6
X7.45Y-1.7
X7.45Y-1.8
T4
X7.3Y-2.7138
X7.3Y-2.95
X7.485Y-2.8319
M30
