%TF.GenerationSoftware,KiCad,Pcbnew,8.0.4*%
%TF.CreationDate,2024-12-20T10:33:04-05:00*%
%TF.ProjectId,BarrelJackAdapter,42617272-656c-44a6-9163-6b4164617074,rev?*%
%TF.SameCoordinates,Original*%
%TF.FileFunction,Legend,Bot*%
%TF.FilePolarity,Positive*%
%FSLAX46Y46*%
G04 Gerber Fmt 4.6, Leading zero omitted, Abs format (unit mm)*
G04 Created by KiCad (PCBNEW 8.0.4) date 2024-12-20 10:33:04*
%MOMM*%
%LPD*%
G01*
G04 APERTURE LIST*
%ADD10C,0.150000*%
%ADD11C,0.000000*%
G04 APERTURE END LIST*
D10*
X182603934Y-76799887D02*
X182556315Y-76657030D01*
X182556315Y-76657030D02*
X182508696Y-76609411D01*
X182508696Y-76609411D02*
X182413458Y-76561792D01*
X182413458Y-76561792D02*
X182270601Y-76561792D01*
X182270601Y-76561792D02*
X182175363Y-76609411D01*
X182175363Y-76609411D02*
X182127744Y-76657030D01*
X182127744Y-76657030D02*
X182080124Y-76752268D01*
X182080124Y-76752268D02*
X182080124Y-77133220D01*
X182080124Y-77133220D02*
X183080124Y-77133220D01*
X183080124Y-77133220D02*
X183080124Y-76799887D01*
X183080124Y-76799887D02*
X183032505Y-76704649D01*
X183032505Y-76704649D02*
X182984886Y-76657030D01*
X182984886Y-76657030D02*
X182889648Y-76609411D01*
X182889648Y-76609411D02*
X182794410Y-76609411D01*
X182794410Y-76609411D02*
X182699172Y-76657030D01*
X182699172Y-76657030D02*
X182651553Y-76704649D01*
X182651553Y-76704649D02*
X182603934Y-76799887D01*
X182603934Y-76799887D02*
X182603934Y-77133220D01*
X182080124Y-75704649D02*
X182603934Y-75704649D01*
X182603934Y-75704649D02*
X182699172Y-75752268D01*
X182699172Y-75752268D02*
X182746791Y-75847506D01*
X182746791Y-75847506D02*
X182746791Y-76037982D01*
X182746791Y-76037982D02*
X182699172Y-76133220D01*
X182127744Y-75704649D02*
X182080124Y-75799887D01*
X182080124Y-75799887D02*
X182080124Y-76037982D01*
X182080124Y-76037982D02*
X182127744Y-76133220D01*
X182127744Y-76133220D02*
X182222982Y-76180839D01*
X182222982Y-76180839D02*
X182318220Y-76180839D01*
X182318220Y-76180839D02*
X182413458Y-76133220D01*
X182413458Y-76133220D02*
X182461077Y-76037982D01*
X182461077Y-76037982D02*
X182461077Y-75799887D01*
X182461077Y-75799887D02*
X182508696Y-75704649D01*
X182080124Y-75228458D02*
X182746791Y-75228458D01*
X182556315Y-75228458D02*
X182651553Y-75180839D01*
X182651553Y-75180839D02*
X182699172Y-75133220D01*
X182699172Y-75133220D02*
X182746791Y-75037982D01*
X182746791Y-75037982D02*
X182746791Y-74942744D01*
X182080124Y-74609410D02*
X182746791Y-74609410D01*
X182556315Y-74609410D02*
X182651553Y-74561791D01*
X182651553Y-74561791D02*
X182699172Y-74514172D01*
X182699172Y-74514172D02*
X182746791Y-74418934D01*
X182746791Y-74418934D02*
X182746791Y-74323696D01*
X182127744Y-73609410D02*
X182080124Y-73704648D01*
X182080124Y-73704648D02*
X182080124Y-73895124D01*
X182080124Y-73895124D02*
X182127744Y-73990362D01*
X182127744Y-73990362D02*
X182222982Y-74037981D01*
X182222982Y-74037981D02*
X182603934Y-74037981D01*
X182603934Y-74037981D02*
X182699172Y-73990362D01*
X182699172Y-73990362D02*
X182746791Y-73895124D01*
X182746791Y-73895124D02*
X182746791Y-73704648D01*
X182746791Y-73704648D02*
X182699172Y-73609410D01*
X182699172Y-73609410D02*
X182603934Y-73561791D01*
X182603934Y-73561791D02*
X182508696Y-73561791D01*
X182508696Y-73561791D02*
X182413458Y-74037981D01*
X182080124Y-72990362D02*
X182127744Y-73085600D01*
X182127744Y-73085600D02*
X182222982Y-73133219D01*
X182222982Y-73133219D02*
X183080124Y-73133219D01*
X183080124Y-71561790D02*
X182365839Y-71561790D01*
X182365839Y-71561790D02*
X182222982Y-71609409D01*
X182222982Y-71609409D02*
X182127744Y-71704647D01*
X182127744Y-71704647D02*
X182080124Y-71847504D01*
X182080124Y-71847504D02*
X182080124Y-71942742D01*
X182080124Y-70657028D02*
X182603934Y-70657028D01*
X182603934Y-70657028D02*
X182699172Y-70704647D01*
X182699172Y-70704647D02*
X182746791Y-70799885D01*
X182746791Y-70799885D02*
X182746791Y-70990361D01*
X182746791Y-70990361D02*
X182699172Y-71085599D01*
X182127744Y-70657028D02*
X182080124Y-70752266D01*
X182080124Y-70752266D02*
X182080124Y-70990361D01*
X182080124Y-70990361D02*
X182127744Y-71085599D01*
X182127744Y-71085599D02*
X182222982Y-71133218D01*
X182222982Y-71133218D02*
X182318220Y-71133218D01*
X182318220Y-71133218D02*
X182413458Y-71085599D01*
X182413458Y-71085599D02*
X182461077Y-70990361D01*
X182461077Y-70990361D02*
X182461077Y-70752266D01*
X182461077Y-70752266D02*
X182508696Y-70657028D01*
X182127744Y-69752266D02*
X182080124Y-69847504D01*
X182080124Y-69847504D02*
X182080124Y-70037980D01*
X182080124Y-70037980D02*
X182127744Y-70133218D01*
X182127744Y-70133218D02*
X182175363Y-70180837D01*
X182175363Y-70180837D02*
X182270601Y-70228456D01*
X182270601Y-70228456D02*
X182556315Y-70228456D01*
X182556315Y-70228456D02*
X182651553Y-70180837D01*
X182651553Y-70180837D02*
X182699172Y-70133218D01*
X182699172Y-70133218D02*
X182746791Y-70037980D01*
X182746791Y-70037980D02*
X182746791Y-69847504D01*
X182746791Y-69847504D02*
X182699172Y-69752266D01*
X182080124Y-69323694D02*
X183080124Y-69323694D01*
X182461077Y-69228456D02*
X182080124Y-68942742D01*
X182746791Y-68942742D02*
X182365839Y-69323694D01*
X182365839Y-67799884D02*
X182365839Y-67323694D01*
X182080124Y-67895122D02*
X183080124Y-67561789D01*
X183080124Y-67561789D02*
X182080124Y-67228456D01*
X182080124Y-66466551D02*
X183080124Y-66466551D01*
X182127744Y-66466551D02*
X182080124Y-66561789D01*
X182080124Y-66561789D02*
X182080124Y-66752265D01*
X182080124Y-66752265D02*
X182127744Y-66847503D01*
X182127744Y-66847503D02*
X182175363Y-66895122D01*
X182175363Y-66895122D02*
X182270601Y-66942741D01*
X182270601Y-66942741D02*
X182556315Y-66942741D01*
X182556315Y-66942741D02*
X182651553Y-66895122D01*
X182651553Y-66895122D02*
X182699172Y-66847503D01*
X182699172Y-66847503D02*
X182746791Y-66752265D01*
X182746791Y-66752265D02*
X182746791Y-66561789D01*
X182746791Y-66561789D02*
X182699172Y-66466551D01*
X182080124Y-65561789D02*
X182603934Y-65561789D01*
X182603934Y-65561789D02*
X182699172Y-65609408D01*
X182699172Y-65609408D02*
X182746791Y-65704646D01*
X182746791Y-65704646D02*
X182746791Y-65895122D01*
X182746791Y-65895122D02*
X182699172Y-65990360D01*
X182127744Y-65561789D02*
X182080124Y-65657027D01*
X182080124Y-65657027D02*
X182080124Y-65895122D01*
X182080124Y-65895122D02*
X182127744Y-65990360D01*
X182127744Y-65990360D02*
X182222982Y-66037979D01*
X182222982Y-66037979D02*
X182318220Y-66037979D01*
X182318220Y-66037979D02*
X182413458Y-65990360D01*
X182413458Y-65990360D02*
X182461077Y-65895122D01*
X182461077Y-65895122D02*
X182461077Y-65657027D01*
X182461077Y-65657027D02*
X182508696Y-65561789D01*
X182746791Y-65085598D02*
X181746791Y-65085598D01*
X182699172Y-65085598D02*
X182746791Y-64990360D01*
X182746791Y-64990360D02*
X182746791Y-64799884D01*
X182746791Y-64799884D02*
X182699172Y-64704646D01*
X182699172Y-64704646D02*
X182651553Y-64657027D01*
X182651553Y-64657027D02*
X182556315Y-64609408D01*
X182556315Y-64609408D02*
X182270601Y-64609408D01*
X182270601Y-64609408D02*
X182175363Y-64657027D01*
X182175363Y-64657027D02*
X182127744Y-64704646D01*
X182127744Y-64704646D02*
X182080124Y-64799884D01*
X182080124Y-64799884D02*
X182080124Y-64990360D01*
X182080124Y-64990360D02*
X182127744Y-65085598D01*
X182746791Y-64323693D02*
X182746791Y-63942741D01*
X183080124Y-64180836D02*
X182222982Y-64180836D01*
X182222982Y-64180836D02*
X182127744Y-64133217D01*
X182127744Y-64133217D02*
X182080124Y-64037979D01*
X182080124Y-64037979D02*
X182080124Y-63942741D01*
X182127744Y-63228455D02*
X182080124Y-63323693D01*
X182080124Y-63323693D02*
X182080124Y-63514169D01*
X182080124Y-63514169D02*
X182127744Y-63609407D01*
X182127744Y-63609407D02*
X182222982Y-63657026D01*
X182222982Y-63657026D02*
X182603934Y-63657026D01*
X182603934Y-63657026D02*
X182699172Y-63609407D01*
X182699172Y-63609407D02*
X182746791Y-63514169D01*
X182746791Y-63514169D02*
X182746791Y-63323693D01*
X182746791Y-63323693D02*
X182699172Y-63228455D01*
X182699172Y-63228455D02*
X182603934Y-63180836D01*
X182603934Y-63180836D02*
X182508696Y-63180836D01*
X182508696Y-63180836D02*
X182413458Y-63657026D01*
X182080124Y-62752264D02*
X182746791Y-62752264D01*
X182556315Y-62752264D02*
X182651553Y-62704645D01*
X182651553Y-62704645D02*
X182699172Y-62657026D01*
X182699172Y-62657026D02*
X182746791Y-62561788D01*
X182746791Y-62561788D02*
X182746791Y-62466550D01*
X182175363Y-62133216D02*
X182127744Y-62085597D01*
X182127744Y-62085597D02*
X182080124Y-62133216D01*
X182080124Y-62133216D02*
X182127744Y-62180835D01*
X182127744Y-62180835D02*
X182175363Y-62133216D01*
X182175363Y-62133216D02*
X182080124Y-62133216D01*
X180565419Y-76561792D02*
X180517800Y-76609411D01*
X180517800Y-76609411D02*
X180470180Y-76752268D01*
X180470180Y-76752268D02*
X180470180Y-76847506D01*
X180470180Y-76847506D02*
X180517800Y-76990363D01*
X180517800Y-76990363D02*
X180613038Y-77085601D01*
X180613038Y-77085601D02*
X180708276Y-77133220D01*
X180708276Y-77133220D02*
X180898752Y-77180839D01*
X180898752Y-77180839D02*
X181041609Y-77180839D01*
X181041609Y-77180839D02*
X181232085Y-77133220D01*
X181232085Y-77133220D02*
X181327323Y-77085601D01*
X181327323Y-77085601D02*
X181422561Y-76990363D01*
X181422561Y-76990363D02*
X181470180Y-76847506D01*
X181470180Y-76847506D02*
X181470180Y-76752268D01*
X181470180Y-76752268D02*
X181422561Y-76609411D01*
X181422561Y-76609411D02*
X181374942Y-76561792D01*
X180470180Y-75990363D02*
X180517800Y-76085601D01*
X180517800Y-76085601D02*
X180565419Y-76133220D01*
X180565419Y-76133220D02*
X180660657Y-76180839D01*
X180660657Y-76180839D02*
X180946371Y-76180839D01*
X180946371Y-76180839D02*
X181041609Y-76133220D01*
X181041609Y-76133220D02*
X181089228Y-76085601D01*
X181089228Y-76085601D02*
X181136847Y-75990363D01*
X181136847Y-75990363D02*
X181136847Y-75847506D01*
X181136847Y-75847506D02*
X181089228Y-75752268D01*
X181089228Y-75752268D02*
X181041609Y-75704649D01*
X181041609Y-75704649D02*
X180946371Y-75657030D01*
X180946371Y-75657030D02*
X180660657Y-75657030D01*
X180660657Y-75657030D02*
X180565419Y-75704649D01*
X180565419Y-75704649D02*
X180517800Y-75752268D01*
X180517800Y-75752268D02*
X180470180Y-75847506D01*
X180470180Y-75847506D02*
X180470180Y-75990363D01*
X181136847Y-75228458D02*
X180136847Y-75228458D01*
X181089228Y-75228458D02*
X181136847Y-75133220D01*
X181136847Y-75133220D02*
X181136847Y-74942744D01*
X181136847Y-74942744D02*
X181089228Y-74847506D01*
X181089228Y-74847506D02*
X181041609Y-74799887D01*
X181041609Y-74799887D02*
X180946371Y-74752268D01*
X180946371Y-74752268D02*
X180660657Y-74752268D01*
X180660657Y-74752268D02*
X180565419Y-74799887D01*
X180565419Y-74799887D02*
X180517800Y-74847506D01*
X180517800Y-74847506D02*
X180470180Y-74942744D01*
X180470180Y-74942744D02*
X180470180Y-75133220D01*
X180470180Y-75133220D02*
X180517800Y-75228458D01*
X181136847Y-74418934D02*
X180470180Y-74180839D01*
X181136847Y-73942744D02*
X180470180Y-74180839D01*
X180470180Y-74180839D02*
X180232085Y-74276077D01*
X180232085Y-74276077D02*
X180184466Y-74323696D01*
X180184466Y-74323696D02*
X180136847Y-74418934D01*
X180470180Y-73561791D02*
X181136847Y-73561791D01*
X180946371Y-73561791D02*
X181041609Y-73514172D01*
X181041609Y-73514172D02*
X181089228Y-73466553D01*
X181089228Y-73466553D02*
X181136847Y-73371315D01*
X181136847Y-73371315D02*
X181136847Y-73276077D01*
X180470180Y-72942743D02*
X181136847Y-72942743D01*
X181470180Y-72942743D02*
X181422561Y-72990362D01*
X181422561Y-72990362D02*
X181374942Y-72942743D01*
X181374942Y-72942743D02*
X181422561Y-72895124D01*
X181422561Y-72895124D02*
X181470180Y-72942743D01*
X181470180Y-72942743D02*
X181374942Y-72942743D01*
X181136847Y-72037982D02*
X180327323Y-72037982D01*
X180327323Y-72037982D02*
X180232085Y-72085601D01*
X180232085Y-72085601D02*
X180184466Y-72133220D01*
X180184466Y-72133220D02*
X180136847Y-72228458D01*
X180136847Y-72228458D02*
X180136847Y-72371315D01*
X180136847Y-72371315D02*
X180184466Y-72466553D01*
X180517800Y-72037982D02*
X180470180Y-72133220D01*
X180470180Y-72133220D02*
X180470180Y-72323696D01*
X180470180Y-72323696D02*
X180517800Y-72418934D01*
X180517800Y-72418934D02*
X180565419Y-72466553D01*
X180565419Y-72466553D02*
X180660657Y-72514172D01*
X180660657Y-72514172D02*
X180946371Y-72514172D01*
X180946371Y-72514172D02*
X181041609Y-72466553D01*
X181041609Y-72466553D02*
X181089228Y-72418934D01*
X181089228Y-72418934D02*
X181136847Y-72323696D01*
X181136847Y-72323696D02*
X181136847Y-72133220D01*
X181136847Y-72133220D02*
X181089228Y-72037982D01*
X180470180Y-71561791D02*
X181470180Y-71561791D01*
X180470180Y-71133220D02*
X180993990Y-71133220D01*
X180993990Y-71133220D02*
X181089228Y-71180839D01*
X181089228Y-71180839D02*
X181136847Y-71276077D01*
X181136847Y-71276077D02*
X181136847Y-71418934D01*
X181136847Y-71418934D02*
X181089228Y-71514172D01*
X181089228Y-71514172D02*
X181041609Y-71561791D01*
X181136847Y-70799886D02*
X181136847Y-70418934D01*
X181470180Y-70657029D02*
X180613038Y-70657029D01*
X180613038Y-70657029D02*
X180517800Y-70609410D01*
X180517800Y-70609410D02*
X180470180Y-70514172D01*
X180470180Y-70514172D02*
X180470180Y-70418934D01*
X181374942Y-69371314D02*
X181422561Y-69323695D01*
X181422561Y-69323695D02*
X181470180Y-69228457D01*
X181470180Y-69228457D02*
X181470180Y-68990362D01*
X181470180Y-68990362D02*
X181422561Y-68895124D01*
X181422561Y-68895124D02*
X181374942Y-68847505D01*
X181374942Y-68847505D02*
X181279704Y-68799886D01*
X181279704Y-68799886D02*
X181184466Y-68799886D01*
X181184466Y-68799886D02*
X181041609Y-68847505D01*
X181041609Y-68847505D02*
X180470180Y-69418933D01*
X180470180Y-69418933D02*
X180470180Y-68799886D01*
X181470180Y-68180838D02*
X181470180Y-68085600D01*
X181470180Y-68085600D02*
X181422561Y-67990362D01*
X181422561Y-67990362D02*
X181374942Y-67942743D01*
X181374942Y-67942743D02*
X181279704Y-67895124D01*
X181279704Y-67895124D02*
X181089228Y-67847505D01*
X181089228Y-67847505D02*
X180851133Y-67847505D01*
X180851133Y-67847505D02*
X180660657Y-67895124D01*
X180660657Y-67895124D02*
X180565419Y-67942743D01*
X180565419Y-67942743D02*
X180517800Y-67990362D01*
X180517800Y-67990362D02*
X180470180Y-68085600D01*
X180470180Y-68085600D02*
X180470180Y-68180838D01*
X180470180Y-68180838D02*
X180517800Y-68276076D01*
X180517800Y-68276076D02*
X180565419Y-68323695D01*
X180565419Y-68323695D02*
X180660657Y-68371314D01*
X180660657Y-68371314D02*
X180851133Y-68418933D01*
X180851133Y-68418933D02*
X181089228Y-68418933D01*
X181089228Y-68418933D02*
X181279704Y-68371314D01*
X181279704Y-68371314D02*
X181374942Y-68323695D01*
X181374942Y-68323695D02*
X181422561Y-68276076D01*
X181422561Y-68276076D02*
X181470180Y-68180838D01*
X181374942Y-67466552D02*
X181422561Y-67418933D01*
X181422561Y-67418933D02*
X181470180Y-67323695D01*
X181470180Y-67323695D02*
X181470180Y-67085600D01*
X181470180Y-67085600D02*
X181422561Y-66990362D01*
X181422561Y-66990362D02*
X181374942Y-66942743D01*
X181374942Y-66942743D02*
X181279704Y-66895124D01*
X181279704Y-66895124D02*
X181184466Y-66895124D01*
X181184466Y-66895124D02*
X181041609Y-66942743D01*
X181041609Y-66942743D02*
X180470180Y-67514171D01*
X180470180Y-67514171D02*
X180470180Y-66895124D01*
X181136847Y-66037981D02*
X180470180Y-66037981D01*
X181517800Y-66276076D02*
X180803514Y-66514171D01*
X180803514Y-66514171D02*
X180803514Y-65895124D01*
X181470180Y-64895123D02*
X181470180Y-64323695D01*
X180470180Y-64609409D02*
X181470180Y-64609409D01*
X180470180Y-63561790D02*
X180993990Y-63561790D01*
X180993990Y-63561790D02*
X181089228Y-63609409D01*
X181089228Y-63609409D02*
X181136847Y-63704647D01*
X181136847Y-63704647D02*
X181136847Y-63895123D01*
X181136847Y-63895123D02*
X181089228Y-63990361D01*
X180517800Y-63561790D02*
X180470180Y-63657028D01*
X180470180Y-63657028D02*
X180470180Y-63895123D01*
X180470180Y-63895123D02*
X180517800Y-63990361D01*
X180517800Y-63990361D02*
X180613038Y-64037980D01*
X180613038Y-64037980D02*
X180708276Y-64037980D01*
X180708276Y-64037980D02*
X180803514Y-63990361D01*
X180803514Y-63990361D02*
X180851133Y-63895123D01*
X180851133Y-63895123D02*
X180851133Y-63657028D01*
X180851133Y-63657028D02*
X180898752Y-63561790D01*
X180470180Y-62657028D02*
X181470180Y-62657028D01*
X180517800Y-62657028D02*
X180470180Y-62752266D01*
X180470180Y-62752266D02*
X180470180Y-62942742D01*
X180470180Y-62942742D02*
X180517800Y-63037980D01*
X180517800Y-63037980D02*
X180565419Y-63085599D01*
X180565419Y-63085599D02*
X180660657Y-63133218D01*
X180660657Y-63133218D02*
X180946371Y-63133218D01*
X180946371Y-63133218D02*
X181041609Y-63085599D01*
X181041609Y-63085599D02*
X181089228Y-63037980D01*
X181089228Y-63037980D02*
X181136847Y-62942742D01*
X181136847Y-62942742D02*
X181136847Y-62752266D01*
X181136847Y-62752266D02*
X181089228Y-62657028D01*
X181470180Y-61561789D02*
X181470180Y-60990361D01*
X180470180Y-61276075D02*
X181470180Y-61276075D01*
X180470180Y-60657027D02*
X181136847Y-60657027D01*
X180946371Y-60657027D02*
X181041609Y-60609408D01*
X181041609Y-60609408D02*
X181089228Y-60561789D01*
X181089228Y-60561789D02*
X181136847Y-60466551D01*
X181136847Y-60466551D02*
X181136847Y-60371313D01*
X181136847Y-59609408D02*
X180470180Y-59609408D01*
X181136847Y-60037979D02*
X180613038Y-60037979D01*
X180613038Y-60037979D02*
X180517800Y-59990360D01*
X180517800Y-59990360D02*
X180470180Y-59895122D01*
X180470180Y-59895122D02*
X180470180Y-59752265D01*
X180470180Y-59752265D02*
X180517800Y-59657027D01*
X180517800Y-59657027D02*
X180565419Y-59609408D01*
X180517800Y-58752265D02*
X180470180Y-58847503D01*
X180470180Y-58847503D02*
X180470180Y-59037979D01*
X180470180Y-59037979D02*
X180517800Y-59133217D01*
X180517800Y-59133217D02*
X180613038Y-59180836D01*
X180613038Y-59180836D02*
X180993990Y-59180836D01*
X180993990Y-59180836D02*
X181089228Y-59133217D01*
X181089228Y-59133217D02*
X181136847Y-59037979D01*
X181136847Y-59037979D02*
X181136847Y-58847503D01*
X181136847Y-58847503D02*
X181089228Y-58752265D01*
X181089228Y-58752265D02*
X180993990Y-58704646D01*
X180993990Y-58704646D02*
X180898752Y-58704646D01*
X180898752Y-58704646D02*
X180803514Y-59180836D01*
X180470180Y-58371312D02*
X181136847Y-57847503D01*
X181136847Y-58371312D02*
X180470180Y-57847503D01*
D11*
%TO.C,G\u002A\u002A\u002A*%
G36*
X181225905Y-55777109D02*
G01*
X181225905Y-55912262D01*
X181090752Y-55912262D01*
X180955599Y-55912262D01*
X180955599Y-55777109D01*
X180955599Y-55641957D01*
X181090752Y-55641957D01*
X181225905Y-55641957D01*
X181225905Y-55777109D01*
G37*
G36*
X181225905Y-56858332D02*
G01*
X181225905Y-56993484D01*
X181090752Y-56993484D01*
X180955599Y-56993484D01*
X180955599Y-56858332D01*
X180955599Y-56723179D01*
X181090752Y-56723179D01*
X181225905Y-56723179D01*
X181225905Y-56858332D01*
G37*
G36*
X181225905Y-57398943D02*
G01*
X181225905Y-57534095D01*
X181090752Y-57534095D01*
X180955599Y-57534095D01*
X180955599Y-57398943D01*
X180955599Y-57263790D01*
X181090752Y-57263790D01*
X181225905Y-57263790D01*
X181225905Y-57398943D01*
G37*
G36*
X182307127Y-49830388D02*
G01*
X182307127Y-50235846D01*
X181901668Y-50235846D01*
X181496210Y-50235846D01*
X181496210Y-49830388D01*
X181496210Y-49424930D01*
X181901668Y-49424930D01*
X182307127Y-49424930D01*
X182307127Y-49830388D01*
G37*
G36*
X181766516Y-57669248D02*
G01*
X181766516Y-57804401D01*
X181631363Y-57804401D01*
X181496210Y-57804401D01*
X181496210Y-57669248D01*
X181496210Y-57534095D01*
X181631363Y-57534095D01*
X181766516Y-57534095D01*
X181766516Y-57669248D01*
G37*
G36*
X182847738Y-56047415D02*
G01*
X182847738Y-56182568D01*
X182712585Y-56182568D01*
X182577432Y-56182568D01*
X182577432Y-56047415D01*
X182577432Y-55912262D01*
X182712585Y-55912262D01*
X182847738Y-55912262D01*
X182847738Y-56047415D01*
G37*
G36*
X183928960Y-55506804D02*
G01*
X183928960Y-55641957D01*
X183793807Y-55641957D01*
X183658654Y-55641957D01*
X183658654Y-55506804D01*
X183658654Y-55371651D01*
X183793807Y-55371651D01*
X183928960Y-55371651D01*
X183928960Y-55506804D01*
G37*
G36*
X184739876Y-49560082D02*
G01*
X184739876Y-49695235D01*
X184604724Y-49695235D01*
X184469571Y-49695235D01*
X184469571Y-49560082D01*
X184469571Y-49424930D01*
X184604724Y-49424930D01*
X184739876Y-49424930D01*
X184739876Y-49560082D01*
G37*
G36*
X184739876Y-55236498D02*
G01*
X184739876Y-55371651D01*
X184604724Y-55371651D01*
X184469571Y-55371651D01*
X184469571Y-55236498D01*
X184469571Y-55101346D01*
X184604724Y-55101346D01*
X184739876Y-55101346D01*
X184739876Y-55236498D01*
G37*
G36*
X185280487Y-56588026D02*
G01*
X185280487Y-56723179D01*
X185145335Y-56723179D01*
X185010182Y-56723179D01*
X185010182Y-56588026D01*
X185010182Y-56452873D01*
X185145335Y-56452873D01*
X185280487Y-56452873D01*
X185280487Y-56588026D01*
G37*
G36*
X186091404Y-50776457D02*
G01*
X186091404Y-51046763D01*
X185956251Y-51046763D01*
X185821099Y-51046763D01*
X185821099Y-50776457D01*
X185821099Y-50506152D01*
X185956251Y-50506152D01*
X186091404Y-50506152D01*
X186091404Y-50776457D01*
G37*
G36*
X186361710Y-52533443D02*
G01*
X186361710Y-52668596D01*
X186226557Y-52668596D01*
X186091404Y-52668596D01*
X186091404Y-52533443D01*
X186091404Y-52398290D01*
X186226557Y-52398290D01*
X186361710Y-52398290D01*
X186361710Y-52533443D01*
G37*
G36*
X187713237Y-49154624D02*
G01*
X187713237Y-49424930D01*
X187578084Y-49424930D01*
X187442932Y-49424930D01*
X187442932Y-49154624D01*
X187442932Y-48884319D01*
X187578084Y-48884319D01*
X187713237Y-48884319D01*
X187713237Y-49154624D01*
G37*
G36*
X189335070Y-49830388D02*
G01*
X189335070Y-50235846D01*
X188929612Y-50235846D01*
X188524154Y-50235846D01*
X188524154Y-49830388D01*
X188524154Y-49424930D01*
X188929612Y-49424930D01*
X189335070Y-49424930D01*
X189335070Y-49830388D01*
G37*
G36*
X189335070Y-56858332D02*
G01*
X189335070Y-57263790D01*
X188929612Y-57263790D01*
X188524154Y-57263790D01*
X188524154Y-56858332D01*
X188524154Y-56452873D01*
X188929612Y-56452873D01*
X189335070Y-56452873D01*
X189335070Y-56858332D01*
G37*
G36*
X189875681Y-51317068D02*
G01*
X189875681Y-51587374D01*
X189740529Y-51587374D01*
X189605376Y-51587374D01*
X189605376Y-51317068D01*
X189605376Y-51046763D01*
X189740529Y-51046763D01*
X189875681Y-51046763D01*
X189875681Y-51317068D01*
G37*
G36*
X182847738Y-50776457D02*
G01*
X181901668Y-50776457D01*
X180955599Y-50776457D01*
X180955599Y-49830388D01*
X180955599Y-49172063D01*
X181243344Y-49172063D01*
X181243344Y-49830388D01*
X181243344Y-50488713D01*
X181901668Y-50488713D01*
X182559993Y-50488713D01*
X182559993Y-49830388D01*
X182559993Y-49172063D01*
X181901668Y-49172063D01*
X181243344Y-49172063D01*
X180955599Y-49172063D01*
X180955599Y-48884319D01*
X181901668Y-48884319D01*
X182847738Y-48884319D01*
X182847738Y-49830388D01*
X182847738Y-50776457D01*
G37*
G36*
X189875681Y-50776457D02*
G01*
X188929612Y-50776457D01*
X187983543Y-50776457D01*
X187983543Y-49830388D01*
X187983543Y-49172063D01*
X188271287Y-49172063D01*
X188271287Y-49830388D01*
X188271287Y-50488713D01*
X188929612Y-50488713D01*
X189587937Y-50488713D01*
X189587937Y-49830388D01*
X189587937Y-49172063D01*
X188929612Y-49172063D01*
X188271287Y-49172063D01*
X187983543Y-49172063D01*
X187983543Y-48884319D01*
X188929612Y-48884319D01*
X189875681Y-48884319D01*
X189875681Y-49830388D01*
X189875681Y-50776457D01*
G37*
G36*
X189875681Y-57804401D02*
G01*
X188929612Y-57804401D01*
X187983543Y-57804401D01*
X187983543Y-56858332D01*
X187983543Y-56200007D01*
X188271287Y-56200007D01*
X188271287Y-56858332D01*
X188271287Y-57516656D01*
X188929612Y-57516656D01*
X189587937Y-57516656D01*
X189587937Y-56858332D01*
X189587937Y-56200007D01*
X188929612Y-56200007D01*
X188271287Y-56200007D01*
X187983543Y-56200007D01*
X187983543Y-55912262D01*
X188929612Y-55912262D01*
X189875681Y-55912262D01*
X189875681Y-56858332D01*
X189875681Y-57804401D01*
G37*
G36*
X184875029Y-54290429D02*
G01*
X185010182Y-54290429D01*
X185010182Y-54560735D01*
X185010182Y-54831040D01*
X185280487Y-54831040D01*
X185550793Y-54831040D01*
X185550793Y-55101346D01*
X185550793Y-55371651D01*
X185415640Y-55371651D01*
X185280487Y-55371651D01*
X185280487Y-55236498D01*
X185280487Y-55101346D01*
X185010182Y-55101346D01*
X184739876Y-55101346D01*
X184739876Y-54695887D01*
X184739876Y-54290429D01*
X184875029Y-54290429D01*
G37*
G36*
X184739876Y-54155276D02*
G01*
X184739876Y-54290429D01*
X184604724Y-54290429D01*
X184469571Y-54290429D01*
X184469571Y-54155276D01*
X184469571Y-54020124D01*
X184604724Y-54020124D01*
X184739876Y-54020124D01*
X184739876Y-54155276D01*
G37*
G36*
X185685946Y-49695235D02*
G01*
X186091404Y-49695235D01*
X186091404Y-49965541D01*
X186091404Y-50235846D01*
X185956251Y-50235846D01*
X185821099Y-50235846D01*
X185821099Y-50100693D01*
X185821099Y-49965541D01*
X185550793Y-49965541D01*
X185280487Y-49965541D01*
X185280487Y-49830388D01*
X185280487Y-49695235D01*
X185685946Y-49695235D01*
G37*
G36*
X185550793Y-49424930D02*
G01*
X185415640Y-49424930D01*
X185280487Y-49424930D01*
X185280487Y-49560082D01*
X185280487Y-49695235D01*
X185145335Y-49695235D01*
X185010182Y-49695235D01*
X185010182Y-49560082D01*
X185010182Y-49424930D01*
X184875029Y-49424930D01*
X184739876Y-49424930D01*
X184739876Y-49289777D01*
X184739876Y-49154624D01*
X185010182Y-49154624D01*
X185010182Y-49289777D01*
X185010182Y-49424930D01*
X185145335Y-49424930D01*
X185280487Y-49424930D01*
X185280487Y-49289777D01*
X185280487Y-49154624D01*
X185145335Y-49154624D01*
X185010182Y-49154624D01*
X184739876Y-49154624D01*
X184334418Y-49154624D01*
X183928960Y-49154624D01*
X183928960Y-49019471D01*
X183928960Y-48884319D01*
X184739876Y-48884319D01*
X185550793Y-48884319D01*
X185550793Y-49154624D01*
X185550793Y-49289777D01*
X185550793Y-49424930D01*
G37*
G36*
X189064765Y-52127985D02*
G01*
X189199918Y-52127985D01*
X189335070Y-52127985D01*
X189335070Y-51992832D01*
X189335070Y-51857679D01*
X189470223Y-51857679D01*
X189605376Y-51857679D01*
X189605376Y-51992832D01*
X189605376Y-52127985D01*
X189740529Y-52127985D01*
X189875681Y-52127985D01*
X189875681Y-52398290D01*
X189875681Y-52668596D01*
X189740529Y-52668596D01*
X189605376Y-52668596D01*
X189605376Y-52533443D01*
X189605376Y-52398290D01*
X189199918Y-52398290D01*
X188794459Y-52398290D01*
X188794459Y-52533443D01*
X188794459Y-52668596D01*
X188794459Y-52938901D01*
X188929612Y-52938901D01*
X189064765Y-52938901D01*
X189064765Y-52803749D01*
X189064765Y-52668596D01*
X189335070Y-52668596D01*
X189605376Y-52668596D01*
X189605376Y-52803749D01*
X189605376Y-52938901D01*
X189470223Y-52938901D01*
X189335070Y-52938901D01*
X189335070Y-53074054D01*
X189335070Y-53209207D01*
X189335070Y-53479513D01*
X189199918Y-53479513D01*
X189064765Y-53479513D01*
X189064765Y-53614665D01*
X189064765Y-53749818D01*
X188929612Y-53749818D01*
X188794459Y-53749818D01*
X188794459Y-53479513D01*
X188794459Y-53209207D01*
X188659307Y-53209207D01*
X188524154Y-53209207D01*
X188524154Y-53344360D01*
X188524154Y-53479513D01*
X187848390Y-53479513D01*
X187172626Y-53479513D01*
X187172626Y-53209207D01*
X187172626Y-52938901D01*
X187307779Y-52938901D01*
X187442932Y-52938901D01*
X187442932Y-53074054D01*
X187442932Y-53209207D01*
X187578084Y-53209207D01*
X187713237Y-53209207D01*
X187713237Y-53074054D01*
X187713237Y-52938901D01*
X187983543Y-52938901D01*
X187983543Y-53074054D01*
X187983543Y-53209207D01*
X188253848Y-53209207D01*
X188524154Y-53209207D01*
X188524154Y-53074054D01*
X188524154Y-52938901D01*
X188253848Y-52938901D01*
X187983543Y-52938901D01*
X187713237Y-52938901D01*
X187578084Y-52938901D01*
X187442932Y-52938901D01*
X187442932Y-52668596D01*
X187442932Y-52398290D01*
X187307779Y-52398290D01*
X187172626Y-52398290D01*
X187172626Y-52533443D01*
X187172626Y-52668596D01*
X187037473Y-52668596D01*
X186902321Y-52668596D01*
X186902321Y-52533443D01*
X186902321Y-52398290D01*
X187037473Y-52398290D01*
X187172626Y-52398290D01*
X187172626Y-52263138D01*
X187172626Y-52127985D01*
X187307779Y-52127985D01*
X187442932Y-52127985D01*
X187442932Y-51992832D01*
X187442932Y-51857679D01*
X187307779Y-51857679D01*
X187172626Y-51857679D01*
X187172626Y-51722527D01*
X187172626Y-51587374D01*
X187442932Y-51587374D01*
X187713237Y-51587374D01*
X187713237Y-51992832D01*
X187713237Y-52398290D01*
X187848390Y-52398290D01*
X187983543Y-52398290D01*
X187983543Y-52533443D01*
X187983543Y-52668596D01*
X188118696Y-52668596D01*
X188253848Y-52668596D01*
X188253848Y-52533443D01*
X188253848Y-52398290D01*
X188118696Y-52398290D01*
X187983543Y-52398290D01*
X187983543Y-52263138D01*
X187983543Y-52127985D01*
X188118696Y-52127985D01*
X188253848Y-52127985D01*
X188253848Y-52263138D01*
X188253848Y-52398290D01*
X188389001Y-52398290D01*
X188524154Y-52398290D01*
X188524154Y-52263138D01*
X188524154Y-52127985D01*
X188389001Y-52127985D01*
X188253848Y-52127985D01*
X188253848Y-51992832D01*
X188253848Y-51857679D01*
X188524154Y-51857679D01*
X188524154Y-51992832D01*
X188524154Y-52127985D01*
X188659307Y-52127985D01*
X188794459Y-52127985D01*
X188794459Y-51992832D01*
X188794459Y-51857679D01*
X188659307Y-51857679D01*
X188524154Y-51857679D01*
X188253848Y-51857679D01*
X188118696Y-51857679D01*
X187983543Y-51857679D01*
X187983543Y-51722527D01*
X187983543Y-51587374D01*
X188253848Y-51587374D01*
X188524154Y-51587374D01*
X188524154Y-51452221D01*
X188524154Y-51317068D01*
X188118696Y-51317068D01*
X187713237Y-51317068D01*
X187713237Y-51181916D01*
X187713237Y-51046763D01*
X188118696Y-51046763D01*
X188524154Y-51046763D01*
X188524154Y-51181916D01*
X188524154Y-51317068D01*
X188659307Y-51317068D01*
X188794459Y-51317068D01*
X188794459Y-51181916D01*
X188794459Y-51046763D01*
X189064765Y-51046763D01*
X189335070Y-51046763D01*
X189335070Y-51181916D01*
X189335070Y-51317068D01*
X189199918Y-51317068D01*
X189064765Y-51317068D01*
X189064765Y-51722527D01*
X189064765Y-51992832D01*
X189064765Y-52127985D01*
G37*
G36*
X187172626Y-51452221D02*
G01*
X187172626Y-51587374D01*
X187037473Y-51587374D01*
X186902321Y-51587374D01*
X186902321Y-51992832D01*
X186902321Y-52398290D01*
X186632015Y-52398290D01*
X186361710Y-52398290D01*
X186361710Y-52263138D01*
X186361710Y-52127985D01*
X186091404Y-52127985D01*
X185821099Y-52127985D01*
X185821099Y-51857679D01*
X185821099Y-51587374D01*
X185956251Y-51587374D01*
X186091404Y-51587374D01*
X186091404Y-51722527D01*
X186091404Y-51857679D01*
X186361710Y-51857679D01*
X186632015Y-51857679D01*
X186632015Y-51587374D01*
X186632015Y-51317068D01*
X186902321Y-51317068D01*
X187172626Y-51317068D01*
X187172626Y-51452221D01*
G37*
G36*
X186632015Y-50641304D02*
G01*
X186632015Y-50776457D01*
X186767168Y-50776457D01*
X186902321Y-50776457D01*
X186902321Y-50641304D01*
X186902321Y-50506152D01*
X187037473Y-50506152D01*
X187172626Y-50506152D01*
X187172626Y-50641304D01*
X187172626Y-50776457D01*
X187307779Y-50776457D01*
X187442932Y-50776457D01*
X187442932Y-50641304D01*
X187442932Y-50506152D01*
X187578084Y-50506152D01*
X187713237Y-50506152D01*
X187713237Y-50776457D01*
X187713237Y-51046763D01*
X187442932Y-51046763D01*
X187172626Y-51046763D01*
X187172626Y-50911610D01*
X187172626Y-50776457D01*
X187037473Y-50776457D01*
X186902321Y-50776457D01*
X186902321Y-50911610D01*
X186902321Y-51046763D01*
X186632015Y-51046763D01*
X186361710Y-51046763D01*
X186361710Y-50776457D01*
X186361710Y-50506152D01*
X186496862Y-50506152D01*
X186632015Y-50506152D01*
X186632015Y-50641304D01*
G37*
G36*
X186361710Y-49019471D02*
G01*
X186361710Y-49154624D01*
X186496862Y-49154624D01*
X186632015Y-49154624D01*
X186632015Y-49019471D01*
X186632015Y-48884319D01*
X186767168Y-48884319D01*
X186902321Y-48884319D01*
X186902321Y-49019471D01*
X186902321Y-49154624D01*
X186767168Y-49154624D01*
X186632015Y-49154624D01*
X186632015Y-49289777D01*
X186632015Y-49424930D01*
X186767168Y-49424930D01*
X186902321Y-49424930D01*
X186902321Y-49289777D01*
X186902321Y-49154624D01*
X187037473Y-49154624D01*
X187172626Y-49154624D01*
X187172626Y-49289777D01*
X187172626Y-49424930D01*
X187172626Y-49695235D01*
X187037473Y-49695235D01*
X186902321Y-49695235D01*
X186902321Y-49830388D01*
X186902321Y-49965541D01*
X187037473Y-49965541D01*
X187172626Y-49965541D01*
X187172626Y-49830388D01*
X187172626Y-49695235D01*
X187442932Y-49695235D01*
X187713237Y-49695235D01*
X187713237Y-49830388D01*
X187713237Y-49965541D01*
X187442932Y-49965541D01*
X187172626Y-49965541D01*
X187172626Y-50100693D01*
X187172626Y-50235846D01*
X187037473Y-50235846D01*
X186902321Y-50235846D01*
X186902321Y-50370999D01*
X186902321Y-50506152D01*
X186767168Y-50506152D01*
X186632015Y-50506152D01*
X186632015Y-49965541D01*
X186632015Y-49424930D01*
X186361710Y-49424930D01*
X186091404Y-49424930D01*
X186091404Y-49289777D01*
X186091404Y-49154624D01*
X185956251Y-49154624D01*
X185821099Y-49154624D01*
X185821099Y-49019471D01*
X185821099Y-48884319D01*
X186091404Y-48884319D01*
X186361710Y-48884319D01*
X186361710Y-49019471D01*
G37*
G36*
X187307779Y-50235846D02*
G01*
X187442932Y-50235846D01*
X187442932Y-50370999D01*
X187442932Y-50506152D01*
X187307779Y-50506152D01*
X187172626Y-50506152D01*
X187172626Y-50370999D01*
X187172626Y-50235846D01*
X187307779Y-50235846D01*
G37*
G36*
X185550793Y-52127985D02*
G01*
X185415640Y-52127985D01*
X185280487Y-52127985D01*
X185280487Y-51992832D01*
X185280487Y-51857679D01*
X185145335Y-51857679D01*
X185010182Y-51857679D01*
X185010182Y-52127985D01*
X185010182Y-52398290D01*
X185280487Y-52398290D01*
X185550793Y-52398290D01*
X185550793Y-52533443D01*
X185550793Y-52668596D01*
X185685946Y-52668596D01*
X185821099Y-52668596D01*
X185821099Y-52803749D01*
X185821099Y-52938901D01*
X185685946Y-52938901D01*
X185550793Y-52938901D01*
X185550793Y-53074054D01*
X185550793Y-53209207D01*
X185821099Y-53209207D01*
X186091404Y-53209207D01*
X186091404Y-53074054D01*
X186091404Y-52938901D01*
X186226557Y-52938901D01*
X186361710Y-52938901D01*
X186361710Y-53074054D01*
X186361710Y-53209207D01*
X186496862Y-53209207D01*
X186632015Y-53209207D01*
X186632015Y-52938901D01*
X186632015Y-52668596D01*
X186767168Y-52668596D01*
X186902321Y-52668596D01*
X186902321Y-52938901D01*
X186902321Y-53209207D01*
X186767168Y-53209207D01*
X186632015Y-53209207D01*
X186632015Y-53344360D01*
X186632015Y-53479513D01*
X186496862Y-53479513D01*
X186361710Y-53479513D01*
X186361710Y-53344360D01*
X186361710Y-53209207D01*
X186226557Y-53209207D01*
X186091404Y-53209207D01*
X186091404Y-53614665D01*
X186091404Y-54020124D01*
X185550793Y-54020124D01*
X185010182Y-54020124D01*
X185010182Y-53884971D01*
X185010182Y-53749818D01*
X185280487Y-53749818D01*
X185415640Y-53749818D01*
X185550793Y-53749818D01*
X185550793Y-53614665D01*
X185550793Y-53479513D01*
X185415640Y-53479513D01*
X185280487Y-53479513D01*
X185280487Y-53614665D01*
X185280487Y-53749818D01*
X185010182Y-53749818D01*
X184739876Y-53749818D01*
X184469571Y-53749818D01*
X184469571Y-53884971D01*
X184469571Y-54020124D01*
X184199265Y-54020124D01*
X183928960Y-54020124D01*
X183928960Y-54155276D01*
X183928960Y-54290429D01*
X183388349Y-54290429D01*
X182847738Y-54290429D01*
X182847738Y-54155276D01*
X182847738Y-54020124D01*
X182982891Y-54020124D01*
X183118043Y-54020124D01*
X183118043Y-53884971D01*
X183118043Y-53749818D01*
X183388349Y-53749818D01*
X183388349Y-53884971D01*
X183388349Y-54020124D01*
X183523502Y-54020124D01*
X183658654Y-54020124D01*
X183658654Y-53884971D01*
X183658654Y-53749818D01*
X183523502Y-53749818D01*
X183388349Y-53749818D01*
X183118043Y-53749818D01*
X182847738Y-53749818D01*
X182577432Y-53749818D01*
X182577432Y-53884971D01*
X182577432Y-54020124D01*
X182442279Y-54020124D01*
X182307127Y-54020124D01*
X182307127Y-54290429D01*
X182307127Y-54560735D01*
X182036821Y-54560735D01*
X181766516Y-54560735D01*
X181766516Y-54695887D01*
X181766516Y-54831040D01*
X181901668Y-54831040D01*
X182036821Y-54831040D01*
X182036821Y-55101346D01*
X182036821Y-55371651D01*
X182171974Y-55371651D01*
X182307127Y-55371651D01*
X182307127Y-55236498D01*
X182307127Y-55101346D01*
X182442279Y-55101346D01*
X182577432Y-55101346D01*
X182577432Y-54831040D01*
X182577432Y-54560735D01*
X182712585Y-54560735D01*
X182847738Y-54560735D01*
X182847738Y-54695887D01*
X182847738Y-54831040D01*
X183118043Y-54831040D01*
X183388349Y-54831040D01*
X183388349Y-54695887D01*
X183388349Y-54560735D01*
X183658654Y-54560735D01*
X183928960Y-54560735D01*
X183928960Y-54425582D01*
X183928960Y-54290429D01*
X184199265Y-54290429D01*
X184469571Y-54290429D01*
X184469571Y-54425582D01*
X184469571Y-54560735D01*
X184334418Y-54560735D01*
X184199265Y-54560735D01*
X184199265Y-54831040D01*
X184199265Y-55101346D01*
X184064113Y-55101346D01*
X183928960Y-55101346D01*
X183928960Y-54966193D01*
X183928960Y-54831040D01*
X183793807Y-54831040D01*
X183658654Y-54831040D01*
X183658654Y-54966193D01*
X183658654Y-55101346D01*
X183253196Y-55101346D01*
X182847738Y-55101346D01*
X182847738Y-55236498D01*
X182847738Y-55371651D01*
X183118043Y-55371651D01*
X183388349Y-55371651D01*
X183388349Y-55641957D01*
X183388349Y-55912262D01*
X183793807Y-55912262D01*
X184199265Y-55912262D01*
X184199265Y-55777109D01*
X184199265Y-55641957D01*
X184875029Y-55641957D01*
X185550793Y-55641957D01*
X185550793Y-55506804D01*
X185550793Y-55371651D01*
X185821099Y-55371651D01*
X186091404Y-55371651D01*
X186091404Y-55236498D01*
X186091404Y-55101346D01*
X185956251Y-55101346D01*
X185821099Y-55101346D01*
X185821099Y-54966193D01*
X185821099Y-54831040D01*
X185685946Y-54831040D01*
X185550793Y-54831040D01*
X185550793Y-54695887D01*
X185550793Y-54560735D01*
X185821099Y-54560735D01*
X186091404Y-54560735D01*
X186091404Y-54290429D01*
X186091404Y-54020124D01*
X186226557Y-54020124D01*
X186361710Y-54020124D01*
X186361710Y-54155276D01*
X186361710Y-54290429D01*
X186496862Y-54290429D01*
X186632015Y-54290429D01*
X186632015Y-54155276D01*
X186632015Y-54020124D01*
X186496862Y-54020124D01*
X186361710Y-54020124D01*
X186361710Y-53884971D01*
X186361710Y-53749818D01*
X186632015Y-53749818D01*
X186902321Y-53749818D01*
X186902321Y-53884971D01*
X186902321Y-54020124D01*
X187037473Y-54020124D01*
X187172626Y-54020124D01*
X187172626Y-53884971D01*
X187172626Y-53749818D01*
X187848390Y-53749818D01*
X188524154Y-53749818D01*
X188524154Y-54020124D01*
X188524154Y-54155276D01*
X188524154Y-54290429D01*
X188389001Y-54290429D01*
X188253848Y-54290429D01*
X188253848Y-54425582D01*
X188253848Y-54560735D01*
X188118696Y-54560735D01*
X187983543Y-54560735D01*
X187983543Y-54425582D01*
X187983543Y-54290429D01*
X187848390Y-54290429D01*
X187713237Y-54290429D01*
X187713237Y-54155276D01*
X187713237Y-54020124D01*
X187983543Y-54020124D01*
X187983543Y-54155276D01*
X187983543Y-54290429D01*
X188118696Y-54290429D01*
X188253848Y-54290429D01*
X188253848Y-54155276D01*
X188253848Y-54020124D01*
X188118696Y-54020124D01*
X187983543Y-54020124D01*
X187713237Y-54020124D01*
X187442932Y-54020124D01*
X187172626Y-54020124D01*
X187172626Y-54155276D01*
X187172626Y-54290429D01*
X186902321Y-54290429D01*
X186632015Y-54290429D01*
X186632015Y-54425582D01*
X186632015Y-54560735D01*
X186767168Y-54560735D01*
X186902321Y-54560735D01*
X186902321Y-54695887D01*
X186902321Y-54831040D01*
X186767168Y-54831040D01*
X186632015Y-54831040D01*
X186632015Y-54966193D01*
X186632015Y-55101346D01*
X186767168Y-55101346D01*
X186902321Y-55101346D01*
X186902321Y-55236498D01*
X186902321Y-55371651D01*
X187578084Y-55371651D01*
X188253848Y-55371651D01*
X188253848Y-55506804D01*
X188253848Y-55641957D01*
X187983543Y-55641957D01*
X187713237Y-55641957D01*
X187713237Y-55912262D01*
X187713237Y-56047415D01*
X187713237Y-56317721D01*
X187713237Y-56452873D01*
X187307779Y-56452873D01*
X186902321Y-56452873D01*
X186902321Y-56588026D01*
X186902321Y-56723179D01*
X187307779Y-56723179D01*
X187713237Y-56723179D01*
X187713237Y-56858332D01*
X187713237Y-56993484D01*
X187713237Y-57128637D01*
X187713237Y-57263790D01*
X187578084Y-57263790D01*
X187442932Y-57263790D01*
X187442932Y-57398943D01*
X187442932Y-57534095D01*
X187307779Y-57534095D01*
X187172626Y-57534095D01*
X187172626Y-57669248D01*
X187172626Y-57804401D01*
X187037473Y-57804401D01*
X186902321Y-57804401D01*
X186902321Y-57669248D01*
X186902321Y-57534095D01*
X186767168Y-57534095D01*
X186632015Y-57534095D01*
X186632015Y-57669248D01*
X186632015Y-57804401D01*
X185685946Y-57804401D01*
X184739876Y-57804401D01*
X184739876Y-57669248D01*
X184739876Y-57534095D01*
X184604724Y-57534095D01*
X184469571Y-57534095D01*
X184469571Y-57263790D01*
X184469571Y-56993484D01*
X184199265Y-56993484D01*
X183928960Y-56993484D01*
X183928960Y-57263790D01*
X183928960Y-57534095D01*
X183793807Y-57534095D01*
X183658654Y-57534095D01*
X183658654Y-57669248D01*
X183658654Y-57804401D01*
X183523502Y-57804401D01*
X183388349Y-57804401D01*
X183388349Y-57534095D01*
X183388349Y-57263790D01*
X183523502Y-57263790D01*
X183658654Y-57263790D01*
X183658654Y-57128637D01*
X183658654Y-56993484D01*
X183523502Y-56993484D01*
X183388349Y-56993484D01*
X183388349Y-56858332D01*
X183388349Y-56723179D01*
X182982891Y-56723179D01*
X182577432Y-56723179D01*
X182577432Y-56858332D01*
X182577432Y-56993484D01*
X182712585Y-56993484D01*
X182847738Y-56993484D01*
X182847738Y-57128637D01*
X182847738Y-57263790D01*
X182712585Y-57263790D01*
X182577432Y-57263790D01*
X182577432Y-57398943D01*
X182577432Y-57534095D01*
X182442279Y-57534095D01*
X182307127Y-57534095D01*
X182307127Y-57669248D01*
X182307127Y-57804401D01*
X182171974Y-57804401D01*
X182036821Y-57804401D01*
X182036821Y-57534095D01*
X182036821Y-57263790D01*
X181766516Y-57263790D01*
X181496210Y-57263790D01*
X181496210Y-57128637D01*
X181496210Y-56993484D01*
X181631363Y-56993484D01*
X181766516Y-56993484D01*
X182036821Y-56993484D01*
X182036821Y-57263790D01*
X182171974Y-57263790D01*
X182307127Y-57263790D01*
X182307127Y-56993484D01*
X182307127Y-56723179D01*
X182171974Y-56723179D01*
X182036821Y-56723179D01*
X182036821Y-56993484D01*
X181766516Y-56993484D01*
X181766516Y-56858332D01*
X181766516Y-56723179D01*
X181901668Y-56723179D01*
X182036821Y-56723179D01*
X182036821Y-56588026D01*
X182036821Y-56452873D01*
X181901668Y-56452873D01*
X181766516Y-56452873D01*
X181766516Y-56588026D01*
X181766516Y-56723179D01*
X181496210Y-56723179D01*
X181225905Y-56723179D01*
X181225905Y-56588026D01*
X181225905Y-56452873D01*
X181090752Y-56452873D01*
X180955599Y-56452873D01*
X180955599Y-56317721D01*
X180955599Y-56182568D01*
X181496210Y-56182568D01*
X182036821Y-56182568D01*
X182036821Y-56047415D01*
X182036821Y-55912262D01*
X181901668Y-55912262D01*
X181766516Y-55912262D01*
X181766516Y-55777109D01*
X181766516Y-55641957D01*
X181901668Y-55641957D01*
X182036821Y-55641957D01*
X182307127Y-55641957D01*
X182307127Y-56047415D01*
X182307127Y-56452873D01*
X182712585Y-56452873D01*
X183118043Y-56452873D01*
X183118043Y-56182568D01*
X183658654Y-56182568D01*
X183658654Y-56452873D01*
X183658654Y-56723179D01*
X183928960Y-56723179D01*
X184199265Y-56723179D01*
X184199265Y-56588026D01*
X184199265Y-56452873D01*
X184064113Y-56452873D01*
X183928960Y-56452873D01*
X183928960Y-56317721D01*
X183928960Y-56182568D01*
X184469571Y-56182568D01*
X184469571Y-56317721D01*
X184469571Y-56452873D01*
X184604724Y-56452873D01*
X184739876Y-56452873D01*
X184739876Y-56588026D01*
X184739876Y-56723179D01*
X184875029Y-56723179D01*
X185010182Y-56723179D01*
X185010182Y-56858332D01*
X185010182Y-56993484D01*
X184875029Y-56993484D01*
X184739876Y-56993484D01*
X184739876Y-57263790D01*
X184739876Y-57534095D01*
X184875029Y-57534095D01*
X185010182Y-57534095D01*
X185010182Y-57398943D01*
X185010182Y-57263790D01*
X185415640Y-57263790D01*
X185821099Y-57263790D01*
X186091404Y-57263790D01*
X186091404Y-57398943D01*
X186091404Y-57534095D01*
X186361710Y-57534095D01*
X186632015Y-57534095D01*
X186632015Y-57398943D01*
X186632015Y-57263790D01*
X186361710Y-57263790D01*
X186091404Y-57263790D01*
X185821099Y-57263790D01*
X185821099Y-56993484D01*
X185821099Y-56723179D01*
X186091404Y-56723179D01*
X186091404Y-56858332D01*
X186091404Y-56993484D01*
X186361710Y-56993484D01*
X186632015Y-56993484D01*
X186902321Y-56993484D01*
X186902321Y-57128637D01*
X186902321Y-57263790D01*
X187037473Y-57263790D01*
X187172626Y-57263790D01*
X187172626Y-57128637D01*
X187172626Y-56993484D01*
X187037473Y-56993484D01*
X186902321Y-56993484D01*
X186632015Y-56993484D01*
X186632015Y-56858332D01*
X186632015Y-56723179D01*
X186361710Y-56723179D01*
X186091404Y-56723179D01*
X185821099Y-56723179D01*
X185685946Y-56723179D01*
X185550793Y-56723179D01*
X185550793Y-56452873D01*
X185550793Y-56182568D01*
X185685946Y-56182568D01*
X185821099Y-56182568D01*
X185821099Y-56317721D01*
X185821099Y-56452873D01*
X185956251Y-56452873D01*
X186091404Y-56452873D01*
X186091404Y-56182568D01*
X186361710Y-56182568D01*
X186361710Y-56317721D01*
X186361710Y-56452873D01*
X186496862Y-56452873D01*
X186632015Y-56452873D01*
X186632015Y-56317721D01*
X186632015Y-56182568D01*
X186496862Y-56182568D01*
X186361710Y-56182568D01*
X186091404Y-56182568D01*
X186091404Y-55912262D01*
X186496862Y-55912262D01*
X186902321Y-55912262D01*
X186902321Y-56047415D01*
X186902321Y-56182568D01*
X187172626Y-56182568D01*
X187442932Y-56182568D01*
X187442932Y-56047415D01*
X187442932Y-55912262D01*
X187307779Y-55912262D01*
X187172626Y-55912262D01*
X187172626Y-55777109D01*
X187172626Y-55641957D01*
X186496862Y-55641957D01*
X185821099Y-55641957D01*
X185821099Y-55777109D01*
X185821099Y-55912262D01*
X185685946Y-55912262D01*
X185550793Y-55912262D01*
X185550793Y-56047415D01*
X185550793Y-56182568D01*
X185415640Y-56182568D01*
X185280487Y-56182568D01*
X185280487Y-56047415D01*
X185280487Y-55912262D01*
X185010182Y-55912262D01*
X184739876Y-55912262D01*
X184739876Y-56047415D01*
X184739876Y-56182568D01*
X184604724Y-56182568D01*
X184469571Y-56182568D01*
X183928960Y-56182568D01*
X183793807Y-56182568D01*
X183658654Y-56182568D01*
X183118043Y-56182568D01*
X183118043Y-56047415D01*
X183118043Y-55641957D01*
X182712585Y-55641957D01*
X182307127Y-55641957D01*
X182036821Y-55641957D01*
X182036821Y-55506804D01*
X182036821Y-55371651D01*
X181901668Y-55371651D01*
X181766516Y-55371651D01*
X181766516Y-55236498D01*
X181766516Y-55101346D01*
X181631363Y-55101346D01*
X181496210Y-55101346D01*
X181496210Y-55236498D01*
X181496210Y-55371651D01*
X181361057Y-55371651D01*
X181225905Y-55371651D01*
X181225905Y-55236498D01*
X181225905Y-55101346D01*
X181090752Y-55101346D01*
X180955599Y-55101346D01*
X180955599Y-54831040D01*
X180955599Y-54560735D01*
X181090752Y-54560735D01*
X181225905Y-54560735D01*
X181225905Y-54695887D01*
X181225905Y-54831040D01*
X181361057Y-54831040D01*
X181496210Y-54831040D01*
X181496210Y-54695887D01*
X181496210Y-54560735D01*
X181361057Y-54560735D01*
X181225905Y-54560735D01*
X181225905Y-54425582D01*
X181225905Y-54290429D01*
X181631363Y-54290429D01*
X182036821Y-54290429D01*
X182036821Y-54020124D01*
X182036821Y-53749818D01*
X181901668Y-53749818D01*
X181766516Y-53749818D01*
X181766516Y-53884971D01*
X181766516Y-54020124D01*
X181496210Y-54020124D01*
X181225905Y-54020124D01*
X181225905Y-53884971D01*
X181225905Y-53749818D01*
X181090752Y-53749818D01*
X180955599Y-53749818D01*
X180955599Y-53614665D01*
X180955599Y-53479513D01*
X181225905Y-53479513D01*
X181496210Y-53479513D01*
X181496210Y-53614665D01*
X181496210Y-53749818D01*
X181631363Y-53749818D01*
X181766516Y-53749818D01*
X181766516Y-53614665D01*
X181766516Y-53479513D01*
X181631363Y-53479513D01*
X181496210Y-53479513D01*
X181496210Y-53344360D01*
X181766516Y-53344360D01*
X181766516Y-53479513D01*
X181901668Y-53479513D01*
X182036821Y-53479513D01*
X182307127Y-53479513D01*
X182307127Y-53749818D01*
X182442279Y-53749818D01*
X182577432Y-53749818D01*
X182577432Y-53614665D01*
X183928960Y-53614665D01*
X183928960Y-53749818D01*
X184064113Y-53749818D01*
X184199265Y-53749818D01*
X184199265Y-53614665D01*
X184199265Y-53479513D01*
X184064113Y-53479513D01*
X183928960Y-53479513D01*
X183928960Y-53614665D01*
X182577432Y-53614665D01*
X182577432Y-53479513D01*
X182577432Y-53209207D01*
X182442279Y-53209207D01*
X182307127Y-53209207D01*
X182307127Y-53344360D01*
X182307127Y-53479513D01*
X182036821Y-53479513D01*
X182036821Y-53344360D01*
X182036821Y-53209207D01*
X181901668Y-53209207D01*
X181766516Y-53209207D01*
X181766516Y-53344360D01*
X181496210Y-53344360D01*
X181496210Y-53074054D01*
X181496210Y-52668596D01*
X181361057Y-52668596D01*
X181225905Y-52668596D01*
X181225905Y-52533443D01*
X181225905Y-52398290D01*
X181361057Y-52398290D01*
X181496210Y-52398290D01*
X181496210Y-52533443D01*
X181496210Y-52668596D01*
X181631363Y-52668596D01*
X181766516Y-52668596D01*
X181766516Y-52127985D01*
X181766516Y-51857679D01*
X182036821Y-51857679D01*
X182036821Y-51992832D01*
X182036821Y-52127985D01*
X182171974Y-52127985D01*
X182307127Y-52127985D01*
X182307127Y-51992832D01*
X182307127Y-51857679D01*
X182171974Y-51857679D01*
X182036821Y-51857679D01*
X181766516Y-51857679D01*
X181766516Y-51587374D01*
X181631363Y-51587374D01*
X181496210Y-51587374D01*
X181496210Y-51722527D01*
X181496210Y-51857679D01*
X181225905Y-51857679D01*
X180955599Y-51857679D01*
X180955599Y-51452221D01*
X180955599Y-51046763D01*
X181225905Y-51046763D01*
X181496210Y-51046763D01*
X181496210Y-51181916D01*
X181496210Y-51317068D01*
X181631363Y-51317068D01*
X181766516Y-51317068D01*
X181766516Y-51181916D01*
X181766516Y-51046763D01*
X181901668Y-51046763D01*
X182036821Y-51046763D01*
X182036821Y-51317068D01*
X182036821Y-51587374D01*
X182171974Y-51587374D01*
X182307127Y-51587374D01*
X182307127Y-51452221D01*
X182307127Y-51317068D01*
X182442279Y-51317068D01*
X182577432Y-51317068D01*
X182577432Y-51181916D01*
X182577432Y-51046763D01*
X182712585Y-51046763D01*
X182847738Y-51046763D01*
X182847738Y-51452221D01*
X182847738Y-51857679D01*
X182712585Y-51857679D01*
X182577432Y-51857679D01*
X182577432Y-51992832D01*
X182577432Y-52263138D01*
X182577432Y-52668596D01*
X182442279Y-52668596D01*
X182307127Y-52668596D01*
X182307127Y-52533443D01*
X182307127Y-52398290D01*
X182171974Y-52398290D01*
X182036821Y-52398290D01*
X182036821Y-52533443D01*
X182036821Y-52668596D01*
X181901668Y-52668596D01*
X181766516Y-52668596D01*
X181766516Y-52803749D01*
X181766516Y-52938901D01*
X182171974Y-52938901D01*
X182577432Y-52938901D01*
X182577432Y-52803749D01*
X182577432Y-52668596D01*
X182712585Y-52668596D01*
X182847738Y-52668596D01*
X182847738Y-52803749D01*
X182847738Y-52938901D01*
X182982891Y-52938901D01*
X183118043Y-52938901D01*
X183118043Y-53209207D01*
X183118043Y-53479513D01*
X183253196Y-53479513D01*
X183388349Y-53479513D01*
X183388349Y-53344360D01*
X183388349Y-53209207D01*
X183658654Y-53209207D01*
X183928960Y-53209207D01*
X184199265Y-53209207D01*
X184199265Y-53344360D01*
X184199265Y-53479513D01*
X184334418Y-53479513D01*
X184469571Y-53479513D01*
X184469571Y-53344360D01*
X184469571Y-53209207D01*
X184334418Y-53209207D01*
X184199265Y-53209207D01*
X183928960Y-53209207D01*
X183928960Y-52803749D01*
X183928960Y-52398290D01*
X184064113Y-52398290D01*
X184199265Y-52398290D01*
X184199265Y-52668596D01*
X184199265Y-52938901D01*
X184469571Y-52938901D01*
X184739876Y-52938901D01*
X184739876Y-53074054D01*
X184739876Y-53209207D01*
X184875029Y-53209207D01*
X185010182Y-53209207D01*
X185010182Y-53344360D01*
X185010182Y-53479513D01*
X185145335Y-53479513D01*
X185280487Y-53479513D01*
X185280487Y-53074054D01*
X185280487Y-52668596D01*
X185010182Y-52668596D01*
X184739876Y-52668596D01*
X184739876Y-52398290D01*
X184739876Y-52127985D01*
X184469571Y-52127985D01*
X184199265Y-52127985D01*
X184199265Y-51857679D01*
X184199265Y-51587374D01*
X184469571Y-51587374D01*
X184469571Y-51722527D01*
X184469571Y-51857679D01*
X184739876Y-51857679D01*
X185010182Y-51857679D01*
X185010182Y-51722527D01*
X185010182Y-51587374D01*
X184739876Y-51587374D01*
X184469571Y-51587374D01*
X184199265Y-51587374D01*
X184064113Y-51587374D01*
X183928960Y-51587374D01*
X183928960Y-51992832D01*
X183928960Y-52398290D01*
X183658654Y-52398290D01*
X183388349Y-52398290D01*
X183388349Y-52533443D01*
X183388349Y-52668596D01*
X183253196Y-52668596D01*
X183118043Y-52668596D01*
X183118043Y-52533443D01*
X183118043Y-52398290D01*
X182982891Y-52398290D01*
X182847738Y-52398290D01*
X182847738Y-52263138D01*
X182847738Y-52127985D01*
X183253196Y-52127985D01*
X183658654Y-52127985D01*
X183658654Y-51992832D01*
X183658654Y-51857679D01*
X183523502Y-51857679D01*
X183388349Y-51857679D01*
X183388349Y-51587374D01*
X183388349Y-51452221D01*
X183658654Y-51452221D01*
X183658654Y-51587374D01*
X183793807Y-51587374D01*
X183928960Y-51587374D01*
X183928960Y-51452221D01*
X183928960Y-51317068D01*
X183793807Y-51317068D01*
X183658654Y-51317068D01*
X183658654Y-51452221D01*
X183388349Y-51452221D01*
X183388349Y-51317068D01*
X183523502Y-51317068D01*
X183658654Y-51317068D01*
X183658654Y-51181916D01*
X183658654Y-51046763D01*
X183928960Y-51046763D01*
X184199265Y-51046763D01*
X184199265Y-51181916D01*
X184199265Y-51317068D01*
X184334418Y-51317068D01*
X184469571Y-51317068D01*
X184469571Y-51181916D01*
X184469571Y-51046763D01*
X184739876Y-51046763D01*
X185010182Y-51046763D01*
X185010182Y-51317068D01*
X185010182Y-51587374D01*
X185145335Y-51587374D01*
X185280487Y-51587374D01*
X185280487Y-51317068D01*
X185280487Y-51046763D01*
X185415640Y-51046763D01*
X185550793Y-51046763D01*
X185550793Y-51587374D01*
X185550793Y-51722527D01*
X185550793Y-52127985D01*
G37*
G36*
X182712585Y-57534095D02*
G01*
X182847738Y-57534095D01*
X182847738Y-57669248D01*
X182847738Y-57804401D01*
X182712585Y-57804401D01*
X182577432Y-57804401D01*
X182577432Y-57669248D01*
X182577432Y-57534095D01*
X182712585Y-57534095D01*
G37*
G36*
X184064113Y-57534095D02*
G01*
X184199265Y-57534095D01*
X184199265Y-57669248D01*
X184199265Y-57804401D01*
X184064113Y-57804401D01*
X183928960Y-57804401D01*
X183928960Y-57669248D01*
X183928960Y-57534095D01*
X184064113Y-57534095D01*
G37*
G36*
X187578084Y-57534095D02*
G01*
X187713237Y-57534095D01*
X187713237Y-57669248D01*
X187713237Y-57804401D01*
X187578084Y-57804401D01*
X187442932Y-57804401D01*
X187442932Y-57669248D01*
X187442932Y-57534095D01*
X187578084Y-57534095D01*
G37*
G36*
X189875681Y-54290429D02*
G01*
X189875681Y-54831040D01*
X189605376Y-54831040D01*
X189335070Y-54831040D01*
X189335070Y-54966193D01*
X189335070Y-55101346D01*
X189199918Y-55101346D01*
X189064765Y-55101346D01*
X189064765Y-54831040D01*
X189064765Y-54560735D01*
X188929612Y-54560735D01*
X188794459Y-54560735D01*
X188794459Y-54831040D01*
X188794459Y-55101346D01*
X188929612Y-55101346D01*
X189064765Y-55101346D01*
X189064765Y-55236498D01*
X189064765Y-55371651D01*
X189199918Y-55371651D01*
X189335070Y-55371651D01*
X189335070Y-55236498D01*
X189335070Y-55101346D01*
X189470223Y-55101346D01*
X189605376Y-55101346D01*
X189605376Y-55236498D01*
X189605376Y-55371651D01*
X189470223Y-55371651D01*
X189335070Y-55371651D01*
X189335070Y-55506804D01*
X189335070Y-55641957D01*
X189199918Y-55641957D01*
X189064765Y-55641957D01*
X189064765Y-55506804D01*
X189064765Y-55371651D01*
X188929612Y-55371651D01*
X188794459Y-55371651D01*
X188794459Y-55506804D01*
X188794459Y-55641957D01*
X188659307Y-55641957D01*
X188524154Y-55641957D01*
X188524154Y-55371651D01*
X188524154Y-55101346D01*
X188253848Y-55101346D01*
X187983543Y-55101346D01*
X187983543Y-54966193D01*
X187983543Y-54831040D01*
X188253848Y-54831040D01*
X188524154Y-54831040D01*
X188524154Y-54560735D01*
X188524154Y-54290429D01*
X188929612Y-54290429D01*
X189335070Y-54290429D01*
X189335070Y-54425582D01*
X189335070Y-54560735D01*
X189470223Y-54560735D01*
X189605376Y-54560735D01*
X189605376Y-54290429D01*
X189605376Y-54020124D01*
X189470223Y-54020124D01*
X189335070Y-54020124D01*
X189335070Y-53884971D01*
X189335070Y-53749818D01*
X189605376Y-53749818D01*
X189875681Y-53749818D01*
X189875681Y-54290429D01*
G37*
G36*
X189740529Y-55371651D02*
G01*
X189875681Y-55371651D01*
X189875681Y-55506804D01*
X189875681Y-55641957D01*
X189740529Y-55641957D01*
X189605376Y-55641957D01*
X189605376Y-55506804D01*
X189605376Y-55371651D01*
X189740529Y-55371651D01*
G37*
G36*
X187307779Y-54290429D02*
G01*
X187442932Y-54290429D01*
X187442932Y-54560735D01*
X187442932Y-54831040D01*
X187307779Y-54831040D01*
X187172626Y-54831040D01*
X187172626Y-54560735D01*
X187172626Y-54290429D01*
X187307779Y-54290429D01*
G37*
G36*
X187172626Y-53614665D02*
G01*
X187172626Y-53749818D01*
X187037473Y-53749818D01*
X186902321Y-53749818D01*
X186902321Y-53614665D01*
X186902321Y-53479513D01*
X187037473Y-53479513D01*
X187172626Y-53479513D01*
X187172626Y-53614665D01*
G37*
G36*
X183388349Y-51181916D02*
G01*
X183388349Y-51317068D01*
X183253196Y-51317068D01*
X183118043Y-51317068D01*
X183118043Y-51181916D01*
X183118043Y-51046763D01*
X183253196Y-51046763D01*
X183388349Y-51046763D01*
X183388349Y-51181916D01*
G37*
G36*
X183793807Y-49424930D02*
G01*
X183928960Y-49424930D01*
X183928960Y-49830388D01*
X183928960Y-50235846D01*
X184064113Y-50235846D01*
X184199265Y-50235846D01*
X184199265Y-49965541D01*
X184199265Y-49695235D01*
X184334418Y-49695235D01*
X184469571Y-49695235D01*
X184469571Y-49965541D01*
X184469571Y-50235846D01*
X184739876Y-50235846D01*
X185010182Y-50235846D01*
X185010182Y-50100693D01*
X185010182Y-49965541D01*
X185145335Y-49965541D01*
X185280487Y-49965541D01*
X185280487Y-50100693D01*
X185280487Y-50235846D01*
X185145335Y-50235846D01*
X185010182Y-50235846D01*
X185010182Y-50506152D01*
X185010182Y-50776457D01*
X185145335Y-50776457D01*
X185280487Y-50776457D01*
X185280487Y-50641304D01*
X185280487Y-50506152D01*
X185415640Y-50506152D01*
X185550793Y-50506152D01*
X185550793Y-50641304D01*
X185550793Y-50776457D01*
X185415640Y-50776457D01*
X185280487Y-50776457D01*
X185280487Y-50911610D01*
X185280487Y-51046763D01*
X185145335Y-51046763D01*
X185010182Y-51046763D01*
X185010182Y-50911610D01*
X185010182Y-50776457D01*
X184875029Y-50776457D01*
X184739876Y-50776457D01*
X184739876Y-50641304D01*
X184739876Y-50506152D01*
X184604724Y-50506152D01*
X184469571Y-50506152D01*
X184469571Y-50776457D01*
X184469571Y-51046763D01*
X184334418Y-51046763D01*
X184199265Y-51046763D01*
X184199265Y-50776457D01*
X184199265Y-50506152D01*
X184064113Y-50506152D01*
X183928960Y-50506152D01*
X183928960Y-50641304D01*
X183928960Y-50776457D01*
X183793807Y-50776457D01*
X183658654Y-50776457D01*
X183658654Y-50911610D01*
X183658654Y-51046763D01*
X183523502Y-51046763D01*
X183388349Y-51046763D01*
X183388349Y-50911610D01*
X183388349Y-50776457D01*
X183253196Y-50776457D01*
X183118043Y-50776457D01*
X183118043Y-50370999D01*
X183118043Y-49965541D01*
X183253196Y-49965541D01*
X183388349Y-49965541D01*
X183388349Y-50370999D01*
X183388349Y-50776457D01*
X183523502Y-50776457D01*
X183658654Y-50776457D01*
X183658654Y-50100693D01*
X183658654Y-49424930D01*
X183793807Y-49424930D01*
G37*
G36*
X183658654Y-49154624D02*
G01*
X183658654Y-49424930D01*
X183523502Y-49424930D01*
X183388349Y-49424930D01*
X183388349Y-49560082D01*
X183388349Y-49695235D01*
X183253196Y-49695235D01*
X183118043Y-49695235D01*
X183118043Y-49424930D01*
X183118043Y-49154624D01*
X183253196Y-49154624D01*
X183388349Y-49154624D01*
X183388349Y-49019471D01*
X183388349Y-48884319D01*
X183523502Y-48884319D01*
X183658654Y-48884319D01*
X183658654Y-49154624D01*
G37*
%TD*%
M02*
