%TF.GenerationSoftware,KiCad,Pcbnew,8.0.4*%
%TF.CreationDate,2025-01-08T10:58:36-05:00*%
%TF.ProjectId,BarrelJackAdapter,42617272-656c-44a6-9163-6b4164617074,rev?*%
%TF.SameCoordinates,Original*%
%TF.FileFunction,Legend,Top*%
%TF.FilePolarity,Positive*%
%FSLAX46Y46*%
G04 Gerber Fmt 4.6, Leading zero omitted, Abs format (unit mm)*
G04 Created by KiCad (PCBNEW 8.0.4) date 2025-01-08 10:58:36*
%MOMM*%
%LPD*%
G01*
G04 APERTURE LIST*
%ADD10C,0.150000*%
%ADD11C,0.120000*%
G04 APERTURE END LIST*
D10*
X184010541Y-45224819D02*
X184629588Y-45224819D01*
X184629588Y-45224819D02*
X184296255Y-45605771D01*
X184296255Y-45605771D02*
X184439112Y-45605771D01*
X184439112Y-45605771D02*
X184534350Y-45653390D01*
X184534350Y-45653390D02*
X184581969Y-45701009D01*
X184581969Y-45701009D02*
X184629588Y-45796247D01*
X184629588Y-45796247D02*
X184629588Y-46034342D01*
X184629588Y-46034342D02*
X184581969Y-46129580D01*
X184581969Y-46129580D02*
X184534350Y-46177200D01*
X184534350Y-46177200D02*
X184439112Y-46224819D01*
X184439112Y-46224819D02*
X184153398Y-46224819D01*
X184153398Y-46224819D02*
X184058160Y-46177200D01*
X184058160Y-46177200D02*
X184010541Y-46129580D01*
X185058160Y-46129580D02*
X185105779Y-46177200D01*
X185105779Y-46177200D02*
X185058160Y-46224819D01*
X185058160Y-46224819D02*
X185010541Y-46177200D01*
X185010541Y-46177200D02*
X185058160Y-46129580D01*
X185058160Y-46129580D02*
X185058160Y-46224819D01*
X185439112Y-45224819D02*
X186058159Y-45224819D01*
X186058159Y-45224819D02*
X185724826Y-45605771D01*
X185724826Y-45605771D02*
X185867683Y-45605771D01*
X185867683Y-45605771D02*
X185962921Y-45653390D01*
X185962921Y-45653390D02*
X186010540Y-45701009D01*
X186010540Y-45701009D02*
X186058159Y-45796247D01*
X186058159Y-45796247D02*
X186058159Y-46034342D01*
X186058159Y-46034342D02*
X186010540Y-46129580D01*
X186010540Y-46129580D02*
X185962921Y-46177200D01*
X185962921Y-46177200D02*
X185867683Y-46224819D01*
X185867683Y-46224819D02*
X185581969Y-46224819D01*
X185581969Y-46224819D02*
X185486731Y-46177200D01*
X185486731Y-46177200D02*
X185439112Y-46129580D01*
X186343874Y-45224819D02*
X186677207Y-46224819D01*
X186677207Y-46224819D02*
X187010540Y-45224819D01*
X184216922Y-37604819D02*
X184550255Y-38604819D01*
X184550255Y-38604819D02*
X184883588Y-37604819D01*
X185216922Y-38604819D02*
X185216922Y-37938152D01*
X185216922Y-37604819D02*
X185169303Y-37652438D01*
X185169303Y-37652438D02*
X185216922Y-37700057D01*
X185216922Y-37700057D02*
X185264541Y-37652438D01*
X185264541Y-37652438D02*
X185216922Y-37604819D01*
X185216922Y-37604819D02*
X185216922Y-37700057D01*
X185693112Y-37938152D02*
X185693112Y-38604819D01*
X185693112Y-38033390D02*
X185740731Y-37985771D01*
X185740731Y-37985771D02*
X185835969Y-37938152D01*
X185835969Y-37938152D02*
X185978826Y-37938152D01*
X185978826Y-37938152D02*
X186074064Y-37985771D01*
X186074064Y-37985771D02*
X186121683Y-38081009D01*
X186121683Y-38081009D02*
X186121683Y-38604819D01*
X184502588Y-40319438D02*
X184407350Y-40271819D01*
X184407350Y-40271819D02*
X184264493Y-40271819D01*
X184264493Y-40271819D02*
X184121636Y-40319438D01*
X184121636Y-40319438D02*
X184026398Y-40414676D01*
X184026398Y-40414676D02*
X183978779Y-40509914D01*
X183978779Y-40509914D02*
X183931160Y-40700390D01*
X183931160Y-40700390D02*
X183931160Y-40843247D01*
X183931160Y-40843247D02*
X183978779Y-41033723D01*
X183978779Y-41033723D02*
X184026398Y-41128961D01*
X184026398Y-41128961D02*
X184121636Y-41224200D01*
X184121636Y-41224200D02*
X184264493Y-41271819D01*
X184264493Y-41271819D02*
X184359731Y-41271819D01*
X184359731Y-41271819D02*
X184502588Y-41224200D01*
X184502588Y-41224200D02*
X184550207Y-41176580D01*
X184550207Y-41176580D02*
X184550207Y-40843247D01*
X184550207Y-40843247D02*
X184359731Y-40843247D01*
X184978779Y-41271819D02*
X184978779Y-40271819D01*
X184978779Y-40271819D02*
X185550207Y-41271819D01*
X185550207Y-41271819D02*
X185550207Y-40271819D01*
X186026398Y-41271819D02*
X186026398Y-40271819D01*
X186026398Y-40271819D02*
X186264493Y-40271819D01*
X186264493Y-40271819D02*
X186407350Y-40319438D01*
X186407350Y-40319438D02*
X186502588Y-40414676D01*
X186502588Y-40414676D02*
X186550207Y-40509914D01*
X186550207Y-40509914D02*
X186597826Y-40700390D01*
X186597826Y-40700390D02*
X186597826Y-40843247D01*
X186597826Y-40843247D02*
X186550207Y-41033723D01*
X186550207Y-41033723D02*
X186502588Y-41128961D01*
X186502588Y-41128961D02*
X186407350Y-41224200D01*
X186407350Y-41224200D02*
X186264493Y-41271819D01*
X186264493Y-41271819D02*
X186026398Y-41271819D01*
X185089969Y-42684819D02*
X184613779Y-42684819D01*
X184613779Y-42684819D02*
X184566160Y-43161009D01*
X184566160Y-43161009D02*
X184613779Y-43113390D01*
X184613779Y-43113390D02*
X184709017Y-43065771D01*
X184709017Y-43065771D02*
X184947112Y-43065771D01*
X184947112Y-43065771D02*
X185042350Y-43113390D01*
X185042350Y-43113390D02*
X185089969Y-43161009D01*
X185089969Y-43161009D02*
X185137588Y-43256247D01*
X185137588Y-43256247D02*
X185137588Y-43494342D01*
X185137588Y-43494342D02*
X185089969Y-43589580D01*
X185089969Y-43589580D02*
X185042350Y-43637200D01*
X185042350Y-43637200D02*
X184947112Y-43684819D01*
X184947112Y-43684819D02*
X184709017Y-43684819D01*
X184709017Y-43684819D02*
X184613779Y-43637200D01*
X184613779Y-43637200D02*
X184566160Y-43589580D01*
X185423303Y-42684819D02*
X185756636Y-43684819D01*
X185756636Y-43684819D02*
X186089969Y-42684819D01*
X178701819Y-74799649D02*
X178701819Y-74990125D01*
X178701819Y-74990125D02*
X178749438Y-75085363D01*
X178749438Y-75085363D02*
X178797057Y-75132982D01*
X178797057Y-75132982D02*
X178939914Y-75228220D01*
X178939914Y-75228220D02*
X179130390Y-75275839D01*
X179130390Y-75275839D02*
X179511342Y-75275839D01*
X179511342Y-75275839D02*
X179606580Y-75228220D01*
X179606580Y-75228220D02*
X179654200Y-75180601D01*
X179654200Y-75180601D02*
X179701819Y-75085363D01*
X179701819Y-75085363D02*
X179701819Y-74894887D01*
X179701819Y-74894887D02*
X179654200Y-74799649D01*
X179654200Y-74799649D02*
X179606580Y-74752030D01*
X179606580Y-74752030D02*
X179511342Y-74704411D01*
X179511342Y-74704411D02*
X179273247Y-74704411D01*
X179273247Y-74704411D02*
X179178009Y-74752030D01*
X179178009Y-74752030D02*
X179130390Y-74799649D01*
X179130390Y-74799649D02*
X179082771Y-74894887D01*
X179082771Y-74894887D02*
X179082771Y-75085363D01*
X179082771Y-75085363D02*
X179130390Y-75180601D01*
X179130390Y-75180601D02*
X179178009Y-75228220D01*
X179178009Y-75228220D02*
X179273247Y-75275839D01*
X179320866Y-74275839D02*
X179320866Y-73513935D01*
X179701819Y-72513935D02*
X179701819Y-73085363D01*
X179701819Y-72799649D02*
X178701819Y-72799649D01*
X178701819Y-72799649D02*
X178844676Y-72894887D01*
X178844676Y-72894887D02*
X178939914Y-72990125D01*
X178939914Y-72990125D02*
X178987533Y-73085363D01*
X178797057Y-72132982D02*
X178749438Y-72085363D01*
X178749438Y-72085363D02*
X178701819Y-71990125D01*
X178701819Y-71990125D02*
X178701819Y-71752030D01*
X178701819Y-71752030D02*
X178749438Y-71656792D01*
X178749438Y-71656792D02*
X178797057Y-71609173D01*
X178797057Y-71609173D02*
X178892295Y-71561554D01*
X178892295Y-71561554D02*
X178987533Y-71561554D01*
X178987533Y-71561554D02*
X179130390Y-71609173D01*
X179130390Y-71609173D02*
X179701819Y-72180601D01*
X179701819Y-72180601D02*
X179701819Y-71561554D01*
X178701819Y-71275839D02*
X179701819Y-70942506D01*
X179701819Y-70942506D02*
X178701819Y-70609173D01*
X180074095Y-59865819D02*
X180074095Y-60675342D01*
X180074095Y-60675342D02*
X180121714Y-60770580D01*
X180121714Y-60770580D02*
X180169333Y-60818200D01*
X180169333Y-60818200D02*
X180264571Y-60865819D01*
X180264571Y-60865819D02*
X180455047Y-60865819D01*
X180455047Y-60865819D02*
X180550285Y-60818200D01*
X180550285Y-60818200D02*
X180597904Y-60770580D01*
X180597904Y-60770580D02*
X180645523Y-60675342D01*
X180645523Y-60675342D02*
X180645523Y-59865819D01*
X181645523Y-60865819D02*
X181074095Y-60865819D01*
X181359809Y-60865819D02*
X181359809Y-59865819D01*
X181359809Y-59865819D02*
X181264571Y-60008676D01*
X181264571Y-60008676D02*
X181169333Y-60103914D01*
X181169333Y-60103914D02*
X181074095Y-60151533D01*
X180086095Y-48730819D02*
X180086095Y-49540342D01*
X180086095Y-49540342D02*
X180133714Y-49635580D01*
X180133714Y-49635580D02*
X180181333Y-49683200D01*
X180181333Y-49683200D02*
X180276571Y-49730819D01*
X180276571Y-49730819D02*
X180467047Y-49730819D01*
X180467047Y-49730819D02*
X180562285Y-49683200D01*
X180562285Y-49683200D02*
X180609904Y-49635580D01*
X180609904Y-49635580D02*
X180657523Y-49540342D01*
X180657523Y-49540342D02*
X180657523Y-48730819D01*
X181086095Y-48826057D02*
X181133714Y-48778438D01*
X181133714Y-48778438D02*
X181228952Y-48730819D01*
X181228952Y-48730819D02*
X181467047Y-48730819D01*
X181467047Y-48730819D02*
X181562285Y-48778438D01*
X181562285Y-48778438D02*
X181609904Y-48826057D01*
X181609904Y-48826057D02*
X181657523Y-48921295D01*
X181657523Y-48921295D02*
X181657523Y-49016533D01*
X181657523Y-49016533D02*
X181609904Y-49159390D01*
X181609904Y-49159390D02*
X181038476Y-49730819D01*
X181038476Y-49730819D02*
X181657523Y-49730819D01*
X180681333Y-66654819D02*
X180348000Y-66178628D01*
X180109905Y-66654819D02*
X180109905Y-65654819D01*
X180109905Y-65654819D02*
X180490857Y-65654819D01*
X180490857Y-65654819D02*
X180586095Y-65702438D01*
X180586095Y-65702438D02*
X180633714Y-65750057D01*
X180633714Y-65750057D02*
X180681333Y-65845295D01*
X180681333Y-65845295D02*
X180681333Y-65988152D01*
X180681333Y-65988152D02*
X180633714Y-66083390D01*
X180633714Y-66083390D02*
X180586095Y-66131009D01*
X180586095Y-66131009D02*
X180490857Y-66178628D01*
X180490857Y-66178628D02*
X180109905Y-66178628D01*
X181014667Y-65654819D02*
X181633714Y-65654819D01*
X181633714Y-65654819D02*
X181300381Y-66035771D01*
X181300381Y-66035771D02*
X181443238Y-66035771D01*
X181443238Y-66035771D02*
X181538476Y-66083390D01*
X181538476Y-66083390D02*
X181586095Y-66131009D01*
X181586095Y-66131009D02*
X181633714Y-66226247D01*
X181633714Y-66226247D02*
X181633714Y-66464342D01*
X181633714Y-66464342D02*
X181586095Y-66559580D01*
X181586095Y-66559580D02*
X181538476Y-66607200D01*
X181538476Y-66607200D02*
X181443238Y-66654819D01*
X181443238Y-66654819D02*
X181157524Y-66654819D01*
X181157524Y-66654819D02*
X181062286Y-66607200D01*
X181062286Y-66607200D02*
X181014667Y-66559580D01*
X187811580Y-65190666D02*
X187859200Y-65238285D01*
X187859200Y-65238285D02*
X187906819Y-65381142D01*
X187906819Y-65381142D02*
X187906819Y-65476380D01*
X187906819Y-65476380D02*
X187859200Y-65619237D01*
X187859200Y-65619237D02*
X187763961Y-65714475D01*
X187763961Y-65714475D02*
X187668723Y-65762094D01*
X187668723Y-65762094D02*
X187478247Y-65809713D01*
X187478247Y-65809713D02*
X187335390Y-65809713D01*
X187335390Y-65809713D02*
X187144914Y-65762094D01*
X187144914Y-65762094D02*
X187049676Y-65714475D01*
X187049676Y-65714475D02*
X186954438Y-65619237D01*
X186954438Y-65619237D02*
X186906819Y-65476380D01*
X186906819Y-65476380D02*
X186906819Y-65381142D01*
X186906819Y-65381142D02*
X186954438Y-65238285D01*
X186954438Y-65238285D02*
X187002057Y-65190666D01*
X186906819Y-64857332D02*
X186906819Y-64238285D01*
X186906819Y-64238285D02*
X187287771Y-64571618D01*
X187287771Y-64571618D02*
X187287771Y-64428761D01*
X187287771Y-64428761D02*
X187335390Y-64333523D01*
X187335390Y-64333523D02*
X187383009Y-64285904D01*
X187383009Y-64285904D02*
X187478247Y-64238285D01*
X187478247Y-64238285D02*
X187716342Y-64238285D01*
X187716342Y-64238285D02*
X187811580Y-64285904D01*
X187811580Y-64285904D02*
X187859200Y-64333523D01*
X187859200Y-64333523D02*
X187906819Y-64428761D01*
X187906819Y-64428761D02*
X187906819Y-64714475D01*
X187906819Y-64714475D02*
X187859200Y-64809713D01*
X187859200Y-64809713D02*
X187811580Y-64857332D01*
X190624819Y-77713333D02*
X191339104Y-77713333D01*
X191339104Y-77713333D02*
X191481961Y-77760952D01*
X191481961Y-77760952D02*
X191577200Y-77856190D01*
X191577200Y-77856190D02*
X191624819Y-77999047D01*
X191624819Y-77999047D02*
X191624819Y-78094285D01*
X191624819Y-76713333D02*
X191624819Y-77284761D01*
X191624819Y-76999047D02*
X190624819Y-76999047D01*
X190624819Y-76999047D02*
X190767676Y-77094285D01*
X190767676Y-77094285D02*
X190862914Y-77189523D01*
X190862914Y-77189523D02*
X190910533Y-77284761D01*
X185779580Y-65190666D02*
X185827200Y-65238285D01*
X185827200Y-65238285D02*
X185874819Y-65381142D01*
X185874819Y-65381142D02*
X185874819Y-65476380D01*
X185874819Y-65476380D02*
X185827200Y-65619237D01*
X185827200Y-65619237D02*
X185731961Y-65714475D01*
X185731961Y-65714475D02*
X185636723Y-65762094D01*
X185636723Y-65762094D02*
X185446247Y-65809713D01*
X185446247Y-65809713D02*
X185303390Y-65809713D01*
X185303390Y-65809713D02*
X185112914Y-65762094D01*
X185112914Y-65762094D02*
X185017676Y-65714475D01*
X185017676Y-65714475D02*
X184922438Y-65619237D01*
X184922438Y-65619237D02*
X184874819Y-65476380D01*
X184874819Y-65476380D02*
X184874819Y-65381142D01*
X184874819Y-65381142D02*
X184922438Y-65238285D01*
X184922438Y-65238285D02*
X184970057Y-65190666D01*
X185874819Y-64238285D02*
X185874819Y-64809713D01*
X185874819Y-64523999D02*
X184874819Y-64523999D01*
X184874819Y-64523999D02*
X185017676Y-64619237D01*
X185017676Y-64619237D02*
X185112914Y-64714475D01*
X185112914Y-64714475D02*
X185160533Y-64809713D01*
X179538333Y-52524819D02*
X179205000Y-52048628D01*
X178966905Y-52524819D02*
X178966905Y-51524819D01*
X178966905Y-51524819D02*
X179347857Y-51524819D01*
X179347857Y-51524819D02*
X179443095Y-51572438D01*
X179443095Y-51572438D02*
X179490714Y-51620057D01*
X179490714Y-51620057D02*
X179538333Y-51715295D01*
X179538333Y-51715295D02*
X179538333Y-51858152D01*
X179538333Y-51858152D02*
X179490714Y-51953390D01*
X179490714Y-51953390D02*
X179443095Y-52001009D01*
X179443095Y-52001009D02*
X179347857Y-52048628D01*
X179347857Y-52048628D02*
X178966905Y-52048628D01*
X180490714Y-52524819D02*
X179919286Y-52524819D01*
X180205000Y-52524819D02*
X180205000Y-51524819D01*
X180205000Y-51524819D02*
X180109762Y-51667676D01*
X180109762Y-51667676D02*
X180014524Y-51762914D01*
X180014524Y-51762914D02*
X179919286Y-51810533D01*
X181443333Y-54842580D02*
X181395714Y-54890200D01*
X181395714Y-54890200D02*
X181252857Y-54937819D01*
X181252857Y-54937819D02*
X181157619Y-54937819D01*
X181157619Y-54937819D02*
X181014762Y-54890200D01*
X181014762Y-54890200D02*
X180919524Y-54794961D01*
X180919524Y-54794961D02*
X180871905Y-54699723D01*
X180871905Y-54699723D02*
X180824286Y-54509247D01*
X180824286Y-54509247D02*
X180824286Y-54366390D01*
X180824286Y-54366390D02*
X180871905Y-54175914D01*
X180871905Y-54175914D02*
X180919524Y-54080676D01*
X180919524Y-54080676D02*
X181014762Y-53985438D01*
X181014762Y-53985438D02*
X181157619Y-53937819D01*
X181157619Y-53937819D02*
X181252857Y-53937819D01*
X181252857Y-53937819D02*
X181395714Y-53985438D01*
X181395714Y-53985438D02*
X181443333Y-54033057D01*
X182300476Y-54271152D02*
X182300476Y-54937819D01*
X182062381Y-53890200D02*
X181824286Y-54604485D01*
X181824286Y-54604485D02*
X182443333Y-54604485D01*
X190968333Y-49127580D02*
X190920714Y-49175200D01*
X190920714Y-49175200D02*
X190777857Y-49222819D01*
X190777857Y-49222819D02*
X190682619Y-49222819D01*
X190682619Y-49222819D02*
X190539762Y-49175200D01*
X190539762Y-49175200D02*
X190444524Y-49079961D01*
X190444524Y-49079961D02*
X190396905Y-48984723D01*
X190396905Y-48984723D02*
X190349286Y-48794247D01*
X190349286Y-48794247D02*
X190349286Y-48651390D01*
X190349286Y-48651390D02*
X190396905Y-48460914D01*
X190396905Y-48460914D02*
X190444524Y-48365676D01*
X190444524Y-48365676D02*
X190539762Y-48270438D01*
X190539762Y-48270438D02*
X190682619Y-48222819D01*
X190682619Y-48222819D02*
X190777857Y-48222819D01*
X190777857Y-48222819D02*
X190920714Y-48270438D01*
X190920714Y-48270438D02*
X190968333Y-48318057D01*
X191825476Y-48222819D02*
X191635000Y-48222819D01*
X191635000Y-48222819D02*
X191539762Y-48270438D01*
X191539762Y-48270438D02*
X191492143Y-48318057D01*
X191492143Y-48318057D02*
X191396905Y-48460914D01*
X191396905Y-48460914D02*
X191349286Y-48651390D01*
X191349286Y-48651390D02*
X191349286Y-49032342D01*
X191349286Y-49032342D02*
X191396905Y-49127580D01*
X191396905Y-49127580D02*
X191444524Y-49175200D01*
X191444524Y-49175200D02*
X191539762Y-49222819D01*
X191539762Y-49222819D02*
X191730238Y-49222819D01*
X191730238Y-49222819D02*
X191825476Y-49175200D01*
X191825476Y-49175200D02*
X191873095Y-49127580D01*
X191873095Y-49127580D02*
X191920714Y-49032342D01*
X191920714Y-49032342D02*
X191920714Y-48794247D01*
X191920714Y-48794247D02*
X191873095Y-48699009D01*
X191873095Y-48699009D02*
X191825476Y-48651390D01*
X191825476Y-48651390D02*
X191730238Y-48603771D01*
X191730238Y-48603771D02*
X191539762Y-48603771D01*
X191539762Y-48603771D02*
X191444524Y-48651390D01*
X191444524Y-48651390D02*
X191396905Y-48699009D01*
X191396905Y-48699009D02*
X191349286Y-48794247D01*
X189698333Y-52524819D02*
X189365000Y-52048628D01*
X189126905Y-52524819D02*
X189126905Y-51524819D01*
X189126905Y-51524819D02*
X189507857Y-51524819D01*
X189507857Y-51524819D02*
X189603095Y-51572438D01*
X189603095Y-51572438D02*
X189650714Y-51620057D01*
X189650714Y-51620057D02*
X189698333Y-51715295D01*
X189698333Y-51715295D02*
X189698333Y-51858152D01*
X189698333Y-51858152D02*
X189650714Y-51953390D01*
X189650714Y-51953390D02*
X189603095Y-52001009D01*
X189603095Y-52001009D02*
X189507857Y-52048628D01*
X189507857Y-52048628D02*
X189126905Y-52048628D01*
X190079286Y-51620057D02*
X190126905Y-51572438D01*
X190126905Y-51572438D02*
X190222143Y-51524819D01*
X190222143Y-51524819D02*
X190460238Y-51524819D01*
X190460238Y-51524819D02*
X190555476Y-51572438D01*
X190555476Y-51572438D02*
X190603095Y-51620057D01*
X190603095Y-51620057D02*
X190650714Y-51715295D01*
X190650714Y-51715295D02*
X190650714Y-51810533D01*
X190650714Y-51810533D02*
X190603095Y-51953390D01*
X190603095Y-51953390D02*
X190031667Y-52524819D01*
X190031667Y-52524819D02*
X190650714Y-52524819D01*
X189063333Y-55064819D02*
X188587143Y-55064819D01*
X188587143Y-55064819D02*
X188587143Y-54064819D01*
X189920476Y-55064819D02*
X189349048Y-55064819D01*
X189634762Y-55064819D02*
X189634762Y-54064819D01*
X189634762Y-54064819D02*
X189539524Y-54207676D01*
X189539524Y-54207676D02*
X189444286Y-54302914D01*
X189444286Y-54302914D02*
X189349048Y-54350533D01*
X184999333Y-54969580D02*
X184951714Y-55017200D01*
X184951714Y-55017200D02*
X184808857Y-55064819D01*
X184808857Y-55064819D02*
X184713619Y-55064819D01*
X184713619Y-55064819D02*
X184570762Y-55017200D01*
X184570762Y-55017200D02*
X184475524Y-54921961D01*
X184475524Y-54921961D02*
X184427905Y-54826723D01*
X184427905Y-54826723D02*
X184380286Y-54636247D01*
X184380286Y-54636247D02*
X184380286Y-54493390D01*
X184380286Y-54493390D02*
X184427905Y-54302914D01*
X184427905Y-54302914D02*
X184475524Y-54207676D01*
X184475524Y-54207676D02*
X184570762Y-54112438D01*
X184570762Y-54112438D02*
X184713619Y-54064819D01*
X184713619Y-54064819D02*
X184808857Y-54064819D01*
X184808857Y-54064819D02*
X184951714Y-54112438D01*
X184951714Y-54112438D02*
X184999333Y-54160057D01*
X185332667Y-54064819D02*
X185999333Y-54064819D01*
X185999333Y-54064819D02*
X185570762Y-55064819D01*
X183747580Y-64936666D02*
X183795200Y-64984285D01*
X183795200Y-64984285D02*
X183842819Y-65127142D01*
X183842819Y-65127142D02*
X183842819Y-65222380D01*
X183842819Y-65222380D02*
X183795200Y-65365237D01*
X183795200Y-65365237D02*
X183699961Y-65460475D01*
X183699961Y-65460475D02*
X183604723Y-65508094D01*
X183604723Y-65508094D02*
X183414247Y-65555713D01*
X183414247Y-65555713D02*
X183271390Y-65555713D01*
X183271390Y-65555713D02*
X183080914Y-65508094D01*
X183080914Y-65508094D02*
X182985676Y-65460475D01*
X182985676Y-65460475D02*
X182890438Y-65365237D01*
X182890438Y-65365237D02*
X182842819Y-65222380D01*
X182842819Y-65222380D02*
X182842819Y-65127142D01*
X182842819Y-65127142D02*
X182890438Y-64984285D01*
X182890438Y-64984285D02*
X182938057Y-64936666D01*
X182938057Y-64555713D02*
X182890438Y-64508094D01*
X182890438Y-64508094D02*
X182842819Y-64412856D01*
X182842819Y-64412856D02*
X182842819Y-64174761D01*
X182842819Y-64174761D02*
X182890438Y-64079523D01*
X182890438Y-64079523D02*
X182938057Y-64031904D01*
X182938057Y-64031904D02*
X183033295Y-63984285D01*
X183033295Y-63984285D02*
X183128533Y-63984285D01*
X183128533Y-63984285D02*
X183271390Y-64031904D01*
X183271390Y-64031904D02*
X183842819Y-64603332D01*
X183842819Y-64603332D02*
X183842819Y-63984285D01*
D11*
%TO.C,U1*%
X180186000Y-61338000D02*
X181486000Y-61338000D01*
X180186000Y-63138000D02*
X181286000Y-63138000D01*
X181536000Y-63418000D02*
X181536000Y-63138000D01*
X181816000Y-63138000D01*
X181536000Y-63418000D01*
G36*
X181536000Y-63418000D02*
G01*
X181536000Y-63138000D01*
X181816000Y-63138000D01*
X181536000Y-63418000D01*
G37*
%TO.C,U2*%
X185150000Y-48020000D02*
X183150000Y-48020000D01*
X185150000Y-50240000D02*
X183150000Y-50240000D01*
X185710000Y-50420000D02*
X185710000Y-50140000D01*
X185990000Y-50140000D01*
X185710000Y-50420000D01*
G36*
X185710000Y-50420000D02*
G01*
X185710000Y-50140000D01*
X185990000Y-50140000D01*
X185710000Y-50420000D01*
G37*
%TO.C,R3*%
X181085258Y-64247500D02*
X180610742Y-64247500D01*
X181085258Y-65292500D02*
X180610742Y-65292500D01*
%TO.C,C3*%
X186942000Y-62624580D02*
X186942000Y-62343420D01*
X187962000Y-62624580D02*
X187962000Y-62343420D01*
%TO.C,J1*%
X180580000Y-67890000D02*
X182320000Y-67890000D01*
X180580000Y-69630000D02*
X180580000Y-67890000D01*
X180820000Y-68130000D02*
X183620000Y-68130000D01*
X180820000Y-82730000D02*
X180820000Y-68130000D01*
X187220000Y-68130000D02*
X190020000Y-68130000D01*
X190020000Y-68130000D02*
X190020000Y-70130000D01*
X190020000Y-73730000D02*
X190020000Y-82730000D01*
X190020000Y-82730000D02*
X180820000Y-82730000D01*
%TO.C,C1*%
X184685000Y-62491252D02*
X184685000Y-61968748D01*
X186155000Y-62491252D02*
X186155000Y-61968748D01*
%TO.C,R1*%
X182896742Y-51469500D02*
X183371258Y-51469500D01*
X182896742Y-52514500D02*
X183371258Y-52514500D01*
%TO.C,C4*%
X180250000Y-56946748D02*
X180250000Y-58369252D01*
X182970000Y-56946748D02*
X182970000Y-58369252D01*
%TO.C,C6*%
X187959420Y-48258000D02*
X188240580Y-48258000D01*
X187959420Y-49278000D02*
X188240580Y-49278000D01*
%TO.C,R2*%
X186261742Y-51469500D02*
X186736258Y-51469500D01*
X186261742Y-52514500D02*
X186736258Y-52514500D01*
%TO.C,L1*%
X187076000Y-59812000D02*
X187076000Y-55504000D01*
X191384000Y-55504000D02*
X191384000Y-59812000D01*
%TO.C,C7*%
X183552000Y-56946748D02*
X183552000Y-58369252D01*
X186272000Y-56946748D02*
X186272000Y-58369252D01*
%TO.C,C2*%
X182878000Y-62370580D02*
X182878000Y-62089420D01*
X183898000Y-62370580D02*
X183898000Y-62089420D01*
%TD*%
M02*
