%TF.GenerationSoftware,KiCad,Pcbnew,8.0.4*%
%TF.CreationDate,2025-01-08T10:58:36-05:00*%
%TF.ProjectId,BarrelJackAdapter,42617272-656c-44a6-9163-6b4164617074,rev?*%
%TF.SameCoordinates,Original*%
%TF.FileFunction,Copper,L1,Top*%
%TF.FilePolarity,Positive*%
%FSLAX46Y46*%
G04 Gerber Fmt 4.6, Leading zero omitted, Abs format (unit mm)*
G04 Created by KiCad (PCBNEW 8.0.4) date 2025-01-08 10:58:36*
%MOMM*%
%LPD*%
G01*
G04 APERTURE LIST*
G04 Aperture macros list*
%AMRoundRect*
0 Rectangle with rounded corners*
0 $1 Rounding radius*
0 $2 $3 $4 $5 $6 $7 $8 $9 X,Y pos of 4 corners*
0 Add a 4 corners polygon primitive as box body*
4,1,4,$2,$3,$4,$5,$6,$7,$8,$9,$2,$3,0*
0 Add four circle primitives for the rounded corners*
1,1,$1+$1,$2,$3*
1,1,$1+$1,$4,$5*
1,1,$1+$1,$6,$7*
1,1,$1+$1,$8,$9*
0 Add four rect primitives between the rounded corners*
20,1,$1+$1,$2,$3,$4,$5,0*
20,1,$1+$1,$4,$5,$6,$7,0*
20,1,$1+$1,$6,$7,$8,$9,0*
20,1,$1+$1,$8,$9,$2,$3,0*%
G04 Aperture macros list end*
%TA.AperFunction,SMDPad,CuDef*%
%ADD10RoundRect,0.085000X0.265000X0.085000X-0.265000X0.085000X-0.265000X-0.085000X0.265000X-0.085000X0*%
%TD*%
%TA.AperFunction,SMDPad,CuDef*%
%ADD11R,0.650000X0.350000*%
%TD*%
%TA.AperFunction,SMDPad,CuDef*%
%ADD12R,1.000000X1.600000*%
%TD*%
%TA.AperFunction,SMDPad,CuDef*%
%ADD13RoundRect,0.200000X0.200000X0.275000X-0.200000X0.275000X-0.200000X-0.275000X0.200000X-0.275000X0*%
%TD*%
%TA.AperFunction,SMDPad,CuDef*%
%ADD14RoundRect,0.225000X0.250000X-0.225000X0.250000X0.225000X-0.250000X0.225000X-0.250000X-0.225000X0*%
%TD*%
%TA.AperFunction,ComponentPad*%
%ADD15R,2.600000X2.600000*%
%TD*%
%TA.AperFunction,ComponentPad*%
%ADD16C,2.600000*%
%TD*%
%TA.AperFunction,SMDPad,CuDef*%
%ADD17RoundRect,0.250000X0.475000X-0.250000X0.475000X0.250000X-0.475000X0.250000X-0.475000X-0.250000X0*%
%TD*%
%TA.AperFunction,SMDPad,CuDef*%
%ADD18RoundRect,0.200000X-0.200000X-0.275000X0.200000X-0.275000X0.200000X0.275000X-0.200000X0.275000X0*%
%TD*%
%TA.AperFunction,SMDPad,CuDef*%
%ADD19RoundRect,0.250000X-1.100000X0.325000X-1.100000X-0.325000X1.100000X-0.325000X1.100000X0.325000X0*%
%TD*%
%TA.AperFunction,SMDPad,CuDef*%
%ADD20RoundRect,0.225000X-0.225000X-0.250000X0.225000X-0.250000X0.225000X0.250000X-0.225000X0.250000X0*%
%TD*%
%TA.AperFunction,SMDPad,CuDef*%
%ADD21R,3.400000X0.980000*%
%TD*%
%TA.AperFunction,ComponentPad*%
%ADD22R,1.700000X1.700000*%
%TD*%
%TA.AperFunction,ComponentPad*%
%ADD23O,1.700000X1.700000*%
%TD*%
%TA.AperFunction,ViaPad*%
%ADD24C,0.500000*%
%TD*%
%TA.AperFunction,ViaPad*%
%ADD25C,0.350000*%
%TD*%
%TA.AperFunction,Conductor*%
%ADD26C,0.240000*%
%TD*%
%TA.AperFunction,Conductor*%
%ADD27C,0.200000*%
%TD*%
%TA.AperFunction,Conductor*%
%ADD28C,0.127000*%
%TD*%
G04 APERTURE END LIST*
D10*
%TO.P,U1,1,VIN*%
%TO.N,+9V*%
X181586000Y-62738000D03*
%TO.P,U1,2,SW*%
%TO.N,/SW*%
X181586000Y-62238000D03*
%TO.P,U1,3,GND*%
%TO.N,GND*%
X181586000Y-61738000D03*
%TO.P,U1,4,BST*%
%TO.N,/BST*%
X180086000Y-61738000D03*
%TO.P,U1,5,EN*%
%TO.N,Net-(U1-EN)*%
X180086000Y-62238000D03*
%TO.P,U1,6,FB*%
%TO.N,/FB*%
X180086000Y-62738000D03*
%TD*%
D11*
%TO.P,U2,1,GND*%
%TO.N,GND*%
X185200000Y-49780000D03*
%TO.P,U2,2,Sense*%
%TO.N,+3.3V*%
X185200000Y-49130000D03*
%TO.P,U2,3,VOUT*%
X185200000Y-48480000D03*
%TO.P,U2,4,VIN*%
%TO.N,+5V*%
X183100000Y-48480000D03*
%TO.P,U2,5,NC*%
%TO.N,unconnected-(U2-NC-Pad5)*%
X183100000Y-49130000D03*
%TO.P,U2,6,EN*%
%TO.N,+5V*%
X183100000Y-49780000D03*
D12*
%TO.P,U2,7,GND*%
%TO.N,GND*%
X184150000Y-49130000D03*
%TD*%
D13*
%TO.P,R3,1*%
%TO.N,+9V*%
X181673000Y-64770000D03*
%TO.P,R3,2*%
%TO.N,Net-(U1-EN)*%
X180023000Y-64770000D03*
%TD*%
D14*
%TO.P,C3,1*%
%TO.N,/BST*%
X187452000Y-63259000D03*
%TO.P,C3,2*%
%TO.N,/SW*%
X187452000Y-61709000D03*
%TD*%
D15*
%TO.P,J1,1*%
%TO.N,+9V*%
X185420000Y-68930000D03*
D16*
%TO.P,J1,2*%
%TO.N,GND*%
X185420000Y-74930000D03*
%TO.P,J1,3*%
X190120000Y-71930000D03*
%TD*%
D17*
%TO.P,C1,1*%
%TO.N,+9V*%
X185420000Y-63180000D03*
%TO.P,C1,2*%
%TO.N,GND*%
X185420000Y-61280000D03*
%TD*%
D18*
%TO.P,R1,1*%
%TO.N,+5V*%
X182309000Y-51992000D03*
%TO.P,R1,2*%
%TO.N,/FB*%
X183959000Y-51992000D03*
%TD*%
D19*
%TO.P,C4,1*%
%TO.N,+5V*%
X181610000Y-56183000D03*
%TO.P,C4,2*%
%TO.N,GND*%
X181610000Y-59133000D03*
%TD*%
D20*
%TO.P,C6,1*%
%TO.N,+3.3V*%
X187325000Y-48768000D03*
%TO.P,C6,2*%
%TO.N,GND*%
X188875000Y-48768000D03*
%TD*%
D18*
%TO.P,R2,1*%
%TO.N,/FB*%
X185674000Y-51992000D03*
%TO.P,R2,2*%
%TO.N,GND*%
X187324000Y-51992000D03*
%TD*%
D21*
%TO.P,L1,1,1*%
%TO.N,/SW*%
X189230000Y-58843000D03*
%TO.P,L1,2,2*%
%TO.N,+5V*%
X189230000Y-56473000D03*
%TD*%
D19*
%TO.P,C7,1*%
%TO.N,+5V*%
X184912000Y-56183000D03*
%TO.P,C7,2*%
%TO.N,GND*%
X184912000Y-59133000D03*
%TD*%
D14*
%TO.P,C2,1*%
%TO.N,+9V*%
X183388000Y-63005000D03*
%TO.P,C2,2*%
%TO.N,GND*%
X183388000Y-61455000D03*
%TD*%
D22*
%TO.P,J4,1,Pin_1*%
%TO.N,+9V*%
X189230000Y-38100000D03*
D23*
%TO.P,J4,2,Pin_2*%
%TO.N,GND*%
X189230000Y-40640000D03*
%TO.P,J4,3,Pin_3*%
%TO.N,+5V*%
X189230000Y-43180000D03*
%TO.P,J4,4,Pin_4*%
%TO.N,+3.3V*%
X189230000Y-45720000D03*
%TD*%
D22*
%TO.P,J2,1,Pin_1*%
%TO.N,+9V*%
X181610000Y-38100000D03*
D23*
%TO.P,J2,2,Pin_2*%
%TO.N,GND*%
X181610000Y-40640000D03*
%TO.P,J2,3,Pin_3*%
%TO.N,+5V*%
X181610000Y-43180000D03*
%TO.P,J2,4,Pin_4*%
%TO.N,+3.3V*%
X181610000Y-45720000D03*
%TD*%
D24*
%TO.N,GND*%
X181864000Y-60960000D03*
X186182000Y-49784000D03*
D25*
X184150000Y-49149000D03*
D24*
X188264800Y-51993800D03*
D25*
X184150000Y-48641000D03*
X188722000Y-48768000D03*
X184150000Y-49657000D03*
%TO.N,/BST*%
X187452000Y-63246000D03*
X179070000Y-61722000D03*
%TO.N,/FB*%
X184912000Y-52070000D03*
X179070000Y-62738000D03*
D24*
%TO.N,+3.3V*%
X187198000Y-48768000D03*
%TD*%
D26*
%TO.N,GND*%
X185200000Y-49780000D02*
X186178000Y-49780000D01*
D27*
X188263000Y-51992000D02*
X188264800Y-51993800D01*
D26*
X186178000Y-49780000D02*
X186182000Y-49784000D01*
D27*
X187324000Y-51992000D02*
X188263000Y-51992000D01*
D26*
%TO.N,+5V*%
X183100000Y-49780000D02*
X183100000Y-50512000D01*
X183100000Y-50512000D02*
X183134000Y-50546000D01*
X183100000Y-47532000D02*
X183134000Y-47498000D01*
X181864000Y-48514000D02*
X181864000Y-49784000D01*
X181864000Y-49784000D02*
X182372000Y-49784000D01*
X183100000Y-48480000D02*
X183100000Y-47532000D01*
X182376000Y-49780000D02*
X183100000Y-49780000D01*
X182372000Y-49784000D02*
X182376000Y-49780000D01*
X183100000Y-48480000D02*
X181898000Y-48480000D01*
X181898000Y-48480000D02*
X181864000Y-48514000D01*
%TO.N,/SW*%
X186690000Y-62230000D02*
X189230000Y-59690000D01*
X181944000Y-62230000D02*
X186690000Y-62230000D01*
X181936000Y-62238000D02*
X181944000Y-62230000D01*
X189230000Y-59690000D02*
X189230000Y-58843000D01*
X181586000Y-62238000D02*
X181936000Y-62238000D01*
%TO.N,/BST*%
X180086000Y-61738000D02*
X179086000Y-61738000D01*
X187719000Y-63259000D02*
X187706000Y-63246000D01*
X179086000Y-61738000D02*
X179070000Y-61722000D01*
%TO.N,/FB*%
X185674000Y-51992000D02*
X184990000Y-51992000D01*
X184834000Y-51992000D02*
X184912000Y-52070000D01*
X184037000Y-52070000D02*
X183959000Y-51992000D01*
X183959000Y-51992000D02*
X184834000Y-51992000D01*
X180086000Y-62738000D02*
X179070000Y-62738000D01*
X184990000Y-51992000D02*
X184912000Y-52070000D01*
%TO.N,+3.3V*%
X185200000Y-49130000D02*
X186963000Y-49130000D01*
X187198000Y-48768000D02*
X187325000Y-48768000D01*
X185200000Y-48480000D02*
X187037000Y-48480000D01*
X186963000Y-49130000D02*
X187325000Y-48768000D01*
X187325000Y-48768000D02*
X187325000Y-48768000D01*
X187198000Y-48641000D02*
X187198000Y-48768000D01*
X187037000Y-48480000D02*
X187198000Y-48641000D01*
D28*
%TO.N,Net-(U1-EN)*%
X180086000Y-62238000D02*
X180436000Y-62238000D01*
X180436000Y-62238000D02*
X180626500Y-62428500D01*
X180626500Y-64166500D02*
X180023000Y-64770000D01*
X180626500Y-62428500D02*
X180626500Y-64166500D01*
%TD*%
%TA.AperFunction,Conductor*%
%TO.N,+5V*%
G36*
X180734414Y-41675685D02*
G01*
X180738498Y-41678425D01*
X180924594Y-41808730D01*
X180968219Y-41863307D01*
X180975413Y-41932805D01*
X180943890Y-41995160D01*
X180924595Y-42011880D01*
X180738922Y-42141890D01*
X180738920Y-42141891D01*
X180571891Y-42308920D01*
X180571886Y-42308926D01*
X180436400Y-42502420D01*
X180436399Y-42502422D01*
X180336570Y-42716507D01*
X180336567Y-42716513D01*
X180279364Y-42929999D01*
X180279364Y-42930000D01*
X181176988Y-42930000D01*
X181144075Y-42987007D01*
X181110000Y-43114174D01*
X181110000Y-43245826D01*
X181144075Y-43372993D01*
X181176988Y-43430000D01*
X180279364Y-43430000D01*
X180336567Y-43643486D01*
X180336570Y-43643492D01*
X180436399Y-43857578D01*
X180571894Y-44051082D01*
X180738917Y-44218105D01*
X180924595Y-44348119D01*
X180968219Y-44402696D01*
X180975412Y-44472195D01*
X180943890Y-44534549D01*
X180924595Y-44551269D01*
X180738594Y-44681508D01*
X180571505Y-44848597D01*
X180435965Y-45042169D01*
X180435964Y-45042171D01*
X180336098Y-45256335D01*
X180336094Y-45256344D01*
X180274938Y-45484586D01*
X180274936Y-45484596D01*
X180254341Y-45719999D01*
X180254341Y-45720000D01*
X180274936Y-45955403D01*
X180274938Y-45955413D01*
X180336094Y-46183655D01*
X180336096Y-46183659D01*
X180336097Y-46183663D01*
X180435965Y-46397830D01*
X180435967Y-46397834D01*
X180544281Y-46552521D01*
X180571505Y-46591401D01*
X180738599Y-46758495D01*
X180835384Y-46826265D01*
X180932165Y-46894032D01*
X180932167Y-46894033D01*
X180932170Y-46894035D01*
X181146337Y-46993903D01*
X181374592Y-47055063D01*
X181562918Y-47071539D01*
X181609999Y-47075659D01*
X181610000Y-47075659D01*
X181610001Y-47075659D01*
X181649234Y-47072226D01*
X181845408Y-47055063D01*
X182073663Y-46993903D01*
X182287830Y-46894035D01*
X182481401Y-46758495D01*
X182648495Y-46591401D01*
X182784035Y-46397830D01*
X182883903Y-46183663D01*
X182945063Y-45955408D01*
X182965659Y-45720000D01*
X182945063Y-45484592D01*
X182883903Y-45256337D01*
X182784035Y-45042171D01*
X182648495Y-44848599D01*
X182648494Y-44848597D01*
X182481402Y-44681506D01*
X182481401Y-44681505D01*
X182295405Y-44551269D01*
X182251781Y-44496692D01*
X182244588Y-44427193D01*
X182276110Y-44364839D01*
X182295405Y-44348119D01*
X182481082Y-44218105D01*
X182648105Y-44051082D01*
X182783600Y-43857578D01*
X182883429Y-43643492D01*
X182883432Y-43643486D01*
X182940636Y-43430000D01*
X182043012Y-43430000D01*
X182075925Y-43372993D01*
X182110000Y-43245826D01*
X182110000Y-43114174D01*
X182075925Y-42987007D01*
X182043012Y-42930000D01*
X182940636Y-42930000D01*
X182940635Y-42929999D01*
X182883432Y-42716513D01*
X182883429Y-42716507D01*
X182783600Y-42502422D01*
X182783599Y-42502420D01*
X182648113Y-42308926D01*
X182648108Y-42308920D01*
X182481078Y-42141890D01*
X182295405Y-42011879D01*
X182251780Y-41957302D01*
X182244588Y-41887804D01*
X182276110Y-41825449D01*
X182295406Y-41808730D01*
X182481502Y-41678425D01*
X182547708Y-41656098D01*
X182552625Y-41656000D01*
X188287375Y-41656000D01*
X188354414Y-41675685D01*
X188358498Y-41678425D01*
X188544594Y-41808730D01*
X188588219Y-41863307D01*
X188595413Y-41932805D01*
X188563890Y-41995160D01*
X188544595Y-42011880D01*
X188358922Y-42141890D01*
X188358920Y-42141891D01*
X188191891Y-42308920D01*
X188191886Y-42308926D01*
X188056400Y-42502420D01*
X188056399Y-42502422D01*
X187956570Y-42716507D01*
X187956567Y-42716513D01*
X187899364Y-42929999D01*
X187899364Y-42930000D01*
X188796988Y-42930000D01*
X188764075Y-42987007D01*
X188730000Y-43114174D01*
X188730000Y-43245826D01*
X188764075Y-43372993D01*
X188796988Y-43430000D01*
X187899364Y-43430000D01*
X187956567Y-43643486D01*
X187956570Y-43643492D01*
X188056399Y-43857578D01*
X188191894Y-44051082D01*
X188358917Y-44218105D01*
X188544595Y-44348119D01*
X188588219Y-44402696D01*
X188595412Y-44472195D01*
X188563890Y-44534549D01*
X188544595Y-44551269D01*
X188358594Y-44681508D01*
X188191505Y-44848597D01*
X188055965Y-45042169D01*
X188055964Y-45042171D01*
X187956098Y-45256335D01*
X187956094Y-45256344D01*
X187894938Y-45484586D01*
X187894936Y-45484596D01*
X187874341Y-45719999D01*
X187874341Y-45720000D01*
X187894936Y-45955403D01*
X187894938Y-45955413D01*
X187956094Y-46183655D01*
X187956096Y-46183659D01*
X187956097Y-46183663D01*
X188055965Y-46397830D01*
X188055967Y-46397834D01*
X188164281Y-46552521D01*
X188191505Y-46591401D01*
X188358599Y-46758495D01*
X188455384Y-46826265D01*
X188552165Y-46894032D01*
X188552167Y-46894033D01*
X188552170Y-46894035D01*
X188766337Y-46993903D01*
X188994592Y-47055063D01*
X189182918Y-47071539D01*
X189229999Y-47075659D01*
X189230000Y-47075659D01*
X189230001Y-47075659D01*
X189269234Y-47072226D01*
X189465408Y-47055063D01*
X189693663Y-46993903D01*
X189907830Y-46894035D01*
X190101401Y-46758495D01*
X190268495Y-46591401D01*
X190404035Y-46397830D01*
X190503903Y-46183663D01*
X190565063Y-45955408D01*
X190585659Y-45720000D01*
X190565063Y-45484592D01*
X190503903Y-45256337D01*
X190404035Y-45042171D01*
X190268495Y-44848599D01*
X190268494Y-44848597D01*
X190101402Y-44681506D01*
X190101401Y-44681505D01*
X189915405Y-44551269D01*
X189871781Y-44496692D01*
X189864588Y-44427193D01*
X189896110Y-44364839D01*
X189915405Y-44348119D01*
X190101082Y-44218105D01*
X190268105Y-44051082D01*
X190403600Y-43857578D01*
X190503429Y-43643492D01*
X190503432Y-43643486D01*
X190560636Y-43430000D01*
X189663012Y-43430000D01*
X189695925Y-43372993D01*
X189730000Y-43245826D01*
X189730000Y-43114174D01*
X189695925Y-42987007D01*
X189663012Y-42930000D01*
X190560636Y-42930000D01*
X190560635Y-42929999D01*
X190503432Y-42716513D01*
X190503429Y-42716507D01*
X190403600Y-42502422D01*
X190403599Y-42502420D01*
X190268113Y-42308926D01*
X190268108Y-42308920D01*
X190101078Y-42141890D01*
X189915405Y-42011879D01*
X189871780Y-41957302D01*
X189864588Y-41887804D01*
X189896110Y-41825449D01*
X189915406Y-41808730D01*
X190101502Y-41678425D01*
X190167708Y-41656098D01*
X190172625Y-41656000D01*
X191761789Y-41656000D01*
X191785980Y-41658383D01*
X191845480Y-41670218D01*
X191890175Y-41688730D01*
X191930272Y-41715522D01*
X191964477Y-41749727D01*
X191991267Y-41789822D01*
X192009781Y-41834517D01*
X192013542Y-41853427D01*
X192021617Y-41894019D01*
X192024000Y-41918210D01*
X192024000Y-56887789D01*
X192021617Y-56911982D01*
X192009781Y-56971482D01*
X191991267Y-57016179D01*
X191964481Y-57056268D01*
X191930269Y-57090479D01*
X191923566Y-57094959D01*
X191890179Y-57117267D01*
X191845482Y-57135781D01*
X191811857Y-57142469D01*
X191785978Y-57147617D01*
X191761789Y-57150000D01*
X191553084Y-57150000D01*
X191486045Y-57130315D01*
X191440290Y-57077511D01*
X191430023Y-57014163D01*
X191429822Y-57014153D01*
X191429871Y-57013225D01*
X191429794Y-57012747D01*
X191429999Y-57010833D01*
X191430000Y-57010827D01*
X191430000Y-56723000D01*
X187030000Y-56723000D01*
X187030000Y-57010833D01*
X187030206Y-57012747D01*
X187030126Y-57013188D01*
X187030178Y-57014153D01*
X187029950Y-57014165D01*
X187017799Y-57081507D01*
X186970187Y-57132643D01*
X186906916Y-57150000D01*
X186719380Y-57150000D01*
X186652341Y-57130315D01*
X186606586Y-57077511D01*
X186596642Y-57008353D01*
X186613841Y-56960903D01*
X186696356Y-56827124D01*
X186696358Y-56827119D01*
X186751505Y-56660697D01*
X186751506Y-56660690D01*
X186761999Y-56557986D01*
X186762000Y-56557973D01*
X186762000Y-56433000D01*
X179760001Y-56433000D01*
X179760001Y-56557986D01*
X179770494Y-56660697D01*
X179825641Y-56827119D01*
X179825643Y-56827124D01*
X179908159Y-56960903D01*
X179926599Y-57028296D01*
X179905676Y-57094959D01*
X179852034Y-57139729D01*
X179802620Y-57150000D01*
X179586211Y-57150000D01*
X179562020Y-57147617D01*
X179547189Y-57144667D01*
X179502518Y-57135781D01*
X179457822Y-57117267D01*
X179417727Y-57090477D01*
X179383522Y-57056272D01*
X179356730Y-57016175D01*
X179338218Y-56971480D01*
X179326383Y-56911980D01*
X179324000Y-56887789D01*
X179324000Y-55935155D01*
X187030000Y-55935155D01*
X187030000Y-56223000D01*
X188980000Y-56223000D01*
X189480000Y-56223000D01*
X191430000Y-56223000D01*
X191430000Y-55935172D01*
X191429999Y-55935155D01*
X191423598Y-55875627D01*
X191423596Y-55875620D01*
X191373354Y-55740913D01*
X191373350Y-55740906D01*
X191287190Y-55625812D01*
X191287187Y-55625809D01*
X191172093Y-55539649D01*
X191172086Y-55539645D01*
X191037379Y-55489403D01*
X191037372Y-55489401D01*
X190977844Y-55483000D01*
X189480000Y-55483000D01*
X189480000Y-56223000D01*
X188980000Y-56223000D01*
X188980000Y-55483000D01*
X187482155Y-55483000D01*
X187422627Y-55489401D01*
X187422620Y-55489403D01*
X187287913Y-55539645D01*
X187287906Y-55539649D01*
X187172812Y-55625809D01*
X187172809Y-55625812D01*
X187086649Y-55740906D01*
X187086645Y-55740913D01*
X187036403Y-55875620D01*
X187036401Y-55875627D01*
X187030000Y-55935155D01*
X179324000Y-55935155D01*
X179324000Y-55808013D01*
X179760000Y-55808013D01*
X179760000Y-55933000D01*
X181360000Y-55933000D01*
X181860000Y-55933000D01*
X184662000Y-55933000D01*
X185162000Y-55933000D01*
X186761999Y-55933000D01*
X186761999Y-55808028D01*
X186761998Y-55808013D01*
X186751505Y-55705302D01*
X186696358Y-55538880D01*
X186696356Y-55538875D01*
X186604315Y-55389654D01*
X186480345Y-55265684D01*
X186331124Y-55173643D01*
X186331119Y-55173641D01*
X186164697Y-55118494D01*
X186164690Y-55118493D01*
X186061986Y-55108000D01*
X185162000Y-55108000D01*
X185162000Y-55933000D01*
X184662000Y-55933000D01*
X184662000Y-55108000D01*
X183762028Y-55108000D01*
X183762012Y-55108001D01*
X183659302Y-55118494D01*
X183492880Y-55173641D01*
X183492875Y-55173643D01*
X183343653Y-55265684D01*
X183337993Y-55270161D01*
X183335967Y-55267599D01*
X183287358Y-55294143D01*
X183217666Y-55289159D01*
X183185387Y-55268414D01*
X183184007Y-55270161D01*
X183178346Y-55265684D01*
X183029124Y-55173643D01*
X183029119Y-55173641D01*
X182862697Y-55118494D01*
X182862690Y-55118493D01*
X182759986Y-55108000D01*
X181860000Y-55108000D01*
X181860000Y-55933000D01*
X181360000Y-55933000D01*
X181360000Y-55108000D01*
X180460028Y-55108000D01*
X180460012Y-55108001D01*
X180357302Y-55118494D01*
X180190880Y-55173641D01*
X180190875Y-55173643D01*
X180041654Y-55265684D01*
X179917684Y-55389654D01*
X179825643Y-55538875D01*
X179825641Y-55538880D01*
X179770494Y-55705302D01*
X179770493Y-55705309D01*
X179760000Y-55808013D01*
X179324000Y-55808013D01*
X179324000Y-52323582D01*
X181409001Y-52323582D01*
X181415408Y-52394102D01*
X181415409Y-52394107D01*
X181465981Y-52556396D01*
X181553927Y-52701877D01*
X181674122Y-52822072D01*
X181819604Y-52910019D01*
X181819603Y-52910019D01*
X181981894Y-52960590D01*
X181981893Y-52960590D01*
X182052408Y-52966998D01*
X182052426Y-52966999D01*
X182058999Y-52966998D01*
X182059000Y-52966998D01*
X182059000Y-52242000D01*
X181409001Y-52242000D01*
X181409001Y-52323582D01*
X179324000Y-52323582D01*
X179324000Y-51660427D01*
X181409000Y-51660427D01*
X181409000Y-51742000D01*
X182059000Y-51742000D01*
X182059000Y-51017000D01*
X182559000Y-51017000D01*
X182559000Y-52966999D01*
X182565581Y-52966999D01*
X182636102Y-52960591D01*
X182636107Y-52960590D01*
X182798396Y-52910018D01*
X182943877Y-52822072D01*
X182943878Y-52822071D01*
X183045963Y-52719985D01*
X183107286Y-52686499D01*
X183176977Y-52691483D01*
X183221326Y-52719984D01*
X183323811Y-52822469D01*
X183323813Y-52822470D01*
X183323815Y-52822472D01*
X183469394Y-52910478D01*
X183631804Y-52961086D01*
X183702384Y-52967500D01*
X183702387Y-52967500D01*
X184215613Y-52967500D01*
X184215616Y-52967500D01*
X184286196Y-52961086D01*
X184448606Y-52910478D01*
X184594185Y-52822472D01*
X184653110Y-52763546D01*
X184714432Y-52730062D01*
X184770465Y-52730830D01*
X184829979Y-52745500D01*
X184910481Y-52745500D01*
X184977520Y-52765185D01*
X184998163Y-52781820D01*
X185038811Y-52822468D01*
X185038811Y-52822469D01*
X185038813Y-52822470D01*
X185038815Y-52822472D01*
X185184394Y-52910478D01*
X185346804Y-52961086D01*
X185417384Y-52967500D01*
X185417387Y-52967500D01*
X185930613Y-52967500D01*
X185930616Y-52967500D01*
X186001196Y-52961086D01*
X186163606Y-52910478D01*
X186309185Y-52822472D01*
X186349837Y-52781820D01*
X186411319Y-52720339D01*
X186472642Y-52686854D01*
X186542334Y-52691838D01*
X186586681Y-52720339D01*
X186688811Y-52822469D01*
X186688813Y-52822470D01*
X186688815Y-52822472D01*
X186834394Y-52910478D01*
X186996804Y-52961086D01*
X187067384Y-52967500D01*
X187067387Y-52967500D01*
X187580613Y-52967500D01*
X187580616Y-52967500D01*
X187651196Y-52961086D01*
X187813606Y-52910478D01*
X187959185Y-52822472D01*
X188013896Y-52767760D01*
X188075216Y-52734276D01*
X188115459Y-52732222D01*
X188177010Y-52739157D01*
X188264798Y-52749049D01*
X188264800Y-52749049D01*
X188264803Y-52749049D01*
X188432856Y-52730114D01*
X188433005Y-52730062D01*
X188592490Y-52674256D01*
X188592492Y-52674254D01*
X188592494Y-52674254D01*
X188592497Y-52674252D01*
X188735684Y-52584281D01*
X188735685Y-52584280D01*
X188735690Y-52584277D01*
X188855277Y-52464690D01*
X188899572Y-52394196D01*
X188945252Y-52321497D01*
X188945254Y-52321494D01*
X188945254Y-52321492D01*
X188945256Y-52321490D01*
X189001113Y-52161859D01*
X189001113Y-52161858D01*
X189001114Y-52161856D01*
X189020049Y-51993802D01*
X189020049Y-51993797D01*
X189001114Y-51825743D01*
X188945254Y-51666105D01*
X188945252Y-51666102D01*
X188855281Y-51522915D01*
X188855276Y-51522909D01*
X188735690Y-51403323D01*
X188735684Y-51403318D01*
X188592497Y-51313347D01*
X188592494Y-51313345D01*
X188432856Y-51257485D01*
X188264803Y-51238551D01*
X188264796Y-51238551D01*
X188118695Y-51255012D01*
X188049873Y-51242957D01*
X188017131Y-51219473D01*
X187959188Y-51161530D01*
X187813606Y-51073522D01*
X187651196Y-51022914D01*
X187651194Y-51022913D01*
X187651192Y-51022913D01*
X187601778Y-51018423D01*
X187580616Y-51016500D01*
X187067384Y-51016500D01*
X187048145Y-51018248D01*
X186996807Y-51022913D01*
X186834393Y-51073522D01*
X186688811Y-51161530D01*
X186688810Y-51161531D01*
X186586681Y-51263661D01*
X186525358Y-51297146D01*
X186455666Y-51292162D01*
X186411319Y-51263661D01*
X186309188Y-51161530D01*
X186163606Y-51073522D01*
X186001196Y-51022914D01*
X186001194Y-51022913D01*
X186001192Y-51022913D01*
X185951778Y-51018423D01*
X185930616Y-51016500D01*
X185417384Y-51016500D01*
X185398145Y-51018248D01*
X185346807Y-51022913D01*
X185184393Y-51073522D01*
X185038811Y-51161530D01*
X184918528Y-51281813D01*
X184914112Y-51287451D01*
X184857273Y-51328085D01*
X184787489Y-51331539D01*
X184726915Y-51296716D01*
X184718888Y-51287451D01*
X184714471Y-51281813D01*
X184594188Y-51161530D01*
X184448606Y-51073522D01*
X184286196Y-51022914D01*
X184286194Y-51022913D01*
X184286192Y-51022913D01*
X184236778Y-51018423D01*
X184215616Y-51016500D01*
X183702384Y-51016500D01*
X183683145Y-51018248D01*
X183631807Y-51022913D01*
X183469393Y-51073522D01*
X183323811Y-51161530D01*
X183323810Y-51161531D01*
X183221327Y-51264015D01*
X183160004Y-51297500D01*
X183090312Y-51292516D01*
X183045965Y-51264015D01*
X182943877Y-51161927D01*
X182798395Y-51073980D01*
X182798396Y-51073980D01*
X182636105Y-51023409D01*
X182636106Y-51023409D01*
X182565572Y-51017000D01*
X182559000Y-51017000D01*
X182059000Y-51017000D01*
X182058999Y-51016999D01*
X182052436Y-51017000D01*
X182052417Y-51017001D01*
X181981897Y-51023408D01*
X181981892Y-51023409D01*
X181819603Y-51073981D01*
X181674122Y-51161927D01*
X181553927Y-51282122D01*
X181465980Y-51427604D01*
X181415409Y-51589893D01*
X181409000Y-51660427D01*
X179324000Y-51660427D01*
X179324000Y-48907136D01*
X182274500Y-48907136D01*
X182274500Y-49352870D01*
X182274501Y-49352876D01*
X182280909Y-49412487D01*
X182282692Y-49420031D01*
X182281438Y-49420327D01*
X182285856Y-49482069D01*
X182281864Y-49495664D01*
X182281401Y-49497624D01*
X182275000Y-49557155D01*
X182275000Y-49605000D01*
X182312306Y-49605000D01*
X182379345Y-49624685D01*
X182411570Y-49654686D01*
X182417454Y-49662546D01*
X182417455Y-49662546D01*
X182417456Y-49662548D01*
X182509876Y-49731734D01*
X182551747Y-49787668D01*
X182556731Y-49857359D01*
X182523245Y-49918682D01*
X182461922Y-49952166D01*
X182435565Y-49955000D01*
X182275000Y-49955000D01*
X182275000Y-50002844D01*
X182281401Y-50062372D01*
X182281403Y-50062379D01*
X182331645Y-50197086D01*
X182331649Y-50197093D01*
X182417809Y-50312187D01*
X182417812Y-50312190D01*
X182532906Y-50398350D01*
X182532913Y-50398354D01*
X182667620Y-50448596D01*
X182667627Y-50448598D01*
X182727155Y-50454999D01*
X182727172Y-50455000D01*
X182925000Y-50455000D01*
X182925000Y-50105678D01*
X182944685Y-50038639D01*
X182997489Y-49992884D01*
X183066647Y-49982940D01*
X183130203Y-50011965D01*
X183165182Y-50062345D01*
X183206202Y-50172328D01*
X183206204Y-50172331D01*
X183250266Y-50231191D01*
X183274684Y-50296653D01*
X183275000Y-50305501D01*
X183275000Y-50455000D01*
X183472828Y-50455000D01*
X183472844Y-50454999D01*
X183532372Y-50448598D01*
X183532373Y-50448598D01*
X183559930Y-50438319D01*
X183603262Y-50430499D01*
X184695298Y-50430499D01*
X184738631Y-50438317D01*
X184747284Y-50441544D01*
X184767517Y-50449091D01*
X184827127Y-50455500D01*
X185572872Y-50455499D01*
X185632483Y-50449091D01*
X185698920Y-50424310D01*
X185768610Y-50419325D01*
X185808224Y-50435497D01*
X185840057Y-50455500D01*
X185854312Y-50464457D01*
X185928020Y-50490248D01*
X186013941Y-50520313D01*
X186055955Y-50525047D01*
X186181997Y-50539249D01*
X186182000Y-50539249D01*
X186182003Y-50539249D01*
X186350056Y-50520314D01*
X186350059Y-50520313D01*
X186509690Y-50464456D01*
X186509692Y-50464454D01*
X186509694Y-50464454D01*
X186509697Y-50464452D01*
X186652884Y-50374481D01*
X186652885Y-50374480D01*
X186652890Y-50374477D01*
X186772477Y-50254890D01*
X186772481Y-50254884D01*
X186862452Y-50111697D01*
X186862454Y-50111694D01*
X186862454Y-50111692D01*
X186862456Y-50111690D01*
X186918313Y-49952059D01*
X186918313Y-49952057D01*
X186918314Y-49952055D01*
X186928972Y-49857460D01*
X186956038Y-49793046D01*
X187013633Y-49753491D01*
X187027991Y-49749728D01*
X187040912Y-49747158D01*
X187047335Y-49745881D01*
X187071521Y-49743499D01*
X187598338Y-49743499D01*
X187598344Y-49743499D01*
X187598352Y-49743498D01*
X187598355Y-49743498D01*
X187652760Y-49737940D01*
X187697708Y-49733349D01*
X187858697Y-49680003D01*
X188003044Y-49590968D01*
X188012319Y-49581693D01*
X188073642Y-49548208D01*
X188143334Y-49553192D01*
X188187681Y-49581693D01*
X188196955Y-49590967D01*
X188196959Y-49590970D01*
X188341294Y-49679998D01*
X188341297Y-49679999D01*
X188341303Y-49680003D01*
X188502292Y-49733349D01*
X188601655Y-49743500D01*
X189148344Y-49743499D01*
X189148352Y-49743498D01*
X189148355Y-49743498D01*
X189202760Y-49737940D01*
X189247708Y-49733349D01*
X189408697Y-49680003D01*
X189553044Y-49590968D01*
X189672968Y-49471044D01*
X189762003Y-49326697D01*
X189815349Y-49165708D01*
X189825500Y-49066345D01*
X189825499Y-48469656D01*
X189824605Y-48460909D01*
X189815349Y-48370292D01*
X189815348Y-48370289D01*
X189800236Y-48324685D01*
X189762003Y-48209303D01*
X189761999Y-48209297D01*
X189761998Y-48209294D01*
X189672970Y-48064959D01*
X189672967Y-48064955D01*
X189553044Y-47945032D01*
X189553040Y-47945029D01*
X189408705Y-47856001D01*
X189408699Y-47855998D01*
X189408697Y-47855997D01*
X189348075Y-47835909D01*
X189247709Y-47802651D01*
X189148346Y-47792500D01*
X188601662Y-47792500D01*
X188601644Y-47792501D01*
X188502292Y-47802650D01*
X188502289Y-47802651D01*
X188341305Y-47855996D01*
X188341294Y-47856001D01*
X188196959Y-47945029D01*
X188196955Y-47945032D01*
X188187681Y-47954307D01*
X188126358Y-47987792D01*
X188056666Y-47982808D01*
X188012319Y-47954307D01*
X188003044Y-47945032D01*
X188003040Y-47945029D01*
X187858705Y-47856001D01*
X187858699Y-47855998D01*
X187858697Y-47855997D01*
X187798075Y-47835909D01*
X187697709Y-47802651D01*
X187598346Y-47792500D01*
X187051662Y-47792500D01*
X187051644Y-47792501D01*
X186952292Y-47802650D01*
X186952289Y-47802651D01*
X186799726Y-47853206D01*
X186760722Y-47859500D01*
X185785134Y-47859500D01*
X185741801Y-47851682D01*
X185632486Y-47810910D01*
X185632485Y-47810909D01*
X185632483Y-47810909D01*
X185572873Y-47804500D01*
X185572863Y-47804500D01*
X184827129Y-47804500D01*
X184827123Y-47804501D01*
X184767518Y-47810908D01*
X184745232Y-47819220D01*
X184738633Y-47821682D01*
X184738630Y-47821683D01*
X184695299Y-47829500D01*
X183603273Y-47829500D01*
X183559941Y-47821682D01*
X183532383Y-47811404D01*
X183532372Y-47811401D01*
X183472844Y-47805000D01*
X183275000Y-47805000D01*
X183275000Y-47954497D01*
X183255315Y-48021536D01*
X183250267Y-48028808D01*
X183206204Y-48087668D01*
X183206202Y-48087671D01*
X183165182Y-48197654D01*
X183123311Y-48253588D01*
X183057847Y-48278005D01*
X182989574Y-48263154D01*
X182940168Y-48213748D01*
X182925000Y-48154321D01*
X182925000Y-47805000D01*
X182727155Y-47805000D01*
X182667627Y-47811401D01*
X182667620Y-47811403D01*
X182532913Y-47861645D01*
X182532906Y-47861649D01*
X182417812Y-47947809D01*
X182417809Y-47947812D01*
X182331649Y-48062906D01*
X182331645Y-48062913D01*
X182281403Y-48197620D01*
X182281401Y-48197627D01*
X182275000Y-48257155D01*
X182275000Y-48305000D01*
X182435565Y-48305000D01*
X182502604Y-48324685D01*
X182548359Y-48377489D01*
X182558303Y-48446647D01*
X182529278Y-48510203D01*
X182509876Y-48528266D01*
X182417456Y-48597451D01*
X182417454Y-48597454D01*
X182411571Y-48605312D01*
X182355639Y-48647182D01*
X182312306Y-48655000D01*
X182275000Y-48655000D01*
X182275000Y-48702844D01*
X182281401Y-48762372D01*
X182283187Y-48769930D01*
X182281542Y-48770318D01*
X182285851Y-48830656D01*
X182280943Y-48847371D01*
X182280908Y-48847520D01*
X182274501Y-48907117D01*
X182274500Y-48907136D01*
X179324000Y-48907136D01*
X179324000Y-41918210D01*
X179326383Y-41894019D01*
X179338218Y-41834517D01*
X179356729Y-41789826D01*
X179383524Y-41749724D01*
X179417724Y-41715524D01*
X179457826Y-41688729D01*
X179502514Y-41670219D01*
X179562028Y-41658381D01*
X179586211Y-41656000D01*
X180667375Y-41656000D01*
X180734414Y-41675685D01*
G37*
%TD.AperFunction*%
%TD*%
%TA.AperFunction,Conductor*%
%TO.N,/SW*%
G36*
X182770578Y-61995685D02*
G01*
X182790870Y-62014579D01*
X182792038Y-62013412D01*
X182798310Y-62019683D01*
X182798313Y-62019687D01*
X182907774Y-62101628D01*
X182940458Y-62113818D01*
X182996390Y-62155687D01*
X183020808Y-62221151D01*
X183005957Y-62289424D01*
X182956552Y-62338830D01*
X182940461Y-62346179D01*
X182907774Y-62358371D01*
X182820303Y-62423851D01*
X182804198Y-62435908D01*
X182798312Y-62440314D01*
X182792038Y-62446588D01*
X182789625Y-62444175D01*
X182746886Y-62476177D01*
X182703539Y-62484000D01*
X182207832Y-62484000D01*
X182140793Y-62464315D01*
X182120151Y-62447682D01*
X182101969Y-62429500D01*
X182046404Y-62373935D01*
X181995893Y-62350381D01*
X181943455Y-62304210D01*
X181924303Y-62237016D01*
X181944519Y-62170135D01*
X181995893Y-62125618D01*
X182046404Y-62102065D01*
X182130065Y-62018404D01*
X182130065Y-62018403D01*
X182136150Y-62012319D01*
X182197473Y-61978834D01*
X182223831Y-61976000D01*
X182703539Y-61976000D01*
X182770578Y-61995685D01*
G37*
%TD.AperFunction*%
%TA.AperFunction,Conductor*%
G36*
X191281677Y-57931685D02*
G01*
X191302319Y-57948319D01*
X191479681Y-58125681D01*
X191513166Y-58187004D01*
X191516000Y-58213362D01*
X191516000Y-59158850D01*
X191504656Y-59210664D01*
X191337530Y-59574032D01*
X191305572Y-59616366D01*
X188166669Y-62306854D01*
X188128992Y-62329004D01*
X187730820Y-62476298D01*
X187687799Y-62484000D01*
X186153794Y-62484000D01*
X186110461Y-62476182D01*
X186002482Y-62435908D01*
X186002483Y-62435908D01*
X185942883Y-62429501D01*
X185942881Y-62429500D01*
X185942873Y-62429500D01*
X185942864Y-62429500D01*
X184897129Y-62429500D01*
X184897123Y-62429501D01*
X184837516Y-62435908D01*
X184729539Y-62476182D01*
X184686206Y-62484000D01*
X184072461Y-62484000D01*
X184005422Y-62464315D01*
X183985129Y-62445420D01*
X183983962Y-62446588D01*
X183977689Y-62440316D01*
X183977687Y-62440313D01*
X183889015Y-62373934D01*
X183868228Y-62358373D01*
X183868226Y-62358372D01*
X183835538Y-62346179D01*
X183779608Y-62304310D01*
X183755191Y-62238846D01*
X183770043Y-62170573D01*
X183819448Y-62121168D01*
X183835528Y-62113823D01*
X183868226Y-62101628D01*
X183977687Y-62019687D01*
X183977692Y-62019679D01*
X183983962Y-62013412D01*
X183986374Y-62015824D01*
X184029114Y-61983823D01*
X184072461Y-61976000D01*
X184686206Y-61976000D01*
X184729539Y-61983818D01*
X184837517Y-62024091D01*
X184837516Y-62024091D01*
X184844444Y-62024835D01*
X184897127Y-62030500D01*
X185942872Y-62030499D01*
X186002483Y-62024091D01*
X186137331Y-61973796D01*
X186252546Y-61887546D01*
X186338796Y-61772331D01*
X186389091Y-61637483D01*
X186392902Y-61602033D01*
X186419639Y-61537485D01*
X186452384Y-61508969D01*
X186944000Y-61214000D01*
X186944000Y-58213362D01*
X186963685Y-58146323D01*
X186980319Y-58125681D01*
X187157681Y-57948319D01*
X187219004Y-57914834D01*
X187245362Y-57912000D01*
X191214638Y-57912000D01*
X191281677Y-57931685D01*
G37*
%TD.AperFunction*%
%TD*%
%TA.AperFunction,Conductor*%
%TO.N,GND*%
G36*
X186455677Y-57677685D02*
G01*
X186476319Y-57694319D01*
X186653681Y-57871681D01*
X186687166Y-57933004D01*
X186690000Y-57959362D01*
X186690000Y-58194060D01*
X186688739Y-58211702D01*
X186688500Y-58213364D01*
X186688500Y-60999130D01*
X186668815Y-61066169D01*
X186628297Y-61105459D01*
X186320940Y-61289872D01*
X186284588Y-61316290D01*
X186251835Y-61344812D01*
X186238975Y-61356816D01*
X186183586Y-61439710D01*
X186156851Y-61504253D01*
X186156849Y-61504260D01*
X186138473Y-61576260D01*
X186134506Y-61588929D01*
X186118471Y-61631919D01*
X186101556Y-61662896D01*
X186080704Y-61690750D01*
X186055750Y-61715704D01*
X186027896Y-61736556D01*
X185996920Y-61753471D01*
X185960167Y-61767180D01*
X185916831Y-61774999D01*
X184923166Y-61774999D01*
X184879834Y-61767181D01*
X184862682Y-61760784D01*
X184818822Y-61744425D01*
X184774911Y-61732379D01*
X184774908Y-61732378D01*
X184774903Y-61732377D01*
X184731570Y-61724559D01*
X184686206Y-61720500D01*
X184072461Y-61720500D01*
X184072449Y-61720500D01*
X184027082Y-61724562D01*
X183983735Y-61732384D01*
X183965909Y-61736263D01*
X183965898Y-61736267D01*
X183875979Y-61779299D01*
X183875974Y-61779301D01*
X183868648Y-61784787D01*
X183861637Y-61787402D01*
X183824572Y-61815148D01*
X183798361Y-61834768D01*
X183732898Y-61859184D01*
X183724053Y-61859500D01*
X183051946Y-61859500D01*
X182984907Y-61839815D01*
X182977647Y-61834775D01*
X182957731Y-61819866D01*
X182947551Y-61811358D01*
X182944695Y-61808699D01*
X182930897Y-61796742D01*
X182842562Y-61750534D01*
X182842561Y-61750533D01*
X182775529Y-61730851D01*
X182775517Y-61730848D01*
X182703540Y-61720500D01*
X182703539Y-61720500D01*
X182223831Y-61720500D01*
X182223830Y-61720500D01*
X182196534Y-61721963D01*
X182196529Y-61721963D01*
X182196517Y-61721964D01*
X182196509Y-61721964D01*
X182196480Y-61721967D01*
X182170158Y-61724797D01*
X182170156Y-61724798D01*
X182075027Y-61754586D01*
X182075022Y-61754588D01*
X182013705Y-61788070D01*
X182013696Y-61788076D01*
X182002236Y-61796654D01*
X181936770Y-61821067D01*
X181911748Y-61820321D01*
X181890318Y-61817500D01*
X181890316Y-61817500D01*
X181281684Y-61817500D01*
X181281683Y-61817500D01*
X181232828Y-61823931D01*
X181125597Y-61873934D01*
X181050635Y-61948896D01*
X180989311Y-61982380D01*
X180919620Y-61977396D01*
X180863686Y-61935524D01*
X180839270Y-61870059D01*
X180838958Y-61860263D01*
X180846042Y-60955992D01*
X180846041Y-60955991D01*
X180848000Y-60706000D01*
X180598001Y-60706000D01*
X180133362Y-60706000D01*
X180066323Y-60686315D01*
X180045681Y-60669681D01*
X179868319Y-60492319D01*
X179834834Y-60430996D01*
X179832000Y-60404638D01*
X179832000Y-57959362D01*
X179851685Y-57892323D01*
X179868319Y-57871681D01*
X180045681Y-57694319D01*
X180107004Y-57660834D01*
X180133362Y-57658000D01*
X186388638Y-57658000D01*
X186455677Y-57677685D01*
G37*
%TD.AperFunction*%
%TD*%
%TA.AperFunction,Conductor*%
%TO.N,+9V*%
G36*
X190501470Y-34365589D02*
G01*
X190561414Y-34369214D01*
X190794114Y-34383290D01*
X190799981Y-34384003D01*
X191086882Y-34436580D01*
X191092613Y-34437992D01*
X191371094Y-34524770D01*
X191376624Y-34526867D01*
X191642613Y-34646580D01*
X191647844Y-34649326D01*
X191897462Y-34800224D01*
X191902321Y-34803577D01*
X191995655Y-34876700D01*
X192131933Y-34983467D01*
X192136362Y-34987391D01*
X192342608Y-35193637D01*
X192346532Y-35198066D01*
X192526418Y-35427673D01*
X192529779Y-35432543D01*
X192680671Y-35682151D01*
X192683421Y-35687390D01*
X192803131Y-35953373D01*
X192805229Y-35958905D01*
X192892004Y-36237377D01*
X192893420Y-36243123D01*
X192945995Y-36530016D01*
X192946709Y-36535889D01*
X192964411Y-36828528D01*
X192964500Y-36831487D01*
X192964500Y-77468512D01*
X192964411Y-77471471D01*
X192946709Y-77764110D01*
X192945995Y-77769983D01*
X192893420Y-78056876D01*
X192892004Y-78062622D01*
X192805229Y-78341094D01*
X192803131Y-78346626D01*
X192683421Y-78612609D01*
X192680671Y-78617848D01*
X192529779Y-78867456D01*
X192526418Y-78872326D01*
X192346532Y-79101933D01*
X192342608Y-79106362D01*
X192136362Y-79312608D01*
X192131933Y-79316532D01*
X191902326Y-79496418D01*
X191897456Y-79499779D01*
X191647848Y-79650671D01*
X191642609Y-79653421D01*
X191376626Y-79773131D01*
X191371094Y-79775229D01*
X191092622Y-79862004D01*
X191086876Y-79863420D01*
X190799983Y-79915995D01*
X190794110Y-79916709D01*
X190501471Y-79934411D01*
X190498512Y-79934500D01*
X180341488Y-79934500D01*
X180338529Y-79934411D01*
X180045889Y-79916709D01*
X180040016Y-79915995D01*
X179753123Y-79863420D01*
X179747377Y-79862004D01*
X179468905Y-79775229D01*
X179463373Y-79773131D01*
X179197390Y-79653421D01*
X179192151Y-79650671D01*
X178942543Y-79499779D01*
X178937673Y-79496418D01*
X178708066Y-79316532D01*
X178703637Y-79312608D01*
X178497391Y-79106362D01*
X178493467Y-79101933D01*
X178313581Y-78872326D01*
X178310224Y-78867462D01*
X178159326Y-78617844D01*
X178156578Y-78612609D01*
X178093513Y-78472486D01*
X178036867Y-78346624D01*
X178034770Y-78341094D01*
X177989309Y-78195204D01*
X177947992Y-78062613D01*
X177946579Y-78056876D01*
X177894004Y-77769983D01*
X177893290Y-77764109D01*
X177875589Y-77471470D01*
X177875500Y-77468512D01*
X177875500Y-74930000D01*
X183911650Y-74930000D01*
X183930220Y-75165960D01*
X183985473Y-75396104D01*
X184076051Y-75614780D01*
X184076053Y-75614783D01*
X184199715Y-75816580D01*
X184199719Y-75816586D01*
X184353434Y-75996565D01*
X184507150Y-76127849D01*
X184533414Y-76150281D01*
X184533419Y-76150284D01*
X184735216Y-76273946D01*
X184735219Y-76273948D01*
X184735221Y-76273948D01*
X184735223Y-76273950D01*
X184953894Y-76364526D01*
X185184042Y-76419780D01*
X185420000Y-76438350D01*
X185655958Y-76419780D01*
X185886106Y-76364526D01*
X186104777Y-76273950D01*
X186306586Y-76150281D01*
X186486565Y-75996565D01*
X186640281Y-75816586D01*
X186763950Y-75614777D01*
X186854526Y-75396106D01*
X186909780Y-75165958D01*
X186928350Y-74930000D01*
X186909780Y-74694042D01*
X186854526Y-74463894D01*
X186763950Y-74245223D01*
X186640281Y-74043414D01*
X186617849Y-74017150D01*
X186486565Y-73863434D01*
X186306586Y-73709719D01*
X186306580Y-73709715D01*
X186104783Y-73586053D01*
X186104780Y-73586051D01*
X185886104Y-73495473D01*
X185655960Y-73440220D01*
X185420000Y-73421650D01*
X185184039Y-73440220D01*
X184953895Y-73495473D01*
X184735219Y-73586051D01*
X184735216Y-73586053D01*
X184533419Y-73709715D01*
X184533413Y-73709719D01*
X184353434Y-73863434D01*
X184199719Y-74043413D01*
X184199715Y-74043419D01*
X184076053Y-74245216D01*
X184076051Y-74245219D01*
X183985473Y-74463895D01*
X183930220Y-74694039D01*
X183911650Y-74930000D01*
X177875500Y-74930000D01*
X177875500Y-71930000D01*
X188611650Y-71930000D01*
X188630220Y-72165960D01*
X188685473Y-72396104D01*
X188776051Y-72614780D01*
X188776053Y-72614783D01*
X188899715Y-72816580D01*
X188899719Y-72816586D01*
X189053434Y-72996565D01*
X189207150Y-73127849D01*
X189233414Y-73150281D01*
X189233419Y-73150284D01*
X189435216Y-73273946D01*
X189435219Y-73273948D01*
X189435221Y-73273948D01*
X189435223Y-73273950D01*
X189653894Y-73364526D01*
X189884042Y-73419780D01*
X190120000Y-73438350D01*
X190355958Y-73419780D01*
X190586106Y-73364526D01*
X190804777Y-73273950D01*
X191006586Y-73150281D01*
X191186565Y-72996565D01*
X191340281Y-72816586D01*
X191463950Y-72614777D01*
X191554526Y-72396106D01*
X191609780Y-72165958D01*
X191628350Y-71930000D01*
X191609780Y-71694042D01*
X191554526Y-71463894D01*
X191463950Y-71245223D01*
X191340281Y-71043414D01*
X191317849Y-71017150D01*
X191186565Y-70863434D01*
X191006586Y-70709719D01*
X191006580Y-70709715D01*
X190804783Y-70586053D01*
X190804780Y-70586051D01*
X190586104Y-70495473D01*
X190355960Y-70440220D01*
X190120000Y-70421650D01*
X189884039Y-70440220D01*
X189653895Y-70495473D01*
X189435219Y-70586051D01*
X189435216Y-70586053D01*
X189233419Y-70709715D01*
X189233413Y-70709719D01*
X189053434Y-70863434D01*
X188899719Y-71043413D01*
X188899715Y-71043419D01*
X188776053Y-71245216D01*
X188776051Y-71245219D01*
X188685473Y-71463895D01*
X188630220Y-71694039D01*
X188611650Y-71930000D01*
X177875500Y-71930000D01*
X177875500Y-67610305D01*
X183920000Y-67610305D01*
X183920000Y-68680000D01*
X184657639Y-68680000D01*
X184650743Y-68696649D01*
X184620000Y-68851207D01*
X184620000Y-69008793D01*
X184650743Y-69163351D01*
X184657639Y-69180000D01*
X183920000Y-69180000D01*
X183920000Y-70249694D01*
X183931604Y-70308036D01*
X183975807Y-70374192D01*
X184041963Y-70418395D01*
X184100305Y-70430000D01*
X185170000Y-70430000D01*
X185170000Y-69692360D01*
X185186649Y-69699257D01*
X185341207Y-69730000D01*
X185498793Y-69730000D01*
X185653351Y-69699257D01*
X185670000Y-69692360D01*
X185670000Y-70430000D01*
X186739695Y-70430000D01*
X186798036Y-70418395D01*
X186864192Y-70374192D01*
X186908395Y-70308036D01*
X186920000Y-70249694D01*
X186920000Y-69180000D01*
X186182361Y-69180000D01*
X186189257Y-69163351D01*
X186220000Y-69008793D01*
X186220000Y-68851207D01*
X186189257Y-68696649D01*
X186182361Y-68680000D01*
X186920000Y-68680000D01*
X186920000Y-67610305D01*
X186908395Y-67551963D01*
X186864192Y-67485807D01*
X186798036Y-67441604D01*
X186739695Y-67430000D01*
X185670000Y-67430000D01*
X185670000Y-68167639D01*
X185653351Y-68160743D01*
X185498793Y-68130000D01*
X185341207Y-68130000D01*
X185186649Y-68160743D01*
X185170000Y-68167639D01*
X185170000Y-67430000D01*
X184100305Y-67430000D01*
X184041963Y-67441604D01*
X183975807Y-67485807D01*
X183931604Y-67551963D01*
X183920000Y-67610305D01*
X177875500Y-67610305D01*
X177875500Y-61722000D01*
X178686579Y-61722000D01*
X178705345Y-61840484D01*
X178705345Y-61840485D01*
X178705346Y-61840486D01*
X178759802Y-61947364D01*
X178759806Y-61947369D01*
X178844630Y-62032193D01*
X178844635Y-62032197D01*
X178902539Y-62061700D01*
X178951516Y-62086655D01*
X179070000Y-62105421D01*
X179188484Y-62086655D01*
X179211361Y-62074998D01*
X179226980Y-62067041D01*
X179249225Y-62061700D01*
X179483300Y-62061700D01*
X179517948Y-62076052D01*
X179532300Y-62110700D01*
X179532300Y-62365300D01*
X179517948Y-62399948D01*
X179483300Y-62414300D01*
X179280626Y-62414300D01*
X179258380Y-62408959D01*
X179188486Y-62373346D01*
X179188485Y-62373345D01*
X179188484Y-62373345D01*
X179070000Y-62354579D01*
X178951516Y-62373345D01*
X178951514Y-62373345D01*
X178951513Y-62373346D01*
X178844635Y-62427802D01*
X178844630Y-62427806D01*
X178759806Y-62512630D01*
X178759802Y-62512635D01*
X178705346Y-62619513D01*
X178705345Y-62619514D01*
X178705345Y-62619516D01*
X178686579Y-62738000D01*
X178705345Y-62856484D01*
X178705345Y-62856485D01*
X178705346Y-62856486D01*
X178759802Y-62963364D01*
X178759806Y-62963369D01*
X178844630Y-63048193D01*
X178844635Y-63048197D01*
X178916360Y-63084742D01*
X178951516Y-63102655D01*
X179070000Y-63121421D01*
X179188484Y-63102655D01*
X179258380Y-63067041D01*
X179280626Y-63061700D01*
X179636522Y-63061700D01*
X179656314Y-63065875D01*
X179753754Y-63108899D01*
X179753757Y-63108900D01*
X179777892Y-63111700D01*
X180310300Y-63111700D01*
X180344948Y-63126052D01*
X180359300Y-63160700D01*
X180359300Y-64035524D01*
X180344948Y-64070172D01*
X180344947Y-64070174D01*
X180332032Y-64083088D01*
X180297383Y-64097438D01*
X180289721Y-64096835D01*
X180254771Y-64091300D01*
X180254770Y-64091300D01*
X179791230Y-64091300D01*
X179731622Y-64100741D01*
X179696694Y-64106273D01*
X179582755Y-64164327D01*
X179582752Y-64164329D01*
X179492329Y-64254752D01*
X179492327Y-64254755D01*
X179434273Y-64368694D01*
X179434273Y-64368695D01*
X179419300Y-64463230D01*
X179419300Y-65076770D01*
X179434273Y-65171305D01*
X179492329Y-65285247D01*
X179582753Y-65375671D01*
X179696695Y-65433727D01*
X179791230Y-65448700D01*
X179791232Y-65448700D01*
X180254768Y-65448700D01*
X180254770Y-65448700D01*
X180349305Y-65433727D01*
X180463247Y-65375671D01*
X180553671Y-65285247D01*
X180611727Y-65171305D01*
X180626700Y-65076770D01*
X180626700Y-65076479D01*
X181073001Y-65076479D01*
X181087834Y-65170147D01*
X181145354Y-65283038D01*
X181145359Y-65283045D01*
X181234954Y-65372640D01*
X181234961Y-65372645D01*
X181347853Y-65430165D01*
X181347850Y-65430165D01*
X181423000Y-65442065D01*
X181923000Y-65442065D01*
X181998147Y-65430165D01*
X182111038Y-65372645D01*
X182111045Y-65372640D01*
X182200640Y-65283045D01*
X182200645Y-65283038D01*
X182258163Y-65170150D01*
X182273000Y-65076480D01*
X182273000Y-65020000D01*
X181923000Y-65020000D01*
X181923000Y-65442065D01*
X181423000Y-65442065D01*
X181423000Y-65020000D01*
X181073001Y-65020000D01*
X181073001Y-65076479D01*
X180626700Y-65076479D01*
X180626700Y-64564474D01*
X180641052Y-64529826D01*
X180707359Y-64463519D01*
X181073000Y-64463519D01*
X181073000Y-64520000D01*
X181423000Y-64520000D01*
X181923000Y-64520000D01*
X182272999Y-64520000D01*
X182272999Y-64463520D01*
X182258165Y-64369852D01*
X182200645Y-64256961D01*
X182200640Y-64256954D01*
X182111045Y-64167359D01*
X182111038Y-64167354D01*
X181998150Y-64109836D01*
X181923000Y-64097933D01*
X181923000Y-64520000D01*
X181423000Y-64520000D01*
X181423000Y-64097933D01*
X181347849Y-64109836D01*
X181234961Y-64167354D01*
X181234954Y-64167359D01*
X181145359Y-64256954D01*
X181145354Y-64256961D01*
X181087836Y-64369849D01*
X181073000Y-64463519D01*
X180707359Y-64463519D01*
X180853019Y-64317859D01*
X180853021Y-64317857D01*
X180893700Y-64219649D01*
X180893700Y-64113351D01*
X180893700Y-63263449D01*
X182713001Y-63263449D01*
X182728761Y-63362968D01*
X182789877Y-63482916D01*
X182789882Y-63482923D01*
X182885076Y-63578117D01*
X182885081Y-63578121D01*
X183005028Y-63639236D01*
X183005027Y-63639236D01*
X183104550Y-63654999D01*
X183638000Y-63654999D01*
X183671449Y-63654999D01*
X183770968Y-63639238D01*
X183890916Y-63578122D01*
X183890923Y-63578117D01*
X183984849Y-63484191D01*
X184495001Y-63484191D01*
X184495002Y-63484215D01*
X184497850Y-63514602D01*
X184497851Y-63514608D01*
X184542651Y-63642640D01*
X184542655Y-63642648D01*
X184623207Y-63751792D01*
X184732351Y-63832344D01*
X184732359Y-63832348D01*
X184860395Y-63877149D01*
X184890785Y-63879999D01*
X185169999Y-63879999D01*
X185670000Y-63879999D01*
X185949191Y-63879999D01*
X185949215Y-63879997D01*
X185979602Y-63877149D01*
X185979608Y-63877148D01*
X186107640Y-63832348D01*
X186107648Y-63832344D01*
X186216792Y-63751792D01*
X186297344Y-63642648D01*
X186297348Y-63642640D01*
X186342149Y-63514605D01*
X186342149Y-63514603D01*
X186344998Y-63484214D01*
X186345000Y-63484193D01*
X186345000Y-63430000D01*
X185670000Y-63430000D01*
X185670000Y-63879999D01*
X185169999Y-63879999D01*
X185170000Y-63879998D01*
X185170000Y-63430000D01*
X184495001Y-63430000D01*
X184495001Y-63484191D01*
X183984849Y-63484191D01*
X183986117Y-63482923D01*
X183986121Y-63482918D01*
X184047236Y-63362972D01*
X184063000Y-63263449D01*
X184063000Y-63255000D01*
X183638000Y-63255000D01*
X183638000Y-63654999D01*
X183104550Y-63654999D01*
X183137999Y-63654998D01*
X183138000Y-63654998D01*
X183138000Y-63255000D01*
X182713001Y-63255000D01*
X182713001Y-63263449D01*
X180893700Y-63263449D01*
X180893700Y-62908000D01*
X181046985Y-62908000D01*
X181081803Y-62986855D01*
X181157144Y-63062196D01*
X181254616Y-63105235D01*
X181278443Y-63107999D01*
X181278447Y-63108000D01*
X181416000Y-63108000D01*
X181756000Y-63108000D01*
X181893553Y-63108000D01*
X181893556Y-63107999D01*
X181917383Y-63105235D01*
X182014855Y-63062196D01*
X182090196Y-62986855D01*
X182125015Y-62908000D01*
X181756000Y-62908000D01*
X181756000Y-63108000D01*
X181416000Y-63108000D01*
X181416000Y-62908000D01*
X181046985Y-62908000D01*
X180893700Y-62908000D01*
X180893700Y-62375351D01*
X180862734Y-62300592D01*
X180862734Y-62263091D01*
X180889252Y-62236572D01*
X180911496Y-62232967D01*
X180971085Y-62237229D01*
X180971089Y-62237228D01*
X180971090Y-62237229D01*
X180982425Y-62237027D01*
X181017324Y-62250758D01*
X181032292Y-62285144D01*
X181032300Y-62286019D01*
X181032300Y-62366108D01*
X181035100Y-62390245D01*
X181071547Y-62472788D01*
X181072413Y-62510281D01*
X181071547Y-62512372D01*
X181046985Y-62568000D01*
X181150790Y-62568000D01*
X181170582Y-62572175D01*
X181253754Y-62608899D01*
X181253757Y-62608900D01*
X181277892Y-62611700D01*
X181277895Y-62611700D01*
X181894105Y-62611700D01*
X181894108Y-62611700D01*
X181895474Y-62611541D01*
X181896307Y-62611445D01*
X181932379Y-62621705D01*
X181936606Y-62625470D01*
X181939461Y-62628325D01*
X181939477Y-62628340D01*
X181939485Y-62628348D01*
X181959841Y-62646631D01*
X181980483Y-62663264D01*
X182068808Y-62709465D01*
X182135847Y-62729150D01*
X182207832Y-62739500D01*
X182207836Y-62739500D01*
X182677204Y-62739500D01*
X182711852Y-62753852D01*
X182713000Y-62755000D01*
X184062999Y-62755000D01*
X184064147Y-62753852D01*
X184098795Y-62739500D01*
X184465846Y-62739500D01*
X184500494Y-62753852D01*
X184514846Y-62788500D01*
X184512096Y-62804683D01*
X184497850Y-62845394D01*
X184497850Y-62845396D01*
X184495001Y-62875785D01*
X184495000Y-62875806D01*
X184495000Y-62930000D01*
X186344999Y-62930000D01*
X186344999Y-62875808D01*
X186344997Y-62875784D01*
X186342149Y-62845397D01*
X186342148Y-62845391D01*
X186327904Y-62804683D01*
X186330007Y-62767239D01*
X186357971Y-62742250D01*
X186374154Y-62739500D01*
X186789475Y-62739500D01*
X186824123Y-62753852D01*
X186838475Y-62788500D01*
X186828899Y-62817598D01*
X186818700Y-62831415D01*
X186776016Y-62953397D01*
X186776015Y-62953406D01*
X186773301Y-62982351D01*
X186773300Y-62982373D01*
X186773300Y-63535626D01*
X186773301Y-63535648D01*
X186776015Y-63564593D01*
X186776016Y-63564602D01*
X186818700Y-63686583D01*
X186895439Y-63790560D01*
X186999416Y-63867299D01*
X186999419Y-63867301D01*
X187121400Y-63909984D01*
X187150364Y-63912700D01*
X187150374Y-63912700D01*
X187753626Y-63912700D01*
X187753636Y-63912700D01*
X187782600Y-63909984D01*
X187904581Y-63867301D01*
X188008560Y-63790560D01*
X188085301Y-63686581D01*
X188127984Y-63564600D01*
X188130700Y-63535636D01*
X188130700Y-62982364D01*
X188127984Y-62953400D01*
X188085301Y-62831419D01*
X188053625Y-62788500D01*
X188008561Y-62727440D01*
X188008058Y-62727069D01*
X188007857Y-62726736D01*
X188005964Y-62724843D01*
X188006433Y-62724373D01*
X187988701Y-62694947D01*
X187997728Y-62658547D01*
X188020152Y-62641688D01*
X188217637Y-62568634D01*
X188258479Y-62549261D01*
X188296156Y-62527111D01*
X188332946Y-62500844D01*
X191471849Y-59810356D01*
X191509491Y-59770305D01*
X191541449Y-59727971D01*
X191569655Y-59680795D01*
X191736781Y-59317427D01*
X191754244Y-59265308D01*
X191765588Y-59213494D01*
X191771500Y-59158850D01*
X191771500Y-58213362D01*
X191770036Y-58186048D01*
X191767202Y-58159690D01*
X191737413Y-58064556D01*
X191737413Y-58064555D01*
X191737411Y-58064552D01*
X191703932Y-58003240D01*
X191703931Y-58003239D01*
X191703928Y-58003233D01*
X191660347Y-57945015D01*
X191660343Y-57945011D01*
X191660342Y-57945009D01*
X191482981Y-57767649D01*
X191462653Y-57749389D01*
X191462640Y-57749378D01*
X191462635Y-57749374D01*
X191441993Y-57732740D01*
X191441989Y-57732738D01*
X191440278Y-57731359D01*
X191422305Y-57698443D01*
X191432870Y-57662459D01*
X191465786Y-57644486D01*
X191477994Y-57644703D01*
X191553084Y-57655500D01*
X191553088Y-57655500D01*
X191761770Y-57655500D01*
X191761789Y-57655500D01*
X191811349Y-57653065D01*
X191835538Y-57650682D01*
X191835558Y-57650678D01*
X191835567Y-57650678D01*
X191857488Y-57647425D01*
X191884603Y-57643403D01*
X191910482Y-57638255D01*
X191910481Y-57638254D01*
X191932647Y-57633846D01*
X191932648Y-57633845D01*
X191944094Y-57631569D01*
X192038928Y-57602802D01*
X192083625Y-57584288D01*
X192171016Y-57537578D01*
X192204403Y-57515270D01*
X192204459Y-57515232D01*
X192211162Y-57510752D01*
X192287706Y-57447927D01*
X192287714Y-57447918D01*
X192287719Y-57447915D01*
X192304813Y-57430819D01*
X192321918Y-57413716D01*
X192384792Y-57337104D01*
X192411578Y-57297015D01*
X192458288Y-57209625D01*
X192476802Y-57164928D01*
X192505567Y-57070106D01*
X192517403Y-57010606D01*
X192524682Y-56961534D01*
X192527065Y-56937341D01*
X192529500Y-56887789D01*
X192529500Y-41918210D01*
X192527065Y-41868654D01*
X192524682Y-41844463D01*
X192517402Y-41795392D01*
X192509327Y-41754800D01*
X192505570Y-41735910D01*
X192476803Y-41641076D01*
X192476800Y-41641067D01*
X192458291Y-41596385D01*
X192458285Y-41596369D01*
X192411578Y-41508986D01*
X192384788Y-41468891D01*
X192384781Y-41468881D01*
X192321922Y-41392288D01*
X192321908Y-41392273D01*
X192287725Y-41358090D01*
X192287719Y-41358085D01*
X192287714Y-41358080D01*
X192211117Y-41295217D01*
X192211110Y-41295211D01*
X192171017Y-41268423D01*
X192171016Y-41268422D01*
X192171005Y-41268416D01*
X192083625Y-41221711D01*
X192083606Y-41221702D01*
X192038916Y-41203192D01*
X192038918Y-41203192D01*
X191965804Y-41181015D01*
X191944096Y-41174431D01*
X191944094Y-41174430D01*
X191944089Y-41174429D01*
X191884600Y-41162596D01*
X191884580Y-41162593D01*
X191835565Y-41155321D01*
X191835538Y-41155318D01*
X191811362Y-41152936D01*
X191811347Y-41152935D01*
X191786567Y-41151717D01*
X191761789Y-41150500D01*
X190233661Y-41150500D01*
X190199013Y-41136148D01*
X190184661Y-41101500D01*
X190190447Y-41078401D01*
X190190806Y-41077729D01*
X190208202Y-41045184D01*
X190268453Y-40846561D01*
X190288798Y-40640000D01*
X190268453Y-40433439D01*
X190208202Y-40234816D01*
X190110358Y-40051763D01*
X190110355Y-40051759D01*
X190110349Y-40051750D01*
X189978684Y-39891318D01*
X189978681Y-39891315D01*
X189818249Y-39759650D01*
X189818240Y-39759644D01*
X189818238Y-39759643D01*
X189818237Y-39759642D01*
X189635184Y-39661798D01*
X189535872Y-39631672D01*
X189436565Y-39601548D01*
X189436557Y-39601546D01*
X189230000Y-39581202D01*
X189023442Y-39601546D01*
X189023434Y-39601548D01*
X188824819Y-39661797D01*
X188824816Y-39661798D01*
X188824813Y-39661799D01*
X188824812Y-39661800D01*
X188641759Y-39759644D01*
X188641750Y-39759650D01*
X188481318Y-39891315D01*
X188481315Y-39891318D01*
X188349650Y-40051750D01*
X188349644Y-40051759D01*
X188251800Y-40234812D01*
X188251797Y-40234819D01*
X188191548Y-40433434D01*
X188191546Y-40433442D01*
X188171202Y-40639999D01*
X188171202Y-40640000D01*
X188191546Y-40846557D01*
X188191547Y-40846561D01*
X188251798Y-41045184D01*
X188251801Y-41045189D01*
X188251802Y-41045192D01*
X188269553Y-41078402D01*
X188273229Y-41115724D01*
X188249437Y-41144714D01*
X188226339Y-41150500D01*
X182613661Y-41150500D01*
X182579013Y-41136148D01*
X182564661Y-41101500D01*
X182570447Y-41078401D01*
X182570806Y-41077729D01*
X182588202Y-41045184D01*
X182648453Y-40846561D01*
X182668798Y-40640000D01*
X182648453Y-40433439D01*
X182588202Y-40234816D01*
X182490358Y-40051763D01*
X182490355Y-40051759D01*
X182490349Y-40051750D01*
X182358684Y-39891318D01*
X182358681Y-39891315D01*
X182198249Y-39759650D01*
X182198240Y-39759644D01*
X182198238Y-39759643D01*
X182198237Y-39759642D01*
X182015184Y-39661798D01*
X181915872Y-39631672D01*
X181816565Y-39601548D01*
X181816557Y-39601546D01*
X181610000Y-39581202D01*
X181403442Y-39601546D01*
X181403434Y-39601548D01*
X181204819Y-39661797D01*
X181204816Y-39661798D01*
X181204813Y-39661799D01*
X181204812Y-39661800D01*
X181021759Y-39759644D01*
X181021750Y-39759650D01*
X180861318Y-39891315D01*
X180861315Y-39891318D01*
X180729650Y-40051750D01*
X180729644Y-40051759D01*
X180631800Y-40234812D01*
X180631797Y-40234819D01*
X180571548Y-40433434D01*
X180571546Y-40433442D01*
X180551202Y-40639999D01*
X180551202Y-40640000D01*
X180571546Y-40846557D01*
X180571547Y-40846561D01*
X180631798Y-41045184D01*
X180631801Y-41045189D01*
X180631802Y-41045192D01*
X180649553Y-41078402D01*
X180653229Y-41115724D01*
X180629437Y-41144714D01*
X180606339Y-41150500D01*
X179586188Y-41150500D01*
X179536710Y-41152930D01*
X179536665Y-41152933D01*
X179512507Y-41155312D01*
X179512502Y-41155312D01*
X179493277Y-41158163D01*
X179463410Y-41162594D01*
X179463402Y-41162595D01*
X179463379Y-41162599D01*
X179463372Y-41162600D01*
X179403914Y-41174427D01*
X179403894Y-41174432D01*
X179309068Y-41203197D01*
X179264382Y-41221707D01*
X179176993Y-41268416D01*
X179176984Y-41268421D01*
X179136881Y-41295217D01*
X179064554Y-41354575D01*
X179060285Y-41358080D01*
X179060276Y-41358087D01*
X179060270Y-41358092D01*
X179026092Y-41392270D01*
X179026087Y-41392276D01*
X178963217Y-41468881D01*
X178936421Y-41508984D01*
X178936416Y-41508993D01*
X178889706Y-41596384D01*
X178889703Y-41596389D01*
X178871195Y-41641072D01*
X178842433Y-41735894D01*
X178842430Y-41735904D01*
X178842430Y-41735906D01*
X178842429Y-41735910D01*
X178830596Y-41795398D01*
X178823317Y-41844466D01*
X178820936Y-41868636D01*
X178820935Y-41868651D01*
X178818500Y-41918211D01*
X178818500Y-56887787D01*
X178820935Y-56937347D01*
X178820936Y-56937362D01*
X178823318Y-56961538D01*
X178823321Y-56961565D01*
X178830593Y-57010580D01*
X178830594Y-57010587D01*
X178830596Y-57010596D01*
X178835978Y-57037656D01*
X178842429Y-57070089D01*
X178842430Y-57070094D01*
X178842431Y-57070096D01*
X178845524Y-57080293D01*
X178871192Y-57164917D01*
X178889702Y-57209606D01*
X178889711Y-57209625D01*
X178931337Y-57287503D01*
X178936421Y-57297015D01*
X178936423Y-57297017D01*
X178963211Y-57337110D01*
X178985211Y-57363916D01*
X179026080Y-57413714D01*
X179026085Y-57413719D01*
X179026090Y-57413725D01*
X179060273Y-57447908D01*
X179060288Y-57447922D01*
X179136881Y-57510781D01*
X179136892Y-57510789D01*
X179143542Y-57515232D01*
X179176986Y-57537578D01*
X179210641Y-57555567D01*
X179264372Y-57584287D01*
X179264376Y-57584289D01*
X179300812Y-57599381D01*
X179309069Y-57602801D01*
X179403896Y-57631567D01*
X179412589Y-57633296D01*
X179449262Y-57640592D01*
X179449323Y-57640603D01*
X179463404Y-57643404D01*
X179479757Y-57645830D01*
X179512434Y-57650678D01*
X179512446Y-57650679D01*
X179512464Y-57650682D01*
X179536655Y-57653065D01*
X179586211Y-57655500D01*
X179612182Y-57655500D01*
X179646830Y-57669852D01*
X179661182Y-57704500D01*
X179653640Y-57729761D01*
X179653856Y-57729874D01*
X179653274Y-57730985D01*
X179653162Y-57731363D01*
X179652741Y-57732003D01*
X179606533Y-57820342D01*
X179586849Y-57887377D01*
X179586849Y-57887379D01*
X179576500Y-57959357D01*
X179576500Y-60404649D01*
X179577963Y-60431942D01*
X179577964Y-60431956D01*
X179580796Y-60458301D01*
X179580798Y-60458311D01*
X179610586Y-60553444D01*
X179610588Y-60553447D01*
X179644067Y-60614759D01*
X179644069Y-60614762D01*
X179644072Y-60614767D01*
X179687653Y-60672985D01*
X179687656Y-60672988D01*
X179687657Y-60672990D01*
X179865018Y-60850350D01*
X179885346Y-60868610D01*
X179885357Y-60868619D01*
X179885365Y-60868626D01*
X179906007Y-60885260D01*
X179994338Y-60931465D01*
X180061377Y-60951150D01*
X180133362Y-60961500D01*
X180541106Y-60961500D01*
X180575754Y-60975852D01*
X180590106Y-61010500D01*
X180590104Y-61010884D01*
X180587314Y-61366937D01*
X180572692Y-61401472D01*
X180537932Y-61415551D01*
X180518524Y-61411378D01*
X180418245Y-61367100D01*
X180394108Y-61364300D01*
X179777892Y-61364300D01*
X179777891Y-61364300D01*
X179753754Y-61367100D01*
X179656314Y-61410125D01*
X179636522Y-61414300D01*
X179312029Y-61414300D01*
X179289784Y-61408959D01*
X179188488Y-61357346D01*
X179188485Y-61357345D01*
X179188484Y-61357345D01*
X179070000Y-61338579D01*
X178951516Y-61357345D01*
X178951514Y-61357345D01*
X178951513Y-61357346D01*
X178844635Y-61411802D01*
X178844630Y-61411806D01*
X178759806Y-61496630D01*
X178759802Y-61496635D01*
X178705346Y-61603513D01*
X178705345Y-61603514D01*
X178705345Y-61603516D01*
X178686579Y-61722000D01*
X177875500Y-61722000D01*
X177875500Y-37230305D01*
X180560000Y-37230305D01*
X180560000Y-37850000D01*
X181176988Y-37850000D01*
X181144075Y-37907007D01*
X181110000Y-38034174D01*
X181110000Y-38165826D01*
X181144075Y-38292993D01*
X181176988Y-38350000D01*
X180560000Y-38350000D01*
X180560000Y-38969694D01*
X180571604Y-39028036D01*
X180615807Y-39094192D01*
X180681963Y-39138395D01*
X180740305Y-39150000D01*
X181360000Y-39150000D01*
X181360000Y-38533012D01*
X181417007Y-38565925D01*
X181544174Y-38600000D01*
X181675826Y-38600000D01*
X181802993Y-38565925D01*
X181860000Y-38533012D01*
X181860000Y-39150000D01*
X182479695Y-39150000D01*
X182538036Y-39138395D01*
X182604192Y-39094192D01*
X182648395Y-39028036D01*
X182660000Y-38969694D01*
X182660000Y-38350000D01*
X182043012Y-38350000D01*
X182075925Y-38292993D01*
X182110000Y-38165826D01*
X182110000Y-38034174D01*
X182075925Y-37907007D01*
X182043012Y-37850000D01*
X182660000Y-37850000D01*
X182660000Y-37230305D01*
X188180000Y-37230305D01*
X188180000Y-37850000D01*
X188796988Y-37850000D01*
X188764075Y-37907007D01*
X188730000Y-38034174D01*
X188730000Y-38165826D01*
X188764075Y-38292993D01*
X188796988Y-38350000D01*
X188180000Y-38350000D01*
X188180000Y-38969694D01*
X188191604Y-39028036D01*
X188235807Y-39094192D01*
X188301963Y-39138395D01*
X188360305Y-39150000D01*
X188980000Y-39150000D01*
X188980000Y-38533012D01*
X189037007Y-38565925D01*
X189164174Y-38600000D01*
X189295826Y-38600000D01*
X189422993Y-38565925D01*
X189480000Y-38533012D01*
X189480000Y-39150000D01*
X190099695Y-39150000D01*
X190158036Y-39138395D01*
X190224192Y-39094192D01*
X190268395Y-39028036D01*
X190280000Y-38969694D01*
X190280000Y-38350000D01*
X189663012Y-38350000D01*
X189695925Y-38292993D01*
X189730000Y-38165826D01*
X189730000Y-38034174D01*
X189695925Y-37907007D01*
X189663012Y-37850000D01*
X190280000Y-37850000D01*
X190280000Y-37230305D01*
X190268395Y-37171963D01*
X190224192Y-37105807D01*
X190158036Y-37061604D01*
X190099695Y-37050000D01*
X189480000Y-37050000D01*
X189480000Y-37666988D01*
X189422993Y-37634075D01*
X189295826Y-37600000D01*
X189164174Y-37600000D01*
X189037007Y-37634075D01*
X188980000Y-37666988D01*
X188980000Y-37050000D01*
X188360305Y-37050000D01*
X188301963Y-37061604D01*
X188235807Y-37105807D01*
X188191604Y-37171963D01*
X188180000Y-37230305D01*
X182660000Y-37230305D01*
X182648395Y-37171963D01*
X182604192Y-37105807D01*
X182538036Y-37061604D01*
X182479695Y-37050000D01*
X181860000Y-37050000D01*
X181860000Y-37666988D01*
X181802993Y-37634075D01*
X181675826Y-37600000D01*
X181544174Y-37600000D01*
X181417007Y-37634075D01*
X181360000Y-37666988D01*
X181360000Y-37050000D01*
X180740305Y-37050000D01*
X180681963Y-37061604D01*
X180615807Y-37105807D01*
X180571604Y-37171963D01*
X180560000Y-37230305D01*
X177875500Y-37230305D01*
X177875500Y-36831487D01*
X177875589Y-36828529D01*
X177893290Y-36535890D01*
X177894004Y-36530016D01*
X177946581Y-36243113D01*
X177947991Y-36237390D01*
X178034772Y-35958898D01*
X178036865Y-35953380D01*
X178156583Y-35687379D01*
X178159322Y-35682161D01*
X178310229Y-35432529D01*
X178313571Y-35427686D01*
X178493475Y-35198056D01*
X178497383Y-35193645D01*
X178703645Y-34987383D01*
X178708056Y-34983475D01*
X178937686Y-34803571D01*
X178942529Y-34800229D01*
X179192161Y-34649322D01*
X179197379Y-34646583D01*
X179463380Y-34526865D01*
X179468898Y-34524772D01*
X179747390Y-34437991D01*
X179753113Y-34436581D01*
X180040020Y-34384003D01*
X180045883Y-34383290D01*
X180286505Y-34368735D01*
X180338530Y-34365589D01*
X180341488Y-34365500D01*
X180364531Y-34365500D01*
X190475469Y-34365500D01*
X190498512Y-34365500D01*
X190501470Y-34365589D01*
G37*
%TD.AperFunction*%
%TD*%
M02*
