%TF.GenerationSoftware,KiCad,Pcbnew,8.0.4*%
%TF.CreationDate,2025-01-08T10:58:36-05:00*%
%TF.ProjectId,BarrelJackAdapter,42617272-656c-44a6-9163-6b4164617074,rev?*%
%TF.SameCoordinates,Original*%
%TF.FileFunction,Copper,L2,Inr*%
%TF.FilePolarity,Positive*%
%FSLAX46Y46*%
G04 Gerber Fmt 4.6, Leading zero omitted, Abs format (unit mm)*
G04 Created by KiCad (PCBNEW 8.0.4) date 2025-01-08 10:58:36*
%MOMM*%
%LPD*%
G01*
G04 APERTURE LIST*
%TA.AperFunction,ComponentPad*%
%ADD10R,2.600000X2.600000*%
%TD*%
%TA.AperFunction,ComponentPad*%
%ADD11C,2.600000*%
%TD*%
%TA.AperFunction,ComponentPad*%
%ADD12R,1.700000X1.700000*%
%TD*%
%TA.AperFunction,ComponentPad*%
%ADD13O,1.700000X1.700000*%
%TD*%
%TA.AperFunction,ViaPad*%
%ADD14C,0.500000*%
%TD*%
%TA.AperFunction,ViaPad*%
%ADD15C,0.350000*%
%TD*%
%TA.AperFunction,Conductor*%
%ADD16C,0.240000*%
%TD*%
G04 APERTURE END LIST*
D10*
%TO.N,+9V*%
%TO.C,J1*%
X185420000Y-68930000D03*
D11*
%TO.N,GND*%
X185420000Y-74930000D03*
X190120000Y-71930000D03*
%TD*%
D12*
%TO.N,+9V*%
%TO.C,J4*%
X189230000Y-38100000D03*
D13*
%TO.N,GND*%
X189230000Y-40640000D03*
%TO.N,+5V*%
X189230000Y-43180000D03*
%TO.N,+3.3V*%
X189230000Y-45720000D03*
%TD*%
D12*
%TO.N,+9V*%
%TO.C,J2*%
X181610000Y-38100000D03*
D13*
%TO.N,GND*%
X181610000Y-40640000D03*
%TO.N,+5V*%
X181610000Y-43180000D03*
%TO.N,+3.3V*%
X181610000Y-45720000D03*
%TD*%
D14*
%TO.N,GND*%
X181864000Y-60960000D03*
X186182000Y-49784000D03*
D15*
X184150000Y-49149000D03*
D14*
X188264800Y-51993800D03*
D15*
X184150000Y-48641000D03*
X188722000Y-48768000D03*
X184150000Y-49657000D03*
%TO.N,/BST*%
X187452000Y-63246000D03*
X179070000Y-61722000D03*
%TO.N,/FB*%
X184912000Y-52070000D03*
X179070000Y-62738000D03*
D14*
%TO.N,+3.3V*%
X187198000Y-48768000D03*
%TD*%
D16*
%TO.N,/BST*%
X187452000Y-63246000D02*
X180594000Y-63246000D01*
X179070000Y-61722000D02*
X180594000Y-63246000D01*
%TD*%
%TA.AperFunction,Conductor*%
%TO.N,+9V*%
G36*
X190501470Y-34365589D02*
G01*
X190561414Y-34369214D01*
X190794114Y-34383290D01*
X190799981Y-34384003D01*
X191086882Y-34436580D01*
X191092613Y-34437992D01*
X191371094Y-34524770D01*
X191376624Y-34526867D01*
X191642613Y-34646580D01*
X191647844Y-34649326D01*
X191897462Y-34800224D01*
X191902321Y-34803577D01*
X191995655Y-34876700D01*
X192131933Y-34983467D01*
X192136362Y-34987391D01*
X192342608Y-35193637D01*
X192346532Y-35198066D01*
X192526418Y-35427673D01*
X192529779Y-35432543D01*
X192680671Y-35682151D01*
X192683421Y-35687390D01*
X192803131Y-35953373D01*
X192805229Y-35958905D01*
X192892004Y-36237377D01*
X192893420Y-36243123D01*
X192945995Y-36530016D01*
X192946709Y-36535889D01*
X192964411Y-36828528D01*
X192964500Y-36831487D01*
X192964500Y-77468512D01*
X192964411Y-77471471D01*
X192946709Y-77764110D01*
X192945995Y-77769983D01*
X192893420Y-78056876D01*
X192892004Y-78062622D01*
X192805229Y-78341094D01*
X192803131Y-78346626D01*
X192683421Y-78612609D01*
X192680671Y-78617848D01*
X192529779Y-78867456D01*
X192526418Y-78872326D01*
X192346532Y-79101933D01*
X192342608Y-79106362D01*
X192136362Y-79312608D01*
X192131933Y-79316532D01*
X191902326Y-79496418D01*
X191897456Y-79499779D01*
X191647848Y-79650671D01*
X191642609Y-79653421D01*
X191376626Y-79773131D01*
X191371094Y-79775229D01*
X191092622Y-79862004D01*
X191086876Y-79863420D01*
X190799983Y-79915995D01*
X190794110Y-79916709D01*
X190501471Y-79934411D01*
X190498512Y-79934500D01*
X180341488Y-79934500D01*
X180338529Y-79934411D01*
X180045889Y-79916709D01*
X180040016Y-79915995D01*
X179753123Y-79863420D01*
X179747377Y-79862004D01*
X179468905Y-79775229D01*
X179463373Y-79773131D01*
X179197390Y-79653421D01*
X179192151Y-79650671D01*
X178942543Y-79499779D01*
X178937673Y-79496418D01*
X178708066Y-79316532D01*
X178703637Y-79312608D01*
X178497391Y-79106362D01*
X178493467Y-79101933D01*
X178313581Y-78872326D01*
X178310224Y-78867462D01*
X178159326Y-78617844D01*
X178156578Y-78612609D01*
X178093513Y-78472486D01*
X178036867Y-78346624D01*
X178034770Y-78341094D01*
X177989309Y-78195204D01*
X177947992Y-78062613D01*
X177946579Y-78056876D01*
X177894004Y-77769983D01*
X177893290Y-77764109D01*
X177875589Y-77471470D01*
X177875500Y-77468512D01*
X177875500Y-74930000D01*
X183911650Y-74930000D01*
X183930220Y-75165960D01*
X183985473Y-75396104D01*
X184076051Y-75614780D01*
X184076053Y-75614783D01*
X184199715Y-75816580D01*
X184199719Y-75816586D01*
X184353434Y-75996565D01*
X184507150Y-76127849D01*
X184533414Y-76150281D01*
X184533419Y-76150284D01*
X184735216Y-76273946D01*
X184735219Y-76273948D01*
X184735221Y-76273948D01*
X184735223Y-76273950D01*
X184953894Y-76364526D01*
X185184042Y-76419780D01*
X185420000Y-76438350D01*
X185655958Y-76419780D01*
X185886106Y-76364526D01*
X186104777Y-76273950D01*
X186306586Y-76150281D01*
X186486565Y-75996565D01*
X186640281Y-75816586D01*
X186763950Y-75614777D01*
X186854526Y-75396106D01*
X186909780Y-75165958D01*
X186928350Y-74930000D01*
X186909780Y-74694042D01*
X186854526Y-74463894D01*
X186763950Y-74245223D01*
X186640281Y-74043414D01*
X186617849Y-74017150D01*
X186486565Y-73863434D01*
X186306586Y-73709719D01*
X186306580Y-73709715D01*
X186104783Y-73586053D01*
X186104780Y-73586051D01*
X185886104Y-73495473D01*
X185655960Y-73440220D01*
X185420000Y-73421650D01*
X185184039Y-73440220D01*
X184953895Y-73495473D01*
X184735219Y-73586051D01*
X184735216Y-73586053D01*
X184533419Y-73709715D01*
X184533413Y-73709719D01*
X184353434Y-73863434D01*
X184199719Y-74043413D01*
X184199715Y-74043419D01*
X184076053Y-74245216D01*
X184076051Y-74245219D01*
X183985473Y-74463895D01*
X183930220Y-74694039D01*
X183911650Y-74930000D01*
X177875500Y-74930000D01*
X177875500Y-71930000D01*
X188611650Y-71930000D01*
X188630220Y-72165960D01*
X188685473Y-72396104D01*
X188776051Y-72614780D01*
X188776053Y-72614783D01*
X188899715Y-72816580D01*
X188899719Y-72816586D01*
X189053434Y-72996565D01*
X189207150Y-73127849D01*
X189233414Y-73150281D01*
X189233419Y-73150284D01*
X189435216Y-73273946D01*
X189435219Y-73273948D01*
X189435221Y-73273948D01*
X189435223Y-73273950D01*
X189653894Y-73364526D01*
X189884042Y-73419780D01*
X190120000Y-73438350D01*
X190355958Y-73419780D01*
X190586106Y-73364526D01*
X190804777Y-73273950D01*
X191006586Y-73150281D01*
X191186565Y-72996565D01*
X191340281Y-72816586D01*
X191463950Y-72614777D01*
X191554526Y-72396106D01*
X191609780Y-72165958D01*
X191628350Y-71930000D01*
X191609780Y-71694042D01*
X191554526Y-71463894D01*
X191463950Y-71245223D01*
X191340281Y-71043414D01*
X191317849Y-71017150D01*
X191186565Y-70863434D01*
X191006586Y-70709719D01*
X191006580Y-70709715D01*
X190804783Y-70586053D01*
X190804780Y-70586051D01*
X190586104Y-70495473D01*
X190355960Y-70440220D01*
X190120000Y-70421650D01*
X189884039Y-70440220D01*
X189653895Y-70495473D01*
X189435219Y-70586051D01*
X189435216Y-70586053D01*
X189233419Y-70709715D01*
X189233413Y-70709719D01*
X189053434Y-70863434D01*
X188899719Y-71043413D01*
X188899715Y-71043419D01*
X188776053Y-71245216D01*
X188776051Y-71245219D01*
X188685473Y-71463895D01*
X188630220Y-71694039D01*
X188611650Y-71930000D01*
X177875500Y-71930000D01*
X177875500Y-67610305D01*
X183920000Y-67610305D01*
X183920000Y-68680000D01*
X184657639Y-68680000D01*
X184650743Y-68696649D01*
X184620000Y-68851207D01*
X184620000Y-69008793D01*
X184650743Y-69163351D01*
X184657639Y-69180000D01*
X183920000Y-69180000D01*
X183920000Y-70249694D01*
X183931604Y-70308036D01*
X183975807Y-70374192D01*
X184041963Y-70418395D01*
X184100305Y-70430000D01*
X185170000Y-70430000D01*
X185170000Y-69692360D01*
X185186649Y-69699257D01*
X185341207Y-69730000D01*
X185498793Y-69730000D01*
X185653351Y-69699257D01*
X185670000Y-69692360D01*
X185670000Y-70430000D01*
X186739695Y-70430000D01*
X186798036Y-70418395D01*
X186864192Y-70374192D01*
X186908395Y-70308036D01*
X186920000Y-70249694D01*
X186920000Y-69180000D01*
X186182361Y-69180000D01*
X186189257Y-69163351D01*
X186220000Y-69008793D01*
X186220000Y-68851207D01*
X186189257Y-68696649D01*
X186182361Y-68680000D01*
X186920000Y-68680000D01*
X186920000Y-67610305D01*
X186908395Y-67551963D01*
X186864192Y-67485807D01*
X186798036Y-67441604D01*
X186739695Y-67430000D01*
X185670000Y-67430000D01*
X185670000Y-68167639D01*
X185653351Y-68160743D01*
X185498793Y-68130000D01*
X185341207Y-68130000D01*
X185186649Y-68160743D01*
X185170000Y-68167639D01*
X185170000Y-67430000D01*
X184100305Y-67430000D01*
X184041963Y-67441604D01*
X183975807Y-67485807D01*
X183931604Y-67551963D01*
X183920000Y-67610305D01*
X177875500Y-67610305D01*
X177875500Y-61722000D01*
X178686579Y-61722000D01*
X178705345Y-61840484D01*
X178705345Y-61840485D01*
X178705346Y-61840486D01*
X178759802Y-61947364D01*
X178759806Y-61947369D01*
X178844630Y-62032193D01*
X178844635Y-62032197D01*
X178916360Y-62068742D01*
X178951516Y-62086655D01*
X178965923Y-62088936D01*
X178992904Y-62102685D01*
X179171057Y-62280838D01*
X179185409Y-62315486D01*
X179171057Y-62350134D01*
X179136409Y-62364486D01*
X179128744Y-62363883D01*
X179070000Y-62354579D01*
X178951516Y-62373345D01*
X178951514Y-62373345D01*
X178951513Y-62373346D01*
X178844635Y-62427802D01*
X178844630Y-62427806D01*
X178759806Y-62512630D01*
X178759802Y-62512635D01*
X178705346Y-62619513D01*
X178705345Y-62619514D01*
X178705345Y-62619516D01*
X178686579Y-62738000D01*
X178705345Y-62856484D01*
X178705345Y-62856485D01*
X178705346Y-62856486D01*
X178759802Y-62963364D01*
X178759806Y-62963369D01*
X178844630Y-63048193D01*
X178844635Y-63048197D01*
X178916360Y-63084742D01*
X178951516Y-63102655D01*
X179070000Y-63121421D01*
X179188484Y-63102655D01*
X179261632Y-63065383D01*
X179295364Y-63048197D01*
X179295365Y-63048195D01*
X179295369Y-63048194D01*
X179380194Y-62963369D01*
X179434655Y-62856484D01*
X179453421Y-62738000D01*
X179444116Y-62679253D01*
X179452871Y-62642789D01*
X179484847Y-62623193D01*
X179521314Y-62631948D01*
X179527161Y-62636942D01*
X180395243Y-63505024D01*
X180409178Y-63513069D01*
X180435579Y-63528311D01*
X180469054Y-63547639D01*
X180469056Y-63547639D01*
X180469057Y-63547640D01*
X180496499Y-63554993D01*
X180551382Y-63569700D01*
X180551384Y-63569700D01*
X187241374Y-63569700D01*
X187263620Y-63575041D01*
X187333516Y-63610655D01*
X187452000Y-63629421D01*
X187570484Y-63610655D01*
X187650862Y-63569700D01*
X187677364Y-63556197D01*
X187677365Y-63556195D01*
X187677369Y-63556194D01*
X187762194Y-63471369D01*
X187816655Y-63364484D01*
X187835421Y-63246000D01*
X187816655Y-63127516D01*
X187776240Y-63048197D01*
X187762197Y-63020635D01*
X187762193Y-63020630D01*
X187677369Y-62935806D01*
X187677364Y-62935802D01*
X187570486Y-62881346D01*
X187570487Y-62881346D01*
X187570485Y-62881345D01*
X187570484Y-62881345D01*
X187452000Y-62862579D01*
X187333516Y-62881345D01*
X187333514Y-62881345D01*
X187333513Y-62881346D01*
X187263620Y-62916959D01*
X187241374Y-62922300D01*
X180748377Y-62922300D01*
X180713729Y-62907948D01*
X179450685Y-61644904D01*
X179436936Y-61617923D01*
X179434655Y-61603516D01*
X179434653Y-61603512D01*
X179380197Y-61496635D01*
X179380193Y-61496630D01*
X179295369Y-61411806D01*
X179295364Y-61411802D01*
X179188486Y-61357346D01*
X179188487Y-61357346D01*
X179188485Y-61357345D01*
X179188484Y-61357345D01*
X179070000Y-61338579D01*
X178951516Y-61357345D01*
X178951514Y-61357345D01*
X178951513Y-61357346D01*
X178844635Y-61411802D01*
X178844630Y-61411806D01*
X178759806Y-61496630D01*
X178759802Y-61496635D01*
X178705346Y-61603513D01*
X178705345Y-61603514D01*
X178705345Y-61603516D01*
X178686579Y-61722000D01*
X177875500Y-61722000D01*
X177875500Y-60959998D01*
X181405635Y-60959998D01*
X181405635Y-60960001D01*
X181424202Y-61089137D01*
X181478398Y-61207810D01*
X181478401Y-61207814D01*
X181563834Y-61306408D01*
X181563835Y-61306409D01*
X181673588Y-61376943D01*
X181673590Y-61376944D01*
X181736178Y-61395321D01*
X181798768Y-61413700D01*
X181798771Y-61413700D01*
X181929229Y-61413700D01*
X181929232Y-61413700D01*
X182054412Y-61376943D01*
X182164165Y-61306409D01*
X182249601Y-61207811D01*
X182303798Y-61089136D01*
X182322365Y-60960000D01*
X182303798Y-60830864D01*
X182249601Y-60712189D01*
X182164165Y-60613591D01*
X182054412Y-60543057D01*
X182054409Y-60543055D01*
X181929233Y-60506300D01*
X181929232Y-60506300D01*
X181798768Y-60506300D01*
X181798766Y-60506300D01*
X181673590Y-60543055D01*
X181563834Y-60613591D01*
X181478401Y-60712185D01*
X181478398Y-60712189D01*
X181424202Y-60830862D01*
X181405635Y-60959998D01*
X177875500Y-60959998D01*
X177875500Y-52070000D01*
X184528579Y-52070000D01*
X184547345Y-52188484D01*
X184547345Y-52188485D01*
X184547346Y-52188486D01*
X184601802Y-52295364D01*
X184601806Y-52295369D01*
X184686630Y-52380193D01*
X184686635Y-52380197D01*
X184746586Y-52410743D01*
X184793516Y-52434655D01*
X184912000Y-52453421D01*
X185030484Y-52434655D01*
X185103632Y-52397383D01*
X185137364Y-52380197D01*
X185137365Y-52380195D01*
X185137369Y-52380194D01*
X185222194Y-52295369D01*
X185276655Y-52188484D01*
X185295421Y-52070000D01*
X185283352Y-51993798D01*
X187806435Y-51993798D01*
X187806435Y-51993801D01*
X187825002Y-52122937D01*
X187879198Y-52241610D01*
X187879201Y-52241614D01*
X187964634Y-52340208D01*
X187964635Y-52340209D01*
X188026853Y-52380194D01*
X188074390Y-52410744D01*
X188136978Y-52429121D01*
X188199568Y-52447500D01*
X188199571Y-52447500D01*
X188330029Y-52447500D01*
X188330032Y-52447500D01*
X188455212Y-52410743D01*
X188564965Y-52340209D01*
X188650401Y-52241611D01*
X188704598Y-52122936D01*
X188723165Y-51993800D01*
X188704598Y-51864664D01*
X188650401Y-51745989D01*
X188615183Y-51705346D01*
X188564965Y-51647391D01*
X188455209Y-51576855D01*
X188330033Y-51540100D01*
X188330032Y-51540100D01*
X188199568Y-51540100D01*
X188199566Y-51540100D01*
X188074390Y-51576855D01*
X187964634Y-51647391D01*
X187879201Y-51745985D01*
X187879198Y-51745989D01*
X187825002Y-51864662D01*
X187806435Y-51993798D01*
X185283352Y-51993798D01*
X185276655Y-51951516D01*
X185258742Y-51916360D01*
X185222197Y-51844635D01*
X185222193Y-51844630D01*
X185137369Y-51759806D01*
X185137364Y-51759802D01*
X185030486Y-51705346D01*
X185030487Y-51705346D01*
X185030485Y-51705345D01*
X185030484Y-51705345D01*
X184912000Y-51686579D01*
X184793516Y-51705345D01*
X184793514Y-51705345D01*
X184793513Y-51705346D01*
X184686635Y-51759802D01*
X184686630Y-51759806D01*
X184601806Y-51844630D01*
X184601802Y-51844635D01*
X184547346Y-51951513D01*
X184547345Y-51951514D01*
X184547345Y-51951516D01*
X184528579Y-52070000D01*
X177875500Y-52070000D01*
X177875500Y-48641000D01*
X183766579Y-48641000D01*
X183785345Y-48759484D01*
X183785345Y-48759485D01*
X183785346Y-48759486D01*
X183841556Y-48869805D01*
X183840656Y-48870263D01*
X183848437Y-48902661D01*
X183841240Y-48920034D01*
X183841556Y-48920195D01*
X183785346Y-49030513D01*
X183785345Y-49030514D01*
X183785345Y-49030516D01*
X183766579Y-49149000D01*
X183785345Y-49267484D01*
X183785345Y-49267485D01*
X183785346Y-49267486D01*
X183841556Y-49377805D01*
X183840656Y-49378263D01*
X183848437Y-49410661D01*
X183841240Y-49428034D01*
X183841556Y-49428195D01*
X183785346Y-49538513D01*
X183785345Y-49538514D01*
X183785345Y-49538516D01*
X183766579Y-49657000D01*
X183785345Y-49775484D01*
X183785345Y-49775485D01*
X183785346Y-49775486D01*
X183839802Y-49882364D01*
X183839806Y-49882369D01*
X183924630Y-49967193D01*
X183924635Y-49967197D01*
X183996360Y-50003742D01*
X184031516Y-50021655D01*
X184150000Y-50040421D01*
X184268484Y-50021655D01*
X184341632Y-49984383D01*
X184375364Y-49967197D01*
X184375365Y-49967195D01*
X184375369Y-49967194D01*
X184460194Y-49882369D01*
X184510317Y-49783998D01*
X185723635Y-49783998D01*
X185723635Y-49784001D01*
X185742202Y-49913137D01*
X185796398Y-50031810D01*
X185796401Y-50031814D01*
X185881834Y-50130408D01*
X185881835Y-50130409D01*
X185991588Y-50200943D01*
X185991590Y-50200944D01*
X186054178Y-50219321D01*
X186116768Y-50237700D01*
X186116771Y-50237700D01*
X186247229Y-50237700D01*
X186247232Y-50237700D01*
X186372412Y-50200943D01*
X186482165Y-50130409D01*
X186567601Y-50031811D01*
X186621798Y-49913136D01*
X186640365Y-49784000D01*
X186621798Y-49654864D01*
X186567601Y-49536189D01*
X186482165Y-49437591D01*
X186372412Y-49367057D01*
X186372409Y-49367055D01*
X186247233Y-49330300D01*
X186247232Y-49330300D01*
X186116768Y-49330300D01*
X186116766Y-49330300D01*
X185991590Y-49367055D01*
X185881834Y-49437591D01*
X185796401Y-49536185D01*
X185796398Y-49536189D01*
X185742202Y-49654862D01*
X185723635Y-49783998D01*
X184510317Y-49783998D01*
X184514655Y-49775484D01*
X184533421Y-49657000D01*
X184514655Y-49538516D01*
X184463231Y-49437591D01*
X184458444Y-49428195D01*
X184459345Y-49427735D01*
X184451560Y-49395350D01*
X184458760Y-49377966D01*
X184458444Y-49377805D01*
X184482648Y-49330300D01*
X184514655Y-49267484D01*
X184533421Y-49149000D01*
X184514655Y-49030516D01*
X184492805Y-48987633D01*
X184458444Y-48920195D01*
X184459345Y-48919735D01*
X184451560Y-48887350D01*
X184458760Y-48869966D01*
X184458444Y-48869805D01*
X184482639Y-48822316D01*
X184510317Y-48767998D01*
X186739635Y-48767998D01*
X186739635Y-48768001D01*
X186758202Y-48897137D01*
X186812398Y-49015810D01*
X186812401Y-49015814D01*
X186866454Y-49078194D01*
X186897835Y-49114409D01*
X186955427Y-49151421D01*
X187007590Y-49184944D01*
X187070178Y-49203321D01*
X187132768Y-49221700D01*
X187132771Y-49221700D01*
X187263229Y-49221700D01*
X187263232Y-49221700D01*
X187388412Y-49184943D01*
X187498165Y-49114409D01*
X187583601Y-49015811D01*
X187637798Y-48897136D01*
X187656365Y-48768000D01*
X188338579Y-48768000D01*
X188357345Y-48886484D01*
X188357345Y-48886485D01*
X188357346Y-48886486D01*
X188411802Y-48993364D01*
X188411806Y-48993369D01*
X188496630Y-49078193D01*
X188496635Y-49078197D01*
X188567704Y-49114408D01*
X188603516Y-49132655D01*
X188722000Y-49151421D01*
X188840484Y-49132655D01*
X188913632Y-49095383D01*
X188947364Y-49078197D01*
X188947365Y-49078195D01*
X188947369Y-49078194D01*
X189032194Y-48993369D01*
X189086655Y-48886484D01*
X189105421Y-48768000D01*
X189086655Y-48649516D01*
X189068742Y-48614360D01*
X189032197Y-48542635D01*
X189032193Y-48542630D01*
X188947369Y-48457806D01*
X188947364Y-48457802D01*
X188840486Y-48403346D01*
X188840487Y-48403346D01*
X188840485Y-48403345D01*
X188840484Y-48403345D01*
X188722000Y-48384579D01*
X188603516Y-48403345D01*
X188603514Y-48403345D01*
X188603513Y-48403346D01*
X188496635Y-48457802D01*
X188496630Y-48457806D01*
X188411806Y-48542630D01*
X188411802Y-48542635D01*
X188357346Y-48649513D01*
X188357345Y-48649514D01*
X188357345Y-48649516D01*
X188338579Y-48768000D01*
X187656365Y-48768000D01*
X187637798Y-48638864D01*
X187583601Y-48520189D01*
X187498165Y-48421591D01*
X187388412Y-48351057D01*
X187388409Y-48351055D01*
X187263233Y-48314300D01*
X187263232Y-48314300D01*
X187132768Y-48314300D01*
X187132766Y-48314300D01*
X187007590Y-48351055D01*
X186897834Y-48421591D01*
X186812401Y-48520185D01*
X186812398Y-48520189D01*
X186758202Y-48638862D01*
X186739635Y-48767998D01*
X184510317Y-48767998D01*
X184514655Y-48759484D01*
X184533421Y-48641000D01*
X184514655Y-48522516D01*
X184496742Y-48487360D01*
X184460197Y-48415635D01*
X184460193Y-48415630D01*
X184375369Y-48330806D01*
X184375364Y-48330802D01*
X184268486Y-48276346D01*
X184268487Y-48276346D01*
X184268485Y-48276345D01*
X184268484Y-48276345D01*
X184150000Y-48257579D01*
X184031516Y-48276345D01*
X184031514Y-48276345D01*
X184031513Y-48276346D01*
X183924635Y-48330802D01*
X183924630Y-48330806D01*
X183839806Y-48415630D01*
X183839802Y-48415635D01*
X183785346Y-48522513D01*
X183785345Y-48522514D01*
X183785345Y-48522516D01*
X183766579Y-48641000D01*
X177875500Y-48641000D01*
X177875500Y-45719999D01*
X180551202Y-45719999D01*
X180551202Y-45720000D01*
X180571546Y-45926557D01*
X180571547Y-45926561D01*
X180631798Y-46125184D01*
X180631800Y-46125187D01*
X180729644Y-46308240D01*
X180729650Y-46308249D01*
X180861315Y-46468681D01*
X180861318Y-46468684D01*
X181021750Y-46600349D01*
X181021759Y-46600355D01*
X181021763Y-46600358D01*
X181204816Y-46698202D01*
X181403439Y-46758453D01*
X181610000Y-46778798D01*
X181816561Y-46758453D01*
X182015184Y-46698202D01*
X182198237Y-46600358D01*
X182198243Y-46600352D01*
X182198249Y-46600349D01*
X182289602Y-46525376D01*
X182358683Y-46468683D01*
X182415376Y-46399602D01*
X182490349Y-46308249D01*
X182490352Y-46308243D01*
X182490358Y-46308237D01*
X182588202Y-46125184D01*
X182648453Y-45926561D01*
X182668798Y-45720000D01*
X182668798Y-45719999D01*
X188171202Y-45719999D01*
X188171202Y-45720000D01*
X188191546Y-45926557D01*
X188191547Y-45926561D01*
X188251798Y-46125184D01*
X188251800Y-46125187D01*
X188349644Y-46308240D01*
X188349650Y-46308249D01*
X188481315Y-46468681D01*
X188481318Y-46468684D01*
X188641750Y-46600349D01*
X188641759Y-46600355D01*
X188641763Y-46600358D01*
X188824816Y-46698202D01*
X189023439Y-46758453D01*
X189230000Y-46778798D01*
X189436561Y-46758453D01*
X189635184Y-46698202D01*
X189818237Y-46600358D01*
X189818243Y-46600352D01*
X189818249Y-46600349D01*
X189909602Y-46525376D01*
X189978683Y-46468683D01*
X190035376Y-46399602D01*
X190110349Y-46308249D01*
X190110352Y-46308243D01*
X190110358Y-46308237D01*
X190208202Y-46125184D01*
X190268453Y-45926561D01*
X190288798Y-45720000D01*
X190268453Y-45513439D01*
X190208202Y-45314816D01*
X190110358Y-45131763D01*
X190110355Y-45131759D01*
X190110349Y-45131750D01*
X189978684Y-44971318D01*
X189978681Y-44971315D01*
X189818249Y-44839650D01*
X189818240Y-44839644D01*
X189818238Y-44839643D01*
X189818237Y-44839642D01*
X189635184Y-44741798D01*
X189535872Y-44711672D01*
X189436565Y-44681548D01*
X189436557Y-44681546D01*
X189230000Y-44661202D01*
X189023442Y-44681546D01*
X189023434Y-44681548D01*
X188824819Y-44741797D01*
X188824816Y-44741798D01*
X188824813Y-44741799D01*
X188824812Y-44741800D01*
X188641759Y-44839644D01*
X188641750Y-44839650D01*
X188481318Y-44971315D01*
X188481315Y-44971318D01*
X188349650Y-45131750D01*
X188349644Y-45131759D01*
X188251800Y-45314812D01*
X188251797Y-45314819D01*
X188191548Y-45513434D01*
X188191546Y-45513442D01*
X188171202Y-45719999D01*
X182668798Y-45719999D01*
X182648453Y-45513439D01*
X182588202Y-45314816D01*
X182490358Y-45131763D01*
X182490355Y-45131759D01*
X182490349Y-45131750D01*
X182358684Y-44971318D01*
X182358681Y-44971315D01*
X182198249Y-44839650D01*
X182198240Y-44839644D01*
X182198238Y-44839643D01*
X182198237Y-44839642D01*
X182015184Y-44741798D01*
X181915872Y-44711672D01*
X181816565Y-44681548D01*
X181816557Y-44681546D01*
X181610000Y-44661202D01*
X181403442Y-44681546D01*
X181403434Y-44681548D01*
X181204819Y-44741797D01*
X181204816Y-44741798D01*
X181204813Y-44741799D01*
X181204812Y-44741800D01*
X181021759Y-44839644D01*
X181021750Y-44839650D01*
X180861318Y-44971315D01*
X180861315Y-44971318D01*
X180729650Y-45131750D01*
X180729644Y-45131759D01*
X180631800Y-45314812D01*
X180631797Y-45314819D01*
X180571548Y-45513434D01*
X180571546Y-45513442D01*
X180551202Y-45719999D01*
X177875500Y-45719999D01*
X177875500Y-43179999D01*
X180551202Y-43179999D01*
X180551202Y-43180000D01*
X180571546Y-43386557D01*
X180571547Y-43386561D01*
X180631798Y-43585184D01*
X180631800Y-43585187D01*
X180729644Y-43768240D01*
X180729650Y-43768249D01*
X180861315Y-43928681D01*
X180861318Y-43928684D01*
X181021750Y-44060349D01*
X181021759Y-44060355D01*
X181021763Y-44060358D01*
X181204816Y-44158202D01*
X181403439Y-44218453D01*
X181610000Y-44238798D01*
X181816561Y-44218453D01*
X182015184Y-44158202D01*
X182198237Y-44060358D01*
X182198243Y-44060352D01*
X182198249Y-44060349D01*
X182289602Y-43985376D01*
X182358683Y-43928683D01*
X182415376Y-43859602D01*
X182490349Y-43768249D01*
X182490352Y-43768243D01*
X182490358Y-43768237D01*
X182588202Y-43585184D01*
X182648453Y-43386561D01*
X182668798Y-43180000D01*
X182668798Y-43179999D01*
X188171202Y-43179999D01*
X188171202Y-43180000D01*
X188191546Y-43386557D01*
X188191547Y-43386561D01*
X188251798Y-43585184D01*
X188251800Y-43585187D01*
X188349644Y-43768240D01*
X188349650Y-43768249D01*
X188481315Y-43928681D01*
X188481318Y-43928684D01*
X188641750Y-44060349D01*
X188641759Y-44060355D01*
X188641763Y-44060358D01*
X188824816Y-44158202D01*
X189023439Y-44218453D01*
X189230000Y-44238798D01*
X189436561Y-44218453D01*
X189635184Y-44158202D01*
X189818237Y-44060358D01*
X189818243Y-44060352D01*
X189818249Y-44060349D01*
X189909602Y-43985376D01*
X189978683Y-43928683D01*
X190035376Y-43859602D01*
X190110349Y-43768249D01*
X190110352Y-43768243D01*
X190110358Y-43768237D01*
X190208202Y-43585184D01*
X190268453Y-43386561D01*
X190288798Y-43180000D01*
X190268453Y-42973439D01*
X190208202Y-42774816D01*
X190110358Y-42591763D01*
X190110355Y-42591759D01*
X190110349Y-42591750D01*
X189978684Y-42431318D01*
X189978681Y-42431315D01*
X189818249Y-42299650D01*
X189818240Y-42299644D01*
X189818238Y-42299643D01*
X189818237Y-42299642D01*
X189635184Y-42201798D01*
X189535872Y-42171672D01*
X189436565Y-42141548D01*
X189436557Y-42141546D01*
X189230000Y-42121202D01*
X189023442Y-42141546D01*
X189023434Y-42141548D01*
X188824819Y-42201797D01*
X188824816Y-42201798D01*
X188824813Y-42201799D01*
X188824812Y-42201800D01*
X188641759Y-42299644D01*
X188641750Y-42299650D01*
X188481318Y-42431315D01*
X188481315Y-42431318D01*
X188349650Y-42591750D01*
X188349644Y-42591759D01*
X188251800Y-42774812D01*
X188251797Y-42774819D01*
X188191548Y-42973434D01*
X188191546Y-42973442D01*
X188171202Y-43179999D01*
X182668798Y-43179999D01*
X182648453Y-42973439D01*
X182588202Y-42774816D01*
X182490358Y-42591763D01*
X182490355Y-42591759D01*
X182490349Y-42591750D01*
X182358684Y-42431318D01*
X182358681Y-42431315D01*
X182198249Y-42299650D01*
X182198240Y-42299644D01*
X182198238Y-42299643D01*
X182198237Y-42299642D01*
X182015184Y-42201798D01*
X181915872Y-42171672D01*
X181816565Y-42141548D01*
X181816557Y-42141546D01*
X181610000Y-42121202D01*
X181403442Y-42141546D01*
X181403434Y-42141548D01*
X181204819Y-42201797D01*
X181204816Y-42201798D01*
X181204813Y-42201799D01*
X181204812Y-42201800D01*
X181021759Y-42299644D01*
X181021750Y-42299650D01*
X180861318Y-42431315D01*
X180861315Y-42431318D01*
X180729650Y-42591750D01*
X180729644Y-42591759D01*
X180631800Y-42774812D01*
X180631797Y-42774819D01*
X180571548Y-42973434D01*
X180571546Y-42973442D01*
X180551202Y-43179999D01*
X177875500Y-43179999D01*
X177875500Y-40639999D01*
X180551202Y-40639999D01*
X180551202Y-40640000D01*
X180571546Y-40846557D01*
X180571547Y-40846561D01*
X180631798Y-41045184D01*
X180631800Y-41045187D01*
X180729644Y-41228240D01*
X180729650Y-41228249D01*
X180861315Y-41388681D01*
X180861318Y-41388684D01*
X181021750Y-41520349D01*
X181021759Y-41520355D01*
X181021763Y-41520358D01*
X181204816Y-41618202D01*
X181403439Y-41678453D01*
X181610000Y-41698798D01*
X181816561Y-41678453D01*
X182015184Y-41618202D01*
X182198237Y-41520358D01*
X182198243Y-41520352D01*
X182198249Y-41520349D01*
X182289602Y-41445376D01*
X182358683Y-41388683D01*
X182415376Y-41319602D01*
X182490349Y-41228249D01*
X182490352Y-41228243D01*
X182490358Y-41228237D01*
X182588202Y-41045184D01*
X182648453Y-40846561D01*
X182668798Y-40640000D01*
X182668798Y-40639999D01*
X188171202Y-40639999D01*
X188171202Y-40640000D01*
X188191546Y-40846557D01*
X188191547Y-40846561D01*
X188251798Y-41045184D01*
X188251800Y-41045187D01*
X188349644Y-41228240D01*
X188349650Y-41228249D01*
X188481315Y-41388681D01*
X188481318Y-41388684D01*
X188641750Y-41520349D01*
X188641759Y-41520355D01*
X188641763Y-41520358D01*
X188824816Y-41618202D01*
X189023439Y-41678453D01*
X189230000Y-41698798D01*
X189436561Y-41678453D01*
X189635184Y-41618202D01*
X189818237Y-41520358D01*
X189818243Y-41520352D01*
X189818249Y-41520349D01*
X189909602Y-41445376D01*
X189978683Y-41388683D01*
X190035376Y-41319602D01*
X190110349Y-41228249D01*
X190110352Y-41228243D01*
X190110358Y-41228237D01*
X190208202Y-41045184D01*
X190268453Y-40846561D01*
X190288798Y-40640000D01*
X190268453Y-40433439D01*
X190208202Y-40234816D01*
X190110358Y-40051763D01*
X190110355Y-40051759D01*
X190110349Y-40051750D01*
X189978684Y-39891318D01*
X189978681Y-39891315D01*
X189818249Y-39759650D01*
X189818240Y-39759644D01*
X189818238Y-39759643D01*
X189818237Y-39759642D01*
X189635184Y-39661798D01*
X189535872Y-39631672D01*
X189436565Y-39601548D01*
X189436557Y-39601546D01*
X189230000Y-39581202D01*
X189023442Y-39601546D01*
X189023434Y-39601548D01*
X188824819Y-39661797D01*
X188824816Y-39661798D01*
X188824813Y-39661799D01*
X188824812Y-39661800D01*
X188641759Y-39759644D01*
X188641750Y-39759650D01*
X188481318Y-39891315D01*
X188481315Y-39891318D01*
X188349650Y-40051750D01*
X188349644Y-40051759D01*
X188251800Y-40234812D01*
X188251797Y-40234819D01*
X188191548Y-40433434D01*
X188191546Y-40433442D01*
X188171202Y-40639999D01*
X182668798Y-40639999D01*
X182648453Y-40433439D01*
X182588202Y-40234816D01*
X182490358Y-40051763D01*
X182490355Y-40051759D01*
X182490349Y-40051750D01*
X182358684Y-39891318D01*
X182358681Y-39891315D01*
X182198249Y-39759650D01*
X182198240Y-39759644D01*
X182198238Y-39759643D01*
X182198237Y-39759642D01*
X182015184Y-39661798D01*
X181915872Y-39631672D01*
X181816565Y-39601548D01*
X181816557Y-39601546D01*
X181610000Y-39581202D01*
X181403442Y-39601546D01*
X181403434Y-39601548D01*
X181204819Y-39661797D01*
X181204816Y-39661798D01*
X181204813Y-39661799D01*
X181204812Y-39661800D01*
X181021759Y-39759644D01*
X181021750Y-39759650D01*
X180861318Y-39891315D01*
X180861315Y-39891318D01*
X180729650Y-40051750D01*
X180729644Y-40051759D01*
X180631800Y-40234812D01*
X180631797Y-40234819D01*
X180571548Y-40433434D01*
X180571546Y-40433442D01*
X180551202Y-40639999D01*
X177875500Y-40639999D01*
X177875500Y-37230305D01*
X180560000Y-37230305D01*
X180560000Y-37850000D01*
X181176988Y-37850000D01*
X181144075Y-37907007D01*
X181110000Y-38034174D01*
X181110000Y-38165826D01*
X181144075Y-38292993D01*
X181176988Y-38350000D01*
X180560000Y-38350000D01*
X180560000Y-38969694D01*
X180571604Y-39028036D01*
X180615807Y-39094192D01*
X180681963Y-39138395D01*
X180740305Y-39150000D01*
X181360000Y-39150000D01*
X181360000Y-38533012D01*
X181417007Y-38565925D01*
X181544174Y-38600000D01*
X181675826Y-38600000D01*
X181802993Y-38565925D01*
X181860000Y-38533012D01*
X181860000Y-39150000D01*
X182479695Y-39150000D01*
X182538036Y-39138395D01*
X182604192Y-39094192D01*
X182648395Y-39028036D01*
X182660000Y-38969694D01*
X182660000Y-38350000D01*
X182043012Y-38350000D01*
X182075925Y-38292993D01*
X182110000Y-38165826D01*
X182110000Y-38034174D01*
X182075925Y-37907007D01*
X182043012Y-37850000D01*
X182660000Y-37850000D01*
X182660000Y-37230305D01*
X188180000Y-37230305D01*
X188180000Y-37850000D01*
X188796988Y-37850000D01*
X188764075Y-37907007D01*
X188730000Y-38034174D01*
X188730000Y-38165826D01*
X188764075Y-38292993D01*
X188796988Y-38350000D01*
X188180000Y-38350000D01*
X188180000Y-38969694D01*
X188191604Y-39028036D01*
X188235807Y-39094192D01*
X188301963Y-39138395D01*
X188360305Y-39150000D01*
X188980000Y-39150000D01*
X188980000Y-38533012D01*
X189037007Y-38565925D01*
X189164174Y-38600000D01*
X189295826Y-38600000D01*
X189422993Y-38565925D01*
X189480000Y-38533012D01*
X189480000Y-39150000D01*
X190099695Y-39150000D01*
X190158036Y-39138395D01*
X190224192Y-39094192D01*
X190268395Y-39028036D01*
X190280000Y-38969694D01*
X190280000Y-38350000D01*
X189663012Y-38350000D01*
X189695925Y-38292993D01*
X189730000Y-38165826D01*
X189730000Y-38034174D01*
X189695925Y-37907007D01*
X189663012Y-37850000D01*
X190280000Y-37850000D01*
X190280000Y-37230305D01*
X190268395Y-37171963D01*
X190224192Y-37105807D01*
X190158036Y-37061604D01*
X190099695Y-37050000D01*
X189480000Y-37050000D01*
X189480000Y-37666988D01*
X189422993Y-37634075D01*
X189295826Y-37600000D01*
X189164174Y-37600000D01*
X189037007Y-37634075D01*
X188980000Y-37666988D01*
X188980000Y-37050000D01*
X188360305Y-37050000D01*
X188301963Y-37061604D01*
X188235807Y-37105807D01*
X188191604Y-37171963D01*
X188180000Y-37230305D01*
X182660000Y-37230305D01*
X182648395Y-37171963D01*
X182604192Y-37105807D01*
X182538036Y-37061604D01*
X182479695Y-37050000D01*
X181860000Y-37050000D01*
X181860000Y-37666988D01*
X181802993Y-37634075D01*
X181675826Y-37600000D01*
X181544174Y-37600000D01*
X181417007Y-37634075D01*
X181360000Y-37666988D01*
X181360000Y-37050000D01*
X180740305Y-37050000D01*
X180681963Y-37061604D01*
X180615807Y-37105807D01*
X180571604Y-37171963D01*
X180560000Y-37230305D01*
X177875500Y-37230305D01*
X177875500Y-36831487D01*
X177875589Y-36828529D01*
X177893290Y-36535890D01*
X177894004Y-36530016D01*
X177946581Y-36243113D01*
X177947991Y-36237390D01*
X178034772Y-35958898D01*
X178036865Y-35953380D01*
X178156583Y-35687379D01*
X178159322Y-35682161D01*
X178310229Y-35432529D01*
X178313571Y-35427686D01*
X178493475Y-35198056D01*
X178497383Y-35193645D01*
X178703645Y-34987383D01*
X178708056Y-34983475D01*
X178937686Y-34803571D01*
X178942529Y-34800229D01*
X179192161Y-34649322D01*
X179197379Y-34646583D01*
X179463380Y-34526865D01*
X179468898Y-34524772D01*
X179747390Y-34437991D01*
X179753113Y-34436581D01*
X180040020Y-34384003D01*
X180045883Y-34383290D01*
X180286505Y-34368735D01*
X180338530Y-34365589D01*
X180341488Y-34365500D01*
X180364531Y-34365500D01*
X190475469Y-34365500D01*
X190498512Y-34365500D01*
X190501470Y-34365589D01*
G37*
%TD.AperFunction*%
%TD*%
M02*
