%TF.GenerationSoftware,KiCad,Pcbnew,8.0.4*%
%TF.CreationDate,2025-01-08T10:58:36-05:00*%
%TF.ProjectId,BarrelJackAdapter,42617272-656c-44a6-9163-6b4164617074,rev?*%
%TF.SameCoordinates,Original*%
%TF.FileFunction,Copper,L4,Bot*%
%TF.FilePolarity,Positive*%
%FSLAX46Y46*%
G04 Gerber Fmt 4.6, Leading zero omitted, Abs format (unit mm)*
G04 Created by KiCad (PCBNEW 8.0.4) date 2025-01-08 10:58:36*
%MOMM*%
%LPD*%
G01*
G04 APERTURE LIST*
%TA.AperFunction,ComponentPad*%
%ADD10R,2.600000X2.600000*%
%TD*%
%TA.AperFunction,ComponentPad*%
%ADD11C,2.600000*%
%TD*%
%TA.AperFunction,ComponentPad*%
%ADD12R,1.700000X1.700000*%
%TD*%
%TA.AperFunction,ComponentPad*%
%ADD13O,1.700000X1.700000*%
%TD*%
%TA.AperFunction,ViaPad*%
%ADD14C,0.500000*%
%TD*%
%TA.AperFunction,ViaPad*%
%ADD15C,0.350000*%
%TD*%
%TA.AperFunction,Conductor*%
%ADD16C,0.635000*%
%TD*%
G04 APERTURE END LIST*
D10*
%TO.P,J1,1*%
%TO.N,+9V*%
X185420000Y-68930000D03*
D11*
%TO.P,J1,2*%
%TO.N,GND*%
X185420000Y-74930000D03*
%TO.P,J1,3*%
X190120000Y-71930000D03*
%TD*%
D12*
%TO.P,J4,1,Pin_1*%
%TO.N,+9V*%
X189230000Y-38100000D03*
D13*
%TO.P,J4,2,Pin_2*%
%TO.N,GND*%
X189230000Y-40640000D03*
%TO.P,J4,3,Pin_3*%
%TO.N,+5V*%
X189230000Y-43180000D03*
%TO.P,J4,4,Pin_4*%
%TO.N,+3.3V*%
X189230000Y-45720000D03*
%TD*%
D12*
%TO.P,J2,1,Pin_1*%
%TO.N,+9V*%
X181610000Y-38100000D03*
D13*
%TO.P,J2,2,Pin_2*%
%TO.N,GND*%
X181610000Y-40640000D03*
%TO.P,J2,3,Pin_3*%
%TO.N,+5V*%
X181610000Y-43180000D03*
%TO.P,J2,4,Pin_4*%
%TO.N,+3.3V*%
X181610000Y-45720000D03*
%TD*%
D14*
%TO.N,GND*%
X181864000Y-60960000D03*
X186182000Y-49784000D03*
D15*
X184150000Y-49149000D03*
D14*
X188264800Y-51993800D03*
D15*
X184150000Y-48641000D03*
X188722000Y-48768000D03*
X184150000Y-49657000D03*
%TO.N,/BST*%
X187452000Y-63246000D03*
X179070000Y-61722000D03*
%TO.N,/FB*%
X184912000Y-52070000D03*
X179070000Y-62738000D03*
D14*
%TO.N,+3.3V*%
X187198000Y-48768000D03*
%TD*%
D16*
%TO.N,+3.3V*%
X187325000Y-47625000D02*
X189230000Y-45720000D01*
X187325000Y-47625000D02*
X187325000Y-48768000D01*
X181610000Y-45720000D02*
X189230000Y-45720000D01*
%TD*%
%TA.AperFunction,Conductor*%
%TO.N,GND*%
G36*
X190501470Y-34365589D02*
G01*
X190561414Y-34369214D01*
X190794114Y-34383290D01*
X190799981Y-34384003D01*
X191086882Y-34436580D01*
X191092613Y-34437992D01*
X191371094Y-34524770D01*
X191376624Y-34526867D01*
X191642613Y-34646580D01*
X191647844Y-34649326D01*
X191897462Y-34800224D01*
X191902321Y-34803577D01*
X191995655Y-34876700D01*
X192131933Y-34983467D01*
X192136362Y-34987391D01*
X192342608Y-35193637D01*
X192346532Y-35198066D01*
X192526418Y-35427673D01*
X192529779Y-35432543D01*
X192680671Y-35682151D01*
X192683421Y-35687390D01*
X192803131Y-35953373D01*
X192805229Y-35958905D01*
X192892004Y-36237377D01*
X192893420Y-36243123D01*
X192945995Y-36530016D01*
X192946709Y-36535889D01*
X192964411Y-36828528D01*
X192964500Y-36831487D01*
X192964500Y-77468512D01*
X192964411Y-77471471D01*
X192946709Y-77764110D01*
X192945995Y-77769983D01*
X192893420Y-78056876D01*
X192892004Y-78062622D01*
X192805229Y-78341094D01*
X192803131Y-78346626D01*
X192683421Y-78612609D01*
X192680671Y-78617848D01*
X192529779Y-78867456D01*
X192526418Y-78872326D01*
X192346532Y-79101933D01*
X192342608Y-79106362D01*
X192136362Y-79312608D01*
X192131933Y-79316532D01*
X191902326Y-79496418D01*
X191897456Y-79499779D01*
X191647848Y-79650671D01*
X191642609Y-79653421D01*
X191376626Y-79773131D01*
X191371094Y-79775229D01*
X191092622Y-79862004D01*
X191086876Y-79863420D01*
X190799983Y-79915995D01*
X190794110Y-79916709D01*
X190501471Y-79934411D01*
X190498512Y-79934500D01*
X180341488Y-79934500D01*
X180338529Y-79934411D01*
X180045889Y-79916709D01*
X180040016Y-79915995D01*
X179753123Y-79863420D01*
X179747377Y-79862004D01*
X179468905Y-79775229D01*
X179463373Y-79773131D01*
X179197390Y-79653421D01*
X179192151Y-79650671D01*
X178942543Y-79499779D01*
X178937673Y-79496418D01*
X178708066Y-79316532D01*
X178703637Y-79312608D01*
X178497391Y-79106362D01*
X178493467Y-79101933D01*
X178313581Y-78872326D01*
X178310224Y-78867462D01*
X178159326Y-78617844D01*
X178156578Y-78612609D01*
X178093513Y-78472486D01*
X178036867Y-78346624D01*
X178034770Y-78341094D01*
X177989309Y-78195204D01*
X177947992Y-78062613D01*
X177946579Y-78056876D01*
X177894004Y-77769983D01*
X177893290Y-77764109D01*
X177875589Y-77471470D01*
X177875500Y-77468512D01*
X177875500Y-74930000D01*
X183914859Y-74930000D01*
X183935387Y-75177738D01*
X183996413Y-75418720D01*
X184096266Y-75646365D01*
X184096270Y-75646371D01*
X184196563Y-75799881D01*
X184196564Y-75799881D01*
X184704152Y-75292292D01*
X184711049Y-75308942D01*
X184798599Y-75439970D01*
X184910030Y-75551401D01*
X185041058Y-75638951D01*
X185057705Y-75645846D01*
X184549942Y-76153609D01*
X184549942Y-76153610D01*
X184596761Y-76190050D01*
X184596775Y-76190059D01*
X184815384Y-76308364D01*
X184815394Y-76308368D01*
X185050508Y-76389083D01*
X185295709Y-76430000D01*
X185544291Y-76430000D01*
X185789491Y-76389083D01*
X186024605Y-76308368D01*
X186024615Y-76308364D01*
X186243224Y-76190059D01*
X186243232Y-76190054D01*
X186290056Y-76153609D01*
X185782293Y-75645846D01*
X185798942Y-75638951D01*
X185929970Y-75551401D01*
X186041401Y-75439970D01*
X186128951Y-75308942D01*
X186135846Y-75292293D01*
X186643434Y-75799881D01*
X186743729Y-75646371D01*
X186743733Y-75646365D01*
X186843586Y-75418720D01*
X186904612Y-75177738D01*
X186925140Y-74930000D01*
X186904612Y-74682261D01*
X186843586Y-74441279D01*
X186743733Y-74213634D01*
X186743729Y-74213628D01*
X186643435Y-74060117D01*
X186643434Y-74060117D01*
X186135846Y-74567705D01*
X186128951Y-74551058D01*
X186041401Y-74420030D01*
X185929970Y-74308599D01*
X185798942Y-74221049D01*
X185782292Y-74214152D01*
X186290056Y-73706389D01*
X186290056Y-73706388D01*
X186243238Y-73669949D01*
X186243224Y-73669940D01*
X186024615Y-73551635D01*
X186024605Y-73551631D01*
X185789491Y-73470916D01*
X185544291Y-73430000D01*
X185295709Y-73430000D01*
X185050508Y-73470916D01*
X184815394Y-73551631D01*
X184815384Y-73551635D01*
X184596771Y-73669941D01*
X184549942Y-73706388D01*
X184549942Y-73706389D01*
X185057706Y-74214153D01*
X185041058Y-74221049D01*
X184910030Y-74308599D01*
X184798599Y-74420030D01*
X184711049Y-74551058D01*
X184704153Y-74567706D01*
X184196564Y-74060117D01*
X184196562Y-74060117D01*
X184096273Y-74213622D01*
X184096266Y-74213634D01*
X183996413Y-74441279D01*
X183935387Y-74682261D01*
X183914859Y-74930000D01*
X177875500Y-74930000D01*
X177875500Y-71930000D01*
X188614859Y-71930000D01*
X188635387Y-72177738D01*
X188696413Y-72418720D01*
X188796266Y-72646365D01*
X188796270Y-72646371D01*
X188896563Y-72799881D01*
X188896564Y-72799881D01*
X189404152Y-72292292D01*
X189411049Y-72308942D01*
X189498599Y-72439970D01*
X189610030Y-72551401D01*
X189741058Y-72638951D01*
X189757705Y-72645846D01*
X189249942Y-73153609D01*
X189249942Y-73153610D01*
X189296761Y-73190050D01*
X189296775Y-73190059D01*
X189515384Y-73308364D01*
X189515394Y-73308368D01*
X189750508Y-73389083D01*
X189995709Y-73430000D01*
X190244291Y-73430000D01*
X190489491Y-73389083D01*
X190724605Y-73308368D01*
X190724615Y-73308364D01*
X190943224Y-73190059D01*
X190943232Y-73190054D01*
X190990056Y-73153609D01*
X190482293Y-72645846D01*
X190498942Y-72638951D01*
X190629970Y-72551401D01*
X190741401Y-72439970D01*
X190828951Y-72308942D01*
X190835846Y-72292293D01*
X191343434Y-72799881D01*
X191443729Y-72646371D01*
X191443733Y-72646365D01*
X191543586Y-72418720D01*
X191604612Y-72177738D01*
X191625140Y-71930000D01*
X191604612Y-71682261D01*
X191543586Y-71441279D01*
X191443733Y-71213634D01*
X191443729Y-71213628D01*
X191343435Y-71060117D01*
X191343434Y-71060117D01*
X190835846Y-71567705D01*
X190828951Y-71551058D01*
X190741401Y-71420030D01*
X190629970Y-71308599D01*
X190498942Y-71221049D01*
X190482292Y-71214152D01*
X190990056Y-70706389D01*
X190990056Y-70706388D01*
X190943238Y-70669949D01*
X190943224Y-70669940D01*
X190724615Y-70551635D01*
X190724605Y-70551631D01*
X190489491Y-70470916D01*
X190244291Y-70430000D01*
X189995709Y-70430000D01*
X189750508Y-70470916D01*
X189515394Y-70551631D01*
X189515384Y-70551635D01*
X189296771Y-70669941D01*
X189249942Y-70706388D01*
X189249942Y-70706389D01*
X189757706Y-71214153D01*
X189741058Y-71221049D01*
X189610030Y-71308599D01*
X189498599Y-71420030D01*
X189411049Y-71551058D01*
X189404153Y-71567706D01*
X188896564Y-71060117D01*
X188896562Y-71060117D01*
X188796273Y-71213622D01*
X188796266Y-71213634D01*
X188696413Y-71441279D01*
X188635387Y-71682261D01*
X188614859Y-71930000D01*
X177875500Y-71930000D01*
X177875500Y-67609932D01*
X183916300Y-67609932D01*
X183916300Y-70250067D01*
X183928118Y-70309479D01*
X183973139Y-70376860D01*
X184040520Y-70421881D01*
X184099936Y-70433700D01*
X186740064Y-70433700D01*
X186799480Y-70421881D01*
X186866860Y-70376860D01*
X186911881Y-70309480D01*
X186923700Y-70250064D01*
X186923700Y-67609936D01*
X186911881Y-67550520D01*
X186866860Y-67483139D01*
X186799479Y-67438118D01*
X186740067Y-67426300D01*
X186740064Y-67426300D01*
X184099936Y-67426300D01*
X184099932Y-67426300D01*
X184040520Y-67438118D01*
X183973139Y-67483139D01*
X183928118Y-67550520D01*
X183916300Y-67609932D01*
X177875500Y-67609932D01*
X177875500Y-63246000D01*
X187068579Y-63246000D01*
X187087345Y-63364484D01*
X187087345Y-63364485D01*
X187087346Y-63364486D01*
X187141802Y-63471364D01*
X187141806Y-63471369D01*
X187226630Y-63556193D01*
X187226635Y-63556197D01*
X187298360Y-63592742D01*
X187333516Y-63610655D01*
X187452000Y-63629421D01*
X187570484Y-63610655D01*
X187643632Y-63573383D01*
X187677364Y-63556197D01*
X187677365Y-63556195D01*
X187677369Y-63556194D01*
X187762194Y-63471369D01*
X187816655Y-63364484D01*
X187835421Y-63246000D01*
X187816655Y-63127516D01*
X187776240Y-63048197D01*
X187762197Y-63020635D01*
X187762193Y-63020630D01*
X187677369Y-62935806D01*
X187677364Y-62935802D01*
X187570486Y-62881346D01*
X187570487Y-62881346D01*
X187570485Y-62881345D01*
X187570484Y-62881345D01*
X187452000Y-62862579D01*
X187333516Y-62881345D01*
X187333514Y-62881345D01*
X187333513Y-62881346D01*
X187226635Y-62935802D01*
X187226630Y-62935806D01*
X187141806Y-63020630D01*
X187141802Y-63020635D01*
X187087346Y-63127513D01*
X187087345Y-63127514D01*
X187087345Y-63127516D01*
X187068579Y-63246000D01*
X177875500Y-63246000D01*
X177875500Y-62738000D01*
X178686579Y-62738000D01*
X178705345Y-62856484D01*
X178705345Y-62856485D01*
X178705346Y-62856486D01*
X178759802Y-62963364D01*
X178759806Y-62963369D01*
X178844630Y-63048193D01*
X178844635Y-63048197D01*
X178916360Y-63084742D01*
X178951516Y-63102655D01*
X179070000Y-63121421D01*
X179188484Y-63102655D01*
X179261632Y-63065383D01*
X179295364Y-63048197D01*
X179295365Y-63048195D01*
X179295369Y-63048194D01*
X179380194Y-62963369D01*
X179434655Y-62856484D01*
X179453421Y-62738000D01*
X179434655Y-62619516D01*
X179416742Y-62584360D01*
X179380197Y-62512635D01*
X179380193Y-62512630D01*
X179295369Y-62427806D01*
X179295364Y-62427802D01*
X179188486Y-62373346D01*
X179188487Y-62373346D01*
X179188485Y-62373345D01*
X179188484Y-62373345D01*
X179070000Y-62354579D01*
X178951516Y-62373345D01*
X178951514Y-62373345D01*
X178951513Y-62373346D01*
X178844635Y-62427802D01*
X178844630Y-62427806D01*
X178759806Y-62512630D01*
X178759802Y-62512635D01*
X178705346Y-62619513D01*
X178705345Y-62619514D01*
X178705345Y-62619516D01*
X178686579Y-62738000D01*
X177875500Y-62738000D01*
X177875500Y-61722000D01*
X178686579Y-61722000D01*
X178705345Y-61840484D01*
X178705345Y-61840485D01*
X178705346Y-61840486D01*
X178759802Y-61947364D01*
X178759806Y-61947369D01*
X178844630Y-62032193D01*
X178844635Y-62032197D01*
X178916360Y-62068742D01*
X178951516Y-62086655D01*
X179070000Y-62105421D01*
X179188484Y-62086655D01*
X179261632Y-62049383D01*
X179295364Y-62032197D01*
X179295365Y-62032195D01*
X179295369Y-62032194D01*
X179380194Y-61947369D01*
X179434655Y-61840484D01*
X179453421Y-61722000D01*
X179434655Y-61603516D01*
X179416742Y-61568360D01*
X179380197Y-61496635D01*
X179380193Y-61496630D01*
X179295369Y-61411806D01*
X179295364Y-61411802D01*
X179188486Y-61357346D01*
X179188487Y-61357346D01*
X179188485Y-61357345D01*
X179188484Y-61357345D01*
X179070000Y-61338579D01*
X178951516Y-61357345D01*
X178951514Y-61357345D01*
X178951513Y-61357346D01*
X178844635Y-61411802D01*
X178844630Y-61411806D01*
X178759806Y-61496630D01*
X178759802Y-61496635D01*
X178705346Y-61603513D01*
X178705345Y-61603514D01*
X178705345Y-61603516D01*
X178686579Y-61722000D01*
X177875500Y-61722000D01*
X177875500Y-52070000D01*
X184528579Y-52070000D01*
X184547345Y-52188484D01*
X184547345Y-52188485D01*
X184547346Y-52188486D01*
X184601802Y-52295364D01*
X184601806Y-52295369D01*
X184686630Y-52380193D01*
X184686635Y-52380197D01*
X184758360Y-52416742D01*
X184793516Y-52434655D01*
X184912000Y-52453421D01*
X185030484Y-52434655D01*
X185103632Y-52397383D01*
X185137364Y-52380197D01*
X185137365Y-52380195D01*
X185137369Y-52380194D01*
X185222194Y-52295369D01*
X185276655Y-52188484D01*
X185295421Y-52070000D01*
X185276655Y-51951516D01*
X185258742Y-51916360D01*
X185222197Y-51844635D01*
X185222193Y-51844630D01*
X185137369Y-51759806D01*
X185137364Y-51759802D01*
X185030486Y-51705346D01*
X185030487Y-51705346D01*
X185030485Y-51705345D01*
X185030484Y-51705345D01*
X184912000Y-51686579D01*
X184793516Y-51705345D01*
X184793514Y-51705345D01*
X184793513Y-51705346D01*
X184686635Y-51759802D01*
X184686630Y-51759806D01*
X184601806Y-51844630D01*
X184601802Y-51844635D01*
X184547346Y-51951513D01*
X184547345Y-51951514D01*
X184547345Y-51951516D01*
X184528579Y-52070000D01*
X177875500Y-52070000D01*
X177875500Y-45719999D01*
X180551202Y-45719999D01*
X180551202Y-45720000D01*
X180571546Y-45926557D01*
X180571547Y-45926561D01*
X180631798Y-46125184D01*
X180707655Y-46267101D01*
X180729644Y-46308240D01*
X180729650Y-46308249D01*
X180861315Y-46468681D01*
X180861318Y-46468684D01*
X181021750Y-46600349D01*
X181021759Y-46600355D01*
X181021763Y-46600358D01*
X181204816Y-46698202D01*
X181403439Y-46758453D01*
X181610000Y-46778798D01*
X181816561Y-46758453D01*
X182015184Y-46698202D01*
X182198237Y-46600358D01*
X182198243Y-46600352D01*
X182198249Y-46600349D01*
X182289602Y-46525376D01*
X182358683Y-46468683D01*
X182476726Y-46324848D01*
X182490349Y-46308249D01*
X182490352Y-46308243D01*
X182490358Y-46308237D01*
X182512346Y-46267100D01*
X182541335Y-46243310D01*
X182555559Y-46241200D01*
X187853416Y-46241200D01*
X187888064Y-46255552D01*
X187902416Y-46290200D01*
X187888064Y-46324848D01*
X186907938Y-47304972D01*
X186907936Y-47304975D01*
X186857705Y-47391979D01*
X186847089Y-47410366D01*
X186839318Y-47423825D01*
X186803800Y-47556379D01*
X186803800Y-48528358D01*
X186799372Y-48548713D01*
X186758200Y-48638866D01*
X186739635Y-48767997D01*
X186739635Y-48768001D01*
X186758202Y-48897137D01*
X186812398Y-49015810D01*
X186812401Y-49015814D01*
X186874967Y-49088018D01*
X186897835Y-49114409D01*
X186995515Y-49177184D01*
X187003666Y-49183753D01*
X187004976Y-49185063D01*
X187123824Y-49253681D01*
X187228367Y-49281693D01*
X187256379Y-49289199D01*
X187256380Y-49289200D01*
X187256383Y-49289200D01*
X187393620Y-49289200D01*
X187393620Y-49289199D01*
X187526176Y-49253681D01*
X187645024Y-49185063D01*
X187742063Y-49088024D01*
X187810681Y-48969176D01*
X187846199Y-48836620D01*
X187846200Y-48836620D01*
X187846200Y-47861184D01*
X187860552Y-47826536D01*
X188382116Y-47304972D01*
X188929933Y-46757154D01*
X188964580Y-46742803D01*
X188978802Y-46744912D01*
X189023439Y-46758453D01*
X189230000Y-46778798D01*
X189436561Y-46758453D01*
X189635184Y-46698202D01*
X189818237Y-46600358D01*
X189818243Y-46600352D01*
X189818249Y-46600349D01*
X189909602Y-46525376D01*
X189978683Y-46468683D01*
X190096726Y-46324848D01*
X190110349Y-46308249D01*
X190110352Y-46308243D01*
X190110358Y-46308237D01*
X190208202Y-46125184D01*
X190268453Y-45926561D01*
X190288798Y-45720000D01*
X190268453Y-45513439D01*
X190208202Y-45314816D01*
X190110358Y-45131763D01*
X190110355Y-45131759D01*
X190110349Y-45131750D01*
X189978684Y-44971318D01*
X189978681Y-44971315D01*
X189818249Y-44839650D01*
X189818240Y-44839644D01*
X189818238Y-44839643D01*
X189818237Y-44839642D01*
X189635184Y-44741798D01*
X189535872Y-44711672D01*
X189436565Y-44681548D01*
X189436557Y-44681546D01*
X189230000Y-44661202D01*
X189023442Y-44681546D01*
X189023434Y-44681548D01*
X188824819Y-44741797D01*
X188824816Y-44741798D01*
X188824813Y-44741799D01*
X188824812Y-44741800D01*
X188641759Y-44839644D01*
X188641750Y-44839650D01*
X188481318Y-44971315D01*
X188481315Y-44971318D01*
X188349650Y-45131750D01*
X188349644Y-45131759D01*
X188349642Y-45131763D01*
X188327653Y-45172899D01*
X188298665Y-45196690D01*
X188284441Y-45198800D01*
X182555559Y-45198800D01*
X182520911Y-45184448D01*
X182512347Y-45172902D01*
X182490358Y-45131763D01*
X182490355Y-45131759D01*
X182490349Y-45131750D01*
X182358684Y-44971318D01*
X182358681Y-44971315D01*
X182198249Y-44839650D01*
X182198240Y-44839644D01*
X182198238Y-44839643D01*
X182198237Y-44839642D01*
X182015184Y-44741798D01*
X181915872Y-44711672D01*
X181816565Y-44681548D01*
X181816557Y-44681546D01*
X181610000Y-44661202D01*
X181403442Y-44681546D01*
X181403434Y-44681548D01*
X181204819Y-44741797D01*
X181204816Y-44741798D01*
X181204813Y-44741799D01*
X181204812Y-44741800D01*
X181021759Y-44839644D01*
X181021750Y-44839650D01*
X180861318Y-44971315D01*
X180861315Y-44971318D01*
X180729650Y-45131750D01*
X180729644Y-45131759D01*
X180631800Y-45314812D01*
X180631797Y-45314819D01*
X180571548Y-45513434D01*
X180571546Y-45513442D01*
X180551202Y-45719999D01*
X177875500Y-45719999D01*
X177875500Y-43179999D01*
X180551202Y-43179999D01*
X180551202Y-43180000D01*
X180571546Y-43386557D01*
X180571547Y-43386561D01*
X180631798Y-43585184D01*
X180631800Y-43585187D01*
X180729644Y-43768240D01*
X180729650Y-43768249D01*
X180861315Y-43928681D01*
X180861318Y-43928684D01*
X181021750Y-44060349D01*
X181021759Y-44060355D01*
X181021763Y-44060358D01*
X181204816Y-44158202D01*
X181403439Y-44218453D01*
X181610000Y-44238798D01*
X181816561Y-44218453D01*
X182015184Y-44158202D01*
X182198237Y-44060358D01*
X182198243Y-44060352D01*
X182198249Y-44060349D01*
X182289602Y-43985376D01*
X182358683Y-43928683D01*
X182415376Y-43859602D01*
X182490349Y-43768249D01*
X182490352Y-43768243D01*
X182490358Y-43768237D01*
X182588202Y-43585184D01*
X182648453Y-43386561D01*
X182668798Y-43180000D01*
X182668798Y-43179999D01*
X188171202Y-43179999D01*
X188171202Y-43180000D01*
X188191546Y-43386557D01*
X188191547Y-43386561D01*
X188251798Y-43585184D01*
X188251800Y-43585187D01*
X188349644Y-43768240D01*
X188349650Y-43768249D01*
X188481315Y-43928681D01*
X188481318Y-43928684D01*
X188641750Y-44060349D01*
X188641759Y-44060355D01*
X188641763Y-44060358D01*
X188824816Y-44158202D01*
X189023439Y-44218453D01*
X189230000Y-44238798D01*
X189436561Y-44218453D01*
X189635184Y-44158202D01*
X189818237Y-44060358D01*
X189818243Y-44060352D01*
X189818249Y-44060349D01*
X189909602Y-43985376D01*
X189978683Y-43928683D01*
X190035376Y-43859602D01*
X190110349Y-43768249D01*
X190110352Y-43768243D01*
X190110358Y-43768237D01*
X190208202Y-43585184D01*
X190268453Y-43386561D01*
X190288798Y-43180000D01*
X190268453Y-42973439D01*
X190208202Y-42774816D01*
X190110358Y-42591763D01*
X190110355Y-42591759D01*
X190110349Y-42591750D01*
X189978684Y-42431318D01*
X189978681Y-42431315D01*
X189818249Y-42299650D01*
X189818240Y-42299644D01*
X189818238Y-42299643D01*
X189818237Y-42299642D01*
X189635184Y-42201798D01*
X189535872Y-42171672D01*
X189436565Y-42141548D01*
X189436557Y-42141546D01*
X189230000Y-42121202D01*
X189023442Y-42141546D01*
X189023434Y-42141548D01*
X188824819Y-42201797D01*
X188824816Y-42201798D01*
X188824813Y-42201799D01*
X188824812Y-42201800D01*
X188641759Y-42299644D01*
X188641750Y-42299650D01*
X188481318Y-42431315D01*
X188481315Y-42431318D01*
X188349650Y-42591750D01*
X188349644Y-42591759D01*
X188251800Y-42774812D01*
X188251797Y-42774819D01*
X188191548Y-42973434D01*
X188191546Y-42973442D01*
X188171202Y-43179999D01*
X182668798Y-43179999D01*
X182648453Y-42973439D01*
X182588202Y-42774816D01*
X182490358Y-42591763D01*
X182490355Y-42591759D01*
X182490349Y-42591750D01*
X182358684Y-42431318D01*
X182358681Y-42431315D01*
X182198249Y-42299650D01*
X182198240Y-42299644D01*
X182198238Y-42299643D01*
X182198237Y-42299642D01*
X182015184Y-42201798D01*
X181915872Y-42171672D01*
X181816565Y-42141548D01*
X181816557Y-42141546D01*
X181610000Y-42121202D01*
X181403442Y-42141546D01*
X181403434Y-42141548D01*
X181204819Y-42201797D01*
X181204816Y-42201798D01*
X181204813Y-42201799D01*
X181204812Y-42201800D01*
X181021759Y-42299644D01*
X181021750Y-42299650D01*
X180861318Y-42431315D01*
X180861315Y-42431318D01*
X180729650Y-42591750D01*
X180729644Y-42591759D01*
X180631800Y-42774812D01*
X180631797Y-42774819D01*
X180571548Y-42973434D01*
X180571546Y-42973442D01*
X180551202Y-43179999D01*
X177875500Y-43179999D01*
X177875500Y-40390000D01*
X180588589Y-40390000D01*
X181176988Y-40390000D01*
X181144075Y-40447007D01*
X181110000Y-40574174D01*
X181110000Y-40705826D01*
X181144075Y-40832993D01*
X181176988Y-40890000D01*
X180588589Y-40890000D01*
X180635231Y-41043758D01*
X180635236Y-41043770D01*
X180732731Y-41226171D01*
X180732736Y-41226178D01*
X180863945Y-41386054D01*
X181023821Y-41517263D01*
X181023828Y-41517268D01*
X181206229Y-41614763D01*
X181206241Y-41614768D01*
X181360000Y-41661411D01*
X181360000Y-41073012D01*
X181417007Y-41105925D01*
X181544174Y-41140000D01*
X181675826Y-41140000D01*
X181802993Y-41105925D01*
X181860000Y-41073012D01*
X181860000Y-41661410D01*
X182013758Y-41614768D01*
X182013770Y-41614763D01*
X182196171Y-41517268D01*
X182196178Y-41517263D01*
X182356054Y-41386054D01*
X182487263Y-41226178D01*
X182487268Y-41226171D01*
X182584763Y-41043770D01*
X182584768Y-41043758D01*
X182631411Y-40890000D01*
X182043012Y-40890000D01*
X182075925Y-40832993D01*
X182110000Y-40705826D01*
X182110000Y-40574174D01*
X182075925Y-40447007D01*
X182043012Y-40390000D01*
X182631411Y-40390000D01*
X188208589Y-40390000D01*
X188796988Y-40390000D01*
X188764075Y-40447007D01*
X188730000Y-40574174D01*
X188730000Y-40705826D01*
X188764075Y-40832993D01*
X188796988Y-40890000D01*
X188208589Y-40890000D01*
X188255231Y-41043758D01*
X188255236Y-41043770D01*
X188352731Y-41226171D01*
X188352736Y-41226178D01*
X188483945Y-41386054D01*
X188643821Y-41517263D01*
X188643828Y-41517268D01*
X188826229Y-41614763D01*
X188826241Y-41614768D01*
X188980000Y-41661411D01*
X188980000Y-41073012D01*
X189037007Y-41105925D01*
X189164174Y-41140000D01*
X189295826Y-41140000D01*
X189422993Y-41105925D01*
X189480000Y-41073012D01*
X189480000Y-41661410D01*
X189633758Y-41614768D01*
X189633770Y-41614763D01*
X189816171Y-41517268D01*
X189816178Y-41517263D01*
X189976054Y-41386054D01*
X190107263Y-41226178D01*
X190107268Y-41226171D01*
X190204763Y-41043770D01*
X190204768Y-41043758D01*
X190251411Y-40890000D01*
X189663012Y-40890000D01*
X189695925Y-40832993D01*
X189730000Y-40705826D01*
X189730000Y-40574174D01*
X189695925Y-40447007D01*
X189663012Y-40390000D01*
X190251411Y-40390000D01*
X190204768Y-40236241D01*
X190204763Y-40236229D01*
X190107268Y-40053828D01*
X190107263Y-40053821D01*
X189976054Y-39893945D01*
X189816178Y-39762736D01*
X189816171Y-39762731D01*
X189633763Y-39665232D01*
X189480000Y-39618587D01*
X189480000Y-40206988D01*
X189422993Y-40174075D01*
X189295826Y-40140000D01*
X189164174Y-40140000D01*
X189037007Y-40174075D01*
X188980000Y-40206988D01*
X188980000Y-39618587D01*
X188826236Y-39665232D01*
X188643828Y-39762731D01*
X188643821Y-39762736D01*
X188483945Y-39893945D01*
X188352736Y-40053821D01*
X188352731Y-40053828D01*
X188255236Y-40236229D01*
X188255231Y-40236241D01*
X188208589Y-40390000D01*
X182631411Y-40390000D01*
X182584768Y-40236241D01*
X182584763Y-40236229D01*
X182487268Y-40053828D01*
X182487263Y-40053821D01*
X182356054Y-39893945D01*
X182196178Y-39762736D01*
X182196171Y-39762731D01*
X182013763Y-39665232D01*
X181860000Y-39618587D01*
X181860000Y-40206988D01*
X181802993Y-40174075D01*
X181675826Y-40140000D01*
X181544174Y-40140000D01*
X181417007Y-40174075D01*
X181360000Y-40206988D01*
X181360000Y-39618587D01*
X181206236Y-39665232D01*
X181023828Y-39762731D01*
X181023821Y-39762736D01*
X180863945Y-39893945D01*
X180732736Y-40053821D01*
X180732731Y-40053828D01*
X180635236Y-40236229D01*
X180635231Y-40236241D01*
X180588589Y-40390000D01*
X177875500Y-40390000D01*
X177875500Y-37229932D01*
X180556300Y-37229932D01*
X180556300Y-38970067D01*
X180568118Y-39029479D01*
X180613139Y-39096860D01*
X180680520Y-39141881D01*
X180739936Y-39153700D01*
X182480064Y-39153700D01*
X182539480Y-39141881D01*
X182606860Y-39096860D01*
X182651881Y-39029480D01*
X182663700Y-38970064D01*
X182663700Y-37229936D01*
X182663699Y-37229932D01*
X188176300Y-37229932D01*
X188176300Y-38970067D01*
X188188118Y-39029479D01*
X188233139Y-39096860D01*
X188300520Y-39141881D01*
X188359936Y-39153700D01*
X190100064Y-39153700D01*
X190159480Y-39141881D01*
X190226860Y-39096860D01*
X190271881Y-39029480D01*
X190283700Y-38970064D01*
X190283700Y-37229936D01*
X190271881Y-37170520D01*
X190226860Y-37103139D01*
X190159479Y-37058118D01*
X190100067Y-37046300D01*
X190100064Y-37046300D01*
X188359936Y-37046300D01*
X188359932Y-37046300D01*
X188300520Y-37058118D01*
X188233139Y-37103139D01*
X188188118Y-37170520D01*
X188176300Y-37229932D01*
X182663699Y-37229932D01*
X182651881Y-37170520D01*
X182606860Y-37103139D01*
X182539479Y-37058118D01*
X182480067Y-37046300D01*
X182480064Y-37046300D01*
X180739936Y-37046300D01*
X180739932Y-37046300D01*
X180680520Y-37058118D01*
X180613139Y-37103139D01*
X180568118Y-37170520D01*
X180556300Y-37229932D01*
X177875500Y-37229932D01*
X177875500Y-36831487D01*
X177875589Y-36828529D01*
X177893290Y-36535890D01*
X177894004Y-36530016D01*
X177946581Y-36243113D01*
X177947991Y-36237390D01*
X178034772Y-35958898D01*
X178036865Y-35953380D01*
X178156583Y-35687379D01*
X178159322Y-35682161D01*
X178310229Y-35432529D01*
X178313571Y-35427686D01*
X178493475Y-35198056D01*
X178497383Y-35193645D01*
X178703645Y-34987383D01*
X178708056Y-34983475D01*
X178937686Y-34803571D01*
X178942529Y-34800229D01*
X179192161Y-34649322D01*
X179197379Y-34646583D01*
X179463380Y-34526865D01*
X179468898Y-34524772D01*
X179747390Y-34437991D01*
X179753113Y-34436581D01*
X180040020Y-34384003D01*
X180045883Y-34383290D01*
X180286505Y-34368735D01*
X180338530Y-34365589D01*
X180341488Y-34365500D01*
X180364531Y-34365500D01*
X190475469Y-34365500D01*
X190498512Y-34365500D01*
X190501470Y-34365589D01*
G37*
%TD.AperFunction*%
%TD*%
M02*
