%TF.GenerationSoftware,KiCad,Pcbnew,8.0.4*%
%TF.CreationDate,2024-12-13T10:45:08-05:00*%
%TF.ProjectId,BarrelJackAdapter,42617272-656c-44a6-9163-6b4164617074,rev?*%
%TF.SameCoordinates,Original*%
%TF.FileFunction,Copper,L2,Bot*%
%TF.FilePolarity,Positive*%
%FSLAX46Y46*%
G04 Gerber Fmt 4.6, Leading zero omitted, Abs format (unit mm)*
G04 Created by KiCad (PCBNEW 8.0.4) date 2024-12-13 10:45:08*
%MOMM*%
%LPD*%
G01*
G04 APERTURE LIST*
%TA.AperFunction,ComponentPad*%
%ADD10R,2.600000X2.600000*%
%TD*%
%TA.AperFunction,ComponentPad*%
%ADD11C,2.600000*%
%TD*%
%TA.AperFunction,ComponentPad*%
%ADD12R,1.700000X1.700000*%
%TD*%
%TA.AperFunction,ComponentPad*%
%ADD13O,1.700000X1.700000*%
%TD*%
%TA.AperFunction,ViaPad*%
%ADD14C,0.600000*%
%TD*%
G04 APERTURE END LIST*
D10*
%TO.P,J1,1*%
%TO.N,+9V*%
X185420000Y-68930000D03*
D11*
%TO.P,J1,2*%
%TO.N,GND*%
X185420000Y-74930000D03*
%TO.P,J1,3*%
X190120000Y-71930000D03*
%TD*%
D12*
%TO.P,J4,1,Pin_1*%
%TO.N,+9V*%
X189230000Y-43180000D03*
D13*
%TO.P,J4,2,Pin_2*%
%TO.N,GND*%
X189230000Y-40640000D03*
%TO.P,J4,3,Pin_3*%
%TO.N,+5V*%
X189230000Y-38100000D03*
%TD*%
D12*
%TO.P,J2,1,Pin_1*%
%TO.N,+9V*%
X181610000Y-43180000D03*
D13*
%TO.P,J2,2,Pin_2*%
%TO.N,GND*%
X181610000Y-40640000D03*
%TO.P,J2,3,Pin_3*%
%TO.N,+5V*%
X181610000Y-38100000D03*
%TD*%
D14*
%TO.N,GND*%
X183134000Y-50419000D03*
X180721000Y-75946000D03*
X189484000Y-55499000D03*
X179578000Y-74803000D03*
X185420000Y-61341000D03*
X191389000Y-68453000D03*
X188214000Y-52959000D03*
X189484000Y-50419000D03*
X184404000Y-55499000D03*
X189484000Y-47879000D03*
X185674000Y-49149000D03*
X188214000Y-47879000D03*
X181864000Y-51689000D03*
X188214000Y-49149000D03*
X181864000Y-50419000D03*
X185674000Y-55499000D03*
X189357000Y-68453000D03*
X181864000Y-55499000D03*
X180721000Y-74803000D03*
X179578000Y-73660000D03*
X185420000Y-62611000D03*
X181864000Y-74803000D03*
X181864000Y-73660000D03*
X186944000Y-49149000D03*
X186944000Y-55499000D03*
X185420000Y-58801000D03*
X183134000Y-49149000D03*
X180721000Y-73660000D03*
X183134000Y-54229000D03*
X181864000Y-75946000D03*
X186944000Y-50419000D03*
X188214000Y-50419000D03*
X186944000Y-52959000D03*
X188214000Y-54229000D03*
X185674000Y-51689000D03*
X186944000Y-54229000D03*
X184404000Y-52959000D03*
X183134000Y-47879000D03*
X184404000Y-47879000D03*
X185674000Y-54229000D03*
X181864000Y-47879000D03*
X189484000Y-51689000D03*
X181864000Y-54229000D03*
X185420000Y-57658000D03*
X183134000Y-52959000D03*
X184404000Y-54229000D03*
X184404000Y-50419000D03*
X185420000Y-60071000D03*
X181864000Y-49149000D03*
X185674000Y-52959000D03*
X186944000Y-47879000D03*
X183134000Y-55499000D03*
X189484000Y-49149000D03*
X185674000Y-47879000D03*
X183134000Y-51689000D03*
X186944000Y-51689000D03*
X189484000Y-52959000D03*
X181864000Y-52959000D03*
X190373000Y-68453000D03*
X185674000Y-50419000D03*
X179578000Y-75946000D03*
X189484000Y-54229000D03*
X184404000Y-49149000D03*
X188214000Y-51689000D03*
X184404000Y-51689000D03*
X188214000Y-55499000D03*
%TD*%
%TA.AperFunction,Conductor*%
%TO.N,GND*%
G36*
X190504042Y-34790765D02*
G01*
X190526774Y-34792254D01*
X190758114Y-34807417D01*
X190774172Y-34809532D01*
X191019888Y-34858408D01*
X191035554Y-34862606D01*
X191186736Y-34913925D01*
X191272788Y-34943136D01*
X191287765Y-34949339D01*
X191505336Y-35056633D01*
X191512460Y-35060146D01*
X191526508Y-35068256D01*
X191734815Y-35207443D01*
X191747679Y-35217314D01*
X191936033Y-35382497D01*
X191947502Y-35393966D01*
X192112685Y-35582320D01*
X192122559Y-35595188D01*
X192261743Y-35803492D01*
X192269853Y-35817539D01*
X192380657Y-36042227D01*
X192386864Y-36057213D01*
X192467393Y-36294445D01*
X192471591Y-36310111D01*
X192520465Y-36555813D01*
X192522583Y-36571895D01*
X192539235Y-36825956D01*
X192539500Y-36834066D01*
X192539500Y-77465933D01*
X192539235Y-77474043D01*
X192522583Y-77728104D01*
X192520465Y-77744186D01*
X192471591Y-77989888D01*
X192467393Y-78005554D01*
X192386864Y-78242786D01*
X192380657Y-78257772D01*
X192269853Y-78482460D01*
X192261743Y-78496507D01*
X192122559Y-78704811D01*
X192112685Y-78717679D01*
X191947502Y-78906033D01*
X191936033Y-78917502D01*
X191747679Y-79082685D01*
X191734811Y-79092559D01*
X191526507Y-79231743D01*
X191512460Y-79239853D01*
X191287772Y-79350657D01*
X191272786Y-79356864D01*
X191035554Y-79437393D01*
X191019888Y-79441591D01*
X190774186Y-79490465D01*
X190758104Y-79492583D01*
X190504043Y-79509235D01*
X190495933Y-79509500D01*
X180344067Y-79509500D01*
X180335957Y-79509235D01*
X180081895Y-79492583D01*
X180065814Y-79490465D01*
X180030770Y-79483494D01*
X179820111Y-79441591D01*
X179804445Y-79437393D01*
X179567213Y-79356864D01*
X179552227Y-79350657D01*
X179327539Y-79239853D01*
X179313492Y-79231743D01*
X179105188Y-79092559D01*
X179092320Y-79082685D01*
X178903966Y-78917502D01*
X178892497Y-78906033D01*
X178727314Y-78717679D01*
X178717440Y-78704811D01*
X178578256Y-78496507D01*
X178570146Y-78482460D01*
X178459464Y-78258019D01*
X178459339Y-78257765D01*
X178453135Y-78242786D01*
X178372606Y-78005554D01*
X178368408Y-77989888D01*
X178359736Y-77946292D01*
X178319532Y-77744172D01*
X178317417Y-77728114D01*
X178300765Y-77474042D01*
X178300500Y-77465933D01*
X178300500Y-74929995D01*
X183614953Y-74929995D01*
X183614953Y-74930004D01*
X183635113Y-75199026D01*
X183635113Y-75199028D01*
X183695142Y-75462033D01*
X183695148Y-75462052D01*
X183793709Y-75713181D01*
X183793708Y-75713181D01*
X183928602Y-75946822D01*
X183982294Y-76014151D01*
X183982295Y-76014151D01*
X184704153Y-75292293D01*
X184711049Y-75308942D01*
X184798599Y-75439970D01*
X184910030Y-75551401D01*
X185041058Y-75638951D01*
X185057705Y-75645846D01*
X184334848Y-76368702D01*
X184517483Y-76493220D01*
X184517485Y-76493221D01*
X184760539Y-76610269D01*
X184760537Y-76610269D01*
X185018337Y-76689790D01*
X185018343Y-76689792D01*
X185285101Y-76729999D01*
X185285110Y-76730000D01*
X185554890Y-76730000D01*
X185554898Y-76729999D01*
X185821656Y-76689792D01*
X185821662Y-76689790D01*
X186079461Y-76610269D01*
X186322521Y-76493218D01*
X186505150Y-76368702D01*
X185782294Y-75645846D01*
X185798942Y-75638951D01*
X185929970Y-75551401D01*
X186041401Y-75439970D01*
X186128951Y-75308942D01*
X186135846Y-75292294D01*
X186857703Y-76014151D01*
X186857704Y-76014150D01*
X186911393Y-75946828D01*
X186911400Y-75946817D01*
X187046290Y-75713181D01*
X187144851Y-75462052D01*
X187144857Y-75462033D01*
X187204886Y-75199028D01*
X187204886Y-75199026D01*
X187225047Y-74930004D01*
X187225047Y-74929995D01*
X187204886Y-74660973D01*
X187204886Y-74660971D01*
X187144857Y-74397966D01*
X187144851Y-74397947D01*
X187046290Y-74146818D01*
X187046291Y-74146818D01*
X186911397Y-73913177D01*
X186857704Y-73845847D01*
X186135846Y-74567705D01*
X186128951Y-74551058D01*
X186041401Y-74420030D01*
X185929970Y-74308599D01*
X185798942Y-74221049D01*
X185782294Y-74214153D01*
X186505150Y-73491296D01*
X186322517Y-73366779D01*
X186322516Y-73366778D01*
X186079460Y-73249730D01*
X186079462Y-73249730D01*
X185821662Y-73170209D01*
X185821656Y-73170207D01*
X185554898Y-73130000D01*
X185285101Y-73130000D01*
X185018343Y-73170207D01*
X185018337Y-73170209D01*
X184760538Y-73249730D01*
X184517485Y-73366778D01*
X184517476Y-73366783D01*
X184334848Y-73491296D01*
X185057705Y-74214153D01*
X185041058Y-74221049D01*
X184910030Y-74308599D01*
X184798599Y-74420030D01*
X184711049Y-74551058D01*
X184704153Y-74567706D01*
X183982295Y-73845848D01*
X183928600Y-73913180D01*
X183793709Y-74146818D01*
X183695148Y-74397947D01*
X183695142Y-74397966D01*
X183635113Y-74660971D01*
X183635113Y-74660973D01*
X183614953Y-74929995D01*
X178300500Y-74929995D01*
X178300500Y-71929995D01*
X188314953Y-71929995D01*
X188314953Y-71930004D01*
X188335113Y-72199026D01*
X188335113Y-72199028D01*
X188395142Y-72462033D01*
X188395148Y-72462052D01*
X188493709Y-72713181D01*
X188493708Y-72713181D01*
X188628602Y-72946822D01*
X188682294Y-73014151D01*
X189404152Y-72292292D01*
X189411049Y-72308942D01*
X189498599Y-72439970D01*
X189610030Y-72551401D01*
X189741058Y-72638951D01*
X189757705Y-72645846D01*
X189034848Y-73368702D01*
X189217483Y-73493220D01*
X189217485Y-73493221D01*
X189460539Y-73610269D01*
X189460537Y-73610269D01*
X189718337Y-73689790D01*
X189718343Y-73689792D01*
X189985101Y-73729999D01*
X189985110Y-73730000D01*
X190254890Y-73730000D01*
X190254898Y-73729999D01*
X190521656Y-73689792D01*
X190521662Y-73689790D01*
X190779461Y-73610269D01*
X191022521Y-73493218D01*
X191205150Y-73368702D01*
X190482294Y-72645846D01*
X190498942Y-72638951D01*
X190629970Y-72551401D01*
X190741401Y-72439970D01*
X190828951Y-72308942D01*
X190835846Y-72292294D01*
X191557703Y-73014151D01*
X191557704Y-73014150D01*
X191611393Y-72946828D01*
X191611400Y-72946817D01*
X191746290Y-72713181D01*
X191844851Y-72462052D01*
X191844857Y-72462033D01*
X191904886Y-72199028D01*
X191904886Y-72199026D01*
X191925047Y-71930004D01*
X191925047Y-71929995D01*
X191904886Y-71660973D01*
X191904886Y-71660971D01*
X191844857Y-71397966D01*
X191844851Y-71397947D01*
X191746290Y-71146818D01*
X191746291Y-71146818D01*
X191611397Y-70913177D01*
X191557704Y-70845847D01*
X190835846Y-71567705D01*
X190828951Y-71551058D01*
X190741401Y-71420030D01*
X190629970Y-71308599D01*
X190498942Y-71221049D01*
X190482294Y-71214153D01*
X191205150Y-70491296D01*
X191022517Y-70366779D01*
X191022516Y-70366778D01*
X190779460Y-70249730D01*
X190779462Y-70249730D01*
X190521662Y-70170209D01*
X190521656Y-70170207D01*
X190254898Y-70130000D01*
X189985101Y-70130000D01*
X189718343Y-70170207D01*
X189718337Y-70170209D01*
X189460538Y-70249730D01*
X189217485Y-70366778D01*
X189217476Y-70366783D01*
X189034848Y-70491296D01*
X189757705Y-71214153D01*
X189741058Y-71221049D01*
X189610030Y-71308599D01*
X189498599Y-71420030D01*
X189411049Y-71551058D01*
X189404153Y-71567706D01*
X188682295Y-70845848D01*
X188628600Y-70913180D01*
X188493709Y-71146818D01*
X188395148Y-71397947D01*
X188395142Y-71397966D01*
X188335113Y-71660971D01*
X188335113Y-71660973D01*
X188314953Y-71929995D01*
X178300500Y-71929995D01*
X178300500Y-67582135D01*
X183619500Y-67582135D01*
X183619500Y-70277870D01*
X183619501Y-70277876D01*
X183625908Y-70337483D01*
X183676202Y-70472328D01*
X183676206Y-70472335D01*
X183762452Y-70587544D01*
X183762455Y-70587547D01*
X183877664Y-70673793D01*
X183877671Y-70673797D01*
X184012517Y-70724091D01*
X184012516Y-70724091D01*
X184019444Y-70724835D01*
X184072127Y-70730500D01*
X186767872Y-70730499D01*
X186827483Y-70724091D01*
X186962331Y-70673796D01*
X187077546Y-70587546D01*
X187163796Y-70472331D01*
X187214091Y-70337483D01*
X187220500Y-70277873D01*
X187220499Y-67582128D01*
X187214091Y-67522517D01*
X187163796Y-67387669D01*
X187163795Y-67387668D01*
X187163793Y-67387664D01*
X187077547Y-67272455D01*
X187077544Y-67272452D01*
X186962335Y-67186206D01*
X186962328Y-67186202D01*
X186827482Y-67135908D01*
X186827483Y-67135908D01*
X186767883Y-67129501D01*
X186767881Y-67129500D01*
X186767873Y-67129500D01*
X186767864Y-67129500D01*
X184072129Y-67129500D01*
X184072123Y-67129501D01*
X184012516Y-67135908D01*
X183877671Y-67186202D01*
X183877664Y-67186206D01*
X183762455Y-67272452D01*
X183762452Y-67272455D01*
X183676206Y-67387664D01*
X183676202Y-67387671D01*
X183625908Y-67522517D01*
X183619501Y-67582116D01*
X183619501Y-67582123D01*
X183619500Y-67582135D01*
X178300500Y-67582135D01*
X178300500Y-38099999D01*
X180254341Y-38099999D01*
X180254341Y-38100000D01*
X180274936Y-38335403D01*
X180274938Y-38335413D01*
X180336094Y-38563655D01*
X180336096Y-38563659D01*
X180336097Y-38563663D01*
X180435965Y-38777830D01*
X180435967Y-38777834D01*
X180571501Y-38971395D01*
X180571506Y-38971402D01*
X180738597Y-39138493D01*
X180738603Y-39138498D01*
X180924594Y-39268730D01*
X180968219Y-39323307D01*
X180975413Y-39392805D01*
X180943890Y-39455160D01*
X180924595Y-39471880D01*
X180738922Y-39601890D01*
X180738920Y-39601891D01*
X180571891Y-39768920D01*
X180571886Y-39768926D01*
X180436400Y-39962420D01*
X180436399Y-39962422D01*
X180336570Y-40176507D01*
X180336567Y-40176513D01*
X180279364Y-40389999D01*
X180279364Y-40390000D01*
X181176988Y-40390000D01*
X181144075Y-40447007D01*
X181110000Y-40574174D01*
X181110000Y-40705826D01*
X181144075Y-40832993D01*
X181176988Y-40890000D01*
X180279364Y-40890000D01*
X180336567Y-41103486D01*
X180336570Y-41103492D01*
X180436399Y-41317578D01*
X180571894Y-41511082D01*
X180693946Y-41633134D01*
X180727431Y-41694457D01*
X180722447Y-41764149D01*
X180680575Y-41820082D01*
X180649598Y-41836997D01*
X180517671Y-41886202D01*
X180517664Y-41886206D01*
X180402455Y-41972452D01*
X180402452Y-41972455D01*
X180316206Y-42087664D01*
X180316202Y-42087671D01*
X180265908Y-42222517D01*
X180259501Y-42282116D01*
X180259501Y-42282123D01*
X180259500Y-42282135D01*
X180259500Y-44077870D01*
X180259501Y-44077876D01*
X180265908Y-44137483D01*
X180316202Y-44272328D01*
X180316206Y-44272335D01*
X180402452Y-44387544D01*
X180402455Y-44387547D01*
X180517664Y-44473793D01*
X180517671Y-44473797D01*
X180652517Y-44524091D01*
X180652516Y-44524091D01*
X180659444Y-44524835D01*
X180712127Y-44530500D01*
X182507872Y-44530499D01*
X182567483Y-44524091D01*
X182702331Y-44473796D01*
X182817546Y-44387546D01*
X182903796Y-44272331D01*
X182954091Y-44137483D01*
X182960500Y-44077873D01*
X182960499Y-42282128D01*
X182954091Y-42222517D01*
X182903796Y-42087669D01*
X182903795Y-42087668D01*
X182903793Y-42087664D01*
X182817547Y-41972455D01*
X182817544Y-41972452D01*
X182702335Y-41886206D01*
X182702328Y-41886202D01*
X182570401Y-41836997D01*
X182514467Y-41795126D01*
X182490050Y-41729662D01*
X182504902Y-41661389D01*
X182526053Y-41633133D01*
X182648108Y-41511078D01*
X182783600Y-41317578D01*
X182883429Y-41103492D01*
X182883432Y-41103486D01*
X182940636Y-40890000D01*
X182043012Y-40890000D01*
X182075925Y-40832993D01*
X182110000Y-40705826D01*
X182110000Y-40574174D01*
X182075925Y-40447007D01*
X182043012Y-40390000D01*
X182940636Y-40390000D01*
X182940635Y-40389999D01*
X182883432Y-40176513D01*
X182883429Y-40176507D01*
X182783600Y-39962422D01*
X182783599Y-39962420D01*
X182648113Y-39768926D01*
X182648108Y-39768920D01*
X182481078Y-39601890D01*
X182295405Y-39471879D01*
X182251780Y-39417302D01*
X182244588Y-39347804D01*
X182276110Y-39285449D01*
X182295406Y-39268730D01*
X182481401Y-39138495D01*
X182648495Y-38971401D01*
X182784035Y-38777830D01*
X182883903Y-38563663D01*
X182945063Y-38335408D01*
X182965659Y-38100000D01*
X182965659Y-38099999D01*
X187874341Y-38099999D01*
X187874341Y-38100000D01*
X187894936Y-38335403D01*
X187894938Y-38335413D01*
X187956094Y-38563655D01*
X187956096Y-38563659D01*
X187956097Y-38563663D01*
X188055965Y-38777830D01*
X188055967Y-38777834D01*
X188191501Y-38971395D01*
X188191506Y-38971402D01*
X188358597Y-39138493D01*
X188358603Y-39138498D01*
X188544594Y-39268730D01*
X188588219Y-39323307D01*
X188595413Y-39392805D01*
X188563890Y-39455160D01*
X188544595Y-39471880D01*
X188358922Y-39601890D01*
X188358920Y-39601891D01*
X188191891Y-39768920D01*
X188191886Y-39768926D01*
X188056400Y-39962420D01*
X188056399Y-39962422D01*
X187956570Y-40176507D01*
X187956567Y-40176513D01*
X187899364Y-40389999D01*
X187899364Y-40390000D01*
X188796988Y-40390000D01*
X188764075Y-40447007D01*
X188730000Y-40574174D01*
X188730000Y-40705826D01*
X188764075Y-40832993D01*
X188796988Y-40890000D01*
X187899364Y-40890000D01*
X187956567Y-41103486D01*
X187956570Y-41103492D01*
X188056399Y-41317578D01*
X188191894Y-41511082D01*
X188313946Y-41633134D01*
X188347431Y-41694457D01*
X188342447Y-41764149D01*
X188300575Y-41820082D01*
X188269598Y-41836997D01*
X188137671Y-41886202D01*
X188137664Y-41886206D01*
X188022455Y-41972452D01*
X188022452Y-41972455D01*
X187936206Y-42087664D01*
X187936202Y-42087671D01*
X187885908Y-42222517D01*
X187879501Y-42282116D01*
X187879501Y-42282123D01*
X187879500Y-42282135D01*
X187879500Y-44077870D01*
X187879501Y-44077876D01*
X187885908Y-44137483D01*
X187936202Y-44272328D01*
X187936206Y-44272335D01*
X188022452Y-44387544D01*
X188022455Y-44387547D01*
X188137664Y-44473793D01*
X188137671Y-44473797D01*
X188272517Y-44524091D01*
X188272516Y-44524091D01*
X188279444Y-44524835D01*
X188332127Y-44530500D01*
X190127872Y-44530499D01*
X190187483Y-44524091D01*
X190322331Y-44473796D01*
X190437546Y-44387546D01*
X190523796Y-44272331D01*
X190574091Y-44137483D01*
X190580500Y-44077873D01*
X190580499Y-42282128D01*
X190574091Y-42222517D01*
X190523796Y-42087669D01*
X190523795Y-42087668D01*
X190523793Y-42087664D01*
X190437547Y-41972455D01*
X190437544Y-41972452D01*
X190322335Y-41886206D01*
X190322328Y-41886202D01*
X190190401Y-41836997D01*
X190134467Y-41795126D01*
X190110050Y-41729662D01*
X190124902Y-41661389D01*
X190146053Y-41633133D01*
X190268108Y-41511078D01*
X190403600Y-41317578D01*
X190503429Y-41103492D01*
X190503432Y-41103486D01*
X190560636Y-40890000D01*
X189663012Y-40890000D01*
X189695925Y-40832993D01*
X189730000Y-40705826D01*
X189730000Y-40574174D01*
X189695925Y-40447007D01*
X189663012Y-40390000D01*
X190560636Y-40390000D01*
X190560635Y-40389999D01*
X190503432Y-40176513D01*
X190503429Y-40176507D01*
X190403600Y-39962422D01*
X190403599Y-39962420D01*
X190268113Y-39768926D01*
X190268108Y-39768920D01*
X190101078Y-39601890D01*
X189915405Y-39471879D01*
X189871780Y-39417302D01*
X189864588Y-39347804D01*
X189896110Y-39285449D01*
X189915406Y-39268730D01*
X190101401Y-39138495D01*
X190268495Y-38971401D01*
X190404035Y-38777830D01*
X190503903Y-38563663D01*
X190565063Y-38335408D01*
X190585659Y-38100000D01*
X190565063Y-37864592D01*
X190503903Y-37636337D01*
X190404035Y-37422171D01*
X190268495Y-37228599D01*
X190268494Y-37228597D01*
X190101402Y-37061506D01*
X190101395Y-37061501D01*
X189907834Y-36925967D01*
X189907830Y-36925965D01*
X189907828Y-36925964D01*
X189693663Y-36826097D01*
X189693659Y-36826096D01*
X189693655Y-36826094D01*
X189465413Y-36764938D01*
X189465403Y-36764936D01*
X189230001Y-36744341D01*
X189229999Y-36744341D01*
X188994596Y-36764936D01*
X188994586Y-36764938D01*
X188766344Y-36826094D01*
X188766335Y-36826098D01*
X188552171Y-36925964D01*
X188552169Y-36925965D01*
X188358597Y-37061505D01*
X188191505Y-37228597D01*
X188055965Y-37422169D01*
X188055964Y-37422171D01*
X187956098Y-37636335D01*
X187956094Y-37636344D01*
X187894938Y-37864586D01*
X187894936Y-37864596D01*
X187874341Y-38099999D01*
X182965659Y-38099999D01*
X182945063Y-37864592D01*
X182883903Y-37636337D01*
X182784035Y-37422171D01*
X182648495Y-37228599D01*
X182648494Y-37228597D01*
X182481402Y-37061506D01*
X182481395Y-37061501D01*
X182287834Y-36925967D01*
X182287830Y-36925965D01*
X182287828Y-36925964D01*
X182073663Y-36826097D01*
X182073659Y-36826096D01*
X182073655Y-36826094D01*
X181845413Y-36764938D01*
X181845403Y-36764936D01*
X181610001Y-36744341D01*
X181609999Y-36744341D01*
X181374596Y-36764936D01*
X181374586Y-36764938D01*
X181146344Y-36826094D01*
X181146335Y-36826098D01*
X180932171Y-36925964D01*
X180932169Y-36925965D01*
X180738597Y-37061505D01*
X180571505Y-37228597D01*
X180435965Y-37422169D01*
X180435964Y-37422171D01*
X180336098Y-37636335D01*
X180336094Y-37636344D01*
X180274938Y-37864586D01*
X180274936Y-37864596D01*
X180254341Y-38099999D01*
X178300500Y-38099999D01*
X178300500Y-36834066D01*
X178300765Y-36825957D01*
X178306114Y-36744341D01*
X178317417Y-36571883D01*
X178319531Y-36555829D01*
X178368409Y-36310107D01*
X178372606Y-36294445D01*
X178396197Y-36224945D01*
X178453138Y-36057205D01*
X178459336Y-36042239D01*
X178570149Y-35817533D01*
X178578252Y-35803498D01*
X178717448Y-35595176D01*
X178727305Y-35582331D01*
X178892502Y-35393960D01*
X178903960Y-35382502D01*
X179092331Y-35217305D01*
X179105176Y-35207448D01*
X179313498Y-35068252D01*
X179327533Y-35060149D01*
X179552239Y-34949336D01*
X179567205Y-34943138D01*
X179734945Y-34886197D01*
X179804445Y-34862606D01*
X179820107Y-34858409D01*
X180065829Y-34809531D01*
X180081883Y-34807417D01*
X180314848Y-34792148D01*
X180335958Y-34790765D01*
X180344067Y-34790500D01*
X180405892Y-34790500D01*
X190434108Y-34790500D01*
X190495933Y-34790500D01*
X190504042Y-34790765D01*
G37*
%TD.AperFunction*%
%TD*%
M02*
