%TF.GenerationSoftware,KiCad,Pcbnew,8.0.4*%
%TF.CreationDate,2024-12-13T10:45:08-05:00*%
%TF.ProjectId,BarrelJackAdapter,42617272-656c-44a6-9163-6b4164617074,rev?*%
%TF.SameCoordinates,Original*%
%TF.FileFunction,Copper,L1,Top*%
%TF.FilePolarity,Positive*%
%FSLAX46Y46*%
G04 Gerber Fmt 4.6, Leading zero omitted, Abs format (unit mm)*
G04 Created by KiCad (PCBNEW 8.0.4) date 2024-12-13 10:45:08*
%MOMM*%
%LPD*%
G01*
G04 APERTURE LIST*
G04 Aperture macros list*
%AMRoundRect*
0 Rectangle with rounded corners*
0 $1 Rounding radius*
0 $2 $3 $4 $5 $6 $7 $8 $9 X,Y pos of 4 corners*
0 Add a 4 corners polygon primitive as box body*
4,1,4,$2,$3,$4,$5,$6,$7,$8,$9,$2,$3,0*
0 Add four circle primitives for the rounded corners*
1,1,$1+$1,$2,$3*
1,1,$1+$1,$4,$5*
1,1,$1+$1,$6,$7*
1,1,$1+$1,$8,$9*
0 Add four rect primitives between the rounded corners*
20,1,$1+$1,$2,$3,$4,$5,0*
20,1,$1+$1,$4,$5,$6,$7,0*
20,1,$1+$1,$6,$7,$8,$9,0*
20,1,$1+$1,$8,$9,$2,$3,0*%
G04 Aperture macros list end*
%TA.AperFunction,ComponentPad*%
%ADD10R,2.600000X2.600000*%
%TD*%
%TA.AperFunction,ComponentPad*%
%ADD11C,2.600000*%
%TD*%
%TA.AperFunction,SMDPad,CuDef*%
%ADD12RoundRect,0.225000X0.225000X0.250000X-0.225000X0.250000X-0.225000X-0.250000X0.225000X-0.250000X0*%
%TD*%
%TA.AperFunction,ComponentPad*%
%ADD13R,1.700000X1.700000*%
%TD*%
%TA.AperFunction,ComponentPad*%
%ADD14O,1.700000X1.700000*%
%TD*%
%TA.AperFunction,SMDPad,CuDef*%
%ADD15RoundRect,0.225000X-0.225000X-0.250000X0.225000X-0.250000X0.225000X0.250000X-0.225000X0.250000X0*%
%TD*%
%TA.AperFunction,SMDPad,CuDef*%
%ADD16RoundRect,0.250000X0.300000X-2.050000X0.300000X2.050000X-0.300000X2.050000X-0.300000X-2.050000X0*%
%TD*%
%TA.AperFunction,SMDPad,CuDef*%
%ADD17RoundRect,0.250000X2.375000X-2.025000X2.375000X2.025000X-2.375000X2.025000X-2.375000X-2.025000X0*%
%TD*%
%TA.AperFunction,SMDPad,CuDef*%
%ADD18RoundRect,0.250002X5.149998X-4.449998X5.149998X4.449998X-5.149998X4.449998X-5.149998X-4.449998X0*%
%TD*%
%TA.AperFunction,ViaPad*%
%ADD19C,0.600000*%
%TD*%
G04 APERTURE END LIST*
D10*
%TO.P,J1,1*%
%TO.N,+9V*%
X185420000Y-68930000D03*
D11*
%TO.P,J1,2*%
%TO.N,GND*%
X185420000Y-74930000D03*
%TO.P,J1,3*%
X190120000Y-71930000D03*
%TD*%
D12*
%TO.P,C2,1*%
%TO.N,+5V*%
X188367000Y-65405000D03*
%TO.P,C2,2*%
%TO.N,GND*%
X186817000Y-65405000D03*
%TD*%
D13*
%TO.P,J4,1,Pin_1*%
%TO.N,+9V*%
X189230000Y-43180000D03*
D14*
%TO.P,J4,2,Pin_2*%
%TO.N,GND*%
X189230000Y-40640000D03*
%TO.P,J4,3,Pin_3*%
%TO.N,+5V*%
X189230000Y-38100000D03*
%TD*%
D13*
%TO.P,J2,1,Pin_1*%
%TO.N,+9V*%
X181610000Y-43180000D03*
D14*
%TO.P,J2,2,Pin_2*%
%TO.N,GND*%
X181610000Y-40640000D03*
%TO.P,J2,3,Pin_3*%
%TO.N,+5V*%
X181610000Y-38100000D03*
%TD*%
D15*
%TO.P,C1,1*%
%TO.N,+9V*%
X182232000Y-65405000D03*
%TO.P,C1,2*%
%TO.N,GND*%
X183782000Y-65405000D03*
%TD*%
D16*
%TO.P,U1,1,IN*%
%TO.N,+9V*%
X183007000Y-60706000D03*
D17*
%TO.P,U1,2,GND*%
%TO.N,GND*%
X182772000Y-53981000D03*
X188322000Y-53981000D03*
D18*
X185547000Y-51556000D03*
D17*
X182772000Y-49131000D03*
X188322000Y-49131000D03*
D16*
%TO.P,U1,3,OUT*%
%TO.N,+5V*%
X188087000Y-60706000D03*
%TD*%
D19*
%TO.N,GND*%
X183134000Y-50419000D03*
X180721000Y-75946000D03*
X189484000Y-55499000D03*
X179578000Y-74803000D03*
X185420000Y-61341000D03*
X191389000Y-68453000D03*
X188214000Y-52959000D03*
X189484000Y-50419000D03*
X184404000Y-55499000D03*
X189484000Y-47879000D03*
X185674000Y-49149000D03*
X188214000Y-47879000D03*
X181864000Y-51689000D03*
X188214000Y-49149000D03*
X181864000Y-50419000D03*
X185674000Y-55499000D03*
X189357000Y-68453000D03*
X181864000Y-55499000D03*
X180721000Y-74803000D03*
X179578000Y-73660000D03*
X185420000Y-62611000D03*
X181864000Y-74803000D03*
X181864000Y-73660000D03*
X186944000Y-49149000D03*
X186944000Y-55499000D03*
X185420000Y-58801000D03*
X183134000Y-49149000D03*
X180721000Y-73660000D03*
X183134000Y-54229000D03*
X181864000Y-75946000D03*
X186944000Y-50419000D03*
X188214000Y-50419000D03*
X186944000Y-52959000D03*
X188214000Y-54229000D03*
X185674000Y-51689000D03*
X186944000Y-54229000D03*
X184404000Y-52959000D03*
X183134000Y-47879000D03*
X184404000Y-47879000D03*
X185674000Y-54229000D03*
X181864000Y-47879000D03*
X189484000Y-51689000D03*
X181864000Y-54229000D03*
X185420000Y-57658000D03*
X183134000Y-52959000D03*
X184404000Y-54229000D03*
X184404000Y-50419000D03*
X185420000Y-60071000D03*
X181864000Y-49149000D03*
X185674000Y-52959000D03*
X186944000Y-47879000D03*
X183134000Y-55499000D03*
X189484000Y-49149000D03*
X185674000Y-47879000D03*
X183134000Y-51689000D03*
X186944000Y-51689000D03*
X189484000Y-52959000D03*
X181864000Y-52959000D03*
X190373000Y-68453000D03*
X185674000Y-50419000D03*
X179578000Y-75946000D03*
X189484000Y-54229000D03*
X184404000Y-49149000D03*
X188214000Y-51689000D03*
X184404000Y-51689000D03*
X188214000Y-55499000D03*
%TD*%
%TA.AperFunction,Conductor*%
%TO.N,GND*%
G36*
X192482539Y-67200185D02*
G01*
X192528294Y-67252989D01*
X192539500Y-67304500D01*
X192539500Y-77465933D01*
X192539235Y-77474043D01*
X192522583Y-77728104D01*
X192520465Y-77744186D01*
X192471591Y-77989888D01*
X192467393Y-78005554D01*
X192386864Y-78242786D01*
X192380657Y-78257772D01*
X192269853Y-78482460D01*
X192261743Y-78496507D01*
X192122559Y-78704811D01*
X192112685Y-78717679D01*
X191947502Y-78906033D01*
X191936033Y-78917502D01*
X191747679Y-79082685D01*
X191734811Y-79092559D01*
X191526507Y-79231743D01*
X191512460Y-79239853D01*
X191287772Y-79350657D01*
X191272786Y-79356864D01*
X191035554Y-79437393D01*
X191019888Y-79441591D01*
X190774186Y-79490465D01*
X190758104Y-79492583D01*
X190504043Y-79509235D01*
X190495933Y-79509500D01*
X180344067Y-79509500D01*
X180335957Y-79509235D01*
X180081895Y-79492583D01*
X180065814Y-79490465D01*
X180030770Y-79483494D01*
X179820111Y-79441591D01*
X179804445Y-79437393D01*
X179567213Y-79356864D01*
X179552227Y-79350657D01*
X179327539Y-79239853D01*
X179313492Y-79231743D01*
X179105188Y-79092559D01*
X179092320Y-79082685D01*
X178903966Y-78917502D01*
X178892497Y-78906033D01*
X178727314Y-78717679D01*
X178717440Y-78704811D01*
X178578256Y-78496507D01*
X178570146Y-78482460D01*
X178459464Y-78258019D01*
X178459339Y-78257765D01*
X178453135Y-78242786D01*
X178372606Y-78005554D01*
X178368408Y-77989888D01*
X178359736Y-77946292D01*
X178319532Y-77744172D01*
X178317417Y-77728114D01*
X178300765Y-77474042D01*
X178300500Y-77465933D01*
X178300500Y-74929995D01*
X183614953Y-74929995D01*
X183614953Y-74930004D01*
X183635113Y-75199026D01*
X183635113Y-75199028D01*
X183695142Y-75462033D01*
X183695148Y-75462052D01*
X183793709Y-75713181D01*
X183793708Y-75713181D01*
X183928602Y-75946822D01*
X183982294Y-76014151D01*
X183982295Y-76014151D01*
X184704153Y-75292293D01*
X184711049Y-75308942D01*
X184798599Y-75439970D01*
X184910030Y-75551401D01*
X185041058Y-75638951D01*
X185057705Y-75645846D01*
X184334848Y-76368702D01*
X184517483Y-76493220D01*
X184517485Y-76493221D01*
X184760539Y-76610269D01*
X184760537Y-76610269D01*
X185018337Y-76689790D01*
X185018343Y-76689792D01*
X185285101Y-76729999D01*
X185285110Y-76730000D01*
X185554890Y-76730000D01*
X185554898Y-76729999D01*
X185821656Y-76689792D01*
X185821662Y-76689790D01*
X186079461Y-76610269D01*
X186322521Y-76493218D01*
X186505150Y-76368702D01*
X185782294Y-75645846D01*
X185798942Y-75638951D01*
X185929970Y-75551401D01*
X186041401Y-75439970D01*
X186128951Y-75308942D01*
X186135846Y-75292294D01*
X186857703Y-76014151D01*
X186857704Y-76014150D01*
X186911393Y-75946828D01*
X186911400Y-75946817D01*
X187046290Y-75713181D01*
X187144851Y-75462052D01*
X187144857Y-75462033D01*
X187204886Y-75199028D01*
X187204886Y-75199026D01*
X187225047Y-74930004D01*
X187225047Y-74929995D01*
X187204886Y-74660973D01*
X187204886Y-74660971D01*
X187144857Y-74397966D01*
X187144851Y-74397947D01*
X187046290Y-74146818D01*
X187046291Y-74146818D01*
X186911397Y-73913177D01*
X186857704Y-73845847D01*
X186135846Y-74567705D01*
X186128951Y-74551058D01*
X186041401Y-74420030D01*
X185929970Y-74308599D01*
X185798942Y-74221049D01*
X185782294Y-74214153D01*
X186505150Y-73491296D01*
X186322517Y-73366779D01*
X186322516Y-73366778D01*
X186079460Y-73249730D01*
X186079462Y-73249730D01*
X185821662Y-73170209D01*
X185821656Y-73170207D01*
X185554898Y-73130000D01*
X185285101Y-73130000D01*
X185018343Y-73170207D01*
X185018337Y-73170209D01*
X184760538Y-73249730D01*
X184517485Y-73366778D01*
X184517476Y-73366783D01*
X184334848Y-73491296D01*
X185057705Y-74214153D01*
X185041058Y-74221049D01*
X184910030Y-74308599D01*
X184798599Y-74420030D01*
X184711049Y-74551058D01*
X184704153Y-74567706D01*
X183982295Y-73845848D01*
X183928600Y-73913180D01*
X183793709Y-74146818D01*
X183695148Y-74397947D01*
X183695142Y-74397966D01*
X183635113Y-74660971D01*
X183635113Y-74660973D01*
X183614953Y-74929995D01*
X178300500Y-74929995D01*
X178300500Y-72384500D01*
X178320185Y-72317461D01*
X178372989Y-72271706D01*
X178424500Y-72260500D01*
X186638640Y-72260500D01*
X186648786Y-72259955D01*
X186692678Y-72257603D01*
X186692686Y-72257602D01*
X186692688Y-72257602D01*
X186692689Y-72257602D01*
X186699682Y-72256849D01*
X186719036Y-72254769D01*
X186719046Y-72254767D01*
X186719049Y-72254767D01*
X186728648Y-72253211D01*
X186772448Y-72246114D01*
X186907257Y-72195832D01*
X186968580Y-72162347D01*
X187083762Y-72076123D01*
X187229890Y-71929995D01*
X188314953Y-71929995D01*
X188314953Y-71930004D01*
X188335113Y-72199026D01*
X188335113Y-72199028D01*
X188395142Y-72462033D01*
X188395148Y-72462052D01*
X188493709Y-72713181D01*
X188493708Y-72713181D01*
X188628602Y-72946822D01*
X188682294Y-73014151D01*
X189404152Y-72292292D01*
X189411049Y-72308942D01*
X189498599Y-72439970D01*
X189610030Y-72551401D01*
X189741058Y-72638951D01*
X189757705Y-72645846D01*
X189034848Y-73368702D01*
X189217483Y-73493220D01*
X189217485Y-73493221D01*
X189460539Y-73610269D01*
X189460537Y-73610269D01*
X189718337Y-73689790D01*
X189718343Y-73689792D01*
X189985101Y-73729999D01*
X189985110Y-73730000D01*
X190254890Y-73730000D01*
X190254898Y-73729999D01*
X190521656Y-73689792D01*
X190521662Y-73689790D01*
X190779461Y-73610269D01*
X191022521Y-73493218D01*
X191205150Y-73368702D01*
X190482294Y-72645846D01*
X190498942Y-72638951D01*
X190629970Y-72551401D01*
X190741401Y-72439970D01*
X190828951Y-72308942D01*
X190835846Y-72292294D01*
X191557703Y-73014151D01*
X191557704Y-73014150D01*
X191611393Y-72946828D01*
X191611400Y-72946817D01*
X191746290Y-72713181D01*
X191844851Y-72462052D01*
X191844857Y-72462033D01*
X191904886Y-72199028D01*
X191904886Y-72199026D01*
X191925047Y-71930004D01*
X191925047Y-71929995D01*
X191904886Y-71660973D01*
X191904886Y-71660971D01*
X191844857Y-71397966D01*
X191844851Y-71397947D01*
X191746290Y-71146818D01*
X191746291Y-71146818D01*
X191611397Y-70913177D01*
X191557704Y-70845847D01*
X190835846Y-71567705D01*
X190828951Y-71551058D01*
X190741401Y-71420030D01*
X190629970Y-71308599D01*
X190498942Y-71221049D01*
X190482294Y-71214153D01*
X191205150Y-70491296D01*
X191022517Y-70366779D01*
X191022516Y-70366778D01*
X190779460Y-70249730D01*
X190779462Y-70249730D01*
X190521662Y-70170209D01*
X190521656Y-70170207D01*
X190254898Y-70130000D01*
X189985101Y-70130000D01*
X189718343Y-70170207D01*
X189718337Y-70170209D01*
X189460538Y-70249730D01*
X189217485Y-70366778D01*
X189217476Y-70366783D01*
X189034848Y-70491296D01*
X189757705Y-71214153D01*
X189741058Y-71221049D01*
X189610030Y-71308599D01*
X189498599Y-71420030D01*
X189411049Y-71551058D01*
X189404153Y-71567706D01*
X188682295Y-70845848D01*
X188628600Y-70913180D01*
X188493709Y-71146818D01*
X188395148Y-71397947D01*
X188395142Y-71397966D01*
X188335113Y-71660971D01*
X188335113Y-71660973D01*
X188314953Y-71929995D01*
X187229890Y-71929995D01*
X187901670Y-71258214D01*
X187932979Y-71223885D01*
X187947535Y-71206372D01*
X187975563Y-71169308D01*
X188039270Y-71040301D01*
X188057823Y-70983534D01*
X188060336Y-70977549D01*
X188060976Y-70973889D01*
X188060977Y-70973888D01*
X188080748Y-70860803D01*
X188085756Y-70832165D01*
X188085757Y-70832153D01*
X188192769Y-67300744D01*
X188214475Y-67234332D01*
X188268641Y-67190197D01*
X188316712Y-67180500D01*
X192415500Y-67180500D01*
X192482539Y-67200185D01*
G37*
%TD.AperFunction*%
%TA.AperFunction,Conductor*%
G36*
X190740853Y-46831978D02*
G01*
X190771388Y-46857462D01*
X190801530Y-46882618D01*
X190837659Y-46904902D01*
X190860244Y-46922760D01*
X190880238Y-46942754D01*
X190898096Y-46965339D01*
X190912946Y-46989415D01*
X190925112Y-47015506D01*
X190935469Y-47046760D01*
X190941121Y-47073150D01*
X190941356Y-47075448D01*
X190941999Y-47088063D01*
X190941999Y-51206014D01*
X190942000Y-54049745D01*
X190942000Y-56023925D01*
X190941356Y-56036544D01*
X190941120Y-56038851D01*
X190935470Y-56065236D01*
X190925113Y-56096491D01*
X190912946Y-56122583D01*
X190898096Y-56146659D01*
X190880238Y-56169244D01*
X190860247Y-56189235D01*
X190837664Y-56207092D01*
X190801542Y-56229373D01*
X190801538Y-56229375D01*
X190712778Y-56298892D01*
X190673562Y-56337390D01*
X190673557Y-56337396D01*
X190662663Y-56350788D01*
X190602433Y-56424825D01*
X190602432Y-56424826D01*
X190602432Y-56424827D01*
X190542658Y-56555708D01*
X190541116Y-56559846D01*
X190540142Y-56559482D01*
X190504955Y-56614222D01*
X190441396Y-56643240D01*
X190423763Y-56644500D01*
X186560000Y-56644500D01*
X186559991Y-56644500D01*
X186559990Y-56644501D01*
X186452549Y-56656052D01*
X186452537Y-56656054D01*
X186401027Y-56667260D01*
X186298502Y-56701383D01*
X186298496Y-56701386D01*
X186177462Y-56779171D01*
X186177451Y-56779179D01*
X186124659Y-56824923D01*
X186030433Y-56933664D01*
X186030430Y-56933668D01*
X185970664Y-57064534D01*
X185950976Y-57131582D01*
X185930500Y-57274001D01*
X185930500Y-63788750D01*
X185931684Y-63823322D01*
X185932846Y-63840260D01*
X185936393Y-63874675D01*
X185936394Y-63874677D01*
X185976120Y-64012964D01*
X186004772Y-64076688D01*
X186081850Y-64198181D01*
X186190034Y-64293038D01*
X186190036Y-64293039D01*
X186190041Y-64293043D01*
X186248582Y-64331151D01*
X186248590Y-64331156D01*
X186379115Y-64391691D01*
X187236436Y-64648887D01*
X187294988Y-64687002D01*
X187302750Y-64697069D01*
X187368710Y-64792336D01*
X187403820Y-64820705D01*
X187443593Y-64878149D01*
X187445996Y-64947977D01*
X187443594Y-64956158D01*
X187426651Y-65007288D01*
X187416500Y-65106647D01*
X187416500Y-65703337D01*
X187416501Y-65703355D01*
X187426650Y-65802707D01*
X187426651Y-65802710D01*
X187443493Y-65853535D01*
X187445895Y-65923364D01*
X187410163Y-65983405D01*
X187406989Y-65986253D01*
X187394655Y-65996939D01*
X187300433Y-66105676D01*
X187295636Y-66113140D01*
X187294431Y-66112365D01*
X187254901Y-66157983D01*
X187187861Y-66177665D01*
X187170221Y-66176403D01*
X187122206Y-66169500D01*
X187122204Y-66169500D01*
X183548442Y-66169500D01*
X183481403Y-66149815D01*
X183442904Y-66110598D01*
X183384821Y-66016432D01*
X183384818Y-66016428D01*
X183340048Y-65962787D01*
X183233075Y-65866572D01*
X183233071Y-65866568D01*
X183232102Y-65865920D01*
X183231354Y-65865024D01*
X183226481Y-65860641D01*
X183227111Y-65859940D01*
X183187334Y-65812277D01*
X183177706Y-65750264D01*
X183182500Y-65703345D01*
X183182499Y-65106656D01*
X183176988Y-65052705D01*
X183189758Y-64984013D01*
X183233305Y-64935789D01*
X183265543Y-64915072D01*
X183318347Y-64869317D01*
X183367674Y-64812390D01*
X183419003Y-64777062D01*
X184495127Y-64385747D01*
X184513905Y-64378492D01*
X184523040Y-64374752D01*
X184541504Y-64366760D01*
X184647303Y-64298766D01*
X184662537Y-64288976D01*
X184662537Y-64288975D01*
X184662543Y-64288972D01*
X184715347Y-64243217D01*
X184809567Y-64134483D01*
X184869338Y-64003606D01*
X184889023Y-63936567D01*
X184889024Y-63936563D01*
X184909500Y-63794147D01*
X184909500Y-57401000D01*
X184897947Y-57293544D01*
X184886741Y-57242033D01*
X184886637Y-57241722D01*
X184852616Y-57139502D01*
X184852613Y-57139496D01*
X184774828Y-57018462D01*
X184774825Y-57018457D01*
X184774820Y-57018451D01*
X184729076Y-56965659D01*
X184729072Y-56965656D01*
X184729070Y-56965653D01*
X184620336Y-56871433D01*
X184620333Y-56871431D01*
X184620331Y-56871430D01*
X184489465Y-56811664D01*
X184489460Y-56811662D01*
X184489459Y-56811662D01*
X184422420Y-56791977D01*
X184422422Y-56791977D01*
X184422417Y-56791976D01*
X184333409Y-56779179D01*
X184280000Y-56771500D01*
X184279998Y-56771500D01*
X180586896Y-56771500D01*
X180519857Y-56751815D01*
X180474102Y-56699011D01*
X180463074Y-56654137D01*
X180461603Y-56626690D01*
X180461178Y-56622741D01*
X180458770Y-56600345D01*
X180458767Y-56600318D01*
X180454845Y-56576119D01*
X180450114Y-56546920D01*
X180399832Y-56412111D01*
X180366347Y-56350788D01*
X180280123Y-56235607D01*
X180213757Y-56169241D01*
X180195904Y-56146662D01*
X180181051Y-56122582D01*
X180168885Y-56096493D01*
X180158525Y-56065230D01*
X180152872Y-56038802D01*
X180152636Y-56036484D01*
X180152000Y-56023943D01*
X180152000Y-47088057D01*
X180152642Y-47075457D01*
X180152876Y-47073166D01*
X180158525Y-47046771D01*
X180168886Y-47015504D01*
X180181051Y-46989418D01*
X180195902Y-46965341D01*
X180213760Y-46942756D01*
X180259699Y-46896818D01*
X180321022Y-46863334D01*
X180347379Y-46860500D01*
X190378490Y-46860500D01*
X190378500Y-46860500D01*
X190485956Y-46848947D01*
X190537467Y-46837741D01*
X190622241Y-46809524D01*
X190692065Y-46807030D01*
X190740853Y-46831978D01*
G37*
%TD.AperFunction*%
%TD*%
%TA.AperFunction,Conductor*%
%TO.N,+9V*%
G36*
X183068172Y-41018500D02*
G01*
X183068176Y-41018500D01*
X187771829Y-41018500D01*
X187771829Y-41018499D01*
X187826184Y-41013847D01*
X187894658Y-41027742D01*
X187944750Y-41076451D01*
X187953846Y-41098713D01*
X187954243Y-41098569D01*
X187956095Y-41103656D01*
X187956097Y-41103663D01*
X187957500Y-41106671D01*
X188055965Y-41317830D01*
X188055967Y-41317834D01*
X188164281Y-41472521D01*
X188191501Y-41511396D01*
X188191506Y-41511402D01*
X188313818Y-41633714D01*
X188347303Y-41695037D01*
X188342319Y-41764729D01*
X188300447Y-41820662D01*
X188269471Y-41837577D01*
X188137912Y-41886646D01*
X188137906Y-41886649D01*
X188022812Y-41972809D01*
X188022809Y-41972812D01*
X187936649Y-42087906D01*
X187936645Y-42087913D01*
X187886403Y-42222620D01*
X187886401Y-42222627D01*
X187880000Y-42282155D01*
X187880000Y-42930000D01*
X188796988Y-42930000D01*
X188764075Y-42987007D01*
X188730000Y-43114174D01*
X188730000Y-43245826D01*
X188764075Y-43372993D01*
X188796988Y-43430000D01*
X187880000Y-43430000D01*
X187880000Y-44077844D01*
X187886401Y-44137372D01*
X187886403Y-44137379D01*
X187936645Y-44272086D01*
X187936649Y-44272093D01*
X188022809Y-44387187D01*
X188022812Y-44387190D01*
X188137906Y-44473350D01*
X188137913Y-44473354D01*
X188272620Y-44523596D01*
X188272627Y-44523598D01*
X188332155Y-44529999D01*
X188332172Y-44530000D01*
X188980000Y-44530000D01*
X188980000Y-43613012D01*
X189037007Y-43645925D01*
X189164174Y-43680000D01*
X189295826Y-43680000D01*
X189422993Y-43645925D01*
X189480000Y-43613012D01*
X189480000Y-44530000D01*
X190127828Y-44530000D01*
X190127844Y-44529999D01*
X190187372Y-44523598D01*
X190187379Y-44523596D01*
X190330399Y-44470254D01*
X190331186Y-44472366D01*
X190387337Y-44460147D01*
X190452803Y-44484559D01*
X190494678Y-44540490D01*
X190502500Y-44583832D01*
X190502500Y-46231000D01*
X190482815Y-46298039D01*
X190430011Y-46343794D01*
X190378500Y-46355000D01*
X179959000Y-46355000D01*
X179959000Y-46431270D01*
X179939315Y-46498309D01*
X179922681Y-46518951D01*
X179804289Y-46637342D01*
X179712185Y-46786667D01*
X179710949Y-46790400D01*
X179710942Y-46790422D01*
X179657001Y-46953204D01*
X179657000Y-46953205D01*
X179646500Y-47055985D01*
X179646500Y-56056001D01*
X179646501Y-56056018D01*
X179657000Y-56158796D01*
X179657001Y-56158799D01*
X179712185Y-56325331D01*
X179712187Y-56325336D01*
X179804289Y-56474657D01*
X179922681Y-56593049D01*
X179956166Y-56654372D01*
X179959000Y-56680730D01*
X179959000Y-57277000D01*
X184280000Y-57277000D01*
X184347039Y-57296685D01*
X184392794Y-57349489D01*
X184404000Y-57401000D01*
X184404000Y-63794147D01*
X184384315Y-63861186D01*
X184331511Y-63906941D01*
X184322376Y-63910681D01*
X183007000Y-64388998D01*
X183007000Y-64420247D01*
X182987315Y-64487286D01*
X182934511Y-64533041D01*
X182865353Y-64542985D01*
X182817903Y-64525786D01*
X182765486Y-64493454D01*
X182765481Y-64493452D01*
X182604606Y-64440144D01*
X182505322Y-64430000D01*
X182482000Y-64430000D01*
X182482000Y-66379999D01*
X182505308Y-66379999D01*
X182505322Y-66379998D01*
X182604607Y-66369855D01*
X182765481Y-66316547D01*
X182765487Y-66316544D01*
X182817902Y-66284214D01*
X182885294Y-66265773D01*
X182951958Y-66286695D01*
X182996728Y-66340336D01*
X183007000Y-66389752D01*
X183007000Y-66675000D01*
X187122204Y-66675000D01*
X187189243Y-66694685D01*
X187234998Y-66747489D01*
X187239858Y-66759841D01*
X187257383Y-66812497D01*
X187257386Y-66812503D01*
X187335171Y-66933537D01*
X187335179Y-66933548D01*
X187380923Y-66986340D01*
X187380926Y-66986343D01*
X187380930Y-66986347D01*
X187489664Y-67080567D01*
X187615998Y-67138263D01*
X187668802Y-67184018D01*
X187688486Y-67251058D01*
X187688429Y-67254813D01*
X187580489Y-70816847D01*
X187558783Y-70883259D01*
X187544227Y-70900772D01*
X186726319Y-71718681D01*
X186664996Y-71752166D01*
X186638638Y-71755000D01*
X178424500Y-71755000D01*
X178357461Y-71735315D01*
X178311706Y-71682511D01*
X178300500Y-71631000D01*
X178300500Y-67582155D01*
X183620000Y-67582155D01*
X183620000Y-68680000D01*
X184657639Y-68680000D01*
X184650743Y-68696649D01*
X184620000Y-68851207D01*
X184620000Y-69008793D01*
X184650743Y-69163351D01*
X184657639Y-69180000D01*
X183620000Y-69180000D01*
X183620000Y-70277844D01*
X183626401Y-70337372D01*
X183626403Y-70337379D01*
X183676645Y-70472086D01*
X183676649Y-70472093D01*
X183762809Y-70587187D01*
X183762812Y-70587190D01*
X183877906Y-70673350D01*
X183877913Y-70673354D01*
X184012620Y-70723596D01*
X184012627Y-70723598D01*
X184072155Y-70729999D01*
X184072172Y-70730000D01*
X185170000Y-70730000D01*
X185170000Y-69692360D01*
X185186649Y-69699257D01*
X185341207Y-69730000D01*
X185498793Y-69730000D01*
X185653351Y-69699257D01*
X185670000Y-69692360D01*
X185670000Y-70730000D01*
X186767828Y-70730000D01*
X186767844Y-70729999D01*
X186827372Y-70723598D01*
X186827379Y-70723596D01*
X186962086Y-70673354D01*
X186962093Y-70673350D01*
X187077187Y-70587190D01*
X187077190Y-70587187D01*
X187163350Y-70472093D01*
X187163354Y-70472086D01*
X187213596Y-70337379D01*
X187213598Y-70337372D01*
X187219999Y-70277844D01*
X187220000Y-70277827D01*
X187220000Y-69180000D01*
X186182361Y-69180000D01*
X186189257Y-69163351D01*
X186220000Y-69008793D01*
X186220000Y-68851207D01*
X186189257Y-68696649D01*
X186182361Y-68680000D01*
X187220000Y-68680000D01*
X187220000Y-67582172D01*
X187219999Y-67582155D01*
X187213598Y-67522627D01*
X187213596Y-67522620D01*
X187163354Y-67387913D01*
X187163350Y-67387906D01*
X187077190Y-67272812D01*
X187077187Y-67272809D01*
X186962093Y-67186649D01*
X186962086Y-67186645D01*
X186827379Y-67136403D01*
X186827372Y-67136401D01*
X186767844Y-67130000D01*
X185670000Y-67130000D01*
X185670000Y-68167639D01*
X185653351Y-68160743D01*
X185498793Y-68130000D01*
X185341207Y-68130000D01*
X185186649Y-68160743D01*
X185170000Y-68167639D01*
X185170000Y-67130000D01*
X184072155Y-67130000D01*
X184012627Y-67136401D01*
X184012620Y-67136403D01*
X183877913Y-67186645D01*
X183877906Y-67186649D01*
X183762812Y-67272809D01*
X183762809Y-67272812D01*
X183676649Y-67387906D01*
X183676645Y-67387913D01*
X183626403Y-67522620D01*
X183626401Y-67522627D01*
X183620000Y-67582155D01*
X178300500Y-67582155D01*
X178300500Y-65703322D01*
X181282001Y-65703322D01*
X181292144Y-65802607D01*
X181345452Y-65963481D01*
X181345457Y-65963492D01*
X181434424Y-66107728D01*
X181434427Y-66107732D01*
X181554267Y-66227572D01*
X181554271Y-66227575D01*
X181698507Y-66316542D01*
X181698518Y-66316547D01*
X181859393Y-66369855D01*
X181958683Y-66379999D01*
X181982000Y-66379998D01*
X181982000Y-65655000D01*
X181282001Y-65655000D01*
X181282001Y-65703322D01*
X178300500Y-65703322D01*
X178300500Y-65106677D01*
X181282000Y-65106677D01*
X181282000Y-65155000D01*
X181982000Y-65155000D01*
X181982000Y-64429999D01*
X181958693Y-64430000D01*
X181958674Y-64430001D01*
X181859392Y-64440144D01*
X181698518Y-64493452D01*
X181698507Y-64493457D01*
X181554271Y-64582424D01*
X181554267Y-64582427D01*
X181434427Y-64702267D01*
X181434424Y-64702271D01*
X181345457Y-64846507D01*
X181345452Y-64846518D01*
X181292144Y-65007393D01*
X181282000Y-65106677D01*
X178300500Y-65106677D01*
X178300500Y-62805986D01*
X181957001Y-62805986D01*
X181967494Y-62908697D01*
X182022641Y-63075119D01*
X182022643Y-63075124D01*
X182114684Y-63224345D01*
X182238654Y-63348315D01*
X182387875Y-63440356D01*
X182387880Y-63440358D01*
X182554302Y-63495505D01*
X182554309Y-63495506D01*
X182657019Y-63505999D01*
X183257000Y-63505999D01*
X183356972Y-63505999D01*
X183356986Y-63505998D01*
X183459697Y-63495505D01*
X183626119Y-63440358D01*
X183626124Y-63440356D01*
X183775345Y-63348315D01*
X183899315Y-63224345D01*
X183991356Y-63075124D01*
X183991358Y-63075119D01*
X184046505Y-62908697D01*
X184046506Y-62908690D01*
X184056999Y-62805986D01*
X184057000Y-62805973D01*
X184057000Y-60956000D01*
X183257000Y-60956000D01*
X183257000Y-63505999D01*
X182657019Y-63505999D01*
X182757000Y-63505998D01*
X182757000Y-60956000D01*
X181957001Y-60956000D01*
X181957001Y-62805986D01*
X178300500Y-62805986D01*
X178300500Y-58606013D01*
X181957000Y-58606013D01*
X181957000Y-60456000D01*
X182757000Y-60456000D01*
X183257000Y-60456000D01*
X184056999Y-60456000D01*
X184056999Y-58606028D01*
X184056998Y-58606013D01*
X184046505Y-58503302D01*
X183991358Y-58336880D01*
X183991356Y-58336875D01*
X183899315Y-58187654D01*
X183775345Y-58063684D01*
X183626124Y-57971643D01*
X183626119Y-57971641D01*
X183459697Y-57916494D01*
X183459690Y-57916493D01*
X183356986Y-57906000D01*
X183257000Y-57906000D01*
X183257000Y-60456000D01*
X182757000Y-60456000D01*
X182757000Y-57905999D01*
X182657028Y-57906000D01*
X182657012Y-57906001D01*
X182554302Y-57916494D01*
X182387880Y-57971641D01*
X182387875Y-57971643D01*
X182238654Y-58063684D01*
X182114684Y-58187654D01*
X182022643Y-58336875D01*
X182022641Y-58336880D01*
X181967494Y-58503302D01*
X181967493Y-58503309D01*
X181957000Y-58606013D01*
X178300500Y-58606013D01*
X178300500Y-41142500D01*
X178320185Y-41075461D01*
X178372989Y-41029706D01*
X178424500Y-41018500D01*
X180151829Y-41018500D01*
X180151829Y-41018499D01*
X180206184Y-41013847D01*
X180274658Y-41027742D01*
X180324750Y-41076451D01*
X180333846Y-41098713D01*
X180334243Y-41098569D01*
X180336095Y-41103656D01*
X180336097Y-41103663D01*
X180337500Y-41106671D01*
X180435965Y-41317830D01*
X180435967Y-41317834D01*
X180544281Y-41472521D01*
X180571501Y-41511396D01*
X180571506Y-41511402D01*
X180693818Y-41633714D01*
X180727303Y-41695037D01*
X180722319Y-41764729D01*
X180680447Y-41820662D01*
X180649471Y-41837577D01*
X180517912Y-41886646D01*
X180517906Y-41886649D01*
X180402812Y-41972809D01*
X180402809Y-41972812D01*
X180316649Y-42087906D01*
X180316645Y-42087913D01*
X180266403Y-42222620D01*
X180266401Y-42222627D01*
X180260000Y-42282155D01*
X180260000Y-42930000D01*
X181176988Y-42930000D01*
X181144075Y-42987007D01*
X181110000Y-43114174D01*
X181110000Y-43245826D01*
X181144075Y-43372993D01*
X181176988Y-43430000D01*
X180260000Y-43430000D01*
X180260000Y-44077844D01*
X180266401Y-44137372D01*
X180266403Y-44137379D01*
X180316645Y-44272086D01*
X180316649Y-44272093D01*
X180402809Y-44387187D01*
X180402812Y-44387190D01*
X180517906Y-44473350D01*
X180517913Y-44473354D01*
X180652620Y-44523596D01*
X180652627Y-44523598D01*
X180712155Y-44529999D01*
X180712172Y-44530000D01*
X181360000Y-44530000D01*
X181360000Y-43613012D01*
X181417007Y-43645925D01*
X181544174Y-43680000D01*
X181675826Y-43680000D01*
X181802993Y-43645925D01*
X181860000Y-43613012D01*
X181860000Y-44530000D01*
X182507828Y-44530000D01*
X182507844Y-44529999D01*
X182567372Y-44523598D01*
X182567379Y-44523596D01*
X182702086Y-44473354D01*
X182702093Y-44473350D01*
X182817187Y-44387190D01*
X182817190Y-44387187D01*
X182903350Y-44272093D01*
X182903354Y-44272086D01*
X182953596Y-44137379D01*
X182953598Y-44137372D01*
X182959999Y-44077844D01*
X182960000Y-44077827D01*
X182960000Y-43430000D01*
X182043012Y-43430000D01*
X182075925Y-43372993D01*
X182110000Y-43245826D01*
X182110000Y-43114174D01*
X182075925Y-42987007D01*
X182043012Y-42930000D01*
X182960000Y-42930000D01*
X182960000Y-42282172D01*
X182959999Y-42282155D01*
X182953598Y-42222627D01*
X182953596Y-42222620D01*
X182903354Y-42087913D01*
X182903350Y-42087906D01*
X182817190Y-41972812D01*
X182817187Y-41972809D01*
X182702093Y-41886649D01*
X182702088Y-41886646D01*
X182570528Y-41837577D01*
X182514595Y-41795705D01*
X182490178Y-41730241D01*
X182505030Y-41661968D01*
X182526175Y-41633720D01*
X182648495Y-41511401D01*
X182784035Y-41317830D01*
X182883903Y-41103663D01*
X182884223Y-41102467D01*
X182884508Y-41101999D01*
X182885756Y-41098572D01*
X182886444Y-41098822D01*
X182920581Y-41042804D01*
X182983424Y-41012267D01*
X183021641Y-41011810D01*
X183068172Y-41018500D01*
G37*
%TD.AperFunction*%
%TD*%
%TA.AperFunction,Conductor*%
%TO.N,+5V*%
G36*
X190504042Y-34790765D02*
G01*
X190526774Y-34792254D01*
X190758114Y-34807417D01*
X190774172Y-34809532D01*
X191019888Y-34858408D01*
X191035554Y-34862606D01*
X191186736Y-34913925D01*
X191272788Y-34943136D01*
X191287765Y-34949339D01*
X191505336Y-35056633D01*
X191512460Y-35060146D01*
X191526508Y-35068256D01*
X191734815Y-35207443D01*
X191747679Y-35217314D01*
X191936033Y-35382497D01*
X191947502Y-35393966D01*
X192112685Y-35582320D01*
X192122559Y-35595188D01*
X192261743Y-35803492D01*
X192269853Y-35817539D01*
X192380657Y-36042227D01*
X192386864Y-36057213D01*
X192467393Y-36294445D01*
X192471591Y-36310111D01*
X192520465Y-36555813D01*
X192522583Y-36571895D01*
X192539235Y-36825956D01*
X192539500Y-36834066D01*
X192539500Y-66551000D01*
X192519815Y-66618039D01*
X192467011Y-66663794D01*
X192415500Y-66675000D01*
X189992000Y-66675000D01*
X187830000Y-66675000D01*
X187762961Y-66655315D01*
X187717206Y-66602511D01*
X187706000Y-66551000D01*
X187706000Y-66446012D01*
X187725685Y-66378973D01*
X187778489Y-66333218D01*
X187847647Y-66323274D01*
X187869004Y-66328306D01*
X187994393Y-66369855D01*
X188093683Y-66379999D01*
X188617000Y-66379999D01*
X188640308Y-66379999D01*
X188640322Y-66379998D01*
X188739607Y-66369855D01*
X188900481Y-66316547D01*
X188900492Y-66316542D01*
X189044728Y-66227575D01*
X189044732Y-66227572D01*
X189164572Y-66107732D01*
X189164575Y-66107728D01*
X189253542Y-65963492D01*
X189253547Y-65963481D01*
X189306855Y-65802606D01*
X189316999Y-65703322D01*
X189317000Y-65703309D01*
X189317000Y-65655000D01*
X188617000Y-65655000D01*
X188617000Y-66379999D01*
X188093683Y-66379999D01*
X188117000Y-66379998D01*
X188117000Y-65155000D01*
X188617000Y-65155000D01*
X189316999Y-65155000D01*
X189316999Y-65106692D01*
X189316998Y-65106677D01*
X189306855Y-65007392D01*
X189253547Y-64846518D01*
X189253542Y-64846507D01*
X189164575Y-64702271D01*
X189164572Y-64702267D01*
X189044732Y-64582427D01*
X189044728Y-64582424D01*
X188900492Y-64493457D01*
X188900481Y-64493452D01*
X188739606Y-64440144D01*
X188640322Y-64430000D01*
X188617000Y-64430000D01*
X188617000Y-65155000D01*
X188117000Y-65155000D01*
X188117000Y-64429999D01*
X188093693Y-64430000D01*
X188093674Y-64430001D01*
X187994391Y-64440144D01*
X187869003Y-64481693D01*
X187799175Y-64484094D01*
X187739133Y-64448363D01*
X187707941Y-64385842D01*
X187706000Y-64363987D01*
X187706000Y-64261999D01*
X186524369Y-63907510D01*
X186465813Y-63869392D01*
X186437161Y-63805668D01*
X186436000Y-63788740D01*
X186436000Y-62805986D01*
X187037001Y-62805986D01*
X187047494Y-62908697D01*
X187102641Y-63075119D01*
X187102643Y-63075124D01*
X187194684Y-63224345D01*
X187318654Y-63348315D01*
X187467875Y-63440356D01*
X187467880Y-63440358D01*
X187634302Y-63495505D01*
X187634309Y-63495506D01*
X187737019Y-63505999D01*
X188337000Y-63505999D01*
X188436972Y-63505999D01*
X188436986Y-63505998D01*
X188539697Y-63495505D01*
X188706119Y-63440358D01*
X188706124Y-63440356D01*
X188855345Y-63348315D01*
X188979315Y-63224345D01*
X189071356Y-63075124D01*
X189071358Y-63075119D01*
X189126505Y-62908697D01*
X189126506Y-62908690D01*
X189136999Y-62805986D01*
X189137000Y-62805973D01*
X189137000Y-60956000D01*
X188337000Y-60956000D01*
X188337000Y-63505999D01*
X187737019Y-63505999D01*
X187837000Y-63505998D01*
X187837000Y-60956000D01*
X187037001Y-60956000D01*
X187037001Y-62805986D01*
X186436000Y-62805986D01*
X186436000Y-58606013D01*
X187037000Y-58606013D01*
X187037000Y-60456000D01*
X187837000Y-60456000D01*
X188337000Y-60456000D01*
X189136999Y-60456000D01*
X189136999Y-58606028D01*
X189136998Y-58606013D01*
X189126505Y-58503302D01*
X189071358Y-58336880D01*
X189071356Y-58336875D01*
X188979315Y-58187654D01*
X188855345Y-58063684D01*
X188706124Y-57971643D01*
X188706119Y-57971641D01*
X188539697Y-57916494D01*
X188539690Y-57916493D01*
X188436986Y-57906000D01*
X188337000Y-57906000D01*
X188337000Y-60456000D01*
X187837000Y-60456000D01*
X187837000Y-57905999D01*
X187737028Y-57906000D01*
X187737012Y-57906001D01*
X187634302Y-57916494D01*
X187467880Y-57971641D01*
X187467875Y-57971643D01*
X187318654Y-58063684D01*
X187194684Y-58187654D01*
X187102643Y-58336875D01*
X187102641Y-58336880D01*
X187047494Y-58503302D01*
X187047493Y-58503309D01*
X187037000Y-58606013D01*
X186436000Y-58606013D01*
X186436000Y-57274000D01*
X186455685Y-57206961D01*
X186508489Y-57161206D01*
X186560000Y-57150000D01*
X191008000Y-57150000D01*
X191008000Y-56765161D01*
X191027685Y-56698122D01*
X191066903Y-56659622D01*
X191165656Y-56598712D01*
X191289712Y-56474656D01*
X191381814Y-56325334D01*
X191436999Y-56158797D01*
X191447500Y-56056009D01*
X191447500Y-54049745D01*
X191447499Y-51206014D01*
X191447500Y-51206009D01*
X191447499Y-47055992D01*
X191436999Y-46953203D01*
X191381814Y-46786666D01*
X191289712Y-46637344D01*
X191165656Y-46513288D01*
X191066903Y-46452377D01*
X191020179Y-46400429D01*
X191008000Y-46346838D01*
X191008000Y-40513000D01*
X190688172Y-40513000D01*
X190621133Y-40493315D01*
X190575378Y-40440511D01*
X190567260Y-40409699D01*
X190566002Y-40409921D01*
X190565063Y-40404602D01*
X190565063Y-40404592D01*
X190503903Y-40176337D01*
X190404035Y-39962171D01*
X190268495Y-39768599D01*
X190268494Y-39768597D01*
X190101402Y-39601506D01*
X190101401Y-39601505D01*
X189915405Y-39471269D01*
X189871781Y-39416692D01*
X189864588Y-39347193D01*
X189896110Y-39284839D01*
X189915405Y-39268119D01*
X190101082Y-39138105D01*
X190268105Y-38971082D01*
X190403600Y-38777578D01*
X190503429Y-38563492D01*
X190503432Y-38563486D01*
X190560636Y-38350000D01*
X189663012Y-38350000D01*
X189695925Y-38292993D01*
X189730000Y-38165826D01*
X189730000Y-38034174D01*
X189695925Y-37907007D01*
X189663012Y-37850000D01*
X190560636Y-37850000D01*
X190560635Y-37849999D01*
X190503432Y-37636513D01*
X190503429Y-37636507D01*
X190403600Y-37422422D01*
X190403599Y-37422420D01*
X190268113Y-37228926D01*
X190268108Y-37228920D01*
X190101082Y-37061894D01*
X189907578Y-36926399D01*
X189693492Y-36826570D01*
X189693486Y-36826567D01*
X189480000Y-36769364D01*
X189480000Y-37666988D01*
X189422993Y-37634075D01*
X189295826Y-37600000D01*
X189164174Y-37600000D01*
X189037007Y-37634075D01*
X188980000Y-37666988D01*
X188980000Y-36769364D01*
X188979999Y-36769364D01*
X188766513Y-36826567D01*
X188766507Y-36826570D01*
X188552422Y-36926399D01*
X188552420Y-36926400D01*
X188358926Y-37061886D01*
X188358920Y-37061891D01*
X188191891Y-37228920D01*
X188191886Y-37228926D01*
X188056400Y-37422420D01*
X188056399Y-37422422D01*
X187956570Y-37636507D01*
X187956567Y-37636513D01*
X187899364Y-37849999D01*
X187899364Y-37850000D01*
X188796988Y-37850000D01*
X188764075Y-37907007D01*
X188730000Y-38034174D01*
X188730000Y-38165826D01*
X188764075Y-38292993D01*
X188796988Y-38350000D01*
X187899364Y-38350000D01*
X187956567Y-38563486D01*
X187956570Y-38563492D01*
X188056399Y-38777578D01*
X188191894Y-38971082D01*
X188358917Y-39138105D01*
X188544595Y-39268119D01*
X188588219Y-39322696D01*
X188595412Y-39392195D01*
X188563890Y-39454549D01*
X188544595Y-39471269D01*
X188358594Y-39601508D01*
X188191505Y-39768597D01*
X188055965Y-39962169D01*
X188055964Y-39962171D01*
X187956098Y-40176335D01*
X187956094Y-40176344D01*
X187894938Y-40404586D01*
X187893998Y-40409921D01*
X187891556Y-40409490D01*
X187869938Y-40464831D01*
X187813366Y-40505836D01*
X187771828Y-40513000D01*
X183068172Y-40513000D01*
X183001133Y-40493315D01*
X182955378Y-40440511D01*
X182947260Y-40409699D01*
X182946002Y-40409921D01*
X182945063Y-40404602D01*
X182945063Y-40404592D01*
X182883903Y-40176337D01*
X182784035Y-39962171D01*
X182648495Y-39768599D01*
X182648494Y-39768597D01*
X182481402Y-39601506D01*
X182481401Y-39601505D01*
X182295405Y-39471269D01*
X182251781Y-39416692D01*
X182244588Y-39347193D01*
X182276110Y-39284839D01*
X182295405Y-39268119D01*
X182481082Y-39138105D01*
X182648105Y-38971082D01*
X182783600Y-38777578D01*
X182883429Y-38563492D01*
X182883432Y-38563486D01*
X182940636Y-38350000D01*
X182043012Y-38350000D01*
X182075925Y-38292993D01*
X182110000Y-38165826D01*
X182110000Y-38034174D01*
X182075925Y-37907007D01*
X182043012Y-37850000D01*
X182940636Y-37850000D01*
X182940635Y-37849999D01*
X182883432Y-37636513D01*
X182883429Y-37636507D01*
X182783600Y-37422422D01*
X182783599Y-37422420D01*
X182648113Y-37228926D01*
X182648108Y-37228920D01*
X182481082Y-37061894D01*
X182287578Y-36926399D01*
X182073492Y-36826570D01*
X182073486Y-36826567D01*
X181860000Y-36769364D01*
X181860000Y-37666988D01*
X181802993Y-37634075D01*
X181675826Y-37600000D01*
X181544174Y-37600000D01*
X181417007Y-37634075D01*
X181360000Y-37666988D01*
X181360000Y-36769364D01*
X181359999Y-36769364D01*
X181146513Y-36826567D01*
X181146507Y-36826570D01*
X180932422Y-36926399D01*
X180932420Y-36926400D01*
X180738926Y-37061886D01*
X180738920Y-37061891D01*
X180571891Y-37228920D01*
X180571886Y-37228926D01*
X180436400Y-37422420D01*
X180436399Y-37422422D01*
X180336570Y-37636507D01*
X180336567Y-37636513D01*
X180279364Y-37849999D01*
X180279364Y-37850000D01*
X181176988Y-37850000D01*
X181144075Y-37907007D01*
X181110000Y-38034174D01*
X181110000Y-38165826D01*
X181144075Y-38292993D01*
X181176988Y-38350000D01*
X180279364Y-38350000D01*
X180336567Y-38563486D01*
X180336570Y-38563492D01*
X180436399Y-38777578D01*
X180571894Y-38971082D01*
X180738917Y-39138105D01*
X180924595Y-39268119D01*
X180968219Y-39322696D01*
X180975412Y-39392195D01*
X180943890Y-39454549D01*
X180924595Y-39471269D01*
X180738594Y-39601508D01*
X180571505Y-39768597D01*
X180435965Y-39962169D01*
X180435964Y-39962171D01*
X180336098Y-40176335D01*
X180336094Y-40176344D01*
X180274938Y-40404586D01*
X180273998Y-40409921D01*
X180271556Y-40409490D01*
X180249938Y-40464831D01*
X180193366Y-40505836D01*
X180151828Y-40513000D01*
X178424500Y-40513000D01*
X178357461Y-40493315D01*
X178311706Y-40440511D01*
X178300500Y-40389000D01*
X178300500Y-36834066D01*
X178300765Y-36825957D01*
X178304819Y-36764108D01*
X178317417Y-36571883D01*
X178319531Y-36555829D01*
X178368409Y-36310107D01*
X178372606Y-36294445D01*
X178396197Y-36224945D01*
X178453138Y-36057205D01*
X178459336Y-36042239D01*
X178570149Y-35817533D01*
X178578252Y-35803498D01*
X178717448Y-35595176D01*
X178727305Y-35582331D01*
X178892502Y-35393960D01*
X178903960Y-35382502D01*
X179092331Y-35217305D01*
X179105176Y-35207448D01*
X179313498Y-35068252D01*
X179327533Y-35060149D01*
X179552239Y-34949336D01*
X179567205Y-34943138D01*
X179734945Y-34886197D01*
X179804445Y-34862606D01*
X179820107Y-34858409D01*
X180065829Y-34809531D01*
X180081883Y-34807417D01*
X180314848Y-34792148D01*
X180335958Y-34790765D01*
X180344067Y-34790500D01*
X180405892Y-34790500D01*
X190434108Y-34790500D01*
X190495933Y-34790500D01*
X190504042Y-34790765D01*
G37*
%TD.AperFunction*%
%TD*%
M02*
