%TF.GenerationSoftware,KiCad,Pcbnew,8.0.4*%
%TF.CreationDate,2024-12-13T10:45:08-05:00*%
%TF.ProjectId,BarrelJackAdapter,42617272-656c-44a6-9163-6b4164617074,rev?*%
%TF.SameCoordinates,Original*%
%TF.FileFunction,Legend,Bot*%
%TF.FilePolarity,Positive*%
%FSLAX46Y46*%
G04 Gerber Fmt 4.6, Leading zero omitted, Abs format (unit mm)*
G04 Created by KiCad (PCBNEW 8.0.4) date 2024-12-13 10:45:08*
%MOMM*%
%LPD*%
G01*
G04 APERTURE LIST*
%ADD10C,0.150000*%
%ADD11C,0.000000*%
G04 APERTURE END LIST*
D10*
X182603934Y-76799887D02*
X182556315Y-76657030D01*
X182556315Y-76657030D02*
X182508696Y-76609411D01*
X182508696Y-76609411D02*
X182413458Y-76561792D01*
X182413458Y-76561792D02*
X182270601Y-76561792D01*
X182270601Y-76561792D02*
X182175363Y-76609411D01*
X182175363Y-76609411D02*
X182127744Y-76657030D01*
X182127744Y-76657030D02*
X182080124Y-76752268D01*
X182080124Y-76752268D02*
X182080124Y-77133220D01*
X182080124Y-77133220D02*
X183080124Y-77133220D01*
X183080124Y-77133220D02*
X183080124Y-76799887D01*
X183080124Y-76799887D02*
X183032505Y-76704649D01*
X183032505Y-76704649D02*
X182984886Y-76657030D01*
X182984886Y-76657030D02*
X182889648Y-76609411D01*
X182889648Y-76609411D02*
X182794410Y-76609411D01*
X182794410Y-76609411D02*
X182699172Y-76657030D01*
X182699172Y-76657030D02*
X182651553Y-76704649D01*
X182651553Y-76704649D02*
X182603934Y-76799887D01*
X182603934Y-76799887D02*
X182603934Y-77133220D01*
X182080124Y-75704649D02*
X182603934Y-75704649D01*
X182603934Y-75704649D02*
X182699172Y-75752268D01*
X182699172Y-75752268D02*
X182746791Y-75847506D01*
X182746791Y-75847506D02*
X182746791Y-76037982D01*
X182746791Y-76037982D02*
X182699172Y-76133220D01*
X182127744Y-75704649D02*
X182080124Y-75799887D01*
X182080124Y-75799887D02*
X182080124Y-76037982D01*
X182080124Y-76037982D02*
X182127744Y-76133220D01*
X182127744Y-76133220D02*
X182222982Y-76180839D01*
X182222982Y-76180839D02*
X182318220Y-76180839D01*
X182318220Y-76180839D02*
X182413458Y-76133220D01*
X182413458Y-76133220D02*
X182461077Y-76037982D01*
X182461077Y-76037982D02*
X182461077Y-75799887D01*
X182461077Y-75799887D02*
X182508696Y-75704649D01*
X182080124Y-75228458D02*
X182746791Y-75228458D01*
X182556315Y-75228458D02*
X182651553Y-75180839D01*
X182651553Y-75180839D02*
X182699172Y-75133220D01*
X182699172Y-75133220D02*
X182746791Y-75037982D01*
X182746791Y-75037982D02*
X182746791Y-74942744D01*
X182080124Y-74609410D02*
X182746791Y-74609410D01*
X182556315Y-74609410D02*
X182651553Y-74561791D01*
X182651553Y-74561791D02*
X182699172Y-74514172D01*
X182699172Y-74514172D02*
X182746791Y-74418934D01*
X182746791Y-74418934D02*
X182746791Y-74323696D01*
X182127744Y-73609410D02*
X182080124Y-73704648D01*
X182080124Y-73704648D02*
X182080124Y-73895124D01*
X182080124Y-73895124D02*
X182127744Y-73990362D01*
X182127744Y-73990362D02*
X182222982Y-74037981D01*
X182222982Y-74037981D02*
X182603934Y-74037981D01*
X182603934Y-74037981D02*
X182699172Y-73990362D01*
X182699172Y-73990362D02*
X182746791Y-73895124D01*
X182746791Y-73895124D02*
X182746791Y-73704648D01*
X182746791Y-73704648D02*
X182699172Y-73609410D01*
X182699172Y-73609410D02*
X182603934Y-73561791D01*
X182603934Y-73561791D02*
X182508696Y-73561791D01*
X182508696Y-73561791D02*
X182413458Y-74037981D01*
X182080124Y-72990362D02*
X182127744Y-73085600D01*
X182127744Y-73085600D02*
X182222982Y-73133219D01*
X182222982Y-73133219D02*
X183080124Y-73133219D01*
X183080124Y-71561790D02*
X182365839Y-71561790D01*
X182365839Y-71561790D02*
X182222982Y-71609409D01*
X182222982Y-71609409D02*
X182127744Y-71704647D01*
X182127744Y-71704647D02*
X182080124Y-71847504D01*
X182080124Y-71847504D02*
X182080124Y-71942742D01*
X182080124Y-70657028D02*
X182603934Y-70657028D01*
X182603934Y-70657028D02*
X182699172Y-70704647D01*
X182699172Y-70704647D02*
X182746791Y-70799885D01*
X182746791Y-70799885D02*
X182746791Y-70990361D01*
X182746791Y-70990361D02*
X182699172Y-71085599D01*
X182127744Y-70657028D02*
X182080124Y-70752266D01*
X182080124Y-70752266D02*
X182080124Y-70990361D01*
X182080124Y-70990361D02*
X182127744Y-71085599D01*
X182127744Y-71085599D02*
X182222982Y-71133218D01*
X182222982Y-71133218D02*
X182318220Y-71133218D01*
X182318220Y-71133218D02*
X182413458Y-71085599D01*
X182413458Y-71085599D02*
X182461077Y-70990361D01*
X182461077Y-70990361D02*
X182461077Y-70752266D01*
X182461077Y-70752266D02*
X182508696Y-70657028D01*
X182127744Y-69752266D02*
X182080124Y-69847504D01*
X182080124Y-69847504D02*
X182080124Y-70037980D01*
X182080124Y-70037980D02*
X182127744Y-70133218D01*
X182127744Y-70133218D02*
X182175363Y-70180837D01*
X182175363Y-70180837D02*
X182270601Y-70228456D01*
X182270601Y-70228456D02*
X182556315Y-70228456D01*
X182556315Y-70228456D02*
X182651553Y-70180837D01*
X182651553Y-70180837D02*
X182699172Y-70133218D01*
X182699172Y-70133218D02*
X182746791Y-70037980D01*
X182746791Y-70037980D02*
X182746791Y-69847504D01*
X182746791Y-69847504D02*
X182699172Y-69752266D01*
X182080124Y-69323694D02*
X183080124Y-69323694D01*
X182461077Y-69228456D02*
X182080124Y-68942742D01*
X182746791Y-68942742D02*
X182365839Y-69323694D01*
X182365839Y-67799884D02*
X182365839Y-67323694D01*
X182080124Y-67895122D02*
X183080124Y-67561789D01*
X183080124Y-67561789D02*
X182080124Y-67228456D01*
X182080124Y-66466551D02*
X183080124Y-66466551D01*
X182127744Y-66466551D02*
X182080124Y-66561789D01*
X182080124Y-66561789D02*
X182080124Y-66752265D01*
X182080124Y-66752265D02*
X182127744Y-66847503D01*
X182127744Y-66847503D02*
X182175363Y-66895122D01*
X182175363Y-66895122D02*
X182270601Y-66942741D01*
X182270601Y-66942741D02*
X182556315Y-66942741D01*
X182556315Y-66942741D02*
X182651553Y-66895122D01*
X182651553Y-66895122D02*
X182699172Y-66847503D01*
X182699172Y-66847503D02*
X182746791Y-66752265D01*
X182746791Y-66752265D02*
X182746791Y-66561789D01*
X182746791Y-66561789D02*
X182699172Y-66466551D01*
X182080124Y-65561789D02*
X182603934Y-65561789D01*
X182603934Y-65561789D02*
X182699172Y-65609408D01*
X182699172Y-65609408D02*
X182746791Y-65704646D01*
X182746791Y-65704646D02*
X182746791Y-65895122D01*
X182746791Y-65895122D02*
X182699172Y-65990360D01*
X182127744Y-65561789D02*
X182080124Y-65657027D01*
X182080124Y-65657027D02*
X182080124Y-65895122D01*
X182080124Y-65895122D02*
X182127744Y-65990360D01*
X182127744Y-65990360D02*
X182222982Y-66037979D01*
X182222982Y-66037979D02*
X182318220Y-66037979D01*
X182318220Y-66037979D02*
X182413458Y-65990360D01*
X182413458Y-65990360D02*
X182461077Y-65895122D01*
X182461077Y-65895122D02*
X182461077Y-65657027D01*
X182461077Y-65657027D02*
X182508696Y-65561789D01*
X182746791Y-65085598D02*
X181746791Y-65085598D01*
X182699172Y-65085598D02*
X182746791Y-64990360D01*
X182746791Y-64990360D02*
X182746791Y-64799884D01*
X182746791Y-64799884D02*
X182699172Y-64704646D01*
X182699172Y-64704646D02*
X182651553Y-64657027D01*
X182651553Y-64657027D02*
X182556315Y-64609408D01*
X182556315Y-64609408D02*
X182270601Y-64609408D01*
X182270601Y-64609408D02*
X182175363Y-64657027D01*
X182175363Y-64657027D02*
X182127744Y-64704646D01*
X182127744Y-64704646D02*
X182080124Y-64799884D01*
X182080124Y-64799884D02*
X182080124Y-64990360D01*
X182080124Y-64990360D02*
X182127744Y-65085598D01*
X182746791Y-64323693D02*
X182746791Y-63942741D01*
X183080124Y-64180836D02*
X182222982Y-64180836D01*
X182222982Y-64180836D02*
X182127744Y-64133217D01*
X182127744Y-64133217D02*
X182080124Y-64037979D01*
X182080124Y-64037979D02*
X182080124Y-63942741D01*
X182127744Y-63228455D02*
X182080124Y-63323693D01*
X182080124Y-63323693D02*
X182080124Y-63514169D01*
X182080124Y-63514169D02*
X182127744Y-63609407D01*
X182127744Y-63609407D02*
X182222982Y-63657026D01*
X182222982Y-63657026D02*
X182603934Y-63657026D01*
X182603934Y-63657026D02*
X182699172Y-63609407D01*
X182699172Y-63609407D02*
X182746791Y-63514169D01*
X182746791Y-63514169D02*
X182746791Y-63323693D01*
X182746791Y-63323693D02*
X182699172Y-63228455D01*
X182699172Y-63228455D02*
X182603934Y-63180836D01*
X182603934Y-63180836D02*
X182508696Y-63180836D01*
X182508696Y-63180836D02*
X182413458Y-63657026D01*
X182080124Y-62752264D02*
X182746791Y-62752264D01*
X182556315Y-62752264D02*
X182651553Y-62704645D01*
X182651553Y-62704645D02*
X182699172Y-62657026D01*
X182699172Y-62657026D02*
X182746791Y-62561788D01*
X182746791Y-62561788D02*
X182746791Y-62466550D01*
X182175363Y-62133216D02*
X182127744Y-62085597D01*
X182127744Y-62085597D02*
X182080124Y-62133216D01*
X182080124Y-62133216D02*
X182127744Y-62180835D01*
X182127744Y-62180835D02*
X182175363Y-62133216D01*
X182175363Y-62133216D02*
X182080124Y-62133216D01*
X180565419Y-76561792D02*
X180517800Y-76609411D01*
X180517800Y-76609411D02*
X180470180Y-76752268D01*
X180470180Y-76752268D02*
X180470180Y-76847506D01*
X180470180Y-76847506D02*
X180517800Y-76990363D01*
X180517800Y-76990363D02*
X180613038Y-77085601D01*
X180613038Y-77085601D02*
X180708276Y-77133220D01*
X180708276Y-77133220D02*
X180898752Y-77180839D01*
X180898752Y-77180839D02*
X181041609Y-77180839D01*
X181041609Y-77180839D02*
X181232085Y-77133220D01*
X181232085Y-77133220D02*
X181327323Y-77085601D01*
X181327323Y-77085601D02*
X181422561Y-76990363D01*
X181422561Y-76990363D02*
X181470180Y-76847506D01*
X181470180Y-76847506D02*
X181470180Y-76752268D01*
X181470180Y-76752268D02*
X181422561Y-76609411D01*
X181422561Y-76609411D02*
X181374942Y-76561792D01*
X180470180Y-75990363D02*
X180517800Y-76085601D01*
X180517800Y-76085601D02*
X180565419Y-76133220D01*
X180565419Y-76133220D02*
X180660657Y-76180839D01*
X180660657Y-76180839D02*
X180946371Y-76180839D01*
X180946371Y-76180839D02*
X181041609Y-76133220D01*
X181041609Y-76133220D02*
X181089228Y-76085601D01*
X181089228Y-76085601D02*
X181136847Y-75990363D01*
X181136847Y-75990363D02*
X181136847Y-75847506D01*
X181136847Y-75847506D02*
X181089228Y-75752268D01*
X181089228Y-75752268D02*
X181041609Y-75704649D01*
X181041609Y-75704649D02*
X180946371Y-75657030D01*
X180946371Y-75657030D02*
X180660657Y-75657030D01*
X180660657Y-75657030D02*
X180565419Y-75704649D01*
X180565419Y-75704649D02*
X180517800Y-75752268D01*
X180517800Y-75752268D02*
X180470180Y-75847506D01*
X180470180Y-75847506D02*
X180470180Y-75990363D01*
X181136847Y-75228458D02*
X180136847Y-75228458D01*
X181089228Y-75228458D02*
X181136847Y-75133220D01*
X181136847Y-75133220D02*
X181136847Y-74942744D01*
X181136847Y-74942744D02*
X181089228Y-74847506D01*
X181089228Y-74847506D02*
X181041609Y-74799887D01*
X181041609Y-74799887D02*
X180946371Y-74752268D01*
X180946371Y-74752268D02*
X180660657Y-74752268D01*
X180660657Y-74752268D02*
X180565419Y-74799887D01*
X180565419Y-74799887D02*
X180517800Y-74847506D01*
X180517800Y-74847506D02*
X180470180Y-74942744D01*
X180470180Y-74942744D02*
X180470180Y-75133220D01*
X180470180Y-75133220D02*
X180517800Y-75228458D01*
X181136847Y-74418934D02*
X180470180Y-74180839D01*
X181136847Y-73942744D02*
X180470180Y-74180839D01*
X180470180Y-74180839D02*
X180232085Y-74276077D01*
X180232085Y-74276077D02*
X180184466Y-74323696D01*
X180184466Y-74323696D02*
X180136847Y-74418934D01*
X180470180Y-73561791D02*
X181136847Y-73561791D01*
X180946371Y-73561791D02*
X181041609Y-73514172D01*
X181041609Y-73514172D02*
X181089228Y-73466553D01*
X181089228Y-73466553D02*
X181136847Y-73371315D01*
X181136847Y-73371315D02*
X181136847Y-73276077D01*
X180470180Y-72942743D02*
X181136847Y-72942743D01*
X181470180Y-72942743D02*
X181422561Y-72990362D01*
X181422561Y-72990362D02*
X181374942Y-72942743D01*
X181374942Y-72942743D02*
X181422561Y-72895124D01*
X181422561Y-72895124D02*
X181470180Y-72942743D01*
X181470180Y-72942743D02*
X181374942Y-72942743D01*
X181136847Y-72037982D02*
X180327323Y-72037982D01*
X180327323Y-72037982D02*
X180232085Y-72085601D01*
X180232085Y-72085601D02*
X180184466Y-72133220D01*
X180184466Y-72133220D02*
X180136847Y-72228458D01*
X180136847Y-72228458D02*
X180136847Y-72371315D01*
X180136847Y-72371315D02*
X180184466Y-72466553D01*
X180517800Y-72037982D02*
X180470180Y-72133220D01*
X180470180Y-72133220D02*
X180470180Y-72323696D01*
X180470180Y-72323696D02*
X180517800Y-72418934D01*
X180517800Y-72418934D02*
X180565419Y-72466553D01*
X180565419Y-72466553D02*
X180660657Y-72514172D01*
X180660657Y-72514172D02*
X180946371Y-72514172D01*
X180946371Y-72514172D02*
X181041609Y-72466553D01*
X181041609Y-72466553D02*
X181089228Y-72418934D01*
X181089228Y-72418934D02*
X181136847Y-72323696D01*
X181136847Y-72323696D02*
X181136847Y-72133220D01*
X181136847Y-72133220D02*
X181089228Y-72037982D01*
X180470180Y-71561791D02*
X181470180Y-71561791D01*
X180470180Y-71133220D02*
X180993990Y-71133220D01*
X180993990Y-71133220D02*
X181089228Y-71180839D01*
X181089228Y-71180839D02*
X181136847Y-71276077D01*
X181136847Y-71276077D02*
X181136847Y-71418934D01*
X181136847Y-71418934D02*
X181089228Y-71514172D01*
X181089228Y-71514172D02*
X181041609Y-71561791D01*
X181136847Y-70799886D02*
X181136847Y-70418934D01*
X181470180Y-70657029D02*
X180613038Y-70657029D01*
X180613038Y-70657029D02*
X180517800Y-70609410D01*
X180517800Y-70609410D02*
X180470180Y-70514172D01*
X180470180Y-70514172D02*
X180470180Y-70418934D01*
X181374942Y-69371314D02*
X181422561Y-69323695D01*
X181422561Y-69323695D02*
X181470180Y-69228457D01*
X181470180Y-69228457D02*
X181470180Y-68990362D01*
X181470180Y-68990362D02*
X181422561Y-68895124D01*
X181422561Y-68895124D02*
X181374942Y-68847505D01*
X181374942Y-68847505D02*
X181279704Y-68799886D01*
X181279704Y-68799886D02*
X181184466Y-68799886D01*
X181184466Y-68799886D02*
X181041609Y-68847505D01*
X181041609Y-68847505D02*
X180470180Y-69418933D01*
X180470180Y-69418933D02*
X180470180Y-68799886D01*
X181470180Y-68180838D02*
X181470180Y-68085600D01*
X181470180Y-68085600D02*
X181422561Y-67990362D01*
X181422561Y-67990362D02*
X181374942Y-67942743D01*
X181374942Y-67942743D02*
X181279704Y-67895124D01*
X181279704Y-67895124D02*
X181089228Y-67847505D01*
X181089228Y-67847505D02*
X180851133Y-67847505D01*
X180851133Y-67847505D02*
X180660657Y-67895124D01*
X180660657Y-67895124D02*
X180565419Y-67942743D01*
X180565419Y-67942743D02*
X180517800Y-67990362D01*
X180517800Y-67990362D02*
X180470180Y-68085600D01*
X180470180Y-68085600D02*
X180470180Y-68180838D01*
X180470180Y-68180838D02*
X180517800Y-68276076D01*
X180517800Y-68276076D02*
X180565419Y-68323695D01*
X180565419Y-68323695D02*
X180660657Y-68371314D01*
X180660657Y-68371314D02*
X180851133Y-68418933D01*
X180851133Y-68418933D02*
X181089228Y-68418933D01*
X181089228Y-68418933D02*
X181279704Y-68371314D01*
X181279704Y-68371314D02*
X181374942Y-68323695D01*
X181374942Y-68323695D02*
X181422561Y-68276076D01*
X181422561Y-68276076D02*
X181470180Y-68180838D01*
X181374942Y-67466552D02*
X181422561Y-67418933D01*
X181422561Y-67418933D02*
X181470180Y-67323695D01*
X181470180Y-67323695D02*
X181470180Y-67085600D01*
X181470180Y-67085600D02*
X181422561Y-66990362D01*
X181422561Y-66990362D02*
X181374942Y-66942743D01*
X181374942Y-66942743D02*
X181279704Y-66895124D01*
X181279704Y-66895124D02*
X181184466Y-66895124D01*
X181184466Y-66895124D02*
X181041609Y-66942743D01*
X181041609Y-66942743D02*
X180470180Y-67514171D01*
X180470180Y-67514171D02*
X180470180Y-66895124D01*
X181136847Y-66037981D02*
X180470180Y-66037981D01*
X181517800Y-66276076D02*
X180803514Y-66514171D01*
X180803514Y-66514171D02*
X180803514Y-65895124D01*
X181470180Y-64895123D02*
X181470180Y-64323695D01*
X180470180Y-64609409D02*
X181470180Y-64609409D01*
X180470180Y-63561790D02*
X180993990Y-63561790D01*
X180993990Y-63561790D02*
X181089228Y-63609409D01*
X181089228Y-63609409D02*
X181136847Y-63704647D01*
X181136847Y-63704647D02*
X181136847Y-63895123D01*
X181136847Y-63895123D02*
X181089228Y-63990361D01*
X180517800Y-63561790D02*
X180470180Y-63657028D01*
X180470180Y-63657028D02*
X180470180Y-63895123D01*
X180470180Y-63895123D02*
X180517800Y-63990361D01*
X180517800Y-63990361D02*
X180613038Y-64037980D01*
X180613038Y-64037980D02*
X180708276Y-64037980D01*
X180708276Y-64037980D02*
X180803514Y-63990361D01*
X180803514Y-63990361D02*
X180851133Y-63895123D01*
X180851133Y-63895123D02*
X180851133Y-63657028D01*
X180851133Y-63657028D02*
X180898752Y-63561790D01*
X180470180Y-62657028D02*
X181470180Y-62657028D01*
X180517800Y-62657028D02*
X180470180Y-62752266D01*
X180470180Y-62752266D02*
X180470180Y-62942742D01*
X180470180Y-62942742D02*
X180517800Y-63037980D01*
X180517800Y-63037980D02*
X180565419Y-63085599D01*
X180565419Y-63085599D02*
X180660657Y-63133218D01*
X180660657Y-63133218D02*
X180946371Y-63133218D01*
X180946371Y-63133218D02*
X181041609Y-63085599D01*
X181041609Y-63085599D02*
X181089228Y-63037980D01*
X181089228Y-63037980D02*
X181136847Y-62942742D01*
X181136847Y-62942742D02*
X181136847Y-62752266D01*
X181136847Y-62752266D02*
X181089228Y-62657028D01*
X181470180Y-61561789D02*
X181470180Y-60990361D01*
X180470180Y-61276075D02*
X181470180Y-61276075D01*
X180470180Y-60657027D02*
X181136847Y-60657027D01*
X180946371Y-60657027D02*
X181041609Y-60609408D01*
X181041609Y-60609408D02*
X181089228Y-60561789D01*
X181089228Y-60561789D02*
X181136847Y-60466551D01*
X181136847Y-60466551D02*
X181136847Y-60371313D01*
X181136847Y-59609408D02*
X180470180Y-59609408D01*
X181136847Y-60037979D02*
X180613038Y-60037979D01*
X180613038Y-60037979D02*
X180517800Y-59990360D01*
X180517800Y-59990360D02*
X180470180Y-59895122D01*
X180470180Y-59895122D02*
X180470180Y-59752265D01*
X180470180Y-59752265D02*
X180517800Y-59657027D01*
X180517800Y-59657027D02*
X180565419Y-59609408D01*
X180517800Y-58752265D02*
X180470180Y-58847503D01*
X180470180Y-58847503D02*
X180470180Y-59037979D01*
X180470180Y-59037979D02*
X180517800Y-59133217D01*
X180517800Y-59133217D02*
X180613038Y-59180836D01*
X180613038Y-59180836D02*
X180993990Y-59180836D01*
X180993990Y-59180836D02*
X181089228Y-59133217D01*
X181089228Y-59133217D02*
X181136847Y-59037979D01*
X181136847Y-59037979D02*
X181136847Y-58847503D01*
X181136847Y-58847503D02*
X181089228Y-58752265D01*
X181089228Y-58752265D02*
X180993990Y-58704646D01*
X180993990Y-58704646D02*
X180898752Y-58704646D01*
X180898752Y-58704646D02*
X180803514Y-59180836D01*
X180470180Y-58371312D02*
X181136847Y-57847503D01*
X181136847Y-58371312D02*
X180470180Y-57847503D01*
D11*
%TO.C,G\u002A\u002A\u002A*%
G36*
X181225905Y-51967109D02*
G01*
X181225905Y-52102262D01*
X181090752Y-52102262D01*
X180955599Y-52102262D01*
X180955599Y-51967109D01*
X180955599Y-51831957D01*
X181090752Y-51831957D01*
X181225905Y-51831957D01*
X181225905Y-51967109D01*
G37*
G36*
X181225905Y-53048332D02*
G01*
X181225905Y-53183484D01*
X181090752Y-53183484D01*
X180955599Y-53183484D01*
X180955599Y-53048332D01*
X180955599Y-52913179D01*
X181090752Y-52913179D01*
X181225905Y-52913179D01*
X181225905Y-53048332D01*
G37*
G36*
X181225905Y-53588943D02*
G01*
X181225905Y-53724095D01*
X181090752Y-53724095D01*
X180955599Y-53724095D01*
X180955599Y-53588943D01*
X180955599Y-53453790D01*
X181090752Y-53453790D01*
X181225905Y-53453790D01*
X181225905Y-53588943D01*
G37*
G36*
X182307127Y-46020388D02*
G01*
X182307127Y-46425846D01*
X181901668Y-46425846D01*
X181496210Y-46425846D01*
X181496210Y-46020388D01*
X181496210Y-45614930D01*
X181901668Y-45614930D01*
X182307127Y-45614930D01*
X182307127Y-46020388D01*
G37*
G36*
X181766516Y-53859248D02*
G01*
X181766516Y-53994401D01*
X181631363Y-53994401D01*
X181496210Y-53994401D01*
X181496210Y-53859248D01*
X181496210Y-53724095D01*
X181631363Y-53724095D01*
X181766516Y-53724095D01*
X181766516Y-53859248D01*
G37*
G36*
X182847738Y-52237415D02*
G01*
X182847738Y-52372568D01*
X182712585Y-52372568D01*
X182577432Y-52372568D01*
X182577432Y-52237415D01*
X182577432Y-52102262D01*
X182712585Y-52102262D01*
X182847738Y-52102262D01*
X182847738Y-52237415D01*
G37*
G36*
X183928960Y-51696804D02*
G01*
X183928960Y-51831957D01*
X183793807Y-51831957D01*
X183658654Y-51831957D01*
X183658654Y-51696804D01*
X183658654Y-51561651D01*
X183793807Y-51561651D01*
X183928960Y-51561651D01*
X183928960Y-51696804D01*
G37*
G36*
X184739876Y-45750082D02*
G01*
X184739876Y-45885235D01*
X184604724Y-45885235D01*
X184469571Y-45885235D01*
X184469571Y-45750082D01*
X184469571Y-45614930D01*
X184604724Y-45614930D01*
X184739876Y-45614930D01*
X184739876Y-45750082D01*
G37*
G36*
X184739876Y-51426498D02*
G01*
X184739876Y-51561651D01*
X184604724Y-51561651D01*
X184469571Y-51561651D01*
X184469571Y-51426498D01*
X184469571Y-51291346D01*
X184604724Y-51291346D01*
X184739876Y-51291346D01*
X184739876Y-51426498D01*
G37*
G36*
X185280487Y-52778026D02*
G01*
X185280487Y-52913179D01*
X185145335Y-52913179D01*
X185010182Y-52913179D01*
X185010182Y-52778026D01*
X185010182Y-52642873D01*
X185145335Y-52642873D01*
X185280487Y-52642873D01*
X185280487Y-52778026D01*
G37*
G36*
X186091404Y-46966457D02*
G01*
X186091404Y-47236763D01*
X185956251Y-47236763D01*
X185821099Y-47236763D01*
X185821099Y-46966457D01*
X185821099Y-46696152D01*
X185956251Y-46696152D01*
X186091404Y-46696152D01*
X186091404Y-46966457D01*
G37*
G36*
X186361710Y-48723443D02*
G01*
X186361710Y-48858596D01*
X186226557Y-48858596D01*
X186091404Y-48858596D01*
X186091404Y-48723443D01*
X186091404Y-48588290D01*
X186226557Y-48588290D01*
X186361710Y-48588290D01*
X186361710Y-48723443D01*
G37*
G36*
X187713237Y-45344624D02*
G01*
X187713237Y-45614930D01*
X187578084Y-45614930D01*
X187442932Y-45614930D01*
X187442932Y-45344624D01*
X187442932Y-45074319D01*
X187578084Y-45074319D01*
X187713237Y-45074319D01*
X187713237Y-45344624D01*
G37*
G36*
X189335070Y-46020388D02*
G01*
X189335070Y-46425846D01*
X188929612Y-46425846D01*
X188524154Y-46425846D01*
X188524154Y-46020388D01*
X188524154Y-45614930D01*
X188929612Y-45614930D01*
X189335070Y-45614930D01*
X189335070Y-46020388D01*
G37*
G36*
X189335070Y-53048332D02*
G01*
X189335070Y-53453790D01*
X188929612Y-53453790D01*
X188524154Y-53453790D01*
X188524154Y-53048332D01*
X188524154Y-52642873D01*
X188929612Y-52642873D01*
X189335070Y-52642873D01*
X189335070Y-53048332D01*
G37*
G36*
X189875681Y-47507068D02*
G01*
X189875681Y-47777374D01*
X189740529Y-47777374D01*
X189605376Y-47777374D01*
X189605376Y-47507068D01*
X189605376Y-47236763D01*
X189740529Y-47236763D01*
X189875681Y-47236763D01*
X189875681Y-47507068D01*
G37*
G36*
X182847738Y-46966457D02*
G01*
X181901668Y-46966457D01*
X180955599Y-46966457D01*
X180955599Y-46020388D01*
X180955599Y-45362063D01*
X181243344Y-45362063D01*
X181243344Y-46020388D01*
X181243344Y-46678713D01*
X181901668Y-46678713D01*
X182559993Y-46678713D01*
X182559993Y-46020388D01*
X182559993Y-45362063D01*
X181901668Y-45362063D01*
X181243344Y-45362063D01*
X180955599Y-45362063D01*
X180955599Y-45074319D01*
X181901668Y-45074319D01*
X182847738Y-45074319D01*
X182847738Y-46020388D01*
X182847738Y-46966457D01*
G37*
G36*
X189875681Y-46966457D02*
G01*
X188929612Y-46966457D01*
X187983543Y-46966457D01*
X187983543Y-46020388D01*
X187983543Y-45362063D01*
X188271287Y-45362063D01*
X188271287Y-46020388D01*
X188271287Y-46678713D01*
X188929612Y-46678713D01*
X189587937Y-46678713D01*
X189587937Y-46020388D01*
X189587937Y-45362063D01*
X188929612Y-45362063D01*
X188271287Y-45362063D01*
X187983543Y-45362063D01*
X187983543Y-45074319D01*
X188929612Y-45074319D01*
X189875681Y-45074319D01*
X189875681Y-46020388D01*
X189875681Y-46966457D01*
G37*
G36*
X189875681Y-53994401D02*
G01*
X188929612Y-53994401D01*
X187983543Y-53994401D01*
X187983543Y-53048332D01*
X187983543Y-52390007D01*
X188271287Y-52390007D01*
X188271287Y-53048332D01*
X188271287Y-53706656D01*
X188929612Y-53706656D01*
X189587937Y-53706656D01*
X189587937Y-53048332D01*
X189587937Y-52390007D01*
X188929612Y-52390007D01*
X188271287Y-52390007D01*
X187983543Y-52390007D01*
X187983543Y-52102262D01*
X188929612Y-52102262D01*
X189875681Y-52102262D01*
X189875681Y-53048332D01*
X189875681Y-53994401D01*
G37*
G36*
X184875029Y-50480429D02*
G01*
X185010182Y-50480429D01*
X185010182Y-50750735D01*
X185010182Y-51021040D01*
X185280487Y-51021040D01*
X185550793Y-51021040D01*
X185550793Y-51291346D01*
X185550793Y-51561651D01*
X185415640Y-51561651D01*
X185280487Y-51561651D01*
X185280487Y-51426498D01*
X185280487Y-51291346D01*
X185010182Y-51291346D01*
X184739876Y-51291346D01*
X184739876Y-50885887D01*
X184739876Y-50480429D01*
X184875029Y-50480429D01*
G37*
G36*
X184739876Y-50345276D02*
G01*
X184739876Y-50480429D01*
X184604724Y-50480429D01*
X184469571Y-50480429D01*
X184469571Y-50345276D01*
X184469571Y-50210124D01*
X184604724Y-50210124D01*
X184739876Y-50210124D01*
X184739876Y-50345276D01*
G37*
G36*
X185685946Y-45885235D02*
G01*
X186091404Y-45885235D01*
X186091404Y-46155541D01*
X186091404Y-46425846D01*
X185956251Y-46425846D01*
X185821099Y-46425846D01*
X185821099Y-46290693D01*
X185821099Y-46155541D01*
X185550793Y-46155541D01*
X185280487Y-46155541D01*
X185280487Y-46020388D01*
X185280487Y-45885235D01*
X185685946Y-45885235D01*
G37*
G36*
X185550793Y-45614930D02*
G01*
X185415640Y-45614930D01*
X185280487Y-45614930D01*
X185280487Y-45750082D01*
X185280487Y-45885235D01*
X185145335Y-45885235D01*
X185010182Y-45885235D01*
X185010182Y-45750082D01*
X185010182Y-45614930D01*
X184875029Y-45614930D01*
X184739876Y-45614930D01*
X184739876Y-45479777D01*
X184739876Y-45344624D01*
X185010182Y-45344624D01*
X185010182Y-45479777D01*
X185010182Y-45614930D01*
X185145335Y-45614930D01*
X185280487Y-45614930D01*
X185280487Y-45479777D01*
X185280487Y-45344624D01*
X185145335Y-45344624D01*
X185010182Y-45344624D01*
X184739876Y-45344624D01*
X184334418Y-45344624D01*
X183928960Y-45344624D01*
X183928960Y-45209471D01*
X183928960Y-45074319D01*
X184739876Y-45074319D01*
X185550793Y-45074319D01*
X185550793Y-45344624D01*
X185550793Y-45479777D01*
X185550793Y-45614930D01*
G37*
G36*
X189064765Y-48317985D02*
G01*
X189199918Y-48317985D01*
X189335070Y-48317985D01*
X189335070Y-48182832D01*
X189335070Y-48047679D01*
X189470223Y-48047679D01*
X189605376Y-48047679D01*
X189605376Y-48182832D01*
X189605376Y-48317985D01*
X189740529Y-48317985D01*
X189875681Y-48317985D01*
X189875681Y-48588290D01*
X189875681Y-48858596D01*
X189740529Y-48858596D01*
X189605376Y-48858596D01*
X189605376Y-48723443D01*
X189605376Y-48588290D01*
X189199918Y-48588290D01*
X188794459Y-48588290D01*
X188794459Y-48723443D01*
X188794459Y-48858596D01*
X188794459Y-49128901D01*
X188929612Y-49128901D01*
X189064765Y-49128901D01*
X189064765Y-48993749D01*
X189064765Y-48858596D01*
X189335070Y-48858596D01*
X189605376Y-48858596D01*
X189605376Y-48993749D01*
X189605376Y-49128901D01*
X189470223Y-49128901D01*
X189335070Y-49128901D01*
X189335070Y-49264054D01*
X189335070Y-49399207D01*
X189335070Y-49669513D01*
X189199918Y-49669513D01*
X189064765Y-49669513D01*
X189064765Y-49804665D01*
X189064765Y-49939818D01*
X188929612Y-49939818D01*
X188794459Y-49939818D01*
X188794459Y-49669513D01*
X188794459Y-49399207D01*
X188659307Y-49399207D01*
X188524154Y-49399207D01*
X188524154Y-49534360D01*
X188524154Y-49669513D01*
X187848390Y-49669513D01*
X187172626Y-49669513D01*
X187172626Y-49399207D01*
X187172626Y-49128901D01*
X187307779Y-49128901D01*
X187442932Y-49128901D01*
X187442932Y-49264054D01*
X187442932Y-49399207D01*
X187578084Y-49399207D01*
X187713237Y-49399207D01*
X187713237Y-49264054D01*
X187713237Y-49128901D01*
X187983543Y-49128901D01*
X187983543Y-49264054D01*
X187983543Y-49399207D01*
X188253848Y-49399207D01*
X188524154Y-49399207D01*
X188524154Y-49264054D01*
X188524154Y-49128901D01*
X188253848Y-49128901D01*
X187983543Y-49128901D01*
X187713237Y-49128901D01*
X187578084Y-49128901D01*
X187442932Y-49128901D01*
X187442932Y-48858596D01*
X187442932Y-48588290D01*
X187307779Y-48588290D01*
X187172626Y-48588290D01*
X187172626Y-48723443D01*
X187172626Y-48858596D01*
X187037473Y-48858596D01*
X186902321Y-48858596D01*
X186902321Y-48723443D01*
X186902321Y-48588290D01*
X187037473Y-48588290D01*
X187172626Y-48588290D01*
X187172626Y-48453138D01*
X187172626Y-48317985D01*
X187307779Y-48317985D01*
X187442932Y-48317985D01*
X187442932Y-48182832D01*
X187442932Y-48047679D01*
X187307779Y-48047679D01*
X187172626Y-48047679D01*
X187172626Y-47912527D01*
X187172626Y-47777374D01*
X187442932Y-47777374D01*
X187713237Y-47777374D01*
X187713237Y-48182832D01*
X187713237Y-48588290D01*
X187848390Y-48588290D01*
X187983543Y-48588290D01*
X187983543Y-48723443D01*
X187983543Y-48858596D01*
X188118696Y-48858596D01*
X188253848Y-48858596D01*
X188253848Y-48723443D01*
X188253848Y-48588290D01*
X188118696Y-48588290D01*
X187983543Y-48588290D01*
X187983543Y-48453138D01*
X187983543Y-48317985D01*
X188118696Y-48317985D01*
X188253848Y-48317985D01*
X188253848Y-48453138D01*
X188253848Y-48588290D01*
X188389001Y-48588290D01*
X188524154Y-48588290D01*
X188524154Y-48453138D01*
X188524154Y-48317985D01*
X188389001Y-48317985D01*
X188253848Y-48317985D01*
X188253848Y-48182832D01*
X188253848Y-48047679D01*
X188524154Y-48047679D01*
X188524154Y-48182832D01*
X188524154Y-48317985D01*
X188659307Y-48317985D01*
X188794459Y-48317985D01*
X188794459Y-48182832D01*
X188794459Y-48047679D01*
X188659307Y-48047679D01*
X188524154Y-48047679D01*
X188253848Y-48047679D01*
X188118696Y-48047679D01*
X187983543Y-48047679D01*
X187983543Y-47912527D01*
X187983543Y-47777374D01*
X188253848Y-47777374D01*
X188524154Y-47777374D01*
X188524154Y-47642221D01*
X188524154Y-47507068D01*
X188118696Y-47507068D01*
X187713237Y-47507068D01*
X187713237Y-47371916D01*
X187713237Y-47236763D01*
X188118696Y-47236763D01*
X188524154Y-47236763D01*
X188524154Y-47371916D01*
X188524154Y-47507068D01*
X188659307Y-47507068D01*
X188794459Y-47507068D01*
X188794459Y-47371916D01*
X188794459Y-47236763D01*
X189064765Y-47236763D01*
X189335070Y-47236763D01*
X189335070Y-47371916D01*
X189335070Y-47507068D01*
X189199918Y-47507068D01*
X189064765Y-47507068D01*
X189064765Y-47912527D01*
X189064765Y-48182832D01*
X189064765Y-48317985D01*
G37*
G36*
X187172626Y-47642221D02*
G01*
X187172626Y-47777374D01*
X187037473Y-47777374D01*
X186902321Y-47777374D01*
X186902321Y-48182832D01*
X186902321Y-48588290D01*
X186632015Y-48588290D01*
X186361710Y-48588290D01*
X186361710Y-48453138D01*
X186361710Y-48317985D01*
X186091404Y-48317985D01*
X185821099Y-48317985D01*
X185821099Y-48047679D01*
X185821099Y-47777374D01*
X185956251Y-47777374D01*
X186091404Y-47777374D01*
X186091404Y-47912527D01*
X186091404Y-48047679D01*
X186361710Y-48047679D01*
X186632015Y-48047679D01*
X186632015Y-47777374D01*
X186632015Y-47507068D01*
X186902321Y-47507068D01*
X187172626Y-47507068D01*
X187172626Y-47642221D01*
G37*
G36*
X186632015Y-46831304D02*
G01*
X186632015Y-46966457D01*
X186767168Y-46966457D01*
X186902321Y-46966457D01*
X186902321Y-46831304D01*
X186902321Y-46696152D01*
X187037473Y-46696152D01*
X187172626Y-46696152D01*
X187172626Y-46831304D01*
X187172626Y-46966457D01*
X187307779Y-46966457D01*
X187442932Y-46966457D01*
X187442932Y-46831304D01*
X187442932Y-46696152D01*
X187578084Y-46696152D01*
X187713237Y-46696152D01*
X187713237Y-46966457D01*
X187713237Y-47236763D01*
X187442932Y-47236763D01*
X187172626Y-47236763D01*
X187172626Y-47101610D01*
X187172626Y-46966457D01*
X187037473Y-46966457D01*
X186902321Y-46966457D01*
X186902321Y-47101610D01*
X186902321Y-47236763D01*
X186632015Y-47236763D01*
X186361710Y-47236763D01*
X186361710Y-46966457D01*
X186361710Y-46696152D01*
X186496862Y-46696152D01*
X186632015Y-46696152D01*
X186632015Y-46831304D01*
G37*
G36*
X186361710Y-45209471D02*
G01*
X186361710Y-45344624D01*
X186496862Y-45344624D01*
X186632015Y-45344624D01*
X186632015Y-45209471D01*
X186632015Y-45074319D01*
X186767168Y-45074319D01*
X186902321Y-45074319D01*
X186902321Y-45209471D01*
X186902321Y-45344624D01*
X186767168Y-45344624D01*
X186632015Y-45344624D01*
X186632015Y-45479777D01*
X186632015Y-45614930D01*
X186767168Y-45614930D01*
X186902321Y-45614930D01*
X186902321Y-45479777D01*
X186902321Y-45344624D01*
X187037473Y-45344624D01*
X187172626Y-45344624D01*
X187172626Y-45479777D01*
X187172626Y-45614930D01*
X187172626Y-45885235D01*
X187037473Y-45885235D01*
X186902321Y-45885235D01*
X186902321Y-46020388D01*
X186902321Y-46155541D01*
X187037473Y-46155541D01*
X187172626Y-46155541D01*
X187172626Y-46020388D01*
X187172626Y-45885235D01*
X187442932Y-45885235D01*
X187713237Y-45885235D01*
X187713237Y-46020388D01*
X187713237Y-46155541D01*
X187442932Y-46155541D01*
X187172626Y-46155541D01*
X187172626Y-46290693D01*
X187172626Y-46425846D01*
X187037473Y-46425846D01*
X186902321Y-46425846D01*
X186902321Y-46560999D01*
X186902321Y-46696152D01*
X186767168Y-46696152D01*
X186632015Y-46696152D01*
X186632015Y-46155541D01*
X186632015Y-45614930D01*
X186361710Y-45614930D01*
X186091404Y-45614930D01*
X186091404Y-45479777D01*
X186091404Y-45344624D01*
X185956251Y-45344624D01*
X185821099Y-45344624D01*
X185821099Y-45209471D01*
X185821099Y-45074319D01*
X186091404Y-45074319D01*
X186361710Y-45074319D01*
X186361710Y-45209471D01*
G37*
G36*
X187307779Y-46425846D02*
G01*
X187442932Y-46425846D01*
X187442932Y-46560999D01*
X187442932Y-46696152D01*
X187307779Y-46696152D01*
X187172626Y-46696152D01*
X187172626Y-46560999D01*
X187172626Y-46425846D01*
X187307779Y-46425846D01*
G37*
G36*
X185550793Y-48317985D02*
G01*
X185415640Y-48317985D01*
X185280487Y-48317985D01*
X185280487Y-48182832D01*
X185280487Y-48047679D01*
X185145335Y-48047679D01*
X185010182Y-48047679D01*
X185010182Y-48317985D01*
X185010182Y-48588290D01*
X185280487Y-48588290D01*
X185550793Y-48588290D01*
X185550793Y-48723443D01*
X185550793Y-48858596D01*
X185685946Y-48858596D01*
X185821099Y-48858596D01*
X185821099Y-48993749D01*
X185821099Y-49128901D01*
X185685946Y-49128901D01*
X185550793Y-49128901D01*
X185550793Y-49264054D01*
X185550793Y-49399207D01*
X185821099Y-49399207D01*
X186091404Y-49399207D01*
X186091404Y-49264054D01*
X186091404Y-49128901D01*
X186226557Y-49128901D01*
X186361710Y-49128901D01*
X186361710Y-49264054D01*
X186361710Y-49399207D01*
X186496862Y-49399207D01*
X186632015Y-49399207D01*
X186632015Y-49128901D01*
X186632015Y-48858596D01*
X186767168Y-48858596D01*
X186902321Y-48858596D01*
X186902321Y-49128901D01*
X186902321Y-49399207D01*
X186767168Y-49399207D01*
X186632015Y-49399207D01*
X186632015Y-49534360D01*
X186632015Y-49669513D01*
X186496862Y-49669513D01*
X186361710Y-49669513D01*
X186361710Y-49534360D01*
X186361710Y-49399207D01*
X186226557Y-49399207D01*
X186091404Y-49399207D01*
X186091404Y-49804665D01*
X186091404Y-50210124D01*
X185550793Y-50210124D01*
X185010182Y-50210124D01*
X185010182Y-50074971D01*
X185010182Y-49939818D01*
X185280487Y-49939818D01*
X185415640Y-49939818D01*
X185550793Y-49939818D01*
X185550793Y-49804665D01*
X185550793Y-49669513D01*
X185415640Y-49669513D01*
X185280487Y-49669513D01*
X185280487Y-49804665D01*
X185280487Y-49939818D01*
X185010182Y-49939818D01*
X184739876Y-49939818D01*
X184469571Y-49939818D01*
X184469571Y-50074971D01*
X184469571Y-50210124D01*
X184199265Y-50210124D01*
X183928960Y-50210124D01*
X183928960Y-50345276D01*
X183928960Y-50480429D01*
X183388349Y-50480429D01*
X182847738Y-50480429D01*
X182847738Y-50345276D01*
X182847738Y-50210124D01*
X182982891Y-50210124D01*
X183118043Y-50210124D01*
X183118043Y-50074971D01*
X183118043Y-49939818D01*
X183388349Y-49939818D01*
X183388349Y-50074971D01*
X183388349Y-50210124D01*
X183523502Y-50210124D01*
X183658654Y-50210124D01*
X183658654Y-50074971D01*
X183658654Y-49939818D01*
X183523502Y-49939818D01*
X183388349Y-49939818D01*
X183118043Y-49939818D01*
X182847738Y-49939818D01*
X182577432Y-49939818D01*
X182577432Y-50074971D01*
X182577432Y-50210124D01*
X182442279Y-50210124D01*
X182307127Y-50210124D01*
X182307127Y-50480429D01*
X182307127Y-50750735D01*
X182036821Y-50750735D01*
X181766516Y-50750735D01*
X181766516Y-50885887D01*
X181766516Y-51021040D01*
X181901668Y-51021040D01*
X182036821Y-51021040D01*
X182036821Y-51291346D01*
X182036821Y-51561651D01*
X182171974Y-51561651D01*
X182307127Y-51561651D01*
X182307127Y-51426498D01*
X182307127Y-51291346D01*
X182442279Y-51291346D01*
X182577432Y-51291346D01*
X182577432Y-51021040D01*
X182577432Y-50750735D01*
X182712585Y-50750735D01*
X182847738Y-50750735D01*
X182847738Y-50885887D01*
X182847738Y-51021040D01*
X183118043Y-51021040D01*
X183388349Y-51021040D01*
X183388349Y-50885887D01*
X183388349Y-50750735D01*
X183658654Y-50750735D01*
X183928960Y-50750735D01*
X183928960Y-50615582D01*
X183928960Y-50480429D01*
X184199265Y-50480429D01*
X184469571Y-50480429D01*
X184469571Y-50615582D01*
X184469571Y-50750735D01*
X184334418Y-50750735D01*
X184199265Y-50750735D01*
X184199265Y-51021040D01*
X184199265Y-51291346D01*
X184064113Y-51291346D01*
X183928960Y-51291346D01*
X183928960Y-51156193D01*
X183928960Y-51021040D01*
X183793807Y-51021040D01*
X183658654Y-51021040D01*
X183658654Y-51156193D01*
X183658654Y-51291346D01*
X183253196Y-51291346D01*
X182847738Y-51291346D01*
X182847738Y-51426498D01*
X182847738Y-51561651D01*
X183118043Y-51561651D01*
X183388349Y-51561651D01*
X183388349Y-51831957D01*
X183388349Y-52102262D01*
X183793807Y-52102262D01*
X184199265Y-52102262D01*
X184199265Y-51967109D01*
X184199265Y-51831957D01*
X184875029Y-51831957D01*
X185550793Y-51831957D01*
X185550793Y-51696804D01*
X185550793Y-51561651D01*
X185821099Y-51561651D01*
X186091404Y-51561651D01*
X186091404Y-51426498D01*
X186091404Y-51291346D01*
X185956251Y-51291346D01*
X185821099Y-51291346D01*
X185821099Y-51156193D01*
X185821099Y-51021040D01*
X185685946Y-51021040D01*
X185550793Y-51021040D01*
X185550793Y-50885887D01*
X185550793Y-50750735D01*
X185821099Y-50750735D01*
X186091404Y-50750735D01*
X186091404Y-50480429D01*
X186091404Y-50210124D01*
X186226557Y-50210124D01*
X186361710Y-50210124D01*
X186361710Y-50345276D01*
X186361710Y-50480429D01*
X186496862Y-50480429D01*
X186632015Y-50480429D01*
X186632015Y-50345276D01*
X186632015Y-50210124D01*
X186496862Y-50210124D01*
X186361710Y-50210124D01*
X186361710Y-50074971D01*
X186361710Y-49939818D01*
X186632015Y-49939818D01*
X186902321Y-49939818D01*
X186902321Y-50074971D01*
X186902321Y-50210124D01*
X187037473Y-50210124D01*
X187172626Y-50210124D01*
X187172626Y-50074971D01*
X187172626Y-49939818D01*
X187848390Y-49939818D01*
X188524154Y-49939818D01*
X188524154Y-50210124D01*
X188524154Y-50345276D01*
X188524154Y-50480429D01*
X188389001Y-50480429D01*
X188253848Y-50480429D01*
X188253848Y-50615582D01*
X188253848Y-50750735D01*
X188118696Y-50750735D01*
X187983543Y-50750735D01*
X187983543Y-50615582D01*
X187983543Y-50480429D01*
X187848390Y-50480429D01*
X187713237Y-50480429D01*
X187713237Y-50345276D01*
X187713237Y-50210124D01*
X187983543Y-50210124D01*
X187983543Y-50345276D01*
X187983543Y-50480429D01*
X188118696Y-50480429D01*
X188253848Y-50480429D01*
X188253848Y-50345276D01*
X188253848Y-50210124D01*
X188118696Y-50210124D01*
X187983543Y-50210124D01*
X187713237Y-50210124D01*
X187442932Y-50210124D01*
X187172626Y-50210124D01*
X187172626Y-50345276D01*
X187172626Y-50480429D01*
X186902321Y-50480429D01*
X186632015Y-50480429D01*
X186632015Y-50615582D01*
X186632015Y-50750735D01*
X186767168Y-50750735D01*
X186902321Y-50750735D01*
X186902321Y-50885887D01*
X186902321Y-51021040D01*
X186767168Y-51021040D01*
X186632015Y-51021040D01*
X186632015Y-51156193D01*
X186632015Y-51291346D01*
X186767168Y-51291346D01*
X186902321Y-51291346D01*
X186902321Y-51426498D01*
X186902321Y-51561651D01*
X187578084Y-51561651D01*
X188253848Y-51561651D01*
X188253848Y-51696804D01*
X188253848Y-51831957D01*
X187983543Y-51831957D01*
X187713237Y-51831957D01*
X187713237Y-52102262D01*
X187713237Y-52237415D01*
X187713237Y-52507721D01*
X187713237Y-52642873D01*
X187307779Y-52642873D01*
X186902321Y-52642873D01*
X186902321Y-52778026D01*
X186902321Y-52913179D01*
X187307779Y-52913179D01*
X187713237Y-52913179D01*
X187713237Y-53048332D01*
X187713237Y-53183484D01*
X187713237Y-53318637D01*
X187713237Y-53453790D01*
X187578084Y-53453790D01*
X187442932Y-53453790D01*
X187442932Y-53588943D01*
X187442932Y-53724095D01*
X187307779Y-53724095D01*
X187172626Y-53724095D01*
X187172626Y-53859248D01*
X187172626Y-53994401D01*
X187037473Y-53994401D01*
X186902321Y-53994401D01*
X186902321Y-53859248D01*
X186902321Y-53724095D01*
X186767168Y-53724095D01*
X186632015Y-53724095D01*
X186632015Y-53859248D01*
X186632015Y-53994401D01*
X185685946Y-53994401D01*
X184739876Y-53994401D01*
X184739876Y-53859248D01*
X184739876Y-53724095D01*
X184604724Y-53724095D01*
X184469571Y-53724095D01*
X184469571Y-53453790D01*
X184469571Y-53183484D01*
X184199265Y-53183484D01*
X183928960Y-53183484D01*
X183928960Y-53453790D01*
X183928960Y-53724095D01*
X183793807Y-53724095D01*
X183658654Y-53724095D01*
X183658654Y-53859248D01*
X183658654Y-53994401D01*
X183523502Y-53994401D01*
X183388349Y-53994401D01*
X183388349Y-53724095D01*
X183388349Y-53453790D01*
X183523502Y-53453790D01*
X183658654Y-53453790D01*
X183658654Y-53318637D01*
X183658654Y-53183484D01*
X183523502Y-53183484D01*
X183388349Y-53183484D01*
X183388349Y-53048332D01*
X183388349Y-52913179D01*
X182982891Y-52913179D01*
X182577432Y-52913179D01*
X182577432Y-53048332D01*
X182577432Y-53183484D01*
X182712585Y-53183484D01*
X182847738Y-53183484D01*
X182847738Y-53318637D01*
X182847738Y-53453790D01*
X182712585Y-53453790D01*
X182577432Y-53453790D01*
X182577432Y-53588943D01*
X182577432Y-53724095D01*
X182442279Y-53724095D01*
X182307127Y-53724095D01*
X182307127Y-53859248D01*
X182307127Y-53994401D01*
X182171974Y-53994401D01*
X182036821Y-53994401D01*
X182036821Y-53724095D01*
X182036821Y-53453790D01*
X181766516Y-53453790D01*
X181496210Y-53453790D01*
X181496210Y-53318637D01*
X181496210Y-53183484D01*
X181631363Y-53183484D01*
X181766516Y-53183484D01*
X182036821Y-53183484D01*
X182036821Y-53453790D01*
X182171974Y-53453790D01*
X182307127Y-53453790D01*
X182307127Y-53183484D01*
X182307127Y-52913179D01*
X182171974Y-52913179D01*
X182036821Y-52913179D01*
X182036821Y-53183484D01*
X181766516Y-53183484D01*
X181766516Y-53048332D01*
X181766516Y-52913179D01*
X181901668Y-52913179D01*
X182036821Y-52913179D01*
X182036821Y-52778026D01*
X182036821Y-52642873D01*
X181901668Y-52642873D01*
X181766516Y-52642873D01*
X181766516Y-52778026D01*
X181766516Y-52913179D01*
X181496210Y-52913179D01*
X181225905Y-52913179D01*
X181225905Y-52778026D01*
X181225905Y-52642873D01*
X181090752Y-52642873D01*
X180955599Y-52642873D01*
X180955599Y-52507721D01*
X180955599Y-52372568D01*
X181496210Y-52372568D01*
X182036821Y-52372568D01*
X182036821Y-52237415D01*
X182036821Y-52102262D01*
X181901668Y-52102262D01*
X181766516Y-52102262D01*
X181766516Y-51967109D01*
X181766516Y-51831957D01*
X181901668Y-51831957D01*
X182036821Y-51831957D01*
X182307127Y-51831957D01*
X182307127Y-52237415D01*
X182307127Y-52642873D01*
X182712585Y-52642873D01*
X183118043Y-52642873D01*
X183118043Y-52372568D01*
X183658654Y-52372568D01*
X183658654Y-52642873D01*
X183658654Y-52913179D01*
X183928960Y-52913179D01*
X184199265Y-52913179D01*
X184199265Y-52778026D01*
X184199265Y-52642873D01*
X184064113Y-52642873D01*
X183928960Y-52642873D01*
X183928960Y-52507721D01*
X183928960Y-52372568D01*
X184469571Y-52372568D01*
X184469571Y-52507721D01*
X184469571Y-52642873D01*
X184604724Y-52642873D01*
X184739876Y-52642873D01*
X184739876Y-52778026D01*
X184739876Y-52913179D01*
X184875029Y-52913179D01*
X185010182Y-52913179D01*
X185010182Y-53048332D01*
X185010182Y-53183484D01*
X184875029Y-53183484D01*
X184739876Y-53183484D01*
X184739876Y-53453790D01*
X184739876Y-53724095D01*
X184875029Y-53724095D01*
X185010182Y-53724095D01*
X185010182Y-53588943D01*
X185010182Y-53453790D01*
X185415640Y-53453790D01*
X185821099Y-53453790D01*
X186091404Y-53453790D01*
X186091404Y-53588943D01*
X186091404Y-53724095D01*
X186361710Y-53724095D01*
X186632015Y-53724095D01*
X186632015Y-53588943D01*
X186632015Y-53453790D01*
X186361710Y-53453790D01*
X186091404Y-53453790D01*
X185821099Y-53453790D01*
X185821099Y-53183484D01*
X185821099Y-52913179D01*
X186091404Y-52913179D01*
X186091404Y-53048332D01*
X186091404Y-53183484D01*
X186361710Y-53183484D01*
X186632015Y-53183484D01*
X186902321Y-53183484D01*
X186902321Y-53318637D01*
X186902321Y-53453790D01*
X187037473Y-53453790D01*
X187172626Y-53453790D01*
X187172626Y-53318637D01*
X187172626Y-53183484D01*
X187037473Y-53183484D01*
X186902321Y-53183484D01*
X186632015Y-53183484D01*
X186632015Y-53048332D01*
X186632015Y-52913179D01*
X186361710Y-52913179D01*
X186091404Y-52913179D01*
X185821099Y-52913179D01*
X185685946Y-52913179D01*
X185550793Y-52913179D01*
X185550793Y-52642873D01*
X185550793Y-52372568D01*
X185685946Y-52372568D01*
X185821099Y-52372568D01*
X185821099Y-52507721D01*
X185821099Y-52642873D01*
X185956251Y-52642873D01*
X186091404Y-52642873D01*
X186091404Y-52372568D01*
X186361710Y-52372568D01*
X186361710Y-52507721D01*
X186361710Y-52642873D01*
X186496862Y-52642873D01*
X186632015Y-52642873D01*
X186632015Y-52507721D01*
X186632015Y-52372568D01*
X186496862Y-52372568D01*
X186361710Y-52372568D01*
X186091404Y-52372568D01*
X186091404Y-52102262D01*
X186496862Y-52102262D01*
X186902321Y-52102262D01*
X186902321Y-52237415D01*
X186902321Y-52372568D01*
X187172626Y-52372568D01*
X187442932Y-52372568D01*
X187442932Y-52237415D01*
X187442932Y-52102262D01*
X187307779Y-52102262D01*
X187172626Y-52102262D01*
X187172626Y-51967109D01*
X187172626Y-51831957D01*
X186496862Y-51831957D01*
X185821099Y-51831957D01*
X185821099Y-51967109D01*
X185821099Y-52102262D01*
X185685946Y-52102262D01*
X185550793Y-52102262D01*
X185550793Y-52237415D01*
X185550793Y-52372568D01*
X185415640Y-52372568D01*
X185280487Y-52372568D01*
X185280487Y-52237415D01*
X185280487Y-52102262D01*
X185010182Y-52102262D01*
X184739876Y-52102262D01*
X184739876Y-52237415D01*
X184739876Y-52372568D01*
X184604724Y-52372568D01*
X184469571Y-52372568D01*
X183928960Y-52372568D01*
X183793807Y-52372568D01*
X183658654Y-52372568D01*
X183118043Y-52372568D01*
X183118043Y-52237415D01*
X183118043Y-51831957D01*
X182712585Y-51831957D01*
X182307127Y-51831957D01*
X182036821Y-51831957D01*
X182036821Y-51696804D01*
X182036821Y-51561651D01*
X181901668Y-51561651D01*
X181766516Y-51561651D01*
X181766516Y-51426498D01*
X181766516Y-51291346D01*
X181631363Y-51291346D01*
X181496210Y-51291346D01*
X181496210Y-51426498D01*
X181496210Y-51561651D01*
X181361057Y-51561651D01*
X181225905Y-51561651D01*
X181225905Y-51426498D01*
X181225905Y-51291346D01*
X181090752Y-51291346D01*
X180955599Y-51291346D01*
X180955599Y-51021040D01*
X180955599Y-50750735D01*
X181090752Y-50750735D01*
X181225905Y-50750735D01*
X181225905Y-50885887D01*
X181225905Y-51021040D01*
X181361057Y-51021040D01*
X181496210Y-51021040D01*
X181496210Y-50885887D01*
X181496210Y-50750735D01*
X181361057Y-50750735D01*
X181225905Y-50750735D01*
X181225905Y-50615582D01*
X181225905Y-50480429D01*
X181631363Y-50480429D01*
X182036821Y-50480429D01*
X182036821Y-50210124D01*
X182036821Y-49939818D01*
X181901668Y-49939818D01*
X181766516Y-49939818D01*
X181766516Y-50074971D01*
X181766516Y-50210124D01*
X181496210Y-50210124D01*
X181225905Y-50210124D01*
X181225905Y-50074971D01*
X181225905Y-49939818D01*
X181090752Y-49939818D01*
X180955599Y-49939818D01*
X180955599Y-49804665D01*
X180955599Y-49669513D01*
X181225905Y-49669513D01*
X181496210Y-49669513D01*
X181496210Y-49804665D01*
X181496210Y-49939818D01*
X181631363Y-49939818D01*
X181766516Y-49939818D01*
X181766516Y-49804665D01*
X181766516Y-49669513D01*
X181631363Y-49669513D01*
X181496210Y-49669513D01*
X181496210Y-49534360D01*
X181766516Y-49534360D01*
X181766516Y-49669513D01*
X181901668Y-49669513D01*
X182036821Y-49669513D01*
X182307127Y-49669513D01*
X182307127Y-49939818D01*
X182442279Y-49939818D01*
X182577432Y-49939818D01*
X182577432Y-49804665D01*
X183928960Y-49804665D01*
X183928960Y-49939818D01*
X184064113Y-49939818D01*
X184199265Y-49939818D01*
X184199265Y-49804665D01*
X184199265Y-49669513D01*
X184064113Y-49669513D01*
X183928960Y-49669513D01*
X183928960Y-49804665D01*
X182577432Y-49804665D01*
X182577432Y-49669513D01*
X182577432Y-49399207D01*
X182442279Y-49399207D01*
X182307127Y-49399207D01*
X182307127Y-49534360D01*
X182307127Y-49669513D01*
X182036821Y-49669513D01*
X182036821Y-49534360D01*
X182036821Y-49399207D01*
X181901668Y-49399207D01*
X181766516Y-49399207D01*
X181766516Y-49534360D01*
X181496210Y-49534360D01*
X181496210Y-49264054D01*
X181496210Y-48858596D01*
X181361057Y-48858596D01*
X181225905Y-48858596D01*
X181225905Y-48723443D01*
X181225905Y-48588290D01*
X181361057Y-48588290D01*
X181496210Y-48588290D01*
X181496210Y-48723443D01*
X181496210Y-48858596D01*
X181631363Y-48858596D01*
X181766516Y-48858596D01*
X181766516Y-48317985D01*
X181766516Y-48047679D01*
X182036821Y-48047679D01*
X182036821Y-48182832D01*
X182036821Y-48317985D01*
X182171974Y-48317985D01*
X182307127Y-48317985D01*
X182307127Y-48182832D01*
X182307127Y-48047679D01*
X182171974Y-48047679D01*
X182036821Y-48047679D01*
X181766516Y-48047679D01*
X181766516Y-47777374D01*
X181631363Y-47777374D01*
X181496210Y-47777374D01*
X181496210Y-47912527D01*
X181496210Y-48047679D01*
X181225905Y-48047679D01*
X180955599Y-48047679D01*
X180955599Y-47642221D01*
X180955599Y-47236763D01*
X181225905Y-47236763D01*
X181496210Y-47236763D01*
X181496210Y-47371916D01*
X181496210Y-47507068D01*
X181631363Y-47507068D01*
X181766516Y-47507068D01*
X181766516Y-47371916D01*
X181766516Y-47236763D01*
X181901668Y-47236763D01*
X182036821Y-47236763D01*
X182036821Y-47507068D01*
X182036821Y-47777374D01*
X182171974Y-47777374D01*
X182307127Y-47777374D01*
X182307127Y-47642221D01*
X182307127Y-47507068D01*
X182442279Y-47507068D01*
X182577432Y-47507068D01*
X182577432Y-47371916D01*
X182577432Y-47236763D01*
X182712585Y-47236763D01*
X182847738Y-47236763D01*
X182847738Y-47642221D01*
X182847738Y-48047679D01*
X182712585Y-48047679D01*
X182577432Y-48047679D01*
X182577432Y-48182832D01*
X182577432Y-48453138D01*
X182577432Y-48858596D01*
X182442279Y-48858596D01*
X182307127Y-48858596D01*
X182307127Y-48723443D01*
X182307127Y-48588290D01*
X182171974Y-48588290D01*
X182036821Y-48588290D01*
X182036821Y-48723443D01*
X182036821Y-48858596D01*
X181901668Y-48858596D01*
X181766516Y-48858596D01*
X181766516Y-48993749D01*
X181766516Y-49128901D01*
X182171974Y-49128901D01*
X182577432Y-49128901D01*
X182577432Y-48993749D01*
X182577432Y-48858596D01*
X182712585Y-48858596D01*
X182847738Y-48858596D01*
X182847738Y-48993749D01*
X182847738Y-49128901D01*
X182982891Y-49128901D01*
X183118043Y-49128901D01*
X183118043Y-49399207D01*
X183118043Y-49669513D01*
X183253196Y-49669513D01*
X183388349Y-49669513D01*
X183388349Y-49534360D01*
X183388349Y-49399207D01*
X183658654Y-49399207D01*
X183928960Y-49399207D01*
X184199265Y-49399207D01*
X184199265Y-49534360D01*
X184199265Y-49669513D01*
X184334418Y-49669513D01*
X184469571Y-49669513D01*
X184469571Y-49534360D01*
X184469571Y-49399207D01*
X184334418Y-49399207D01*
X184199265Y-49399207D01*
X183928960Y-49399207D01*
X183928960Y-48993749D01*
X183928960Y-48588290D01*
X184064113Y-48588290D01*
X184199265Y-48588290D01*
X184199265Y-48858596D01*
X184199265Y-49128901D01*
X184469571Y-49128901D01*
X184739876Y-49128901D01*
X184739876Y-49264054D01*
X184739876Y-49399207D01*
X184875029Y-49399207D01*
X185010182Y-49399207D01*
X185010182Y-49534360D01*
X185010182Y-49669513D01*
X185145335Y-49669513D01*
X185280487Y-49669513D01*
X185280487Y-49264054D01*
X185280487Y-48858596D01*
X185010182Y-48858596D01*
X184739876Y-48858596D01*
X184739876Y-48588290D01*
X184739876Y-48317985D01*
X184469571Y-48317985D01*
X184199265Y-48317985D01*
X184199265Y-48047679D01*
X184199265Y-47777374D01*
X184469571Y-47777374D01*
X184469571Y-47912527D01*
X184469571Y-48047679D01*
X184739876Y-48047679D01*
X185010182Y-48047679D01*
X185010182Y-47912527D01*
X185010182Y-47777374D01*
X184739876Y-47777374D01*
X184469571Y-47777374D01*
X184199265Y-47777374D01*
X184064113Y-47777374D01*
X183928960Y-47777374D01*
X183928960Y-48182832D01*
X183928960Y-48588290D01*
X183658654Y-48588290D01*
X183388349Y-48588290D01*
X183388349Y-48723443D01*
X183388349Y-48858596D01*
X183253196Y-48858596D01*
X183118043Y-48858596D01*
X183118043Y-48723443D01*
X183118043Y-48588290D01*
X182982891Y-48588290D01*
X182847738Y-48588290D01*
X182847738Y-48453138D01*
X182847738Y-48317985D01*
X183253196Y-48317985D01*
X183658654Y-48317985D01*
X183658654Y-48182832D01*
X183658654Y-48047679D01*
X183523502Y-48047679D01*
X183388349Y-48047679D01*
X183388349Y-47777374D01*
X183388349Y-47642221D01*
X183658654Y-47642221D01*
X183658654Y-47777374D01*
X183793807Y-47777374D01*
X183928960Y-47777374D01*
X183928960Y-47642221D01*
X183928960Y-47507068D01*
X183793807Y-47507068D01*
X183658654Y-47507068D01*
X183658654Y-47642221D01*
X183388349Y-47642221D01*
X183388349Y-47507068D01*
X183523502Y-47507068D01*
X183658654Y-47507068D01*
X183658654Y-47371916D01*
X183658654Y-47236763D01*
X183928960Y-47236763D01*
X184199265Y-47236763D01*
X184199265Y-47371916D01*
X184199265Y-47507068D01*
X184334418Y-47507068D01*
X184469571Y-47507068D01*
X184469571Y-47371916D01*
X184469571Y-47236763D01*
X184739876Y-47236763D01*
X185010182Y-47236763D01*
X185010182Y-47507068D01*
X185010182Y-47777374D01*
X185145335Y-47777374D01*
X185280487Y-47777374D01*
X185280487Y-47507068D01*
X185280487Y-47236763D01*
X185415640Y-47236763D01*
X185550793Y-47236763D01*
X185550793Y-47777374D01*
X185550793Y-47912527D01*
X185550793Y-48317985D01*
G37*
G36*
X182712585Y-53724095D02*
G01*
X182847738Y-53724095D01*
X182847738Y-53859248D01*
X182847738Y-53994401D01*
X182712585Y-53994401D01*
X182577432Y-53994401D01*
X182577432Y-53859248D01*
X182577432Y-53724095D01*
X182712585Y-53724095D01*
G37*
G36*
X184064113Y-53724095D02*
G01*
X184199265Y-53724095D01*
X184199265Y-53859248D01*
X184199265Y-53994401D01*
X184064113Y-53994401D01*
X183928960Y-53994401D01*
X183928960Y-53859248D01*
X183928960Y-53724095D01*
X184064113Y-53724095D01*
G37*
G36*
X187578084Y-53724095D02*
G01*
X187713237Y-53724095D01*
X187713237Y-53859248D01*
X187713237Y-53994401D01*
X187578084Y-53994401D01*
X187442932Y-53994401D01*
X187442932Y-53859248D01*
X187442932Y-53724095D01*
X187578084Y-53724095D01*
G37*
G36*
X189875681Y-50480429D02*
G01*
X189875681Y-51021040D01*
X189605376Y-51021040D01*
X189335070Y-51021040D01*
X189335070Y-51156193D01*
X189335070Y-51291346D01*
X189199918Y-51291346D01*
X189064765Y-51291346D01*
X189064765Y-51021040D01*
X189064765Y-50750735D01*
X188929612Y-50750735D01*
X188794459Y-50750735D01*
X188794459Y-51021040D01*
X188794459Y-51291346D01*
X188929612Y-51291346D01*
X189064765Y-51291346D01*
X189064765Y-51426498D01*
X189064765Y-51561651D01*
X189199918Y-51561651D01*
X189335070Y-51561651D01*
X189335070Y-51426498D01*
X189335070Y-51291346D01*
X189470223Y-51291346D01*
X189605376Y-51291346D01*
X189605376Y-51426498D01*
X189605376Y-51561651D01*
X189470223Y-51561651D01*
X189335070Y-51561651D01*
X189335070Y-51696804D01*
X189335070Y-51831957D01*
X189199918Y-51831957D01*
X189064765Y-51831957D01*
X189064765Y-51696804D01*
X189064765Y-51561651D01*
X188929612Y-51561651D01*
X188794459Y-51561651D01*
X188794459Y-51696804D01*
X188794459Y-51831957D01*
X188659307Y-51831957D01*
X188524154Y-51831957D01*
X188524154Y-51561651D01*
X188524154Y-51291346D01*
X188253848Y-51291346D01*
X187983543Y-51291346D01*
X187983543Y-51156193D01*
X187983543Y-51021040D01*
X188253848Y-51021040D01*
X188524154Y-51021040D01*
X188524154Y-50750735D01*
X188524154Y-50480429D01*
X188929612Y-50480429D01*
X189335070Y-50480429D01*
X189335070Y-50615582D01*
X189335070Y-50750735D01*
X189470223Y-50750735D01*
X189605376Y-50750735D01*
X189605376Y-50480429D01*
X189605376Y-50210124D01*
X189470223Y-50210124D01*
X189335070Y-50210124D01*
X189335070Y-50074971D01*
X189335070Y-49939818D01*
X189605376Y-49939818D01*
X189875681Y-49939818D01*
X189875681Y-50480429D01*
G37*
G36*
X189740529Y-51561651D02*
G01*
X189875681Y-51561651D01*
X189875681Y-51696804D01*
X189875681Y-51831957D01*
X189740529Y-51831957D01*
X189605376Y-51831957D01*
X189605376Y-51696804D01*
X189605376Y-51561651D01*
X189740529Y-51561651D01*
G37*
G36*
X187307779Y-50480429D02*
G01*
X187442932Y-50480429D01*
X187442932Y-50750735D01*
X187442932Y-51021040D01*
X187307779Y-51021040D01*
X187172626Y-51021040D01*
X187172626Y-50750735D01*
X187172626Y-50480429D01*
X187307779Y-50480429D01*
G37*
G36*
X187172626Y-49804665D02*
G01*
X187172626Y-49939818D01*
X187037473Y-49939818D01*
X186902321Y-49939818D01*
X186902321Y-49804665D01*
X186902321Y-49669513D01*
X187037473Y-49669513D01*
X187172626Y-49669513D01*
X187172626Y-49804665D01*
G37*
G36*
X183388349Y-47371916D02*
G01*
X183388349Y-47507068D01*
X183253196Y-47507068D01*
X183118043Y-47507068D01*
X183118043Y-47371916D01*
X183118043Y-47236763D01*
X183253196Y-47236763D01*
X183388349Y-47236763D01*
X183388349Y-47371916D01*
G37*
G36*
X183793807Y-45614930D02*
G01*
X183928960Y-45614930D01*
X183928960Y-46020388D01*
X183928960Y-46425846D01*
X184064113Y-46425846D01*
X184199265Y-46425846D01*
X184199265Y-46155541D01*
X184199265Y-45885235D01*
X184334418Y-45885235D01*
X184469571Y-45885235D01*
X184469571Y-46155541D01*
X184469571Y-46425846D01*
X184739876Y-46425846D01*
X185010182Y-46425846D01*
X185010182Y-46290693D01*
X185010182Y-46155541D01*
X185145335Y-46155541D01*
X185280487Y-46155541D01*
X185280487Y-46290693D01*
X185280487Y-46425846D01*
X185145335Y-46425846D01*
X185010182Y-46425846D01*
X185010182Y-46696152D01*
X185010182Y-46966457D01*
X185145335Y-46966457D01*
X185280487Y-46966457D01*
X185280487Y-46831304D01*
X185280487Y-46696152D01*
X185415640Y-46696152D01*
X185550793Y-46696152D01*
X185550793Y-46831304D01*
X185550793Y-46966457D01*
X185415640Y-46966457D01*
X185280487Y-46966457D01*
X185280487Y-47101610D01*
X185280487Y-47236763D01*
X185145335Y-47236763D01*
X185010182Y-47236763D01*
X185010182Y-47101610D01*
X185010182Y-46966457D01*
X184875029Y-46966457D01*
X184739876Y-46966457D01*
X184739876Y-46831304D01*
X184739876Y-46696152D01*
X184604724Y-46696152D01*
X184469571Y-46696152D01*
X184469571Y-46966457D01*
X184469571Y-47236763D01*
X184334418Y-47236763D01*
X184199265Y-47236763D01*
X184199265Y-46966457D01*
X184199265Y-46696152D01*
X184064113Y-46696152D01*
X183928960Y-46696152D01*
X183928960Y-46831304D01*
X183928960Y-46966457D01*
X183793807Y-46966457D01*
X183658654Y-46966457D01*
X183658654Y-47101610D01*
X183658654Y-47236763D01*
X183523502Y-47236763D01*
X183388349Y-47236763D01*
X183388349Y-47101610D01*
X183388349Y-46966457D01*
X183253196Y-46966457D01*
X183118043Y-46966457D01*
X183118043Y-46560999D01*
X183118043Y-46155541D01*
X183253196Y-46155541D01*
X183388349Y-46155541D01*
X183388349Y-46560999D01*
X183388349Y-46966457D01*
X183523502Y-46966457D01*
X183658654Y-46966457D01*
X183658654Y-46290693D01*
X183658654Y-45614930D01*
X183793807Y-45614930D01*
G37*
G36*
X183658654Y-45344624D02*
G01*
X183658654Y-45614930D01*
X183523502Y-45614930D01*
X183388349Y-45614930D01*
X183388349Y-45750082D01*
X183388349Y-45885235D01*
X183253196Y-45885235D01*
X183118043Y-45885235D01*
X183118043Y-45614930D01*
X183118043Y-45344624D01*
X183253196Y-45344624D01*
X183388349Y-45344624D01*
X183388349Y-45209471D01*
X183388349Y-45074319D01*
X183523502Y-45074319D01*
X183658654Y-45074319D01*
X183658654Y-45344624D01*
G37*
%TD*%
M02*
