M48
; DRILL file {KiCad 8.0.4} date 2024-12-12T22:31:39-0500
; FORMAT={-:-/ absolute / inch / decimal}
; #@! TF.CreationDate,2024-12-12T22:31:39-05:00
; #@! TF.GenerationSoftware,Kicad,Pcbnew,8.0.4
; #@! TF.FileFunction,Plated,1,2,PTH
FMAT,2
INCH
; #@! TA.AperFunction,Plated,PTH,ViaDrill
T1C0.0118
; #@! TA.AperFunction,Plated,PTH,ComponentDrill
T2C0.0394
; #@! TA.AperFunction,Plated,PTH,ComponentDrill
T3C0.0630
%
G90
G05
T1
X7.07Y-2.9
X7.07Y-2.945
X7.07Y-2.99
X7.115Y-2.9
X7.115Y-2.945
X7.115Y-2.99
X7.16Y-1.885
X7.16Y-1.935
X7.16Y-1.985
X7.16Y-2.035
X7.16Y-2.085
X7.16Y-2.135
X7.16Y-2.185
X7.16Y-2.9
X7.16Y-2.945
X7.16Y-2.99
X7.21Y-1.885
X7.21Y-1.935
X7.21Y-1.985
X7.21Y-2.035
X7.21Y-2.085
X7.21Y-2.135
X7.21Y-2.185
X7.26Y-1.885
X7.26Y-1.935
X7.26Y-1.985
X7.26Y-2.035
X7.26Y-2.085
X7.26Y-2.135
X7.26Y-2.185
X7.3Y-2.27
X7.3Y-2.315
X7.3Y-2.365
X7.3Y-2.415
X7.3Y-2.465
X7.31Y-1.885
X7.31Y-1.935
X7.31Y-1.985
X7.31Y-2.035
X7.31Y-2.085
X7.31Y-2.135
X7.31Y-2.185
X7.36Y-1.885
X7.36Y-1.935
X7.36Y-1.985
X7.36Y-2.035
X7.36Y-2.085
X7.36Y-2.135
X7.36Y-2.185
X7.41Y-1.885
X7.41Y-1.935
X7.41Y-1.985
X7.41Y-2.035
X7.41Y-2.085
X7.41Y-2.135
X7.41Y-2.185
X7.455Y-2.695
X7.46Y-1.885
X7.46Y-1.935
X7.46Y-1.985
X7.46Y-2.035
X7.46Y-2.085
X7.46Y-2.135
X7.46Y-2.185
X7.495Y-2.695
X7.535Y-2.695
T2
X7.15Y-1.5
X7.15Y-1.6
X7.15Y-1.7
X7.45Y-1.5
X7.45Y-1.6
X7.45Y-1.7
T3
X7.3Y-2.7138
X7.3Y-2.95
X7.485Y-2.8319
M30
