%TF.GenerationSoftware,KiCad,Pcbnew,8.0.4*%
%TF.CreationDate,2024-12-12T22:31:33-05:00*%
%TF.ProjectId,BarrelJackAdapter,42617272-656c-44a6-9163-6b4164617074,rev?*%
%TF.SameCoordinates,Original*%
%TF.FileFunction,Legend,Bot*%
%TF.FilePolarity,Positive*%
%FSLAX46Y46*%
G04 Gerber Fmt 4.6, Leading zero omitted, Abs format (unit mm)*
G04 Created by KiCad (PCBNEW 8.0.4) date 2024-12-12 22:31:33*
%MOMM*%
%LPD*%
G01*
G04 APERTURE LIST*
%ADD10C,0.000000*%
G04 APERTURE END LIST*
D10*
%TO.C,G\u002A\u002A\u002A*%
G36*
X190129681Y-56016068D02*
G01*
X190129681Y-56286374D01*
X189994529Y-56286374D01*
X189859376Y-56286374D01*
X189859376Y-56016068D01*
X189859376Y-55745763D01*
X189994529Y-55745763D01*
X190129681Y-55745763D01*
X190129681Y-56016068D01*
G37*
G36*
X189589070Y-54529388D02*
G01*
X189589070Y-54934846D01*
X189183612Y-54934846D01*
X188778154Y-54934846D01*
X188778154Y-54529388D01*
X188778154Y-54123930D01*
X189183612Y-54123930D01*
X189589070Y-54123930D01*
X189589070Y-54529388D01*
G37*
G36*
X189589070Y-61557332D02*
G01*
X189589070Y-61962790D01*
X189183612Y-61962790D01*
X188778154Y-61962790D01*
X188778154Y-61557332D01*
X188778154Y-61151873D01*
X189183612Y-61151873D01*
X189589070Y-61151873D01*
X189589070Y-61557332D01*
G37*
G36*
X187967237Y-53853624D02*
G01*
X187967237Y-54123930D01*
X187832084Y-54123930D01*
X187696932Y-54123930D01*
X187696932Y-53853624D01*
X187696932Y-53583319D01*
X187832084Y-53583319D01*
X187967237Y-53583319D01*
X187967237Y-53853624D01*
G37*
G36*
X186615710Y-57232443D02*
G01*
X186615710Y-57367596D01*
X186480557Y-57367596D01*
X186345404Y-57367596D01*
X186345404Y-57232443D01*
X186345404Y-57097290D01*
X186480557Y-57097290D01*
X186615710Y-57097290D01*
X186615710Y-57232443D01*
G37*
G36*
X186345404Y-55475457D02*
G01*
X186345404Y-55745763D01*
X186210251Y-55745763D01*
X186075099Y-55745763D01*
X186075099Y-55475457D01*
X186075099Y-55205152D01*
X186210251Y-55205152D01*
X186345404Y-55205152D01*
X186345404Y-55475457D01*
G37*
G36*
X185534487Y-61287026D02*
G01*
X185534487Y-61422179D01*
X185399335Y-61422179D01*
X185264182Y-61422179D01*
X185264182Y-61287026D01*
X185264182Y-61151873D01*
X185399335Y-61151873D01*
X185534487Y-61151873D01*
X185534487Y-61287026D01*
G37*
G36*
X184993876Y-54259082D02*
G01*
X184993876Y-54394235D01*
X184858724Y-54394235D01*
X184723571Y-54394235D01*
X184723571Y-54259082D01*
X184723571Y-54123930D01*
X184858724Y-54123930D01*
X184993876Y-54123930D01*
X184993876Y-54259082D01*
G37*
G36*
X184993876Y-59935498D02*
G01*
X184993876Y-60070651D01*
X184858724Y-60070651D01*
X184723571Y-60070651D01*
X184723571Y-59935498D01*
X184723571Y-59800346D01*
X184858724Y-59800346D01*
X184993876Y-59800346D01*
X184993876Y-59935498D01*
G37*
G36*
X184182960Y-60205804D02*
G01*
X184182960Y-60340957D01*
X184047807Y-60340957D01*
X183912654Y-60340957D01*
X183912654Y-60205804D01*
X183912654Y-60070651D01*
X184047807Y-60070651D01*
X184182960Y-60070651D01*
X184182960Y-60205804D01*
G37*
G36*
X183101738Y-60746415D02*
G01*
X183101738Y-60881568D01*
X182966585Y-60881568D01*
X182831432Y-60881568D01*
X182831432Y-60746415D01*
X182831432Y-60611262D01*
X182966585Y-60611262D01*
X183101738Y-60611262D01*
X183101738Y-60746415D01*
G37*
G36*
X182561127Y-54529388D02*
G01*
X182561127Y-54934846D01*
X182155668Y-54934846D01*
X181750210Y-54934846D01*
X181750210Y-54529388D01*
X181750210Y-54123930D01*
X182155668Y-54123930D01*
X182561127Y-54123930D01*
X182561127Y-54529388D01*
G37*
G36*
X182020516Y-62368248D02*
G01*
X182020516Y-62503401D01*
X181885363Y-62503401D01*
X181750210Y-62503401D01*
X181750210Y-62368248D01*
X181750210Y-62233095D01*
X181885363Y-62233095D01*
X182020516Y-62233095D01*
X182020516Y-62368248D01*
G37*
G36*
X181479905Y-60476109D02*
G01*
X181479905Y-60611262D01*
X181344752Y-60611262D01*
X181209599Y-60611262D01*
X181209599Y-60476109D01*
X181209599Y-60340957D01*
X181344752Y-60340957D01*
X181479905Y-60340957D01*
X181479905Y-60476109D01*
G37*
G36*
X181479905Y-61557332D02*
G01*
X181479905Y-61692484D01*
X181344752Y-61692484D01*
X181209599Y-61692484D01*
X181209599Y-61557332D01*
X181209599Y-61422179D01*
X181344752Y-61422179D01*
X181479905Y-61422179D01*
X181479905Y-61557332D01*
G37*
G36*
X181479905Y-62097943D02*
G01*
X181479905Y-62233095D01*
X181344752Y-62233095D01*
X181209599Y-62233095D01*
X181209599Y-62097943D01*
X181209599Y-61962790D01*
X181344752Y-61962790D01*
X181479905Y-61962790D01*
X181479905Y-62097943D01*
G37*
G36*
X190129681Y-55475457D02*
G01*
X189183612Y-55475457D01*
X188237543Y-55475457D01*
X188237543Y-54529388D01*
X188237543Y-53871063D01*
X188525287Y-53871063D01*
X188525287Y-54529388D01*
X188525287Y-55187713D01*
X189183612Y-55187713D01*
X189841937Y-55187713D01*
X189841937Y-54529388D01*
X189841937Y-53871063D01*
X189183612Y-53871063D01*
X188525287Y-53871063D01*
X188237543Y-53871063D01*
X188237543Y-53583319D01*
X189183612Y-53583319D01*
X190129681Y-53583319D01*
X190129681Y-54529388D01*
X190129681Y-55475457D01*
G37*
G36*
X190129681Y-62503401D02*
G01*
X189183612Y-62503401D01*
X188237543Y-62503401D01*
X188237543Y-61557332D01*
X188237543Y-60899007D01*
X188525287Y-60899007D01*
X188525287Y-61557332D01*
X188525287Y-62215656D01*
X189183612Y-62215656D01*
X189841937Y-62215656D01*
X189841937Y-61557332D01*
X189841937Y-60899007D01*
X189183612Y-60899007D01*
X188525287Y-60899007D01*
X188237543Y-60899007D01*
X188237543Y-60611262D01*
X189183612Y-60611262D01*
X190129681Y-60611262D01*
X190129681Y-61557332D01*
X190129681Y-62503401D01*
G37*
G36*
X183101738Y-55475457D02*
G01*
X182155668Y-55475457D01*
X181209599Y-55475457D01*
X181209599Y-54529388D01*
X181209599Y-53871063D01*
X181497344Y-53871063D01*
X181497344Y-54529388D01*
X181497344Y-55187713D01*
X182155668Y-55187713D01*
X182813993Y-55187713D01*
X182813993Y-54529388D01*
X182813993Y-53871063D01*
X182155668Y-53871063D01*
X181497344Y-53871063D01*
X181209599Y-53871063D01*
X181209599Y-53583319D01*
X182155668Y-53583319D01*
X183101738Y-53583319D01*
X183101738Y-54529388D01*
X183101738Y-55475457D01*
G37*
G36*
X185129029Y-58989429D02*
G01*
X185264182Y-58989429D01*
X185264182Y-59259735D01*
X185264182Y-59530040D01*
X185534487Y-59530040D01*
X185804793Y-59530040D01*
X185804793Y-59800346D01*
X185804793Y-60070651D01*
X185669640Y-60070651D01*
X185534487Y-60070651D01*
X185534487Y-59935498D01*
X185534487Y-59800346D01*
X185264182Y-59800346D01*
X184993876Y-59800346D01*
X184993876Y-59394887D01*
X184993876Y-58989429D01*
X185129029Y-58989429D01*
G37*
G36*
X184993876Y-58854276D02*
G01*
X184993876Y-58989429D01*
X184858724Y-58989429D01*
X184723571Y-58989429D01*
X184723571Y-58854276D01*
X184723571Y-58719124D01*
X184858724Y-58719124D01*
X184993876Y-58719124D01*
X184993876Y-58854276D01*
G37*
G36*
X185939946Y-54394235D02*
G01*
X186345404Y-54394235D01*
X186345404Y-54664541D01*
X186345404Y-54934846D01*
X186210251Y-54934846D01*
X186075099Y-54934846D01*
X186075099Y-54799693D01*
X186075099Y-54664541D01*
X185804793Y-54664541D01*
X185534487Y-54664541D01*
X185534487Y-54529388D01*
X185534487Y-54394235D01*
X185939946Y-54394235D01*
G37*
G36*
X185804793Y-54123930D02*
G01*
X185669640Y-54123930D01*
X185534487Y-54123930D01*
X185534487Y-54259082D01*
X185534487Y-54394235D01*
X185399335Y-54394235D01*
X185264182Y-54394235D01*
X185264182Y-54259082D01*
X185264182Y-54123930D01*
X185129029Y-54123930D01*
X184993876Y-54123930D01*
X184993876Y-53988777D01*
X184993876Y-53853624D01*
X185264182Y-53853624D01*
X185264182Y-53988777D01*
X185264182Y-54123930D01*
X185399335Y-54123930D01*
X185534487Y-54123930D01*
X185534487Y-53988777D01*
X185534487Y-53853624D01*
X185399335Y-53853624D01*
X185264182Y-53853624D01*
X184993876Y-53853624D01*
X184588418Y-53853624D01*
X184182960Y-53853624D01*
X184182960Y-53718471D01*
X184182960Y-53583319D01*
X184993876Y-53583319D01*
X185804793Y-53583319D01*
X185804793Y-53853624D01*
X185804793Y-53988777D01*
X185804793Y-54123930D01*
G37*
G36*
X189318765Y-56826985D02*
G01*
X189453918Y-56826985D01*
X189589070Y-56826985D01*
X189589070Y-56691832D01*
X189589070Y-56556679D01*
X189724223Y-56556679D01*
X189859376Y-56556679D01*
X189859376Y-56691832D01*
X189859376Y-56826985D01*
X189994529Y-56826985D01*
X190129681Y-56826985D01*
X190129681Y-57097290D01*
X190129681Y-57367596D01*
X189994529Y-57367596D01*
X189859376Y-57367596D01*
X189859376Y-57232443D01*
X189859376Y-57097290D01*
X189453918Y-57097290D01*
X189048459Y-57097290D01*
X189048459Y-57232443D01*
X189048459Y-57367596D01*
X189048459Y-57637901D01*
X189183612Y-57637901D01*
X189318765Y-57637901D01*
X189318765Y-57502749D01*
X189318765Y-57367596D01*
X189589070Y-57367596D01*
X189859376Y-57367596D01*
X189859376Y-57502749D01*
X189859376Y-57637901D01*
X189724223Y-57637901D01*
X189589070Y-57637901D01*
X189589070Y-57773054D01*
X189589070Y-57908207D01*
X189589070Y-58178513D01*
X189453918Y-58178513D01*
X189318765Y-58178513D01*
X189318765Y-58313665D01*
X189318765Y-58448818D01*
X189183612Y-58448818D01*
X189048459Y-58448818D01*
X189048459Y-58178513D01*
X189048459Y-57908207D01*
X188913307Y-57908207D01*
X188778154Y-57908207D01*
X188778154Y-58043360D01*
X188778154Y-58178513D01*
X188102390Y-58178513D01*
X187426626Y-58178513D01*
X187426626Y-57908207D01*
X187426626Y-57637901D01*
X187561779Y-57637901D01*
X187696932Y-57637901D01*
X187696932Y-57773054D01*
X187696932Y-57908207D01*
X187832084Y-57908207D01*
X187967237Y-57908207D01*
X187967237Y-57773054D01*
X187967237Y-57637901D01*
X188237543Y-57637901D01*
X188237543Y-57773054D01*
X188237543Y-57908207D01*
X188507848Y-57908207D01*
X188778154Y-57908207D01*
X188778154Y-57773054D01*
X188778154Y-57637901D01*
X188507848Y-57637901D01*
X188237543Y-57637901D01*
X187967237Y-57637901D01*
X187832084Y-57637901D01*
X187696932Y-57637901D01*
X187696932Y-57367596D01*
X187696932Y-57097290D01*
X187561779Y-57097290D01*
X187426626Y-57097290D01*
X187426626Y-57232443D01*
X187426626Y-57367596D01*
X187291473Y-57367596D01*
X187156321Y-57367596D01*
X187156321Y-57232443D01*
X187156321Y-57097290D01*
X187291473Y-57097290D01*
X187426626Y-57097290D01*
X187426626Y-56962138D01*
X187426626Y-56826985D01*
X187561779Y-56826985D01*
X187696932Y-56826985D01*
X187696932Y-56691832D01*
X187696932Y-56556679D01*
X187561779Y-56556679D01*
X187426626Y-56556679D01*
X187426626Y-56421527D01*
X187426626Y-56286374D01*
X187696932Y-56286374D01*
X187967237Y-56286374D01*
X187967237Y-56691832D01*
X187967237Y-57097290D01*
X188102390Y-57097290D01*
X188237543Y-57097290D01*
X188237543Y-57232443D01*
X188237543Y-57367596D01*
X188372696Y-57367596D01*
X188507848Y-57367596D01*
X188507848Y-57232443D01*
X188507848Y-57097290D01*
X188372696Y-57097290D01*
X188237543Y-57097290D01*
X188237543Y-56962138D01*
X188237543Y-56826985D01*
X188372696Y-56826985D01*
X188507848Y-56826985D01*
X188507848Y-56962138D01*
X188507848Y-57097290D01*
X188643001Y-57097290D01*
X188778154Y-57097290D01*
X188778154Y-56962138D01*
X188778154Y-56826985D01*
X188643001Y-56826985D01*
X188507848Y-56826985D01*
X188507848Y-56691832D01*
X188507848Y-56556679D01*
X188778154Y-56556679D01*
X188778154Y-56691832D01*
X188778154Y-56826985D01*
X188913307Y-56826985D01*
X189048459Y-56826985D01*
X189048459Y-56691832D01*
X189048459Y-56556679D01*
X188913307Y-56556679D01*
X188778154Y-56556679D01*
X188507848Y-56556679D01*
X188372696Y-56556679D01*
X188237543Y-56556679D01*
X188237543Y-56421527D01*
X188237543Y-56286374D01*
X188507848Y-56286374D01*
X188778154Y-56286374D01*
X188778154Y-56151221D01*
X188778154Y-56016068D01*
X188372696Y-56016068D01*
X187967237Y-56016068D01*
X187967237Y-55880916D01*
X187967237Y-55745763D01*
X188372696Y-55745763D01*
X188778154Y-55745763D01*
X188778154Y-55880916D01*
X188778154Y-56016068D01*
X188913307Y-56016068D01*
X189048459Y-56016068D01*
X189048459Y-55880916D01*
X189048459Y-55745763D01*
X189318765Y-55745763D01*
X189589070Y-55745763D01*
X189589070Y-55880916D01*
X189589070Y-56016068D01*
X189453918Y-56016068D01*
X189318765Y-56016068D01*
X189318765Y-56421527D01*
X189318765Y-56691832D01*
X189318765Y-56826985D01*
G37*
G36*
X187426626Y-56151221D02*
G01*
X187426626Y-56286374D01*
X187291473Y-56286374D01*
X187156321Y-56286374D01*
X187156321Y-56691832D01*
X187156321Y-57097290D01*
X186886015Y-57097290D01*
X186615710Y-57097290D01*
X186615710Y-56962138D01*
X186615710Y-56826985D01*
X186345404Y-56826985D01*
X186075099Y-56826985D01*
X186075099Y-56556679D01*
X186075099Y-56286374D01*
X186210251Y-56286374D01*
X186345404Y-56286374D01*
X186345404Y-56421527D01*
X186345404Y-56556679D01*
X186615710Y-56556679D01*
X186886015Y-56556679D01*
X186886015Y-56286374D01*
X186886015Y-56016068D01*
X187156321Y-56016068D01*
X187426626Y-56016068D01*
X187426626Y-56151221D01*
G37*
G36*
X186886015Y-55340304D02*
G01*
X186886015Y-55475457D01*
X187021168Y-55475457D01*
X187156321Y-55475457D01*
X187156321Y-55340304D01*
X187156321Y-55205152D01*
X187291473Y-55205152D01*
X187426626Y-55205152D01*
X187426626Y-55340304D01*
X187426626Y-55475457D01*
X187561779Y-55475457D01*
X187696932Y-55475457D01*
X187696932Y-55340304D01*
X187696932Y-55205152D01*
X187832084Y-55205152D01*
X187967237Y-55205152D01*
X187967237Y-55475457D01*
X187967237Y-55745763D01*
X187696932Y-55745763D01*
X187426626Y-55745763D01*
X187426626Y-55610610D01*
X187426626Y-55475457D01*
X187291473Y-55475457D01*
X187156321Y-55475457D01*
X187156321Y-55610610D01*
X187156321Y-55745763D01*
X186886015Y-55745763D01*
X186615710Y-55745763D01*
X186615710Y-55475457D01*
X186615710Y-55205152D01*
X186750862Y-55205152D01*
X186886015Y-55205152D01*
X186886015Y-55340304D01*
G37*
G36*
X186615710Y-53718471D02*
G01*
X186615710Y-53853624D01*
X186750862Y-53853624D01*
X186886015Y-53853624D01*
X186886015Y-53718471D01*
X186886015Y-53583319D01*
X187021168Y-53583319D01*
X187156321Y-53583319D01*
X187156321Y-53718471D01*
X187156321Y-53853624D01*
X187021168Y-53853624D01*
X186886015Y-53853624D01*
X186886015Y-53988777D01*
X186886015Y-54123930D01*
X187021168Y-54123930D01*
X187156321Y-54123930D01*
X187156321Y-53988777D01*
X187156321Y-53853624D01*
X187291473Y-53853624D01*
X187426626Y-53853624D01*
X187426626Y-53988777D01*
X187426626Y-54123930D01*
X187426626Y-54394235D01*
X187291473Y-54394235D01*
X187156321Y-54394235D01*
X187156321Y-54529388D01*
X187156321Y-54664541D01*
X187291473Y-54664541D01*
X187426626Y-54664541D01*
X187426626Y-54529388D01*
X187426626Y-54394235D01*
X187696932Y-54394235D01*
X187967237Y-54394235D01*
X187967237Y-54529388D01*
X187967237Y-54664541D01*
X187696932Y-54664541D01*
X187426626Y-54664541D01*
X187426626Y-54799693D01*
X187426626Y-54934846D01*
X187291473Y-54934846D01*
X187156321Y-54934846D01*
X187156321Y-55069999D01*
X187156321Y-55205152D01*
X187021168Y-55205152D01*
X186886015Y-55205152D01*
X186886015Y-54664541D01*
X186886015Y-54123930D01*
X186615710Y-54123930D01*
X186345404Y-54123930D01*
X186345404Y-53988777D01*
X186345404Y-53853624D01*
X186210251Y-53853624D01*
X186075099Y-53853624D01*
X186075099Y-53718471D01*
X186075099Y-53583319D01*
X186345404Y-53583319D01*
X186615710Y-53583319D01*
X186615710Y-53718471D01*
G37*
G36*
X187561779Y-54934846D02*
G01*
X187696932Y-54934846D01*
X187696932Y-55069999D01*
X187696932Y-55205152D01*
X187561779Y-55205152D01*
X187426626Y-55205152D01*
X187426626Y-55069999D01*
X187426626Y-54934846D01*
X187561779Y-54934846D01*
G37*
G36*
X185804793Y-56826985D02*
G01*
X185669640Y-56826985D01*
X185534487Y-56826985D01*
X185534487Y-56691832D01*
X185534487Y-56556679D01*
X185399335Y-56556679D01*
X185264182Y-56556679D01*
X185264182Y-56826985D01*
X185264182Y-57097290D01*
X185534487Y-57097290D01*
X185804793Y-57097290D01*
X185804793Y-57232443D01*
X185804793Y-57367596D01*
X185939946Y-57367596D01*
X186075099Y-57367596D01*
X186075099Y-57502749D01*
X186075099Y-57637901D01*
X185939946Y-57637901D01*
X185804793Y-57637901D01*
X185804793Y-57773054D01*
X185804793Y-57908207D01*
X186075099Y-57908207D01*
X186345404Y-57908207D01*
X186345404Y-57773054D01*
X186345404Y-57637901D01*
X186480557Y-57637901D01*
X186615710Y-57637901D01*
X186615710Y-57773054D01*
X186615710Y-57908207D01*
X186750862Y-57908207D01*
X186886015Y-57908207D01*
X186886015Y-57637901D01*
X186886015Y-57367596D01*
X187021168Y-57367596D01*
X187156321Y-57367596D01*
X187156321Y-57637901D01*
X187156321Y-57908207D01*
X187021168Y-57908207D01*
X186886015Y-57908207D01*
X186886015Y-58043360D01*
X186886015Y-58178513D01*
X186750862Y-58178513D01*
X186615710Y-58178513D01*
X186615710Y-58043360D01*
X186615710Y-57908207D01*
X186480557Y-57908207D01*
X186345404Y-57908207D01*
X186345404Y-58313665D01*
X186345404Y-58719124D01*
X185804793Y-58719124D01*
X185264182Y-58719124D01*
X185264182Y-58583971D01*
X185264182Y-58448818D01*
X185534487Y-58448818D01*
X185669640Y-58448818D01*
X185804793Y-58448818D01*
X185804793Y-58313665D01*
X185804793Y-58178513D01*
X185669640Y-58178513D01*
X185534487Y-58178513D01*
X185534487Y-58313665D01*
X185534487Y-58448818D01*
X185264182Y-58448818D01*
X184993876Y-58448818D01*
X184723571Y-58448818D01*
X184723571Y-58583971D01*
X184723571Y-58719124D01*
X184453265Y-58719124D01*
X184182960Y-58719124D01*
X184182960Y-58854276D01*
X184182960Y-58989429D01*
X183642349Y-58989429D01*
X183101738Y-58989429D01*
X183101738Y-58854276D01*
X183101738Y-58719124D01*
X183236891Y-58719124D01*
X183372043Y-58719124D01*
X183372043Y-58583971D01*
X183372043Y-58448818D01*
X183642349Y-58448818D01*
X183642349Y-58583971D01*
X183642349Y-58719124D01*
X183777502Y-58719124D01*
X183912654Y-58719124D01*
X183912654Y-58583971D01*
X183912654Y-58448818D01*
X183777502Y-58448818D01*
X183642349Y-58448818D01*
X183372043Y-58448818D01*
X183101738Y-58448818D01*
X182831432Y-58448818D01*
X182831432Y-58583971D01*
X182831432Y-58719124D01*
X182696279Y-58719124D01*
X182561127Y-58719124D01*
X182561127Y-58989429D01*
X182561127Y-59259735D01*
X182290821Y-59259735D01*
X182020516Y-59259735D01*
X182020516Y-59394887D01*
X182020516Y-59530040D01*
X182155668Y-59530040D01*
X182290821Y-59530040D01*
X182290821Y-59800346D01*
X182290821Y-60070651D01*
X182425974Y-60070651D01*
X182561127Y-60070651D01*
X182561127Y-59935498D01*
X182561127Y-59800346D01*
X182696279Y-59800346D01*
X182831432Y-59800346D01*
X182831432Y-59530040D01*
X182831432Y-59259735D01*
X182966585Y-59259735D01*
X183101738Y-59259735D01*
X183101738Y-59394887D01*
X183101738Y-59530040D01*
X183372043Y-59530040D01*
X183642349Y-59530040D01*
X183642349Y-59394887D01*
X183642349Y-59259735D01*
X183912654Y-59259735D01*
X184182960Y-59259735D01*
X184182960Y-59124582D01*
X184182960Y-58989429D01*
X184453265Y-58989429D01*
X184723571Y-58989429D01*
X184723571Y-59124582D01*
X184723571Y-59259735D01*
X184588418Y-59259735D01*
X184453265Y-59259735D01*
X184453265Y-59530040D01*
X184453265Y-59800346D01*
X184318113Y-59800346D01*
X184182960Y-59800346D01*
X184182960Y-59665193D01*
X184182960Y-59530040D01*
X184047807Y-59530040D01*
X183912654Y-59530040D01*
X183912654Y-59665193D01*
X183912654Y-59800346D01*
X183507196Y-59800346D01*
X183101738Y-59800346D01*
X183101738Y-59935498D01*
X183101738Y-60070651D01*
X183372043Y-60070651D01*
X183642349Y-60070651D01*
X183642349Y-60340957D01*
X183642349Y-60611262D01*
X184047807Y-60611262D01*
X184453265Y-60611262D01*
X184453265Y-60476109D01*
X184453265Y-60340957D01*
X185129029Y-60340957D01*
X185804793Y-60340957D01*
X185804793Y-60205804D01*
X185804793Y-60070651D01*
X186075099Y-60070651D01*
X186345404Y-60070651D01*
X186345404Y-59935498D01*
X186345404Y-59800346D01*
X186210251Y-59800346D01*
X186075099Y-59800346D01*
X186075099Y-59665193D01*
X186075099Y-59530040D01*
X185939946Y-59530040D01*
X185804793Y-59530040D01*
X185804793Y-59394887D01*
X185804793Y-59259735D01*
X186075099Y-59259735D01*
X186345404Y-59259735D01*
X186345404Y-58989429D01*
X186345404Y-58719124D01*
X186480557Y-58719124D01*
X186615710Y-58719124D01*
X186615710Y-58854276D01*
X186615710Y-58989429D01*
X186750862Y-58989429D01*
X186886015Y-58989429D01*
X186886015Y-58854276D01*
X186886015Y-58719124D01*
X186750862Y-58719124D01*
X186615710Y-58719124D01*
X186615710Y-58583971D01*
X186615710Y-58448818D01*
X186886015Y-58448818D01*
X187156321Y-58448818D01*
X187156321Y-58583971D01*
X187156321Y-58719124D01*
X187291473Y-58719124D01*
X187426626Y-58719124D01*
X187426626Y-58583971D01*
X187426626Y-58448818D01*
X188102390Y-58448818D01*
X188778154Y-58448818D01*
X188778154Y-58719124D01*
X188778154Y-58854276D01*
X188778154Y-58989429D01*
X188643001Y-58989429D01*
X188507848Y-58989429D01*
X188507848Y-59124582D01*
X188507848Y-59259735D01*
X188372696Y-59259735D01*
X188237543Y-59259735D01*
X188237543Y-59124582D01*
X188237543Y-58989429D01*
X188102390Y-58989429D01*
X187967237Y-58989429D01*
X187967237Y-58854276D01*
X187967237Y-58719124D01*
X188237543Y-58719124D01*
X188237543Y-58854276D01*
X188237543Y-58989429D01*
X188372696Y-58989429D01*
X188507848Y-58989429D01*
X188507848Y-58854276D01*
X188507848Y-58719124D01*
X188372696Y-58719124D01*
X188237543Y-58719124D01*
X187967237Y-58719124D01*
X187696932Y-58719124D01*
X187426626Y-58719124D01*
X187426626Y-58854276D01*
X187426626Y-58989429D01*
X187156321Y-58989429D01*
X186886015Y-58989429D01*
X186886015Y-59124582D01*
X186886015Y-59259735D01*
X187021168Y-59259735D01*
X187156321Y-59259735D01*
X187156321Y-59394887D01*
X187156321Y-59530040D01*
X187021168Y-59530040D01*
X186886015Y-59530040D01*
X186886015Y-59665193D01*
X186886015Y-59800346D01*
X187021168Y-59800346D01*
X187156321Y-59800346D01*
X187156321Y-59935498D01*
X187156321Y-60070651D01*
X187832084Y-60070651D01*
X188507848Y-60070651D01*
X188507848Y-60205804D01*
X188507848Y-60340957D01*
X188237543Y-60340957D01*
X187967237Y-60340957D01*
X187967237Y-60611262D01*
X187967237Y-60746415D01*
X187967237Y-61016721D01*
X187967237Y-61151873D01*
X187561779Y-61151873D01*
X187156321Y-61151873D01*
X187156321Y-61287026D01*
X187156321Y-61422179D01*
X187561779Y-61422179D01*
X187967237Y-61422179D01*
X187967237Y-61557332D01*
X187967237Y-61692484D01*
X187967237Y-61827637D01*
X187967237Y-61962790D01*
X187832084Y-61962790D01*
X187696932Y-61962790D01*
X187696932Y-62097943D01*
X187696932Y-62233095D01*
X187561779Y-62233095D01*
X187426626Y-62233095D01*
X187426626Y-62368248D01*
X187426626Y-62503401D01*
X187291473Y-62503401D01*
X187156321Y-62503401D01*
X187156321Y-62368248D01*
X187156321Y-62233095D01*
X187021168Y-62233095D01*
X186886015Y-62233095D01*
X186886015Y-62368248D01*
X186886015Y-62503401D01*
X185939946Y-62503401D01*
X184993876Y-62503401D01*
X184993876Y-62368248D01*
X184993876Y-62233095D01*
X184858724Y-62233095D01*
X184723571Y-62233095D01*
X184723571Y-61962790D01*
X184723571Y-61692484D01*
X184453265Y-61692484D01*
X184182960Y-61692484D01*
X184182960Y-61962790D01*
X184182960Y-62233095D01*
X184047807Y-62233095D01*
X183912654Y-62233095D01*
X183912654Y-62368248D01*
X183912654Y-62503401D01*
X183777502Y-62503401D01*
X183642349Y-62503401D01*
X183642349Y-62233095D01*
X183642349Y-61962790D01*
X183777502Y-61962790D01*
X183912654Y-61962790D01*
X183912654Y-61827637D01*
X183912654Y-61692484D01*
X183777502Y-61692484D01*
X183642349Y-61692484D01*
X183642349Y-61557332D01*
X183642349Y-61422179D01*
X183236891Y-61422179D01*
X182831432Y-61422179D01*
X182831432Y-61557332D01*
X182831432Y-61692484D01*
X182966585Y-61692484D01*
X183101738Y-61692484D01*
X183101738Y-61827637D01*
X183101738Y-61962790D01*
X182966585Y-61962790D01*
X182831432Y-61962790D01*
X182831432Y-62097943D01*
X182831432Y-62233095D01*
X182696279Y-62233095D01*
X182561127Y-62233095D01*
X182561127Y-62368248D01*
X182561127Y-62503401D01*
X182425974Y-62503401D01*
X182290821Y-62503401D01*
X182290821Y-62233095D01*
X182290821Y-61962790D01*
X182020516Y-61962790D01*
X181750210Y-61962790D01*
X181750210Y-61827637D01*
X181750210Y-61692484D01*
X181885363Y-61692484D01*
X182020516Y-61692484D01*
X182290821Y-61692484D01*
X182290821Y-61962790D01*
X182425974Y-61962790D01*
X182561127Y-61962790D01*
X182561127Y-61692484D01*
X182561127Y-61422179D01*
X182425974Y-61422179D01*
X182290821Y-61422179D01*
X182290821Y-61692484D01*
X182020516Y-61692484D01*
X182020516Y-61557332D01*
X182020516Y-61422179D01*
X182155668Y-61422179D01*
X182290821Y-61422179D01*
X182290821Y-61287026D01*
X182290821Y-61151873D01*
X182155668Y-61151873D01*
X182020516Y-61151873D01*
X182020516Y-61287026D01*
X182020516Y-61422179D01*
X181750210Y-61422179D01*
X181479905Y-61422179D01*
X181479905Y-61287026D01*
X181479905Y-61151873D01*
X181344752Y-61151873D01*
X181209599Y-61151873D01*
X181209599Y-61016721D01*
X181209599Y-60881568D01*
X181750210Y-60881568D01*
X182290821Y-60881568D01*
X182290821Y-60746415D01*
X182290821Y-60611262D01*
X182155668Y-60611262D01*
X182020516Y-60611262D01*
X182020516Y-60476109D01*
X182020516Y-60340957D01*
X182155668Y-60340957D01*
X182290821Y-60340957D01*
X182561127Y-60340957D01*
X182561127Y-60746415D01*
X182561127Y-61151873D01*
X182966585Y-61151873D01*
X183372043Y-61151873D01*
X183372043Y-60881568D01*
X183912654Y-60881568D01*
X183912654Y-61151873D01*
X183912654Y-61422179D01*
X184182960Y-61422179D01*
X184453265Y-61422179D01*
X184453265Y-61287026D01*
X184453265Y-61151873D01*
X184318113Y-61151873D01*
X184182960Y-61151873D01*
X184182960Y-61016721D01*
X184182960Y-60881568D01*
X184723571Y-60881568D01*
X184723571Y-61016721D01*
X184723571Y-61151873D01*
X184858724Y-61151873D01*
X184993876Y-61151873D01*
X184993876Y-61287026D01*
X184993876Y-61422179D01*
X185129029Y-61422179D01*
X185264182Y-61422179D01*
X185264182Y-61557332D01*
X185264182Y-61692484D01*
X185129029Y-61692484D01*
X184993876Y-61692484D01*
X184993876Y-61962790D01*
X184993876Y-62233095D01*
X185129029Y-62233095D01*
X185264182Y-62233095D01*
X185264182Y-62097943D01*
X185264182Y-61962790D01*
X185669640Y-61962790D01*
X186075099Y-61962790D01*
X186345404Y-61962790D01*
X186345404Y-62097943D01*
X186345404Y-62233095D01*
X186615710Y-62233095D01*
X186886015Y-62233095D01*
X186886015Y-62097943D01*
X186886015Y-61962790D01*
X186615710Y-61962790D01*
X186345404Y-61962790D01*
X186075099Y-61962790D01*
X186075099Y-61692484D01*
X186075099Y-61422179D01*
X186345404Y-61422179D01*
X186345404Y-61557332D01*
X186345404Y-61692484D01*
X186615710Y-61692484D01*
X186886015Y-61692484D01*
X187156321Y-61692484D01*
X187156321Y-61827637D01*
X187156321Y-61962790D01*
X187291473Y-61962790D01*
X187426626Y-61962790D01*
X187426626Y-61827637D01*
X187426626Y-61692484D01*
X187291473Y-61692484D01*
X187156321Y-61692484D01*
X186886015Y-61692484D01*
X186886015Y-61557332D01*
X186886015Y-61422179D01*
X186615710Y-61422179D01*
X186345404Y-61422179D01*
X186075099Y-61422179D01*
X185939946Y-61422179D01*
X185804793Y-61422179D01*
X185804793Y-61151873D01*
X185804793Y-60881568D01*
X185939946Y-60881568D01*
X186075099Y-60881568D01*
X186075099Y-61016721D01*
X186075099Y-61151873D01*
X186210251Y-61151873D01*
X186345404Y-61151873D01*
X186345404Y-60881568D01*
X186615710Y-60881568D01*
X186615710Y-61016721D01*
X186615710Y-61151873D01*
X186750862Y-61151873D01*
X186886015Y-61151873D01*
X186886015Y-61016721D01*
X186886015Y-60881568D01*
X186750862Y-60881568D01*
X186615710Y-60881568D01*
X186345404Y-60881568D01*
X186345404Y-60611262D01*
X186750862Y-60611262D01*
X187156321Y-60611262D01*
X187156321Y-60746415D01*
X187156321Y-60881568D01*
X187426626Y-60881568D01*
X187696932Y-60881568D01*
X187696932Y-60746415D01*
X187696932Y-60611262D01*
X187561779Y-60611262D01*
X187426626Y-60611262D01*
X187426626Y-60476109D01*
X187426626Y-60340957D01*
X186750862Y-60340957D01*
X186075099Y-60340957D01*
X186075099Y-60476109D01*
X186075099Y-60611262D01*
X185939946Y-60611262D01*
X185804793Y-60611262D01*
X185804793Y-60746415D01*
X185804793Y-60881568D01*
X185669640Y-60881568D01*
X185534487Y-60881568D01*
X185534487Y-60746415D01*
X185534487Y-60611262D01*
X185264182Y-60611262D01*
X184993876Y-60611262D01*
X184993876Y-60746415D01*
X184993876Y-60881568D01*
X184858724Y-60881568D01*
X184723571Y-60881568D01*
X184182960Y-60881568D01*
X184047807Y-60881568D01*
X183912654Y-60881568D01*
X183372043Y-60881568D01*
X183372043Y-60746415D01*
X183372043Y-60340957D01*
X182966585Y-60340957D01*
X182561127Y-60340957D01*
X182290821Y-60340957D01*
X182290821Y-60205804D01*
X182290821Y-60070651D01*
X182155668Y-60070651D01*
X182020516Y-60070651D01*
X182020516Y-59935498D01*
X182020516Y-59800346D01*
X181885363Y-59800346D01*
X181750210Y-59800346D01*
X181750210Y-59935498D01*
X181750210Y-60070651D01*
X181615057Y-60070651D01*
X181479905Y-60070651D01*
X181479905Y-59935498D01*
X181479905Y-59800346D01*
X181344752Y-59800346D01*
X181209599Y-59800346D01*
X181209599Y-59530040D01*
X181209599Y-59259735D01*
X181344752Y-59259735D01*
X181479905Y-59259735D01*
X181479905Y-59394887D01*
X181479905Y-59530040D01*
X181615057Y-59530040D01*
X181750210Y-59530040D01*
X181750210Y-59394887D01*
X181750210Y-59259735D01*
X181615057Y-59259735D01*
X181479905Y-59259735D01*
X181479905Y-59124582D01*
X181479905Y-58989429D01*
X181885363Y-58989429D01*
X182290821Y-58989429D01*
X182290821Y-58719124D01*
X182290821Y-58448818D01*
X182155668Y-58448818D01*
X182020516Y-58448818D01*
X182020516Y-58583971D01*
X182020516Y-58719124D01*
X181750210Y-58719124D01*
X181479905Y-58719124D01*
X181479905Y-58583971D01*
X181479905Y-58448818D01*
X181344752Y-58448818D01*
X181209599Y-58448818D01*
X181209599Y-58313665D01*
X181209599Y-58178513D01*
X181479905Y-58178513D01*
X181750210Y-58178513D01*
X181750210Y-58313665D01*
X181750210Y-58448818D01*
X181885363Y-58448818D01*
X182020516Y-58448818D01*
X182020516Y-58313665D01*
X182020516Y-58178513D01*
X181885363Y-58178513D01*
X181750210Y-58178513D01*
X181750210Y-58043360D01*
X182020516Y-58043360D01*
X182020516Y-58178513D01*
X182155668Y-58178513D01*
X182290821Y-58178513D01*
X182561127Y-58178513D01*
X182561127Y-58448818D01*
X182696279Y-58448818D01*
X182831432Y-58448818D01*
X182831432Y-58313665D01*
X184182960Y-58313665D01*
X184182960Y-58448818D01*
X184318113Y-58448818D01*
X184453265Y-58448818D01*
X184453265Y-58313665D01*
X184453265Y-58178513D01*
X184318113Y-58178513D01*
X184182960Y-58178513D01*
X184182960Y-58313665D01*
X182831432Y-58313665D01*
X182831432Y-58178513D01*
X182831432Y-57908207D01*
X182696279Y-57908207D01*
X182561127Y-57908207D01*
X182561127Y-58043360D01*
X182561127Y-58178513D01*
X182290821Y-58178513D01*
X182290821Y-58043360D01*
X182290821Y-57908207D01*
X182155668Y-57908207D01*
X182020516Y-57908207D01*
X182020516Y-58043360D01*
X181750210Y-58043360D01*
X181750210Y-57773054D01*
X181750210Y-57367596D01*
X181615057Y-57367596D01*
X181479905Y-57367596D01*
X181479905Y-57232443D01*
X181479905Y-57097290D01*
X181615057Y-57097290D01*
X181750210Y-57097290D01*
X181750210Y-57232443D01*
X181750210Y-57367596D01*
X181885363Y-57367596D01*
X182020516Y-57367596D01*
X182020516Y-56826985D01*
X182020516Y-56556679D01*
X182290821Y-56556679D01*
X182290821Y-56691832D01*
X182290821Y-56826985D01*
X182425974Y-56826985D01*
X182561127Y-56826985D01*
X182561127Y-56691832D01*
X182561127Y-56556679D01*
X182425974Y-56556679D01*
X182290821Y-56556679D01*
X182020516Y-56556679D01*
X182020516Y-56286374D01*
X181885363Y-56286374D01*
X181750210Y-56286374D01*
X181750210Y-56421527D01*
X181750210Y-56556679D01*
X181479905Y-56556679D01*
X181209599Y-56556679D01*
X181209599Y-56151221D01*
X181209599Y-55745763D01*
X181479905Y-55745763D01*
X181750210Y-55745763D01*
X181750210Y-55880916D01*
X181750210Y-56016068D01*
X181885363Y-56016068D01*
X182020516Y-56016068D01*
X182020516Y-55880916D01*
X182020516Y-55745763D01*
X182155668Y-55745763D01*
X182290821Y-55745763D01*
X182290821Y-56016068D01*
X182290821Y-56286374D01*
X182425974Y-56286374D01*
X182561127Y-56286374D01*
X182561127Y-56151221D01*
X182561127Y-56016068D01*
X182696279Y-56016068D01*
X182831432Y-56016068D01*
X182831432Y-55880916D01*
X182831432Y-55745763D01*
X182966585Y-55745763D01*
X183101738Y-55745763D01*
X183101738Y-56151221D01*
X183101738Y-56556679D01*
X182966585Y-56556679D01*
X182831432Y-56556679D01*
X182831432Y-56691832D01*
X182831432Y-56962138D01*
X182831432Y-57367596D01*
X182696279Y-57367596D01*
X182561127Y-57367596D01*
X182561127Y-57232443D01*
X182561127Y-57097290D01*
X182425974Y-57097290D01*
X182290821Y-57097290D01*
X182290821Y-57232443D01*
X182290821Y-57367596D01*
X182155668Y-57367596D01*
X182020516Y-57367596D01*
X182020516Y-57502749D01*
X182020516Y-57637901D01*
X182425974Y-57637901D01*
X182831432Y-57637901D01*
X182831432Y-57502749D01*
X182831432Y-57367596D01*
X182966585Y-57367596D01*
X183101738Y-57367596D01*
X183101738Y-57502749D01*
X183101738Y-57637901D01*
X183236891Y-57637901D01*
X183372043Y-57637901D01*
X183372043Y-57908207D01*
X183372043Y-58178513D01*
X183507196Y-58178513D01*
X183642349Y-58178513D01*
X183642349Y-58043360D01*
X183642349Y-57908207D01*
X183912654Y-57908207D01*
X184182960Y-57908207D01*
X184453265Y-57908207D01*
X184453265Y-58043360D01*
X184453265Y-58178513D01*
X184588418Y-58178513D01*
X184723571Y-58178513D01*
X184723571Y-58043360D01*
X184723571Y-57908207D01*
X184588418Y-57908207D01*
X184453265Y-57908207D01*
X184182960Y-57908207D01*
X184182960Y-57502749D01*
X184182960Y-57097290D01*
X184318113Y-57097290D01*
X184453265Y-57097290D01*
X184453265Y-57367596D01*
X184453265Y-57637901D01*
X184723571Y-57637901D01*
X184993876Y-57637901D01*
X184993876Y-57773054D01*
X184993876Y-57908207D01*
X185129029Y-57908207D01*
X185264182Y-57908207D01*
X185264182Y-58043360D01*
X185264182Y-58178513D01*
X185399335Y-58178513D01*
X185534487Y-58178513D01*
X185534487Y-57773054D01*
X185534487Y-57367596D01*
X185264182Y-57367596D01*
X184993876Y-57367596D01*
X184993876Y-57097290D01*
X184993876Y-56826985D01*
X184723571Y-56826985D01*
X184453265Y-56826985D01*
X184453265Y-56556679D01*
X184453265Y-56286374D01*
X184723571Y-56286374D01*
X184723571Y-56421527D01*
X184723571Y-56556679D01*
X184993876Y-56556679D01*
X185264182Y-56556679D01*
X185264182Y-56421527D01*
X185264182Y-56286374D01*
X184993876Y-56286374D01*
X184723571Y-56286374D01*
X184453265Y-56286374D01*
X184318113Y-56286374D01*
X184182960Y-56286374D01*
X184182960Y-56691832D01*
X184182960Y-57097290D01*
X183912654Y-57097290D01*
X183642349Y-57097290D01*
X183642349Y-57232443D01*
X183642349Y-57367596D01*
X183507196Y-57367596D01*
X183372043Y-57367596D01*
X183372043Y-57232443D01*
X183372043Y-57097290D01*
X183236891Y-57097290D01*
X183101738Y-57097290D01*
X183101738Y-56962138D01*
X183101738Y-56826985D01*
X183507196Y-56826985D01*
X183912654Y-56826985D01*
X183912654Y-56691832D01*
X183912654Y-56556679D01*
X183777502Y-56556679D01*
X183642349Y-56556679D01*
X183642349Y-56286374D01*
X183642349Y-56151221D01*
X183912654Y-56151221D01*
X183912654Y-56286374D01*
X184047807Y-56286374D01*
X184182960Y-56286374D01*
X184182960Y-56151221D01*
X184182960Y-56016068D01*
X184047807Y-56016068D01*
X183912654Y-56016068D01*
X183912654Y-56151221D01*
X183642349Y-56151221D01*
X183642349Y-56016068D01*
X183777502Y-56016068D01*
X183912654Y-56016068D01*
X183912654Y-55880916D01*
X183912654Y-55745763D01*
X184182960Y-55745763D01*
X184453265Y-55745763D01*
X184453265Y-55880916D01*
X184453265Y-56016068D01*
X184588418Y-56016068D01*
X184723571Y-56016068D01*
X184723571Y-55880916D01*
X184723571Y-55745763D01*
X184993876Y-55745763D01*
X185264182Y-55745763D01*
X185264182Y-56016068D01*
X185264182Y-56286374D01*
X185399335Y-56286374D01*
X185534487Y-56286374D01*
X185534487Y-56016068D01*
X185534487Y-55745763D01*
X185669640Y-55745763D01*
X185804793Y-55745763D01*
X185804793Y-56286374D01*
X185804793Y-56421527D01*
X185804793Y-56826985D01*
G37*
G36*
X182966585Y-62233095D02*
G01*
X183101738Y-62233095D01*
X183101738Y-62368248D01*
X183101738Y-62503401D01*
X182966585Y-62503401D01*
X182831432Y-62503401D01*
X182831432Y-62368248D01*
X182831432Y-62233095D01*
X182966585Y-62233095D01*
G37*
G36*
X184318113Y-62233095D02*
G01*
X184453265Y-62233095D01*
X184453265Y-62368248D01*
X184453265Y-62503401D01*
X184318113Y-62503401D01*
X184182960Y-62503401D01*
X184182960Y-62368248D01*
X184182960Y-62233095D01*
X184318113Y-62233095D01*
G37*
G36*
X187832084Y-62233095D02*
G01*
X187967237Y-62233095D01*
X187967237Y-62368248D01*
X187967237Y-62503401D01*
X187832084Y-62503401D01*
X187696932Y-62503401D01*
X187696932Y-62368248D01*
X187696932Y-62233095D01*
X187832084Y-62233095D01*
G37*
G36*
X190129681Y-58989429D02*
G01*
X190129681Y-59530040D01*
X189859376Y-59530040D01*
X189589070Y-59530040D01*
X189589070Y-59665193D01*
X189589070Y-59800346D01*
X189453918Y-59800346D01*
X189318765Y-59800346D01*
X189318765Y-59530040D01*
X189318765Y-59259735D01*
X189183612Y-59259735D01*
X189048459Y-59259735D01*
X189048459Y-59530040D01*
X189048459Y-59800346D01*
X189183612Y-59800346D01*
X189318765Y-59800346D01*
X189318765Y-59935498D01*
X189318765Y-60070651D01*
X189453918Y-60070651D01*
X189589070Y-60070651D01*
X189589070Y-59935498D01*
X189589070Y-59800346D01*
X189724223Y-59800346D01*
X189859376Y-59800346D01*
X189859376Y-59935498D01*
X189859376Y-60070651D01*
X189724223Y-60070651D01*
X189589070Y-60070651D01*
X189589070Y-60205804D01*
X189589070Y-60340957D01*
X189453918Y-60340957D01*
X189318765Y-60340957D01*
X189318765Y-60205804D01*
X189318765Y-60070651D01*
X189183612Y-60070651D01*
X189048459Y-60070651D01*
X189048459Y-60205804D01*
X189048459Y-60340957D01*
X188913307Y-60340957D01*
X188778154Y-60340957D01*
X188778154Y-60070651D01*
X188778154Y-59800346D01*
X188507848Y-59800346D01*
X188237543Y-59800346D01*
X188237543Y-59665193D01*
X188237543Y-59530040D01*
X188507848Y-59530040D01*
X188778154Y-59530040D01*
X188778154Y-59259735D01*
X188778154Y-58989429D01*
X189183612Y-58989429D01*
X189589070Y-58989429D01*
X189589070Y-59124582D01*
X189589070Y-59259735D01*
X189724223Y-59259735D01*
X189859376Y-59259735D01*
X189859376Y-58989429D01*
X189859376Y-58719124D01*
X189724223Y-58719124D01*
X189589070Y-58719124D01*
X189589070Y-58583971D01*
X189589070Y-58448818D01*
X189859376Y-58448818D01*
X190129681Y-58448818D01*
X190129681Y-58989429D01*
G37*
G36*
X189994529Y-60070651D02*
G01*
X190129681Y-60070651D01*
X190129681Y-60205804D01*
X190129681Y-60340957D01*
X189994529Y-60340957D01*
X189859376Y-60340957D01*
X189859376Y-60205804D01*
X189859376Y-60070651D01*
X189994529Y-60070651D01*
G37*
G36*
X187561779Y-58989429D02*
G01*
X187696932Y-58989429D01*
X187696932Y-59259735D01*
X187696932Y-59530040D01*
X187561779Y-59530040D01*
X187426626Y-59530040D01*
X187426626Y-59259735D01*
X187426626Y-58989429D01*
X187561779Y-58989429D01*
G37*
G36*
X187426626Y-58313665D02*
G01*
X187426626Y-58448818D01*
X187291473Y-58448818D01*
X187156321Y-58448818D01*
X187156321Y-58313665D01*
X187156321Y-58178513D01*
X187291473Y-58178513D01*
X187426626Y-58178513D01*
X187426626Y-58313665D01*
G37*
G36*
X183642349Y-55880916D02*
G01*
X183642349Y-56016068D01*
X183507196Y-56016068D01*
X183372043Y-56016068D01*
X183372043Y-55880916D01*
X183372043Y-55745763D01*
X183507196Y-55745763D01*
X183642349Y-55745763D01*
X183642349Y-55880916D01*
G37*
G36*
X184047807Y-54123930D02*
G01*
X184182960Y-54123930D01*
X184182960Y-54529388D01*
X184182960Y-54934846D01*
X184318113Y-54934846D01*
X184453265Y-54934846D01*
X184453265Y-54664541D01*
X184453265Y-54394235D01*
X184588418Y-54394235D01*
X184723571Y-54394235D01*
X184723571Y-54664541D01*
X184723571Y-54934846D01*
X184993876Y-54934846D01*
X185264182Y-54934846D01*
X185264182Y-54799693D01*
X185264182Y-54664541D01*
X185399335Y-54664541D01*
X185534487Y-54664541D01*
X185534487Y-54799693D01*
X185534487Y-54934846D01*
X185399335Y-54934846D01*
X185264182Y-54934846D01*
X185264182Y-55205152D01*
X185264182Y-55475457D01*
X185399335Y-55475457D01*
X185534487Y-55475457D01*
X185534487Y-55340304D01*
X185534487Y-55205152D01*
X185669640Y-55205152D01*
X185804793Y-55205152D01*
X185804793Y-55340304D01*
X185804793Y-55475457D01*
X185669640Y-55475457D01*
X185534487Y-55475457D01*
X185534487Y-55610610D01*
X185534487Y-55745763D01*
X185399335Y-55745763D01*
X185264182Y-55745763D01*
X185264182Y-55610610D01*
X185264182Y-55475457D01*
X185129029Y-55475457D01*
X184993876Y-55475457D01*
X184993876Y-55340304D01*
X184993876Y-55205152D01*
X184858724Y-55205152D01*
X184723571Y-55205152D01*
X184723571Y-55475457D01*
X184723571Y-55745763D01*
X184588418Y-55745763D01*
X184453265Y-55745763D01*
X184453265Y-55475457D01*
X184453265Y-55205152D01*
X184318113Y-55205152D01*
X184182960Y-55205152D01*
X184182960Y-55340304D01*
X184182960Y-55475457D01*
X184047807Y-55475457D01*
X183912654Y-55475457D01*
X183912654Y-55610610D01*
X183912654Y-55745763D01*
X183777502Y-55745763D01*
X183642349Y-55745763D01*
X183642349Y-55610610D01*
X183642349Y-55475457D01*
X183507196Y-55475457D01*
X183372043Y-55475457D01*
X183372043Y-55069999D01*
X183372043Y-54664541D01*
X183507196Y-54664541D01*
X183642349Y-54664541D01*
X183642349Y-55069999D01*
X183642349Y-55475457D01*
X183777502Y-55475457D01*
X183912654Y-55475457D01*
X183912654Y-54799693D01*
X183912654Y-54123930D01*
X184047807Y-54123930D01*
G37*
G36*
X183912654Y-53853624D02*
G01*
X183912654Y-54123930D01*
X183777502Y-54123930D01*
X183642349Y-54123930D01*
X183642349Y-54259082D01*
X183642349Y-54394235D01*
X183507196Y-54394235D01*
X183372043Y-54394235D01*
X183372043Y-54123930D01*
X183372043Y-53853624D01*
X183507196Y-53853624D01*
X183642349Y-53853624D01*
X183642349Y-53718471D01*
X183642349Y-53583319D01*
X183777502Y-53583319D01*
X183912654Y-53583319D01*
X183912654Y-53853624D01*
G37*
%TD*%
M02*
